<?xml version="1.0" encoding="utf-8"?>
<!-- Generator: Adobe Illustrator 22.0.0, SVG Export Plug-In . SVG Version: 6.00 Build 0)  -->
<svg version="1.1" id="Слой_1" xmlns="http://www.w3.org/2000/svg" xmlns:xlink="http://www.w3.org/1999/xlink" x="0px" y="0px"
	 viewBox="0 0 177.7 37.3" enable-background="new 0 0 177.7 37.3" xml:space="preserve" fill="#fff">
<g>
	<defs>
		<rect id="SVGID_1_" width="177" height="35.1"/>
	</defs>
	<clipPath id="SVGID_2_">
		<use xlink:href="#SVGID_1_"  overflow="visible"/>
	</clipPath>
	<g clip-path="url(#SVGID_2_)">
		<defs>
			<rect id="SVGID_3_" width="177" height="35.1"/>
		</defs>
		<clipPath id="SVGID_4_">
			<use xlink:href="#SVGID_3_"  overflow="visible"/>
		</clipPath>
		<path clip-path="url(#SVGID_4_)" d="M168.4,11.3c0,3.5,0,3.5,0,3.5c3.1,0,3.1,0,3.1,0c0.7,0,1.1-0.5,1.1-1.8
			c0-1.4-0.5-1.7-1.1-1.7H168.4z M168.4,3.9c0,4.1,0,4.1,0,4.1c4.7,0,4.7,0,4.7,0c2.5,0,3.8,2.3,3.8,5c0,3.1-1.1,5.1-3.8,5.1
			c-8.5,0-8.5,0-8.5,0c0-14.2,0-14.2,0-14.2H168.4z M151.9,7.3c-0.4,3.3-1,6.9-2.4,10.9c-4.1,0-4.1,0-4.1,0
			c1.3-4.3,2.6-9.1,2.9-14.2c10.3,0,10.3,0,10.3,0c0,14.2,0,14.2,0,14.2c-3.8,0-3.8,0-3.8,0c0-10.9,0-10.9,0-10.9H151.9z M141.3,3.9
			c0,3.3,0,3.3,0,3.3c-7.1,0-7.1,0-7.1,0c0,1.8,0,1.8,0,1.8c5,0,5,0,5,0c0,3.5,0,3.5,0,3.5c-5,0-5,0-5,0c0,2.2,0,2.2,0,2.2
			c7.1,0,7.1,0,7.1,0c0,3.5,0,3.5,0,3.5c-10.9,0-10.9,0-10.9,0c0-14.2,0-14.2,0-14.2H141.3z M119.7,7.3c-2.9,0-2.9,0-2.9,0
			c-0.2,2.4-0.6,4.8-1.3,7.2c4.2,0,4.2,0,4.2,0V7.3z M123.5,14.4c2.5,0,2.5,0,2.5,0c-0.5,6.8-0.5,6.8-0.5,6.8c-3.5,0-3.5,0-3.5,0
			c0-3.1,0-3.1,0-3.1c-9.1,0-9.1,0-9.1,0c0,3.1,0,3.1,0,3.1c-3.5,0-3.5,0-3.5,0c-0.5-6.8-0.5-6.8-0.5-6.8c2.4,0,2.4,0,2.4,0
			c0.8-3.2,1.6-6.7,1.8-10.5c10.3,0,10.3,0,10.3,0V14.4z M98.6,7.3c-0.5,0-0.5,0-0.5,0c-0.4,1.2-1,2.9-1.6,4.8c3.5,0,3.5,0,3.5,0
			C99.4,10.3,99,8.5,98.6,7.3z M101.6,3.9c1.2,4.3,3.5,10.5,4.9,14.2c-4.3,0-4.3,0-4.3,0c-0.4-0.7-0.7-1.7-1.1-2.7
			c-5.5,0-5.5,0-5.5,0c-0.2,1.1-0.5,2-0.7,2.7c-4.2,0-4.2,0-4.2,0c1.1-3.8,3.5-10.5,4.9-14.2H101.6z M79.9,18.1
			c0-10.9,0-10.9,0-10.9c-4.7,0-4.7,0-4.7,0c0-3.3,0-3.3,0-3.3c13.2,0,13.2,0,13.2,0c0,3.3,0,3.3,0,3.3c-4.7,0-4.7,0-4.7,0
			c0,10.9,0,10.9,0,10.9H79.9z M71.2,18.1c-3.8,0-3.8,0-3.8,0c0-8.5,0-8.5,0-8.5c-1.4,2.9-3.1,5.7-4.7,8.5c-5,0-5,0-5,0
			c0-14.2,0-14.2,0-14.2c3.8,0,3.8,0,3.8,0c0,8.7,0,8.7,0,8.7c1.7-2.9,3.4-5.9,5-8.7c4.7,0,4.7,0,4.7,0V18.1z M41.9,14.4
			c4.7,0,4.7,0,4.7,0c0-10.5,0-10.5,0-10.5c3.8,0,3.8,0,3.8,0c0,10.5,0,10.5,0,10.5c2.5,0,2.5,0,2.5,0c-0.5,6.8-0.5,6.8-0.5,6.8
			c-3.5,0-3.5,0-3.5,0c0-3.1,0-3.1,0-3.1c-11,0-11,0-11,0c0-14.2,0-14.2,0-14.2c3.9,0,3.9,0,3.9,0V14.4z"/>
		<polygon clip-path="url(#SVGID_4_)" points="37.8,32.5 37.8,25.7 42.5,25.7 42.5,26.7 39.1,26.7 39.1,32.5 		"/>
		<path clip-path="url(#SVGID_4_)" d="M49.2,29.1c0.6,0,0.8-0.4,0.8-1.2c0-0.7-0.2-1.2-0.7-1.2c-1.9,0-1.9,0-1.9,0
			c0,2.4,0,2.4,0,2.4H49.2z M46.1,32.5c0-6.8,0-6.8,0-6.8c3.5,0,3.5,0,3.5,0c1.4,0,1.9,1,1.9,2.4c0,1.1-0.5,2.1-1.8,2.1
			c-2.3,0-2.3,0-2.3,0c0,2.3,0,2.3,0,2.3H46.1z"/>
		<path clip-path="url(#SVGID_4_)" d="M59.4,25.7c1.4,0,1.4,0,1.4,0c-1,2.3-2.3,5-3.4,6.8c-1.7,0-1.7,0-1.7,0
			c0.4-0.5,0.8-1.2,1.2-1.8c-0.5-1.2-1.7-3.7-2.4-5c1.4,0,1.4,0,1.4,0c0.6,1,1.3,2.4,1.7,3.7C58.3,28.1,59,26.7,59.4,25.7z"/>
		<polygon clip-path="url(#SVGID_4_)" points="65.7,32.5 64.4,32.5 64.4,25.7 69.9,25.7 69.9,32.5 68.6,32.5 68.6,26.7 65.7,26.7 		
			"/>
		<polygon clip-path="url(#SVGID_4_)" points="75.8,32.5 74.4,32.5 74.4,25.7 79.9,25.7 79.9,32.5 78.6,32.5 78.6,26.7 75.8,26.7 		
			"/>
		<path clip-path="url(#SVGID_4_)" d="M86.9,26.7c-0.4,1-0.7,1.9-1.1,2.9c2.3,0,2.3,0,2.3,0c-0.4-1-0.7-1.9-1-2.9H86.9z M88.4,30.8
			c-3,0-3,0-3,0c-0.1,0.6-0.4,1.1-0.5,1.7c-1.3,0-1.3,0-1.3,0c0.6-2,1.5-4.8,2.4-6.8c2,0,2,0,2,0c0.7,2.1,1.7,5,2.4,6.8
			c-1.3,0-1.3,0-1.3,0C88.9,32,88.7,31.4,88.4,30.8z"/>
		<path clip-path="url(#SVGID_4_)" d="M102.6,32.5c-1-2.6-1.7-3.1-2.9-3.2c0,3.2,0,3.2,0,3.2c-1.2,0-1.2,0-1.2,0c0-6.8,0-6.8,0-6.8
			c1.2,0,1.2,0,1.2,0c0,3.2,0,3.2,0,3.2c0.6-0.5,1.7-1.8,2.8-3.2c1.6,0,1.6,0,1.6,0c-1.3,1.8-2.1,2.7-2.5,3.1
			c0.8,0.2,1.4,0.6,2.6,3.7H102.6z"/>
		<path clip-path="url(#SVGID_4_)" d="M112.6,29c0-2-0.4-2.4-1.9-2.4c-1.4,0-1.8,0.4-1.8,2.4s0.4,2.4,1.8,2.4
			C112.3,31.4,112.6,31,112.6,29z M113.9,29c0,2.7-1.1,3.6-3.2,3.6c-2.1,0-3.2-0.8-3.2-3.6c0-2.7,1.1-3.5,3.2-3.5
			C112.9,25.6,113.9,26.3,113.9,29z"/>
		<path clip-path="url(#SVGID_4_)" d="M123.7,25.7c1.7,0,1.7,0,1.7,0c0,6.8,0,6.8,0,6.8c-1.2,0-1.2,0-1.2,0c0-5,0-5,0-5
			c-0.6,1.3-1.4,3-1.9,4.4c-1,0-1,0-1,0c-0.6-1.4-1.3-3.2-1.9-4.4c0,5,0,5,0,5c-1.2,0-1.2,0-1.2,0c0-6.8,0-6.8,0-6.8
			c1.8,0,1.8,0,1.8,0c0.6,1.3,1.3,3,1.9,4.3C122.4,28.5,123.1,27,123.7,25.7z"/>
		<polygon clip-path="url(#SVGID_4_)" points="131.4,32.5 130.1,32.5 130.1,25.7 135.5,25.7 135.5,32.5 134.3,32.5 134.3,26.7 
			131.4,26.7 		"/>
		<path clip-path="url(#SVGID_4_)" d="M142.4,26.7c-0.2,1-0.6,1.9-1,2.9c2.1,0,2.1,0,2.1,0c-0.2-1-0.6-1.9-0.8-2.9H142.4z
			 M144.1,30.8c-3,0-3,0-3,0c-0.2,0.6-0.4,1.1-0.6,1.7c-1.3,0-1.3,0-1.3,0c0.6-2,1.7-4.8,2.5-6.8c1.9,0,1.9,0,1.9,0
			c0.7,2.1,1.8,5,2.5,6.8c-1.4,0-1.4,0-1.4,0C144.4,32,144.2,31.4,144.1,30.8z"/>
		<polygon clip-path="url(#SVGID_4_)" points="151,32.5 149.7,32.5 149.7,25.7 151,25.7 151,28.3 153.9,28.3 153.9,25.7 155.1,25.7 
			155.1,32.5 153.9,32.5 153.9,29.5 151,29.5 		"/>
		<path clip-path="url(#SVGID_4_)" d="M165.6,32.5c-1.3,0-1.3,0-1.3,0c0-4.9,0-4.9,0-4.9c-0.8,1.7-1.9,3.3-2.9,4.9
			c-1.7,0-1.7,0-1.7,0c0-6.8,0-6.8,0-6.8c1.3,0,1.3,0,1.3,0c0,5.1,0,5.1,0,5.1c1-1.7,2-3.5,3-5.1c1.6,0,1.6,0,1.6,0V32.5z"/>
		<path clip-path="url(#SVGID_4_)" d="M172.6,24c0,0.5,0.1,0.6,0.6,0.6c0.4,0,0.6-0.1,0.6-0.6c0.8,0,0.8,0,0.8,0
			c0,1-0.5,1.3-1.4,1.3c-1,0-1.4-0.4-1.4-1.3H172.6z M176,32.5c-1.3,0-1.3,0-1.3,0c0-4.9,0-4.9,0-4.9c-0.8,1.7-1.8,3.3-2.9,4.9
			c-1.7,0-1.7,0-1.7,0c0-6.8,0-6.8,0-6.8c1.3,0,1.3,0,1.3,0c0,5.1,0,5.1,0,5.1c1.1-1.7,2-3.5,3-5.1c1.6,0,1.6,0,1.6,0V32.5z"/>
		<path fill="#fff" clip-path="url(#SVGID_4_)" d="M28,17.3c-1.3,8.4-5,13.3-12.8,17c-0.4,0.1-0.4,0.1-0.4,0.1c0-20.3,0-20.3,0-20.3
			c6.3,1.8,6.3,1.8,6.3,1.8c1,12.1,1,12.1,1,12.1c0.6-0.8,0.6-0.8,0.6-0.8c2-2.6,3.4-5.7,4-10c0.6-3.7,0.5-9.4,0.5-9.8
			c0-0.2,0-0.2,0-0.2c-0.4-0.1-0.4-0.1-0.4-0.1C22.6,5.7,21.7,2,21.7,2c0-0.4,0-0.4,0-0.4c-14.4,0-14.4,0-14.4,0c0,0.4,0,0.4,0,0.4
			c-0.1,0-1,3.7-5.1,4.9C1.8,7,1.8,7,1.8,7c0,0.2,0,0.2,0,0.2c0,0.4-0.1,6.1,0.5,9.8c0.6,4.3,1.9,7.4,4,10c0.6,0.8,0.6,0.8,0.6,0.8
			c1-12.1,1-12.1,1-12.1c6.3-1.8,6.3-1.8,6.3-1.8c0,20.3,0,20.3,0,20.3c-0.4-0.1-0.4-0.1-0.4-0.1C6,30.6,2.3,25.7,1,17.3
			c-0.6-3.8-0.4-9.8-0.4-10c0-1.2,0-1.2,0-1.2c1.2-0.4,1.2-0.4,1.2-0.4c1.4-0.4,2.6-1.2,3.5-2.4C5.9,2.5,6,1.8,6,1.8
			c0.2-1.3,0.2-1.3,0.2-1.3c16.5,0,16.5,0,16.5,0C23,1.8,23,1.8,23,1.8s0.1,0.7,0.7,1.6c0.8,1.2,2,2,3.5,2.4
			c1.2,0.4,1.2,0.4,1.2,0.4c0,1.2,0,1.2,0,1.2C28.4,7.5,28.6,13.5,28,17.3z M18.3,8c1.2-0.6,1.2-0.6,1.2-0.6
			c0.1,1.2,0.1,1.2,0.1,1.2L18.3,8z M21.9,14.3c-0.6,0.8-0.6,0.8-0.6,0.8c-6.5-1.9-6.5-1.9-6.5-1.9c0-1.1,0-1.1,0-1.1L21.9,14.3z
			 M14.8,11.3c0-6.1,0-6.1,0-6.1c1.8,0.8,1.8,0.8,1.8,0.8c0,2.1,0,2.1,0,2.1c3.8,1.6,3.8,1.6,3.8,1.6c-0.1-2-0.1-2-0.1-2
			c1.2,0.5,1.2,0.5,1.2,0.5c0.5,5.4,0.5,5.4,0.5,5.4L14.8,11.3z M14.5,4.3c-2.9,1.2-2.9,1.2-2.9,1.2c-0.1,2.1-0.1,2.1-0.1,2.1
			c-2-1.2-2-1.2-2-1.2C6.7,7.8,6.7,7.8,6.7,7.8c-0.6,6.4-0.6,6.4-0.6,6.4c1,1.6,1,1.6,1,1.6c-0.8,10-0.8,10-0.8,10
			C4.7,23.4,3.6,20.7,3,17c-0.5-3.1-0.4-8.1-0.4-9.3c3.8-1.2,5-4.2,5.3-5.1c13.2,0,13.2,0,13.2,0c0.2,1,1.4,3.9,5.3,5.1
			c0,1.2,0.1,6.2-0.4,9.3c-0.6,3.7-1.7,6.5-3.2,8.8c-0.8-10-0.8-10-0.8-10c1-1.6,1-1.6,1-1.6c-0.6-6.4-0.6-6.4-0.6-6.4
			c-2.7-1.3-2.7-1.3-2.7-1.3c-2,1.2-2,1.2-2,1.2c-0.1-2.1-0.1-2.1-0.1-2.1C14.5,4.3,14.5,4.3,14.5,4.3z M9.3,8.6
			c0.1-1.2,0.1-1.2,0.1-1.2C10.6,8,10.6,8,10.6,8L9.3,8.6z M14.1,11.3c-7.2,2.3-7.2,2.3-7.2,2.3c0.5-5.4,0.5-5.4,0.5-5.4
			c1.2-0.5,1.2-0.5,1.2-0.5c-0.1,2-0.1,2-0.1,2c3.8-1.6,3.8-1.6,3.8-1.6c0-2.1,0-2.1,0-2.1c1.8-0.8,1.8-0.8,1.8-0.8V11.3z
			 M14.1,13.2c-6.5,1.9-6.5,1.9-6.5,1.9c-0.6-0.8-0.6-0.8-0.6-0.8c7.1-2.1,7.1-2.1,7.1-2.1V13.2z M28.8,7.3c0-1.6,0-1.6,0-1.6
			c-1.6-0.4-1.6-0.4-1.6-0.4c-1.3-0.5-2.4-1.2-3.1-2.3c-0.6-0.7-0.7-1.4-0.7-1.4C23.1,0,23.1,0,23.1,0C5.9,0,5.9,0,5.9,0
			C5.5,1.7,5.5,1.7,5.5,1.7S5.4,2.4,4.8,3.1C4.1,4.2,3,4.9,1.7,5.4C0.1,5.7,0.1,5.7,0.1,5.7c0,1.6,0,1.6,0,1.6c0,0.2-0.2,6.2,0.4,10
			c1.3,8.6,5.1,13.6,13,17.3c1,0.5,1,0.5,1,0.5l0,0c1-0.5,1-0.5,1-0.5c7.9-3.7,11.7-8.7,13-17.3C29.1,13.5,28.8,7.5,28.8,7.3z
			 M17.7,19.8c0,2.6,0,2.6,0,2.6c1.3,0.1,1.3,0.1,1.3,0.1c-0.1-2.5-0.1-2.5-0.1-2.5L17.7,19.8z M11.2,19.8c-1.2,0.2-1.2,0.2-1.2,0.2
			c-0.1,2.5-0.1,2.5-0.1,2.5c1.3-0.1,1.3-0.1,1.3-0.1V19.8z"/>
	</g>
</g>
</svg>
