<?xml version="1.0" encoding="utf-8"?>
<!-- Generator: Adobe Illustrator 22.0.0, SVG Export Plug-In . SVG Version: 6.00 Build 0)  -->
<svg version="1.1" id="Слой_1" xmlns="http://www.w3.org/2000/svg" xmlns:xlink="http://www.w3.org/1999/xlink" x="0px" y="0px"
	 viewBox="0 0 173.5 41" enable-background="new 0 0 173.5 41" xml:space="preserve" fill="#333333">
<g>
	<defs>
		<rect id="SVGID_1_" x="2.2" y="2.2" width="169" height="36"/>
	</defs>
	<clipPath id="SVGID_2_">
		<use xlink:href="#SVGID_1_"  overflow="visible"/>
	</clipPath>
	<g clip-path="url(#SVGID_2_)">
		<defs>
			<rect id="SVGID_3_" x="2.2" y="2.2" width="169" height="36"/>
		</defs>
		<clipPath id="SVGID_4_">
			<use xlink:href="#SVGID_3_"  overflow="visible"/>
		</clipPath>
		<path clip-path="url(#SVGID_4_)" stroke="#333333" d="M44.3,15.8c-18,10.4-18,10.4-18,10.4c0,11.6,0,11.6,0,11.6
			c18-10.4,18-10.4,18-10.4V15.8z M42.8,14.1C41.3,15,41.3,15,41.3,15c-15,8.7-15,8.7-15,8.7c0,0.9,0,0.9,0,0.9
			C42.8,15,42.8,15,42.8,15V14.1z M13.1,5.7c-10.6,0-10.6,0-10.6,0c0,11.7,0,11.7,0,11.7c5.1,0,5.1,0,5.1,0c0-1.9,0-1.9,0-1.9
			s0-0.1,0.1-0.1l0,0L13.1,5.7z M49.6,5.7c-10.6,0-10.6,0-10.6,0c5.4,9.7,5.4,9.7,5.4,9.7c0.1,0,0.1,0.1,0.1,0.1l0,0
			c0,1.9,0,1.9,0,1.9c5.1,0,5.1,0,5.1,0V5.7z M47.8,3.4c-10.5,0-10.5,0-10.5,0c0.5,0.9,0.5,0.9,0.5,0.9c10,0,10,0,10,0V3.4z M21,3.3
			c-5,11.2-5,11.2-5,11.2c5,2.6,5,2.6,5,2.6V3.3z M17,3c-5.9,10.8-5.9,10.8-5.9,10.8c0.2,0.2,0.2,0.2,0.2,0.2C17,3.6,17,3.6,17,3.6
			V3z M34.9,2.7c-3.7,0-3.7,0-3.7,0c5.2,11.7,5.2,11.7,5.2,11.7c0.1,0.1,0,0.2-0.1,0.2c-10.2,5.4-10.2,5.4-10.2,5.4
			c-0.1,0-0.1,0-0.1,0c-10.2-5.4-10.2-5.4-10.2-5.4c-0.1-0.1-0.1-0.1-0.1-0.2c5.2-11.7,5.2-11.7,5.2-11.7c-3.7,0-3.7,0-3.7,0
			c0,0.9,0,0.9,0,0.9v0.1C11.6,14,11.6,14,11.6,14c14.5,8.2,14.5,8.2,14.5,8.2C40.6,14,40.6,14,40.6,14C34.9,3.7,34.9,3.7,34.9,3.7
			V3.7V2.7z M47.4,2.7c-12,0-12,0-12,0c6,11,6,11,6,11c0.1,0.1,0.1,0.2-0.1,0.2c-15.2,8.5-15.2,8.5-15.2,8.5c0,0.1-0.1,0.1-0.1,0
			C10.9,14,10.9,14,10.9,14c-0.1-0.1-0.1-0.2-0.1-0.2c6-11,6-11,6-11c-12,0-12,0-12,0C4.6,3.1,4.6,3.1,4.6,3.1c10.6,0,10.6,0,10.6,0
			c0.1,0,0.1,0.1,0.2,0.1c0,0.1,0,0.1,0,0.2C9.5,13.9,9.5,13.9,9.5,13.9c9.7,5.6,9.7,5.6,9.7,5.6c6.9,3.9,6.9,3.9,6.9,3.9
			c16.6-9.6,16.6-9.6,16.6-9.6C36.9,3.4,36.9,3.4,36.9,3.4c0-0.1,0-0.1,0-0.2C36.9,3.2,37,3.1,37,3.1c10.6,0,10.6,0,10.6,0L47.4,2.7
			z M47.9,2.7c-0.2,0-0.2,0-0.2,0C48,3.2,48,3.2,48,3.2l0,0c0,0.1,0,0.1,0,0.1c0,1.2,0,1.2,0,1.2c0,0.1-0.1,0.2-0.1,0.2
			c-10,0-10,0-10,0c5.1,9.2,5.1,9.2,5.1,9.2c0.1,0.1,0.1,0.1,0.1,0.1l0,0c0,1.2,0,1.2,0,1.2C43,15.2,43,15.2,43,15.2
			C26.2,25,26.2,25,26.2,25l0,0h-0.1C9.2,15.2,9.2,15.2,9.2,15.2c-0.1,0-0.1-0.1-0.1-0.1c0-1.2,0-1.2,0-1.2c0-0.1,0-0.1,0.1-0.1
			c5.1-9.2,5.1-9.2,5.1-9.2c-10,0-10,0-10,0s-0.1,0-0.1-0.1c0,0,0-0.1,0-0.1c0-1.1,0-1.1,0-1.1c0-0.1,0-0.1,0-0.1
			c0.3-0.5,0.3-0.5,0.3-0.5c-0.2,0-0.2,0-0.2,0C2.7,5.4,2.7,5.4,2.7,5.4c10.7,0,10.7,0,10.7,0c0.1,0,0.1,0.1,0.2,0.1
			c0,0.1,0,0.1,0,0.2C8,15.4,8,15.4,8,15.4c18.1,10.4,18.1,10.4,18.1,10.4c18.1-10.4,18.1-10.4,18.1-10.4c-5.5-9.8-5.5-9.8-5.5-9.8
			c0-0.1,0-0.1,0-0.2c0.1-0.1,0.1-0.1,0.2-0.1c10.7,0,10.7,0,10.7,0L47.9,2.7z M35.1,2.3L35.1,2.3c12.3,0,12.3,0,12.3,0l0,0
			c0.1,0,0.1,0,0.2,0.1c0,0.1,0,0.1,0,0.1c0.4,0,0.4,0,0.4,0H48c0,0,0,0,0.1,0v0.1c0.1,0,0.1,0,0.1,0c1.8,3,1.8,3,1.8,3v0.1
			c0,12,0,12,0,12c0,0.1-0.1,0.2-0.1,0.2c-5.2,0-5.2,0-5.2,0c0,9.8,0,9.8,0,9.8c-0.1,0.1-0.1,0.1-0.1,0.1
			C26.2,38.1,26.2,38.1,26.2,38.1l0,0c-0.1,0-0.1,0-0.1,0c0,0.1-0.1,0.1-0.1,0C7.7,27.6,7.7,27.6,7.7,27.6c-0.1,0-0.1-0.1-0.1-0.1
			c0-9.8,0-9.8,0-9.8c-5.2,0-5.2,0-5.2,0s-0.1-0.1-0.1-0.1c0-0.1,0-0.1,0-0.1c0-12,0-12,0-12s0-0.1,0-0.1c1.8-3,1.8-3,1.8-3
			s0.1,0,0.1-0.1c0.1,0,0.1,0,0.1,0c0.1,0,0.1,0,0.1,0c0.4,0,0.4,0,0.4,0c0-0.1,0-0.1,0-0.1c0.1-0.1,0.1-0.1,0.2-0.1
			c12.3,0,12.3,0,12.3,0h0.1c0,0,0,0,0.1,0l0,0c0,0,0,0.1,0.1,0.1l0,0v0.1c3.9,0,3.9,0,3.9,0l0,0c0.1,0,0.1,0.1,0.2,0.1l0,0v0.1
			c0,14.7,0,14.7,0,14.7c4.8,2.5,4.8,2.5,4.8,2.5c4.8-2.5,4.8-2.5,4.8-2.5c0-14.7,0-14.7,0-14.7V2.5c0-0.1,0.1-0.1,0.1-0.1
			s0-0.1,0.1-0.1c0,0,0,0,0.1,0l0,0c3.9,0,3.9,0,3.9,0C34.9,2.4,35,2.3,35.1,2.3z"/>
		<path clip-path="url(#SVGID_4_)" d="M65.1,22.8c6.2,0,6.2,0,6.2,0c0.3,0,0.7,0.1,1,0.1c0.4,0.1,0.7,0.3,0.7,0.5
			c0,0.2-0.3,0.4-0.7,0.5C72,24,71.6,24,71.3,24c-6.2,0-6.2,0-6.2,0V22.8z M146.3,18.6c3.3,0,3.3,0,3.3,0c1,0,1.7,0.3,2.4,0.8
			c0.7,0.5,0.9,1.1,0.9,1.9c0,0.8-0.3,1.5-0.9,1.9c-0.6,0.5-1.4,0.7-2.4,0.7c-3.3,0-3.3,0-3.3,0c-1,0-1.8-0.2-2.4-0.7
			c-0.6-0.5-0.9-1.1-0.9-1.9c0-0.8,0.3-1.5,0.9-1.9C144.5,18.9,145.3,18.6,146.3,18.6z M157.7,15.8c0,11.2,0,11.2,0,11.2
			c3.4,0,3.4,0,3.4,0c0-4.2,0-4.2,0-4.2c6.6,0,6.6,0,6.6,0c0,4.2,0,4.2,0,4.2c3.5,0,3.5,0,3.5,0c0-11.2,0-11.2,0-11.2
			c-3.5,0-3.5,0-3.5,0c0,4.1,0,4.1,0,4.1c-6.6,0-6.6,0-6.6,0c0-4.1,0-4.1,0-4.1H157.7z M146.3,15.8c-2,0-3.6,0.5-4.8,1.5
			c-1.3,1-1.9,2.3-1.9,3.9c0,1.7,0.6,3,1.9,4.1c1.3,1.1,2.9,1.6,4.8,1.6c3.3,0,3.3,0,3.3,0c1.9,0,3.6-0.5,4.8-1.6
			c1.2-1.1,1.9-2.4,1.9-4.1c0-1.6-0.6-2.9-1.9-3.9c-1.2-1-2.9-1.5-4.8-1.5H146.3z M124.9,15.8c0,9.7,0,9.7,0,9.7
			c0,1,0.5,1.5,1.4,1.5c0.6,0,1.3-0.2,1.9-0.8c6.5-5.5,6.5-5.5,6.5-5.5c0,6.2,0,6.2,0,6.2c3.5,0,3.5,0,3.5,0c0-9.8,0-9.8,0-9.8
			c0-0.4-0.2-0.8-0.4-1c-0.3-0.3-0.6-0.4-1.1-0.4c-0.6,0-1.2,0.2-1.7,0.6c-6.5,5.5-6.5,5.5-6.5,5.5c0-6.2,0-6.2,0-6.2H124.9z
			 M112.7,15.8c-2.2,2.9-2.2,2.9-2.2,2.9c4.6,0,4.6,0,4.6,0c0,8.3,0,8.3,0,8.3c3.4,0,3.4,0,3.4,0c0-8.3,0-8.3,0-8.3
			c3.3,0,3.3,0,3.3,0c2.3-2.9,2.3-2.9,2.3-2.9H112.7z M102.4,15.8c-1.9,0-3.6,0.5-4.8,1.5c-1.2,1-1.9,2.3-1.9,3.9
			c0,1.7,0.6,3,1.9,4.1c1.3,1.1,2.9,1.6,4.8,1.6c5.6,0,5.6,0,5.6,0c2.3-2.9,2.3-2.9,2.3-2.9c-7.9,0-7.9,0-7.9,0
			c-0.9,0-1.7-0.2-2.4-0.7c-0.6-0.5-0.9-1.2-0.9-1.9c0-0.8,0.3-1.5,0.9-1.9c0.7-0.5,1.5-0.8,2.4-0.8c5.6,0,5.6,0,5.6,0
			c2.3-2.9,2.3-2.9,2.3-2.9H102.4z M61.6,15.7c0,2.9,0,2.9,0,2.9c0,1.3,0,1.3,0,1.3c0,7,0,7,0,7c3.4,0,3.4,0,3.4,0
			c5.8,0,5.8,0,5.8,0c1,0,2-0.1,2.9-0.4c0.9-0.3,1.7-0.8,2.2-1.5c0.3-0.5,0.5-1,0.5-1.5c0-2.2-2.1-3.5-5.2-3.5c-6.2,0-6.2,0-6.2,0
			c0-1.3,0-1.3,0-1.3c8.6,0,8.6,0,8.6,0c2.2-2.9,2.2-2.9,2.2-2.9H61.6z M86.4,15.7c-0.4,0-0.8,0.2-1.3,0.4c-0.4,0.2-0.7,0.5-0.9,0.9
			C77,27,77,27,77,27c4.3,0,4.3,0,4.3,0c5-6.9,5-6.9,5-6.9c2.9,4,2.9,4,2.9,4c-4.7,0-4.7,0-4.7,0c-2,2.9-2,2.9-2,2.9
			c13.1,0,13.1,0,13.1,0c-7-9.9-7-9.9-7-9.9c-0.2-0.4-0.5-0.7-0.9-0.9C87.2,15.9,86.8,15.7,86.4,15.7z"/>
	</g>
</g>
</svg>
