<?xml version="1.0" encoding="utf-8"?>
<!-- Generator: Adobe Illustrator 22.0.0, SVG Export Plug-In . SVG Version: 6.00 Build 0)  -->
<svg version="1.1" id="Слой_1" xmlns="http://www.w3.org/2000/svg" xmlns:xlink="http://www.w3.org/1999/xlink" x="0px" y="0px"
	 viewBox="0 0 196 34.2" enable-background="new 0 0 196 34.2" xml:space="preserve" fill="#ffffff">
<g>
	<defs>
		<rect id="SVGID_1_" x="2" y="2.2" width="190" height="31"/>
	</defs>
	<clipPath id="SVGID_2_">
		<use xlink:href="#SVGID_1_"  overflow="visible"/>
	</clipPath>
	<g clip-path="url(#SVGID_2_)">
		<defs>
			<rect id="SVGID_3_" x="2" y="2.2" width="190" height="31"/>
		</defs>
		<clipPath id="SVGID_4_">
			<use xlink:href="#SVGID_3_"  overflow="visible"/>
		</clipPath>
		<path clip-path="url(#SVGID_4_)" fill-rule="evenodd" clip-rule="evenodd" fill="#ffffff" d="M29.2,15.9c0,0.2,0,0.3-0.2,0.3
			c-4.9,0-4.9,0-4.9,0c0-4.6,0-4.6,0-4.6c0-0.8-0.6-1.3-1.3-1.3c-0.6,0-0.6,0-0.6,0c-0.7,0-1.3,0.5-1.3,1.3c0,12.3,0,12.3,0,12.3
			c0,0.7,0.6,1.3,1.3,1.3c0.6,0,0.6,0,0.6,0c0.6,0,1.3-0.7,1.3-1.3c0-4.6,0-4.6,0-4.6c4.9,0,4.9,0,4.9,0l0,0c0.2,0,0.2,0,0.2,0.2
			c0,4.1,0,4.1,0,4.1c0,3.4-2.8,6.4-6.3,6.4c-0.6,0-0.6,0-0.6,0c-3.6,0-6.3-2.9-6.3-6.4c0-11.7,0-11.7,0-11.7c0-3.6,2.8-6.6,6.3-6.6
			c0.6,0,0.6,0,0.6,0c3.6,0,6.3,3,6.3,6.6V15.9z M43,17.5c-3.1-3.5-6.3-7.7-9.6-10.8c-2.8-3-6.7-4.6-10.9-4.6s-8,1.6-10.9,4.4l0,0
			c-3.3,3.3-6.5,7.5-9.6,11l-0.2,0.2c0,0.2,0.2,0.2,0.2,0.2c3.1,3.6,6.3,7.9,9.6,11l0,0c2.9,2.8,6.7,4.6,10.9,4.6s8.1-1.8,10.9-4.6
			c3.3-3.3,6.5-7.4,9.6-11c0,0,0.2,0,0.2-0.2L43,17.5z"/>
		<path clip-path="url(#SVGID_4_)" fill-rule="evenodd" clip-rule="evenodd" d="M77.7,29.3c0,0,0.2,0,0.2-0.2
			c6.5-12.5,6.5-12.5,6.5-12.5c0.8-2,0.8-2,0.8-2c0,14.4,0,14.4,0,14.4c0,0.2,0.2,0.2,0.3,0.2c3.4,0,3.4,0,3.4,0s0.2,0,0.2-0.2
			c0-23,0-23,0-23C89.1,6,89,6,89,6c-0.2,0-0.2,0-0.2,0c-0.7,0-0.7,0-0.7,0C86,6,86,6,86,6c-0.2,0-0.2,0-0.3,0.2
			c-6.8,13.6-6.8,13.6-6.8,13.6C78,21.4,78,21.4,78,21.4c0-15.1,0-15.1,0-15.1C78,6.2,78,6,77.9,6c-3.4,0-3.4,0-3.4,0
			c-0.2,0-0.2,0.2-0.2,0.3c0,22.8,0,22.8,0,22.8c0,0.2,0,0.2,0.2,0.2H77.7z"/>
		<path clip-path="url(#SVGID_4_)" fill-rule="evenodd" clip-rule="evenodd" d="M137.3,23.9c1.1,5.4,1.1,5.4,1.1,5.4
			c0.2,0,0.2,0.2,0.3,0.2c3.4,0,3.4,0,3.4,0c0.2,0,0.2,0,0.2,0c0.2,0,0.2-0.2,0.2-0.3l0,0c-5.9-22.8-5.9-22.8-5.9-22.8
			c0-0.2-0.2-0.3-0.3-0.3l0,0c-2,0-2,0-2,0c-0.2,0-0.2,0-0.2,0c-1.9,0-1.9,0-1.9,0c-0.2,0-0.2,0-0.2,0s-0.2,0.2-0.2,0.3
			c-5.9,22.8-5.9,22.8-5.9,22.8l0,0c0,0.2,0,0.3,0.2,0.3c0.2,0,0.2,0,0.2,0c3.4,0,3.4,0,3.4,0c0.2,0,0.2-0.2,0.2-0.2
			c1.3-5.4,1.3-5.4,1.3-5.4H137.3z M134.2,10.8c0.2,0,0.2,0,0.2,0c2.3,9.8,2.3,9.8,2.3,9.8c-4.7,0-4.7,0-4.7,0L134.2,10.8z"/>
		<path clip-path="url(#SVGID_4_)" fill-rule="evenodd" clip-rule="evenodd" d="M108.3,6c3.4,0,3.4,0,3.4,0c0.2,0,0.3,0.2,0.3,0.3
			c0,9.7,0,9.7,0,9.7c6.3,0,6.3,0,6.3,0c0-9.7,0-9.7,0-9.7c0-0.2,0.2-0.3,0.3-0.3c3.3,0,3.3,0,3.3,0c0.2,0,0.3,0.2,0.3,0.3
			c0,22.8,0,22.8,0,22.8c0,0.2-0.2,0.3-0.3,0.3c-3.3,0-3.3,0-3.3,0c-0.2,0-0.3-0.2-0.3-0.3c0-9.8,0-9.8,0-9.8c-6.3,0-6.3,0-6.3,0
			c0,9.8,0,9.8,0,9.8c0,0.2-0.2,0.3-0.3,0.3c-3.4,0-3.4,0-3.4,0s-0.2-0.2-0.2-0.3c0-22.8,0-22.8,0-22.8C108.2,6.2,108.3,6,108.3,6z"
			/>
		<path clip-path="url(#SVGID_4_)" fill-rule="evenodd" clip-rule="evenodd" d="M157.5,6c0.2,0,0.3,0.2,0.3,0.3
			c-0.3,0.8-0.5,1.8-0.8,2.8l0,0c0,0,0,0.2-0.2,0.2l0,0c-4.2,0-4.2,0-4.2,0c-0.3,0-0.3,0-0.3,0c0,19.8,0,19.8,0,19.8
			c0,0.2,0,0.3-0.2,0.3c-3.4,0-3.4,0-3.4,0c-0.2,0-0.3-0.2-0.3-0.3c0-19.8,0-19.8,0-19.8c-4.7,0-4.7,0-4.7,0c-0.2,0-0.2-0.2-0.2-0.3
			c0-2.6,0-2.6,0-2.6c0-0.2,0-0.3,0.2-0.3H157.5z"/>
		<path clip-path="url(#SVGID_4_)" fill-rule="evenodd" clip-rule="evenodd" d="M177.7,6c3.2,0,3.2,0,3.2,0c0.2,0,0.3,0.2,0.3,0.3
			c0,10.5,0,10.5,0,10.5c0.2,0,0.2,0,0.3,0c0.2,0,0.2-0.2,0.3-0.3c4.6-9.2,4.6-9.2,4.6-9.2C187,6.2,187,6,188.1,6c3.1,0,3.1,0,3.1,0
			c0.2,0,0.2,0.2,0.2,0.2c-6,11-6,11-6,11c5.9,11,5.9,11,5.9,11c0.5,1,0.5,1,0.5,1c0.2,0,0.2,0.3-0.2,0.3c-2.8,0-2.8,0-2.8,0
			c-1.1,0-1.3,0.2-2-1c-4.7-9.8-4.7-9.8-4.7-9.8c-0.3-0.5-0.3-0.5-0.3-0.5c-0.2-0.3-0.2-0.3-0.5-0.3c0,0.5,0,0.5,0,0.5
			c0,9.8,0,9.8,0,9.8c0,1,0,1,0,1c0,0.2-0.2,0.3-0.3,0.3c-3.2,0-3.2,0-3.2,0c-0.2,0-0.3-0.2-0.3-0.3c0-22.8,0-22.8,0-22.8
			C177.4,6.2,177.5,6,177.7,6z"/>
		<path clip-path="url(#SVGID_4_)" fill-rule="evenodd" clip-rule="evenodd" d="M161.7,6c3.7,0,7.8,0,11.6,0c0.2,0,0.3,0.2,0.3,0.3
			c-0.3,1-0.5,1.8-0.8,2.8l0,0l-0.2,0.2c-1.6,0-1.6,0-1.6,0c-5.5,0-5.5,0-5.5,0c0,0.2,0,0.2,0,0.2c0,6.4,0,6.4,0,6.4
			c5.9,0,5.9,0,5.9,0c0.2,0,0.2,0.2,0.2,0.3c0,2.6,0,2.6,0,2.6c0,0.2,0,0.3-0.2,0.3c-1.5,0-1.5,0-1.5,0c-4.4,0-4.4,0-4.4,0
			c0,7,0,7,0,7c7.5,0,7.5,0,7.5,0c0.2,0,0.3,0.2,0.3,0.3c0,2.6,0,2.6,0,2.6c0,0.2-0.2,0.3-0.3,0.3c-1.5,0-1.5,0-1.5,0
			c-6.3,0-6.3,0-6.3,0l0,0c-3.4,0-3.4,0-3.4,0c-0.2,0-0.2-0.2-0.2-0.3c0-22.8,0-22.8,0-22.8C161.6,6.2,161.6,6,161.7,6z"/>
		<path clip-path="url(#SVGID_4_)" fill-rule="evenodd" clip-rule="evenodd" d="M94.3,6c1.5,0,1.5,0,1.5,0l0,0c1.9,0,1.9,0,1.9,0
			l0,0c7.2,0,7.2,0,7.2,0c0.2,0,0.3,0.2,0.3,0.3l0,0c-0.8,3-0.8,3-0.8,3c-6.4,0-6.4,0-6.4,0c0,19.8,0,19.8,0,19.8
			c0,0.2-0.2,0.2-0.3,0.2c-3.4,0-3.4,0-3.4,0s-0.2,0-0.2-0.2c0-22.8,0-22.8,0-22.8C94.2,6.2,94.3,6,94.3,6z"/>
		<path clip-path="url(#SVGID_4_)" d="M56.9,17.7c0-3.9,0-3.9,0-3.9c0-2.8,0.6-4.9,1.8-6.2c1.8-2,4.7-2.3,7.2-1.6
			c1.1,0.3,2.1,0.8,2.8,1.6c1.5,1.6,1.5,3.3,1.6,4.7c0,0.7,0,0.7,0,0.7c0,0.2-0.2,0.2-0.2,0.2l0,0c-3.6,0-3.6,0-3.6,0l0,0
			c0,0-0.2,0-0.2-0.2l0,0c0-1.5,0-3.1-1.6-3.6c-0.8-0.3-1.8-0.2-2.4,0.2c-1,0.5-1.5,1.5-1.5,2.6c0,0.3,0,0.7,0,1.2
			c0,4.4,0,4.4,0,4.4l0,0c0,4.6,0,4.6,0,4.6c0,0.3,0,0.7,0,1c0,1.2,0.5,2.1,1.5,2.6c0.6,0.3,1.6,0.5,2.4,0.2
			c1.6-0.5,1.6-2.1,1.6-3.6l0,0c0-0.2,0.2-0.2,0.2-0.2l0,0c3.6,0,3.6,0,3.6,0l0,0c0,0,0.2,0,0.2,0.2c0,0.7,0,0.7,0,0.7
			c-0.2,1.5-0.2,3.3-1.6,4.8c-0.6,0.8-1.6,1.3-2.8,1.6c-2.4,0.7-5.4,0.3-7.2-1.6c-1.1-1.3-1.8-3.4-1.8-6.2
			C56.9,17.7,56.9,17.7,56.9,17.7z"/>
	</g>
</g>
</svg>
