<?xml version="1.0" encoding="utf-8"?>
<!-- Generator: Adobe Illustrator 22.0.0, SVG Export Plug-In . SVG Version: 6.00 Build 0)  -->
<svg version="1.1" id="Слой_1" xmlns="http://www.w3.org/2000/svg" xmlns:xlink="http://www.w3.org/1999/xlink" x="0px" y="0px"
	 viewBox="0 0 200 67.7" enable-background="new 0 0 200 67.7" xml:space="preserve" fill="#333333">
<g>
	<defs>
		<rect id="SVGID_1_" x="5" y="2.6" width="192" height="62.7"/>
	</defs>
	<clipPath id="SVGID_2_">
		<use xlink:href="#SVGID_1_"  overflow="visible"/>
	</clipPath>
	<g clip-path="url(#SVGID_2_)">
		<defs>
			<rect id="SVGID_3_" x="5" y="2.6" width="192" height="62.7"/>
		</defs>
		<clipPath id="SVGID_4_">
			<use xlink:href="#SVGID_3_"  overflow="visible"/>
		</clipPath>
		<path clip-path="url(#SVGID_4_)" fill-rule="evenodd" clip-rule="evenodd" d="M32.3,62.2L32.3,62.2z M32.3,62.2
			c2.2-1.2,4.4-2.7,6.6-4.4c0-38.1,0-38.1,0-38.1c-2,0-4.1-0.2-6.6-0.2V62.2z"/>
		<path clip-path="url(#SVGID_4_)" fill-rule="evenodd" clip-rule="evenodd" d="M14.3,57.7L14.3,57.7z M14.3,57.7
			c2.2,1.7,4.4,3.2,6.3,4.4c0-50.9,0-50.9,0-50.9c-2.2,0-4.4,0.2-6.3,0.5V57.7z"/>
		<path clip-path="url(#SVGID_4_)" fill-rule="evenodd" clip-rule="evenodd" d="M41.3,2.9L41.3,2.9z M41.3,2.9
			c0,52.6,0,52.6,0,52.6c3.7-3.4,6.6-7.4,6.6-11.6c0-39.4,0-39.4,0-39.4C47.1,4.1,44.7,3.1,41.3,2.9z"/>
		<path clip-path="url(#SVGID_4_)" fill-rule="evenodd" clip-rule="evenodd" d="M5.2,43.9L5.2,43.9z M5.2,43.9
			c0,4.2,2.9,8.1,6.3,11.6c0-39.6,0-39.6,0-39.6c-3.2,0.2-5.6,1.2-6.3,1.7V43.9z"/>
		<path clip-path="url(#SVGID_4_)" fill-rule="evenodd" clip-rule="evenodd" d="M23.3,24.3L23.3,24.3z M23.3,24.3
			c0,39.4,0,39.4,0,39.4c1.5,0.7,2.7,1.2,3.2,1.5c0.5-0.3,1.7-0.7,3.4-1.5c0-39.4,0-39.4,0-39.4c-1.2,0-2.2,0-3.4,0
			C25.4,24.3,24.5,24.3,23.3,24.3z"/>
		<path clip-path="url(#SVGID_4_)" fill-rule="evenodd" clip-rule="evenodd" d="M71.9,40.2L71.9,40.2z M71.9,40.2
			c0-20.9,0-20.9,0-20.9c14.3,0,14.3,0,14.3,0c0,4.2,0,4.2,0,4.2c-9.7,0-9.7,0-9.7,0c0,16.7,0,16.7,0,16.7H71.9z M107.2,35.6
			c-8.5,0-8.5,0-8.5,0c-0.7,1.7-1,3.4-1.5,4.7c-5.1,0-5.1,0-5.1,0c1.7-5.9,5.1-15,7.3-20.9c7.5,0,7.5,0,7.5,0
			c2,6.6,4.9,15.5,7.1,20.9c-5.1,0-5.1,0-5.1,0C108.4,39,107.7,37.3,107.2,35.6z M102.6,23.5c-1,2.2-1.7,4.9-2.7,7.9
			c5.8,0,5.8,0,5.8,0c-1-2.7-1.9-5.7-2.4-7.9H102.6z M122.1,40.2c0-20.9,0-20.9,0-20.9c11.4,0,11.4,0,11.4,0c4.4,0,5.8,3,5.8,7.4
			c0,3.7-1.9,6.9-5.6,6.9c-6.8,0-6.8,0-6.8,0c0,6.6,0,6.6,0,6.6H122.1z M132,29.7c1.2,0,1.9-0.7,1.9-3c0-2.2-0.7-3.2-1.9-3.2
			c-5.1,0-5.1,0-5.1,0c0,6.2,0,6.2,0,6.2H132z M164.4,35.8c3.7,0,3.7,0,3.7,0c-0.7,9.1-0.7,9.1-0.7,9.1c-4.1,0-4.1,0-4.1,0
			c0-4.7,0-4.7,0-4.7c-13.9,0-13.9,0-13.9,0c0,4.7,0,4.7,0,4.7c-4.4,0-4.4,0-4.4,0c-0.5-9.1-0.5-9.1-0.5-9.1c3.2,0,3.2,0,3.2,0
			c2.9-16.5,2.9-16.5,2.9-16.5c13.9,0,13.9,0,13.9,0V35.8z M159.5,23.5c-4.9,0-4.9,0-4.9,0c-2.2,12.3-2.2,12.3-2.2,12.3c7,0,7,0,7,0
			V23.5z M190.2,35.6c-8.5,0-8.5,0-8.5,0c-0.7,1.7-1,3.4-1.5,4.7c-5.1,0-5.1,0-5.1,0c1.7-5.9,5.1-15,7.3-20.9c7.6,0,7.6,0,7.6,0
			c1.9,6.6,4.9,15.5,7.1,20.9c-5.1,0-5.1,0-5.1,0C191.4,39,190.7,37.3,190.2,35.6z M185.6,23.5c-1,2.2-1.7,4.9-2.7,7.9
			c5.8,0,5.8,0,5.8,0c-1-2.7-1.9-5.7-2.4-7.9H185.6z M73.4,60.4c0-6.2,0-6.2,0-6.2c-2.4,0-2.4,0-2.4,0c0-1.2,0-1.2,0-1.2
			c6.1,0,6.1,0,6.1,0c0,1.2,0,1.2,0,1.2c-2.4,0-2.4,0-2.4,0c0,6.2,0,6.2,0,6.2H73.4z M89.4,53.1c0,1.2,0,1.2,0,1.2
			c-3.9,0-3.9,0-3.9,0c0,1.7,0,1.7,0,1.7c2.7,0,2.7,0,2.7,0c0,1,0,1,0,1c-2.7,0-2.7,0-2.7,0c0,2.2,0,2.2,0,2.2c3.9,0,3.9,0,3.9,0
			c0,1.2,0,1.2,0,1.2c-5.3,0-5.3,0-5.3,0c0-7.4,0-7.4,0-7.4H89.4z M99.2,55.5c0.7-1,1.2-1.7,1.7-2.5c1.7,0,1.7,0,1.7,0
			c-0.7,1-1.7,2.2-2.7,3.4c1,1.5,1.9,2.7,2.7,3.9c-1.7,0-1.7,0-1.7,0c-0.5-1-1-1.7-1.7-2.7c-0.7,1-1.2,1.7-2,2.7c-1.7,0-1.7,0-1.7,0
			c0.7-1,1.7-2.5,2.9-3.7c-1-1.5-2.2-2.7-2.9-3.7c2,0,2,0,2,0C98,53.8,98.5,54.5,99.2,55.5z M110.9,60.4c-1.2,0-1.2,0-1.2,0
			c0-7.4,0-7.4,0-7.4c1.2,0,1.2,0,1.2,0c0,2.7,0,2.7,0,2.7c3.2,0,3.2,0,3.2,0c0-2.7,0-2.7,0-2.7c1.2,0,1.2,0,1.2,0
			c0,7.4,0,7.4,0,7.4c-1.2,0-1.2,0-1.2,0c0-3.4,0-3.4,0-3.4c-3.2,0-3.2,0-3.2,0V60.4z M129.6,56.5c0,3.2-1,3.9-3.4,3.9
			c-2.2,0-3.4-0.7-3.4-3.9c0-3,1.2-3.7,3.4-3.7C128.6,52.8,129.6,53.5,129.6,56.5z M128.1,56.7c0-2.2-0.2-2.7-1.9-2.7
			c-1.5,0-2,0.5-2,2.7c0,2,0.5,2.5,2,2.5C127.9,59.2,128.1,58.7,128.1,56.7z M139.3,54.3c-0.2,1.7-0.7,4-1.2,6.2c-1.5,0-1.5,0-1.5,0
			c0.5-2.2,1.2-4.7,1.5-7.4c4.9,0,4.9,0,4.9,0c0,7.4,0,7.4,0,7.4c-1.5,0-1.5,0-1.5,0c0-6.2,0-6.2,0-6.2H139.3z M157.1,56.5
			c0,3.2-1,3.9-3.4,3.9c-2.2,0-3.4-0.7-3.4-3.9c0-3,1.2-3.7,3.4-3.7C156.1,52.8,157.1,53.5,157.1,56.5z M155.6,56.7
			c0-2.2-0.2-2.7-1.9-2.7c-1.5,0-1.9,0.5-1.9,2.7c0,2,0.5,2.5,1.9,2.5C155.4,59.2,155.6,58.7,155.6,56.7z M164.6,60.4
			c0-7.4,0-7.4,0-7.4c4.9,0,4.9,0,4.9,0c0,1.2,0,1.2,0,1.2c-3.4,0-3.4,0-3.4,0c0,6.2,0,6.2,0,6.2H164.6z M182.4,60.4
			c-1.2,0-1.2,0-1.2,0c0-5.4,0-5.4,0-5.4c-1,1.7-1.9,3.7-3.2,5.4c-1.7,0-1.7,0-1.7,0c0-7.4,0-7.4,0-7.4c1.5,0,1.5,0,1.5,0
			c0,5.4,0,5.4,0,5.4c1-1.7,2.2-3.7,3.2-5.4c1.5,0,1.5,0,1.5,0V60.4z M196.5,60.4c-1.2,0-1.2,0-1.2,0c0-5.4,0-5.4,0-5.4
			c-1,1.7-2.2,3.7-3.2,5.4c-1.7,0-1.7,0-1.7,0c0-7.4,0-7.4,0-7.4c1.2,0,1.2,0,1.2,0c0,5.4,0,5.4,0,5.4c1.2-1.7,2.2-3.7,3.2-5.4
			c1.7,0,1.7,0,1.7,0V60.4z"/>
	</g>
</g>
</svg>
