<?xml version="1.0" encoding="utf-8"?>
<!-- Generator: Adobe Illustrator 22.0.0, SVG Export Plug-In . SVG Version: 6.00 Build 0)  -->
<svg version="1.1" id="Слой_1" xmlns="http://www.w3.org/2000/svg" xmlns:xlink="http://www.w3.org/1999/xlink" x="0px" y="0px"
	 viewBox="0 0 200 68" enable-background="new 0 0 200 68" xml:space="preserve">
<g>
	<defs>
		<rect id="SVGID_1_" x="1.2" y="1" width="197.8" height="65"/>
	</defs>
	<clipPath id="SVGID_2_">
		<use xlink:href="#SVGID_1_"  overflow="visible"/>
	</clipPath>
	<g clip-path="url(#SVGID_2_)">
		<defs>
			<rect id="SVGID_3_" x="1.2" y="1" width="197.8" height="65"/>
		</defs>
		<clipPath id="SVGID_4_">
			<use xlink:href="#SVGID_3_"  overflow="visible"/>
		</clipPath>
		<path clip-path="url(#SVGID_4_)" fill="#b2b2b2" d="M36.9,40.2c1.3-0.7,2.5-1.9,3.2-3.3c0.3-0.5,0.8-0.8,1.5-0.8
			c20.2,0,20.2,0,20.2,0c0.1-1.8,0.1-3.4,0-5.2c-20.2,0-20.2,0-20.2,0c-0.7,0-1.2-0.3-1.5-0.9c-0.7-1.3-1.9-2.5-3.2-3.2
			C36.3,26.5,36,26,36,25.3c0-20.4,0-20.4,0-20.4c-1.7-0.1-3.4-0.1-5,0c0,20.4,0,20.4,0,20.4c0,0.6-0.4,1.1-0.9,1.4
			c-1.4,0.7-2.6,1.9-3.3,3.2c-0.3,0.6-0.8,0.9-1.4,0.9c-20.2,0-20.2,0-20.2,0c-0.2,1.8-0.2,3.4,0,5.2c20.2,0,20.2,0,20.2,0
			c0.6,0,1.1,0.3,1.4,0.8c0.7,1.4,1.9,2.6,3.3,3.3c0.5,0.3,0.9,0.8,0.9,1.4c0,20.4,0,20.4,0,20.4c1.6,0.1,3.3,0.1,5,0
			c0-20.4,0-20.4,0-20.4C36,41,36.3,40.5,36.9,40.2z"/>
		<path clip-path="url(#SVGID_4_)" fill="#BB302C" d="M36,41.6c0,22.7,0,22.7,0,22.7c0,1,0.9,1.9,1.8,1.7c14.6-2,26-13.5,28-28.1
			c0.1-1-0.7-1.9-1.7-1.9c-22.5,0-22.5,0-22.5,0c-0.7,0-1.2,0.3-1.5,0.8c-0.7,1.4-1.9,2.6-3.2,3.3C36.3,40.5,36,41,36,41.6z"/>
		<path clip-path="url(#SVGID_4_)" fill="#BB302C" d="M31,25.3c0-22.7,0-22.7,0-22.7C31,1.6,30,0.8,29,1C14.5,3,3,14.5,1.1,29.1
			c-0.1,1,0.6,1.9,1.6,1.9c22.6,0,22.6,0,22.6,0c0.6,0,1.1-0.3,1.4-0.9c0.7-1.3,1.9-2.5,3.3-3.2C30.5,26.5,31,26,31,25.3z"/>
		<path clip-path="url(#SVGID_4_)" fill="#BB302C" d="M25.3,36.1c-22.6,0-22.6,0-22.6,0c-1,0-1.8,0.8-1.6,1.9C3,52.5,14.5,64,29,66
			c1,0.2,1.9-0.6,1.9-1.7c0-22.7,0-22.7,0-22.7c0-0.6-0.4-1.1-0.9-1.4c-1.4-0.7-2.6-1.9-3.3-3.3C26.4,36.4,25.9,36.1,25.3,36.1z"/>
		<path clip-path="url(#SVGID_4_)" fill="#BB302C" d="M41.6,30.9c22.5,0,22.5,0,22.5,0c1,0,1.8-0.8,1.6-1.9C63.8,14.5,52.4,3,37.8,1
			C36.9,0.8,36,1.6,36,2.6c0,22.7,0,22.7,0,22.7c0,0.6,0.3,1.1,0.9,1.4c1.3,0.7,2.5,1.9,3.2,3.2C40.4,30.6,40.9,30.9,41.6,30.9z"/>
		<path clip-path="url(#SVGID_4_)" fill="#ffffff" d="M134.8,19c0.3-0.2,2.2-1.2,6.7-1.2c4.4,0,6.4,0.9,6.8,1.2
			c7.6,12.8,7.6,12.8,7.6,12.8c-28.8,0-28.8,0-28.8,0L134.8,19z M124.5,37.9c2.3,0,2.3,0,2.3,0c0.4,0,0.6-0.4,0.3-0.7
			c-1.6-2.6-1.6-2.6-1.6-2.6c31.9,0,31.9,0,31.9,0c-1.6,2.6-1.6,2.6-1.6,2.6c-0.2,0.3,0,0.7,0.3,0.7c2.3,0,2.3,0,2.3,0
			c0.4,0,0.8-0.1,1.1-0.5c2.8-4.2,2.8-4.2,2.8-4.2c0.5-0.5,0.1-1.4-0.7-1.4c-1.1,0-1.1,0-1.1,0c-0.8,0-0.8,0-0.8,0l0,0
			c-8.8-14.3-8.8-14.3-8.8-14.3c-0.4-0.5-0.8-0.9-1.6-1.3c-1.1-0.5-3.5-1.2-7.6-1.2c-4.1,0-6.5,0.7-7.6,1.3
			c-0.5,0.2-0.9,0.6-1.3,0.9c-9.1,14.7-9.1,14.7-9.1,14.7c-0.1,0-0.1,0-0.1,0c-0.7,0-0.7,0-0.7,0c-1.2,0-1.2,0-1.2,0
			c-0.8,0-1.2,0.9-0.7,1.4c2.8,4.2,2.8,4.2,2.8,4.2C123.7,37.8,124.1,37.9,124.5,37.9z"/>
		<path clip-path="url(#SVGID_4_)" fill="#ffffff" d="M106.9,17.8c-0.7-0.7-1.2-1.4-2.5-1.9c-0.2-0.1-0.3-0.2-0.5-0.2c0,0,0,0-0.1,0
			c-1.3-0.5-3.6-0.9-6.9-0.9c-3,0-5,0.3-6.4,0.7c0,0.1-0.1,0.1-0.2,0.1c-1.4,0.5-2,1-2.7,1.7C76.5,34,76.5,34,76.5,34
			c-0.2,0.2,0,0.7,0.4,0.7c2.3,0,2.3,0,2.3,0l0,0c0.3-0.1,0.7-0.2,1-0.5c1.5-2.4,1.5-2.4,1.5-2.4c22.3,0,22.3,0,22.3,0
			c0.6,0,0.6,0,0.6,0c4,0,4,0,4,0c0.4,0,0.6-0.4,0.3-0.7c-1-1.5-1-1.5-1-1.5c-0.3-0.4-0.8-0.6-1.4-0.6c-1.5,0-1.5,0-1.5,0
			c-0.6,0-0.6,0-0.6,0c-20.5,0-20.5,0-20.5,0c6.6-10.1,6.6-10.1,6.6-10.1c0.3-0.2,2.1-1.1,6.6-1.1c4.5,0,6.5,0.9,6.9,1.2
			c10,15.3,10,15.3,10,15.3c0.3,0.3,0.7,0.5,1.1,0.5c2.3,0,2.3,0,2.3,0c0.3,0,0.5-0.5,0.3-0.7L106.9,17.8z"/>
		<path clip-path="url(#SVGID_4_)" fill="#ffffff" d="M198.9,15.9c0-0.9-1.1-1.6-1.9-0.9c-14,13.8-14,13.8-14,13.8
			c-0.1,0.1-0.4,0.1-0.5,0c-14.1-13.8-14.1-13.8-14.1-13.8c-0.7-0.6-1.8,0-1.8,0.9c0,4.2,0,4.2,0,4.2c0,12.2,0,12.2,0,12.2
			c0,0.4,0,0.4,0,0.4c0,0.2,0,0.2,0,0.2l0,0c0.1,1,0.9,1.8,1.9,1.8c0.5,0,0.5,0,0.5,0c0.3,0,0.5-0.2,0.5-0.4c0-1.2,0-1.2,0-1.2
			c0-0.7,0-0.7,0-0.7c0-12.7,0-12.7,0-12.7c10.9,11.2,10.9,11.2,10.9,11.2c1.1,1.1,2.9,1.8,4.7,0c10.8-11.2,10.8-11.2,10.8-11.2
			c0,12.7,0,12.7,0,12.7l0,0c0,2,0,2,0,2c0,0.2,0.2,0.4,0.4,0.4c0.6,0,0.6,0,0.6,0c1,0,1.8-0.8,1.8-1.9c0.1-0.1,0.1-0.2,0.1-0.2
			c0-14.3,0-14.3,0-14.3l0,0V15.9z"/>
		<path clip-path="url(#SVGID_4_)" fill="#ffffff" d="M177.5,43.7c-0.9,0.8-0.9,0.8-0.9,0.8l0,0h-0.1c-0.3,0.3-0.3,0.3-0.3,0.3
			c-0.1,0.1-0.1,0.1-0.1,0.1l0,0c-5.9,4.9-5.9,4.9-5.9,4.9c-0.1,0.1-0.2,0.1-0.3,0c-6.4-5.3-6.4-5.3-6.4-5.3l0,0c-1-0.8-1-0.8-1-0.8
			c-0.4-0.3-0.9,0-0.9,0.5c0,2.2,0,2.2,0,2.2c0,4.5,0,4.5,0,4.5c0,0.2,0,0.2,0,0.2c0,0.1,0,0.1,0,0.1l0,0c0,0.5,0.4,0.9,0.9,0.9
			c0.3,0,0.3,0,0.3,0c0.2,0,0.3-0.1,0.3-0.2c0-0.7,0-0.7,0-0.7c0-0.3,0-0.3,0-0.3c0-4.9,0-4.9,0-4.9c5.8,4.9,5.8,4.9,5.8,4.9
			c0.6,0.4,1.3,0.7,2.5,0c5.7-4.9,5.7-4.9,5.7-4.9c0,4.9,0,4.9,0,4.9l0,0c0,1,0,1,0,1c0,0.1,0.1,0.2,0.2,0.2c0.3,0,0.3,0,0.3,0
			c0.5,0,1-0.5,1-1V51c0-5.6,0-5.6,0-5.6v-0.1c0-1.1,0-1.1,0-1.1C178.6,43.7,177.9,43.4,177.5,43.7z"/>
		<path clip-path="url(#SVGID_4_)" fill="#ffffff" d="M87.4,43.6c-1.1,0-1.1,0-1.1,0l0,0c-8.4,0-8.4,0-8.4,0c-0.3,0-0.5,0.1-0.6,0.3
			c-0.1,0-0.1,0-0.1,0c-0.1,0.1-0.8,1.1-0.8,3.9c0,2,0.4,3,0.6,3.6c0.3,0.5,0.8,0.6,1.3,0.6l0,0c0.1,0,0.1,0,0.1,0
			c0.1,0,0.1,0,0.2,0c3.9,0,3.9,0,3.9,0l0,0c2.1,0,2.1,0,2.1,0h0.1c1.2,0,1.2,0,1.2,0c0.3,0,0.5-0.1,0.6-0.2l0,0
			c0.8-0.9,0.8-0.9,0.8-0.9c0.1-0.1,0-0.4-0.2-0.4c-1,0-1,0-1,0c-0.1,0-0.1,0-0.2,0c-7.2,0-7.2,0-7.2,0c-0.2,0-0.4-0.1-0.5-0.4
			C78.1,50,78.1,50,78.1,50c-0.1-0.4-0.2-1.1-0.2-2.2c0-1,0.1-1.8,0.3-2.3c0.1-0.4,0.3-0.4,0.6-0.4c0.2,0,0.2,0,0.2,0l0,0
			c7.3,0,7.3,0,7.3,0c0.2,0,0.4-0.1,0.5-0.3c0.1,0,0.1,0,0.1,0c0.7-0.9,0.7-0.9,0.7-0.9C87.8,43.8,87.7,43.6,87.4,43.6z"/>
		<path clip-path="url(#SVGID_4_)" fill="#ffffff" d="M121,44.8L121,44.8c0.7-0.9,0.7-0.9,0.7-0.9c0.1-0.1,0-0.3-0.2-0.3
			c-1.1,0-1.1,0-1.1,0l0,0c-8.4,0-8.4,0-8.4,0c-0.2,0-0.4,0.1-0.6,0.3l0,0c-0.1,0.1-0.8,1.1-0.8,3.9c0,2,0.3,3,0.6,3.6
			c0.3,0.6,1,0.6,1.6,0.6c7.6,0,7.6,0,7.6,0c0.2,0,0.4-0.1,0.6-0.2l0,0c0.7-0.9,0.7-0.9,0.7-0.9c0.1-0.1,0-0.4-0.2-0.4c-1,0-1,0-1,0
			h-0.1c-7.5,0-7.5,0-7.5,0c-0.3,0-0.5-0.1-0.6-0.4c0-0.1,0-0.1,0-0.1c-0.1-0.5-0.2-1.1-0.2-2.2c0-1,0.1-1.8,0.2-2.3
			c0.1-0.4,0.4-0.4,0.6-0.4c0.2,0,0.2,0,0.2,0h0.1c7.2,0,7.2,0,7.2,0C120.6,45.2,120.8,45.1,121,44.8z"/>
		<path clip-path="url(#SVGID_4_)" fill="#ffffff" d="M138.1,43.6c-1.2-0.1-1.2-0.1-1.2-0.1l0,0c-8.3,0-8.3,0-8.3,0l0,0
			c-1.1,0.1-1.1,0.1-1.1,0.1c-0.2,0-0.3,0.2-0.2,0.3c0.7,0.8,0.7,0.8,0.7,0.8c0.2,0.2,0.4,0.3,0.6,0.3c3.4,0,3.4,0,3.4,0
			c0,1.3,0,1.3,0,1.3c0,4.5,0,4.5,0,4.5c0,0.2,0,0.2,0,0.2c0,0.1,0,0.1,0,0.1l0,0c0,0.5,0.5,0.9,1,0.9c0.3,0,0.3,0,0.3,0
			c0.1,0,0.2-0.1,0.2-0.2c0-0.7,0-0.7,0-0.7c0-0.3,0-0.3,0-0.3c0-5.9,0-5.9,0-5.9c3.4,0,3.4,0,3.4,0c0.3,0,0.5,0,0.6-0.2l0,0
			c0.7-0.9,0.7-0.9,0.7-0.9C138.4,43.8,138.3,43.6,138.1,43.6z"/>
		<path clip-path="url(#SVGID_4_)" fill="#ffffff" d="M154,44.8L154,44.8c0.8-0.9,0.8-0.9,0.8-0.9c0.1-0.1,0-0.3-0.2-0.3
			c-1.1,0-1.1,0-1.1,0l0,0c-8.5,0-8.5,0-8.5,0c-0.2,0-0.5,0.1-0.6,0.3l0,0c-0.2,0.1-0.8,1.1-0.8,3.9c0,2,0.3,3,0.5,3.6
			c0.4,0.6,1.1,0.6,1.7,0.6c7.7,0,7.7,0,7.7,0c0.2,0,0.4-0.1,0.6-0.3c0.7-0.8,0.7-0.8,0.7-0.8c0.1-0.2,0-0.4-0.2-0.4
			c-2.1,0-2.1,0-2.1,0l0,0c-6.7,0-6.7,0-6.7,0c-0.3,0-0.5,0-0.6-0.4c0-0.1,0-0.1,0-0.1c-0.1-0.3-0.2-0.7-0.2-1.3c6.7,0,6.7,0,6.7,0
			c0.3,0,0.5-0.1,0.6-0.2l0,0c0.8-0.9,0.8-0.9,0.8-0.9c0.1-0.1,0-0.4-0.2-0.4c-1.1,0-1.1,0-1.1,0s0,0-0.1,0c-6.7,0-6.7,0-6.7,0
			c0-0.6,0.1-1.1,0.2-1.5c0.1-0.4,0.3-0.4,0.6-0.4c0.2,0,0.2,0,0.2,0l0,0c7.4,0,7.4,0,7.4,0C153.7,45.2,153.9,45.1,154,44.8z"/>
		<path clip-path="url(#SVGID_4_)" fill="#ffffff" d="M104,43.6c-0.2,0-0.2,0-0.2,0c-0.1,0-0.1,0-0.1,0c-0.2,0-0.3,0-0.5,0.1
			c0,0.1-8.4,6-8.4,6c0-4.3,0-4.3,0-4.3c-0.1,0-0.1,0-0.1,0c0-0.5,0-0.5,0-0.5c0.1,0,0.1,0,0.1,0c0-1,0-1,0-1c0-0.1-0.2-0.2-0.3-0.2
			c-0.3,0-0.3,0-0.3,0c-0.5,0-0.9,0.4-0.9,0.9c-0.1,0.1-0.1,0.1-0.1,0.1c0,4.9,0,4.9,0,4.9l0,0c0,1.3,0,1.3,0,1.3l0,0c0,1,0,1,0,1
			c0,0.1,0.2,0.2,0.3,0.2c0.3,0,0.3,0,0.3,0c0.2,0,0.4-0.1,0.6-0.2l0,0c8.3-5.8,8.3-5.8,8.3-5.8c0,4.9,0,4.9,0,4.9l0,0c0,1,0,1,0,1
			c0,0.1,0.1,0.2,0.2,0.2c0.3,0,0.3,0,0.3,0c0.6,0,1-0.5,1-1V51c0-5.6,0-5.6,0-5.6v-0.1c0-0.5,0-0.5,0-0.5l0,0c0-0.6,0-0.6,0-0.6
			c0-0.4,0-0.4,0-0.4C104.2,43.7,104.1,43.6,104,43.6z"/>
		<path clip-path="url(#SVGID_4_)" fill="#ffffff" d="M198.6,43.5c-0.3,0-0.3,0-0.3,0s0,0-0.1,0c0,0,0,0-0.1,0
			c-0.4,0.1-0.7,0.5-0.7,0.9l0,0c0,0.1,0,0.1,0,0.1l0,0c0,6.3,0,6.3,0,6.3c0,0.4,0,0.4,0,0.4c0,0.6,0,0.6,0,0.6
			c0,0.1,0.1,0.2,0.2,0.2c0.3,0,0.3,0,0.3,0h0.1h0.1c0.4-0.1,0.7-0.5,0.8-0.9l0,0c0-0.1,0-0.1,0-0.1l0,0c0-6.3,0-6.3,0-6.3
			c0-0.3,0-0.3,0-0.3c0-0.7,0-0.7,0-0.7C198.9,43.6,198.8,43.5,198.6,43.5z"/>
		<path clip-path="url(#SVGID_4_)" fill="#ffffff" d="M193.2,47.3c0,0,0,0-0.1,0l0,0c-3.1,0-3.1,0-3.1,0s0,0-0.1,0
			c-1.1,0-1.1,0-1.1,0c-0.2,0-0.3,0.2-0.2,0.4c0.8,0.9,0.8,0.9,0.8,0.9l0,0c0.1,0.1,0.3,0.2,0.6,0.2c3.2,0,3.2,0,3.2,0
			c0.4,0,0.8,0.4,0.8,0.8c0,0.5-0.4,0.9-0.9,0.9c-5.6,0-5.6,0-5.6,0c0-1.8,0-1.8,0-1.8c0-1.5,0-1.5,0-1.5c0-2.7,0-2.7,0-2.7l0,0
			c0-0.1,0-0.1,0-0.1l0,0c0-0.5-0.3-0.8-0.7-0.9c-0.1,0-0.1,0-0.2,0c0,0,0,0-0.1,0c-0.3,0-0.3,0-0.3,0c-0.1,0-0.2,0.1-0.2,0.2
			c0,0.6,0,0.6,0,0.6c0,0.4,0,0.4,0,0.4c0,6.2,0,6.2,0,6.2l0,0c0,0.1,0,0.1,0,0.1c0,0.1,0,0.1,0,0.1l0,0c0,0.1,0,0.1,0,0.1
			c0,0.5,0.4,0.8,0.8,0.8c6.4,0,6.4,0,6.4,0c1.3,0,2.5-1.1,2.5-2.5C195.6,48.5,194.6,47.4,193.2,47.3z"/>
		<path clip-path="url(#SVGID_4_)" fill="#8D2329" d="M31,40.5c-1-0.3-2.1-0.9-2.8-1.8c-0.8-0.7-1.4-1.7-1.7-2.8
			C2.7,36,2.7,36,2.7,36c-1,0-1.8,0.9-1.6,2c1,7.2,4.3,13.8,9.2,18.8S21.8,65,29,66c1,0.1,1.9-0.6,1.9-1.7C31,40.5,31,40.5,31,40.5z
			 M23.8,40.4c0.4,0.5,0.8,1,1.3,1.5c0.4,0.4,0.9,0.8,1.4,1.2c0,17.9,0,17.9,0,17.9c-4.9-1.2-9.5-3.8-13-7.5
			C9.8,49.9,7.2,45.4,6,40.4C23.8,40.4,23.8,40.4,23.8,40.4z"/>
		<path clip-path="url(#SVGID_4_)" fill="#8D2329" d="M56.5,10.3c-4.9-5-11.4-8.4-18.7-9.4C36.9,0.8,36,1.6,36,2.5
			c0,23.8,0,23.8,0,23.8c1,0.3,2,0.9,2.8,1.8c0.8,0.8,1.4,1.8,1.8,2.8c23.7,0,23.7,0,23.7,0c1,0,1.7-0.9,1.6-1.9
			C64.9,21.7,61.5,15.2,56.5,10.3z M53.5,13.4c3.6,3.6,6.2,8.2,7.5,13.1c-17.8,0-17.8,0-17.8,0c-0.4-0.5-0.8-1-1.3-1.4
			c-0.4-0.5-0.9-0.9-1.4-1.3c0-17.7,0-17.7,0-17.7C45.3,7.2,49.9,9.8,53.5,13.4z"/>
		<path clip-path="url(#SVGID_4_)" fill="#8D2329" d="M30.4,1.4C30.1,1,29.6,0.9,29,0.9C14.5,2.9,3,14.4,1.1,29.1
			c-0.1,0.5,0.1,1,0.5,1.3c0.3,0.3,0.7,0.5,1.1,0.5c23.7,0,23.7,0,23.7,0c0.7-2.2,2.4-3.8,4.5-4.5c0-23.8,0-23.8,0-23.8
			C31,2.1,30.8,1.7,30.4,1.4z M26.5,5.8c0,17.9,0,17.9,0,17.9c-1,0.8-1.9,1.8-2.8,2.8C6,26.5,6,26.5,6,26.5
			C8.6,16.4,16.5,8.4,26.5,5.8z"/>
		<path clip-path="url(#SVGID_4_)" fill="#8D2329" d="M65.4,36.5c-0.3-0.3-0.7-0.5-1.1-0.5c-23.7,0-23.7,0-23.7,0
			c-0.7,2.2-2.4,3.8-4.5,4.5c0,23.8,0,23.8,0,23.8c0,0.4,0.2,0.8,0.5,1.1c0.3,0.4,0.8,0.6,1.3,0.5c14.6-2,26.1-13.5,28-28.1
			C65.9,37.3,65.8,36.8,65.4,36.5z M60.9,40.4C58.4,50.5,50.5,58.5,40.4,61c0-17.9,0-17.9,0-17.9c1-0.8,1.9-1.8,2.8-2.8
			C60.9,40.4,60.9,40.4,60.9,40.4z"/>
		<polygon clip-path="url(#SVGID_4_)" fill="#BB302C" points="47.7,40.4 40.5,40.5 40.4,47.4 		"/>
		<polygon clip-path="url(#SVGID_4_)" fill="#BB302C" points="26.5,19.2 26.4,26.5 19.7,26.6 		"/>
		<polygon clip-path="url(#SVGID_4_)" fill="#BB302C" points="26.5,47.7 26.4,40.4 19.7,40.4 		"/>
		<polygon clip-path="url(#SVGID_4_)" fill="#BB302C" points="47.7,26.6 40.4,26.5 40.4,19.6 		"/>
	</g>
</g>
</svg>
