<?xml version="1.0" encoding="utf-8"?>
<!-- Generator: Adobe Illustrator 22.0.0, SVG Export Plug-In . SVG Version: 6.00 Build 0)  -->
<svg version="1.1" id="Слой_1" xmlns="http://www.w3.org/2000/svg" xmlns:xlink="http://www.w3.org/1999/xlink" x="0px" y="0px"
	 viewBox="0 0 200 49.8" enable-background="new 0 0 200 49.8" xml:space="preserve">
<g>
	<defs>
		<rect id="SVGID_1_" x="3" y="1.2" width="196" height="46"/>
	</defs>
	<clipPath id="SVGID_2_">
		<use xlink:href="#SVGID_1_"  overflow="visible"/>
	</clipPath>
	<g clip-path="url(#SVGID_2_)">
		<defs>
			<rect id="SVGID_3_" x="3" y="1.2" width="196" height="46"/>
		</defs>
		<clipPath id="SVGID_4_">
			<use xlink:href="#SVGID_3_"  overflow="visible"/>
		</clipPath>
		<path clip-path="url(#SVGID_4_)" fill-rule="evenodd" clip-rule="evenodd" fill="#333333" d="M16.4,21.8L16.4,21.8z M16.4,21.8
			c8.3,0,12.9,5.8,12.9,12.9c0,6.7-4.6,12.9-12.9,12.9c-8.8,0-12.9-6.2-12.9-12.9C3.5,27.6,7.6,21.8,16.4,21.8z M16.4,27.6
			c-4.2,0-6.5,3.3-6.5,7.2c0,3.8,2.3,6.7,6.5,6.7c4.1,0,6.4-2.9,6.4-6.7C22.8,30.9,20.5,27.6,16.4,27.6z"/>
		<path clip-path="url(#SVGID_4_)" fill-rule="evenodd" clip-rule="evenodd" fill="#333333" d="M43.5,21.8L43.5,21.8z M43.5,21.8
			c2.3,0,4.6,0.5,6.9,1.4c0,6.2,0,6.2,0,6.2c-1.4-1.4-3.7-1.9-6-1.9c-3.7,0-7.4,1.9-7.4,7.7c0,4.8,3.7,6.7,7.4,6.7
			c2.3,0,4.6-1,6-2.4c0,6.7,0,6.7,0,6.7c-1.8,1-4.1,1.4-6.9,1.4c-6.5,0-12.9-3.8-12.9-12.4C30.6,25.7,37,21.8,43.5,21.8z"/>
		<path clip-path="url(#SVGID_4_)" fill-rule="evenodd" clip-rule="evenodd" fill="#333333" d="M74.8,21.8L74.8,21.8z M74.8,21.8
			v25.9h-6.4v-10h-8.7v10h-6.5V21.8h6.5v9.6h8.7v-9.6H74.8z"/>
		<path clip-path="url(#SVGID_4_)" fill-rule="evenodd" clip-rule="evenodd" fill="#333333" d="M90.4,21.8L90.4,21.8z M90.4,21.8
			c8.3,0,12.4,5.8,12.4,12.9c0,6.7-4.1,12.9-12.4,12.9c-8.7,0-12.9-6.2-12.9-12.9C77.5,27.6,81.7,21.8,90.4,21.8z M90.4,27.6
			c-4.1,0-6.4,3.3-6.4,7.2c0,3.8,2.3,6.7,6.4,6.7c3.7,0,6-2.9,6-6.7C96.4,30.9,94.1,27.6,90.4,27.6z"/>
		<path clip-path="url(#SVGID_4_)" fill-rule="evenodd" clip-rule="evenodd" fill="#333333" d="M116.2,21.8L116.2,21.8z M116.2,21.8
			c5.5,0,8.8,1.9,8.8,6.2c0,2.9-1.4,4.8-3.7,5.8c2.3,0.9,4.6,2.9,4.6,6.2c0,6.2-5.5,7.7-9.7,7.7c-10.6,0-10.6,0-10.6,0
			c0-25.9,0-25.9,0-25.9H116.2z M116.2,36.7c-4.2,0-4.2,0-4.2,0c0,5.7,0,5.7,0,5.7c4.2,0,4.2,0,4.2,0c1.9,0,3.2-0.9,3.2-2.9
			C119.4,37.7,118.1,36.7,116.2,36.7z M115.7,27.1c-3.7,0-3.7,0-3.7,0c0,4.8,0,4.8,0,4.8c3.7,0,3.7,0,3.7,0c1.8,0,2.8-1,2.8-2.4
			C118.5,28.1,117.6,27.1,115.7,27.1z"/>
		<path clip-path="url(#SVGID_4_)" fill-rule="evenodd" clip-rule="evenodd" fill="#333333" d="M125.4,47.7L125.4,47.7z M125.4,47.7
			c9.2-25.9,9.2-25.9,9.2-25.9c6.9,0,6.9,0,6.9,0c9.2,25.9,9.2,25.9,9.2,25.9c-6.5,0-6.5,0-6.5,0c-1.4-4.3-1.4-4.3-1.4-4.3
			c-9.7,0-9.7,0-9.7,0c-1.4,4.3-1.4,4.3-1.4,4.3H125.4z M135.1,38.2c6,0,6,0,6,0c-2.3-7.2-2.3-7.2-2.3-7.2c-0.5-0.9-0.5-1.4-0.9-2.9
			c0,1.4-0.5,1.9-0.5,2.9L135.1,38.2z"/>
		<path clip-path="url(#SVGID_4_)" fill-rule="evenodd" clip-rule="evenodd" fill="#333333" d="M197.6,1.7L197.6,1.7z M197.6,1.7
			c-47.4,0-47.4,0-47.4,0c-1,0-1.4,1-1.4,1.5c0,20.1,0,20.1,0,20.1c-1.8,4.8-1.8,4.8-1.8,4.8c1.4,3.4,1.4,3.4,1.4,3.4
			c3.2-3.4,3.2-3.4,3.2-3.4c46,0,46,0,46,0c0.9,0,1.4-0.5,1.4-1.4c0-23.5,0-23.5,0-23.5C199,2.7,198.6,1.7,197.6,1.7z"/>
		<path clip-path="url(#SVGID_4_)" fill-rule="evenodd" clip-rule="evenodd" fill="#333333" d="M169.1,7L169.1,7z M169.1,7
			c0,14.8,0,14.8,0,14.8c-3.2,0-3.2,0-3.2,0c0-12,0-12,0-12c-3.7,0-3.7,0-3.7,0c-0.4,6.2-0.9,12-5.1,12c-0.5,0-0.9,0-1.4,0
			c0-2.9,0-2.9,0-2.9s0.5,0,0.9,0c2.3,0,2.3-6.7,2.7-12H169.1z"/>
		<path clip-path="url(#SVGID_4_)" fill-rule="evenodd" clip-rule="evenodd" fill="#333333" d="M180.6,20L180.6,20z M180.6,20h0.4
			c0,1.9,0,1.9,0,1.9c-0.4,0-0.9,0-1.4,0c-0.9,0-1.8-0.5-2.3-1c-0.9,0.5-1.9,1-3.2,1c-1.8,0-3.7-1-3.7-2.9c0-2.4,2.3-3.4,4.2-3.4
			c0.9,0,1.8,0,2.3,0.5c0-0.5,0-0.5,0-0.5c0-0.9-0.5-1.9-2.3-1.9c-0.9,0-2.3,0.5-3.2,1c0-2.4,0-2.4,0-2.4c0.9-0.5,2.3-1,3.7-1
			c2.8,0,5.1,1.4,5.1,4.8c0,2.9,0,2.9,0,2.9C180.2,19.4,180.2,20,180.6,20z M173.3,18.5c0,0.9,0.9,1.4,1.8,1.4c0.5,0,1.4,0,1.9-1
			c0-1.4,0-1.4,0-1.4s-1,0-1.4,0C174.6,17.6,173.3,17.6,173.3,18.5z"/>
		<path clip-path="url(#SVGID_4_)" fill-rule="evenodd" clip-rule="evenodd" fill="#333333" d="M187.1,21.8L187.1,21.8z M187.1,21.8
			c-2.7,0-5.1-1.4-5.1-5.7c0-3.8,1-5.8,2.8-7.2c2.8-1.4,5.1-1,6.4-2.4c0,2.9,0,2.9,0,2.9c-1.4,1-2.7,0.5-4.6,1.5
			c-1.4,0.9-1.8,1.9-1.8,2.9c0.5-1,1.8-1.4,3.2-1.4c2.3,0,4.1,1.9,4.1,4.8C192.1,20.4,189.8,21.8,187.1,21.8z M187.1,20
			c1.9,0,2.3-1.4,2.3-2.9c0-0.9-0.5-2.4-2.3-2.4c-1.8,0-2.3,1.4-2.3,2.4C184.8,18.5,185.2,20,187.1,20z"/>
		<path clip-path="url(#SVGID_4_)" fill-rule="evenodd" clip-rule="evenodd" fill="#333333" d="M16.4,21.8L16.4,21.8z M16.4,21.8
			c8.3,0,12.9,5.8,12.9,12.9c0,6.7-4.6,12.9-12.9,12.9c-8.8,0-12.9-6.2-12.9-12.9C3.5,27.6,7.6,21.8,16.4,21.8z M16.4,27.6
			c-4.2,0-6.5,3.3-6.5,7.2c0,3.8,2.3,6.7,6.5,6.7c4.1,0,6.4-2.9,6.4-6.7C22.8,30.9,20.5,27.6,16.4,27.6z"/>
		<path clip-path="url(#SVGID_4_)" fill-rule="evenodd" clip-rule="evenodd" fill="#333333" d="M43.5,21.8L43.5,21.8z M43.5,21.8
			c2.3,0,4.6,0.5,6.9,1.4c0,6.2,0,6.2,0,6.2c-1.4-1.4-3.7-1.9-6-1.9c-3.7,0-7.4,1.9-7.4,7.7c0,4.8,3.7,6.7,7.4,6.7
			c2.3,0,4.6-1,6-2.4c0,6.7,0,6.7,0,6.7c-1.8,1-4.1,1.4-6.9,1.4c-6.5,0-12.9-3.8-12.9-12.4C30.6,25.7,37,21.8,43.5,21.8z"/>
		<path clip-path="url(#SVGID_4_)" fill-rule="evenodd" clip-rule="evenodd" fill="#333333" d="M74.8,21.8L74.8,21.8z M74.8,21.8
			v25.9h-6.4v-10h-8.7v10h-6.5V21.8h6.5v9.6h8.7v-9.6H74.8z"/>
		<path clip-path="url(#SVGID_4_)" fill-rule="evenodd" clip-rule="evenodd" fill="#333333" d="M90.4,21.8L90.4,21.8z M90.4,21.8
			c8.3,0,12.4,5.8,12.4,12.9c0,6.7-4.1,12.9-12.4,12.9c-8.7,0-12.9-6.2-12.9-12.9C77.5,27.6,81.7,21.8,90.4,21.8z M90.4,27.6
			c-4.1,0-6.4,3.3-6.4,7.2c0,3.8,2.3,6.7,6.4,6.7c3.7,0,6-2.9,6-6.7C96.4,30.9,94.1,27.6,90.4,27.6z"/>
		<path clip-path="url(#SVGID_4_)" fill-rule="evenodd" clip-rule="evenodd" fill="#333333" d="M116.2,21.8L116.2,21.8z M116.2,21.8
			c5.5,0,8.8,1.9,8.8,6.2c0,2.9-1.4,4.8-3.7,5.8c2.3,0.9,4.6,2.9,4.6,6.2c0,6.2-5.5,7.7-9.7,7.7c-10.6,0-10.6,0-10.6,0
			c0-25.9,0-25.9,0-25.9H116.2z M116.2,36.7c-4.2,0-4.2,0-4.2,0c0,5.7,0,5.7,0,5.7c4.2,0,4.2,0,4.2,0c1.9,0,3.2-0.9,3.2-2.9
			C119.4,37.7,118.1,36.7,116.2,36.7z M115.7,27.1c-3.7,0-3.7,0-3.7,0c0,4.8,0,4.8,0,4.8c3.7,0,3.7,0,3.7,0c1.8,0,2.8-1,2.8-2.4
			C118.5,28.1,117.6,27.1,115.7,27.1z"/>
		<path clip-path="url(#SVGID_4_)" fill-rule="evenodd" clip-rule="evenodd" fill="#333333" d="M125.4,47.7L125.4,47.7z M125.4,47.7
			c9.2-25.9,9.2-25.9,9.2-25.9c6.9,0,6.9,0,6.9,0c9.2,25.9,9.2,25.9,9.2,25.9c-6.5,0-6.5,0-6.5,0c-1.4-4.3-1.4-4.3-1.4-4.3
			c-9.7,0-9.7,0-9.7,0c-1.4,4.3-1.4,4.3-1.4,4.3H125.4z M135.1,38.2c6,0,6,0,6,0c-2.3-7.2-2.3-7.2-2.3-7.2c-0.5-0.9-0.5-1.4-0.9-2.9
			c0,1.4-0.5,1.9-0.5,2.9L135.1,38.2z"/>
		<path clip-path="url(#SVGID_4_)" fill-rule="evenodd" clip-rule="evenodd" fill="#333333" d="M197.6,1.7L197.6,1.7z M197.6,1.7
			c-47.4,0-47.4,0-47.4,0c-1,0-1.4,1-1.4,1.5c0,20.1,0,20.1,0,20.1c-1.8,4.8-1.8,4.8-1.8,4.8c1.4,3.4,1.4,3.4,1.4,3.4
			c3.2-3.4,3.2-3.4,3.2-3.4c46,0,46,0,46,0c0.9,0,1.4-0.5,1.4-1.4c0-23.5,0-23.5,0-23.5C199,2.7,198.6,1.7,197.6,1.7z"/>
		<path clip-path="url(#SVGID_4_)" fill-rule="evenodd" clip-rule="evenodd" fill="#FFFFFF" d="M169.1,7L169.1,7z M169.1,7
			c0,14.8,0,14.8,0,14.8c-3.2,0-3.2,0-3.2,0c0-12,0-12,0-12c-3.7,0-3.7,0-3.7,0c-0.4,6.2-0.9,12-5.1,12c-0.5,0-0.9,0-1.4,0
			c0-2.9,0-2.9,0-2.9s0.5,0,0.9,0c2.3,0,2.3-6.7,2.7-12H169.1z"/>
		<path clip-path="url(#SVGID_4_)" fill-rule="evenodd" clip-rule="evenodd" fill="#FFFFFF" d="M180.6,20L180.6,20z M180.6,20h0.4
			c0,1.9,0,1.9,0,1.9c-0.4,0-0.9,0-1.4,0c-0.9,0-1.8-0.5-2.3-1c-0.9,0.5-1.9,1-3.2,1c-1.8,0-3.7-1-3.7-2.9c0-2.4,2.3-3.4,4.2-3.4
			c0.9,0,1.8,0,2.3,0.5c0-0.5,0-0.5,0-0.5c0-0.9-0.5-1.9-2.3-1.9c-0.9,0-2.3,0.5-3.2,1c0-2.4,0-2.4,0-2.4c0.9-0.5,2.3-1,3.7-1
			c2.8,0,5.1,1.4,5.1,4.8c0,2.9,0,2.9,0,2.9C180.2,19.4,180.2,20,180.6,20z M173.3,18.5c0,0.9,0.9,1.4,1.8,1.4c0.5,0,1.4,0,1.9-1
			c0-1.4,0-1.4,0-1.4s-1,0-1.4,0C174.6,17.6,173.3,17.6,173.3,18.5z"/>
		<path clip-path="url(#SVGID_4_)" fill-rule="evenodd" clip-rule="evenodd" fill="#FFFFFF" d="M187.1,21.8L187.1,21.8z M187.1,21.8
			c-2.7,0-5.1-1.4-5.1-5.7c0-3.8,1-5.8,2.8-7.2c2.8-1.4,5.1-1,6.4-2.4c0,2.9,0,2.9,0,2.9c-1.4,1-2.7,0.5-4.6,1.5
			c-1.4,0.9-1.8,1.9-1.8,2.9c0.5-1,1.8-1.4,3.2-1.4c2.3,0,4.1,1.9,4.1,4.8C192.1,20.4,189.8,21.8,187.1,21.8z M187.1,20
			c1.9,0,2.3-1.4,2.3-2.9c0-0.9-0.5-2.4-2.3-2.4c-1.8,0-2.3,1.4-2.3,2.4C184.8,18.5,185.2,20,187.1,20z"/>
	</g>
</g>
</svg>
