<?xml version="1.0" encoding="utf-8"?>
<!-- Generator: Adobe Illustrator 22.0.0, SVG Export Plug-In . SVG Version: 6.00 Build 0)  -->
<svg version="1.1" id="Слой_1" xmlns="http://www.w3.org/2000/svg" xmlns:xlink="http://www.w3.org/1999/xlink" x="0px" y="0px"
	 viewBox="0 0 193 45" enable-background="new 0 0 193 45" xml:space="preserve" fill="#333333">
<g>
	<defs>
		<rect id="SVGID_1_" x="2.8" y="2" width="187.7" height="42"/>
	</defs>
	<clipPath id="SVGID_2_">
		<use xlink:href="#SVGID_1_"  overflow="visible"/>
	</clipPath>
	<g clip-path="url(#SVGID_2_)">
		<defs>
			<rect id="SVGID_3_" x="2.8" y="2" width="187.7" height="42"/>
		</defs>
		<clipPath id="SVGID_4_">
			<use xlink:href="#SVGID_3_"  overflow="visible"/>
		</clipPath>
		<polygon clip-path="url(#SVGID_4_)" points="6.1,2.3 8.2,2.3 9.5,10.6 14.1,2.3 16.3,2.3 13.1,18.3 10.7,18.3 12.7,8.3 9.3,14.7 
			8,14.7 7.3,8.3 5.2,18.3 2.8,18.3"/>
		<path clip-path="url(#SVGID_4_)" d="M21.9,6l-2.7,7h2.7V6z M21.9,18.3V15h-3.5L17,18.3h-2.5l6.9-16h2.3l0.5,16H21.9z"/>
		<path clip-path="url(#SVGID_4_)" d="M25.5,16.1c0.2,0,0.2,0,0.2,0c1.3,0,2.2-0.8,3-5c1.8-8.9,1.8-8.9,1.8-8.9c7.3,0,7.3,0,7.3,0
			c-3.2,16-3.2,16-3.2,16c-2.4,0-2.4,0-2.4,0c2.8-13.9,2.8-13.9,2.8-13.9c-2.6,0-2.6,0-2.6,0C31,11.3,31,11.3,31,11.3
			c-1.2,6.1-2.5,7-5.3,7c-0.7,0-0.7,0-0.7,0L25.5,16.1z"/>
		<path clip-path="url(#SVGID_4_)" d="M42.4,8.9c1.3,0,1.9-0.6,2.2-2.2c0.1-0.4,0.1-0.8,0.1-1.1c0-0.8-0.3-1.2-1.3-1.2
			c-1.1,0-1.1,0-1.1,0c-0.9,4.5-0.9,4.5-0.9,4.5H42.4z M41.1,16.1c1.4,0,1.9-0.6,2.3-2.5c0.1-0.5,0.1-0.9,0.1-1.2
			c0-1-0.5-1.5-1.4-1.5c-1.2,0-1.2,0-1.2,0c-1,5.2-1,5.2-1,5.2H41.1z M40.3,2.3c3.5,0,3.5,0,3.5,0c1.3,0,2.1,0.3,2.7,1
			c0.5,0.6,0.6,1.2,0.6,1.9c0,0.4,0,0.9-0.1,1.5c-0.3,1.2-0.5,2-1.3,2.7c-0.3,0.3-0.6,0.4-0.9,0.6c0.3,0.1,0.6,0.4,0.7,0.6
			c0.4,0.5,0.5,1,0.5,1.5c0,0.5-0.1,1-0.2,1.7c-0.4,2-0.8,3-1.6,3.6c-0.8,0.8-1.7,1-3.3,1c-3.8,0-3.8,0-3.8,0L40.3,2.3z"/>
		<polygon clip-path="url(#SVGID_4_)" points="50,2.3 52.3,2.3 50.4,11.9 55.9,2.3 57.9,2.3 54.7,18.3 52.3,18.3 54.2,8.7 
			48.8,18.3 46.8,18.3"/>
		<polygon clip-path="url(#SVGID_4_)" points="60,2.3 62.4,2.3 61,9.1 64,9.1 65.4,2.3 67.8,2.3 64.6,18.3 62.2,18.3 63.6,11.2 
			60.6,11.2 59.2,18.3 56.8,18.3"/>
		<path clip-path="url(#SVGID_4_)" d="M123.6,35.4c1-4.9,1.5-6.1,2.5-7.1c0.7-0.8,1.7-1.1,3-1.1c1.2,0,2.1,0.3,2.6,1
			c0.5,0.6,0.7,1.4,0.7,2.2c0,0.4,0,0.6-0.1,1.1c-2.4,0-2.4,0-2.4,0c0.1-0.4,0.1-0.6,0.1-0.9c0-0.8-0.3-1.3-1.2-1.3
			c-0.5,0-0.8,0.2-1.2,0.5c-0.6,0.6-0.9,1.6-1.7,5.6c-0.4,2-0.6,3.7-0.6,4.7c0,0.9,0.3,1.3,1.1,1.3c0.6,0,1-0.2,1.3-0.6
			c0.3-0.4,0.6-0.9,0.7-1.6c2.4,0,2.4,0,2.4,0c-0.3,1.6-0.8,2.6-1.7,3.4c-0.7,0.6-1.5,1-2.9,1c-1.4,0-2.2-0.4-2.8-1.3
			c-0.4-0.6-0.6-1.3-0.6-2.2C122.9,39.1,123.1,37.6,123.6,35.4z"/>
		<polygon clip-path="url(#SVGID_4_)" points="135.1,27.4 137.5,27.4 135.6,37 141.1,27.4 143.1,27.4 139.9,43.4 137.5,43.4 
			139.5,33.8 134.1,43.4 131.9,43.4"/>
		<path clip-path="url(#SVGID_4_)" d="M143.6,35.4c1-4.9,1.5-6.1,2.5-7.1c0.8-0.8,1.7-1.1,3-1.1c1.2,0,2.1,0.3,2.7,1
			c0.4,0.6,0.6,1.4,0.6,2.2c0,0.4,0,0.6-0.1,1.1c-2.4,0-2.4,0-2.4,0c0.1-0.4,0.1-0.6,0.1-0.9c0-0.8-0.3-1.3-1.2-1.3
			c-0.5,0-0.8,0.2-1.2,0.5c-0.6,0.6-0.9,1.6-1.7,5.6c-0.4,2-0.6,3.7-0.6,4.7c0,0.9,0.3,1.3,1.2,1.3c0.5,0,0.9-0.2,1.2-0.6
			c0.4-0.4,0.6-0.9,0.8-1.6c2.4,0,2.4,0,2.4,0c-0.3,1.6-0.8,2.6-1.7,3.4c-0.7,0.6-1.5,1-2.9,1c-1.4,0-2.2-0.4-2.8-1.3
			c-0.4-0.6-0.6-1.3-0.6-2.2C142.9,39.1,143.2,37.6,143.6,35.4z"/>
		<polygon clip-path="url(#SVGID_4_)" points="155.8,29.5 153.3,29.5 153.7,27.4 161.2,27.4 160.8,29.5 158.2,29.5 155.5,43.4 
			153.1,43.4"/>
		<polygon clip-path="url(#SVGID_4_)" points="162.5,27.4 168.9,27.4 168.4,29.5 164.5,29.5 163.5,34.3 167,34.3 166.5,36.4 
			163,36.4 162.1,41.3 166.1,41.3 165.7,43.4 159.3,43.4"/>
		<polygon clip-path="url(#SVGID_4_)" points="171,27.4 173.1,27.4 174.4,35.7 179,27.4 181.2,27.4 178,43.4 175.6,43.4 177.6,33.5 
			174.2,39.8 172.9,39.8 172.2,33.4 170.1,43.4 167.7,43.4"/>
		<path clip-path="url(#SVGID_4_)" d="M181.7,35.4c1-4.9,1.5-6.1,2.5-7.1c0.8-0.8,1.7-1.1,3-1.1c1.2,0,2.1,0.3,2.7,1
			c0.4,0.6,0.7,1.4,0.7,2.2c0,0.4,0,0.6-0.1,1.1c-2.4,0-2.4,0-2.4,0c0.1-0.4,0.1-0.6,0.1-0.9c0-0.8-0.3-1.3-1.1-1.3
			c-0.5,0-0.9,0.2-1.2,0.5c-0.6,0.6-1,1.6-1.7,5.6c-0.4,2-0.7,3.7-0.7,4.7c0,0.9,0.3,1.3,1.2,1.3c0.6,0,1-0.2,1.2-0.6
			c0.4-0.4,0.6-0.9,0.8-1.6c2.4,0,2.4,0,2.4,0c-0.4,1.6-0.8,2.6-1.8,3.4c-0.7,0.6-1.5,1-2.9,1c-1.3,0-2.2-0.4-2.8-1.3
			c-0.4-0.6-0.5-1.3-0.5-2.2C181,39.1,181.3,37.6,181.7,35.4z"/>
		<path clip-path="url(#SVGID_4_)" fill="#333333" d="M98.4,39.8c-16.8,0-16.8,0-16.8,0c3.9,2.6,8.6,4.2,13.7,4.2
			c5.1,0,9.7-1.5,13.5-4C105.8,39.9,102.4,39.8,98.4,39.8z M95,20.9c-18.6,0-23,1.7-23,2c0,0.5,5.9,2.1,23,2.1
			c18.5,0,22.9-1.6,22.9-2C118,22.5,112.1,20.9,95,20.9z M88.5,27.2c-15.9,0-15.9,0-15.9,0c0.4,1.5,0.9,2.9,1.5,4.2
			c14.3,0,14.3,0,14.3,0c23.2,0,28.7-1.7,28.7-2.1C117.2,28.8,109.8,27.2,88.5,27.2z M85.1,33.5c-9.6,0-9.6,0-9.6,0
			c1,1.5,2.1,2.9,3.5,4.2c6.2,0,6.2,0,6.2,0c23.2,0,28.7-1.7,28.7-2C113.7,35.1,106.4,33.5,85.1,33.5z M91.3,6.1
			c16.8,0,16.8,0,16.8,0c-3.9-2.6-8.6-4.2-13.7-4.2c-5.1,0-9.7,1.5-13.6,4C83.8,6,87.3,6.1,91.3,6.1z M101.3,18.7
			c15.8,0,15.8,0,15.8,0c-0.3-1.4-0.8-2.8-1.5-4.2c-14.3,0-14.3,0-14.3,0c-23.3,0-28.7,1.7-28.7,2.1C72.5,17.2,79.9,18.7,101.3,18.7
			z M75.9,10.3c0-0.5,5.5-2.1,28.7-2.1c6.1,0,6.1,0,6.1,0c1.4,1.3,2.6,2.7,3.5,4.2c-9.6,0-9.6,0-9.6,0
			C83.3,12.4,75.9,10.8,75.9,10.3z"/>
	</g>
</g>
</svg>
