<?xml version="1.0" encoding="utf-8"?>
<!-- Generator: Adobe Illustrator 22.0.0, SVG Export Plug-In . SVG Version: 6.00 Build 0)  -->
<svg version="1.1" id="Слой_1" xmlns="http://www.w3.org/2000/svg" xmlns:xlink="http://www.w3.org/1999/xlink" x="0px" y="0px"
	 viewBox="0 0 82 77.5" enable-background="new 0 0 82 77.5" xml:space="preserve">
<g>
	<defs>
		<rect id="SVGID_1_" x="2.8" y="2" width="77" height="73"/>
	</defs>
	<clipPath id="SVGID_2_">
		<use xlink:href="#SVGID_1_"  overflow="visible"/>
	</clipPath>
	<g clip-path="url(#SVGID_2_)">
		<defs>
			<rect id="SVGID_3_" x="2.8" y="2" width="77" height="73"/>
		</defs>
		<clipPath id="SVGID_4_">
			<use xlink:href="#SVGID_3_"  overflow="visible"/>
		</clipPath>
		<path clip-path="url(#SVGID_4_)" fill="#333333" d="M43.5,46.2c0-4.6,0-4.6,0-4.6c0-2.3-1.8-4.3-4.3-4.3c-4.9,0-4.9,0-4.9,0
			c0-4.1,0-4.1,0-4.1c13.9,0,13.9,0,13.9,0c0,4.1,0,4.1,0,4.1c-1,0-1,0-1,0c-1.5,0-2.5,1.2-2.5,2.5c0,1.5,1,2.5,2.5,2.5
			c1.6,0,1.6,0,1.6,0c2.3,0,4.3-1.8,4.3-4.3c0-5.3,0-5.3,0-5.3c0-2.5-2-4.5-4.3-4.5c-15.2,0-15.2,0-15.2,0c-2.3,0-4.3,2-4.3,4.5
			c0,5.3,0,5.3,0,5.3c0,2.5,2,4.3,4.3,4.3c4.9,0,4.9,0,4.9,0c0,4,0,4,0,4c0,1.3,1.2,2.5,2.4,2.5C42.5,48.7,43.5,47.5,43.5,46.2z
			 M55.7,30.6c0,15.6,0,15.6,0,15.6c0,1,0.5,2,1.5,2.3c0.3,0.2,0.7,0.3,1.2,0.3c0.5,0,1.1-0.3,1.6-0.7
			c14.2-11.9,14.2-11.9,14.2-11.9c0,9.9,0,9.9,0,9.9c0,1.5,1.1,2.6,2.6,2.6c1.5,0,2.6-1.2,2.6-2.6c0-15.6,0-15.6,0-15.6
			c0-1-0.7-1.8-1.5-2.3c-1-0.3-2-0.3-2.8,0.3C60.8,40.7,60.8,40.7,60.8,40.7c0-10.1,0-10.1,0-10.1c0-1.3-1.1-2.5-2.4-2.5
			C56.9,28.2,55.7,29.3,55.7,30.6z M5.7,48.8c1.3,0,2.5-1.2,2.5-2.6c0-9.4,0-9.4,0-9.4c5.1,4.6,5.1,4.6,5.1,4.6c1,1,2.4,1,3.4,0
			c4.9-4.6,4.9-4.6,4.9-4.6c0,9.4,0,9.4,0,9.4c0,1.5,1.2,2.6,2.6,2.6c1.5,0,2.6-1.2,2.6-2.6c0-15.6,0-15.6,0-15.6c0-1-0.7-2-1.6-2.3
			c-0.8-0.3-2-0.2-2.8,0.5c-7.5,7.3-7.5,7.3-7.5,7.3c-7.4-7.3-7.4-7.3-7.4-7.3c-0.8-0.7-2-0.8-2.8-0.5c-1,0.3-1.6,1.3-1.6,2.3
			c0,15.6,0,15.6,0,15.6C3.1,47.7,4.2,48.8,5.7,48.8z M41.2,20.4c2,0,3.6-1.7,3.6-3.6s-1.6-3.6-3.6-3.6c-1.9,0-3.6,1.7-3.6,3.6
			S39.2,20.4,41.2,20.4z M52.1,20.4c2.1,0,3.6-1.7,3.6-3.6s-1.5-3.6-3.6-3.6c-2,0-3.6,1.7-3.6,3.6S50.2,20.4,52.1,20.4z M30.2,20.4
			c2,0,3.6-1.7,3.6-3.6s-1.6-3.6-3.6-3.6s-3.6,1.7-3.6,3.6S28.3,20.4,30.2,20.4z M41.2,9.3c2,0,3.6-1.7,3.6-3.6
			c0-2.1-1.6-3.8-3.6-3.8c-1.9,0-3.6,1.7-3.6,3.8C37.6,7.6,39.2,9.3,41.2,9.3z"/>
		<path clip-path="url(#SVGID_4_)" fill="#333333" d="M13.5,55.6c2.8,0,2.8,0,2.8,0c0.6,0,1.3-0.7,1.3-1.3c0-0.8-0.6-1.5-1.3-1.5
			c-2.8,0-2.8,0-2.8,0c-6,0-11,5-11,11.1C2.6,70,7.5,75,13.5,75c2.8,0,2.8,0,2.8,0c0.6,0,1.3-0.7,1.3-1.5c0-0.7-0.6-1.3-1.3-1.3
			c-2.8,0-2.8,0-2.8,0c-4.6,0-8.2-3.6-8.2-8.3C5.4,59.3,9,55.6,13.5,55.6z M29.1,72.2c-4.6,0-8.2-3.6-8.2-8.3c0-4.6,3.6-8.3,8.2-8.3
			c4.4,0,8,3.6,8,8.3C37.1,68.5,33.5,72.2,29.1,72.2z M29.1,52.8c-6.1,0-11,5-11,11.1C18.1,70,23,75,29.1,75c5.9,0,10.8-5,10.8-11.1
			C39.9,57.8,35,52.8,29.1,52.8z M53.9,70c0-14.2,0-14.2,0-14.2c3.8,0.5,6.6,3.5,6.6,7.1C60.5,66.4,57.7,69.4,53.9,70z M51.1,70
			c-3.8-0.7-6.5-3.6-6.5-7.1c0-3.6,2.8-6.6,6.5-7.1V70z M52.5,52.8c-5.9,0-10.6,4.5-10.6,10.1c0,5,4.1,9.3,9.3,9.8c0,1,0,1,0,1
			c0,0.8,0.6,1.5,1.3,1.5c0.8,0,1.5-0.7,1.5-1.5c0-1,0-1,0-1c5.2-0.5,9.3-4.8,9.3-9.8C63.3,57.3,58.5,52.8,52.5,52.8z M78.3,52.8
			c-13.2,0-13.2,0-13.2,0c-0.8,0-1.5,0.7-1.5,1.5c0,0.7,0.6,1.3,1.5,1.3c5.2,0,5.2,0,5.2,0c0,17.7,0,17.7,0,17.7
			c0,0.8,0.7,1.3,1.5,1.3c0.6,0,1.3-0.5,1.3-1.3c0-17.7,0-17.7,0-17.7c5.2,0,5.2,0,5.2,0c0.8,0,1.5-0.7,1.5-1.3
			C79.8,53.5,79.1,52.8,78.3,52.8z"/>
	</g>
</g>
</svg>
