<?xml version="1.0" encoding="utf-8"?>
<!-- Generator: Adobe Illustrator 22.0.0, SVG Export Plug-In . SVG Version: 6.00 Build 0)  -->
<svg version="1.1" id="Слой_1" xmlns="http://www.w3.org/2000/svg" xmlns:xlink="http://www.w3.org/1999/xlink" x="0px" y="0px"
	 viewBox="0 0 175 64.5" enable-background="new 0 0 175 64.5" xml:space="preserve" fill="#333333">
<g>
	<defs>
		<rect id="SVGID_1_" x="3.2" y="3" width="169" height="59"/>
	</defs>
	<clipPath id="SVGID_2_">
		<use xlink:href="#SVGID_1_"  overflow="visible"/>
	</clipPath>
	<g clip-path="url(#SVGID_2_)">
		<defs>
			<rect id="SVGID_3_" x="3.2" y="3" width="169" height="59"/>
		</defs>
		<clipPath id="SVGID_4_">
			<use xlink:href="#SVGID_3_"  overflow="visible"/>
		</clipPath>
		<rect x="11.3" y="3.2" clip-path="url(#SVGID_4_)" fill="#dedede" width="54.4" height="55.6"/>
		<polygon clip-path="url(#SVGID_4_)" fill="#bdbdbd" points="28.7,37.5 37.5,36 47,38.9 38.4,40.1 		"/>
		<polygon clip-path="url(#SVGID_4_)" fill="#adadad" points="37.5,38.7 37.5,60.1 3.2,59.3 29.1,38.7 		"/>
		<polygon clip-path="url(#SVGID_4_)" fill="#adadad" points="37.5,36 20.6,38.7 14.2,19.5 37.5,15.6 		"/>
		<polygon clip-path="url(#SVGID_4_)" fill="#949494" points="37.5,36 37.5,15.6 47,20.9 47,38.9 		"/>
		<polygon clip-path="url(#SVGID_4_)" fill="#333333" points="62.4,45.5 58.1,45.5 58.1,42.1 71,42.1 71,45.5 66.5,45.5 66.5,59.1 
			62.4,59.1 		"/>
		<path clip-path="url(#SVGID_4_)" fill="#333333" d="M89.1,50.3c-4.5-8.3-4.5-8.3-4.5-8.3c4.3,0,4.3,0,4.3,0
			c1.7,3.4,1.7,3.4,1.7,3.4c0.2,0.7,0.7,1.4,1.2,2.7l0,0c0.5-1.2,1-1.9,1.2-2.7c1.4-3.4,1.4-3.4,1.4-3.4c4,0,4,0,4,0
			c-4.5,8.5-4.5,8.5-4.5,8.5c4.8,8.5,4.8,8.5,4.8,8.5c-4,0-4,0-4,0c-1.9-3.4-1.9-3.4-1.9-3.4c-0.5-1-0.7-1.7-1.2-2.9
			c-0.2,0-0.2,0-0.2,0c-0.2,1.2-0.7,1.9-1.2,2.9c-1.7,3.4-1.7,3.4-1.7,3.4c-4,0-4,0-4,0L89.1,50.3z"/>
		<path clip-path="url(#SVGID_4_)" fill="#333333" d="M102.8,52c7.8,0,7.8,0,7.8,0c0,2.9,0,2.9,0,2.9c-7.8,0-7.8,0-7.8,0V52z
			 M104.5,42.1c4.8,0,4.8,0,4.8,0c5.2,17,5.2,17,5.2,17c-4,0-4,0-4,0c-2.1-8.5-2.1-8.5-2.1-8.5c-0.2-1.7-0.9-3.7-1.2-5.6
			c-0.2,0-0.2,0-0.2,0c-0.5,1.9-1,3.9-1.2,5.6c-2.1,8.5-2.1,8.5-2.1,8.5c-4,0-4,0-4,0L104.5,42.1z"/>
		<path clip-path="url(#SVGID_4_)" fill="#333333" d="M122.3,50.1c1.9,0,2.4-1.4,2.4-2.4c0-1.2-0.5-2.7-2.4-2.7c-1.9,0-1.9,0-1.9,0
			c0,5.1,0,5.1,0,5.1H122.3z M116.4,42.1c6.2,0,6.2,0,6.2,0c4.5,0,5.9,2.4,5.9,5.6c0,3.9-3.3,5.6-5.9,5.6c-2.1,0-2.1,0-2.1,0
			c0,5.8,0,5.8,0,5.8c-4,0-4,0-4,0V42.1z"/>
		<polygon clip-path="url(#SVGID_4_)" fill="#333333" points="130.6,42.1 140.9,42.1 140.9,45.5 134.7,45.5 134.7,59.1 130.6,59.1 
					"/>
		<path clip-path="url(#SVGID_4_)" fill="#333333" d="M153.5,50.6c0-3.4-1.4-5.6-3.6-5.6c-2.1,0-4,1.9-4,5.6c0,3.6,1.9,5.6,4,5.6
			C152,56.2,153.5,54.2,153.5,50.6z M141.8,50.6c0-5.1,3.8-8.8,7.8-8.8c4.5,0,8.3,3.4,8.3,8.8c-0.2,5.6-3.8,8.7-8.3,8.7
			C144.9,59.3,141.8,55.9,141.8,50.6z"/>
		<path clip-path="url(#SVGID_4_)" fill="#333333" d="M159.4,50.6c0-5.6,4.3-9,8.3-9c2.1,0,3.8,0.5,4.8,1c-0.7,3.2-0.7,3.2-0.7,3.2
			c-1-0.7-8.6-2.2-8.6,4.9c0,3.6,2.4,5.6,4.8,5.6c1.2,0,2.8-0.5,3.8-0.7c0.5,3.2,0.5,3.2,0.5,3.2c-0.9,0.5-2.4,0.7-4.8,0.7
			C163,59.3,159.4,56.4,159.4,50.6z"/>
		<polygon clip-path="url(#SVGID_4_)" fill="#333333" points="72.6,42.1 83.1,42.1 83.1,45.5 76.9,45.5 76.9,48.6 82.6,48.6 
			82.6,52.3 76.9,52.3 76.9,55.7 83.4,55.7 83.4,59.1 72.6,59.1 		"/>
		<polygon clip-path="url(#SVGID_4_)" fill="#bdbdbd" points="3.2,35.5 11.1,37.5 28.7,37.2 36,35.5 27.7,32.4 19.9,30.7 		"/>
		<polygon clip-path="url(#SVGID_4_)" fill="#949494" points="36,38.2 36,60.3 22.5,62 22.5,34.3 		"/>
		<polygon clip-path="url(#SVGID_4_)" fill="#adadad" points="3.2,38.4 3.2,59.3 22.5,62 22.5,34.3 		"/>
		<polygon clip-path="url(#SVGID_4_)" fill="#949494" points="37.5,60.1 37.5,38.7 47,41.1 47,59.1 		"/>
		<polygon clip-path="url(#SVGID_4_)" fill="#adadad" points="22.5,31.6 22.5,7.1 3.2,14.7 3.2,35.5 		"/>
		<polygon clip-path="url(#SVGID_4_)" fill="#949494" points="22.5,31.6 22.5,7.1 36,14.7 36,35.5 		"/>
	</g>
</g>
</svg>
