<?xml version="1.0" encoding="UTF-8"?>
<!DOCTYPE svg PUBLIC "-//W3C//DTD SVG 1.1//EN" "http://www.w3.org/Graphics/SVG/1.1/DTD/svg11.dtd">
<!-- Creator: CorelDRAW 2018 -->
<svg xmlns="http://www.w3.org/2000/svg" xml:space="preserve" width="57px" height="57px" version="1.1" style="shape-rendering:geometricPrecision; text-rendering:geometricPrecision; image-rendering:optimizeQuality; fill-rule:evenodd; clip-rule:evenodd"
viewBox="0 0 7.565 7.565"
 xmlns:xlink="http://www.w3.org/1999/xlink">
 <defs>
  <style type="text/css">
   <![CDATA[
    .fil0 {fill: #a8a9aa}
   ]]>
  </style>
 </defs>
 <g id="Слой_x0020_1">
  <metadata id="CorelCorpID_0Corel-Layer"/>
  <path class="fil0" d="M7.473 7.027l-2.152 -2.151c0.417,-0.515 0.668,-1.169 0.668,-1.882 0,-1.651 -1.343,-2.994 -2.995,-2.994 -1.651,0 -2.994,1.343 -2.994,2.994 0,1.652 1.343,2.995 2.994,2.995 0.713,0 1.367,-0.251 1.882,-0.668l2.151 2.152c0.061,0.061 0.142,0.092 0.223,0.092 0.08,0 0.161,-0.031 0.223,-0.092 0.123,-0.124 0.123,-0.323 0,-0.446zm-4.479 -1.668c-1.303,0 -2.364,-1.061 -2.364,-2.365 0,-1.303 1.061,-2.364 2.364,-2.364 1.304,0 2.365,1.061 2.365,2.364 0,1.304 -1.061,2.365 -2.365,2.365z"/>
 </g>
</svg>
