<?xml version="1.0" encoding="UTF-8"?>
<!DOCTYPE svg PUBLIC "-//W3C//DTD SVG 1.1//EN" "http://www.w3.org/Graphics/SVG/1.1/DTD/svg11.dtd">
<!-- Creator: CorelDRAW 2018 -->
<svg xmlns="http://www.w3.org/2000/svg" xml:space="preserve" width="62px" height="57px" version="1.1" style="shape-rendering:geometricPrecision; text-rendering:geometricPrecision; image-rendering:optimizeQuality; fill-rule:evenodd; clip-rule:evenodd"
viewBox="0 0 12.89 11.797"
 xmlns:xlink="http://www.w3.org/1999/xlink">
 <defs>
  <style type="text/css">
   <![CDATA[
    .fil0 {fill:black}
   ]]>
  </style>
 </defs>
 <g id="Слой_x0020_1">
  <metadata id="CorelCorpID_0Corel-Layer"/>
  <path class="fil0" d="M10.206 8.583c-0.886,0 -1.607,0.721 -1.607,1.607 0,0.886 0.721,1.607 1.607,1.607 0.886,0 1.607,-0.721 1.607,-1.607 0,-0.886 -0.721,-1.607 -1.607,-1.607zm-5.834 0c-0.887,0 -1.608,0.721 -1.608,1.607 0,0.886 0.721,1.607 1.608,1.607 0.886,0 1.607,-0.721 1.607,-1.607 0,-0.886 -0.721,-1.607 -1.607,-1.607zm0 2.25c-0.355,0 -0.643,-0.289 -0.643,-0.643 0,-0.355 0.288,-0.643 0.643,-0.643 0.354,0 0.643,0.288 0.643,0.643 0,0.354 -0.289,0.643 -0.643,0.643zm8.415 -8.462c-0.091,-0.117 -0.231,-0.185 -0.379,-0.185l-9.432 0 -0.434 -1.816c-0.052,-0.217 -0.246,-0.37 -0.469,-0.37l-1.591 0c-0.266,0 -0.482,0.216 -0.482,0.482 0,0.267 0.216,0.482 0.482,0.482l1.211 0 1.567 6.557c0.052,0.217 0.246,0.37 0.469,0.37l7.506 0c0.221,0 0.414,-0.151 0.468,-0.366l1.173 -4.741c0.035,-0.144 0.003,-0.296 -0.089,-0.413zm-1.93 4.556l-6.748 0 -0.902 -3.777 8.585 0 -0.935 3.777zm-0.651 3.906c-0.355,0 -0.643,-0.289 -0.643,-0.643 0,-0.355 0.288,-0.643 0.643,-0.643 0.354,0 0.643,0.288 0.643,0.643 0,0.354 -0.289,0.643 -0.643,0.643z"/>
 </g>
</svg>
