<svg id="Capa_1" enable-background="new 0 0 512 512" height="512" viewBox="0 0 512 512" width="512" xmlns="http://www.w3.org/2000/svg"><path d="m510.91 241.86-45.331-112.33c-2.289-5.673-7.793-9.387-13.91-9.387h-131.726v-33.314c0-8.284-6.716-15-15-15h-289.943c-8.284 0-15 6.716-15 15v304.753c0 8.284 6.716 15 15 15h44.074c9.212 19.812 29.294 33.588 52.544 33.588 23.249 0 43.331-13.776 52.543-33.588h140.783 42.897c9.212 19.812 29.294 33.588 52.543 33.588s43.33-13.776 52.542-33.588h44.074c8.284 0 15-6.716 15-15v-144.109c0-1.924-.371-3.829-1.09-5.613zm-69.364-91.717 33.225 82.33h-154.828v-82.33zm-411.546-48.314h259.943v274.753h-120.685c-2.857-29.288-27.615-52.255-57.641-52.255s-54.784 22.967-57.641 52.255h-23.976zm81.617 308.341c-15.396 0-27.922-12.525-27.922-27.922 0-15.396 12.526-27.921 27.922-27.921s27.921 12.525 27.921 27.921c.001 15.397-12.525 27.922-27.921 27.922zm288.766 0c-15.396 0-27.922-12.525-27.922-27.922 0-15.396 12.525-27.921 27.922-27.921 15.396 0 27.921 12.525 27.921 27.921 0 15.397-12.525 27.922-27.921 27.922zm57.64-33.588c-2.857-29.288-27.615-52.255-57.64-52.255-30.026 0-54.784 22.967-57.641 52.255h-22.799v-114.109h162.057v114.109z"/></svg>