<?xml version="1.0" encoding="UTF-8"?>
<!DOCTYPE svg PUBLIC "-//W3C//DTD SVG 1.1//EN" "http://www.w3.org/Graphics/SVG/1.1/DTD/svg11.dtd">
<!-- Creator: CorelDRAW 2018 -->
<svg xmlns="http://www.w3.org/2000/svg" xml:space="preserve" width="522px" height="236px" version="1.1" style="shape-rendering:geometricPrecision; text-rendering:geometricPrecision; image-rendering:optimizeQuality; fill-rule:evenodd; clip-rule:evenodd"
viewBox="0 0 522.594 236.343"
 xmlns:xlink="http://www.w3.org/1999/xlink">
 <defs>
  <style type="text/css">
   <![CDATA[
    .fil0 {fill:black;fill-rule:nonzero}
   ]]>
  </style>
 </defs>
 <g id="Слой_x0020_1">
  <metadata id="CorelCorpID_0Corel-Layer"/>
  <path class="fil0" d="M387.265 68.275l14.07 0 -0.793 5.891c5.387,-4.865 11.008,-7.296 16.827,-7.296 4.972,0 9.043,1.567 12.214,4.701 3.189,3.153 4.774,7.098 4.774,11.872 0,2.252 -0.306,5.603 -0.901,10.053l-4.395 32.175 -14.07 0 4.287 -31.401c0.415,-3.224 0.631,-5.638 0.631,-7.242 0,-2.306 -0.667,-4.089 -1.982,-5.332 -1.333,-1.243 -3.207,-1.856 -5.657,-1.856 -2.36,0 -4.738,0.811 -7.098,2.45 -2.377,1.64 -4.197,3.892 -5.458,6.792 -1.279,2.901 -2.45,8.341 -3.513,16.304l-2.703 20.285 -14.069 0 7.836 -57.396zm-319.372 13.064c216.972,-103.448 486.96,-73.865 405.849,46.361 137.082,-143.916 -215.879,-175.632 -405.849,-46.361zm-53.414 47.863c-32.133,104.685 191.262,114.898 408.399,36.159 -191.402,110.623 -492.444,86.904 -408.399,-36.159zm499.419 8.26l2.892 0 5.804 15.081 -2.986 0 -1.176 -3.108 -6.183 0 -1.204 3.108 -2.986 0 5.839 -15.081zm1.449 4.008l-2.044 5.192 4.078 0 -2.034 -5.192zm-20.52 -4.008l10.86 0 0 15.081 -2.899 0 0 -12.393 -5.041 0 0 12.393 -2.92 0 0 -15.081zm-2.648 2.646l-2.013 1.912c-1.369,-1.443 -2.906,-2.164 -4.618,-2.164 -1.442,0 -2.66,0.494 -3.647,1.478 -0.991,0.983 -1.485,2.195 -1.485,3.637 0,1.005 0.221,1.897 0.658,2.675 0.438,0.78 1.058,1.393 1.856,1.838 0.802,0.444 1.691,0.665 2.671,0.665 0.833,0 1.596,-0.154 2.286,-0.466 0.693,-0.312 1.453,-0.879 2.279,-1.698l1.95 2.038c-1.113,1.088 -2.167,1.845 -3.158,2.265 -0.99,0.423 -2.125,0.633 -3.396,0.633 -2.345,0 -4.267,-0.742 -5.762,-2.23 -1.495,-1.484 -2.24,-3.392 -2.24,-5.713 0,-1.506 0.339,-2.839 1.022,-4.009 0.679,-1.169 1.652,-2.107 2.923,-2.818 1.267,-0.71 2.633,-1.067 4.1,-1.067 1.242,0 2.44,0.262 3.595,0.787 1.151,0.525 2.146,1.271 2.979,2.237zm-23.462 -2.646l0 15.081 -2.856 0 0 -9.441 -5.682 9.441 -2.468 0 0 -15.081 2.856 0 0 9.749 5.77 -9.749 2.38 0zm-23.608 0l2.857 0 0 15.081 -2.857 0 0 -15.081zm-11.511 15.081l0 -15.081 2.857 0 0 5.692 0.627 0c1.197,0 2.191,0.14 2.989,0.417 0.795,0.276 1.485,0.801 2.066,1.575 0.581,0.777 0.872,1.712 0.872,2.804 0,1.033 -0.249,1.908 -0.75,2.626 -0.497,0.717 -1.074,1.225 -1.732,1.523 -0.659,0.297 -1.562,0.444 -2.71,0.444l-4.219 0zm2.857 -6.826l0 4.096 0.718 0c1.194,0 1.988,-0.147 2.394,-0.442 0.403,-0.294 0.606,-0.798 0.606,-1.508 0,-1.432 -1.04,-2.146 -3.123,-2.146l-0.595 0zm-17.296 -8.255l2.92 0 0 5.692 5.041 0 0 -5.692 2.899 0 0 15.081 -2.899 0 0 -6.616 -5.041 0 0 6.616 -2.92 0 0 -15.081zm-3.576 0l0 15.081 -2.857 0 0 -9.441 -5.682 9.441 -2.467 0 0 -15.081 2.856 0 0 9.749 5.769 -9.749 2.381 0zm-9.62 -4.054l2.268 0c0.179,0.28 0.424,0.49 0.743,0.63 0.315,0.14 0.703,0.21 1.158,0.21 0.463,0 0.882,-0.081 1.257,-0.245 0.245,-0.109 0.459,-0.308 0.644,-0.595l2.269 0c-0.13,0.868 -0.546,1.565 -1.246,2.09 -0.701,0.525 -1.678,0.787 -2.934,0.787 -0.847,0 -1.555,-0.119 -2.125,-0.353 -0.571,-0.235 -1.029,-0.571 -1.38,-1.008 -0.346,-0.438 -0.567,-0.942 -0.654,-1.516zm-12.419 4.054l8.234 0 0 2.814 -5.378 0 0 2.71 5.378 0 0 2.773 -5.378 0 0 3.97 5.378 0 0 2.814 -8.234 0 0 -15.081zm-2.69 2.646l-2.014 1.912c-1.368,-1.443 -2.905,-2.164 -4.617,-2.164 -1.442,0 -2.661,0.494 -3.648,1.478 -0.991,0.983 -1.484,2.195 -1.484,3.637 0,1.005 0.22,1.897 0.658,2.675 0.437,0.78 1.057,1.393 1.855,1.838 0.802,0.444 1.691,0.665 2.671,0.665 0.834,0 1.597,-0.154 2.286,-0.466 0.694,-0.312 1.453,-0.879 2.279,-1.698l1.95 2.038c-1.113,1.088 -2.167,1.845 -3.157,2.265 -0.991,0.423 -2.125,0.633 -3.396,0.633 -2.346,0 -4.268,-0.742 -5.763,-2.23 -1.494,-1.484 -2.24,-3.392 -2.24,-5.713 0,-1.506 0.339,-2.839 1.022,-4.009 0.68,-1.169 1.653,-2.107 2.923,-2.818 1.268,-0.71 2.633,-1.067 4.1,-1.067 1.243,0 2.44,0.262 3.595,0.787 1.152,0.525 2.146,1.271 2.98,2.237zm-16.533 0l-2.013 1.912c-1.369,-1.443 -2.906,-2.164 -4.618,-2.164 -1.442,0 -2.66,0.494 -3.648,1.478 -0.99,0.983 -1.484,2.195 -1.484,3.637 0,1.005 0.221,1.897 0.658,2.675 0.438,0.78 1.057,1.393 1.856,1.838 0.801,0.444 1.691,0.665 2.671,0.665 0.833,0 1.596,-0.154 2.286,-0.466 0.693,-0.312 1.453,-0.879 2.279,-1.698l1.95 2.038c-1.113,1.088 -2.167,1.845 -3.158,2.265 -0.991,0.423 -2.125,0.633 -3.396,0.633 -2.345,0 -4.267,-0.742 -5.762,-2.23 -1.495,-1.484 -2.241,-3.392 -2.241,-5.713 0,-1.506 0.34,-2.839 1.023,-4.009 0.679,-1.169 1.652,-2.107 2.923,-2.818 1.267,-0.71 2.632,-1.067 4.099,-1.067 1.243,0 2.441,0.262 3.596,0.787 1.151,0.525 2.146,1.271 2.979,2.237zm-24.942 -2.646l2.892 0 5.804 15.081 -2.986 0 -1.176 -3.108 -6.183 0 -1.204 3.108 -2.986 0 5.839 -15.081zm1.45 4.008l-2.045 5.192 4.078 0 -2.033 -5.192zm-18.182 11.073l0 -15.081 7.898 0 0 2.772 -5.041 0 0 2.92 0.63 0c1.278,0 2.321,0.14 3.13,0.42 0.812,0.28 1.487,0.809 2.027,1.582 0.539,0.778 0.808,1.695 0.808,2.756 0,1.05 -0.203,1.89 -0.605,2.513 -0.406,0.627 -0.963,1.134 -1.67,1.53 -0.711,0.392 -1.691,0.588 -2.945,0.588l-4.232 0zm2.857 -6.826l0 4.096 0.724 0c1.32,0 2.157,-0.172 2.51,-0.515 0.351,-0.339 0.526,-0.802 0.526,-1.383 0,-1.467 -1.054,-2.198 -3.162,-2.198l-0.598 0zm-231.879 -5.112l-10.868 7.037c-3.156,-3.575 -6.183,-6.07 -9.113,-7.471 -2.915,-1.4 -6.231,-2.093 -9.951,-2.093 -8.018,0 -14.538,3.22 -19.578,9.661 -3.993,5.119 -5.99,10.803 -5.99,17.066 0,6.151 2.045,11.319 6.151,15.505 4.106,4.17 9.161,6.264 15.167,6.264 4.476,0 8.533,-1.095 12.205,-3.269 3.654,-2.173 6.649,-5.426 8.983,-9.773l-21.703 0 1.61 -12.269 35.164 0c-0.499,11.48 -4.106,20.609 -10.788,27.356 -6.681,6.746 -15.215,10.127 -25.568,10.127 -11.254,0 -20.126,-3.897 -26.566,-11.689 -5.201,-6.263 -7.793,-13.702 -7.793,-22.348 0,-10.53 3.8,-19.627 11.399,-27.307 7.6,-7.664 16.665,-11.496 27.162,-11.496 3.913,0 7.713,0.563 11.432,1.707 3.72,1.127 7.068,2.72 10.047,4.765 2.995,2.045 5.861,4.782 8.598,8.227zm16.21 -8.076l11.088 0 -0.891 6.872c3.325,-5.408 7.319,-8.113 11.98,-8.113 1.113,0 2.275,0.302 3.5,0.891l-4.518 11.359c-0.955,-0.334 -1.655,-0.509 -2.1,-0.509 -2.435,0 -4.614,1.4 -6.539,4.2 -1.925,2.8 -3.436,8.463 -4.534,16.99l-2.482 18.995 -12.424 0 6.92 -50.685zm57.62 -1.241c4.502,0 8.591,1.035 12.265,3.118 3.691,2.069 6.555,5.011 8.607,8.83 2.052,3.802 3.071,8.081 3.071,12.822 0,7.875 -2.816,14.573 -8.432,20.109 -5.632,5.52 -12.584,8.288 -20.872,8.288 -7.207,0 -12.95,-2.179 -17.245,-6.522 -4.28,-4.36 -6.428,-10.055 -6.428,-17.086 0,-8.496 2.912,-15.543 8.719,-21.143 5.806,-5.616 12.567,-8.416 20.315,-8.416zm-0.907 11.836c-5.107,0 -9.02,1.814 -11.741,5.457 -2.72,3.643 -4.072,7.588 -4.072,11.82 0,3.786 1.114,6.825 3.34,9.132 2.212,2.307 5.171,3.468 8.878,3.468 5.249,0 9.259,-1.766 12.011,-5.282 2.752,-3.516 4.12,-7.525 4.12,-12.043 0,-3.722 -1.161,-6.745 -3.5,-9.068 -2.323,-2.323 -5.345,-3.484 -9.036,-3.484zm39.815 -10.595l12.425 0 -3.532 25.883c-0.381,2.848 -0.556,4.996 -0.556,6.412 0,2.227 0.78,4.104 2.322,5.616 1.559,1.511 3.596,2.275 6.078,2.275 3.213,0 5.679,-0.971 7.413,-2.928 1.718,-1.941 2.991,-5.902 3.802,-11.884l3.468 -25.374 12.425 0 -3.722 27.251c-0.844,6.142 -2.259,10.882 -4.248,14.239 -1.989,3.373 -4.614,5.95 -7.907,7.747 -3.277,1.798 -7.143,2.689 -11.581,2.689 -6.268,0 -11.232,-1.797 -14.923,-5.377 -3.691,-3.58 -5.536,-8.209 -5.536,-13.888 0,-3.468 0.397,-7.939 1.225,-13.396l2.847 -19.265zm60.879 69.203l-12.425 0 9.45 -69.203 12.329 0 -0.747 5.6c2.656,-2.577 5.154,-4.359 7.477,-5.362 2.307,-0.986 4.916,-1.479 7.795,-1.479 6.666,0 11.948,2.466 15.845,7.382 3.898,4.931 5.839,10.643 5.839,17.15 0,4.995 -1.257,9.752 -3.754,14.269 -2.514,4.535 -5.871,8.05 -10.103,10.58 -4.216,2.529 -8.622,3.786 -13.204,3.786 -3.086,0 -5.95,-0.716 -8.591,-2.131 -2.625,-1.432 -4.772,-3.5 -6.442,-6.221l-3.469 25.629zm20.904 -59.372c-2.99,0 -5.6,0.685 -7.858,2.069 -2.26,1.368 -4.153,3.516 -5.664,6.427 -1.527,2.911 -2.291,5.886 -2.291,8.924 0,3.978 1.145,7.176 3.436,9.593 2.291,2.419 5.314,3.628 9.053,3.628 4.358,0 8.065,-1.623 11.104,-4.868 3.038,-3.246 4.566,-7.43 4.566,-12.568 0,-3.946 -1.146,-7.143 -3.453,-9.561 -2.307,-2.435 -5.266,-3.644 -8.893,-3.644zm-56.281 -66.015l-6.666 10.738c-1.729,-2.559 -3.53,-4.45 -5.422,-5.657 -1.892,-1.207 -3.657,-1.802 -5.297,-1.802 -1.261,0 -2.342,0.342 -3.206,1.045 -0.883,0.703 -1.315,1.495 -1.315,2.378 0,0.847 0.342,1.675 1.044,2.522 0.667,0.847 2.685,2.468 6.035,4.9 5.369,3.856 8.882,7.152 10.593,9.908 1.694,2.757 2.541,5.748 2.541,8.972 0,4.234 -1.748,8.251 -5.243,12.052 -3.513,3.784 -8.575,5.675 -15.222,5.675 -3.838,0 -7.333,-0.774 -10.485,-2.324 -3.153,-1.549 -6.648,-4.378 -10.521,-8.503l8.701 -10.124c3.945,5.17 8.251,7.764 12.917,7.764 1.874,0 3.351,-0.45 4.468,-1.333 1.099,-0.901 1.657,-1.964 1.657,-3.189 0,-0.973 -0.414,-1.981 -1.261,-3.008 -0.847,-1.045 -3.153,-2.883 -6.9,-5.549 -4.359,-3.08 -7.35,-5.729 -9.007,-7.927 -2.324,-3.098 -3.477,-6.341 -3.477,-9.782 0,-4.792 1.819,-8.701 5.458,-11.71 3.639,-3.009 7.927,-4.521 12.899,-4.521 3.477,0 6.774,0.828 9.909,2.467 3.134,1.658 5.728,3.982 7.8,7.008zm-210.79 -28.284l12.124 0c7.386,0 12.863,0.793 16.448,2.378 3.585,1.586 6.467,4.036 8.665,7.387 2.198,3.333 3.297,6.936 3.297,10.809 0,3.224 -0.775,6.287 -2.324,9.151 -1.567,2.865 -3.801,5.261 -6.738,7.207 6.9,4.81 10.359,11.223 10.359,19.204 0,4.143 -1.099,7.945 -3.315,11.385 -2.197,3.459 -4.918,6 -8.16,7.639 -3.243,1.639 -7.945,2.45 -14.071,2.45l-26.878 0 10.593 -77.61zm5.981 63.883l8.791 0.324c4.432,0 7.639,-0.865 9.656,-2.594 2.018,-1.73 3.027,-4.09 3.027,-7.099 0,-2.179 -0.63,-4.143 -1.873,-5.872 -1.244,-1.73 -2.901,-2.937 -4.973,-3.639 -2.071,-0.721 -6.035,-1.081 -11.908,-1.117l-2.72 19.997zm4.504 -33.076l2.63 0c3.927,0 6.594,-0.289 7.999,-0.865 1.405,-0.577 2.594,-1.658 3.567,-3.243 0.991,-1.567 1.477,-3.315 1.477,-5.242 0,-1.802 -0.432,-3.333 -1.297,-4.63 -0.883,-1.298 -2.018,-2.18 -3.423,-2.63 -1.405,-0.451 -4.27,-0.685 -8.593,-0.685l-2.36 17.295zm90.568 -10.593l14.178 0 -7.944 57.396 -14.07 0 0.846 -6.233c-3.062,2.846 -5.908,4.828 -8.575,5.945 -2.648,1.135 -5.621,1.693 -8.935,1.693 -7.603,0 -13.638,-2.792 -18.123,-8.359 -4.487,-5.585 -6.72,-12.07 -6.72,-19.474 0,-5.657 1.441,-11.026 4.305,-16.142 2.865,-5.098 6.72,-9.08 11.548,-11.944 4.846,-2.864 9.89,-4.287 15.169,-4.287 3.549,0 6.81,0.81 9.818,2.414 2.991,1.621 5.459,3.963 7.404,7.061l1.099 -8.07zm-21.186 46.263c3.477,0 6.504,-0.775 9.08,-2.306 2.577,-1.55 4.756,-3.964 6.504,-7.26 1.747,-3.297 2.63,-6.666 2.63,-10.089 0,-4.522 -1.315,-8.161 -3.963,-10.917 -2.631,-2.756 -6.108,-4.126 -10.431,-4.126 -5.009,0 -9.278,1.838 -12.773,5.513 -3.513,3.693 -5.261,8.431 -5.261,14.25 0,4.486 1.334,8.107 3.982,10.827 2.648,2.738 6.071,4.108 10.232,4.108zm82.489 -38.193l-6.666 10.738c-1.729,-2.559 -3.531,-4.45 -5.423,-5.657 -1.891,-1.207 -3.657,-1.802 -5.296,-1.802 -1.261,0 -2.342,0.342 -3.207,1.045 -0.883,0.703 -1.315,1.495 -1.315,2.378 0,0.847 0.342,1.675 1.045,2.522 0.667,0.847 2.684,2.468 6.035,4.9 5.369,3.856 8.882,7.152 10.593,9.908 1.694,2.757 2.54,5.748 2.54,8.972 0,4.234 -1.747,8.251 -5.242,12.052 -3.513,3.784 -8.576,5.675 -15.223,5.675 -3.837,0 -7.332,-0.774 -10.485,-2.324 -3.153,-1.549 -6.648,-4.378 -10.521,-8.503l8.702 -10.124c3.945,5.17 8.25,7.764 12.916,7.764 1.874,0 3.351,-0.45 4.468,-1.333 1.099,-0.901 1.658,-1.964 1.658,-3.189 0,-0.973 -0.415,-1.981 -1.262,-3.008 -0.846,-1.045 -3.152,-2.883 -6.899,-5.549 -4.36,-3.08 -7.35,-5.729 -9.008,-7.927 -2.324,-3.098 -3.477,-6.341 -3.477,-9.782 0,-4.792 1.82,-8.701 5.459,-11.71 3.639,-3.009 7.926,-4.521 12.899,-4.521 3.477,0 6.773,0.828 9.908,2.467 3.135,1.658 5.729,3.982 7.801,7.008zm67.782 -29.472l14.07 0 -2.918 21.402 8.917 0 -1.693 12.214 -8.9 0 -6.161 45.182 -14.07 0 6.162 -45.182 -6.918 0 1.639 -12.214 6.954 0 2.918 -21.402zm37.013 -2.054c2.396,0 4.431,0.847 6.143,2.558 1.711,1.711 2.558,3.747 2.558,6.143 0,2.396 -0.847,4.432 -2.558,6.143 -1.712,1.712 -3.747,2.559 -6.143,2.559 -2.397,0 -4.432,-0.847 -6.144,-2.559 -1.711,-1.711 -2.558,-3.747 -2.558,-6.143 0,-2.396 0.847,-4.432 2.558,-6.143 1.712,-1.711 3.747,-2.558 6.144,-2.558zm-9.621 23.456l14.07 0 -7.836 57.396 -14.07 0 7.836 -57.396zm55.07 -1.405c5.098,0 9.728,1.171 13.889,3.53 4.18,2.342 7.423,5.675 9.746,9.999 2.325,4.305 3.477,9.151 3.477,14.52 0,8.918 -3.188,16.502 -9.548,22.771 -6.377,6.252 -14.25,9.386 -23.636,9.386 -8.161,0 -14.664,-2.468 -19.528,-7.386 -4.846,-4.936 -7.278,-11.386 -7.278,-19.348 0,-9.621 3.297,-17.601 9.872,-23.943 6.576,-6.359 14.232,-9.529 23.006,-9.529zm-1.027 13.403c-5.783,0 -10.215,2.054 -13.296,6.179 -3.08,4.125 -4.612,8.593 -4.612,13.385 0,4.288 1.262,7.729 3.784,10.341 2.504,2.612 5.855,3.927 10.052,3.927 5.945,0 10.485,-1.999 13.602,-5.981 3.117,-3.981 4.666,-8.521 4.666,-13.637 0,-4.216 -1.315,-7.639 -3.964,-10.269 -2.63,-2.63 -6.053,-3.945 -10.232,-3.945z"/>
 </g>
</svg>
