<svg width="21" height="16" viewBox="0 0 21 16" fill="none" xmlns="http://www.w3.org/2000/svg">
<path d="M7.49658 16L0.168934 7.92266C0.0538372 7.77437 -0.00630569 7.58361 0.000523952 7.38852C0.00735359 7.19343 0.0806528 7.00836 0.205774 6.87031C0.330895 6.73225 0.498623 6.65138 0.675439 6.64384C0.852255 6.63631 1.02514 6.70267 1.15954 6.82966L7.48253 13.8063L19.8405 0.186397C19.9749 0.0594023 20.1477 -0.0069575 20.3246 0.000578113C20.5014 0.00811372 20.6691 0.0889898 20.7942 0.227045C20.9193 0.365099 20.9926 0.550164 20.9995 0.745257C21.0063 0.940351 20.9462 1.1311 20.8311 1.2794L7.49658 16Z" fill="black"/>
</svg>
