<svg width="28" height="28" viewBox="0 0 28 28" fill="none" xmlns="http://www.w3.org/2000/svg">
<path d="M28 0H14.5793V13.4207H28V0ZM18.9241 2.28505C19.4713 2.28505 19.8897 2.70345 19.8897 3.25057C19.8897 3.7977 19.4391 4.21609 18.9241 4.21609C18.377 4.21609 17.9586 3.7977 17.9586 3.25057C17.9586 2.70345 18.377 2.28505 18.9241 2.28505ZM24.6529 11.0713H22.6897V8.30344L24.6529 6.50114V11.0713ZM24.6529 4.92413L22.6253 6.85516L20.3724 8.88275L17.9586 11.0391V5.27815H19.9218V6.75861L24.6529 2.25287V4.92413Z" fill="white"/>
<path d="M13.4207 0H0V13.4207H13.4207V0ZM4.15172 11.0391H2.25287L5.05287 5.43907L6.01839 7.37011L4.15172 11.0391ZM9.10805 11.0391L5.66437 4.15172L6.62989 2.25287L11.0069 11.0391H9.10805Z" fill="white"/>
<path d="M28 14.5793H14.5793V28H28V14.5793ZM16.9287 25.7149L19.7287 20.115L20.6943 22.046L18.8598 25.7149H16.9287ZM21.3057 25.2644C20.7586 25.2644 20.3402 24.846 20.3402 24.2989C20.3402 23.7517 20.7586 23.3333 21.3057 23.3333C21.8529 23.3333 22.2713 23.7517 22.2713 24.2989C22.2713 24.8138 21.8529 25.2644 21.3057 25.2644ZM23.8161 25.7149L20.3724 18.8276L21.3057 16.9288L25.6828 25.7149H23.8161Z" fill="white"/>
<path d="M13.4207 14.5793H0V28H13.4207V14.5793ZM5.34253 25.7149H3.37931V19.954H5.34253V25.7149ZM4.34483 18.9242C3.7977 18.9242 3.34713 18.4736 3.34713 17.9265C3.34713 17.3793 3.7977 16.9288 4.34483 16.9288C4.89195 16.9288 5.34253 17.3793 5.34253 17.9265C5.34253 18.4736 4.89195 18.9242 4.34483 18.9242ZM9.88046 18.9242H6.37241V16.9609H9.88046V18.9242Z" fill="white"/>
</svg>
