<svg width="20" height="19" viewBox="0 0 20 19" fill="none" xmlns="http://www.w3.org/2000/svg">
<path d="M15.3118 1.34118C15.0323 0.558823 14.3059 0 13.4676 0H6.09117C5.25293 0 4.52646 0.558823 4.24705 1.34118L2.96176 5.30882H4.74999L5.92352 1.84412C5.86764 1.73235 5.9794 1.67647 6.09117 1.67647H13.4118C13.5235 1.67647 13.6353 1.73235 13.6912 1.84412L14.8647 5.30882H16.6529L15.3118 1.34118Z" fill="#61C100"/>
<path d="M19 6.70588H0.558823C0.223529 6.70588 0 6.92941 0 7.2647V10.0588C0 10.3941 0.223529 10.6176 0.558823 10.6176H1.50882L2.62647 18.05C2.68235 18.6088 3.18529 19 3.74412 19H15.8147C16.3735 19 16.8206 18.6088 16.9323 18.05L18.05 10.6176H19C19.3353 10.6176 19.5588 10.3941 19.5588 10.0588V7.2647C19.5588 6.92941 19.3353 6.70588 19 6.70588ZM6.70588 15.9265C6.70588 16.3735 6.3147 16.7647 5.86765 16.7647C5.42059 16.7647 5.02941 16.3735 5.02941 15.9265V12.2941C5.02941 11.8471 5.42059 11.4559 5.86765 11.4559C6.3147 11.4559 6.70588 11.8471 6.70588 12.2941V15.9265ZM10.6176 15.9265C10.6176 16.3735 10.2265 16.7647 9.77941 16.7647C9.33235 16.7647 8.94117 16.3735 8.94117 15.9265V12.2941C8.94117 11.8471 9.33235 11.4559 9.77941 11.4559C10.2265 11.4559 10.6176 11.8471 10.6176 12.2941V15.9265ZM14.5294 15.9265C14.5294 16.3735 14.1382 16.7647 13.6912 16.7647C13.2441 16.7647 12.8529 16.3735 12.8529 15.9265V12.2941C12.8529 11.8471 13.2441 11.4559 13.6912 11.4559C14.1382 11.4559 14.5294 11.8471 14.5294 12.2941V15.9265Z" fill="#61C100"/>
</svg>
