<svg width="20" height="13" viewBox="0 0 20 13" fill="none" xmlns="http://www.w3.org/2000/svg">
<path d="M0.769231 1.53846H19.2308C19.645 1.53846 20 1.18343 20 0.769231C20 0.35503 19.645 0 19.2308 0H0.769231C0.35503 0.0591716 0 0.414201 0 0.828402C0 1.2426 0.35503 1.53846 0.769231 1.53846Z" fill="black"/>
<path d="M0.769231 7.21894H19.2308C19.645 7.21894 20 6.86391 20 6.44971C20 6.03551 19.645 5.68048 19.2308 5.68048H0.769231C0.35503 5.68048 0 6.03551 0 6.44971C0 6.86391 0.35503 7.21894 0.769231 7.21894Z" fill="black"/>
<path d="M0.769231 12.8402H19.2308C19.645 12.8402 20 12.4852 20 12.071C20 11.6568 19.645 11.3018 19.2308 11.3018H0.769231C0.35503 11.3018 0 11.6568 0 12.071C0 12.5444 0.35503 12.8402 0.769231 12.8402Z" fill="black"/>
</svg>
