<svg width="32" height="27" viewBox="0 0 32 27" fill="none" xmlns="http://www.w3.org/2000/svg">
<path d="M14.9725 21.1774C14.9725 21.5061 14.7278 21.7409 14.3853 21.7409H3.57186C3.22936 21.7409 2.98471 21.5061 2.98471 21.1774V5.25913C2.98471 4.93043 3.22936 4.69565 3.57186 4.69565H14.3853C14.7278 4.69565 14.9725 4.93043 14.9725 5.25913V5.86956L17.8104 3.14609C17.4679 2.16 16.4893 1.45565 15.3639 1.45565H2.6422C1.17431 1.50261 0 2.62956 0 3.9913V24.4643C0 25.873 1.17431 27 2.6422 27H15.3639C16.8318 27 18.0061 25.873 18.0061 24.4643V19.1583L15.0214 16.2939L14.9725 21.1774ZM6.55657 25.6383H3.86544C3.27829 25.6383 2.78899 25.1687 2.78899 24.6052C2.78899 24.0417 3.27829 23.5722 3.86544 23.5722H6.55657C7.14373 23.5722 7.63303 24.0417 7.63303 24.6052C7.63303 25.1687 7.14373 25.6383 6.55657 25.6383ZM14.0917 25.6383H11.4006C10.8135 25.6383 10.3242 25.1687 10.3242 24.6052C10.3242 24.0417 10.8135 23.5722 11.4006 23.5722H14.0917C14.6789 23.5722 15.1682 24.0417 15.1682 24.6052C15.1682 25.1687 14.6789 25.6383 14.0917 25.6383Z" fill="#61C100"/>
<path d="M12.9664 11.0817C12.9664 11.3165 13.0642 11.5043 13.211 11.6452L14.581 12.96L26.4709 1.54957L25.1009 0.234783C24.9541 0.093913 24.7095 0 24.5138 0C24.318 0 24.0734 0.093913 23.9266 0.234783L13.211 10.5183C13.0642 10.6591 12.9664 10.847 12.9664 11.0817Z" fill="#61C100"/>
<path d="M31.7553 6.62089L28.4281 3.42785L16.5382 14.8383L19.8654 18.0313C20.0122 18.1722 20.2569 18.2661 20.4526 18.2661C20.6483 18.2661 20.893 18.1722 21.0398 18.0313L31.7553 7.74785C31.9021 7.60698 32 7.3722 32 7.18437C32 6.99654 31.9021 6.76176 31.7553 6.62089Z" fill="#61C100"/>
</svg>
