<svg width="38" height="35" viewBox="0 0 38 35" fill="none" xmlns="http://www.w3.org/2000/svg">
<path d="M24.0625 15.4492L21.4648 12.8516L23.3105 11.7578C23.4473 11.6894 23.5156 11.4844 23.5156 11.3477C23.5156 11.2109 23.3789 11.0059 23.2422 11.0059L14.9707 7.7246C14.834 7.65625 14.6289 7.7246 14.4922 7.79296C14.3555 7.86132 14.2871 8.0664 14.3555 8.20312L17.6367 16.4746C17.7051 16.6113 17.8418 16.748 17.9785 16.748C18.1152 16.748 18.3203 16.6797 18.3887 16.543L19.4824 14.6973L22.0801 17.2949C22.1484 17.3633 22.2851 17.4316 22.4219 17.4316C22.5586 17.4316 22.6269 17.3633 22.7637 17.2949L24.0625 15.9961C24.1992 15.8594 24.1992 15.5859 24.0625 15.4492ZM22.4219 16.4062L19.7558 13.6719C19.6875 13.6035 19.5508 13.5352 19.4141 13.5352H19.3457C19.209 13.5352 19.0723 13.6035 19.0039 13.7402L18.1152 15.3125L15.5859 8.88671L22.0801 11.4844L20.5078 12.373C20.3711 12.4414 20.3027 12.5781 20.3027 12.7148C20.3027 12.8516 20.3027 12.9883 20.4394 13.0566L23.1055 15.7227L22.4219 16.4062Z" fill="#61C100"/>
<path d="M12.9883 5.67383C12.7832 5.53711 12.5098 5.53711 12.373 5.67383C12.168 5.87891 12.168 6.15234 12.373 6.28906L13.3301 7.24609C13.3984 7.31445 13.5351 7.38281 13.6719 7.38281C13.8086 7.38281 13.8769 7.31445 14.0137 7.24609C14.2187 7.10937 14.2187 6.76758 14.0137 6.63086L12.9883 5.67383Z" fill="#61C100"/>
<path d="M13.3301 8.68164C13.3301 8.4082 13.125 8.27148 12.9199 8.27148H11.5527C11.2793 8.27148 11.1426 8.47656 11.1426 8.68164C11.1426 8.95508 11.3476 9.0918 11.5527 9.0918H12.9199C13.125 9.16016 13.3301 8.95508 13.3301 8.68164Z" fill="#61C100"/>
<path d="M13.125 10.0488L12.168 11.0059C12.0312 11.1426 12.0312 11.4844 12.168 11.6211C12.2363 11.6895 12.373 11.7578 12.5098 11.7578C12.6465 11.7578 12.7148 11.6895 12.8516 11.6211L13.8086 10.6641C13.9453 10.5273 13.9453 10.1855 13.8086 10.0488C13.6035 9.84375 13.3301 9.84375 13.125 10.0488Z" fill="#61C100"/>
<path d="M15.3809 6.63086C15.6543 6.63086 15.791 6.42578 15.791 6.2207V4.78516C15.791 4.51172 15.5859 4.375 15.3809 4.375C15.1074 4.375 14.9707 4.58008 14.9707 4.78516V6.15234C14.9707 6.42578 15.1758 6.63086 15.3809 6.63086Z" fill="#61C100"/>
<path d="M17.0898 7.17774C17.2266 7.17774 17.2949 7.10938 17.4316 7.04102L18.3887 6.08398C18.5254 5.94727 18.5254 5.60547 18.3887 5.46875C18.2519 5.33203 17.9101 5.33203 17.7734 5.46875L16.8164 6.42578C16.6797 6.5625 16.6797 6.9043 16.8164 7.04102C16.8164 7.10938 16.9531 7.17774 17.0898 7.17774Z" fill="#61C100"/>
<path d="M10.7324 18.0469C10.7324 17.6367 10.3906 17.2949 9.98047 17.2949C9.57031 17.2949 9.22852 17.6367 9.22852 18.0469C9.22852 18.457 9.57031 18.7988 9.98047 18.7988C10.3906 18.7988 10.7324 18.457 10.7324 18.0469Z" fill="#61C100"/>
<path d="M18.6621 23.3105C18.252 23.3105 17.9102 23.6523 17.9102 24.0625C17.9102 24.4727 18.252 24.8145 18.6621 24.8145C19.0723 24.8145 19.4141 24.4727 19.4141 24.0625C19.4141 23.6523 19.0039 23.3105 18.6621 23.3105Z" fill="#61C100"/>
<path d="M2.1875 27.6172H14.9707V30.5566H12.7832C11.8262 30.5566 10.8691 30.9668 10.1855 31.6504C9.50195 32.334 9.0918 33.2227 9.0918 34.248C9.0918 34.6582 9.43359 35 9.84375 35H27.3437C27.7539 35 28.0957 34.6582 28.0957 34.248C28.0957 32.2656 26.4551 30.625 24.4727 30.625H22.2852V27.6855H35.0684C35.6836 27.6855 36.2305 27.4805 36.6406 27.0703C37.0508 26.6602 37.2559 26.1133 37.2559 25.498V2.1875C37.2559 1.57227 37.0508 1.02539 36.6406 0.615234C36.2305 0.205078 35.6836 0 35.0684 0H2.1875C1.57227 0 1.02539 0.205078 0.615234 0.615234C0.205078 1.02539 0 1.57227 0 2.1875V25.498C0 26.1133 0.205078 26.6602 0.615234 27.0703C1.02539 27.4805 1.57227 27.6172 2.1875 27.6172ZM26.5234 33.4961H10.7324C10.8691 33.2227 11.0059 32.8809 11.2793 32.6758C11.6895 32.2656 12.2363 32.0605 12.8516 32.0605H24.4727C25.4297 31.9922 26.1816 32.6074 26.5234 33.4961ZM20.7812 30.5566H16.4062V27.6172H20.7812V30.5566ZM35.6152 25.9766C35.4785 26.1133 35.2734 26.1816 35.0684 26.1816H2.1875C1.98242 26.1816 1.77734 26.1133 1.64062 25.9766C1.50391 25.8398 1.43555 25.6348 1.43555 25.4297V21.8066H35.7519V25.4297C35.8203 25.6348 35.7519 25.8398 35.6152 25.9766ZM1.64062 1.64063C1.77734 1.50391 1.98242 1.43555 2.1875 1.43555H35.0684C35.2734 1.43555 35.4785 1.50391 35.6152 1.64063C35.7519 1.77734 35.8203 1.98242 35.8203 2.1875V20.3711H1.43555V2.1875C1.43555 1.98242 1.50391 1.77734 1.64062 1.64063Z" fill="#61C100"/>
<path d="M7.86133 18.0469C7.86133 17.6367 7.51953 17.2949 7.10937 17.2949H1.29883C0.888672 17.2949 0.546875 17.6367 0.546875 18.0469C0.546875 18.457 0.888672 18.7988 1.29883 18.7988H7.10937C7.51953 18.7988 7.86133 18.457 7.86133 18.0469Z" fill="#61C100"/>
</svg>
