<svg width="13" height="13" viewBox="0 0 13 13" fill="none" xmlns="http://www.w3.org/2000/svg">
<path fill-rule="evenodd" clip-rule="evenodd" d="M8.03986 6.5L12.6891 1.8508C13.1036 1.43622 13.1036 0.725513 12.6891 0.310934C12.2745 -0.103645 11.5638 -0.103645 11.1492 0.310934L6.5 4.96014L1.8508 0.310934C1.43622 -0.103645 0.725513 -0.103645 0.310934 0.310934C-0.103645 0.725513 -0.103645 1.43622 0.310934 1.8508L4.96014 6.5L0.310934 11.1492C-0.103645 11.5638 -0.103645 12.2745 0.310934 12.6891C0.725513 13.1036 1.43622 13.1036 1.8508 12.6891L6.5 8.03986L11.1492 12.6891C11.5638 13.1036 12.2745 13.1036 12.6891 12.6891C13.1036 12.2745 13.1036 11.5638 12.6891 11.1492L8.03986 6.5Z" fill="white"/>
</svg>
