<svg width="33" height="25" viewBox="0 0 33 25" fill="none" xmlns="http://www.w3.org/2000/svg">
<path d="M25.4548 17.7474C24.7915 17.7474 24.2111 18.3447 24.2111 19.0273C24.2111 19.7099 24.7915 20.3072 25.4548 20.3072C26.1181 20.3072 26.6985 19.7099 26.6985 19.0273C26.6985 18.3447 26.1181 17.7474 25.4548 17.7474ZM8.04271 17.7474C7.3794 17.7474 6.799 18.3447 6.799 19.0273C6.799 19.7099 7.3794 20.3072 8.04271 20.3072C8.70603 20.3072 9.28643 19.7099 9.28643 19.0273C9.28643 18.3447 8.70603 17.7474 8.04271 17.7474ZM32.7513 10.2389L29.8492 2.21843C29.6005 1.53584 29.0201 1.10922 28.2739 1.10922H21.2261C20.3141 1.10922 19.5678 1.87713 19.5678 2.8157V14.5051H17.4121V0.853242C17.4121 0.341297 17.0804 0 16.5829 0H0.829146C0.331658 0 0 0.341297 0 0.853242V18.7713C0 19.2833 0.331658 19.6246 0.829146 19.6246H2.23869C2.48744 22.6962 4.97487 25 8.04271 25C11.0276 25 13.5151 22.6109 13.8467 19.6246H19.7337C19.9824 22.6962 22.4698 25 25.5377 25C28.7714 25 31.3417 22.3549 31.3417 19.0273C32.2538 19.0273 33 18.2594 33 17.3208V10.8362C32.9171 10.6655 32.8342 10.4096 32.7513 10.2389ZM8.04271 22.4403C6.21859 22.4403 4.72613 20.9044 4.72613 19.0273C4.72613 17.1502 6.21859 15.6143 8.04271 15.6143C9.86683 15.6143 11.3593 17.1502 11.3593 19.0273C11.3593 20.9044 9.86683 22.4403 8.04271 22.4403ZM25.4548 22.4403C23.6307 22.4403 22.1382 20.9044 22.1382 19.0273C22.1382 17.1502 23.6307 15.6143 25.4548 15.6143C27.2789 15.6143 28.7714 17.1502 28.7714 19.0273C28.7714 20.9044 27.2789 22.4403 25.4548 22.4403ZM28.9372 9.64164L22.4699 8.87372C22.2211 8.87372 22.1382 8.70307 22.1382 8.4471V4.94881C22.1382 4.69283 22.304 4.52218 22.5528 4.52218H27.6106C27.7764 4.52218 27.9422 4.60751 28.0251 4.77816L29.3518 8.95904C29.4347 9.30034 29.2688 9.64164 28.9372 9.64164Z" fill="#61C100"/>
</svg>
