<svg width="33" height="29" viewBox="0 0 33 29" fill="none" xmlns="http://www.w3.org/2000/svg">
<path d="M14.0345 1.3995H1.13793C0.531034 1.3995 0 1.86599 0 2.56572C0 3.1877 0.531034 3.73194 1.13793 3.73194H1.51724V28.6113C1.51724 28.8445 1.66897 29 1.89655 29H13.2759C13.5034 29 13.6552 28.8445 13.6552 28.6113V3.73194H14.0345C14.6414 3.73194 15.1724 3.1877 15.1724 2.56572C15.1724 1.86599 14.6414 1.3995 14.0345 1.3995ZM6.52414 24.3351C6.52414 24.5684 6.37241 24.7239 6.14483 24.7239H4.24828C4.02069 24.7239 3.86897 24.5684 3.86897 24.3351V5.83113C3.86897 5.59789 4.02069 5.44239 4.24828 5.44239H6.22069C6.44828 5.44239 6.6 5.59789 6.6 5.83113V24.3351H6.52414ZM11.3034 24.3351C11.3034 24.5684 11.1517 24.7239 10.9241 24.7239H8.95172C8.72414 24.7239 8.57241 24.5684 8.57241 24.3351V5.83113C8.57241 5.59789 8.72414 5.44239 8.95172 5.44239H10.9241C11.1517 5.44239 11.3034 5.59789 11.3034 5.83113V24.3351Z" fill="#61C100"/>
<path d="M31.8621 12.6729H15.931C15.7034 12.6729 15.5517 12.8284 15.5517 13.0616V28.6112C15.5517 28.8445 15.7034 29 15.931 29H31.8621C32.0897 29 32.2414 28.8445 32.2414 28.6112V13.0616C32.2414 12.8284 32.0897 12.6729 31.8621 12.6729ZM22.6828 24.7238C22.6828 24.9571 22.531 25.1126 22.3034 25.1126H18.5103C18.2828 25.1126 18.131 24.9571 18.131 24.7238V22.3914C18.131 22.1581 18.2828 22.0027 18.5103 22.0027H22.3034C22.531 22.0027 22.6828 22.1581 22.6828 22.3914V24.7238ZM22.6828 18.504C22.6828 18.7372 22.531 18.8927 22.3034 18.8927H18.5103C18.2828 18.8927 18.131 18.7372 18.131 18.504V16.1716C18.131 15.9383 18.2828 15.7828 18.5103 15.7828H22.3034C22.531 15.7828 22.6828 15.9383 22.6828 16.1716V18.504ZM29.6621 24.7238C29.6621 24.9571 29.5103 25.1126 29.2828 25.1126H25.4897C25.2621 25.1126 25.1103 24.9571 25.1103 24.7238V22.3914C25.1103 22.1581 25.2621 22.0027 25.4897 22.0027H29.2828C29.5103 22.0027 29.6621 22.1581 29.6621 22.3914V24.7238ZM29.6621 18.504C29.6621 18.7372 29.5103 18.8927 29.2828 18.8927H25.4897C25.2621 18.8927 25.1103 18.7372 25.1103 18.504V16.1716C25.1103 15.9383 25.2621 15.7828 25.4897 15.7828H29.2828C29.5103 15.7828 29.6621 15.9383 29.6621 16.1716V18.504ZM31.8621 8.39677H30.1172V6.21983H31.4828C31.7103 6.21983 31.8621 6.06434 31.8621 5.83109V0.388739C31.8621 0.155496 31.7103 0 31.4828 0H17.069C16.8414 0 16.6897 0.155496 16.6897 0.388739V5.83109C16.6897 6.06434 16.8414 6.21983 17.069 6.21983H18.4345V8.39677H15.5517V10.7292H31.8621C32.469 10.7292 33 10.185 33 9.56299C33 8.86326 32.469 8.39677 31.8621 8.39677ZM27.9172 8.39677H20.7103V6.21983H27.9172V8.39677Z" fill="#61C100"/>
</svg>
