<svg width="36" height="35" viewBox="0 0 36 35" fill="none" xmlns="http://www.w3.org/2000/svg">
<path d="M22.9908 22.9907C22.6055 22.9907 22.2844 23.3118 22.2844 23.6971C22.2844 24.0825 22.6055 24.4036 22.9908 24.4036C23.3761 24.4036 23.6972 24.0825 23.6972 23.6971C23.6972 23.3118 23.3761 22.9907 22.9908 22.9907Z" fill="#61C100"/>
<path d="M13.6789 22.2844C13.2936 22.2844 12.9725 21.9633 12.9725 21.578C12.9725 21.1927 13.2936 20.8716 13.6789 20.8716C13.9358 20.8716 14.1927 21 14.4495 21.2569C14.7064 21.5138 15.156 21.5138 15.4129 21.2569C15.6697 21 15.6697 20.5505 15.4129 20.2936C15.0917 19.9725 14.7064 19.7798 14.3853 19.6514V18.8807C14.3853 18.4954 14.0642 18.1743 13.6789 18.1743C13.2936 18.1743 12.9725 18.4954 12.9725 18.8807V19.6514C12.2018 19.9083 11.6239 20.6789 11.6239 21.578C11.6239 22.7339 12.523 23.633 13.6789 23.633C14.0642 23.633 14.3853 23.9541 14.3853 24.3395C14.3853 24.7248 14.0642 25.0459 13.6789 25.0459C13.3578 25.0459 13.1009 24.8532 12.7798 24.5321C12.5229 24.2752 12.1376 24.211 11.8165 24.4679C11.4954 24.7248 11.4954 25.1101 11.7523 25.4312C12.1376 25.8807 12.523 26.1376 12.9725 26.3303V27.1009C12.9725 27.4862 13.2936 27.8073 13.6789 27.8073C14.0642 27.8073 14.3853 27.4862 14.3853 27.1009V26.3303C15.156 26.0734 15.734 25.3028 15.734 24.4037C15.734 23.1835 14.8349 22.2844 13.6789 22.2844Z" fill="#61C100"/>
<path d="M8.2202 11.3669C8.60553 11.3669 8.92661 11.0458 8.92661 10.6605V7.89905C8.92661 7.51373 8.60553 7.19263 8.2202 7.19263C7.83488 7.19263 7.51378 7.51373 7.51378 7.89905V10.6605C7.578 11.0458 7.83488 11.3669 8.2202 11.3669Z" fill="#61C100"/>
<path d="M32.3028 16.1193V10.6606C32.3028 8.79817 30.7615 7.25688 28.8991 7.25688H25.0459V2.05505C25.0459 0.899083 24.1468 0 22.9908 0H10.2752C9.11927 0 8.2202 0.899083 8.2202 2.05505V4.49541H6.16514C5.00918 4.49541 4.11009 5.3945 4.11009 6.55046V7.25688H3.40368C1.5413 7.25688 0 8.79817 0 10.6606V31.5963C0 33.4587 1.5413 35 3.40368 35H24.3394C26.0092 35 27.3578 33.844 27.6789 32.2385H28.8349C30.6972 32.2385 32.2385 30.6972 32.2385 28.8349V27.0367H32.945C34.1009 27.0367 35 26.1376 35 24.9817V18.8165C35.0642 17.3394 33.7798 16.1193 32.3028 16.1193ZM33.6514 18.8807C33.6514 19.6514 33.0092 20.2294 32.3028 20.2294V17.4679C33.0734 17.5321 33.6514 18.1101 33.6514 18.8807ZM28.8991 8.6055C30.055 8.6055 30.9541 9.50459 30.9541 10.6606V20.2294H27.8074V16.1193C27.8074 14.4495 26.6514 13.1009 25.0459 12.7798V8.6055H28.8991ZM9.63303 2.05505C9.63303 1.66972 9.95413 1.34862 10.3395 1.34862H23.055C23.4404 1.34862 23.7615 1.66972 23.7615 2.05505V12.7156H20.6147V6.55046C20.6147 5.3945 19.7156 4.49541 18.5596 4.49541H9.69725V2.05505H9.63303ZM16.4404 12.7156V5.90826H18.4954C18.8807 5.90826 19.2018 6.22936 19.2018 6.61468V12.7798H16.4404V12.7156ZM12.3303 12.7156V5.90826H15.0917V12.7156H12.3303ZM5.52294 6.55046C5.52294 6.16514 5.84404 5.84404 6.22937 5.84404H11.0459V12.6514H5.52294V6.55046ZM3.46789 8.6055H4.17431V12.7156H3.59633C2.44037 12.7156 1.41285 11.8807 1.41285 10.6606C1.41285 9.50459 2.31192 8.6055 3.46789 8.6055ZM24.3394 33.6514H3.40368C2.24772 33.6514 1.34863 32.7523 1.34863 31.5963V13.3578C1.99083 13.8073 2.69725 14.0642 3.53211 14.0642H24.2752C25.4312 14.0642 26.3303 14.9633 26.3303 16.1193V20.2294H21.5138C20.3578 20.2294 19.4587 21.1284 19.4587 22.2844V25.0459C19.4587 26.2018 20.3578 27.1009 21.5138 27.1009H26.3303V31.5963C26.3945 32.6881 25.4954 33.6514 24.3394 33.6514ZM30.9541 28.8349C30.9541 29.9908 30.055 30.8899 28.8991 30.8899H27.8074V27.0367H30.9541V28.8349ZM33.0092 25.6881H21.6422C21.2569 25.6881 20.9358 25.367 20.9358 24.9817V22.2202C20.9358 21.8349 21.2569 21.5138 21.6422 21.5138H32.3028C32.8165 21.5138 33.2661 21.3853 33.6514 21.1284V25.0459C33.6514 25.367 33.3303 25.6881 33.0092 25.6881Z" fill="#61C100"/>
<path d="M28.8991 22.9907H25.7523C25.367 22.9907 25.0459 23.3118 25.0459 23.6971C25.0459 24.0825 25.367 24.4036 25.7523 24.4036H28.8991C29.2844 24.4036 29.6055 24.0825 29.6055 23.6971C29.6055 23.3118 29.2844 22.9907 28.8991 22.9907Z" fill="#61C100"/>
</svg>
