<svg width="27" height="27" viewBox="0 0 27 27" fill="none" xmlns="http://www.w3.org/2000/svg">
<path d="M26.5499 26.1H21.15V0.899986C21.15 0.402924 20.7471 0 20.25 0H6.75C6.25294 0 5.85001 0.402924 5.85001 0.899986V26.1H0.450096C0.201462 26.1 0 26.3015 0 26.5499C0 26.7985 0.201462 27 0.450096 27H26.5499C26.7985 27 27 26.7985 27 26.5499C27 26.3015 26.7985 26.1 26.5499 26.1ZM8.54997 2.69996H18.45V26.1H8.54997V2.69996ZM19.35 26.1V2.25007C19.35 2.00143 19.1486 1.79997 18.8999 1.79997H8.10008C7.85145 1.79997 7.64999 2.00143 7.64999 2.25007V26.1H6.75V0.899986H20.25V26.1H19.35Z" fill="white"/>
<path d="M17.0999 15.3C16.8515 15.3 16.6501 15.5014 16.6501 15.7501V17.0999H10.3499V5.80943C10.9762 5.69964 11.5303 5.33833 11.8832 4.80954C12.2671 4.30918 12.8699 4.02615 13.5 4.05004C14.1299 4.02635 14.7323 4.30939 15.116 4.80954C15.4691 5.33853 16.0234 5.69985 16.6501 5.80943V11.2499H17.55V5.39992C17.55 5.15149 17.3486 4.95003 17.0999 4.95003C16.6087 4.95909 16.1458 4.72035 15.8683 4.31454C15.3202 3.55834 14.4336 3.12245 13.5 3.15006C12.5668 3.12266 11.6807 3.55854 11.1325 4.31413C10.855 4.72035 10.3918 4.9593 9.90005 4.95003C9.65142 4.95003 9.44996 5.15149 9.44996 5.39992V17.55C9.44996 17.7985 9.65142 17.9999 9.90005 17.9999H17.0999C17.3486 17.9999 17.55 17.7985 17.55 17.55V15.7501C17.55 15.5014 17.3486 15.3 17.0999 15.3Z" fill="white"/>
<path d="M17.0999 18.8999H9.90005C9.65142 18.8999 9.44996 19.1014 9.44996 19.35V24.7499C9.44996 24.9986 9.65142 25.2 9.90005 25.2H17.0999C17.3486 25.2 17.55 24.9986 17.55 24.7499V19.35C17.55 19.1014 17.3486 18.8999 17.0999 18.8999ZM16.6501 24.3H10.3499V19.7999H16.6501V24.3Z" fill="white"/>
<path d="M16.6501 12.6C15.9044 12.6 15.3 13.2044 15.3 13.9501C15.3 14.1985 15.0985 14.4 14.8501 14.4C14.6014 14.4 14.4 14.6014 14.4 14.8501C14.4 15.0985 14.6014 15.3 14.8501 15.3C15.5956 15.3 16.2 14.6956 16.2 13.9501C16.2 13.7015 16.4014 13.5 16.6501 13.5C16.8985 13.5 17.0999 13.7015 17.0999 13.9501C17.0999 14.1985 17.3014 14.4 17.55 14.4C17.7985 14.4 17.9999 14.1985 17.9999 13.9501C17.9999 13.2044 17.3955 12.6 16.6501 12.6Z" fill="white"/>
</svg>
