<svg width="19" height="15" viewBox="0 0 19 15" fill="none" xmlns="http://www.w3.org/2000/svg">
<path d="M13.1959 0C11.1454 0 9.74464 0.993243 9.03409 1.68243C8.32354 0.993243 6.92275 0 4.87232 0C2.03013 0 0 2.39189 0 5.25C0 6.89189 0.710546 8.61486 2.07074 10.1959C3.55273 11.9392 5.78588 13.5203 8.70927 14.9392C8.81078 14.9797 8.91228 15 9.01379 15C9.1153 15 9.2168 14.9797 9.31831 14.9392C12.2417 13.5203 14.4748 11.9392 15.9568 10.1959C17.3576 8.61486 18.0682 6.89189 18.0682 5.25C18.0682 2.39189 16.038 0 13.1959 0ZM14.9215 9.28378C13.6222 10.8041 11.6327 12.2432 9.03409 13.5203C6.43552 12.223 4.46629 10.8041 3.14671 9.28378C1.98953 7.94595 1.42109 6.58784 1.42109 5.25C1.42109 3.18243 2.80158 1.41892 4.87232 1.41892C5.84678 1.41892 6.74004 1.7027 7.53179 2.27027C8.12053 2.69595 8.44535 3.12162 8.46565 3.16216C8.58746 3.36486 8.81078 3.46622 9.05439 3.46622C9.27771 3.46622 9.50102 3.34459 9.64313 3.16216C9.62283 3.12162 10.8409 1.41892 13.1959 1.41892C15.2666 1.41892 16.6471 3.2027 16.6471 5.25C16.6471 6.58784 16.0787 7.94595 14.9215 9.28378Z" fill="#676767"/>
</svg>
