<svg width="19" height="15" viewBox="0 0 19 15" fill="none" xmlns="http://www.w3.org/2000/svg">
<g clip-path="url(#clip0)">
<path d="M13.1579 0C11.1134 0 9.7166 0.991903 9.0081 1.68016C8.2996 0.991903 6.90283 0 4.8583 0C2.02429 0 0 2.38866 0 5.24291C0 6.88259 0.708502 8.60324 2.06478 10.1822C3.54251 11.9231 5.76923 13.502 8.68421 14.919C8.78543 14.9595 8.88664 14.9798 8.98785 14.9798C9.08907 14.9798 9.19028 14.9595 9.2915 14.919C12.2065 13.502 14.4332 11.9231 15.9109 10.1822C17.3077 8.60324 18.0162 6.88259 18.0162 5.24291C18.0162 2.38866 15.9919 0 13.1579 0Z" fill="#FB6C3F"/>
</g>
<defs>
<clipPath id="clip0">
<rect width="18.0162" height="15" fill="white"/>
</clipPath>
</defs>
</svg>
