<svg width="32" height="32" viewBox="0 0 32 32" fill="none" xmlns="http://www.w3.org/2000/svg">
<circle cx="15.9649" cy="15.9649" r="15.9649" fill="#3C599B"/>
<path fill-rule="evenodd" clip-rule="evenodd" d="M13.6234 16.2547C13.6766 16.3079 13.6234 16.7337 13.6234 16.7869V25.4612H17.4018C17.4018 23.1729 17.4018 20.8313 17.4018 18.543C17.4018 18.4898 17.4018 16.3079 17.4018 16.2547C17.4018 16.2015 17.4018 16.2547 17.4018 16.2015C17.4018 16.2015 19.7965 16.2015 19.9029 16.2015H19.9561L20.2754 13.0085H17.4018C17.4018 12.5296 17.4018 12.0506 17.4018 11.5717C17.4018 11.146 17.4018 10.6138 17.6678 10.4009L20.2754 10.1348V6.94186C19.7965 6.88865 19.2111 6.94186 18.6789 6.94186C18.1468 6.94186 17.6146 6.94186 17.1357 6.94186C16.1778 6.99508 15.3795 7.31438 14.7942 7.79333C13.9427 9.12374 13.6234 8.00619 13.6234 13.0085H11.7076V16.2015L13.6234 16.2547Z" fill="white"/>
</svg>
