<svg width="32" height="32" viewBox="0 0 32 32" fill="none" xmlns="http://www.w3.org/2000/svg">
<circle cx="15.9649" cy="15.9649" r="15.9649" fill="url(#paint0_linear)"/>
<path d="M23.0427 7.4502H9.20642C8.24853 7.4502 7.45029 8.24844 7.45029 9.20634V23.0426C7.45029 24.0005 8.24853 24.7987 9.20642 24.7987H23.0427C24.0006 24.7987 24.7988 24.0005 24.7988 23.0426V9.20634C24.7456 8.24844 24.0006 7.4502 23.0427 7.4502ZM16.1245 12.6122C18.0403 12.6122 19.5836 14.1555 19.5836 16.0712C19.5836 17.987 18.0403 19.5303 16.1245 19.5303C14.2088 19.5303 12.6655 17.987 12.6655 16.0712C12.6655 14.1555 14.2088 12.6122 16.1245 12.6122ZM9.63215 22.9894C9.36607 22.9894 9.20642 22.8297 9.20642 22.5636V15.2198H11.0158C10.9093 15.4859 10.9094 15.8052 10.9094 16.0712C10.9094 18.9449 13.2509 21.2865 16.1245 21.2865C18.9982 21.2865 21.3398 18.9449 21.3398 16.0712C21.3398 15.8052 21.3398 15.4859 21.2333 15.2198H23.0427V22.5636C23.0427 22.8297 22.883 22.9894 22.617 22.9894H9.63215ZM23.0427 11.335C23.0427 11.6011 22.883 11.7607 22.617 11.7607H20.8608C20.5947 11.7607 20.4351 11.6011 20.4351 11.335V9.63207C20.4351 9.36598 20.5947 9.20634 20.8608 9.20634H22.617C22.883 9.20634 23.0427 9.36598 23.0427 9.63207V11.335Z" fill="white"/>
<defs>
<linearGradient id="paint0_linear" x1="31.5153" y1="-3.21454" x2="5.9796" y2="28.24" gradientUnits="userSpaceOnUse">
<stop offset="0.010753" stop-color="#3542E0"/>
<stop offset="0.1748" stop-color="#3841DF"/>
<stop offset="0.2744" stop-color="#403FDA"/>
<stop offset="0.357" stop-color="#4E3CD2"/>
<stop offset="0.4301" stop-color="#6337C7"/>
<stop offset="0.4971" stop-color="#7D31B9"/>
<stop offset="0.5595" stop-color="#9E2AA8"/>
<stop offset="0.6173" stop-color="#C32193"/>
<stop offset="0.6236" stop-color="#C82091"/>
<stop offset="0.7612" stop-color="#F62B37"/>
<stop offset="1" stop-color="#FFC658"/>
</linearGradient>
</defs>
</svg>
