<svg width="26" height="25" viewBox="0 0 26 25" fill="none" xmlns="http://www.w3.org/2000/svg">
<path d="M10.9519 6.03766L12.5061 7.54431L12.1418 9.66823C12.1058 9.88062 12.1932 10.095 12.368 10.2222C12.5428 10.3492 12.775 10.3671 12.9673 10.2685L14.886 9.26601L16.8047 10.2685C16.9988 10.3656 17.231 10.3481 17.4083 10.2231C17.5842 10.0963 17.6725 9.88128 17.636 9.66823L17.2717 7.54431L18.8259 6.03766C18.9809 5.88611 19.0362 5.66045 18.9686 5.45491C18.9008 5.2496 18.7222 5.10004 18.5071 5.06907L16.3607 4.75756L15.3929 2.82635C15.2966 2.6321 15.0979 2.50909 14.8804 2.50909C14.6627 2.50909 14.4641 2.6321 14.368 2.82635L13.4115 4.75756L11.2651 5.06907C11.0498 5.09916 10.8708 5.24872 10.8038 5.45425C10.7409 5.66111 10.7978 5.88545 10.9519 6.03766ZM13.8725 5.83943C14.0587 5.81399 14.2192 5.69673 14.2995 5.52792L14.8804 4.35557L15.4611 5.52792C15.5441 5.69452 15.7033 5.81067 15.8881 5.83943L17.1863 6.02638L16.2469 6.93811C16.1121 7.06909 16.0505 7.25759 16.0816 7.44232L16.3038 8.72795L15.1422 8.12197C15.0597 8.07927 14.9676 8.05803 14.8747 8.05958C14.7819 8.06069 14.6907 8.08193 14.6071 8.12197L13.4455 8.72795L13.6677 7.44232C13.7008 7.25736 13.6388 7.0682 13.5024 6.93811L12.563 6.02638L13.8725 5.83943Z" fill="white"/>
<path d="M8.55488 18.8378C6.84439 18.8378 5.45771 20.2172 5.45771 21.9188C5.45771 23.6206 6.84439 25 8.55488 25C10.2654 25 11.6521 23.6206 11.6521 21.9188C11.6503 20.2179 10.2647 18.8395 8.55488 18.8378ZM8.55488 23.8672C7.47312 23.8672 6.59641 22.9949 6.59641 21.9188C6.59641 20.8429 7.47312 19.9705 8.55488 19.9705C9.63664 19.9705 10.5134 20.8429 10.5134 21.9188C10.5134 22.9949 9.63664 23.8672 8.55488 23.8672Z" fill="white"/>
<path d="M25.4361 5.90735H21.5018C21.1375 2.58852 18.3079 0 14.8804 0C11.4528 0 8.62315 2.58852 8.25886 5.90735H5.33227L4.92816 3.62481C4.67551 2.21971 3.5684 1.12081 2.15548 0.872353L0.669387 0.611731C0.359581 0.557085 0.0640091 0.762396 0.00885345 1.07059C-0.0460799 1.37855 0.160309 1.6728 0.470115 1.72745L1.95621 1.98807C2.89719 2.154 3.63401 2.88697 3.80081 3.82304L5.81621 15.1338C6.05441 16.4871 7.23625 17.4741 8.61759 17.4727H20.5739C21.83 17.4765 22.9392 16.6588 23.301 15.4621L25.977 6.63811C26.0266 6.46577 25.9952 6.28037 25.8916 6.13391C25.7832 5.99231 25.6151 5.90868 25.4361 5.90735ZM14.8804 1.13275C17.9305 1.13275 20.4031 3.59251 20.4031 6.62661C20.4031 9.66093 17.9305 12.1205 14.8804 12.1205C11.8302 12.1205 9.35774 9.66093 9.35774 6.62661C9.36064 3.59362 11.8315 1.13563 14.8804 1.13275ZM22.2135 15.128C21.9988 15.8466 21.3332 16.338 20.5795 16.3344H8.62315C7.79381 16.3367 7.08391 15.7431 6.94357 14.9298L5.53732 7.03458H8.23595C8.45657 10.5271 11.3683 13.2475 14.886 13.2475C18.4039 13.2475 21.3156 10.5271 21.536 7.03458H24.6732L22.2135 15.128Z" fill="white"/>
<path d="M20.5112 18.8378C18.8007 18.8378 17.414 20.2172 17.414 21.9188C17.414 23.6206 18.8007 25 20.5112 25C22.2217 25 23.6084 23.6206 23.6084 21.9188C23.6066 20.2179 22.221 18.8395 20.5112 18.8378ZM20.5112 23.8672C19.4294 23.8672 18.5527 22.9949 18.5527 21.9188C18.5527 20.8429 19.4294 19.9705 20.5112 19.9705C21.593 19.9705 22.4697 20.8429 22.4697 21.9188C22.4697 22.9949 21.593 23.8672 20.5112 23.8672Z" fill="white"/>
</svg>
