<svg width="22" height="18" viewBox="0 0 22 18" fill="none" xmlns="http://www.w3.org/2000/svg">
<path d="M15.835 0C13.3745 0 11.6936 1.19189 10.8409 2.01892C9.98825 1.19189 8.3073 0 5.84678 0C2.43616 0 0 2.87027 0 6.3C0 8.27027 0.852656 10.3378 2.48488 12.2351C4.26328 14.327 6.94305 16.2243 10.4511 17.927C10.5729 17.9757 10.6947 18 10.8165 18C10.9384 18 11.0602 17.9757 11.182 17.927C14.69 16.2243 17.3698 14.327 19.1482 12.2351C20.8292 10.3378 21.6818 8.27027 21.6818 6.3C21.6818 2.87027 19.2457 0 15.835 0ZM17.9058 11.1405C16.3466 12.9649 13.9592 14.6919 10.8409 16.2243C7.72262 14.6676 5.35955 12.9649 3.77605 11.1405C2.38744 9.53514 1.70531 7.90541 1.70531 6.3C1.70531 3.81892 3.3619 1.7027 5.84678 1.7027C7.01614 1.7027 8.08805 2.04324 9.03815 2.72432C9.74464 3.23514 10.1344 3.74595 10.1588 3.79459C10.305 4.03784 10.5729 4.15946 10.8653 4.15946C11.1332 4.15946 11.4012 4.01351 11.5718 3.79459C11.5474 3.74595 13.0091 1.7027 15.835 1.7027C18.3199 1.7027 19.9765 3.84324 19.9765 6.3C19.9765 7.90541 19.2944 9.53514 17.9058 11.1405Z" fill="#61C100"/>
</svg>
