<svg width="103" height="21" viewBox="0 0 103 21" fill="none" xmlns="http://www.w3.org/2000/svg">
<path d="M49.4764 16.2834C49.4764 16.4791 49.4372 16.6748 49.3785 16.8314C49.3198 17.0075 49.2024 17.1641 49.0654 17.2815C48.9284 17.4185 48.7522 17.5163 48.5369 17.5946C48.3217 17.6729 48.0868 17.7121 47.7932 17.7121H47.1865L46.8734 19.2191H46.3841L47.2257 15.2265H48.2629C48.4782 15.2265 48.6544 15.2656 48.8109 15.3048C48.9675 15.3635 49.0849 15.4418 49.1828 15.5396C49.2807 15.6375 49.3394 15.7549 49.3981 15.8724C49.4372 16.0094 49.4764 16.1464 49.4764 16.2834ZM48.9675 16.3225C48.9675 16.2246 48.9479 16.1268 48.9088 16.0485C48.8697 15.9702 48.8305 15.8919 48.7522 15.8332C48.6935 15.7745 48.5957 15.7354 48.4978 15.6962C48.3999 15.6571 48.2825 15.6571 48.1455 15.6571H47.5975L47.2452 17.3011H47.8128C48.0085 17.3011 48.1847 17.2815 48.3217 17.2228C48.4587 17.1836 48.5761 17.1054 48.6739 17.0271C48.7718 16.9488 48.8305 16.8314 48.8697 16.7139C48.9479 16.5965 48.9675 16.4595 48.9675 16.3225Z" fill="#2E2520"/>
<path d="M53.6255 16.8509C53.6255 17.0271 53.6059 17.2032 53.5864 17.3598C53.5472 17.5359 53.5081 17.6925 53.4494 17.8491C53.3906 18.0056 53.3124 18.1622 53.2341 18.2992C53.1558 18.4362 53.0579 18.5732 52.9405 18.6906C52.8426 18.7885 52.7644 18.8668 52.6469 18.9451C52.5491 19.0233 52.4316 19.0821 52.3142 19.1408C52.1968 19.1995 52.0598 19.2386 51.9228 19.2582C51.7858 19.2778 51.6488 19.2973 51.4922 19.2973C51.2378 19.2973 51.0225 19.2582 50.8072 19.1603C50.6115 19.0821 50.4354 18.9646 50.2984 18.8081C50.1614 18.6515 50.0439 18.4753 49.9852 18.2601C49.9069 18.0448 49.8678 17.8295 49.8678 17.5751C49.8678 17.1836 49.9265 16.8509 50.0635 16.5378C50.1809 16.2246 50.3571 15.9702 50.5919 15.7354C50.7681 15.5592 50.9834 15.4026 51.2182 15.3048C51.4531 15.2069 51.7271 15.1482 52.0206 15.1482C52.2751 15.1482 52.4904 15.1874 52.6861 15.2656C52.8818 15.3439 53.0579 15.4614 53.1949 15.6179C53.3319 15.7745 53.4494 15.9506 53.5081 16.1464C53.5864 16.3812 53.6255 16.5965 53.6255 16.8509ZM53.1166 16.8705C53.1166 16.6748 53.0971 16.4986 53.0384 16.3421C52.9796 16.1855 52.9014 16.0485 52.8035 15.9311C52.7056 15.8136 52.5882 15.7354 52.4512 15.6766C52.3142 15.6179 52.1576 15.5788 51.9815 15.5788C51.7662 15.5788 51.5705 15.6179 51.3944 15.7158C51.1987 15.8136 51.0421 15.9311 50.9051 16.0876C50.8268 16.1855 50.7485 16.2834 50.6898 16.4008C50.6311 16.5182 50.5724 16.6356 50.5137 16.7726C50.4745 16.9096 50.4354 17.0466 50.3962 17.1836C50.3767 17.3206 50.3571 17.4772 50.3571 17.6142C50.3571 17.8099 50.3767 17.9665 50.4354 18.1231C50.4941 18.2796 50.5528 18.4166 50.6506 18.5341C50.7485 18.6515 50.8659 18.7298 51.0029 18.7885C51.1399 18.8472 51.3161 18.8863 51.4922 18.8863C51.7075 18.8863 51.9032 18.8472 52.0794 18.7689C52.2751 18.6906 52.4316 18.5732 52.5686 18.3971C52.6665 18.2992 52.7448 18.1818 52.8035 18.0643C52.8622 17.9469 52.9209 17.8099 52.9601 17.6729C52.9992 17.5359 53.0384 17.3989 53.0579 17.2619C53.1166 17.1249 53.1166 16.9879 53.1166 16.8705Z" fill="#2E2520"/>
<path d="M57.4615 15.8919C57.4028 15.8528 57.3441 15.8136 57.2853 15.7745C57.2071 15.7354 57.1288 15.6962 57.0505 15.6766C56.9722 15.6375 56.8743 15.6179 56.7765 15.5984C56.6786 15.5788 56.5612 15.5788 56.4633 15.5788C56.1893 15.5788 55.9349 15.6375 55.7001 15.7354C55.4848 15.8332 55.2891 15.9702 55.1325 16.1464C54.9759 16.3225 54.8585 16.5182 54.7802 16.7531C54.7019 16.9879 54.6628 17.2424 54.6628 17.5163C54.6628 17.7316 54.7019 17.9273 54.7606 18.1035C54.8194 18.2796 54.9172 18.4166 55.0151 18.5341C55.1325 18.6515 55.2695 18.7298 55.4261 18.7885C55.5826 18.8472 55.7588 18.8863 55.9545 18.8863C56.0719 18.8863 56.1893 18.8863 56.2872 18.8668C56.3851 18.8472 56.4829 18.8276 56.5612 18.8081C56.6395 18.7885 56.7178 18.7493 56.7961 18.7102C56.8743 18.6711 56.9526 18.6319 57.0113 18.5928L56.8939 19.0821C56.7373 19.1408 56.5808 19.1995 56.4046 19.2386C56.2285 19.2778 56.0328 19.2973 55.8175 19.2973C55.5631 19.2973 55.3282 19.2582 55.1325 19.1799C54.9172 19.1016 54.7411 18.9842 54.6041 18.8276C54.4671 18.6711 54.3496 18.4949 54.2714 18.2796C54.1931 18.0643 54.1539 17.8295 54.1539 17.5555C54.1539 17.2032 54.2126 16.8901 54.3105 16.5965C54.4279 16.3029 54.5845 16.0485 54.7802 15.8528C54.9759 15.6375 55.2304 15.4809 55.5044 15.3635C55.7979 15.2461 56.1111 15.1874 56.4438 15.1874C56.6786 15.1874 56.8939 15.2069 57.0701 15.2656C57.2462 15.3244 57.4028 15.3831 57.5398 15.4418L57.4615 15.8919Z" fill="#2E2520"/>
<path d="M60.9452 15.8919C60.8864 15.8528 60.8277 15.8136 60.769 15.7745C60.6907 15.7354 60.632 15.6962 60.5342 15.6766C60.4559 15.6375 60.358 15.6179 60.2602 15.5984C60.1623 15.5788 60.0644 15.5788 59.947 15.5788C59.673 15.5788 59.4186 15.6375 59.1837 15.7354C58.9685 15.8332 58.7727 15.9702 58.6162 16.1464C58.4596 16.3225 58.3422 16.5182 58.2639 16.7531C58.1856 16.9879 58.1465 17.2424 58.1465 17.5163C58.1465 17.7316 58.1856 17.9273 58.2443 18.1035C58.303 18.2796 58.4009 18.4166 58.4987 18.5341C58.6162 18.6515 58.7532 18.7298 58.9097 18.7885C59.0663 18.8472 59.2425 18.8863 59.4382 18.8863C59.5556 18.8863 59.673 18.8863 59.7709 18.8668C59.8687 18.8472 59.9666 18.8276 60.0449 18.8081C60.1232 18.7885 60.2015 18.7493 60.2797 18.7102C60.358 18.6711 60.4363 18.6319 60.495 18.5928L60.3776 19.0821C60.221 19.1408 60.0645 19.1995 59.8883 19.2386C59.7122 19.2778 59.5165 19.2973 59.3012 19.2973C59.0467 19.2973 58.8119 19.2582 58.6162 19.1799C58.4009 19.1016 58.2247 18.9842 58.0877 18.8276C57.9507 18.6711 57.8333 18.4949 57.755 18.2796C57.6767 18.0643 57.6376 17.8295 57.6376 17.5555C57.6376 17.2032 57.6963 16.8901 57.7942 16.5965C57.9116 16.3029 58.0682 16.0485 58.2639 15.8528C58.4596 15.6375 58.714 15.4809 58.988 15.3635C59.2816 15.2461 59.5947 15.1874 59.9275 15.1874C60.1623 15.1874 60.3776 15.2069 60.5537 15.2656C60.7299 15.3244 60.8864 15.3831 61.0234 15.4418L60.9452 15.8919Z" fill="#2E2520"/>
<path d="M64.2919 19.2191H63.8417L64.4289 16.4008C64.4485 16.3421 64.468 16.2638 64.4876 16.1855C64.5072 16.1072 64.5267 16.0289 64.5463 15.9702H64.5267C64.5072 15.9898 64.4876 16.0094 64.468 16.0289C64.4485 16.0485 64.4289 16.0876 64.3897 16.1072C64.3702 16.1268 64.3506 16.1659 64.3115 16.1855C64.2919 16.2051 64.2723 16.2442 64.2527 16.2638L61.4932 19.1995H61.0822L61.9237 15.2069H62.3739L61.7868 18.0448C61.7672 18.0839 61.7672 18.1426 61.7476 18.2209C61.728 18.2796 61.7085 18.3579 61.7085 18.3971H61.728C61.7476 18.3775 61.7672 18.3579 61.7868 18.3383C61.8063 18.3188 61.8259 18.2796 61.8455 18.2601C61.865 18.2405 61.8846 18.2013 61.9237 18.1818C61.9433 18.1622 61.9629 18.1426 61.9825 18.1231L64.7029 15.2265H65.153L64.2919 19.2191Z" fill="#2E2520"/>
<path d="M68.5389 19.2191H68.0887L68.6759 16.4008C68.6954 16.3421 68.715 16.2638 68.7346 16.1855C68.7542 16.1072 68.7737 16.0289 68.7933 15.9702H68.7737C68.7541 15.9898 68.7346 16.0094 68.715 16.0289C68.6954 16.0485 68.6759 16.0876 68.6367 16.1072C68.6172 16.1268 68.5976 16.1659 68.5584 16.1855C68.5389 16.2051 68.5193 16.2442 68.4997 16.2638L65.7402 19.1995H65.3292L66.1707 15.2069H66.6209L66.0337 18.0448C66.0142 18.0839 66.0142 18.1426 65.9946 18.2209C65.975 18.2796 65.9554 18.3579 65.9554 18.3971H65.975C65.9946 18.3775 66.0142 18.3579 66.0337 18.3383C66.0533 18.3188 66.0729 18.2796 66.0924 18.2601C66.112 18.2405 66.1316 18.2013 66.1707 18.1818C66.1903 18.1622 66.2099 18.1426 66.2294 18.1231L68.9499 15.2265H69.4L68.5389 19.2191ZM68.7933 14.3262C68.7346 14.4241 68.6563 14.5219 68.5584 14.6002C68.4606 14.6785 68.3627 14.7372 68.2453 14.7959C68.1279 14.8351 67.9909 14.8742 67.8343 14.8742C67.6777 14.8742 67.5603 14.8546 67.4429 14.7959C67.3254 14.7568 67.2472 14.6785 67.1689 14.6002C67.0906 14.5219 67.0514 14.4241 67.0123 14.3262C66.9732 14.2284 66.9536 14.1109 66.9536 14.0131H67.4037C67.4037 14.0914 67.4233 14.1501 67.4233 14.2284C67.4429 14.2871 67.4624 14.3458 67.5016 14.3849C67.5407 14.4241 67.5799 14.4632 67.6386 14.5024C67.6973 14.5219 67.756 14.5415 67.8539 14.5415C67.9322 14.5415 68.0104 14.5219 68.0692 14.5024C68.1279 14.4828 68.1866 14.4436 68.2453 14.3849C68.304 14.3458 68.3432 14.2871 68.3823 14.2284C68.4214 14.1696 68.441 14.0914 68.4802 14.0326H68.9499C68.8911 14.1109 68.852 14.2284 68.7933 14.3262Z" fill="#2E2520"/>
<path d="M73.0598 15.8919C73.0011 15.8528 72.9424 15.8136 72.8837 15.7745C72.8054 15.7354 72.7467 15.6962 72.6489 15.6766C72.5706 15.6375 72.4727 15.6179 72.3748 15.5984C72.277 15.5788 72.1596 15.5788 72.0617 15.5788C71.7877 15.5788 71.5333 15.6375 71.2984 15.7354C71.0831 15.8332 70.8874 15.9702 70.7309 16.1464C70.5743 16.3225 70.4569 16.5182 70.3786 16.7531C70.3003 16.9879 70.2611 17.2424 70.2611 17.5163C70.2611 17.7316 70.3003 17.9273 70.359 18.1035C70.4177 18.2796 70.5156 18.4166 70.6134 18.5341C70.7309 18.6515 70.8679 18.7298 71.0244 18.7885C71.181 18.8472 71.3571 18.8863 71.5529 18.8863C71.6703 18.8863 71.7877 18.8863 71.8856 18.8668C71.9834 18.8472 72.0813 18.8276 72.1596 18.8081C72.2379 18.7885 72.3161 18.7493 72.3944 18.7102C72.4727 18.6711 72.551 18.6319 72.6097 18.5928L72.4923 19.0821C72.3357 19.1408 72.1791 19.1995 72.003 19.2386C71.8269 19.2778 71.6311 19.2973 71.4159 19.2973C71.1614 19.2973 70.9266 19.2582 70.7309 19.1799C70.5156 19.1016 70.3394 18.9842 70.2024 18.8276C70.0654 18.6711 69.948 18.4949 69.8697 18.2796C69.7914 18.0643 69.7523 17.8295 69.7523 17.5555C69.7523 17.2032 69.811 16.8901 69.9089 16.5965C70.0263 16.3029 70.1829 16.0485 70.3786 15.8528C70.5743 15.6375 70.8287 15.4809 71.1027 15.3635C71.3963 15.2461 71.7094 15.1874 72.0421 15.1874C72.277 15.1874 72.4923 15.2069 72.6684 15.2656C72.8446 15.3244 73.0011 15.3831 73.1381 15.4418L73.0598 15.8919Z" fill="#2E2520"/>
<path d="M74.606 17.2032L75.9955 19.2191H75.4084L74.195 17.3989C74.1754 17.3793 74.1754 17.3598 74.1558 17.3206C74.1363 17.2815 74.1167 17.2619 74.1167 17.2423H74.0971L73.6861 19.2191H73.1968L74.0384 15.2265H74.5277L74.1363 17.1054H74.1558C74.1754 17.0858 74.195 17.0662 74.2146 17.0271C74.2341 17.0075 74.2537 16.9879 74.2733 16.9684L76.113 15.2265H76.7393L74.606 17.2032Z" fill="#2E2520"/>
<path d="M79.8315 19.2191H79.3814L79.9685 16.4008C79.9881 16.3421 80.0077 16.2638 80.0272 16.1855C80.0468 16.1072 80.0664 16.0289 80.086 15.9702H80.0664C80.0468 15.9898 80.0272 16.0094 80.0077 16.0289C79.9881 16.0485 79.9685 16.0876 79.9294 16.1072C79.9098 16.1268 79.8902 16.1659 79.8511 16.1855C79.8315 16.2051 79.812 16.2442 79.7924 16.2638L77.0328 19.1995H76.6218L77.4634 15.2069H77.9135L77.3264 18.0448C77.3068 18.0839 77.3068 18.1426 77.2873 18.2209C77.2677 18.2796 77.2481 18.3579 77.2481 18.3971H77.2677C77.2872 18.3775 77.3068 18.3579 77.3264 18.3383C77.346 18.3188 77.3655 18.2796 77.3851 18.2601C77.4047 18.2405 77.4242 18.2013 77.4634 18.1818C77.483 18.1622 77.5025 18.1426 77.5221 18.1231L80.2425 15.2265H80.6927L79.8315 19.2191Z" fill="#2E2520"/>
<path d="M83.6479 15.6571H82.1018L81.8082 17.0271H83.2369L83.1391 17.4576H81.7104L81.4168 18.8276H83.0608L82.9825 19.2582H80.8688L81.7104 15.2656H83.7458L83.6479 15.6571Z" fill="#2E2520"/>
<path d="M88.1689 18.8081H88.7561L88.4429 20.2955H87.9928L88.2276 19.2386H85.3311L85.1158 20.2955H84.6656L84.9788 18.8081H85.2919C85.5072 18.6123 85.7029 18.3971 85.8791 18.1426C86.0552 17.9078 86.1922 17.6338 86.3292 17.3402C86.4662 17.0466 86.5836 16.7139 86.6815 16.3812C86.7794 16.0289 86.8772 15.6571 86.9751 15.2461H88.9126L88.1689 18.8081ZM87.3274 15.6571C87.2882 15.7941 87.2491 15.9506 87.2099 16.1268C87.1708 16.3029 87.1121 16.4791 87.0533 16.6748C86.9946 16.8705 86.9164 17.0662 86.8381 17.2619C86.7598 17.4576 86.6815 17.6533 86.5836 17.8491C86.4858 18.0448 86.3879 18.2013 86.2705 18.3775C86.1531 18.5341 86.0356 18.6906 85.8986 18.8081H87.6992L88.3646 15.6766H87.3274V15.6571Z" fill="#2E2520"/>
<path d="M92.2006 16.0876C92.2006 16.2051 92.181 16.3225 92.1419 16.4399C92.1028 16.5574 92.044 16.6552 91.9853 16.7531C91.907 16.8509 91.8092 16.9292 91.7113 16.9879C91.5939 17.0466 91.4569 17.1054 91.3003 17.1249V17.1445C91.4178 17.1641 91.5156 17.2032 91.5939 17.2424C91.6722 17.3011 91.7505 17.3598 91.8092 17.4185C91.8679 17.4968 91.907 17.5751 91.9462 17.6533C91.9658 17.7512 91.9853 17.8295 91.9853 17.9273C91.9853 18.1426 91.9462 18.3188 91.8679 18.4753C91.7896 18.6319 91.6918 18.7689 91.5548 18.8668C91.4178 18.9646 91.2612 19.0625 91.085 19.1016C90.9089 19.1603 90.7132 19.1799 90.4979 19.1799H89.2845L90.1261 15.1874H91.222C91.3786 15.1874 91.5156 15.2069 91.6526 15.2461C91.77 15.2852 91.8875 15.3439 91.9658 15.4222C92.044 15.5005 92.1028 15.5984 92.1615 15.6962C92.181 15.8528 92.2006 15.9702 92.2006 16.0876ZM91.496 17.9861C91.496 17.7903 91.4373 17.6338 91.3003 17.5163C91.1633 17.3989 90.948 17.3402 90.674 17.3402H90.1456L89.8521 18.7689H90.4979C90.674 18.7689 90.8306 18.7493 90.948 18.7102C91.0655 18.6711 91.1829 18.6123 91.2612 18.5536C91.3395 18.4753 91.3982 18.3971 91.4373 18.2992C91.4765 18.2209 91.496 18.1231 91.496 17.9861ZM91.7113 16.1855C91.7113 16.1072 91.6918 16.0485 91.6722 15.9898C91.6526 15.9311 91.6135 15.8724 91.5743 15.8136C91.5156 15.7549 91.4569 15.7158 91.3786 15.6962C91.3003 15.6766 91.2025 15.6571 91.085 15.6571H90.4979L90.2239 16.9488H90.7523C90.9089 16.9488 91.0459 16.9292 91.1633 16.8901C91.2808 16.8509 91.3786 16.7922 91.4569 16.7335C91.5352 16.6748 91.5939 16.5769 91.633 16.4986C91.6918 16.4008 91.7113 16.3029 91.7113 16.1855Z" fill="#2E2520"/>
<path d="M95.332 15.6571H93.7859L93.4923 17.0271H94.921L94.8232 17.4576H93.3945L93.1009 18.8276H94.7449L94.6666 19.2582H92.5529L93.3945 15.2656H95.4103L95.332 15.6571Z" fill="#2E2520"/>
<path d="M98.4635 16.2834C98.4635 16.4791 98.4243 16.6748 98.3656 16.8314C98.3069 17.0075 98.1895 17.1641 98.0525 17.2815C97.9155 17.4185 97.7393 17.5163 97.524 17.5946C97.3087 17.6729 97.0739 17.7121 96.7803 17.7121H96.1736L95.8605 19.2191H95.3907L96.2323 15.2265H97.2696C97.4849 15.2265 97.661 15.2656 97.8176 15.3048C97.9742 15.3635 98.0916 15.4418 98.1895 15.5396C98.2873 15.6375 98.346 15.7549 98.4047 15.8724C98.4439 16.0094 98.4635 16.1464 98.4635 16.2834ZM97.9742 16.3225C97.9742 16.2246 97.9546 16.1268 97.9154 16.0485C97.8763 15.9702 97.8372 15.8919 97.7589 15.8332C97.6806 15.7745 97.6023 15.7354 97.5045 15.6962C97.4066 15.6571 97.2892 15.6571 97.1522 15.6571H96.6042L96.2519 17.3011H96.8195C97.0152 17.3011 97.1913 17.2815 97.3283 17.2228C97.4653 17.1836 97.5827 17.1054 97.6806 17.0271C97.7785 16.9488 97.8372 16.8314 97.8763 16.7139C97.9546 16.5965 97.9742 16.4595 97.9742 16.3225Z" fill="#2E2520"/>
<path d="M101.869 19.2191H101.419L102.006 16.4008C102.025 16.3421 102.045 16.2638 102.065 16.1855C102.084 16.1072 102.104 16.0289 102.123 15.9702H102.104C102.084 15.9898 102.065 16.0094 102.045 16.0289C102.025 16.0485 102.006 16.0876 101.967 16.1072C101.947 16.1268 101.928 16.1659 101.888 16.1855C101.869 16.2051 101.849 16.2442 101.83 16.2638L99.0701 19.1995H98.6591L99.5007 15.2069H99.9509L99.3637 18.0448C99.3441 18.0839 99.3441 18.1426 99.3246 18.2209C99.305 18.2796 99.2854 18.3579 99.2854 18.3971H99.305C99.3246 18.3775 99.3441 18.3579 99.3637 18.3383C99.3833 18.3188 99.4029 18.2796 99.4224 18.2601C99.442 18.2405 99.4616 18.2013 99.5007 18.1818C99.5203 18.1622 99.5399 18.1426 99.5594 18.1231L102.28 15.2265H102.73L101.869 19.2191Z" fill="#2E2520"/>
<path d="M58.5183 0.234856V11.3318H46.2862V8.67011H55.563V4.18827L51.2769 8.02425H46.9516L55.563 0.234856H58.5183Z" fill="#2E2520"/>
<path d="M66.9536 4.22741C67.0906 4.07084 67.1493 3.8947 67.1493 3.67941C67.1493 3.44456 67.0906 3.26842 66.9536 3.13142C66.8166 2.99442 66.6404 2.91613 66.4056 2.91613H63.1567V11.3514H60.2015V2.91613L63.1567 0.254429H66.9536C67.8538 0.254429 68.5976 0.56757 69.2043 1.21342C69.7914 1.83971 70.1046 2.68128 70.1046 3.69899C70.1046 4.18827 69.9871 4.61884 69.7523 4.99069C69.5174 5.36255 69.2043 5.63655 68.8128 5.85183C69.1847 5.96926 69.4978 6.22369 69.7327 6.61512C69.9676 7.00654 70.1046 7.45668 70.1046 7.9264C70.1046 8.96368 69.811 9.78567 69.2043 10.4315C68.5976 11.0578 67.8538 11.3905 66.9731 11.3905H63.8417V8.67011H66.4251C66.66 8.67011 66.8361 8.59182 66.9731 8.43525C67.1101 8.27868 67.1689 8.10254 67.1689 7.88725C67.1689 7.6524 67.1101 7.47626 66.9731 7.33926C66.8361 7.20226 66.66 7.12397 66.4251 7.12397H63.8417V4.46227H66.4251C66.6404 4.46227 66.8361 4.38398 66.9536 4.22741Z" fill="#2E2520"/>
<path d="M71.729 11.3318V2.91613L74.6842 0.254429H82.2975L79.3422 2.91613H74.6842V4.46227H79.3422V7.12397H74.6842V8.67011H79.3422V11.3318H71.729Z" fill="#2E2520"/>
<path d="M89.03 7.63283C88.208 8.31782 87.2882 8.67011 86.2509 8.67011H85.6246V6.0084H86.2509C86.6619 6.0084 87.0338 5.87141 87.3469 5.57784C87.66 5.28427 87.7971 4.91241 87.7971 4.46227C87.7971 4.01213 87.6405 3.64027 87.3273 3.3467C87.0142 3.05313 86.6619 2.91613 86.2509 2.91613H84.9396V11.3514H81.9844V2.91613L84.9396 0.254429H86.2705C87.3078 0.254429 88.2276 0.606713 89.0496 1.31128C90.0086 2.11371 90.4783 3.17056 90.4783 4.48184C90.4588 5.77355 89.989 6.8304 89.03 7.63283Z" fill="#2E2520"/>
<path d="M94.8036 0.0195732V4.89284L99.9117 0.234858H102.456V11.3514H99.5007V4.65798L91.8483 11.5471V2.70085L94.8036 0.0195732Z" fill="#2E2520"/>
<path d="M12.1147 12.7018C10.7055 13.8957 9.12025 14.4828 7.33925 14.4828H6.26283V9.9031H7.33925C8.06339 9.9031 8.68968 9.66824 9.19853 9.15939C9.72696 8.67011 9.98139 8.02425 9.98139 7.2414C9.98139 6.45854 9.70739 5.83226 9.17896 5.34298C8.65053 4.85369 8.02425 4.59927 7.31968 4.59927H5.06898V19.0821H0V4.59927L5.06898 0H7.35883C9.12025 0 10.7251 0.606712 12.1342 1.80056C13.7587 3.19013 14.5807 5.01026 14.5807 7.2414C14.5807 9.4921 13.7587 11.3122 12.1147 12.7018Z" fill="#61C100"/>
<path d="M25.8733 4.57969C24.699 4.77541 23.7596 5.30383 23.0159 6.22369C22.2918 7.12397 21.9199 8.21996 21.9199 9.51167C21.9199 10.8425 22.4288 11.9972 23.4465 12.9954C24.4642 13.9935 25.6385 14.4828 26.9693 14.4828V0H32.6059C35.1501 0 37.3813 0.958996 39.2993 2.87699C41.2173 4.79498 42.1762 7.02611 42.1762 9.57039C42.1762 12.1734 41.2955 14.4045 39.5537 16.2638C37.7923 18.1426 35.6786 19.0821 33.1539 19.0821V14.4828C34.3281 14.2871 35.2676 13.7391 36.0113 12.8388C36.7354 11.9385 37.1073 10.8425 37.1073 9.55082C37.1073 8.21996 36.5984 7.04568 35.6003 6.06712C34.6021 5.08855 33.4083 4.57969 32.0579 4.57969V19.0625H26.4213C23.877 19.0625 21.6459 18.1035 19.7279 16.1855C17.8099 14.2871 16.8509 12.0559 16.8509 9.51167C16.8509 6.90868 17.7316 4.67755 19.4735 2.81827C21.2349 0.939424 23.3486 0 25.8733 0V4.57969Z" fill="#61C100"/>
</svg>
