<svg width="38" height="35" viewBox="0 0 38 35" fill="none" xmlns="http://www.w3.org/2000/svg">
<path d="M28.8356 32.0547C29.2466 32.0547 29.589 31.7122 29.589 31.3013C29.589 30.8903 29.2466 30.5479 28.8356 30.5479C28.4247 30.5479 28.0822 30.8903 28.0822 31.3013C28.0822 31.7122 28.4247 32.0547 28.8356 32.0547Z" fill="#61C100"/>
<path d="M16.7123 32.0547C17.1233 32.0547 17.4658 31.7122 17.4658 31.3013C17.4658 30.8903 17.1233 30.5479 16.7123 30.5479C16.3014 30.5479 15.9589 30.8903 15.9589 31.3013C15.9589 31.7122 16.3014 32.0547 16.7123 32.0547Z" fill="#61C100"/>
<path d="M37.1233 9.0411C36.9863 8.83562 36.7808 8.76712 36.5753 8.76712H10.3425L8.69863 1.71233C8.49315 0.753425 7.60274 0 6.57535 0H2.19178C0.958902 0 0 0.958904 0 2.19178C0 3.42466 0.958902 4.38356 2.19178 4.38356H4.86302L10.274 27.4658C10.4795 28.4247 11.3699 29.1781 12.3973 29.1781H13.8356C13.3562 29.7945 13.0822 30.5479 13.0822 31.3699C13.0822 33.3562 14.726 35 16.7123 35C18.6986 35 20.3425 33.3562 20.3425 31.3699C20.3425 30.5479 20.0685 29.7945 19.589 29.1781H25.8904C25.411 29.7945 25.137 30.5479 25.137 31.3699C25.137 33.3562 26.7808 35 28.7671 35C30.7534 35 32.3973 33.3562 32.3973 31.3699C32.3973 30.5479 32.1233 29.7945 31.6438 29.1781C32.8767 29.1781 33.8356 28.2192 33.8356 26.9863C33.8356 25.7534 32.8767 24.7945 31.6438 24.7945H13.9726L13.2877 21.8493H17.5343H28.1507H32.3288C33.3562 21.8493 34.1781 21.1644 34.4521 20.2055L37.1233 9.65753C37.3288 9.45205 37.2603 9.17808 37.1233 9.0411ZM34.5205 14.589H29.863L30.411 10.2055H35.6164L34.5205 14.589ZM25.8904 16.0274H28.2192L27.6712 20.411H23.6986V18.2192C23.6986 17.8082 23.3562 17.4658 22.9452 17.4658C22.5342 17.4658 22.1918 17.8082 22.1918 18.2192V20.411H18.2192L17.6712 16.0274H20C20.411 16.0274 20.7534 15.6849 20.7534 15.274C20.7534 14.863 20.411 14.5205 20 14.5205H17.5343L16.9863 10.137H22.1918V12.3288C22.1918 12.7397 22.5342 13.0822 22.9452 13.0822C23.3562 13.0822 23.6986 12.7397 23.6986 12.3288V10.137H28.9041L28.4247 14.589H25.9589C25.5479 14.589 25.2055 14.9315 25.2055 15.3425C25.2055 15.7534 25.4795 16.0274 25.8904 16.0274ZM13.0822 20.411L12.0548 16.0274H16.3014L16.8493 20.411H13.0822ZM15.5479 10.2055L16.0959 14.589H11.6438L10.6164 10.2055H15.5479ZM18.9041 31.3699C18.9041 32.6027 17.9452 33.5616 16.7123 33.5616C15.4794 33.5616 14.5205 32.6027 14.5205 31.3699C14.5205 30.137 15.4794 29.1781 16.7123 29.1781C17.9452 29.1781 18.9041 30.137 18.9041 31.3699ZM31.0274 31.3699C31.0274 32.6027 30.0685 33.5616 28.8356 33.5616C27.6027 33.5616 26.6438 32.6027 26.6438 31.3699C26.6438 30.137 27.6027 29.1781 28.8356 29.1781C30.0685 29.1781 31.0274 30.137 31.0274 31.3699ZM31.7123 26.2329C32.1233 26.2329 32.4657 26.5753 32.4657 26.9863C32.4657 27.3973 32.1233 27.7397 31.7123 27.7397H12.3288C11.9863 27.7397 11.7123 27.5342 11.6438 27.1918L5.9589 2.94521H2.19178C1.78082 2.94521 1.43836 2.60274 1.43836 2.19178C1.43836 1.78082 1.78082 1.43836 2.19178 1.43836H6.57535C6.91781 1.43836 7.19179 1.64384 7.26028 1.9863L11.7808 21.2329L12.9452 26.1644H31.7123V26.2329ZM33.2192 19.863C33.1507 20.2055 32.8767 20.411 32.5342 20.411H29.1096L29.6575 16.0274H34.1096L33.2192 19.863Z" fill="#61C100"/>
<path d="M23.0137 14.5891C22.6027 14.5891 22.2603 14.9316 22.2603 15.3425C22.2603 15.7535 22.6027 16.096 23.0137 16.096C23.4247 16.096 23.7671 15.7535 23.7671 15.3425C23.7671 14.9316 23.4247 14.5891 23.0137 14.5891Z" fill="#61C100"/>
</svg>
