<svg width="25" height="24" viewBox="0 0 25 24" fill="none" xmlns="http://www.w3.org/2000/svg">
<path d="M16.7051 1.69271C16.7819 1.6554 16.8587 1.6181 16.8971 1.6181C16.9355 1.6181 17.0507 1.6181 17.1659 1.73001L19.5468 4.86347H21.6206L18.51 0.760126C17.8955 -0.0605434 16.5899 -0.247059 15.745 0.349791L14.5929 1.20776L15.5914 2.51337L16.7051 1.69271Z" fill="#61C100"/>
<path d="M10.9831 1.69271C11.0599 1.6554 11.1367 1.6181 11.1751 1.6181C11.2135 1.6181 11.3287 1.6181 11.4439 1.73001L13.8249 4.86347H15.8986L12.788 0.760126C12.1736 -0.0605434 10.8679 -0.247059 10.023 0.349791L3.64823 4.93808H6.45161L10.9831 1.69271Z" fill="#61C100"/>
<path d="M13.4409 15.2711C13.4409 13.294 15.0922 11.69 17.1275 11.69H23.3871V8.03425C23.3871 7.21358 22.6959 6.54212 21.851 6.54212H1.5361C0.691244 6.54212 0 7.21358 0 8.03425V22.5079C0 23.3285 0.691244 24 1.5361 24H21.8894C22.7343 24 23.4255 23.3285 23.4255 22.5079V18.8522H17.1275C15.0922 18.8522 13.4409 17.2481 13.4409 15.2711Z" fill="#61C100"/>
<path d="M24.1936 12.8837H17.1275C15.7834 12.8837 14.6697 13.9655 14.6697 15.2711C14.6697 16.5767 15.7834 17.6585 17.1275 17.6585H24.1936C24.6544 17.6585 25 17.3227 25 16.8751V13.7043C25 13.2194 24.6544 12.8837 24.1936 12.8837Z" fill="#61C100"/>
</svg>
