<svg width="35" height="35" viewBox="0 0 35 35" fill="none" xmlns="http://www.w3.org/2000/svg">
<path d="M7.5641 18.2051C7.17949 18.2051 6.85898 18.5256 6.85898 18.9102C6.85898 19.2948 7.17949 19.6153 7.5641 19.6153C7.94872 19.6153 8.26923 19.2948 8.26923 18.9102C8.26923 18.5256 7.88461 18.2051 7.5641 18.2051Z" fill="#61C100"/>
<path d="M33.4615 14.0385C33.3974 13.7179 33.5256 13.2692 33.5897 12.7564C33.782 12.0513 33.9103 11.2821 33.6538 10.5769C33.3333 9.8718 32.6923 9.42308 32.0513 9.03846C31.6667 8.78205 31.2821 8.52564 31.0897 8.26923C30.8974 8.01282 30.8333 7.5 30.7692 7.05128C30.641 6.34615 30.5128 5.57692 30 5C29.4872 4.42308 28.6539 4.29487 27.9487 4.23077C27.5 4.16667 26.9872 4.10256 26.7308 3.91026C26.4744 3.71795 26.2179 3.33333 25.9615 2.94872C25.5769 2.37179 25.1923 1.66667 24.4231 1.34615C23.718 1.02564 22.9487 1.21795 22.2436 1.41026C21.7949 1.53846 21.3462 1.60256 20.9615 1.53846C20.641 1.47436 20.1923 1.21795 19.7436 0.897436C19.0385 0.448718 18.2692 0 17.5 0C16.7308 0 15.9615 0.448718 15.2564 0.897436C14.8077 1.15385 14.359 1.47436 14.0385 1.53846C13.718 1.60256 13.2692 1.47436 12.7564 1.41026C12.0513 1.21795 11.2821 1.08974 10.5769 1.34615C9.8718 1.66667 9.42308 2.30769 9.03847 2.94872C8.78206 3.33333 8.52565 3.71795 8.26924 3.91026C8.01283 4.10256 7.5 4.16667 7.05128 4.23077C6.34615 4.35897 5.57693 4.48718 5 5C4.42308 5.57692 4.29488 6.34615 4.23077 7.05128C4.16667 7.5 4.10257 8.01282 3.91026 8.26923C3.71795 8.52564 3.33334 8.78205 2.94872 9.03846C2.3718 9.42308 1.66667 9.80769 1.34616 10.5769C1.02565 11.2821 1.21796 12.0513 1.41026 12.7564C1.53847 13.2051 1.60257 13.6538 1.53847 14.0385C1.47436 14.359 1.21795 14.8077 0.897442 15.2564C0.448724 15.9615 0 16.7308 0 17.5C0 18.2692 0.448724 19.0385 0.897442 19.7436C1.15385 20.1923 1.47436 20.641 1.53847 20.9615C1.60257 21.282 1.47437 21.7308 1.41026 22.2436C1.21796 22.9487 1.08975 23.7179 1.34616 24.4231C1.66667 25.1282 2.3077 25.5769 2.94872 25.9615C3.33334 26.2179 3.71795 26.4744 3.91026 26.7308C4.10257 26.9872 4.16667 27.5 4.23077 27.9487C4.35898 28.6538 4.48718 29.4231 5 30C5.57693 30.5769 6.34615 30.7051 7.05128 30.7692C7.5 30.8333 8.01283 30.8974 8.26924 31.0897C8.52565 31.2821 8.78206 31.6667 9.03847 32.0513C9.42308 32.6282 9.80769 33.3333 10.5769 33.6538C11.2821 33.9744 12.0513 33.7821 12.7564 33.5897C13.2051 33.4615 13.6539 33.3974 14.0385 33.4615C14.359 33.5256 14.8077 33.7821 15.2564 34.1026C15.9615 34.5513 16.7308 35 17.5 35C18.2692 35 19.0385 34.5513 19.7436 34.1026C20.1923 33.8462 20.641 33.5256 20.9615 33.4615C21.2821 33.3974 21.7308 33.5256 22.2436 33.5897C22.9487 33.7821 23.718 33.9103 24.4231 33.6538C25.1282 33.3333 25.5769 32.6923 25.9615 32.0513C26.2179 31.6667 26.4744 31.2821 26.7308 31.0897C26.9872 30.8974 27.5 30.8333 27.9487 30.7692C28.6539 30.641 29.4231 30.5128 30 30C30.5769 29.4231 30.7051 28.6538 30.7692 27.9487C30.8333 27.5 30.8974 26.9872 31.0897 26.7308C31.2821 26.4744 31.6667 26.2179 32.0513 25.9615C32.6282 25.5769 33.3333 25.1923 33.6538 24.4231C33.9744 23.7179 33.782 22.9487 33.5897 22.2436C33.4615 21.7949 33.3974 21.3462 33.4615 20.9615C33.5257 20.641 33.7821 20.1923 34.1026 19.7436C34.5513 19.0385 35 18.2692 35 17.5C35 16.7308 34.5513 15.9615 34.1026 15.2564C33.8462 14.8077 33.5257 14.359 33.4615 14.0385ZM32.8846 19.1026C32.5641 19.6795 32.2436 20.2564 32.1154 20.7692C31.9872 21.4103 32.1154 21.9872 32.3077 22.6282C32.4359 23.141 32.5641 23.6538 32.4359 23.9744C32.3077 24.2949 31.859 24.5513 31.4103 24.8718C30.8974 25.1923 30.3846 25.5128 30 26.0256C29.6795 26.5385 29.5513 27.1795 29.4231 27.7564C29.359 28.2692 29.2308 28.8462 29.0385 29.0385C28.7821 29.2949 28.2692 29.359 27.7564 29.4231C27.1795 29.5513 26.5385 29.6154 26.0256 30C25.5128 30.3205 25.1923 30.8974 24.8718 31.4103C24.6154 31.859 24.2949 32.3077 23.9744 32.4359C23.6538 32.5641 23.141 32.4359 22.6282 32.3077C22.0513 32.1795 21.4103 32.0513 20.7692 32.1154C20.1923 32.2436 19.6154 32.5641 19.1026 32.8846C18.5898 33.2051 17.9487 33.5897 17.5641 33.5897C17.1795 33.5897 16.5385 33.2051 16.0256 32.8846C15.4487 32.5641 14.8718 32.2436 14.359 32.1154C13.718 31.9872 13.141 32.1154 12.5 32.3077C11.9872 32.4359 11.4744 32.5641 11.1539 32.4359C10.8333 32.3077 10.5769 31.859 10.2564 31.4103C9.9359 30.8974 9.61539 30.3846 9.10257 30C8.58975 29.6795 7.94872 29.5513 7.3718 29.4231C6.85897 29.359 6.28205 29.2308 6.08974 29.0385C5.83333 28.7821 5.76924 28.2692 5.70513 27.7564C5.57693 27.1795 5.51282 26.5385 5.12821 26.0256C4.80769 25.5128 4.23077 25.1923 3.71795 24.8718C3.26923 24.6154 2.82052 24.2949 2.69232 23.9744C2.56411 23.6538 2.69231 23.141 2.82052 22.6282C2.94872 22.0513 3.07693 21.4103 3.01283 20.7692C2.88462 20.1923 2.5641 19.6154 2.24359 19.1026C1.92308 18.5897 1.53847 17.9487 1.53847 17.5641C1.53847 17.1795 1.92308 16.5385 2.24359 16.0256C2.5641 15.4487 2.88462 14.8718 3.01283 14.359C3.14103 13.7179 3.01283 13.141 2.82052 12.5C2.69231 11.9872 2.56411 11.4744 2.69232 11.1538C2.82052 10.8333 3.26923 10.5769 3.71795 10.2564C4.23077 9.9359 4.74359 9.61539 5.12821 9.10256C5.44872 8.58974 5.57693 7.94872 5.70513 7.3718C5.76924 6.85897 5.89744 6.28205 6.08974 6.08974C6.34615 5.83333 6.85897 5.76923 7.3718 5.70513C7.94872 5.57692 8.58975 5.51282 9.10257 5.12821C9.61539 4.80769 9.9359 4.23077 10.2564 3.71795C10.5128 3.26923 10.8333 2.82051 11.1539 2.69231C11.4744 2.5641 11.9872 2.69231 12.5 2.82051C13.0769 2.94872 13.718 3.07692 14.359 3.01282C14.9359 2.88462 15.5128 2.5641 16.0256 2.24359C16.5385 1.92308 17.1795 1.53846 17.5641 1.53846C17.9487 1.53846 18.5898 1.92308 19.1026 2.24359C19.6795 2.5641 20.2564 2.88462 20.7692 3.01282C21.4103 3.14103 21.9872 3.01282 22.6282 2.82051C23.141 2.69231 23.6538 2.5641 23.9744 2.69231C24.2949 2.82051 24.5513 3.26923 24.8718 3.71795C25.1923 4.23077 25.5128 4.74359 26.0256 5.12821C26.5385 5.44872 27.1795 5.57692 27.7564 5.70513C28.2692 5.76923 28.8462 5.89744 29.0385 6.08974C29.2949 6.34615 29.359 6.85897 29.4231 7.3718C29.5513 7.94872 29.6154 8.58974 30 9.10256C30.3205 9.61539 30.8974 9.9359 31.4103 10.2564C31.859 10.5128 32.3077 10.8333 32.4359 11.1538C32.5641 11.4744 32.4359 11.9872 32.3077 12.5C32.1795 13.0769 32.0513 13.7179 32.1154 14.359C32.2436 14.9359 32.5641 15.5128 32.8846 16.0256C33.2051 16.5385 33.5897 17.1795 33.5897 17.5641C33.5897 17.9487 33.2692 18.5256 32.8846 19.1026Z" fill="#61C100"/>
<path d="M17.5 4.16675C10.3846 4.16675 4.10258 10.3847 4.10258 17.5642C4.10258 24.6796 10.3205 30.9616 17.5 30.9616C24.6154 30.9616 30.8974 24.7437 30.8974 17.5642C30.8974 10.3847 24.6795 4.16675 17.5 4.16675ZM17.5 29.5514C11.0898 29.5514 5.51283 23.9103 5.51283 17.5642C5.51283 11.218 11.1539 5.577 17.5 5.577C23.9103 5.577 29.4872 11.218 29.4872 17.5642C29.4872 23.9103 23.9103 29.5514 17.5 29.5514Z" fill="#61C100"/>
<path d="M17.5 8.26914C17.8846 8.26914 18.2051 7.94863 18.2051 7.56401C18.2051 7.1794 17.8846 6.85889 17.5 6.85889C12.3718 6.85889 7.69231 11.0897 6.98718 16.0256C6.92308 16.4102 7.17948 16.7307 7.5641 16.7948C7.6282 16.7948 7.6282 16.7948 7.6923 16.7948C8.01282 16.7948 8.33333 16.5384 8.39744 16.2179C8.91026 11.923 13.141 8.26914 17.5 8.26914Z" fill="#61C100"/>
<path d="M23.718 15.8973L19.8077 15.3204L18.0769 11.7948C17.9487 11.5384 17.7564 11.4102 17.4359 11.4102C17.1795 11.4102 16.9231 11.5384 16.7949 11.7948L15.0641 15.3204L11.1539 15.8973C10.8974 15.9614 10.7051 16.0896 10.5769 16.3461C10.5128 16.6025 10.5769 16.8589 10.7692 17.0512L13.5898 19.8076L12.9487 23.7178C12.8846 23.9743 13.0128 24.2307 13.2051 24.3589C13.3974 24.4871 13.718 24.5512 13.9103 24.423L17.3718 22.564L20.8333 24.423C21.0897 24.5512 21.3462 24.5512 21.5385 24.3589C21.7308 24.2307 21.859 23.9743 21.7949 23.7178L21.1538 19.8076L23.9744 17.0512C24.1667 16.8589 24.2308 16.6025 24.1667 16.3461C24.2308 16.1537 23.9744 15.9614 23.718 15.8973ZM20.0641 19.1025C19.8718 19.2307 19.8077 19.4871 19.8718 19.6794L20.3846 22.564L17.8205 21.2178C17.6282 21.0896 17.3718 21.0896 17.1795 21.2178L14.6154 22.564L15.1282 19.6794C15.1923 19.4871 15.0641 19.2307 14.9359 19.1025L12.8205 17.0512L15.7051 16.6025C15.8974 16.5384 16.0897 16.4102 16.218 16.2178L17.5 13.5896L18.7821 16.2178C18.9103 16.4102 19.1026 16.5384 19.2949 16.6025L22.1795 17.0512L20.0641 19.1025Z" fill="#61C100"/>
</svg>
