<svg width="15" height="15" viewBox="0 0 15 15" fill="none" xmlns="http://www.w3.org/2000/svg">
<path d="M14.9322 11.9546L14.8443 11.7204C14.6687 11.1934 14.0831 10.6371 13.5561 10.4907L11.5945 9.96374C11.0675 9.81735 10.3063 10.0223 9.89638 10.4029L9.19371 11.1348C6.61727 10.4322 4.56782 8.41201 3.86515 5.80628L4.56782 5.10362C4.94843 4.723 5.15337 3.96178 5.00699 3.4055L4.47998 1.44389C4.3336 0.916887 3.77732 0.33133 3.25032 0.155663L3.01609 0.0678299C2.51837 -0.107837 1.75715 0.0678299 1.37654 0.47772L0.322534 1.53172C0.117589 1.73667 0.000477695 2.26367 0.000477695 2.26367C-0.0288001 5.6599 1.2887 8.90973 3.68948 11.3105C6.09026 13.7113 9.3401 15.0288 12.7071 14.9995C12.7363 14.9995 13.2926 14.8824 13.4683 14.6775L14.5223 13.6235C14.9322 13.2429 15.1078 12.4816 14.9322 11.9546Z" fill="#61C100"/>
</svg>
