<svg width="27" height="27" viewBox="0 0 27 27" fill="none" xmlns="http://www.w3.org/2000/svg">
<path d="M12.5413 19.9009L12.2928 20.894C12.2702 20.9843 12.2905 21.0801 12.3478 21.1534C12.4052 21.2268 12.4931 21.2697 12.5863 21.2697H13.1914V23.3854H13.7964V21.2697H14.4014C14.4946 21.2697 14.5825 21.2268 14.64 21.1534C14.6973 21.0801 14.7175 20.9843 14.6949 20.894L14.4465 19.9009C15.4304 19.278 16.3477 18.5559 17.1841 17.7458C19.1237 15.8596 20.1493 13.8374 20.1493 11.9003C20.1493 8.22792 17.1696 5.25098 13.4939 5.25098C9.81818 5.25098 6.8385 8.22792 6.8385 11.9003C6.8385 13.8374 7.86408 15.8596 9.80311 17.7458C10.6398 18.5559 11.5572 19.278 12.5413 19.9009ZM12.9738 20.6652L13.125 20.0607H13.8627L14.014 20.6652H12.9738ZM13.4939 5.85546C16.8338 5.8593 19.5404 8.56337 19.5442 11.9003C19.5442 15.9448 14.6526 19.0667 14.0152 19.4563H12.9726C12.3349 19.0672 7.44354 15.9502 7.44354 11.9003C7.44738 8.56337 10.1539 5.8593 13.4939 5.85546Z" fill="white"/>
<path d="M11.4844 8.0743L11.1636 7.56043C10.9458 7.69694 10.738 7.84835 10.5415 8.01379L10.9315 8.4763C11.1061 8.32946 11.2909 8.19516 11.4844 8.0743Z" fill="white"/>
<path d="M10.0361 8.4763C9.09276 9.4819 8.56838 10.8088 8.56971 12.1869C8.58625 13.0856 8.82702 13.9659 9.27031 14.7481L9.80311 14.4615C9.40769 13.7673 9.19173 12.9854 9.17474 12.1869C9.17371 10.962 9.63989 9.78251 10.4783 8.88878L10.0361 8.4763Z" fill="white"/>
<path fill-rule="evenodd" clip-rule="evenodd" d="M12.3478 21.1534C12.2905 21.0801 12.2702 20.9843 12.2928 20.894L12.5413 19.9009C11.5572 19.278 10.6398 18.5559 9.80311 17.7458C7.86408 15.8596 6.8385 13.8374 6.8385 11.9003C6.8385 8.22792 9.81818 5.25098 13.4939 5.25098C17.1696 5.25098 20.1493 8.22792 20.1493 11.9003C20.1493 13.8374 19.1237 15.8596 17.1841 17.7458C16.3477 18.5559 15.4304 19.278 14.4465 19.9009L14.6949 20.894C14.7175 20.9843 14.6973 21.0801 14.64 21.1534C14.5825 21.2268 14.4946 21.2697 14.4014 21.2697H13.7964V23.3854H13.1914V21.2697H12.5863C12.4931 21.2697 12.4052 21.2268 12.3478 21.1534ZM13.0082 21.4529H12.5863C12.4366 21.4529 12.2956 21.3839 12.2036 21.2664L12.2034 21.2662C12.1113 21.1483 12.0789 20.9945 12.1151 20.8495L12.3316 19.9844C11.3792 19.3711 10.4896 18.6655 9.6757 17.8774L9.67539 17.8771C7.71524 15.9704 6.65533 13.9038 6.65533 11.9003C6.65533 8.1266 9.71718 5.0678 13.4939 5.0678C17.2706 5.0678 20.3325 8.1266 20.3325 11.9003C20.3325 13.9038 19.2725 15.9704 17.3118 17.8771L17.3115 17.8774C16.4979 18.6654 15.6085 19.3711 14.6562 19.9843L14.8726 20.8495C14.9089 20.9944 14.8765 21.1483 14.7843 21.2662L14.7842 21.2664C14.6921 21.3839 14.5511 21.4529 14.4014 21.4529H13.9796V23.5686H13.0082V21.4529ZM11.7368 8.13263L11.5814 8.22966C11.3952 8.34598 11.2174 8.47521 11.0494 8.61649L10.9094 8.73424L10.2833 7.99174L10.4235 7.87367C10.6266 7.70271 10.8413 7.54626 11.0663 7.40523L11.2217 7.30775L11.7368 8.13263ZM10.0274 8.21776L10.7376 8.88013L10.6119 9.0141C9.80579 9.87341 9.3574 11.0072 9.35792 12.1848C9.37455 12.9523 9.58224 13.7036 9.96228 14.3708L10.0552 14.5339L9.19929 14.9943L9.11095 14.8384C8.65261 14.0297 8.40367 13.1195 8.38656 12.1902L8.38653 12.1886L8.38653 12.187C8.38516 10.7623 8.92729 9.39055 9.90246 8.35098L10.0274 8.21776ZM9.17474 12.1869C9.17372 10.9713 9.63282 9.80047 10.4592 8.90924C10.4656 8.9024 10.4719 8.89558 10.4783 8.88878L10.0361 8.4763C10.029 8.48386 10.0219 8.49145 10.0148 8.49905C9.98032 8.53627 9.94637 8.57393 9.913 8.61201C9.04727 9.59972 8.56844 10.8699 8.56971 12.1869C8.58625 13.0856 8.82702 13.9659 9.27031 14.7481L9.80311 14.4615C9.77286 14.4084 9.74365 14.3547 9.7155 14.3006C9.3758 13.6475 9.19043 12.9243 9.17474 12.1869ZM12.9738 20.6652H14.014L13.8627 20.0607H13.125L12.9738 20.6652ZM13.2084 20.482H13.7793L13.7197 20.2439H13.268L13.2084 20.482ZM19.3611 11.9005C19.3573 8.66481 16.7329 6.04247 13.4939 6.03863C10.2549 6.04247 7.63049 8.66475 7.62671 11.9004C7.62676 13.8528 8.80831 15.6002 10.1 16.9232C11.3347 18.1878 12.6433 19.0373 13.0244 19.2731H13.9633C14.3443 19.0368 15.653 18.1861 16.8876 16.9209C18.1794 15.5973 19.361 13.8501 19.3611 11.9005ZM19.5442 11.9003C19.5404 8.56337 16.8338 5.8593 13.4939 5.85546C10.1539 5.8593 7.44738 8.56337 7.44354 11.9003C7.44354 15.9502 12.3349 19.0672 12.9726 19.4563H14.0152C14.6526 19.0667 19.5442 15.9448 19.5442 11.9003ZM11.1636 7.56043C11.1118 7.59288 11.0606 7.62618 11.01 7.6603C10.8983 7.73558 10.7894 7.8149 10.6836 7.89814C10.6356 7.93589 10.5883 7.97444 10.5415 8.01379L10.9315 8.4763C11.1061 8.32946 11.2909 8.19516 11.4844 8.0743L11.1636 7.56043Z" fill="white"/>
<path d="M25.6078 10.6547C25.4666 10.4348 25.3963 10.1769 25.4065 9.91576L25.5041 8.10237C25.5587 7.13354 25.0335 6.22482 24.167 5.78834L22.5611 4.97622C22.3288 4.85982 22.1401 4.6714 22.0237 4.43885L21.2116 2.83296C20.7754 1.96646 19.8664 1.44126 18.8976 1.49588L17.0842 1.59366C16.8225 1.6075 16.5635 1.5369 16.3453 1.39212L14.8434 0.403022C14.0284 -0.134341 12.9716 -0.134341 12.1568 0.403022L10.6547 1.39212C10.4348 1.53332 10.1769 1.60368 9.91576 1.59366L8.10237 1.49588C7.13354 1.44126 6.22482 1.96646 5.78834 2.83296L4.97622 4.43885C4.85982 4.6714 4.6714 4.85982 4.43885 4.97622L2.83296 5.78834C1.96646 6.22482 1.44126 7.13354 1.49588 8.10237L1.59366 9.91576C1.60821 10.1774 1.53762 10.4367 1.39212 10.6547L0.403022 12.1568C-0.134341 12.9716 -0.134341 14.0284 0.403022 14.8434L1.39212 16.3453C1.53332 16.5652 1.60368 16.823 1.59366 17.0842L1.49588 18.8976C1.44126 19.8664 1.96646 20.7754 2.83296 21.2116L4.43885 22.0237C4.6714 22.1401 4.85982 22.3288 4.97622 22.5611L5.78834 24.167C6.22482 25.0335 7.13354 25.5587 8.10237 25.5041L9.91576 25.4065C10.1774 25.3924 10.4364 25.4633 10.6547 25.6078L12.1568 26.5972C12.9716 27.1343 14.0284 27.1343 14.8434 26.5972L16.3453 25.6078C16.5652 25.4666 16.823 25.3963 17.0842 25.4065L18.8976 25.5041C19.8664 25.5587 20.7754 25.0335 21.2116 24.167L22.0237 22.5611C22.1401 22.3288 22.3288 22.1401 22.5611 22.0237L24.167 21.2116C25.0335 20.7754 25.5587 19.8664 25.5041 18.8976L25.4065 17.0842C25.3917 16.8225 25.4623 16.5633 25.6078 16.3453L26.5972 14.8434C27.1343 14.0284 27.1343 12.9716 26.5972 12.1568L25.6078 10.6547ZM25.5773 14.1717L24.5882 15.6736C24.3005 16.1108 24.1615 16.6289 24.1913 17.1512L24.2891 18.9648C24.3132 19.45 24.0501 19.9041 23.6175 20.1249L22.0116 20.9368C21.5446 21.1718 21.1658 21.5508 20.9309 22.0178L20.1187 23.6234C19.8991 24.0573 19.4442 24.3208 18.9586 24.2951L17.1452 24.1975C16.6231 24.1706 16.1058 24.3094 15.6677 24.5944L14.1717 25.5773C13.7641 25.8461 13.2358 25.8461 12.8284 25.5773L11.3263 24.5882C10.9254 24.3253 10.4565 24.1853 9.97682 24.1853C9.93198 24.1844 9.88714 24.1863 9.84254 24.1913L8.02914 24.2891C7.54402 24.3132 7.08965 24.0501 6.86903 23.6175L6.0569 22.0116C5.82197 21.5446 5.44322 21.1658 4.97622 20.9309L3.37033 20.1187C2.93648 19.8991 2.67316 19.4442 2.69868 18.9586L2.79647 17.1452C2.82342 16.6231 2.68437 16.1058 2.39959 15.6677L1.42265 14.1717C1.15385 13.7641 1.15385 13.2358 1.42265 12.8284L2.41175 11.3263C2.6994 10.8891 2.83845 10.3711 2.80864 9.84874L2.71085 8.03535C2.687 7.54998 2.94983 7.09585 3.38249 6.87523L4.98838 6.06311C5.45538 5.82817 5.83437 5.44918 6.06907 4.98242L6.8812 3.37653C7.10086 2.94268 7.5557 2.67912 8.04131 2.70488L9.8547 2.80243C10.3768 2.82939 10.8941 2.69057 11.3325 2.40555L12.8284 1.42265C13.2358 1.15385 13.7641 1.15385 14.1717 1.42265L15.6736 2.41175C16.1108 2.6994 16.6289 2.83845 17.1512 2.80864L18.9648 2.71085C19.45 2.687 19.9041 2.94983 20.1249 3.38249L20.9368 4.98838C21.1718 5.45538 21.5508 5.83437 22.0178 6.06907L23.6234 6.8812C24.0573 7.10086 24.3208 7.5557 24.2951 8.04131L24.1975 9.8547C24.1706 10.3768 24.3094 10.8941 24.5944 11.3325L25.5835 12.8344C25.8473 13.2418 25.8449 13.7667 25.5773 14.1717Z" fill="white"/>
</svg>
