<svg width="25" height="27" viewBox="0 0 25 27" fill="none" xmlns="http://www.w3.org/2000/svg">
<path d="M17.0424 11.5884C17.0424 10.9972 16.5733 10.5242 15.987 10.5242H5.23779C4.65147 10.5242 4.18242 10.9972 4.18242 11.5884C4.18242 12.1796 4.65147 12.6526 5.23779 12.6526H16.0261C16.5733 12.6526 17.0424 12.1796 17.0424 11.5884Z" fill="#61C100"/>
<path d="M5.23779 14.781C4.65147 14.781 4.18242 15.254 4.18242 15.8452C4.18242 16.4365 4.65147 16.9095 5.23779 16.9095H11.7655C12.3518 16.9095 12.8209 16.4365 12.8209 15.8452C12.8209 15.254 12.3518 14.781 11.7655 14.781H5.23779Z" fill="#61C100"/>
<path d="M7.70033 24.9109H4.18241C3.00977 24.9109 2.07166 23.965 2.07166 22.7825V4.21752C2.07166 3.03504 3.00977 2.08905 4.18241 2.08905H17.0423C18.215 2.08905 19.1531 3.03504 19.1531 4.21752V10.7212C19.1531 11.3124 19.6221 11.7854 20.2085 11.7854C20.7948 11.7854 21.2638 11.3124 21.2638 10.7212V4.21752C21.2248 1.89197 19.3485 0 17.0423 0H4.18241C1.87622 0 0 1.89197 0 4.21752V22.7825C0 25.108 1.87622 27 4.18241 27H7.70033C8.28664 27 8.7557 26.527 8.7557 25.9358C8.7557 25.3445 8.24756 24.9109 7.70033 24.9109Z" fill="#61C100"/>
<path d="M23.101 15.2539C21.8892 14.032 19.8958 14.032 18.6449 15.2539L12.899 21.0481C12.7818 21.1664 12.7036 21.324 12.6254 21.4817L11.3746 25.6204C11.2573 25.9751 11.3746 26.3693 11.6091 26.6452C11.8046 26.8423 12.0782 26.9605 12.3518 26.9605C12.43 26.9605 12.5472 26.9605 12.6254 26.9211L16.8469 25.7386C17.0033 25.6992 17.1596 25.581 17.316 25.4627L23.0619 19.708C24.3127 18.5255 24.3127 16.5153 23.101 15.2539ZM16.0651 23.8466L13.9544 24.4379L14.5798 22.3883L18.4495 18.4861L19.9348 19.9839L16.0651 23.8466ZM21.6156 18.2496L21.4202 18.4466L19.9348 16.9883L20.1303 16.7912C20.5212 16.397 21.1857 16.397 21.6156 16.7912C22.0065 17.1853 22.0065 17.8554 21.6156 18.2496Z" fill="#61C100"/>
<path d="M15.987 6.34607H5.23779C4.65147 6.34607 4.18242 6.81906 4.18242 7.4103C4.18242 8.00154 4.65147 8.47454 5.23779 8.47454H16.0261C16.6124 8.47454 17.0814 8.00154 17.0814 7.4103C17.0814 6.81906 16.5733 6.34607 15.987 6.34607Z" fill="#61C100"/>
</svg>
