<svg width="10" height="11" viewBox="0 0 10 11" fill="none" xmlns="http://www.w3.org/2000/svg">
<path d="M9.76684 0.272021C9.45596 -0.0388601 8.93783 -0.0388601 8.62694 0.272021L5 3.89896L1.37306 0.272021C1.01036 -0.0906736 0.544042 -0.0906736 0.233161 0.272021C-0.0777202 0.634715 -0.0777202 1.10104 0.233161 1.41192L3.8601 5.03886L0.233161 8.6658C-0.0777202 8.97669 -0.0777202 9.49482 0.233161 9.8057C0.388601 9.96114 0.595855 10.0648 0.803109 10.0648C1.01036 10.0648 1.21762 9.96114 1.37306 9.8057L5 6.17876L8.62694 9.8057C8.78238 9.96114 8.98964 10.0648 9.19689 10.0648C9.40415 10.0648 9.6114 9.96114 9.76684 9.8057C10.0777 9.49482 10.0777 8.97669 9.76684 8.6658L6.08808 5.03886L9.71503 1.41192C10.0259 1.04922 10.0259 0.582902 9.76684 0.272021Z" fill="#FB6C3F"/>
</svg>
