<svg width="19" height="18" viewBox="0 0 19 18" fill="none" xmlns="http://www.w3.org/2000/svg">
<path d="M3.06506 12.4446C0.233358 9.61289 0.233358 4.95548 3.06506 2.12378C5.89677 -0.707926 10.5542 -0.707926 13.3859 2.12378C15.8077 4.54563 16.1803 8.12252 14.5037 10.9542C14.5037 10.9542 14.3919 11.1405 14.5409 11.3268L18.2668 15.0527C19.012 15.7979 19.1983 16.8412 18.5277 17.4746L18.4159 17.5864C17.7452 18.257 16.7019 18.0707 15.994 17.3256L12.2681 13.5996C12.0818 13.4133 11.8955 13.5624 11.8955 13.5624C9.0638 15.2018 5.48691 14.8664 3.06506 12.4446ZM12.0445 11.1033C14.1683 8.97948 14.1683 5.58889 12.0445 3.46511C9.92077 1.34133 6.53017 1.34133 4.40639 3.46511C2.28262 5.58889 2.28262 8.97948 4.40639 11.1033C6.53017 13.1898 9.95802 13.1898 12.0445 11.1033Z" fill="#61C100"/>
</svg>
