<svg width="18" height="18" viewBox="0 0 18 18" fill="none" xmlns="http://www.w3.org/2000/svg">
<path d="M17.9186 14.3456L17.8132 14.0645C17.6024 13.4321 16.8997 12.7646 16.2673 12.5889L13.9134 11.9565C13.281 11.7808 12.3675 12.0267 11.8757 12.4835L11.0325 13.3618C7.94072 12.5186 5.48138 10.0944 4.63818 6.96754L5.48138 6.12434C5.93812 5.66761 6.18405 4.75414 6.00838 4.0866L5.37598 1.73267C5.20031 1.10026 4.53278 0.397596 3.90038 0.186796L3.61931 0.0813959C3.02204 -0.129404 2.10858 0.0813959 1.65184 0.573263L0.387041 1.83807C0.141107 2.084 0.000573234 2.7164 0.000573234 2.7164C-0.0345602 6.79187 1.54644 10.6917 4.42738 13.5726C7.30832 16.4536 11.2081 18.0346 15.2485 17.9994C15.2836 17.9994 15.9511 17.8589 16.1619 17.613L17.4267 16.3482C17.9186 15.8914 18.1294 14.978 17.9186 14.3456Z" fill="#61C100"/>
</svg>
