<svg width="15" height="15" viewBox="0 0 15 15" fill="none" xmlns="http://www.w3.org/2000/svg">
<circle cx="7.5" cy="7.5" r="7" fill="white" stroke="#61C100"/>
<path d="M9.00977 5.50195C9.00977 5.95443 8.87793 6.33203 8.61426 6.63477C8.35059 6.93424 7.97949 7.13607 7.50098 7.24023V7.2793C8.07389 7.35091 8.50358 7.52995 8.79004 7.81641C9.0765 8.09961 9.21973 8.47721 9.21973 8.94922C9.21973 9.63607 8.97721 10.1667 8.49219 10.541C8.00716 10.9121 7.31706 11.0977 6.42188 11.0977C5.63086 11.0977 4.96354 10.9691 4.41992 10.7119V9.69141C4.72266 9.84115 5.04329 9.95671 5.38184 10.0381C5.72038 10.1195 6.0459 10.1602 6.3584 10.1602C6.91178 10.1602 7.3252 10.0576 7.59863 9.85254C7.87207 9.64746 8.00879 9.33008 8.00879 8.90039C8.00879 8.51953 7.85742 8.23958 7.55469 8.06055C7.25195 7.88151 6.77669 7.79199 6.12891 7.79199H5.50879V6.85938H6.13867C7.27799 6.85938 7.84766 6.46549 7.84766 5.67773C7.84766 5.37174 7.74837 5.13574 7.5498 4.96973C7.35124 4.80371 7.05827 4.7207 6.6709 4.7207C6.40072 4.7207 6.1403 4.75977 5.88965 4.83789C5.639 4.91276 5.34277 5.06087 5.00098 5.28223L4.43945 4.48145C5.09375 3.99967 5.85384 3.75879 6.71973 3.75879C7.43913 3.75879 8.00065 3.91341 8.4043 4.22266C8.80794 4.5319 9.00977 4.95833 9.00977 5.50195ZM10.3623 10.3896C10.3623 10.152 10.4242 9.96973 10.5479 9.84277C10.6715 9.71582 10.8506 9.65234 11.085 9.65234C11.3226 9.65234 11.5033 9.71908 11.627 9.85254C11.7507 9.98275 11.8125 10.1618 11.8125 10.3896C11.8125 10.6208 11.749 10.8047 11.6221 10.9414C11.4984 11.0749 11.3193 11.1416 11.085 11.1416C10.8506 11.1416 10.6715 11.0749 10.5479 10.9414C10.4242 10.8079 10.3623 10.624 10.3623 10.3896Z" fill="#61C100"/>
</svg>
