<svg width="32" height="32" viewBox="0 0 32 32" fill="none" xmlns="http://www.w3.org/2000/svg">
<circle cx="15.9649" cy="15.9649" r="15.9649" fill="#1BA5D4"/>
<path fill-rule="evenodd" clip-rule="evenodd" d="M25.2246 16.9759C25.2778 16.9227 25.2246 16.9759 25.2778 16.8695L25.3842 16.3905C26.076 16.3905 26.555 16.3373 27.1403 16.0712L28.3111 15.273C27.9386 15.273 27.5129 15.3794 26.8743 15.273L25.5971 15.0069C25.7035 14.9537 25.8632 14.9537 26.0228 14.9005C26.1825 14.9005 26.2889 14.8473 26.4485 14.8473C26.7678 14.7941 26.9807 14.6876 27.1936 14.5812L28.1515 13.6233C27.7257 13.7829 27.3 13.8894 26.7146 13.8894C26.4485 13.8894 25.3842 13.8894 25.2778 13.6233C25.1713 13.304 25.1713 13.0379 24.9053 12.4525C24.7456 12.08 24.5327 11.7075 24.3199 11.3882C23.8941 10.7496 23.3088 10.1642 22.6702 9.79172L20.0094 9.04669C20.169 8.88704 20.8076 8.7806 21.0205 8.67417C22.1912 8.35487 22.138 7.92914 21.8187 7.82271C21.4462 7.71628 20.5415 8.03558 20.169 8.19522L20.9672 7.4502C20.2222 7.50341 19.7433 7.87593 19.1579 8.24844L19.3708 7.66306C18.6789 7.92914 17.4018 9.57885 17.0292 10.2707L15.5392 13.5701C15.4327 13.5169 14.5281 12.6122 13.8363 12.1865C13.2509 11.8139 12.4526 11.4414 11.7608 11.1221C10.1111 10.3771 8.94035 9.89815 7.29064 9.31277C7.18421 10.8028 8.1421 11.6011 9.31286 12.3993L7.92924 12.559C7.92924 13.1976 8.4614 13.8362 8.7807 14.1555C9.47251 14.7408 9.79181 14.7408 10.4304 14.9537L10.5368 15.0069C9.52573 15.1666 9.84503 15.0601 8.99356 15.6455C8.99356 16.018 9.84503 16.8695 10.4836 17.0291L11.9205 17.1888C11.814 17.2952 11.6544 17.3484 11.548 17.4017C11.3883 17.5081 11.3351 17.5613 11.2287 17.6677C11.0158 17.8806 10.9094 18.1999 11.069 18.5192L12.7187 19.2642C12.6123 19.4239 12.0801 19.8496 11.9205 20.0093C10.9094 20.7011 9.79181 21.18 8.40818 21.2332C7.39707 21.2865 6.43918 21.0736 5.64093 20.7543C4.78947 20.4882 4.41696 20.1689 3.72514 19.6367C3.93801 19.956 4.36374 20.435 4.62982 20.7543C7.23742 23.5215 11.4415 25.0116 15.8053 24.2666C18.4661 23.7876 20.2222 22.8829 21.7655 21.7122C22.0316 21.4993 22.617 20.9672 22.883 20.7543C23.5749 20.0625 24.1602 19.3174 24.6392 18.4128C24.7988 18.1467 25.2246 17.242 25.2246 16.9759Z" fill="white"/>
</svg>
