<svg width="15" height="15" viewBox="0 0 15 15" fill="none" xmlns="http://www.w3.org/2000/svg">
<circle cx="7.5" cy="7.5" r="7" fill="white" stroke="#61C100"/>
<path d="M9.27832 11H4.43945V10.1309L6.28027 8.28027C6.82389 7.72363 7.18359 7.32975 7.35938 7.09863C7.53841 6.86426 7.66862 6.64453 7.75 6.43945C7.83138 6.23438 7.87207 6.01465 7.87207 5.78027C7.87207 5.45801 7.77441 5.2041 7.5791 5.01855C7.38704 4.83301 7.12012 4.74023 6.77832 4.74023C6.50488 4.74023 6.23958 4.79069 5.98242 4.8916C5.72852 4.99251 5.43392 5.1748 5.09863 5.43848L4.47852 4.68164C4.87565 4.34635 5.26139 4.10872 5.63574 3.96875C6.01009 3.82878 6.40885 3.75879 6.83203 3.75879C7.49609 3.75879 8.02832 3.93294 8.42871 4.28125C8.8291 4.6263 9.0293 5.0918 9.0293 5.67773C9.0293 6 8.9707 6.30599 8.85352 6.5957C8.73958 6.88542 8.56217 7.1849 8.32129 7.49414C8.08366 7.80013 7.68652 8.21517 7.12988 8.73926L5.88965 9.94043V9.98926H9.27832V11ZM10.3623 10.3896C10.3623 10.152 10.4242 9.96973 10.5479 9.84277C10.6715 9.71582 10.8506 9.65234 11.085 9.65234C11.3226 9.65234 11.5033 9.71908 11.627 9.85254C11.7507 9.98275 11.8125 10.1618 11.8125 10.3896C11.8125 10.6208 11.749 10.8047 11.6221 10.9414C11.4984 11.0749 11.3193 11.1416 11.085 11.1416C10.8506 11.1416 10.6715 11.0749 10.5479 10.9414C10.4242 10.8079 10.3623 10.624 10.3623 10.3896Z" fill="#61C100"/>
</svg>
