<svg width="32" height="32" viewBox="0 0 32 32" fill="none" xmlns="http://www.w3.org/2000/svg">
<circle cx="15.9649" cy="15.9649" r="15.9649" fill="#44678D"/>
<path fill-rule="evenodd" clip-rule="evenodd" d="M23.6281 17.5613C24.9585 18.7853 25.9164 19.7964 26.4485 20.5946C26.7146 20.9672 26.7678 21.3397 26.7146 21.659C26.6082 21.9783 26.3953 22.1379 26.076 22.1379L22.5637 22.2976C22.0848 22.3508 21.4462 22.0315 20.7544 21.3929C20.0626 20.7543 19.5836 20.2221 19.3175 19.7964C19.1579 19.5303 18.8918 19.4239 18.5193 19.3707C18.1468 19.3175 17.8807 19.5303 17.7743 19.9028L17.6678 21.2865C17.6146 21.5525 17.5082 21.7654 17.3485 21.9251C17.1889 22.0847 17.0292 22.1379 16.8696 22.1911C16.7632 22.1911 16.5503 22.2444 16.231 22.2976C15.3263 22.3508 14.4749 22.2976 13.783 22.1379C13.0912 22.0315 12.4526 21.7654 11.8673 21.3397C11.2819 20.9672 10.8561 20.5946 10.4836 20.2753C10.324 19.9028 9.84503 19.3707 9.20644 18.6789C7.45029 16.1777 6.1731 14.049 5.32164 12.2397C5.00234 11.5479 4.84269 10.9093 4.78947 10.4303C4.94912 10.2707 5.21521 10.2175 5.58772 10.1642C5.96023 10.111 6.54562 10.111 7.29065 10.111C8.03568 10.111 8.46141 10.1642 8.62106 10.1642C8.99357 10.111 9.25965 10.3239 9.47252 10.7496C10.3772 12.7186 11.2287 14.2619 12.0801 15.3794C12.6655 15.9116 13.038 15.8052 13.1977 15.1134C13.2509 15.1134 13.3041 14.2619 13.3041 12.5058C13.3573 11.3882 12.8784 10.6964 11.9737 10.4303C12.1866 9.84494 12.9316 9.57886 14.2088 9.57886C14.5281 9.57886 14.9006 9.57886 15.3795 9.63207C15.8585 9.68529 16.0713 9.68529 16.1246 9.68529C17.1889 9.68529 17.7211 10.111 17.7211 10.9625C17.7211 11.0689 17.7211 11.335 17.6678 11.7607C17.6146 12.1865 17.6146 12.559 17.5614 12.9315C17.5614 13.304 17.5082 13.6765 17.5082 14.1022C17.5082 14.528 17.5614 14.8473 17.6678 15.1666C17.7743 15.4327 17.9339 15.6455 18.0936 15.6987C18.3064 15.5391 18.4661 15.4327 18.6789 15.273C18.8386 15.1666 19.0515 14.9537 19.2643 14.6344C19.4772 14.3683 19.6368 14.1555 19.7433 13.9958C19.8497 13.8362 20.0094 13.5701 20.2222 13.1976C20.4351 12.8251 20.5415 12.559 20.5947 12.4525C20.648 12.3461 20.7544 12.08 20.9673 11.6011C21.1801 11.1753 21.2866 10.9093 21.2866 10.9093L21.3398 10.7496C21.4994 10.4303 21.6059 10.2175 21.7123 10.1642C21.8187 10.111 22.0316 10.0578 22.4041 10.0578H25.7035C26.076 10.0578 26.3421 10.0578 26.3953 10.111C26.4485 10.111 26.555 10.2175 26.7146 10.3771C26.9807 10.6964 26.7678 11.3882 26.0228 12.4525C25.331 13.5169 24.6392 14.4215 24.0006 15.1134C23.1491 16.1245 22.9895 16.9759 23.6281 17.5613Z" fill="white"/>
</svg>
