<svg width="32" height="32" viewBox="0 0 32 32" fill="none" xmlns="http://www.w3.org/2000/svg">
<circle cx="15.9649" cy="15.9649" r="15.9649" fill="#FD3832"/>
<path fill-rule="evenodd" clip-rule="evenodd" d="M24.8121 11.9204C24.6525 10.9093 23.9607 10.111 23.0028 9.95137C22.577 9.89816 22.1513 9.89816 21.6724 9.84494C19.7566 9.73851 17.894 9.68529 15.8718 9.57886C13.7431 9.68529 11.508 9.79172 9.27294 9.89816C8.26183 9.95137 7.41038 10.7496 7.25073 11.7607C7.09108 12.9315 6.98464 14.049 6.93143 15.2198C6.87821 16.9227 6.98464 18.6789 7.25073 20.3818C7.41038 21.3929 8.31505 22.2444 9.27294 22.2976C10.8694 22.404 12.4127 22.4572 14.0092 22.5637C16.67 22.6701 19.3308 22.5637 21.9917 22.404C22.311 22.404 22.6835 22.404 23.0028 22.2976C23.9075 22.1379 24.6525 21.2865 24.8121 20.3818C25.025 19.1046 25.0782 17.8274 25.1314 16.5502C25.1314 15.0069 25.025 13.4637 24.8121 11.9204ZM13.956 18.6789C13.956 16.9227 13.956 15.1666 13.956 13.4104C15.6057 14.3151 17.2022 15.1666 18.8519 16.0713C17.2554 16.9227 15.6057 17.8274 13.956 18.6789Z" fill="white"/>
</svg>
