<svg>
    <symbol id="benefit-1" width="79" height="70" viewBox="0 0 79 70" xmlns="http://www.w3.org/2000/svg">
        <path d="M78.5435 51.4595L74.7773 47.7115C74.172 47.1091 73.195 47.1133 72.5948 47.7205C71.9944 48.3277 71.9986 49.3081 72.6037 49.9103L76.3698 53.6583C76.6707 53.9579 77.0637 54.1074 77.4565 54.1074C77.8535 54.1074 78.2505 53.9546 78.5522 53.6493C79.1527 53.0421 79.1487 52.0617 78.5435 51.4595Z"/>
        <path d="M70.9398 43.8767C70.3371 43.272 69.3603 43.272 68.7573 43.8767L68.7546 43.8793C68.152 44.484 68.1534 45.4632 68.756 46.0679C69.0569 46.3699 69.4518 46.5209 69.8464 46.5209C70.2421 46.5209 70.638 46.3693 70.9396 46.0667C71.5423 45.462 71.5423 44.4815 70.9398 43.8767Z"/>
        <path d="M57.7831 51.0164L72.7542 35.9954C75.0215 33.7203 75.0215 30.0185 72.754 27.7433C71.9544 26.9411 70.9779 26.4231 69.9493 26.1867C70.3021 25.426 70.4888 24.5911 70.4888 23.7271C70.4888 22.1684 69.8838 20.7031 68.7855 19.6012C67.924 18.7367 66.8395 18.1785 65.6624 17.9774C66.3251 15.9515 65.8566 13.6313 64.254 12.0235C63.3728 11.1395 62.2768 10.6007 61.133 10.4038C61.3246 9.82033 61.4257 9.20418 61.4257 8.57193C61.4257 7.01328 60.8207 5.54799 59.7224 4.44604C58.624 3.34409 57.1636 2.73707 55.6103 2.73707C54.6238 2.73707 53.6754 2.9826 52.8328 3.44363L52.6839 3.28309C50.7487 1.19654 48.0095 0 45.169 0H33.0506C32.1984 0 31.5073 0.693402 31.5073 1.54843V3.57894C31.5073 4.39155 31.6443 5.18263 31.9063 5.9265C31.2083 5.63561 30.453 5.48281 29.6744 5.48281C28.1209 5.48281 26.6605 6.08983 25.5621 7.19178C23.9586 8.80058 23.4907 11.1225 24.1549 13.1489C23.0102 13.3454 21.9127 13.8844 21.0307 14.7692C19.9324 15.8713 19.3274 17.3366 19.3274 18.8951C19.3274 19.5261 19.4282 20.1413 19.619 20.7236C18.4433 20.9253 17.3598 21.4832 16.4992 22.3469C14.7283 24.1237 14.3406 26.771 15.3359 28.9289C14.2819 29.1706 13.3139 29.7031 12.5303 30.4891C10.263 32.764 10.263 36.4659 12.5303 38.741L15.6092 41.83L0.452012 57.0374C-0.150671 57.6421 -0.150671 58.6226 0.452012 59.2274C0.753353 59.5296 1.14835 59.681 1.5432 59.681C1.93804 59.681 2.33304 59.5298 2.63438 59.2274L17.9378 43.8729C18.8042 44.3689 19.7874 44.6342 20.8121 44.6342C22.3654 44.6342 23.8258 44.0272 24.9242 42.9251C26.1176 41.728 26.682 40.1354 26.6192 38.5638C26.6974 38.567 26.7756 38.5693 26.8539 38.5693C28.3428 38.5692 29.8326 38.0004 30.966 36.8632C32.0643 35.761 32.6693 34.2958 32.6693 32.7373C32.6693 32.6585 32.6667 32.5801 32.6636 32.5018C32.7409 32.5049 32.8182 32.5074 32.8956 32.5074C34.3848 32.5074 35.8742 31.9386 37.0078 30.8012C38.1061 29.6991 38.7111 28.2338 38.7111 26.6753C38.7111 26.5965 38.7085 26.5182 38.7054 26.4398C38.7827 26.4429 38.86 26.4454 38.9374 26.4454C40.4267 26.4454 41.916 25.8766 43.0496 24.7392C45.1801 22.6016 45.3083 19.2046 43.4353 16.9147L53.6797 6.63616C54.1952 6.11878 54.8803 5.83408 55.6093 5.83408C56.3384 5.83408 57.0236 6.11878 57.5391 6.63616C58.0546 7.15339 58.3384 7.84075 58.3384 8.57224C58.3384 9.30357 58.0546 9.99124 57.539 10.5083L50.5483 17.5224C49.9456 18.1271 49.9456 19.1075 50.5483 19.7123C50.8496 20.0145 51.2446 20.1659 51.6394 20.1659C52.0343 20.1659 52.4293 20.0147 52.7306 19.7123L58.2109 14.2137C59.2748 13.1462 61.0062 13.146 62.0704 14.2136C63.1344 15.2813 63.1344 17.0183 62.0704 18.086L56.59 23.5846C55.9874 24.1893 55.9874 25.1698 56.59 25.7746C56.8914 26.0768 57.2864 26.2282 57.6812 26.2282C58.0761 26.2282 58.4711 26.077 58.7724 25.7746L62.7422 21.7916C63.2577 21.2742 63.9429 20.9895 64.6718 20.9895C65.4008 20.9895 66.0861 21.2742 66.6016 21.7916C67.1171 22.3088 67.4008 22.9962 67.4008 23.7277C67.4008 24.459 67.1171 25.1467 66.6014 25.6638L62.6317 29.6468C62.029 30.2515 62.029 31.2319 62.6317 31.8367C62.933 32.1389 63.328 32.2903 63.7229 32.2903C64.1177 32.2903 64.5127 32.1391 64.814 31.8367L66.7119 29.9325C67.7761 28.8667 69.5064 28.8668 70.5699 29.9339C71.6341 31.0015 71.6341 32.7387 70.5699 33.8064L55.5988 48.8273C51.8396 52.5993 46.8433 54.7829 41.5304 54.9764C41.1399 54.9907 40.7689 55.1531 40.4931 55.4311L26.6631 69.3586C26.0615 69.9644 26.0632 70.9448 26.6672 71.5484C26.9682 71.8494 27.3623 72 27.7563 72C28.1521 72 28.5482 71.8481 28.8495 71.5444L39.0218 61.3005C41.6057 62.9636 44.6444 63.7544 47.7342 63.5494L55.6956 71.5376C55.9969 71.8398 56.3919 71.9912 56.7868 71.9912C57.1818 71.9912 57.5766 71.8399 57.878 71.5376C58.4806 70.9329 58.4806 69.9525 57.878 69.3476L49.4132 60.8537C49.0928 60.5323 48.6475 60.3681 48.1958 60.4052L47.7066 60.4455C45.4481 60.6312 43.2158 60.1349 41.2667 59.039L42.2585 58.0403C48.1243 57.6773 53.616 55.1975 57.7831 51.0164ZM22.7418 40.7355C22.2263 41.2528 21.541 41.5375 20.8122 41.5375C20.0832 41.5375 19.3979 41.2528 18.8826 40.7355L14.7126 36.5517C13.6485 35.4841 13.6485 33.7469 14.7126 32.6792C15.2281 32.1618 15.9135 31.8771 16.6424 31.8771C17.3713 31.8771 18.0566 32.1618 18.572 32.6792L22.742 36.863C23.8059 37.9306 23.8059 39.6677 22.7418 40.7355ZM28.784 34.6732C27.7198 35.7408 25.9881 35.7408 24.9244 34.6732L18.6809 28.4089C17.6169 27.3413 17.6169 25.6042 18.6809 24.5366C19.1964 24.0192 19.8818 23.7345 20.6106 23.7345C21.3396 23.7345 22.0248 24.0192 22.5402 24.5366L28.7835 30.8007C29.2991 31.3181 29.5831 32.0056 29.5831 32.737C29.5831 33.4683 29.2993 34.156 28.784 34.6732ZM34.8257 28.6111C33.7616 29.6785 32.03 29.6786 30.9662 28.6111L23.2123 20.8313C22.6968 20.3141 22.413 19.6267 22.413 18.8952C22.413 18.1639 22.6968 17.4762 23.2125 16.9592C23.7445 16.4254 24.4434 16.1585 25.1421 16.1585C25.8404 16.1585 26.5386 16.4251 27.0705 16.9579L34.8254 24.7388C35.3408 25.256 35.6247 25.9434 35.6247 26.6748C35.625 27.4063 35.3412 28.094 34.8257 28.6111ZM40.8677 22.5489C39.8037 23.6165 38.0723 23.6165 37.0083 22.5489L29.2544 14.7692C29.2536 14.7684 29.2527 14.7676 29.2518 14.7667L27.7438 13.2537C26.6798 12.186 26.6798 10.449 27.7438 9.38128C28.2759 8.84734 28.9748 8.58044 29.6736 8.58044C30.3724 8.58044 31.0714 8.84734 31.6033 9.38128L40.8674 18.6763C41.383 19.1936 41.6668 19.8811 41.6668 20.6124C41.6669 21.344 41.3833 22.0319 40.8677 22.5489ZM41.2735 14.7043L37.0347 10.4513C37.5153 10.5543 38.0095 10.6089 38.5125 10.6088C38.5238 10.6088 38.5352 10.6088 38.5466 10.6088L42.7817 10.5888C43.6339 10.5848 44.3218 9.88829 44.3178 9.03311C44.3137 8.18041 43.6236 7.49196 42.7746 7.49196C42.7722 7.49196 42.7697 7.49196 42.7672 7.49196L38.5321 7.51193C38.5256 7.51193 38.5194 7.51193 38.513 7.51193C37.4695 7.51193 36.488 7.10555 35.748 6.36663C35.0033 5.62292 34.5934 4.63305 34.5934 3.57878V3.0967H45.1685C47.1551 3.0967 49.0707 3.93346 50.4242 5.39271L50.487 5.46037L41.2735 14.7043Z"/>
    </symbol>
    
    <symbol id="benefit-2" width="79" height="70" viewBox="0 0 79 70" xmlns="http://www.w3.org/2000/svg">
        <path d="M52.9205 54.8324L50.1183 57.6722C50.8981 59.2934 51.3123 61.0848 51.3123 62.9414V69.833C51.3123 70.4773 50.7968 70.9997 50.161 70.9997C49.5253 70.9997 49.0098 70.4773 49.0098 69.833V62.9414C49.0098 57.8351 45.136 53.6717 40.2188 53.2681L35.4384 70.1548C35.2935 70.6666 34.8329 71 34.3324 71C33.567 71 33.0144 70.2563 33.2252 69.5113L37.8822 53.061C36.009 52.6449 34.3761 51.4823 33.3488 49.773C33.018 49.2228 33.1901 48.505 33.733 48.1697C34.2758 47.8343 34.9842 48.0089 35.3151 48.5591C36.1524 49.9523 37.584 50.8102 39.1794 50.8917C39.3223 50.8675 39.4714 50.8706 39.6203 50.9045C43.2147 50.9616 46.6012 52.6316 48.8731 55.6343L51.2924 53.1826C52.2318 52.2306 52.3194 50.7157 51.4962 49.659C49.6706 47.3172 50.1347 44.4841 51.885 42.8117C52.868 41.8725 52.9792 40.2975 52.1381 39.2261L50.4809 37.1149C49.4833 35.8438 49.1583 34.1549 49.6119 32.597L50.6833 28.9176C51.065 27.6065 50.4116 26.2267 49.1634 25.7084L47.7494 25.1213C45.8926 24.3502 44.6928 22.5385 44.6928 20.5056V16.7505C44.6928 9.35198 38.7538 3.33332 31.4538 3.33332H24.5464C17.2464 3.33332 11.3074 9.35228 11.3074 16.7505V20.5056C11.3074 22.5385 10.1077 24.3502 8.25095 25.1213L6.83682 25.7084C5.58861 26.2267 4.9353 27.6065 5.31693 28.9176L6.38828 32.597C6.84186 34.1549 6.51707 35.8438 5.51925 37.1149L3.86207 39.2261C3.02111 40.2975 3.13235 41.8724 4.1152 42.8117C5.8685 44.4869 6.32741 47.3194 4.50373 49.6593C3.68061 50.7158 3.76825 52.2306 4.70764 53.1826L7.12693 55.6343C9.35425 52.6907 12.7689 50.8999 16.5699 50.8999C19.2268 50.8999 21.3804 48.7303 21.3804 46.0377V45.7311C16.622 43.435 13.4398 38.8862 12.7472 33.7908C12.6604 33.1525 13.1007 32.5637 13.7305 32.4758C14.36 32.3877 14.9413 32.8341 15.028 33.4723C15.9146 39.9951 21.4913 44.9139 28 44.9139C35.2207 44.9139 41.0951 38.9607 41.0951 31.6431V24.4511C38.4037 23.4625 36.056 21.561 34.5225 18.903C28.9709 25.4392 21.0439 29.2417 12.6485 29.5822C12.0146 29.6082 11.4777 29.1079 11.4522 28.4631C11.4267 27.8192 11.9212 27.2764 12.5565 27.2508C20.8469 26.9148 28.6582 22.9365 33.8481 16.0422C34.3904 15.3216 35.5037 15.4775 35.8334 16.3194C37.0419 19.4048 39.5798 21.6232 42.561 22.4817C42.9996 22.6063 43.3553 23.0072 43.3932 23.5154C43.4004 23.6111 43.3986 31.7156 43.3971 31.7653C43.3185 42.0465 33.5223 49.5473 23.6587 46.6114C23.509 48.5444 22.601 50.3642 21.0195 51.6516L28 57.1284L32.1055 53.9074C32.6086 53.5129 33.3314 53.6064 33.7205 54.1156C34.1098 54.6252 34.0177 55.358 33.515 55.7523L29.1512 59.176V67.4997C29.1512 68.144 28.6357 68.6664 28 68.6664C27.3642 68.6664 26.8487 68.144 26.8487 67.4997V59.1762L18.8098 52.8691C17.5611 53.2864 16.4606 53.2333 16.5702 53.2333C11.2755 53.2332 6.99022 57.5752 6.99022 62.9416V69.833C6.99022 70.4773 6.47476 70.9997 5.839 70.9997C5.20324 70.9997 4.68779 70.4773 4.68779 69.833V62.9414C4.68779 61.0848 5.10194 59.2934 5.88174 57.6722L3.07953 54.8324C1.43977 53.1706 1.00677 50.3813 2.79475 48.0871C3.64248 46.9989 3.5311 45.4606 2.53544 44.5093C0.688886 42.7449 0.480083 39.7863 2.05999 37.7735L3.71716 35.6621C4.24831 34.9856 4.42113 34.0865 4.17967 33.2572L3.10831 29.5778C2.39111 27.1146 3.61859 24.5228 5.96348 23.5491L7.37761 22.962C8.36593 22.5516 9.00457 21.5872 9.00457 20.5054V16.7504C9.00514 8.06574 15.9771 1 24.5466 1H31.4539C40.0234 1 46.9953 8.06545 46.9953 16.7499V20.5056C46.9953 21.5874 47.634 22.5517 48.6224 22.9623L50.0364 23.5492C52.3815 24.523 53.6089 27.1147 52.8917 29.578L51.8204 33.2573C51.5789 34.0867 51.7517 34.9857 52.2829 35.6623L53.9401 37.7735C55.52 39.7863 55.311 42.7451 53.4646 44.5093C52.4689 45.4606 52.3576 46.9988 53.2054 48.0873C54.9638 50.3429 54.5912 53.1394 52.9205 54.8324ZM19.3228 57.1202C19.15 56.5001 18.5139 56.1391 17.902 56.3145C17.2902 56.4896 16.9342 57.1342 17.107 57.7543L20.5606 70.1501C20.7335 70.7703 21.3697 71.1308 21.9814 70.9558C22.5933 70.7807 22.9493 70.1361 22.7764 69.516L19.3228 57.1202Z"/>
    </symbol>
    
    <symbol id="benefit-3" width="79" height="70" viewBox="0 0 79 70" xmlns="http://www.w3.org/2000/svg">
        <path d="M26.8333 49H43.1667V51.3333H26.8333V49Z"/>
        <path d="M22.1667 49H24.5V51.3333H22.1667V49Z"/>
        <path d="M68.8333 4.66667H52.5V3.5C52.4972 2.57259 52.1276 1.68396 51.4718 1.02819C50.816 0.372408 49.9274 0.00276977 49 0H21C20.0726 0.00276977 19.184 0.372408 18.5282 1.02819C17.8724 1.68396 17.5028 2.57259 17.5 3.5V8.16667H1.16667C0.857247 8.16667 0.560501 8.28958 0.341709 8.50838C0.122916 8.72717 0 9.02391 0 9.33333V23.3333C0 23.6428 0.122916 23.9395 0.341709 24.1583C0.560501 24.3771 0.857247 24.5 1.16667 24.5H17.5V26.8333C15.9529 26.8333 14.4692 27.4479 13.3752 28.5419C12.2812 29.6358 11.6667 31.1196 11.6667 32.6667V37.4383L14 61.88V68.8333C14 69.1428 14.1229 69.4395 14.3417 69.6583C14.5605 69.8771 14.8572 70 15.1667 70H40.8333C41.1428 70 41.4395 69.8771 41.6583 69.6583C41.8771 69.4395 42 69.1428 42 68.8333V62.2067L46.34 56H49C49.9274 55.9972 50.816 55.6276 51.4718 54.9718C52.1276 54.316 52.4972 53.4274 52.5 52.5V51.3333H53.6667C54.6164 51.3367 55.5444 51.0492 56.3258 50.5094C57.1072 49.9696 57.7046 49.2034 58.0375 48.3139C58.3704 47.4244 58.4229 46.4543 58.188 45.5341C57.953 44.6139 57.4419 43.7877 56.7233 43.1667C57.2283 42.7339 57.6336 42.1971 57.9115 41.5929C58.1894 40.9888 58.3333 40.3317 58.3333 39.6667C58.3333 39.0017 58.1894 38.3446 57.9115 37.7404C57.6336 37.1363 57.2283 36.5994 56.7233 36.1667C57.2283 35.7339 57.6336 35.1971 57.9115 34.5929C58.1894 33.9888 58.3333 33.3317 58.3333 32.6667C58.3333 32.0017 58.1894 31.3446 57.9115 30.7404C57.6336 30.1363 57.2283 29.5994 56.7233 29.1667C57.4419 28.5456 57.953 27.7195 58.188 26.7992C58.4229 25.879 58.3704 24.9089 58.0375 24.0194C57.7046 23.13 57.1072 22.3638 56.3258 21.824C55.5444 21.2841 54.6164 20.9966 53.6667 21H52.5V18.6667H68.8333C69.1428 18.6667 69.4395 18.5438 69.6583 18.325C69.8771 18.1062 70 17.8094 70 17.5V5.83333C70 5.52391 69.8771 5.22717 69.6583 5.00838C69.4395 4.78958 69.1428 4.66667 68.8333 4.66667ZM44.0067 2.33333L43.645 3.78C43.5825 4.03294 43.4371 4.25766 43.232 4.41836C43.0269 4.57905 42.7739 4.66647 42.5133 4.66667H27.4867C27.2261 4.66647 26.9731 4.57905 26.768 4.41836C26.5629 4.25766 26.4175 4.03294 26.355 3.78L25.9933 2.33333H44.0067ZM2.33333 22.1667V10.5H23.3333V22.1667H2.33333ZM39.6667 67.6667H16.3333V63H39.6667V67.6667ZM40.2267 60.6667H16.2283L14 37.3333V32.6667C14.0028 31.7393 14.3724 30.8506 15.0282 30.1949C15.684 29.5391 16.5726 29.1694 17.5 29.1667H25.6667C26.5949 29.1667 27.4852 29.5354 28.1415 30.1918C28.7979 30.8482 29.1667 31.7384 29.1667 32.6667C29.1667 33.5949 28.7979 34.4852 28.1415 35.1415C27.4852 35.7979 26.5949 36.1667 25.6667 36.1667H18.6667C18.3572 36.1667 18.0605 36.2896 17.8417 36.5084C17.6229 36.7272 17.5 37.0239 17.5 37.3333V52.5C17.5028 53.4274 17.8724 54.316 18.5282 54.9718C19.184 55.6276 20.0726 55.9972 21 56H43.4933L40.2267 60.6667ZM50.1667 52.5C50.1667 52.8094 50.0438 53.1062 49.825 53.325C49.6062 53.5438 49.3094 53.6667 49 53.6667H21C20.6906 53.6667 20.3938 53.5438 20.175 53.325C19.9562 53.1062 19.8333 52.8094 19.8333 52.5V38.5H25.6667C27.2138 38.5 28.6975 37.8854 29.7915 36.7915C30.8854 35.6975 31.5 34.2138 31.5 32.6667C31.5 31.1196 30.8854 29.6358 29.7915 28.5419C28.6975 27.4479 27.2138 26.8333 25.6667 26.8333H19.8333V24.5H24.5C24.8094 24.5 25.1062 24.3771 25.325 24.1583C25.5438 23.9395 25.6667 23.6428 25.6667 23.3333V9.33333C25.6667 9.02391 25.5438 8.72717 25.325 8.50838C25.1062 8.28958 24.8094 8.16667 24.5 8.16667H19.8333V3.5C19.8333 3.19058 19.9562 2.89383 20.175 2.67504C20.3938 2.45625 20.6906 2.33333 21 2.33333H23.59L24.0917 4.35167C24.2815 5.10831 24.7187 5.77986 25.3337 6.25967C25.9488 6.73947 26.7066 7.00004 27.4867 7H42.5133C43.2934 7.00004 44.0512 6.73947 44.6663 6.25967C45.2814 5.77986 45.7185 5.10831 45.9083 4.35167L46.41 2.33333H49C49.3094 2.33333 49.6062 2.45625 49.825 2.67504C50.0438 2.89383 50.1667 3.19058 50.1667 3.5V4.66667H47.8333C47.5239 4.66667 47.2272 4.78958 47.0084 5.00838C46.7896 5.22717 46.6667 5.52391 46.6667 5.83333V17.5C46.6667 17.8094 46.7896 18.1062 47.0084 18.325C47.2272 18.5438 47.5239 18.6667 47.8333 18.6667H50.1667V21H49C48.0503 20.9966 47.1223 21.2841 46.3409 21.824C45.5594 22.3638 44.9621 23.13 44.6292 24.0194C44.2963 24.9089 44.2437 25.879 44.4787 26.7992C44.7136 27.7195 45.2248 28.5456 45.9433 29.1667C45.4384 29.5994 45.0331 30.1363 44.7552 30.7404C44.4773 31.3446 44.3334 32.0017 44.3334 32.6667C44.3334 33.3317 44.4773 33.9888 44.7552 34.5929C45.0331 35.1971 45.4384 35.7339 45.9433 36.1667C45.4384 36.5994 45.0331 37.1363 44.7552 37.7404C44.4773 38.3446 44.3334 39.0017 44.3334 39.6667C44.3334 40.3317 44.4773 40.9888 44.7552 41.5929C45.0331 42.1971 45.4384 42.7339 45.9433 43.1667C45.2248 43.7877 44.7136 44.6139 44.4787 45.5341C44.2437 46.4543 44.2963 47.4244 44.6292 48.3139C44.9621 49.2034 45.5594 49.9696 46.3409 50.5094C47.1223 51.0492 48.0503 51.3367 49 51.3333H50.1667V52.5ZM53.6667 49H49C48.3812 49 47.7877 48.7542 47.3501 48.3166C46.9125 47.879 46.6667 47.2855 46.6667 46.6667C46.6667 46.0478 46.9125 45.4543 47.3501 45.0168C47.7877 44.5792 48.3812 44.3333 49 44.3333H53.6667C54.2855 44.3333 54.879 44.5792 55.3166 45.0168C55.7542 45.4543 56 46.0478 56 46.6667C56 47.2855 55.7542 47.879 55.3166 48.3166C54.879 48.7542 54.2855 49 53.6667 49ZM53.6667 42H49C48.3812 42 47.7877 41.7542 47.3501 41.3166C46.9125 40.879 46.6667 40.2855 46.6667 39.6667C46.6667 39.0478 46.9125 38.4543 47.3501 38.0168C47.7877 37.5792 48.3812 37.3333 49 37.3333H53.6667C54.2855 37.3333 54.879 37.5792 55.3166 38.0168C55.7542 38.4543 56 39.0478 56 39.6667C56 40.2855 55.7542 40.879 55.3166 41.3166C54.879 41.7542 54.2855 42 53.6667 42ZM53.6667 35H49C48.3812 35 47.7877 34.7542 47.3501 34.3166C46.9125 33.879 46.6667 33.2855 46.6667 32.6667C46.6667 32.0478 46.9125 31.4543 47.3501 31.0168C47.7877 30.5792 48.3812 30.3333 49 30.3333H53.6667C54.2855 30.3333 54.879 30.5792 55.3166 31.0168C55.7542 31.4543 56 32.0478 56 32.6667C56 33.2855 55.7542 33.879 55.3166 34.3166C54.879 34.7542 54.2855 35 53.6667 35ZM53.6667 23.3333C54.2855 23.3333 54.879 23.5792 55.3166 24.0168C55.7542 24.4543 56 25.0478 56 25.6667C56 26.2855 55.7542 26.879 55.3166 27.3166C54.879 27.7542 54.2855 28 53.6667 28H49C48.3812 28 47.7877 27.7542 47.3501 27.3166C46.9125 26.879 46.6667 26.2855 46.6667 25.6667C46.6667 25.0478 46.9125 24.4543 47.3501 24.0168C47.7877 23.5792 48.3812 23.3333 49 23.3333H53.6667ZM67.6667 16.3333H49V7H67.6667V16.3333Z"/>
        <path d="M4.66667 12.8333H7V15.1667H4.66667V12.8333Z"/>
        <path d="M9.33333 12.8333H21V15.1667H9.33333V12.8333Z"/>
        <path d="M4.66667 17.5H21V19.8333H4.66667V17.5Z"/>
        <path d="M51.3333 10.5H56V12.8333H51.3333V10.5Z"/>
        <path d="M58.3333 10.5H65.3333V12.8333H58.3333V10.5Z"/>
    </symbol>
    
    <symbol id="benefit-4" width="79" height="70" viewBox="0 0 79 70" xmlns="http://www.w3.org/2000/svg">
        <path d="M36.0001 5.66864C33.7385 5.66864 31.8986 7.51189 31.8986 9.77753C31.8986 12.0432 33.7385 13.8864 36.0001 13.8864C38.2617 13.8864 40.1016 12.0432 40.1016 9.77753C40.1016 7.51189 38.2617 5.66864 36.0001 5.66864ZM36.0001 11.832C34.8693 11.832 33.9493 10.9104 33.9493 9.77753C33.9493 8.64471 34.8693 7.72309 36.0001 7.72309C37.1309 7.72309 38.0509 8.64471 38.0509 9.77753C38.0509 10.9104 37.131 11.832 36.0001 11.832ZM70.999 16.6777C70.9918 16.3144 70.773 15.9064 70.3699 15.7464L36.9563 1.19913C36.3487 0.933693 35.6515 0.933693 35.0451 1.19872L1.63032 15.7464C1.27827 15.8969 0.98679 16.2704 1.00046 16.7084V20.0665C1.00046 22.1434 2.68701 23.833 4.7602 23.833H5.56766C5.27084 24.3837 5.102 25.0133 5.102 25.6818C5.102 27.8342 6.84994 29.5853 8.99846 29.5853C9.3032 29.5853 9.60015 29.5464 9.88712 29.4787V58.7644C8.55453 58.5779 7.28948 59.5096 7.28948 60.8873V62.834H4.7602C2.68701 62.834 1.00046 64.5236 1.00046 66.6005V69.288C1.00046 70.232 1.76704 71 2.70944 71H69.291C70.2334 71 71 70.232 71 69.288V66.6005C71 64.5236 69.3134 62.834 67.2403 62.834H64.711V60.8873C64.7099 59.4459 63.4402 58.6213 62.1133 58.7644V29.4787C62.4003 29.5464 62.6973 29.5853 63.002 29.5853C65.1505 29.5853 66.8985 27.8342 66.8985 25.6818C66.8985 25.0133 66.7296 24.3837 66.4328 23.833H67.2403C69.3134 23.833 71 22.1434 71 20.0665V16.7085C70.9996 16.6998 71.0007 16.7017 70.999 16.6777ZM8.99832 27.5307C7.98059 27.5307 7.15263 26.7012 7.15263 25.6817C7.15263 24.6635 7.9784 23.8351 8.99435 23.8328H20.0764C21.0924 23.835 21.9182 24.6634 21.9182 25.6817C21.9182 26.7012 21.0902 27.5307 20.0725 27.5307C19.1936 27.5307 18.4329 26.9061 18.2635 26.0459C18.1539 25.4894 17.6148 25.1267 17.0591 25.2368C16.5034 25.3467 16.1418 25.8868 16.2515 26.4435C16.3863 27.1283 16.698 27.7423 17.133 28.2422V45.9733C17.133 46.5406 17.592 47.0005 18.1584 47.0005C18.7248 47.0005 19.1838 46.5406 19.1838 45.9733V29.4787C19.4708 29.5464 19.7677 29.5853 20.0725 29.5853C22.221 29.5853 23.9689 27.8342 23.9689 25.6818C23.9689 25.0133 23.8001 24.3837 23.5033 23.833H27.0324C26.7355 24.3837 26.5667 25.0133 26.5667 25.6818C26.5667 27.8342 28.3146 29.5853 30.4632 29.5853C30.7679 29.5853 31.0648 29.5464 31.3518 29.4787V58.7644C30.0187 58.5772 28.7542 59.51 28.7542 60.8873V62.834H21.7816V60.8873C21.7805 59.4463 20.5109 58.6211 19.1839 58.7644V50.767C19.1839 50.1997 18.725 49.7398 18.1585 49.7398C17.5921 49.7398 17.1332 50.1997 17.1332 50.767V58.7644H11.9379V28.2421C12.3729 27.7423 12.6846 27.1283 12.8194 26.4433C12.9291 25.8868 12.5675 25.3465 12.0119 25.2367C11.4561 25.1271 10.917 25.4891 10.8074 26.0457C10.638 26.9063 9.87714 27.5307 8.99832 27.5307ZM44.968 23.833H48.4971C48.2002 24.3837 48.0314 25.0133 48.0314 25.6818C48.0314 27.8342 49.7793 29.5853 51.9279 29.5853C52.2326 29.5853 52.5296 29.5464 52.8165 29.4787V58.7644C51.4828 58.5764 50.219 59.5106 50.2189 60.8873V62.834H43.2463V60.8873C43.2452 59.4462 41.9755 58.6211 40.6486 58.7644V29.4787C40.9356 29.5464 41.2326 29.5853 41.5373 29.5853C43.6858 29.5853 45.4338 27.8342 45.4338 25.6818C45.4336 25.0133 45.2648 24.3835 44.968 23.833ZM41.1954 60.8873V62.834H30.8048V60.8873C30.8048 60.8495 30.8356 60.8189 30.8732 60.8189H41.127C41.1647 60.8189 41.1954 60.8495 41.1954 60.8873ZM41.5372 27.5307C40.6583 27.5307 39.8976 26.9061 39.7282 26.0459C39.6186 25.4894 39.0793 25.1267 38.5238 25.2368C37.9681 25.3467 37.6065 25.8868 37.7162 26.4435C37.851 27.1283 38.1627 27.7423 38.5977 28.2422V58.7644H33.4025V28.2421C33.8375 27.7423 34.1492 27.1283 34.284 26.4433C34.3937 25.8868 34.032 25.3465 33.4764 25.2367C32.9208 25.1271 32.3816 25.4891 32.2719 26.0457C32.1025 26.9061 31.3417 27.5305 30.463 27.5305C29.4453 27.5305 28.6173 26.7011 28.6173 25.6815C28.6173 24.6634 29.4431 23.835 30.4591 23.8327H41.5411C42.5571 23.8349 43.3829 24.6632 43.3829 25.6815C43.3829 26.7012 42.555 27.5307 41.5372 27.5307ZM9.34011 60.8873C9.34011 60.8495 9.37087 60.8189 9.40847 60.8189H19.6623C19.6999 60.8189 19.7307 60.8495 19.7307 60.8873V62.834H9.34011V60.8873ZM67.2401 64.8884C68.1825 64.8884 68.9491 65.6564 68.9491 66.6005V68.9456H3.05109V66.6005C3.05109 65.6564 3.81767 64.8884 4.76007 64.8884H67.2401ZM62.5917 60.8189C62.6293 60.8189 62.6601 60.8495 62.6601 60.8873V62.834H52.2695V60.8873C52.2695 60.8495 52.3003 60.8189 52.3379 60.8189H62.5917ZM63.0019 27.5307C62.123 27.5307 61.3623 26.9061 61.1929 26.0459C61.0833 25.4894 60.5442 25.1267 59.9885 25.2368C59.4328 25.3467 59.0712 25.8868 59.1809 26.4435C59.3157 27.1283 59.6274 27.7423 60.0624 28.2422V58.7644H54.8672V28.2421C55.3022 27.7423 55.6139 27.1283 55.7487 26.4433C55.8584 25.8868 55.4967 25.3465 54.9411 25.2367C54.3858 25.1271 53.8463 25.4891 53.7366 26.0457C53.5672 26.9061 52.8064 27.5305 51.9277 27.5305C50.91 27.5305 50.082 26.7011 50.082 25.6815C50.082 24.6634 50.9078 23.835 51.9238 23.8327H63.0058C64.0218 23.8349 64.8476 24.6632 64.8476 25.6815C64.8476 26.7012 64.0197 27.5307 63.0019 27.5307ZM68.9491 20.0665C68.9491 21.0106 68.1825 21.7785 67.2401 21.7785H4.76007C3.81767 21.7785 3.05109 21.0106 3.05109 20.0665V17.7214H50.928C51.4945 17.7214 51.9534 17.2615 51.9534 16.6942C51.9534 16.1269 51.4945 15.6669 50.928 15.6669H6.95781L35.8635 3.08237C35.9503 3.04443 36.0499 3.04443 36.1378 3.08278L65.0424 15.6668H55.713C55.1466 15.6668 54.6876 16.1267 54.6876 16.694C54.6876 17.2613 55.1466 17.7213 55.713 17.7213H68.949L68.9491 20.0665Z"/>
    </symbol>
</svg>