<svg width="52" height="52" viewBox="0 0 52 52" fill="none" xmlns="http://www.w3.org/2000/svg">
<circle cx="26" cy="26" r="26" fill="#F6F4FC"/>
<path d="M29.0024 18H35.9999C36.5128 18 36.9355 18.4688 36.9933 19.0728L37 19.2144V27.7153C37 28.386 36.5522 28.9298 35.9999 28.9298C35.487 28.9298 35.0643 28.4609 35.0065 27.857L34.9998 27.7153L34.999 22.146L27.7061 31.0029C27.3458 31.4404 26.7789 31.4743 26.3866 31.1045L26.2923 31.0036L23.9961 28.2202L18.7074 34.6442C18.3169 35.1185 17.6837 35.1186 17.293 34.6444C16.9325 34.2067 16.9046 33.5179 17.2096 33.0414L17.2928 32.927L23.2881 25.6447C23.6483 25.2071 24.2153 25.1731 24.6077 25.543L24.7019 25.6439L26.9983 28.4275L33.5838 20.4288H29.0024C28.4895 20.4288 28.0668 19.96 28.009 19.356L28.0023 19.2144C28.0023 18.5916 28.3884 18.0783 28.8858 18.0082L29.0024 18H35.9999H29.0024Z" fill="#05BC39"/>
</svg>
