<svg width="52" height="52" viewBox="0 0 52 52" fill="none" xmlns="http://www.w3.org/2000/svg">
<circle cx="26" cy="26" r="26" fill="#F6F4FC"/>
<path d="M29.8797 25.252C31.0073 25.252 31.9214 26.0637 31.9214 27.065V31.9849C31.9214 34.5603 29.5703 36.648 26.6701 36.648C23.77 36.648 21.4189 34.5603 21.4189 31.9849V27.065C21.4189 26.0637 22.333 25.252 23.4606 25.252H29.8797ZM29.8797 26.806H23.4606C23.2995 26.806 23.1689 26.922 23.1689 27.065V31.9849C23.1689 33.702 24.7365 35.094 26.6701 35.094C28.6038 35.094 30.1714 33.702 30.1714 31.9849V27.065C30.1714 26.922 30.0408 26.806 29.8797 26.806ZM17.0417 25.252L20.9865 25.251C20.5859 25.6814 20.3249 26.218 20.2653 26.8062L17.0417 26.806C16.8806 26.806 16.75 26.922 16.75 27.065V30.4307C16.75 31.8619 18.0565 33.022 19.6681 33.022C19.9014 33.022 20.1284 32.9977 20.3459 32.9518C20.4447 33.4738 20.6251 33.9718 20.874 34.4351C20.4901 34.5274 20.0855 34.576 19.6681 34.576C17.09 34.576 15 32.7201 15 30.4307V27.065C15 26.0637 15.9141 25.252 17.0417 25.252ZM32.3538 25.251L36.2917 25.252C37.4193 25.252 38.3333 26.0637 38.3333 27.065V30.432C38.3333 32.7207 36.244 34.576 33.6667 34.576C33.2508 34.576 32.8477 34.5277 32.464 34.4371C32.7147 33.9728 32.8953 33.4749 32.9959 32.9527C33.2107 32.9981 33.4355 33.022 33.6667 33.022C35.2775 33.022 36.5833 31.8624 36.5833 30.432V27.065C36.5833 26.922 36.4528 26.806 36.2917 26.806L33.075 26.8062C33.0153 26.218 32.7544 25.6814 32.3538 25.251ZM26.6667 18C28.5997 18 30.1667 19.3915 30.1667 21.108C30.1667 22.8245 28.5997 24.216 26.6667 24.216C24.7337 24.216 23.1667 22.8245 23.1667 21.108C23.1667 19.3915 24.7337 18 26.6667 18ZM34.25 19.036C35.8608 19.036 37.1667 20.1956 37.1667 21.626C37.1667 23.0564 35.8608 24.216 34.25 24.216C32.6392 24.216 31.3333 23.0564 31.3333 21.626C31.3333 20.1956 32.6392 19.036 34.25 19.036ZM19.0833 19.036C20.6942 19.036 22 20.1956 22 21.626C22 23.0564 20.6942 24.216 19.0833 24.216C17.4725 24.216 16.1667 23.0564 16.1667 21.626C16.1667 20.1956 17.4725 19.036 19.0833 19.036ZM26.6667 19.554C25.7002 19.554 24.9167 20.2498 24.9167 21.108C24.9167 21.9663 25.7002 22.662 26.6667 22.662C27.6332 22.662 28.4167 21.9663 28.4167 21.108C28.4167 20.2498 27.6332 19.554 26.6667 19.554ZM34.25 20.59C33.6057 20.59 33.0833 21.0538 33.0833 21.626C33.0833 22.1982 33.6057 22.662 34.25 22.662C34.8943 22.662 35.4167 22.1982 35.4167 21.626C35.4167 21.0538 34.8943 20.59 34.25 20.59ZM19.0833 20.59C18.439 20.59 17.9167 21.0538 17.9167 21.626C17.9167 22.1982 18.439 22.662 19.0833 22.662C19.7277 22.662 20.25 22.1982 20.25 21.626C20.25 21.0538 19.7277 20.59 19.0833 20.59Z" fill="#121B30"/>
</svg>
