<svg width="52" height="52" viewBox="0 0 52 52" fill="none" xmlns="http://www.w3.org/2000/svg">
<circle cx="26" cy="26" r="26" fill="#F6F4FC"/>
<path d="M25.2927 18.561C25.6968 18.561 26.0244 18.905 26.0244 19.3293V27.5244H33.8293C34.1997 27.5244 34.5058 27.8134 34.5543 28.1884L34.561 28.2927C34.561 33.3845 30.6298 37 25.7805 37C20.9312 37 17 32.8723 17 27.7805C17 22.6887 20.4434 18.561 25.2927 18.561ZM24.561 20.1355L24.3572 20.1598C20.7579 20.6421 18.4634 23.8701 18.4634 27.7805C18.4634 32.0237 21.7394 35.4634 25.7805 35.4634C29.5046 35.4634 32.579 33.0543 33.0383 29.275L33.0605 29.061H25.2927C24.9222 29.061 24.6161 28.7719 24.5677 28.3969L24.561 28.2927V20.1355ZM28.2195 16C33.0688 16 37 20.1277 37 25.2195C37 25.6438 36.6724 25.9878 36.2683 25.9878H28.2195C27.8154 25.9878 27.4878 25.6438 27.4878 25.2195V16.7683C27.4878 16.344 27.8154 16 28.2195 16ZM28.9512 17.5745V24.4512H35.4995L35.4773 24.2372C35.0571 20.7796 32.448 18.0401 29.155 17.5988L28.9512 17.5745Z" fill="#212121"/>
</svg>
