<svg width="20" height="18" viewBox="0 0 20 18" fill="none" xmlns="http://www.w3.org/2000/svg">
<path d="M19.8258 16.3168L10.7982 0.68082C10.633 0.394635 10.3278 0.218384 9.99732 0.218384C9.667 0.218384 9.3616 0.394635 9.19644 0.68082L0.123872 16.3945C-0.0412906 16.6807 -0.0412906 17.0332 0.123872 17.3193C0.289034 17.6056 0.594429 17.7818 0.924753 17.7818H19.07H19.0752C19.5864 17.7818 20 17.3679 20 16.8569C20 16.6551 19.9353 16.4688 19.8258 16.3168ZM2.14188 16.3168L9.99732 1.993L17.8525 16.3168H2.14188ZM9.52004 6.11693H10.4798C10.5585 6.11693 10.634 6.14867 10.6893 6.20516C10.7443 6.26192 10.7739 6.33806 10.7719 6.41713L10.5791 12.4714C10.575 12.6304 10.445 12.7568 10.2865 12.7568H9.71345C9.55475 12.7568 9.42469 12.6301 9.42093 12.4714L9.22805 6.41713C9.226 6.33802 9.25582 6.26192 9.31078 6.20516C9.36575 6.14867 9.44132 6.11693 9.52004 6.11693ZM10.7597 13.5605V14.6565C10.7597 14.818 10.6289 14.9488 10.4671 14.9488H9.53305C9.37125 14.9488 9.24054 14.818 9.24054 14.6565V13.5605C9.24054 13.3989 9.37125 13.2678 9.53305 13.2678H10.4671C10.6289 13.2676 10.7597 13.3989 10.7597 13.5605Z" fill="#EB5757"/>
</svg>
