<svg width="15" height="11" viewBox="0 0 15 11" fill="none" xmlns="http://www.w3.org/2000/svg">
<path fill-rule="evenodd" clip-rule="evenodd" d="M15 1.25C15 1.66421 14.6642 2 14.25 2H0.75C0.335786 2 0 1.66421 0 1.25C0 0.835786 0.335787 0.5 0.75 0.5H14.25C14.6642 0.5 15 0.835786 15 1.25Z" fill="#2FAD49"/>
<path fill-rule="evenodd" clip-rule="evenodd" d="M15 5.75C15 6.16421 14.6642 6.5 14.25 6.5H0.75C0.335786 6.5 0 6.16421 0 5.75C0 5.33579 0.335787 5 0.75 5H14.25C14.6642 5 15 5.33579 15 5.75Z" fill="#2FAD49"/>
<path fill-rule="evenodd" clip-rule="evenodd" d="M15 10.25C15 10.6642 14.6642 11 14.25 11H0.75C0.335786 11 0 10.6642 0 10.25C0 9.83579 0.335787 9.5 0.75 9.5H14.25C14.6642 9.5 15 9.83579 15 10.25Z" fill="#2FAD49"/>
</svg>
