<svg width="14" height="20" viewBox="0 0 14 20" fill="none" xmlns="http://www.w3.org/2000/svg">
    <path fill-rule="evenodd" clip-rule="evenodd" d="M13.5 7.83029C13.5 4.05189 10.5887 0.986694 7 0.986694C3.4113 0.986694 0.5 4.05189 0.5 7.83029C0.5 9.04116 1.07983 10.5579 2.1123 12.3641C2.51865 13.075 2.9892 13.8178 3.5115 14.5826C4.14992 15.5173 4.83253 16.4374 5.51508 17.3045C5.92515 17.8254 6.24525 18.2143 6.43081 18.4321L7 19.1L7.56919 18.4321C7.75475 18.2143 8.07485 17.8254 8.48492 17.3045C9.16747 16.4374 9.85007 15.5173 10.4885 14.5826C11.0108 13.8178 11.4813 13.075 11.8877 12.3641C12.9202 10.5579 13.5 9.04116 13.5 7.83029ZM7.30712 16.2766C7.19753 16.4158 7.09476 16.5451 6.99977 16.6635C6.90477 16.5451 6.802 16.4158 6.69241 16.2766C6.03075 15.4361 5.36914 14.5443 4.75297 13.6421C4.25357 12.9109 3.80569 12.2039 3.42245 11.5335C2.52334 9.96056 2.02918 8.66788 2.02918 7.82997C2.02918 4.94089 4.25574 2.59663 6.99977 2.59663C9.74379 2.59663 11.9704 4.94089 11.9704 7.82997C11.9704 8.66788 11.4762 9.96056 10.5771 11.5335C10.1938 12.2039 9.74596 12.9109 9.24656 13.6421C8.63039 14.5443 7.96878 15.4361 7.30712 16.2766ZM6.99993 9.03773C7.63504 9.03773 8.14699 8.49871 8.14699 7.83003C8.14699 7.16135 7.63504 6.62234 6.99993 6.62234C6.36482 6.62234 5.85287 7.16135 5.85287 7.83003C5.85287 8.49871 6.36482 9.03773 6.99993 9.03773ZM4.3237 7.83021C4.3237 9.38821 5.52039 10.6482 7.00017 10.6482C8.47995 10.6482 9.67664 9.38821 9.67664 7.83021C9.67664 6.2722 8.47995 5.01226 7.00017 5.01226C5.52039 5.01226 4.3237 6.2722 4.3237 7.83021Z"/>
</svg>
