<svg width="16" height="20" viewBox="0 0 16 20" fill="none" xmlns="http://www.w3.org/2000/svg">
<path d="M8.00048 0C3.94084 0 0.637695 3.30314 0.637695 7.3632C0.637695 8.42222 0.854452 9.43334 1.28162 10.3687C3.12252 14.3971 6.65204 18.6501 7.69019 19.8575C7.76797 19.9478 7.88136 19.9998 8.00069 19.9998C8.12002 19.9998 8.23341 19.9478 8.31119 19.8575C9.34892 18.6503 12.8784 14.3975 14.72 10.3687C15.1473 9.43334 15.3639 8.42222 15.3639 7.3632C15.3635 3.30314 12.0603 0 8.00048 0ZM8.00048 11.1877C5.89165 11.1877 4.17581 9.47182 4.17581 7.36299C4.17581 5.25396 5.89165 3.53812 8.00048 3.53812C10.1093 3.53812 11.8252 5.25396 11.8252 7.36299C11.8254 9.47182 10.1095 11.1877 8.00048 11.1877Z" fill="#202932"/>
</svg>
