<svg width="25" height="16" viewBox="0 0 25 16" fill="none" xmlns="http://www.w3.org/2000/svg">
<path d="M24.0642 13.5018H22.7445C22.5902 14.8329 21.4627 15.837 20.1229 15.837C18.7828 15.837 17.6556 14.8329 17.5012 13.5018H8.96747C8.81278 14.8329 7.68571 15.837 6.34591 15.837C5.00583 15.837 3.87876 14.8329 3.72408 13.5018H0.939695C0.696772 13.5018 0.499897 13.3049 0.499897 13.062V0.60461C0.499897 0.361686 0.696772 0.164673 0.939695 0.164673H16.2036C16.4463 0.164673 16.6433 0.361686 16.6433 0.60461V3.07217H20.3693C20.5131 3.07259 20.6478 3.14304 20.73 3.26147L23.136 6.70555L24.0772 8.02522L24.4204 8.51355C24.4718 8.58704 24.4995 8.67445 24.4998 8.7642V13.0489C24.5033 13.1669 24.459 13.2814 24.3771 13.3666C24.2952 13.452 24.1823 13.5007 24.0642 13.5018ZM20.1317 14.8213C21.1033 14.8213 21.8912 14.0335 21.8912 13.062C21.8912 12.0901 21.1033 11.3024 20.1317 11.3024C19.1599 11.3024 18.3721 12.0901 18.3721 13.062C18.3721 14.0372 19.1563 14.8314 20.1317 14.8434V14.8213ZM6.35473 14.8213C7.32643 14.8213 8.11434 14.0335 8.11434 13.062C8.11434 12.0901 7.32643 11.3024 6.35473 11.3024C5.38276 11.3024 4.59513 12.0901 4.59513 13.062C4.59499 14.0372 5.37932 14.8314 6.35473 14.8434V14.8213ZM1.38845 1.04441V8.92716H13.3311C13.5741 8.92716 13.7711 9.12403 13.7711 9.36696C13.7711 9.60988 13.5741 9.80689 13.3311 9.80689H1.38845V12.622H3.73276C3.88745 11.291 5.01466 10.2871 6.35473 10.2871C7.69454 10.2871 8.82174 11.291 8.97629 12.622H15.7637V3.04584H12.5879C12.345 3.04584 12.1479 2.84883 12.1479 2.6059C12.1479 2.36298 12.345 2.16597 12.5879 2.16597H15.7637V1.04441H1.38845ZM20.1404 3.95205H16.6215V12.622H17.5012C17.6556 11.291 18.7828 10.2871 20.1229 10.2871C21.4627 10.2871 22.5902 11.291 22.7445 12.622H23.6244V8.90496L23.4924 8.71581H18.1258C17.8828 8.71581 17.686 8.51907 17.686 8.27614V5.02108C17.686 4.77815 17.8828 4.58114 18.1258 4.58114H20.5892L20.1404 3.95205ZM21.2049 5.4697H18.5657V7.84489H22.881L21.2049 5.4697Z" fill="white"/>
</svg>
