<svg width="18" height="12" viewBox="0 0 18 12" fill="none" xmlns="http://www.w3.org/2000/svg">
<path d="M8.86918 3.94076L8.86976 3.94072C10.1124 3.86259 11.1414 4.88648 11.0594 6.13117M8.86918 3.94076L7.19331 5.88236C7.1213 6.97554 8.02465 7.87561 9.11783 7.80688L9.13325 8.0564C9.13334 8.05639 9.13343 8.05639 9.13352 8.05638C10.1594 7.99283 10.9923 7.1628 11.0594 6.13117M8.86918 3.94076C7.84151 4.00778 7.00751 4.83664 6.94382 5.86647L8.86918 3.94076ZM11.0594 6.13117L10.81 6.11474L11.0594 6.13095C11.0594 6.13103 11.0594 6.1311 11.0594 6.13117ZM0.925481 5.47014L0.925192 5.47052C0.691603 5.78197 0.691603 6.21513 0.925192 6.52658L0.925394 6.52685C3.0053 9.29229 5.84517 11.0189 9 11.0189C12.1548 11.0189 14.9946 9.29233 17.0745 6.53024L17.0748 6.52985C17.3084 6.2184 17.3084 5.78525 17.0748 5.47379L17.0746 5.47353C14.9947 2.70809 12.1548 0.981445 9 0.981445C5.8452 0.981445 3.00537 2.70805 0.925481 5.47014ZM5.89142 5.79657L5.89143 5.79649C5.9883 4.24651 7.24632 2.98849 8.7963 2.89162L8.7964 2.89161C10.6756 2.7734 12.2268 4.32161 12.1086 6.20381C12.0085 7.75063 10.7503 9.00873 9.20346 9.10877C7.32434 9.2269 5.77322 7.67872 5.89142 5.79657Z" fill="#9F9F9F" stroke="white" stroke-width="0.5"/>
</svg>
