<svg width="117" height="105" viewBox="0 0 117 105" fill="none" xmlns="http://www.w3.org/2000/svg">
<circle cx="11.5" cy="4.5" r="4.5" fill="white"/>
<path d="M8 38L11.5137 53.8389L15 38H23.0273V61H17.8711V55.3477L18.3691 44.1523L14 61H9L4.64355 44.1377L5 55.3477V61H0V38H8Z" fill="white"/>
<path d="M61.9707 52H30.9707L31 56H62L61.9707 61H26.0022V38.0303H52V43H31V47H61.9707V52Z" fill="white"/>
<path d="M94 43H83V62H78V43H51V38.0303H94V43Z" fill="white"/>
<path d="M5 96.9736V105H0V83H5.15918C7.54199 83 9.43164 83.6201 10.8281 84.8604C12.2344 86.1006 12.9375 87.7412 12.9375 89.7822C12.9375 92.5 12.249 94.0684 10.8721 95.2305C9.50488 96.3926 7.58594 96.9736 5.11523 96.9736H5ZM5 93H8.15918C9.47754 93 10.4834 92.6924 11.1768 92.0771C11.8701 91.4521 12 91 12 90C12 89.5 11.8652 88.7529 11.1621 88.0693C10.459 87.376 9.49219 87.0195 8.26172 87H5V93Z" fill="white"/>
<path d="M26.0264 97H23V105H18V83L25 84.5C27.4609 84.5 28.6621 85.3965 30 86.5C31.3379 87.6035 31.5 87.4102 31.5 89.5C31.5 90.9258 33.0479 92.0674 32.3545 93.0342C31.6709 93.9912 31 95 30 95.5L35 104.81V105H30L26.0264 97ZM23.0732 92.9375H25.7773C27.0273 92.9375 28.0039 92.625 28.707 92C29.4102 91.3652 29.5 91.0938 29.5 90C29.5 88.8574 29.3613 88.5918 28.707 87.9668C28.0625 87.3418 27.0957 87.0195 25.8066 87H23L23.0732 92.9375Z" fill="white"/>
<path d="M71 97H67V102H62V83H72V88H67V92H71V97Z" fill="white"/>
<path d="M91 100H94V105H86V86H91V100Z" fill="white"/>
<path d="M115 96H106V100H114V105H101.055V83H114V88H106V92H115V96Z" fill="white"/>
<path d="M75.875 85.5C75.875 86.8807 74.7557 88 73.375 88C67.8751 88 69.875 86.8807 69.875 85.5C69.875 84.1193 66.375 83 73.375 83C74.7557 83 75.875 84.1193 75.875 85.5Z" fill="white"/>
<path d="M73.875 94.5C73.875 95.8807 72.7557 97 71.375 97C65.8751 97 67.875 95.8807 67.875 94.5C67.875 93.1193 64.375 92 71.375 92C72.7557 92 73.875 93.1193 73.875 94.5Z" fill="white"/>
<path d="M64.5 104.875C63.1193 104.875 62 103.756 62 102.375C62 96.8751 63.1193 98.875 64.5 98.875C65.8807 98.875 67 95.375 67 102.375C67 103.756 65.8807 104.875 64.5 104.875Z" fill="white"/>
<path d="M98.875 102.5C98.875 103.881 97.7557 105 96.375 105C82 105 92.875 103.881 92.875 102.5C92.875 101.119 86 100 96.375 100C97.7557 100 98.875 101.119 98.875 102.5Z" fill="white"/>
<path d="M88.5 83C89.8807 83 91 84.1193 91 85.5C91 99.0001 89.8807 89 88.5 89C87.1193 89 86 100 86 85.5C86 84.1193 87.1193 83 88.5 83Z" fill="white"/>
<path d="M116.875 102.5C116.875 103.881 115.756 105 114.375 105C108.875 105 110.875 103.881 110.875 102.5C110.875 101.119 107.375 100 114.375 100C115.756 100 116.875 101.119 116.875 102.5Z" fill="white"/>
<path d="M116.875 85.5C116.875 86.8807 115.756 88 114.375 88C108.875 88 110.875 86.8807 110.875 85.5C110.875 84.1193 107.375 83 114.375 83C115.756 83 116.875 84.1193 116.875 85.5Z" fill="white"/>
<path d="M117 94C117 95.1046 116.023 96 114.818 96C110.018 96 111.764 95.1046 111.764 94C111.764 92.8954 108.709 92 114.818 92C116.023 92 117 92.8954 117 94Z" fill="white"/>
<path d="M78 94.5C78 93.1193 79.1193 92 80.5 92C81.8807 92 83 93.1193 83 94.5V105H78V94.5Z" fill="white"/>
<circle cx="80.5" cy="85.5" r="2.5" fill="white"/>
<path d="M97 40.5C97 41.8807 95.8807 43 94.5 43C89.0001 43 91 41.8807 91 40.5C91 39.1193 87.5 38 94.5 38C95.8807 38 97 39.1193 97 40.5Z" fill="white"/>
<path d="M80.5 64.875C79.1193 64.875 78 63.7557 78 62.375C78 56.8751 79.1193 58.875 80.5 58.875C81.8807 58.875 83 55.375 83 62.375C83 63.7557 81.8807 64.875 80.5 64.875Z" fill="white"/>
<rect x="101" y="38" width="16" height="27" rx="8" fill="white"/>
<path d="M106 56C106 54.3431 107.343 53 109 53C110.657 53 112 54.3431 112 56V65H106V56Z" fill="#272727"/>
<circle cx="109" cy="46" r="3" fill="#272727"/>
<circle cx="47" cy="94" r="11" fill="white"/>
<circle cx="47" cy="94" r="6" fill="url(#paint0_linear)"/>
<path d="M7 83C11.4183 83 15 86.5817 15 91C15 95.4183 11.4183 99 7 99L2.54292e-07 99L9.53674e-07 83L7 83Z" fill="white"/>
<path d="M25 83C29.4183 83 33 86.5817 33 91C33 95.4183 29.4183 99 25 99L18 99L18 83L25 83Z" fill="white"/>
<path d="M7 88C8.65685 88 10 89.3431 10 91C10 92.6569 8.65685 94 7 94L5 94L5 88L7 88Z" fill="url(#paint1_linear)"/>
<path d="M25 88C26.6569 88 28 89.3431 28 91C28 92.6569 26.6569 94 25 94L23 94L23 88L25 88Z" fill="url(#paint2_linear)"/>
<circle cx="47" cy="94" r="6" fill="#272727"/>
<path d="M7 88C8.65685 88 10 89.3431 10 91C10 92.6569 8.65685 94 7 94L5 94L5 88L7 88Z" fill="#272727"/>
<path d="M25 88C26.6569 88 28 89.3431 28 91C28 92.6569 26.6569 94 25 94L23 94L23 88L25 88Z" fill="#272727"/>
<rect x="1" y="84" width="4" height="11" fill="white"/>
<defs>
<linearGradient id="paint0_linear" x1="45" y1="98" x2="51.5" y2="83.5" gradientUnits="userSpaceOnUse">
<stop stop-color="#535353"/>
<stop offset="1"/>
</linearGradient>
<linearGradient id="paint1_linear" x1="4.5" y1="95" x2="9" y2="87" gradientUnits="userSpaceOnUse">
<stop stop-color="#575757"/>
<stop offset="1" stop-color="#272727"/>
</linearGradient>
<linearGradient id="paint2_linear" x1="23" y1="94" x2="26.5" y2="88" gradientUnits="userSpaceOnUse">
<stop stop-color="#1E1C20"/>
<stop offset="1" stop-color="#202020"/>
</linearGradient>
</defs>
</svg>
