<?xml version="1.0" encoding="utf-8"?>
<!-- Generator: Adobe Illustrator 15.0.0, SVG Export Plug-In . SVG Version: 6.00 Build 0)  -->
<!DOCTYPE svg PUBLIC "-//W3C//DTD SVG 1.1//EN" "http://www.w3.org/Graphics/SVG/1.1/DTD/svg11.dtd">
<svg version="1.1" xmlns="http://www.w3.org/2000/svg" xmlns:xlink="http://www.w3.org/1999/xlink" x="0px" y="0px" viewBox="0 0 360 360" xml:space="preserve">
<g id="Layer_1">
	<g>
		<path fill-rule="evenodd" clip-rule="evenodd" fill="#FFFFFF" d="M310.931,119.462l-11.19,14.531h-19.959v41.338h-17.287v-41.338
			h-25.292c-0.112-2.468-0.673-4.875-1.853-7.076c-1.273-2.375-3.086-4.313-5.312-5.828c-0.914-0.623-1.876-1.162-2.873-1.627
			H310.931z"/>
	</g>
	<g>
		<path fill="#FFFFFF" d="M153.024,200.657c0-0.91,0.314-1.612,0.944-2.106c0.629-0.494,1.4-0.741,2.311-0.741
			c0.93,0,1.71,0.247,2.34,0.741c0.629,0.494,0.944,1.196,0.944,2.106c0,0.892-0.315,1.58-0.944,2.063
			c-0.63,0.484-1.41,0.727-2.34,0.727c-0.911,0-1.681-0.242-2.311-0.727C153.339,202.237,153.024,201.549,153.024,200.657z"/>
		<path fill="#FFFFFF" d="M186.709,198.129l-3.865,4.999h-9.766c-1.686,0-3.246-0.252-4.679-0.756
			c-1.434-0.503-2.669-1.196-3.706-2.078c-1.037-0.881-1.851-1.928-2.441-3.139c-0.591-1.211-0.886-2.523-0.886-3.938
			s0.295-2.708,0.886-3.88c0.591-1.173,1.405-2.18,2.441-3.023c1.036-0.843,2.271-1.491,3.706-1.946
			c1.434-0.455,2.994-0.684,4.679-0.684h13.631l-3.865,5.057h-9.766c-0.814,0-1.569,0.117-2.267,0.35
			c-0.697,0.232-1.298,0.557-1.802,0.974c-0.504,0.416-0.901,0.915-1.191,1.496c-0.291,0.581-0.436,1.221-0.436,1.918
			c0,0.698,0.14,1.333,0.421,1.904c0.281,0.571,0.678,1.061,1.191,1.468c0.513,0.406,1.119,0.722,1.816,0.944
			c0.698,0.223,1.453,0.334,2.267,0.334H186.709z"/>
		<path fill="#FFFFFF" d="M202.402,183.365c4.728,0,8.278,0.804,10.651,2.412s3.561,4.146,3.561,7.614
			c0,3.487-1.183,6.036-3.546,7.644c-2.364,1.608-5.919,2.412-10.666,2.412c-4.767,0-8.327-0.804-10.681-2.412
			c-2.354-1.607-3.531-4.156-3.531-7.644c0-3.468,1.182-6.006,3.546-7.614C194.1,184.169,197.655,183.365,202.402,183.365z
			 M202.402,198.391c1.511,0,2.79-0.063,3.836-0.188c1.047-0.126,1.894-0.373,2.543-0.741s1.119-0.877,1.41-1.526
			c0.29-0.648,0.436-1.496,0.436-2.543c0-1.046-0.146-1.894-0.436-2.543c-0.291-0.648-0.761-1.152-1.41-1.511
			s-1.496-0.601-2.543-0.727c-1.046-0.126-2.325-0.189-3.836-0.189c-1.512,0-2.79,0.063-3.837,0.189
			c-1.046,0.126-1.894,0.368-2.543,0.727s-1.118,0.862-1.409,1.511c-0.291,0.649-0.436,1.497-0.436,2.543
			c0,1.047,0.145,1.895,0.436,2.543c0.291,0.649,0.76,1.158,1.409,1.526s1.497,0.615,2.543,0.741
			C199.612,198.328,200.891,198.391,202.402,198.391z"/>
		<path fill="#FFFFFF" d="M232.25,190.922c0.427,0.755,0.8,1.419,1.119,1.99c0.319,0.572,0.601,1.08,0.843,1.526
			c0.242,0.445,0.455,0.853,0.64,1.221c0.184,0.368,0.363,0.727,0.537,1.075c0.155-0.349,0.324-0.702,0.509-1.062
			c0.185-0.357,0.397-0.765,0.64-1.221c0.242-0.454,0.523-0.963,0.843-1.525c0.319-0.562,0.692-1.221,1.119-1.977l3.109-5.521
			c0.349-0.62,0.789-1.119,1.322-1.497s1.196-0.566,1.991-0.566c0.756,0,1.438,0.218,2.049,0.653
			c0.61,0.437,1.051,1.109,1.322,2.021l4.912,17.089h-5.987l-1.831-6.771c-0.31-1.104-0.571-2.073-0.784-2.906
			c-0.214-0.833-0.397-1.646-0.553-2.441c-0.329,0.679-0.697,1.429-1.104,2.252c-0.406,0.824-0.939,1.865-1.599,3.125l-2.615,4.882
			c-0.252,0.484-0.509,0.867-0.771,1.148s-0.528,0.499-0.799,0.653c-0.271,0.155-0.563,0.257-0.872,0.306
			c-0.311,0.048-0.649,0.072-1.018,0.072s-0.707-0.024-1.017-0.072c-0.311-0.049-0.601-0.15-0.872-0.306
			c-0.271-0.154-0.538-0.372-0.799-0.653c-0.262-0.281-0.519-0.664-0.771-1.148l-2.616-4.911c-0.349-0.658-0.658-1.25-0.93-1.773
			c-0.271-0.522-0.519-0.992-0.741-1.409c-0.223-0.416-0.417-0.799-0.581-1.148c-0.165-0.349-0.324-0.688-0.479-1.017
			c-0.155,0.775-0.339,1.584-0.552,2.427c-0.214,0.843-0.466,1.816-0.756,2.921l-1.831,6.771h-5.9l5.028-17.089
			c0.271-0.911,0.717-1.584,1.337-2.021c0.62-0.436,1.308-0.653,2.063-0.653c0.774,0,1.429,0.185,1.962,0.552
			c0.532,0.368,0.974,0.872,1.322,1.512L232.25,190.922z"/>
	</g>
	<g>
		<path fill-rule="evenodd" clip-rule="evenodd" fill="#FFFFFF" d="M98.483,118.5h-7.305l-9.261-0.042l9.261,7.844l20.966,18.908
			c-18.162,22.375-30.917,43.936-28.723,64.803l0,0.006v0.002c0.431,1.574,1.002,3.173,2.058,4.854l-0.587-6.322
			c-1.468-11.128,4.591-23.798,9.877-32.662c5.035-8.442,11.116-16.439,17.477-23.922c7.059-8.305,14.678-16.191,22.606-23.667
			c11.264-10.621,23.426-20.71,36.16-29.525c7.889-5.461,17.279-11.384,26.561-15.285c-26.813,9.974-53.018,27.449-79.597,53.778
			L98.483,118.5z"/>
	</g>
	<g>
		<rect x="59.511" y="134.675" fill-rule="evenodd" clip-rule="evenodd" fill="#FFFFFF" width="17.287" height="40.657"/>
	</g>
	<g>
		<rect x="59.511" y="120.478" fill-rule="evenodd" clip-rule="evenodd" fill="#FFFFFF" width="17.287" height="11.068"/>
	</g>
	<g>
		<path fill-rule="evenodd" clip-rule="evenodd" fill="#FFFFFF" d="M204.464,85.051C163.434,98.309,71.1,184.583,91.432,215.471
			c10.432,15.847,50.657-11.032,56.888-17.017c-8.096,4.1-14.179,9.184-24.493,12.893c-45.947,16.523-12.574-44.336,1.383-55.478
			c1.194,0.982,19.659,19.639,19.659,19.639h14.764l-28.619-27.973C154.335,119.981,174.081,103.537,204.464,85.051z"/>
	</g>
	<g>
		<path fill-rule="evenodd" clip-rule="evenodd" fill="#FFFFFF" d="M226.837,146.634c2.447,0.723,4.519,2.142,6.215,4.254
			c1.696,2.114,2.545,4.839,2.545,8.176c0,2.336-0.361,4.491-1.085,6.465c-0.723,1.975-1.946,3.685-3.671,5.131
			c-1.724,1.446-4.046,2.586-6.966,3.42c-2.919,0.834-6.576,1.251-10.97,1.251h-49.053v-33.953h49.387
			c1.278,0,2.405-0.265,3.378-0.793c0.974-0.528,1.461-1.515,1.461-2.961c0-1.391-0.502-2.337-1.502-2.836
			c-1.001-0.5-2.115-0.751-3.337-0.751h-65.542c4.757-5.017,9.678-9.864,14.822-14.515h49.969c3.337,0,6.355,0.32,9.052,0.959
			s5.005,1.613,6.924,2.92c1.919,1.307,3.393,2.92,4.422,4.839c1.028,1.918,1.543,4.157,1.543,6.715
			c0,1.668-0.223,3.142-0.667,4.421c-0.445,1.279-1.016,2.405-1.711,3.378c-0.695,0.974-1.501,1.78-2.419,2.42
			C228.714,145.813,227.782,146.3,226.837,146.634L226.837,146.634z M181.204,153.308v7.675h31.784c1.891,0,3.254-0.333,4.088-1
			s1.251-1.641,1.251-2.92c0-1.223-0.417-2.155-1.251-2.794c-0.834-0.639-2.197-0.959-4.088-0.959H181.204z"/>
	</g>
</g>
</svg>
