<svg width="135" height="66" viewBox="0 0 135 66" fill="none" xmlns="http://www.w3.org/2000/svg">
<path d="M3.38382 57.8698C3.4212 57.8602 3.45629 57.8433 3.487 57.82C3.51772 57.7966 3.54344 57.7674 3.56264 57.7339C3.58183 57.7004 3.59412 57.6635 3.59876 57.6252C3.60341 57.5869 3.60032 57.548 3.58968 57.511C3.52296 57.2644 3.52296 57.0046 3.58968 56.7581C3.61017 56.6924 3.60593 56.6214 3.57777 56.5586C3.54961 56.4958 3.49946 56.4454 3.43675 56.417C2.70972 56.1039 2.08837 55.5878 1.64711 54.9306C1.20585 54.2734 0.963402 53.503 0.948799 52.7115C0.945244 52.1405 1.06294 51.5752 1.29412 51.053C1.52529 50.5308 1.86467 50.0637 2.28982 49.6824C3.27847 48.8104 4.56645 48.355 5.88354 48.412C6.84993 48.3904 7.80447 48.628 8.64793 49.1002C8.7081 49.1358 8.77917 49.1483 8.84791 49.1354L11.9123 48.5473C11.9533 48.5387 11.9956 48.5392 12.0364 48.5486C12.0772 48.5581 12.1155 48.5763 12.1485 48.6021C12.1816 48.6278 12.2086 48.6605 12.2277 48.6977C12.2468 48.735 12.2576 48.776 12.2593 48.8178L12.3534 51.1705C12.356 51.2396 12.3336 51.3073 12.2904 51.3613C12.2473 51.4153 12.1861 51.4519 12.1181 51.4646L10.983 51.6881C10.9094 51.7024 10.8443 51.7448 10.8015 51.8063C10.7587 51.8678 10.7415 51.9435 10.7536 52.0175C10.8806 52.6572 10.8389 53.319 10.6326 53.9377C10.4264 54.5565 10.0627 55.1109 9.57724 55.5465C8.74793 56.3237 7.67129 56.784 6.5364 56.8463C6.46517 56.8536 6.39921 56.8872 6.35137 56.9405C6.30353 56.9938 6.27724 57.0629 6.27761 57.1345C6.27226 57.1991 6.27226 57.264 6.27761 57.3286C6.28851 57.3947 6.32206 57.4549 6.37251 57.4989C6.42295 57.5429 6.48714 57.5679 6.55405 57.5698C7.87155 57.5887 9.16345 57.9365 10.3124 58.5814C10.7922 58.867 11.1874 59.2749 11.4578 59.7633C11.7283 60.2517 11.8641 60.8031 11.8516 61.3613C11.839 61.9194 11.6785 62.4642 11.3863 62.9399C11.0942 63.4157 10.681 63.8053 10.1889 64.069C8.8689 64.7412 7.3991 65.0651 5.91883 65.0101C4.44031 65.0768 2.96907 64.7671 1.64284 64.1102C1.13241 63.8498 0.70687 63.4492 0.416198 62.9553C0.125525 62.4615 -0.0182181 61.895 0.00184731 61.3223C0.00184731 59.5519 1.28994 58.3815 3.38382 57.8698ZM5.93647 62.0693C7.5755 62.0693 8.39502 61.8203 8.39502 61.3223C8.39502 60.7988 7.57746 60.5518 5.93647 60.5518C4.29548 60.5518 3.47793 60.7988 3.47793 61.3223C3.47793 61.8458 4.29548 62.0693 5.93647 62.0693ZM7.37748 52.7115C7.38539 52.5208 7.35061 52.3307 7.2757 52.1552C7.20078 51.9796 7.08762 51.823 6.94446 51.6968C6.80131 51.5705 6.63177 51.4778 6.44823 51.4254C6.26468 51.3731 6.07176 51.3623 5.88354 51.394C3.97199 51.3175 3.92493 54.0996 5.88354 53.929C6.77755 53.9231 7.37748 53.4761 7.37748 52.7115Z" fill="#3C3C3B"/>
<path d="M14.2274 49.7296C14.2052 49.6651 14.2067 49.5948 14.2314 49.5313C14.2562 49.4678 14.3027 49.4151 14.3627 49.3826C15.5827 48.7622 16.9289 48.4301 18.2975 48.4121C21.5971 48.4121 22.9382 50.0002 22.9382 53.1528V59.5932C22.9382 59.631 22.9307 59.6685 22.9162 59.7035C22.9017 59.7385 22.8805 59.7702 22.8538 59.797C22.827 59.8238 22.7952 59.845 22.7603 59.8595C22.7253 59.8739 22.6878 59.8814 22.65 59.8814H19.9973C19.9209 59.8814 19.8476 59.851 19.7935 59.797C19.7395 59.7429 19.7091 59.6696 19.7091 59.5932C19.7092 59.5386 19.6937 59.4852 19.6646 59.439C19.6355 59.3929 19.5939 59.356 19.5446 59.3326C19.4953 59.3092 19.4404 59.3002 19.3862 59.3068C19.332 59.3134 19.2808 59.3352 19.2386 59.3697C18.5176 59.8635 17.6521 60.1016 16.78 60.0461C16.3078 60.0802 15.8338 60.0124 15.3902 59.8471C14.9465 59.6818 14.5436 59.423 14.2089 59.0882C13.8741 58.7535 13.6153 58.3506 13.45 57.9069C13.2847 57.4633 13.2169 56.9893 13.251 56.5171C13.251 54.1115 14.9155 52.8175 17.2741 52.8175C17.8812 52.7956 18.485 52.9144 19.0386 53.1645C19.0845 53.1878 19.1357 53.1984 19.1871 53.1952C19.2384 53.192 19.2879 53.1751 19.3305 53.1463C19.3731 53.1175 19.4073 53.0778 19.4294 53.0314C19.4515 52.9849 19.4607 52.9334 19.4562 52.8822C19.455 52.6895 19.4132 52.4993 19.3336 52.3239C19.2539 52.1485 19.1381 51.9918 18.9938 51.8642C18.8495 51.7365 18.6799 51.6407 18.4961 51.583C18.3123 51.5253 18.1183 51.5071 17.927 51.5294C17.0406 51.5745 16.1689 51.7735 15.3508 52.1176C15.3145 52.1315 15.2759 52.138 15.2371 52.1366C15.1983 52.1352 15.1601 52.126 15.125 52.1095C15.0898 52.0931 15.0584 52.0697 15.0325 52.0407C15.0066 52.0118 14.9868 51.9779 14.9744 51.9411L14.2274 49.7296ZM19.4621 56.2524V55.8172C19.4624 55.7657 19.4489 55.7151 19.423 55.6707C19.3972 55.6262 19.3599 55.5894 19.315 55.5642C18.9242 55.3652 18.4887 55.27 18.0505 55.2878C17.427 55.2878 16.98 55.6113 16.98 56.1348C16.98 56.6582 17.427 56.9288 18.0505 56.9288C18.297 56.9536 18.546 56.9249 18.7805 56.8447C19.015 56.7645 19.2294 56.6347 19.4092 56.4641C19.4539 56.4054 19.4749 56.3319 19.468 56.2583L19.4621 56.2524Z" fill="#3C3C3B"/>
<path d="M42.4675 59.8814H39.3208C39.2443 59.8814 39.171 59.8511 39.117 59.797C39.0629 59.743 39.0326 59.6697 39.0326 59.5932V53.5763C39.0326 52.5058 38.562 51.9882 37.6445 51.9882C37.3122 51.9765 36.9828 52.0544 36.691 52.2137C36.3992 52.3731 36.1556 52.6081 35.9859 52.894C35.965 52.936 35.9549 52.9824 35.9564 53.0293V59.5991C35.9564 59.6756 35.9261 59.7489 35.872 59.8029C35.818 59.857 35.7447 59.8873 35.6682 59.8873H32.5157C32.4392 59.8873 32.3659 59.857 32.3119 59.8029C32.2578 59.7489 32.2275 59.6756 32.2275 59.5991V53.5528C32.2275 52.5117 31.7804 51.9882 30.91 51.9882C30.5804 51.9742 30.2525 52.0414 29.955 52.184C29.6576 52.3266 29.3998 52.5401 29.2043 52.8058C29.1657 52.8565 29.145 52.9185 29.1454 52.9822V59.5991C29.1454 59.637 29.138 59.6745 29.1235 59.7094C29.109 59.7444 29.0878 59.7762 29.061 59.8029C29.0343 59.8297 29.0025 59.8509 28.9675 59.8654C28.9326 59.8799 28.8951 59.8873 28.8572 59.8873H25.7164C25.64 59.8873 25.5667 59.857 25.5126 59.8029C25.4586 59.7489 25.4282 59.6756 25.4282 59.5991V49.0121C25.4282 48.9357 25.4586 48.8623 25.5126 48.8083C25.5667 48.7543 25.64 48.7239 25.7164 48.7239H28.8631C28.9396 48.7239 29.0129 48.7543 29.0669 48.8083C29.121 48.8623 29.1513 48.9357 29.1513 49.0121V49.1415C29.1516 49.194 29.1662 49.2455 29.1935 49.2904C29.2209 49.3353 29.26 49.3718 29.3067 49.396C29.3533 49.4202 29.4057 49.4312 29.4581 49.4278C29.5106 49.4245 29.5611 49.4068 29.6042 49.3768C30.4368 48.7945 31.4355 48.4974 32.451 48.5298C33.8684 48.5298 34.9213 49.0474 35.4389 49.8238C35.4633 49.8598 35.4954 49.8899 35.5329 49.912C35.5703 49.934 35.6122 49.9475 35.6556 49.9515C35.6989 49.9554 35.7425 49.9497 35.7834 49.9347C35.8242 49.9198 35.8612 49.8959 35.8917 49.8649C36.3231 49.4212 36.8428 49.073 37.4174 48.843C37.9919 48.613 38.6083 48.5063 39.2267 48.5298C41.5793 48.5298 42.7557 49.8943 42.7557 52.5999V59.6109C42.7512 59.6842 42.7188 59.7531 42.6653 59.8034C42.6117 59.8537 42.5409 59.8816 42.4675 59.8814Z" fill="#3C3C3B"/>
<path d="M54.9445 58.7053C54.9682 58.7667 54.9707 58.8342 54.9515 58.8971C54.9323 58.96 54.8926 59.0147 54.8387 59.0523C53.6007 59.8452 52.1493 60.2393 50.6803 60.1816C49.8742 60.2173 49.0689 60.0933 48.3109 59.8167C47.5528 59.5402 46.8569 59.1165 46.2632 58.5701C45.2021 57.4161 44.6133 55.9058 44.6133 54.3382C44.6133 52.7706 45.2021 51.2602 46.2632 50.1063C46.8423 49.541 47.5306 49.0998 48.286 48.8096C49.0415 48.5193 49.8482 48.3862 50.6568 48.4183C52.0772 48.3926 53.4506 48.9272 54.4799 49.9063C55.0036 50.3821 55.417 50.9666 55.6913 51.6188C55.9656 52.271 56.0942 52.9753 56.0679 53.6824C56.0768 54.2339 56.0215 54.7846 55.9032 55.3234C55.8886 55.3871 55.8526 55.444 55.8013 55.4846C55.75 55.5252 55.6864 55.5472 55.6209 55.5469H48.904C48.8536 55.5466 48.804 55.5595 48.7601 55.5844C48.7162 55.6093 48.6797 55.6453 48.6541 55.6888C48.6285 55.7322 48.6147 55.7817 48.6142 55.8321C48.6137 55.8826 48.6264 55.9322 48.6511 55.9762C49.0628 56.7114 49.8745 57.0879 51.0744 57.0879C51.9949 57.1044 52.9048 56.89 53.7211 56.4644C53.757 56.4449 53.7966 56.4332 53.8372 56.4301C53.8779 56.427 53.9188 56.4326 53.9572 56.4465C53.9955 56.4604 54.0305 56.4823 54.0598 56.5108C54.0891 56.5392 54.112 56.5735 54.127 56.6114L54.9445 58.7053ZM48.7923 53.0589H52.039C52.0831 53.0594 52.1267 53.0497 52.1665 53.0306C52.2062 53.0115 52.2411 52.9836 52.2684 52.9489C52.2956 52.9143 52.3146 52.8738 52.3238 52.8307C52.3329 52.7876 52.3321 52.7429 52.3213 52.7001C52.2031 52.3337 51.9644 52.018 51.6441 51.8044C51.3237 51.5908 50.9405 51.4919 50.5568 51.5238C50.1485 51.4951 49.7406 51.5854 49.3826 51.7838C49.0245 51.9821 48.7317 52.28 48.5394 52.6413C48.5175 52.6849 48.507 52.7333 48.5089 52.7821C48.5108 52.8308 48.5251 52.8783 48.5504 52.92C48.5756 52.9618 48.6111 52.9964 48.6534 53.0207C48.6957 53.045 48.7435 53.0581 48.7923 53.0589Z" fill="#3C3C3B"/>
<path d="M61.4298 55.6406C59.7652 55.2701 57.5831 54.4643 57.6067 52.0646C57.6067 49.7531 59.4712 48.412 61.9768 48.412C63.5843 48.3365 65.1688 48.8162 66.4645 49.7707C66.5183 49.8126 66.5556 49.8722 66.5696 49.939C66.5836 50.0058 66.5734 50.0754 66.5409 50.1354L65.4058 52.2822C65.3874 52.3171 65.3621 52.3479 65.3314 52.3727C65.3007 52.3975 65.2652 52.4156 65.2271 52.4261C65.1891 52.4366 65.1493 52.4391 65.1102 52.4336C65.0711 52.4281 65.0336 52.4146 64.9999 52.3939C64.1631 51.841 63.1855 51.539 62.1826 51.5235C61.6591 51.5235 61.3121 51.747 61.3121 52.0175C61.3121 53.1586 67.1938 52.441 67.1938 56.4111C67.1938 58.6932 65.3293 60.1872 62.3767 60.1872C61.2904 60.1874 60.2163 59.9589 59.2241 59.5167C58.5514 59.2492 57.9393 58.8491 57.4243 58.3403C57.3847 58.2889 57.3633 58.2258 57.3633 58.1609C57.3633 58.096 57.3847 58.033 57.4243 57.9815L58.8771 55.9759C58.8998 55.9443 58.9286 55.9177 58.9618 55.8976C58.995 55.8774 59.032 55.8642 59.0704 55.8587C59.1089 55.8532 59.1481 55.8556 59.1856 55.8656C59.2231 55.8756 59.2582 55.8931 59.2888 55.9171C59.7204 56.2397 60.1957 56.4991 60.7004 56.6876C61.3165 56.9382 61.971 57.0815 62.6355 57.1111C63.2237 57.1111 63.4825 56.9346 63.4825 56.617C63.5236 56.1582 62.5943 55.9112 61.4298 55.6406Z" fill="#3C3C3B"/>
<path d="M3.69904 14.2454L3.49318 15.61C3.43062 16.0281 3.45893 16.4548 3.57618 16.8609C3.69343 17.2671 3.89687 17.6432 4.17263 17.9636C4.44839 18.284 4.78999 18.5412 5.17415 18.7177C5.55831 18.8941 5.97599 18.9857 6.39874 18.9861H24.0438L3.59906 25.7559C3.08367 25.9269 2.62568 26.2371 2.27583 26.6524C1.92597 27.0677 1.69791 27.5717 1.61693 28.1086L0.799372 33.5609L0.505287 35.5078C0.442721 35.9258 0.471028 36.3525 0.588279 36.7587C0.705531 37.1648 0.90897 37.5409 1.18473 37.8613C1.46049 38.1818 1.80209 38.439 2.18625 38.6154C2.57041 38.7919 2.9881 38.8834 3.41084 38.8838H22.8616C23.5648 38.8834 24.2445 38.6309 24.7775 38.1723C25.3106 37.7137 25.6617 37.0793 25.7671 36.3841L25.973 35.0196C26.0356 34.6015 26.0073 34.1748 25.89 33.7687C25.7728 33.3625 25.5693 32.9864 25.2936 32.666C25.0178 32.3456 24.6762 32.0884 24.292 31.9119C23.9079 31.7355 23.4902 31.6439 23.0674 31.6435H6.59872L25.8083 25.2913C26.3237 25.1203 26.7817 24.81 27.1315 24.3948C27.4814 23.9795 27.7094 23.4755 27.7904 22.9386L28.608 17.4804L28.9609 15.1277C29.0216 14.7105 28.9919 14.2851 28.8738 13.8804C28.7557 13.4757 28.552 13.1011 28.2764 12.782C28.0008 12.4629 27.6599 12.2069 27.2767 12.0311C26.8935 11.8553 26.4769 11.764 26.0553 11.7634H6.6046C5.90403 11.7632 5.22641 12.0131 4.69374 12.4682C4.16107 12.9232 3.80833 13.5535 3.69904 14.2454ZM32.4311 14.2454L29.2373 35.5136C29.1748 35.9317 29.2031 36.3584 29.3203 36.7645C29.4376 37.1707 29.641 37.5468 29.9168 37.8672C30.1925 38.1876 30.5341 38.4448 30.9183 38.6213C31.3025 38.7977 31.7201 38.8893 32.1429 38.8897H33.4427C34.1459 38.8892 34.8256 38.6368 35.3587 38.1782C35.8917 37.7196 36.2428 37.0852 36.3483 36.39L39.542 15.1159C39.6009 14.6996 39.5698 14.2755 39.4509 13.8723C39.3319 13.469 39.1279 13.0959 38.8525 12.7782C38.5772 12.4604 38.2369 12.2054 37.8546 12.0304C37.4723 11.8553 37.0569 11.7643 36.6365 11.7634H35.3366C34.6361 11.7632 33.9585 12.0131 33.4258 12.4682C32.8931 12.9232 32.5404 13.5535 32.4311 14.2454ZM37.9481 3.01731H36.6483C35.9451 3.01779 35.2654 3.27021 34.7323 3.7288C34.1993 4.1874 33.8482 4.82181 33.7427 5.51702C33.6801 5.93511 33.7084 6.36178 33.8257 6.76794C33.943 7.1741 34.1464 7.5502 34.4221 7.87062C34.6979 8.19104 35.0395 8.44824 35.4237 8.62469C35.8078 8.80114 36.2255 8.8927 36.6483 8.89311H37.9481C38.6513 8.89263 39.331 8.64021 39.8641 8.18162C40.3971 7.72302 40.7482 7.08861 40.8537 6.3934C40.9162 5.97531 40.8879 5.54864 40.7707 5.14249C40.6534 4.73633 40.45 4.36022 40.1742 4.0398C39.8985 3.71938 39.5569 3.46218 39.1727 3.28573C38.7885 3.10928 38.3709 3.01772 37.9481 3.01731ZM69.1211 3.01731H67.8212C67.118 3.01779 66.4383 3.27021 65.9053 3.7288C65.3722 4.1874 65.0211 4.82181 64.9156 5.51702C64.8531 5.93511 64.8814 6.36178 64.9986 6.76794C65.1159 7.1741 65.3193 7.5502 65.5951 7.87062C65.8709 8.19104 66.2125 8.44824 66.5966 8.62469C66.9808 8.80114 67.3985 8.8927 67.8212 8.89311H69.1211C69.8242 8.89263 70.504 8.64021 71.037 8.18162C71.5701 7.72302 71.9211 7.08861 72.0266 6.3934C72.0894 5.97383 72.0607 5.54565 71.9424 5.13824C71.8241 4.73082 71.6191 4.35382 71.3414 4.0331C71.0637 3.71238 70.7199 3.45554 70.3336 3.2802C69.9473 3.10486 69.5276 3.01518 69.1034 3.01731H69.1211ZM63.3158 38.8956H64.6157C65.3189 38.8951 65.9986 38.6427 66.5316 38.1841C67.0647 37.7255 67.4158 37.0911 67.5212 36.3959L70.6973 15.1159C70.7562 14.6996 70.7251 14.2755 70.6062 13.8723C70.4872 13.469 70.2832 13.0959 70.0078 12.7782C69.7325 12.4604 69.3922 12.2054 69.0099 12.0304C68.6276 11.8553 68.2122 11.7643 67.7918 11.7634H66.4919C65.7888 11.7639 65.109 12.0163 64.576 12.4749C64.0429 12.9335 63.6919 13.5679 63.5864 14.2631L60.3926 35.5313C60.3338 35.9476 60.3649 36.3717 60.4838 36.775C60.6027 37.1782 60.8068 37.5513 61.0821 37.8691C61.3575 38.1868 61.6978 38.4418 62.0801 38.6168C62.4624 38.7919 62.8777 38.8829 63.2982 38.8838L63.3158 38.8956ZM75.0792 14.2572L71.8855 35.5254C71.8229 35.9435 71.8512 36.3702 71.9684 36.7763C72.0857 37.1825 72.2891 37.5586 72.5649 37.879C72.8407 38.1994 73.1823 38.4566 73.5664 38.6331C73.9506 38.8095 74.3683 38.9011 74.791 38.9015H96.1004C96.8035 38.901 97.4833 38.6486 98.0163 38.19C98.5494 37.7314 98.9004 37.097 99.0059 36.4018L102.2 15.1336C102.262 14.714 102.232 14.2859 102.113 13.8788C101.994 13.4717 101.788 13.0952 101.51 12.775C101.232 12.4549 100.888 12.1987 100.501 12.0241C100.114 11.8495 99.6947 11.7605 99.2706 11.7634H77.9612C77.2607 11.7632 76.5831 12.0131 76.0504 12.4682C75.5177 12.9232 75.165 13.5535 75.0557 14.2454L75.0792 14.2572ZM92.1773 31.6435H80.0492C80.0038 31.6431 79.9589 31.633 79.9176 31.6138C79.8764 31.5947 79.8397 31.5668 79.8102 31.5323C79.7806 31.4977 79.7589 31.4572 79.7463 31.4134C79.7338 31.3697 79.7308 31.3238 79.7375 31.2788L81.5432 19.2508C81.5544 19.1759 81.592 19.1075 81.6491 19.0579C81.7063 19.0083 81.7792 18.9808 81.8549 18.9802H93.983C94.0284 18.9805 94.0733 18.9907 94.1146 19.0098C94.1558 19.029 94.1925 19.0569 94.222 19.0914C94.2516 19.126 94.2733 19.1665 94.2859 19.2103C94.2984 19.254 94.3014 19.2999 94.2947 19.3449L92.489 31.3729C92.4778 31.4478 92.4402 31.5161 92.3831 31.5657C92.3259 31.6153 92.253 31.6429 92.1773 31.6435ZM44.6179 2.49972L39.6597 35.5136C39.5971 35.9317 39.6254 36.3584 39.7427 36.7645C39.8599 37.1707 40.0634 37.5468 40.3391 37.8672C40.6149 38.1876 40.9565 38.4448 41.3406 38.6213C41.7248 38.7977 42.1425 38.8893 42.5652 38.8897H43.8651C44.5683 38.8892 45.248 38.6368 45.781 38.1782C46.3141 37.7196 46.6652 37.0852 46.7706 36.39L51.7289 3.37609C51.7915 2.95751 51.7631 2.53034 51.6455 2.12377C51.5279 1.71719 51.3239 1.34079 51.0475 1.02027C50.7711 0.699748 50.4288 0.442667 50.0439 0.266586C49.6591 0.090505 49.2407 -0.000427114 48.8175 1.50825e-06H47.5235C46.8203 0.000483906 46.1406 0.252903 45.6076 0.711497C45.0745 1.17009 44.7234 1.8045 44.6179 2.49972ZM54.8286 2.49972L49.8703 35.5136C49.8077 35.9317 49.836 36.3584 49.9533 36.7645C50.0705 37.1707 50.274 37.5468 50.5497 37.8672C50.8255 38.1876 51.1671 38.4448 51.5513 38.6213C51.9354 38.7977 52.3531 38.8893 52.7758 38.8897H54.0757C54.7789 38.8892 55.4586 38.6368 55.9916 38.1782C56.5247 37.7196 56.8758 37.0852 56.9813 36.39L61.9395 3.38197C62.003 2.96344 61.9754 2.53613 61.8586 2.12925C61.7418 1.72237 61.5385 1.34551 61.2626 1.02441C60.9867 0.703321 60.6448 0.445568 60.2602 0.268768C59.8756 0.0919692 59.4573 0.00029189 59.034 1.50825e-06H57.7341C57.0309 0.000483906 56.3512 0.252903 55.8182 0.711497C55.2851 1.17009 54.934 1.8045 54.8286 2.49972ZM127.332 14.1161L124.309 34.255L120.298 13.9867C120.162 13.3224 119.801 12.7254 119.276 12.2967C118.751 11.8679 118.094 11.6338 117.416 11.634H108.852C108.151 11.6338 107.474 11.8837 106.941 12.3388C106.408 12.7938 106.056 13.4241 105.946 14.1161L102.729 35.5195C102.666 35.9376 102.695 36.3643 102.812 36.7704C102.929 37.1766 103.133 37.5527 103.408 37.8731C103.684 38.1935 104.026 38.4507 104.41 38.6272C104.794 38.8036 105.212 38.8952 105.635 38.8956H107.47C108.173 38.8951 108.853 38.6427 109.386 38.1841C109.919 37.7255 110.27 37.0911 110.375 36.3959L113.21 17.5333L116.969 36.5312C117.104 37.1954 117.465 37.7924 117.99 38.2212C118.515 38.6499 119.173 38.884 119.851 38.8838H128.85C129.552 38.882 130.23 38.6289 130.762 38.1704C131.294 37.712 131.644 37.0783 131.749 36.3841L134.967 14.9807C135.029 14.5626 135.001 14.1359 134.884 13.7297C134.766 13.3236 134.563 12.9475 134.287 12.6271C134.011 12.3066 133.67 12.0494 133.286 11.873C132.901 11.6965 132.484 11.605 132.061 11.6046H130.226C129.523 11.6083 128.845 11.8636 128.314 12.3244C127.783 12.7851 127.435 13.4207 127.332 14.1161Z" fill="#F9B233"/>
</svg>
