<svg width="102" height="42" viewBox="0 0 102 42" fill="none" xmlns="http://www.w3.org/2000/svg">
<path d="M49.3046 2.70908C50.0882 1.45707 51.9118 1.45706 52.6954 2.70908L57.6326 10.5984C57.9071 11.037 58.3409 11.3522 58.8429 11.4777L67.8718 13.7354C69.3047 14.0937 69.8682 15.8281 68.9196 16.9602L62.9421 24.0938C62.6097 24.4903 62.4441 25.0003 62.4798 25.5165L63.1227 34.8011C63.2248 36.2746 61.7493 37.3465 60.3795 36.7942L51.748 33.3136C51.2681 33.1201 50.7319 33.1201 50.252 33.3136L41.6205 36.7942C40.2507 37.3465 38.7752 36.2746 38.8773 34.8011L39.5202 25.5165C39.5559 25.0003 39.3903 24.4903 39.0579 24.0938L33.0804 16.9602C32.1318 15.8281 32.6953 14.0937 34.1282 13.7354L43.1571 11.4777C43.6591 11.3522 44.0929 11.037 44.3674 10.5984L49.3046 2.70908Z" fill="#F9B233"/>
<path d="M86.8046 17.7091C87.5882 16.4571 89.4118 16.4571 90.1954 17.7091L92.611 21.5691C92.8855 22.0077 93.3193 22.3229 93.8213 22.4484L98.2389 23.553C99.6717 23.9113 100.235 25.6457 99.2867 26.7778L96.362 30.2681C96.0297 30.6647 95.864 31.1746 95.8998 31.6908L96.2143 36.2335C96.3164 37.707 94.841 38.7789 93.4712 38.2266L89.248 36.5236C88.7681 36.3301 88.2319 36.3301 87.752 36.5236L83.5288 38.2266C82.159 38.7789 80.6836 37.707 80.7857 36.2335L81.1002 31.6908C81.136 31.1746 80.9703 30.6647 80.638 30.2681L77.7133 26.7778C76.7647 25.6457 77.3283 23.9113 78.7611 23.553L83.1787 22.4484C83.6807 22.3229 84.1145 22.0077 84.389 21.5691L86.8046 17.7091Z" fill="#F9B233"/>
<path d="M11.8046 17.7091C12.5882 16.4571 14.4118 16.4571 15.1954 17.7091L17.611 21.5691C17.8855 22.0077 18.3193 22.3229 18.8213 22.4484L23.2389 23.553C24.6717 23.9113 25.2353 25.6457 24.2867 26.7778L21.362 30.2681C21.0297 30.6647 20.864 31.1746 20.8998 31.6908L21.2143 36.2335C21.3164 37.707 19.841 38.7789 18.4712 38.2266L14.248 36.5236C13.7681 36.3301 13.2319 36.3301 12.752 36.5236L8.52884 38.2266C7.15904 38.7789 5.68364 37.707 5.78567 36.2335L6.10023 31.6908C6.13597 31.1746 5.97028 30.6647 5.63797 30.2681L2.71332 26.7778C1.76471 25.6457 2.32826 23.9113 3.76112 23.553L8.17874 22.4484C8.68069 22.3229 9.11447 22.0077 9.38895 21.5691L11.8046 17.7091Z" fill="#F9B233"/>
</svg>
