<svg width="24" height="25" viewBox="0 0 24 25" fill="none" xmlns="http://www.w3.org/2000/svg">
<path d="M19.453 2.61089L13.1978 7.15778L23.6787 14.7764C23.8884 13.889 24 12.964 24 12.0134C24 8.20865 22.2215 4.81207 19.453 2.61089Z" fill="black"/>
<path d="M18.2336 1.75817C16.4157 0.647966 14.2813 0.00762939 12 0.00762939C9.54841 0.00762939 7.26655 0.747576 5.3647 2.01516L7.75512 9.37505L18.2336 1.75817Z" fill="black"/>
<path d="M4.17846 2.91573C1.62163 5.1191 0 8.38021 0 12.0133C0 13.1297 0.153655 14.2108 0.439919 15.237H8.18029L4.17846 2.91573Z" fill="black"/>
<path d="M0.92899 16.644C2.68215 20.8239 6.73372 23.8086 11.4929 24.0076L13.8843 16.644H0.92899Z" fill="black"/>
<path d="M12.9809 23.9788C17.6988 23.5951 21.6532 20.4695 23.2463 16.2011L16.9849 11.6497L12.9809 23.9788Z" fill="black"/>
</svg>
