<svg>
    <symbol id="vk-stroke" width="31" height="20" viewBox="0 0 31 20"  xmlns="http://www.w3.org/2000/svg">
        <path d="M15.3837 19.0991C19.7816 19.0991 18.2134 16.3018 18.5529 15.4975C18.5478 14.8968 18.5428 14.319 18.563 13.9678C18.8417 14.0467 19.4991 14.3814 20.857 15.7075C22.9533 17.8328 23.4891 19.0991 25.1826 19.0991H28.2999C29.2879 19.0991 29.8022 18.688 30.0593 18.3431C30.3076 18.0097 30.5508 17.4243 30.2848 16.5131C29.5894 14.319 25.5335 10.5303 25.2814 10.1307C25.3194 10.0569 25.3802 9.95889 25.4119 9.90798H25.4094C26.2099 8.84532 29.2651 4.24594 29.7148 2.40569C29.7161 2.40314 29.7173 2.39932 29.7173 2.3955C29.9605 1.55555 29.7376 1.01086 29.5071 0.702874C29.16 0.242173 28.6077 0.00927734 27.8617 0.00927734H24.7444C23.7006 0.00927734 22.909 0.537429 22.5087 1.50083C21.8386 3.21255 19.9564 6.73271 18.5453 7.97864C18.5022 6.21347 18.5314 4.86573 18.5542 3.86415C18.5998 1.91062 18.7467 0.00927734 16.7289 0.00927734H11.8294C10.5653 0.00927734 9.35562 1.39647 10.6654 3.04329C11.8104 4.48648 11.077 5.29079 11.324 9.29456C10.3614 8.25735 8.64882 5.45624 7.43788 1.87626C7.09841 0.907771 6.58415 0.0105499 5.13634 0.0105499H2.01907C0.754935 0.0105499 0 0.702874 0 1.86226C0 4.46611 5.73674 19.0991 15.3837 19.0991ZM5.13634 1.91953C5.41121 1.91953 5.43908 1.91953 5.64301 2.50113C6.88308 6.1702 9.66469 11.5993 11.6964 11.5993C13.2228 11.5993 13.2228 10.0276 13.2228 9.43583L13.2215 4.72446C13.1379 3.16546 12.573 2.38914 12.2018 1.91826L16.6453 1.92335C16.6478 1.94498 16.62 7.13487 16.658 8.39225C16.658 10.1778 18.069 11.201 20.2718 8.96113C22.5961 6.32546 24.2035 2.38532 24.2681 2.22497C24.3631 1.99589 24.4454 1.91826 24.7444 1.91826H27.8617H27.8743C27.8731 1.92208 27.8731 1.92589 27.8718 1.92971C27.5868 3.266 24.7735 7.5243 23.8324 8.84659C23.8172 8.86695 23.8032 8.88859 23.7893 8.91022C23.3751 9.58982 23.0382 10.3407 23.8463 11.397H23.8476C23.921 11.4861 24.1123 11.6948 24.391 11.985C25.2574 12.8834 28.229 15.9556 28.4925 17.1774C28.3177 17.2054 28.1277 17.185 25.1826 17.1914C24.5556 17.1914 24.0654 16.2496 22.1946 14.3534C20.5124 12.7091 19.4206 12.0371 18.4262 12.0371C16.4958 12.0371 16.6364 13.6114 16.6542 15.5153C16.6605 17.5795 16.6478 16.9267 16.6618 17.0565C16.549 17.101 16.226 17.1901 15.3837 17.1901C7.34668 17.1901 2.1128 4.37321 1.9114 1.92335C1.98107 1.91699 2.93994 1.9208 5.13634 1.91953Z" />
    </symbol>

    <symbol id="insta-stroke" width="25" height="25" viewBox="0 0 25 25"  xmlns="http://www.w3.org/2000/svg">
        <path d="M23.9772 7.08943C23.921 5.80819 23.7148 4.92734 23.4194 4.16408C23.1146 3.3539 22.6458 2.62854 22.0315 2.02555C21.4314 1.41318 20.7047 0.937333 19.9077 0.635929C19.1436 0.339125 18.2715 0.131933 16.9963 0.0754429C15.7115 0.0141685 15.3037 0 12.0453 0C8.78682 0 8.37897 0.0141685 7.099 0.0706588C5.8238 0.127149 4.9471 0.334525 4.18762 0.631145C3.38107 0.937333 2.65913 1.40839 2.05898 2.02555C1.44949 2.62854 0.976069 3.35868 0.675902 4.15948C0.380497 4.92734 0.17428 5.8034 0.118056 7.08464C0.0570706 8.37545 0.0429688 8.78524 0.0429688 12.0591C0.0429688 15.333 0.0570706 15.7427 0.113295 17.0288C0.169519 18.31 0.375918 19.1908 0.671323 19.9541C0.976069 20.7643 1.44949 21.4896 2.05898 22.0926C2.65913 22.705 3.38583 23.1809 4.18286 23.4823C4.9471 23.7791 5.81903 23.9863 7.09442 24.0427C8.37421 24.0994 8.78225 24.1134 12.0407 24.1134C15.2991 24.1134 15.707 24.0994 16.9869 24.0427C18.2621 23.9863 19.1388 23.7791 19.8983 23.4823C21.5112 22.8557 22.7864 21.5745 23.41 19.9541C23.7053 19.1862 23.9117 18.31 23.9679 17.0288C24.0241 15.7427 24.0382 15.333 24.0382 12.0591C24.0382 8.78524 24.0334 8.37545 23.9772 7.08943ZM21.816 16.9345C21.7643 18.1122 21.5675 18.7481 21.4034 19.1721C21.0001 20.2226 20.1703 21.0563 19.1247 21.4615C18.7028 21.6264 18.0653 21.8242 16.8977 21.8759C15.6319 21.9326 15.2522 21.9465 12.05 21.9465C8.84781 21.9465 8.4634 21.9326 7.20211 21.8759C6.03001 21.8242 5.39708 21.6264 4.97512 21.4615C4.45482 21.2683 3.98122 20.9621 3.59681 20.5617C3.19829 20.1707 2.89355 19.6996 2.70125 19.1769C2.53716 18.7529 2.34028 18.1122 2.28882 16.9393C2.23241 15.6675 2.21849 15.2858 2.21849 12.0685C2.21849 8.85111 2.23241 8.46488 2.28882 7.19781C2.34028 6.02016 2.53716 5.38423 2.70125 4.96028C2.89355 4.43733 3.19829 3.96167 3.60157 3.57526C3.99056 3.17486 4.4594 2.86867 4.97988 2.67565C5.40184 2.51078 6.03954 2.31297 7.20687 2.26108C8.47274 2.20459 8.85257 2.19042 12.0546 2.19042C15.2616 2.19042 15.6412 2.20459 16.9025 2.26108C18.0746 2.31297 18.7075 2.51078 19.1295 2.67565C19.6498 2.86867 20.1234 3.17486 20.5078 3.57526C20.9063 3.96627 21.2111 4.43733 21.4034 4.96028C21.5675 5.38423 21.7643 6.02476 21.816 7.19781C21.8722 8.46967 21.8863 8.85111 21.8863 12.0685C21.8863 15.2858 21.8722 15.6627 21.816 16.9345Z" />
        <path d="M12.0451 5.86466C8.64147 5.86466 5.87989 8.63912 5.87989 12.0591C5.87989 15.479 8.64147 18.2535 12.0451 18.2535C15.449 18.2535 18.2104 15.479 18.2104 12.0591C18.2104 8.63912 15.449 5.86466 12.0451 5.86466ZM12.0451 16.0772C9.83701 16.0772 8.0459 14.2778 8.0459 12.0591C8.0459 9.84032 9.83701 8.04091 12.0451 8.04091C14.2534 8.04091 16.0444 9.84032 16.0444 12.0591C16.0444 14.2778 14.2534 16.0772 12.0451 16.0772Z" />
        <path d="M19.8936 5.61975C19.8936 6.41835 19.2491 7.06587 18.4541 7.06587C17.6593 7.06587 17.0148 6.41835 17.0148 5.61975C17.0148 4.82097 17.6593 4.17364 18.4541 4.17364C19.2491 4.17364 19.8936 4.82097 19.8936 5.61975Z" />
    </symbol>

    <symbol id="yt-stroke" width="31" height="31" viewBox="0 0 31 31"  xmlns="http://www.w3.org/2000/svg">
        <g clip-path="url(#clip0)">
            <path d="M20.272 14.1069L13.4233 10.3596C13.0295 10.1441 12.5641 10.1522 12.1781 10.3809C11.7919 10.6098 11.5615 11.0143 11.5615 11.4632V18.8934C11.5615 19.3402 11.7905 19.7439 12.1741 19.9731C12.3744 20.0927 12.5965 20.1528 12.819 20.1528C13.0229 20.1528 13.2273 20.1024 13.4153 20.0012L20.2641 16.3185C20.6707 16.0997 20.9245 15.6771 20.9264 15.2152C20.928 14.7533 20.6773 14.3287 20.272 14.1069ZM13.3782 17.9587V12.4054L18.4967 15.2062L13.3782 17.9587Z" />
            <path d="M30.7719 9.2956L30.7705 9.28141C30.7442 9.03189 30.4829 6.81247 29.4039 5.6836C28.1568 4.35583 26.7429 4.19453 26.063 4.11719C26.0067 4.1108 25.9551 4.10489 25.909 4.09874L25.8548 4.09306C21.7566 3.79506 15.5673 3.75438 15.5054 3.75414L15.4999 3.75391L15.4945 3.75414C15.4325 3.75438 9.2433 3.79506 5.10815 4.09306L5.05352 4.09874C5.00952 4.10465 4.96104 4.11009 4.9083 4.11624C4.23614 4.19382 2.83741 4.35535 1.58675 5.73114C0.55911 6.84795 0.262053 9.01983 0.231544 9.26391L0.227996 9.2956C0.218772 9.39943 0 11.8712 0 14.3527V16.6724C0 19.1539 0.218772 21.6256 0.227996 21.7297L0.229652 21.7453C0.255904 21.9908 0.517012 24.1696 1.591 25.2989C2.76362 26.5822 4.24631 26.752 5.04382 26.8433C5.16988 26.8577 5.27844 26.87 5.35246 26.883L5.42413 26.893C7.79041 27.1181 15.2095 27.2291 15.5241 27.2336L15.5335 27.2338L15.543 27.2336C15.6049 27.2333 21.794 27.1926 25.8922 26.8946L25.9464 26.889C25.9982 26.8821 26.0563 26.876 26.1202 26.8693C26.7886 26.7984 28.1797 26.651 29.4131 25.2939C30.4408 24.1769 30.7381 22.005 30.7683 21.7612L30.7719 21.7295C30.7811 21.6254 31.0001 19.1539 31.0001 16.6724V14.3527C30.9999 11.8712 30.7811 9.39967 30.7719 9.2956ZM29.1832 16.6724C29.1832 18.9691 28.9827 21.3345 28.9638 21.5516C28.8867 22.1497 28.5733 23.5239 28.0726 24.0681C27.3006 24.9174 26.5076 25.0016 25.9286 25.0629C25.8586 25.0702 25.7938 25.0773 25.7352 25.0846C21.7712 25.3713 15.8157 25.4153 15.5413 25.4169C15.2336 25.4124 7.9231 25.3006 5.62895 25.0875C5.5114 25.0683 5.38439 25.0536 5.25053 25.0385C4.57151 24.9607 3.64202 24.8543 2.92729 24.0681L2.9105 24.0501C2.41855 23.5376 2.11417 22.2526 2.03683 21.5587C2.0224 21.3946 1.81664 19.0013 1.81664 16.6724V14.3527C1.81664 12.0585 2.01672 9.69578 2.03612 9.47417C2.12812 8.7696 2.44741 7.47872 2.92729 6.95698C3.72291 6.08189 4.56181 5.98492 5.11666 5.92082C5.16964 5.91467 5.21907 5.909 5.26472 5.90308C9.28634 5.61501 15.2847 5.5722 15.4999 5.57055C15.7152 5.57197 21.7114 5.61501 25.6973 5.90308C25.7463 5.90923 25.7997 5.91538 25.8572 5.922C26.4279 5.98705 27.2905 6.08543 28.0821 6.92978L28.0894 6.93758C28.5813 7.4501 28.8857 8.75754 28.9631 9.46542C28.9768 9.62033 29.1832 12.0188 29.1832 14.3527V16.6724Z" />
        </g>
        <defs>
            <clipPath id="clip0">
                <rect width="31" height="31" />
            </clipPath>
        </defs>
    </symbol>

    <symbol id="fb-stroke" width="16" height="27" viewBox="0 0 16 27"  xmlns="http://www.w3.org/2000/svg">
        <path d="M1.90625 15.5177H4.739V25.2177C4.739 25.649 5.11588 25.999 5.58275 25.999L10.0906 26C10.5575 26 10.9344 25.649 10.9344 25.2188V15.5187H13.6198C14.045 15.5187 14.4039 15.225 14.4568 14.8344L15.017 10.6677C15.08 10.2031 14.6874 9.78958 14.18 9.78958H10.9344C11.0615 7.21562 10.445 6.45417 12.2529 6.45417C13.4769 6.31875 15.4074 6.89271 15.4074 5.67292V1.94687C15.4074 1.55625 15.0958 1.22604 14.6784 1.17292C14.3251 1.12812 12.929 1 11.1976 1C3.31138 1 4.93475 9.09583 4.74013 9.78854H1.90625C1.4405 9.78854 1.0625 10.1385 1.0625 10.5698V14.7365C1.0625 15.1677 1.4405 15.5177 1.90625 15.5177ZM2.75 11.3521H5.58275C6.0485 11.3521 6.4265 11.0021 6.4265 10.5708V7.28854C6.4265 4.28542 8.16463 2.56354 11.1965 2.56354C12.1843 2.56354 13.0933 2.60833 13.7188 2.65417V4.89271C13.2665 5.10625 9.24575 3.97187 9.24575 7.70208V10.5719C9.24575 11.0031 9.62375 11.3531 10.0895 11.3531H13.2238L12.8728 13.9573H10.0895C9.62375 13.9573 9.24575 14.3073 9.24575 14.7385V24.4375H6.42763V14.7375C6.42763 14.3062 6.04963 13.9562 5.58388 13.9562H2.75V11.3521Z"  stroke-width="0.2"/>
    </symbol>

    <symbol id="camera" width="28" height="24" viewBox="0 0 28 24"  xmlns="http://www.w3.org/2000/svg">
        <path d="M26.135 4.19344C25.616 3.64883 24.8992 3.32701 24.0837 3.32701H20.0305C20.0032 3.32701 19.981 3.30484 19.981 3.27749C19.981 2.65861 19.7338 2.06448 19.3137 1.6684C18.8935 1.24755 18.3251 1 17.7072 1H10.2928C9.65019 1 9.08175 1.24755 8.6616 1.6684C8.24144 2.08924 7.9943 2.65861 7.9943 3.27749C7.9943 3.30484 7.97213 3.32701 7.94479 3.32701H3.91635C3.10076 3.32701 2.38403 3.64883 1.86502 4.19344C1.34601 4.71331 1 5.45597 1 6.24814V20.5796C1 21.3965 1.32129 22.1144 1.86502 22.6343C2.38403 23.1542 3.12548 23.5007 3.91635 23.5007H24.0837C24.8992 23.5007 25.616 23.1789 26.135 22.6343C26.654 22.1144 27 21.3718 27 20.5796V6.24814C27 5.43121 26.6787 4.71331 26.135 4.19344ZM25.7148 20.5672C25.7148 20.5741 25.7093 20.5796 25.7025 20.5796C25.6956 20.5796 25.6901 20.5852 25.6901 20.592C25.6869 21.0325 25.5144 21.424 25.2205 21.7183C24.924 22.0154 24.5285 22.1887 24.0837 22.1887H3.91635C3.47148 22.1887 3.07605 22.0154 2.77947 21.7183C2.48289 21.4213 2.30989 21.0252 2.30989 20.5796V6.24814C2.30989 5.80254 2.48289 5.40646 2.77947 5.10939C3.07605 4.81233 3.47148 4.63904 3.91635 4.63904H8.68631C9.05703 4.63904 9.35361 4.34198 9.35361 3.97064V3.25274C9.35361 2.98043 9.45247 2.73288 9.62548 2.55959C9.79848 2.3863 10.0456 2.28728 10.3175 2.28728H17.7072C17.9791 2.28728 18.2262 2.3863 18.3992 2.55959C18.5722 2.73288 18.6711 2.98043 18.6711 3.25274V3.97064C18.6711 4.34198 18.9677 4.63904 19.3384 4.63904H24.1084C24.5532 4.63904 24.9487 4.81233 25.2452 5.10939C25.5418 5.40646 25.7148 5.80254 25.7148 6.24814V20.5672Z"  stroke-width="0.5"/>
        <path d="M13.9998 7.32422C12.3192 7.32422 10.7869 8.01736 9.69939 9.10659C8.58722 10.2206 7.91992 11.7306 7.91992 13.414C7.91992 15.0974 8.61194 16.6322 9.69939 17.7214C10.8116 18.8354 12.3192 19.5038 13.9998 19.5038C15.6804 19.5038 17.2127 18.8106 18.3002 17.7214C19.4123 16.6074 20.0797 15.0974 20.0797 13.414C20.0797 11.7306 19.3876 10.1958 18.3002 9.10659C17.2127 8.01736 15.6804 7.32422 13.9998 7.32422ZM17.361 16.8055C16.496 17.6471 15.3097 18.1918 13.9998 18.1918C12.6899 18.1918 11.5036 17.6471 10.6386 16.8055C9.77354 15.939 9.25453 14.7508 9.25453 13.4388C9.25453 12.1267 9.79825 10.9385 10.6386 10.072C11.5036 9.20561 12.6899 8.68576 13.9998 8.68576C15.3097 8.68576 16.496 9.23037 17.361 10.072C18.226 10.9385 18.745 12.1267 18.745 13.4388C18.7698 14.7508 18.226 15.939 17.361 16.8055Z"  stroke-width="0.5"/>
        <path d="M22.7989 8.72461C23.4677 8.72461 24.0099 8.18114 24.0099 7.51074C24.0099 6.84034 23.4677 6.29688 22.7989 6.29688C22.1301 6.29688 21.5879 6.84034 21.5879 7.51074C21.5879 8.18114 22.1301 8.72461 22.7989 8.72461Z"  stroke-width="0.5"/>
    </symbol>

    <symbol id="cart" width="29" height="28" viewBox="0 0 29 28"  xmlns="http://www.w3.org/2000/svg">
        <path d="M9.79792 18.3619H9.79917C9.80021 18.3619 9.80126 18.3617 9.8023 18.3617H24.3067C24.6638 18.3617 24.9777 18.1047 25.0759 17.7321L28.2759 5.57892C28.3448 5.31692 28.2965 5.03524 28.1454 4.81777C27.9942 4.60029 27.7577 4.47234 27.5067 4.47234H7.95292L7.38105 1.67977C7.29959 1.28258 6.975 1 6.6 1H1.8C1.35813 1 1 1.3886 1 1.86809C1 2.34757 1.35813 2.73617 1.8 2.73617H5.95834C6.05959 3.23102 8.69501 16.0999 8.84667 16.8403C7.99646 17.2413 7.4 18.1612 7.4 19.2298C7.4 20.6657 8.47667 21.834 9.80001 21.834H24.3067C24.7486 21.834 25.1067 21.4454 25.1067 20.966C25.1067 20.4865 24.7486 20.0979 24.3067 20.0979H9.80001C9.35896 20.0979 9.00001 19.7084 9.00001 19.2298C9.00001 18.7519 9.35771 18.3631 9.79792 18.3619ZM26.4461 6.20851L23.7031 16.6255H10.4417L8.30834 6.20851H26.4461Z"  stroke-width="0.5"/>
        <path d="M9 24.4382C9 25.8742 10.0767 27.0425 11.4 27.0425C12.7234 27.0425 13.8 25.8742 13.8 24.4382C13.8 23.0023 12.7234 21.834 11.4 21.834C10.0767 21.834 9 23.0023 9 24.4382ZM11.4 23.5701C11.8411 23.5701 12.2 23.9597 12.2 24.4382C12.2 24.9168 11.8411 25.3063 11.4 25.3063C10.959 25.3063 10.6 24.9168 10.6 24.4382C10.6 23.9597 10.959 23.5701 11.4 23.5701Z"  stroke-width="0.5"/>
        <path d="M20.3066 24.4382C20.3066 25.8742 21.3833 27.0425 22.7067 27.0425C24.03 27.0425 25.1067 25.8742 25.1067 24.4382C25.1067 23.0023 24.03 21.834 22.7067 21.834C21.3833 21.834 20.3066 23.0023 20.3066 24.4382ZM22.7067 23.5701C23.1477 23.5701 23.5067 23.9597 23.5067 24.4382C23.5067 24.9168 23.1477 25.3063 22.7067 25.3063C22.2656 25.3063 21.9067 24.9168 21.9067 24.4382C21.9067 23.9597 22.2656 23.5701 22.7067 23.5701Z"  stroke-width="0.5"/>
    </symbol>

    <symbol id="fb-fill" width="14" height="29" viewBox="0 0 14 29"  xmlns="http://www.w3.org/2000/svg">
        <path d="M0 9.6793H2.85116V8.38332V7.08734V6.82814C2.85116 5.53216 2.85116 3.71778 3.88795 2.68099C4.66554 1.38501 5.96152 0.607422 8.03509 0.607422C11.6638 0.607422 13.219 1.12582 13.219 1.12582L12.4414 5.27296C12.4414 5.27296 11.1455 5.01376 10.1087 5.01376C9.07188 5.01376 8.03509 5.53216 8.03509 6.56894V7.08734V8.38332V9.6793H12.4414V13.8264H8.03509V28.0823H2.85116V13.8264H0V9.6793Z" />
    </symbol>

    <symbol id="yt-fill" width="38" height="26" viewBox="0 0 38 26"  xmlns="http://www.w3.org/2000/svg">
        <path d="M35.8131 2.56847C34.7976 0.763931 33.6944 0.43517 31.4588 0.303665C29.2159 0.157549 23.5832 0.0917969 18.7102 0.0917969C13.8226 0.0917969 8.18251 0.157549 5.94693 0.303665C3.71135 0.43517 2.60817 0.763931 1.58536 2.56847C0.54063 4.373 0 7.47797 0 12.9427C0 12.95 0 12.95 0 12.95C0 12.9573 0 12.9573 0 12.9573V12.9646C0 18.4075 0.54063 21.5343 1.58536 23.317C2.60817 25.1215 3.71135 25.4503 5.94693 25.6037C8.18981 25.7352 13.8226 25.8082 18.7102 25.8082C23.5905 25.8082 29.2232 25.7279 31.4661 25.6037C33.709 25.4503 34.8122 25.1215 35.8204 23.317C36.8724 21.5343 37.4057 18.4075 37.4057 12.9646C37.4057 12.9646 37.4057 12.9573 37.4057 12.95V12.9427C37.4057 7.47797 36.8724 4.373 35.8131 2.56847ZM14.0272 19.9636V5.93644L25.7164 12.95L14.0272 19.9636Z" />
    </symbol>

    <symbol id="vk-fill" width="36" height="22" viewBox="0 0 36 22"  xmlns="http://www.w3.org/2000/svg">
        <path fill-rule="evenodd" clip-rule="evenodd" d="M30.8655 13.653C31.9133 14.7007 33.3103 16.0978 34.3581 17.1455C34.7074 17.844 35.4059 18.1933 35.7551 18.8918C36.1044 19.9396 35.7551 20.9873 35.0566 20.9873H29.8178C28.4207 20.9873 27.373 20.6381 26.3252 19.5903C25.6267 19.2411 24.9282 18.1933 24.2297 17.4948C23.8804 17.1455 23.5312 16.7963 23.1819 16.7963C22.4834 16.0978 21.7849 16.447 21.4356 17.1455C21.0864 17.844 21.0864 18.8918 21.0864 19.5903C21.0864 20.9873 20.7371 20.9873 19.3401 21.3366C16.546 21.3366 14.1012 20.9873 11.6564 19.5903C9.5609 18.5425 8.16387 16.7963 6.76684 14.7007C3.97279 11.2082 1.87725 7.01709 0.130971 2.82601C-0.218285 1.77824 0.130971 1.42898 1.17874 1.42898C2.92502 1.42898 4.67131 1.42898 6.41759 1.42898C7.1161 1.42898 7.46536 1.77824 7.81461 2.47675C8.86238 4.92155 9.91015 7.01709 11.3072 9.11262C11.6564 9.81114 12.0057 10.1604 12.7042 10.5096C13.0535 10.8589 13.4027 10.8589 13.752 10.1604C13.752 9.46188 14.1012 9.11262 14.1012 8.76337C14.1012 7.01708 14.1012 5.62006 14.1012 3.87378C14.1012 2.82601 13.4027 2.12749 12.3549 2.12749C12.0057 2.12749 12.0057 1.77824 12.0057 1.42898C12.3549 1.07973 12.7042 0.730469 13.752 0.730469H19.6893C20.3878 1.07973 20.7371 1.42898 20.7371 2.12749V8.76337C20.7371 9.11262 21.0864 10.1604 21.4356 10.5096C22.1341 10.5096 22.4834 10.1604 22.4834 9.81114C23.8804 8.41411 24.9282 6.66783 25.976 4.57229C26.3252 3.87378 26.6745 2.82601 27.0237 2.12749C27.7222 1.77824 28.0715 1.42898 28.77 1.42898H34.3581H34.7074C35.7551 1.42898 36.1044 2.12749 35.7551 2.82601C35.4059 4.22303 34.3581 5.62006 33.3103 6.66783C32.6118 8.41411 31.5641 9.46188 30.5163 10.8589C29.8178 12.2559 29.8178 12.6052 30.8655 13.653Z" />
    </symbol>

    <symbol id="list-bullet" width="24" height="24" viewBox="0 0 24 24"  xmlns="http://www.w3.org/2000/svg">
        <path d="M19.453 2.61089L13.1978 7.15778L23.6787 14.7764C23.8884 13.889 24 12.964 24 12.0134C24 8.20865 22.2215 4.81207 19.453 2.61089Z" fill="black"/>
        <path d="M18.2336 1.75817C16.4157 0.647966 14.2813 0.00762939 12 0.00762939C9.54841 0.00762939 7.26655 0.747576 5.3647 2.01516L7.75512 9.37505L18.2336 1.75817Z" fill="black"/>
        <path d="M4.17846 2.91573C1.62163 5.1191 0 8.38021 0 12.0133C0 13.1297 0.153655 14.2108 0.439919 15.237H8.18029L4.17846 2.91573Z" fill="black"/>
        <path d="M0.92899 16.644C2.68215 20.8239 6.73372 23.8086 11.4929 24.0076L13.8843 16.644H0.92899Z" fill="black"/>
        <path d="M12.9809 23.9788C17.6988 23.5951 21.6532 20.4695 23.2463 16.2011L16.9849 11.6497L12.9809 23.9788Z" fill="black"/>
    </symbol>

    <symbol id="slider-arrow" width="40" height="100" viewBox="0 0 40 100"  xmlns="http://www.w3.org/2000/svg">
        <path d="M0.249023 46.5L32.7829 0H37.7881L5.25424 46.5L37.7881 93H32.7829L0.249023 46.5Z"/>    
    </symbol>
</svg>
