<svg width="114" height="45" viewBox="0 0 114 45" fill="none" xmlns="http://www.w3.org/2000/svg">
<path d="M86.5603 0.0188854L86.5615 14.6781C86.5615 15.6329 87.0309 16.1203 87.9933 16.1688C88.0033 16.17 92.8304 16.17 92.8304 16.17V17.8136C92.8304 17.9963 92.7295 18.1281 92.5241 18.1281H84.694C82.2786 18.1281 81.9175 16.7978 81.9175 15.5894V1.01473C81.9175 0.327206 82.1789 0.00272306 82.9944 0.0188854H86.5603Z" fill="white"/>
<path d="M77.5362 0.0187988V17.1732C77.5362 17.9366 77.2112 18.1293 76.5626 18.1293H72.8896V0.967403C72.8896 0.400479 73.1063 0.0200509 73.9305 0.0200509L77.5362 0.0187988Z" fill="white"/>
<path d="M0.707031 2.51522C0.707031 1.13645 0.707017 0.0200195 2.98049 0.0200195H12.9633V1.75932C12.9633 1.88364 12.9048 1.99554 12.728 1.99554L6.74677 1.99429C5.94371 1.99429 5.53906 2.37723 5.53906 3.18659V7.78414H12.5786V9.61294C12.5786 9.77332 12.4778 9.85789 12.3196 9.85789L5.53906 9.86161V17.1521C5.52412 17.8582 5.17179 18.138 4.39861 18.1243H0.707031V2.51522Z" fill="white"/>
<path d="M20.1736 0.0187988V13.8202C20.1736 15.0037 20.3417 15.8367 21.1734 16.3179C22.2902 16.9619 24.1789 16.9706 25.3182 16.3365C26.0976 15.9001 26.3926 15.2039 26.3926 13.8251V0.938796C26.3926 0.359439 26.6167 0.0200509 27.426 0.0200509H31.0392V13.4149C31.0392 16.5267 29.0782 17.7998 27.3451 18.2723C25.0355 18.9026 21.5294 18.9125 19.3531 18.2586C16.7497 17.4766 15.5345 15.9374 15.5308 13.4149V0.948736C15.5308 0.347001 15.7437 0.0200509 16.4384 0.0200509H20.1736V0.0187988Z" fill="white"/>
<path d="M108.044 0.0212336C107.127 0.0212336 106.603 0.446436 106.396 1.26574L103.438 13.7517L103.357 13.7505L100.303 0.0212336H96.1247C95.3192 0.0212336 95.0664 0.435248 95.0664 1.07304V18.128H96.8282C97.1133 18.128 97.2278 17.9875 97.2278 17.6979V3.40042H97.5105L101.289 18.128H103.761C104.694 18.128 105.038 17.7463 105.27 16.8251L108.66 3.40042H108.936L108.935 18.1268H112.236C113.045 18.1268 113.414 17.8122 113.414 17.0165V0.0200195L108.044 0.0212336Z" fill="white"/>
<path d="M53.117 9.85913H48.4692V18.128H52.1459C52.7933 18.128 53.1183 17.9378 53.1183 17.1732C53.1183 17.1745 53.117 13.6374 53.117 9.85913Z" fill="white"/>
<path d="M52.8468 6.32708C53.0087 6.19654 53.1033 6.09582 53.117 5.80987V0.0187988L49.5113 0.0200509C48.6996 0.0200509 48.4717 0.416615 48.4717 0.97981V9.7485L52.8468 6.32708Z" fill="#EC1E3C"/>
<path d="M36.9199 16.6958C38.9369 16.4086 39.6092 15.215 39.6092 13.4496V1.00091C39.6092 0.258688 40.0113 0.0200195 40.5318 0.0200195H44.2545V11.7862C44.2545 14.6805 43.6432 16.1425 41.9287 17.3758C41.0336 18.0174 39.4735 18.7472 36.0845 18.7472C34.1484 18.7472 33.2855 18.6377 33.171 18.6116C33.0067 18.5731 32.9395 18.4736 32.9395 18.3294V16.8101C33.735 16.8338 35.559 16.8885 36.9199 16.6958Z" fill="white"/>
<path d="M60.1576 0.0187988C57.8866 0.0187988 57.8816 1.13523 57.8816 2.514V7.18117C57.8816 7.27815 57.843 7.31793 57.8007 7.36269L54.6221 9.86164H57.8816V18.1268H61.5782C62.3489 18.1405 62.7 17.8608 62.7149 17.1571V9.86289C62.7149 9.86289 69.4918 9.86164 69.4955 9.86164C69.6524 9.86164 69.757 9.77461 69.757 9.61548L69.7545 7.78789H62.7149V3.18908C62.7149 2.38097 63.1208 1.99432 63.9239 1.99432C63.9239 1.99432 69.9089 1.99558 69.9089 1.99682C70.0807 1.99682 70.1417 1.88615 70.1417 1.76307V0.021265H60.1576V0.0187988Z" fill="white"/>
<path d="M113.412 25.1748H0.707031V26.0227H113.412V25.1748Z" fill="white"/>
<path d="M52.4418 34.1786C50.9477 35.1061 50.2505 36.6341 50.2505 38.9838C50.2505 41.3945 50.9851 42.9486 52.5576 43.8698C53.8898 44.6493 55.7959 44.98 58.926 44.98L68.9599 44.9825V37.8139H59.749V39.9461H65.282V42.8479H58.8102C56.8119 42.8479 55.5432 42.5345 54.8148 41.857C54.1948 41.2813 53.9309 40.4223 53.9309 38.9838C53.9309 37.5454 54.1948 36.6863 54.8148 36.1107C55.5432 35.4331 56.8119 35.1198 58.8102 35.1198H68.9599V32.9876L58.926 32.9851C55.771 32.9864 53.7715 33.3531 52.4418 34.1786Z" fill="white"/>
<path d="M76.3105 37.017C76.3105 35.3585 76.4437 35.121 78.5093 35.121H90.1817V32.9863H78.3898C76.2744 32.9863 74.7804 33.1007 73.8702 33.6739C72.9887 34.2271 72.6289 35.1769 72.6289 36.9473V44.9825H76.3105V40.2134H89.6214V38.0787H76.3105V37.017Z" fill="white"/>
<path d="M110.161 32.9888C109.462 32.9888 108.759 33.2051 108.261 33.547C106.449 34.7853 102.3 37.6236 102.3 37.6236C102.3 37.6236 96.6563 33.8578 96.1571 33.5495C95.6591 33.2437 95.0701 32.9888 94.4352 32.9888H92.6834V34.876H94.1077C94.5908 34.876 95.0054 35.034 95.4772 35.3833C95.9516 35.7352 100.602 38.7873 100.602 38.7873L95.0502 42.6141C94.6082 42.9149 94.0567 42.9298 93.5113 42.9298H92.3335V44.9837H95.5059C96.3426 44.9837 96.8468 44.7823 97.4806 44.3422C98.113 43.9095 103.138 40.467 103.138 40.467C103.138 40.467 106.967 42.9684 108.839 44.2502C109.336 44.5871 109.939 44.9837 110.979 44.9837C112.023 44.9837 113.295 44.9812 113.295 44.9812V42.9274H111.011C110.438 42.9274 110.001 42.7471 109.626 42.4922C107.101 40.7728 104.833 39.302 104.833 39.302C104.833 39.302 108.32 36.915 110.701 35.2814C111.156 34.9656 111.553 35.0414 112.075 35.0414H113.295V32.99H110.161V32.9888Z" fill="white"/>
<path d="M19.1205 32.9861C18.3934 32.9861 17.6651 33.205 17.1459 33.5444C15.2634 34.7827 10.8397 37.6968 10.8397 37.6968C10.8397 37.6968 5.08254 33.8552 4.56459 33.5468C4.0479 33.241 3.43407 32.9861 2.77544 32.9861H0.95516V34.6247H2.43431C2.93606 34.6247 3.36436 34.7366 3.85616 35.086C4.34795 35.4378 9.31448 38.6964 9.31448 38.6964L3.25107 42.7171C2.79289 43.018 2.37952 43.1758 1.81053 43.1758H0.587891V44.9823H3.88481C4.75634 44.9823 5.27925 44.7784 5.93788 44.3433C6.59776 43.9056 11.9328 40.3872 11.9328 40.3872C11.9328 40.3872 15.7999 42.9632 17.7435 44.2475C18.2602 44.5845 18.8852 44.981 19.9672 44.981C21.0516 44.981 22.3763 44.9786 22.3763 44.9786V43.1721H20.0008C19.4069 43.1721 18.9512 43.0143 18.5615 42.7619C15.9382 41.0424 13.4592 39.3765 13.4592 39.3765C13.4592 39.3765 17.3127 36.8365 19.7891 35.2004C20.266 34.8896 20.566 34.7876 21.1051 34.7876H22.3763V32.9836H19.1205V32.9861Z" fill="white"/>
<path d="M37.3652 32.9888H36.5186V44.9837H37.3652V32.9888Z" fill="white"/>
</svg>
