<svg width="110" height="123" viewBox="0 0 110 123" fill="none" xmlns="http://www.w3.org/2000/svg"><g clip-path="url(#a)"><path d="M89.429 74.846L68.374 63.151l10.932-9.75c.501-.413.602-1.14.29-1.741A1.345 1.345 0 0 0 78 50.976l-13.638 3.798 4.45-32.089a1.406 1.406 0 0 0-.969-1.5c-.625-.193-1.337.092-1.665.748l-14.25 28.929-9.467-10.886c-.404-.505-1.122-.6-1.702-.338a1.39 1.39 0 0 0-.688 1.618l3.739 14.291-23.866-2.21c-.68-.02-1.295.358-1.491.991-.196.634.08 1.351.67 1.66l20.998 11.678-11.159 9.68c-.502.412-.602 1.14-.347 1.723.196.376.501.597.842.703.228.07.473.083.736.038l14.242-3.737-2.461 24.054a1.407 1.407 0 0 0 .969 1.5c.625.193 1.28-.109 1.629-.633L56.376 79.77l9.413 11.059c.191.185.383.371.61.441.342.106.719.096 1.035-.121.598-.32.85-.937.745-1.6l-3.494-14.28 23.98 2.246c.661.078 1.238-.375 1.434-1.009.196-.634-.098-1.293-.67-1.66zM73.118 55.274l-7.202 6.358s-.018.058-.093.098l-2.284-1.275.404-2.716 9.175-2.465zM64.864 30.81l-4.041 29.563-5.976 3.201-3.122-6.017 13.14-26.747zM44.29 46.35l6.292 7.252-1.201 2.47-2.606-.238c.018-.058.018-.058-.02-.133l-2.465-9.35zm.32 26.746l-9.346 2.411 7.316-6.322c.018-.058.018-.058.093-.098l2.341 1.293-.273 2.694c-.057-.018-.057-.018-.131.022zm1.89-5.098L26.242 56.74l23.074 2.154 3.083 5.943-5.902 3.161zm-1.095 25.677l2.325-23.212 5.958-3.144 3.005 5.792c.04.075.096.093.135.168L45.404 93.675zm18.688-9.244l-6.16-7.274c-.057-.017-.057-.017-.096-.093l1.297-2.376 2.662.255c-.017.058-.017.058.022.133l2.276 9.355zm-4.931-12.45c-.04-.075-.022-.133-.06-.208l-3.005-5.792 5.9-3.162 20.256 11.258-23.091-2.096z" fill="#D29966"/></g><path d="M43.975 107.502a5.79 5.79 0 0 0-2.32-1.323c-.432-.128-.785-.142-1.059-.042a.828.828 0 0 0-.535.574c-.138.465.113.901.752 1.307 1.138.707 1.886 1.371 2.245 1.992.367.623.44 1.309.219 2.057-.26.881-.759 1.466-1.495 1.754-.736.289-1.69.26-2.862-.086a6.33 6.33 0 0 1-1.563-.72c-.516-.333-.927-.685-1.233-1.056l.989-1.51c.675.832 1.47 1.383 2.385 1.653.432.128.782.137 1.05.026.278-.116.465-.337.56-.661a.87.87 0 0 0-.082-.729c-.125-.218-.393-.46-.802-.725-1.04-.669-1.74-1.315-2.099-1.936-.356-.629-.43-1.297-.22-2.004.233-.789.713-1.329 1.44-1.62.737-.289 1.64-.275 2.713.042 1.139.337 2.069.829 2.79 1.476l-.873 1.531zm21.465-89.66l2.803-9.066 2.062.637 1.497 6.558.025.008 1.72-5.564 2.062.637-2.803 9.067-2.062-.637-1.497-6.559-.025-.008-1.72 5.565-2.061-.638zM11.819 47.84l-.025-.009L8.3 54.285l-2.433-.84 1.108-9.658 2.113.73-1.233 7.234.024.009 3.42-6.48 2.544.88-1.32 7.204.025.009 3.507-6.45 2.064.713-5.088 8.283-2.433-.84 1.221-7.24zM96.53 74.925l-.57 1.852 3.442 1.058-.493 1.603-3.442-1.058-.68 2.211 3.691 1.135-.523 1.702-5.803-1.784 2.788-9.07 5.803 1.783-.523 1.703-3.69-1.135z" fill="#D29966"/><defs><clipPath id="a"><path fill="#fff" transform="rotate(15.321 -25.737 118.17)" d="M0 0h82v92H0z"/></clipPath></defs></svg>