<svg width="98" height="35" viewBox="0 0 98 35" fill="none" xmlns="http://www.w3.org/2000/svg">
<path d="M2.86724 0H1.4197C0.640257 0 0 0.634858 0 1.40773V33.5923C0 34.3651 0.640257 35 1.4197 35H24.5803C25.3597 35 26 34.3651 26 33.5923V1.40773C26 0.634858 25.3597 0 24.5803 0H23.1328H2.86724ZM24.2045 33.3715H1.7955V28.7342H24.2045V33.3715ZM24.2045 27.1609H1.7955V1.76656H24.2045V27.1609Z" fill="#ABABAB"/>
<path d="M5.83181 19.1699C5.05237 19.1699 4.41211 19.8048 4.41211 20.5777V22.3994C4.41211 23.1723 5.05237 23.8071 5.83181 23.8071C6.61126 23.8071 7.25151 23.1723 7.25151 22.3994V20.5777C7.25151 19.8048 6.62517 19.1699 5.83181 19.1699Z" fill="#ABABAB"/>
<path d="M10.6062 19.1699C9.82678 19.1699 9.18652 19.8048 9.18652 20.5777V22.3994C9.18652 23.1723 9.82678 23.8071 10.6062 23.8071C11.3857 23.8071 12.0259 23.1723 12.0259 22.3994V20.5777C12.0259 19.8048 11.3996 19.1699 10.6062 19.1699Z" fill="#ABABAB"/>
<path d="M15.3933 19.1699C14.6139 19.1699 13.9736 19.8048 13.9736 20.5777V22.3994C13.9736 23.1723 14.6139 23.8071 15.3933 23.8071C16.1728 23.8071 16.813 23.1723 16.813 22.3994V20.5777C16.813 19.8048 16.1728 19.1699 15.3933 19.1699Z" fill="#ABABAB"/>
<path d="M20.1677 19.1699C19.3883 19.1699 18.748 19.8048 18.748 20.5777V22.3994C18.748 23.1723 19.3883 23.8071 20.1677 23.8071C20.9472 23.8071 21.5874 23.1723 21.5874 22.3994V20.5777C21.5874 19.8048 20.9472 19.1699 20.1677 19.1699Z" fill="#ABABAB"/>
<path d="M5.83181 12.0347C5.05237 12.0347 4.41211 12.6695 4.41211 13.4424V15.2642C4.41211 16.037 5.05237 16.6719 5.83181 16.6719C6.61126 16.6719 7.25151 16.037 7.25151 15.2642V13.4424C7.25151 12.6695 6.62517 12.0347 5.83181 12.0347Z" fill="#ABABAB"/>
<path d="M10.6062 12.0347C9.82678 12.0347 9.18652 12.6695 9.18652 13.4424V15.2642C9.18652 16.037 9.82678 16.6719 10.6062 16.6719C11.3857 16.6719 12.0259 16.037 12.0259 15.2642V13.4424C12.0259 12.6695 11.3996 12.0347 10.6062 12.0347Z" fill="#ABABAB"/>
<path d="M15.3933 12.0347C14.6139 12.0347 13.9736 12.6695 13.9736 13.4424V15.2642C13.9736 16.037 14.6139 16.6719 15.3933 16.6719C16.1728 16.6719 16.813 16.037 16.813 15.2642V13.4424C16.813 12.6695 16.1728 12.0347 15.3933 12.0347Z" fill="#ABABAB"/>
<path d="M20.1677 12.0347C19.3883 12.0347 18.748 12.6695 18.748 13.4424V15.2642C18.748 16.037 19.3883 16.6719 20.1677 16.6719C20.9472 16.6719 21.5874 16.037 21.5874 15.2642V13.4424C21.5874 12.6695 20.9472 12.0347 20.1677 12.0347Z" fill="#ABABAB"/>
<path d="M5.83181 5.18921C5.05237 5.18921 4.41211 5.82407 4.41211 6.59694V8.4187C4.41211 9.19157 5.05237 9.82643 5.83181 9.82643C6.61126 9.82643 7.25151 9.19157 7.25151 8.4187V6.59694C7.25151 5.82407 6.62517 5.18921 5.83181 5.18921Z" fill="#ABABAB"/>
<path d="M10.6062 5.18921C9.82678 5.18921 9.18652 5.82407 9.18652 6.59694V8.4187C9.18652 9.19157 9.82678 9.82643 10.6062 9.82643C11.3857 9.82643 12.0259 9.19157 12.0259 8.4187V6.59694C12.0259 5.82407 11.3996 5.18921 10.6062 5.18921Z" fill="#ABABAB"/>
<path d="M15.3933 5.18921C14.6139 5.18921 13.9736 5.82407 13.9736 6.59694V8.4187C13.9736 9.19157 14.6139 9.82643 15.3933 9.82643C16.1728 9.82643 16.813 9.19157 16.813 8.4187V6.59694C16.813 5.82407 16.1728 5.18921 15.3933 5.18921Z" fill="#ABABAB"/>
<path d="M20.1677 5.18921C19.3883 5.18921 18.748 5.82407 18.748 6.59694V8.4187C18.748 9.19157 19.3883 9.82643 20.1677 9.82643C20.9472 9.82643 21.5874 9.19157 21.5874 8.4187V6.59694C21.5874 5.82407 20.9472 5.18921 20.1677 5.18921Z" fill="#ABABAB"/>
<path d="M26.8672 0H25.4197C24.6403 0 24 0.634858 24 1.40773V33.5923C24 34.3651 24.6403 35 25.4197 35H48.5803C49.3597 35 50 34.3651 50 33.5923V1.40773C50 0.634858 49.3597 0 48.5803 0H47.1328H26.8672ZM48.2045 33.3715H25.7955V28.7342H48.2045V33.3715ZM48.2045 27.1609H25.7955V1.76656H48.2045V27.1609Z" fill="#ABABAB"/>
<path d="M29.8318 19.1699C29.0524 19.1699 28.4121 19.8048 28.4121 20.5777V22.3994C28.4121 23.1723 29.0524 23.8071 29.8318 23.8071C30.6113 23.8071 31.2515 23.1723 31.2515 22.3994V20.5777C31.2515 19.8048 30.6252 19.1699 29.8318 19.1699Z" fill="#ABABAB"/>
<path d="M34.6062 19.1699C33.8268 19.1699 33.1865 19.8048 33.1865 20.5777V22.3994C33.1865 23.1723 33.8268 23.8071 34.6062 23.8071C35.3857 23.8071 36.0259 23.1723 36.0259 22.3994V20.5777C36.0259 19.8048 35.3996 19.1699 34.6062 19.1699Z" fill="#ABABAB"/>
<path d="M39.3933 19.1699C38.6139 19.1699 37.9736 19.8048 37.9736 20.5777V22.3994C37.9736 23.1723 38.6139 23.8071 39.3933 23.8071C40.1728 23.8071 40.813 23.1723 40.813 22.3994V20.5777C40.813 19.8048 40.1728 19.1699 39.3933 19.1699Z" fill="#ABABAB"/>
<path d="M44.1677 19.1699C43.3883 19.1699 42.748 19.8048 42.748 20.5777V22.3994C42.748 23.1723 43.3883 23.8071 44.1677 23.8071C44.9472 23.8071 45.5874 23.1723 45.5874 22.3994V20.5777C45.5874 19.8048 44.9472 19.1699 44.1677 19.1699Z" fill="#ABABAB"/>
<path d="M29.8318 12.0347C29.0524 12.0347 28.4121 12.6695 28.4121 13.4424V15.2642C28.4121 16.037 29.0524 16.6719 29.8318 16.6719C30.6113 16.6719 31.2515 16.037 31.2515 15.2642V13.4424C31.2515 12.6695 30.6252 12.0347 29.8318 12.0347Z" fill="#ABABAB"/>
<path d="M34.6062 12.0347C33.8268 12.0347 33.1865 12.6695 33.1865 13.4424V15.2642C33.1865 16.037 33.8268 16.6719 34.6062 16.6719C35.3857 16.6719 36.0259 16.037 36.0259 15.2642V13.4424C36.0259 12.6695 35.3996 12.0347 34.6062 12.0347Z" fill="#ABABAB"/>
<path d="M39.3933 12.0347C38.6139 12.0347 37.9736 12.6695 37.9736 13.4424V15.2642C37.9736 16.037 38.6139 16.6719 39.3933 16.6719C40.1728 16.6719 40.813 16.037 40.813 15.2642V13.4424C40.813 12.6695 40.1728 12.0347 39.3933 12.0347Z" fill="#ABABAB"/>
<path d="M44.1677 12.0347C43.3883 12.0347 42.748 12.6695 42.748 13.4424V15.2642C42.748 16.037 43.3883 16.6719 44.1677 16.6719C44.9472 16.6719 45.5874 16.037 45.5874 15.2642V13.4424C45.5874 12.6695 44.9472 12.0347 44.1677 12.0347Z" fill="#ABABAB"/>
<path d="M29.8318 5.18921C29.0524 5.18921 28.4121 5.82407 28.4121 6.59694V8.4187C28.4121 9.19157 29.0524 9.82643 29.8318 9.82643C30.6113 9.82643 31.2515 9.19157 31.2515 8.4187V6.59694C31.2515 5.82407 30.6252 5.18921 29.8318 5.18921Z" fill="#ABABAB"/>
<path d="M34.6062 5.18921C33.8268 5.18921 33.1865 5.82407 33.1865 6.59694V8.4187C33.1865 9.19157 33.8268 9.82643 34.6062 9.82643C35.3857 9.82643 36.0259 9.19157 36.0259 8.4187V6.59694C36.0259 5.82407 35.3996 5.18921 34.6062 5.18921Z" fill="#ABABAB"/>
<path d="M39.3933 5.18921C38.6139 5.18921 37.9736 5.82407 37.9736 6.59694V8.4187C37.9736 9.19157 38.6139 9.82643 39.3933 9.82643C40.1728 9.82643 40.813 9.19157 40.813 8.4187V6.59694C40.813 5.82407 40.1728 5.18921 39.3933 5.18921Z" fill="#ABABAB"/>
<path d="M44.1677 5.18921C43.3883 5.18921 42.748 5.82407 42.748 6.59694V8.4187C42.748 9.19157 43.3883 9.82643 44.1677 9.82643C44.9472 9.82643 45.5874 9.19157 45.5874 8.4187V6.59694C45.5874 5.82407 44.9472 5.18921 44.1677 5.18921Z" fill="#ABABAB"/>
<path d="M50.8672 0H49.4197C48.6403 0 48 0.634858 48 1.40773V33.5923C48 34.3651 48.6403 35 49.4197 35H72.5803C73.3597 35 74 34.3651 74 33.5923V1.40773C74 0.634858 73.3597 0 72.5803 0H71.1328H50.8672ZM72.2045 33.3715H49.7955V28.7342H72.2045V33.3715ZM72.2045 27.1609H49.7955V1.76656H72.2045V27.1609Z" fill="#ABABAB"/>
<path d="M53.8318 19.1699C53.0524 19.1699 52.4121 19.8048 52.4121 20.5777V22.3994C52.4121 23.1723 53.0524 23.8071 53.8318 23.8071C54.6113 23.8071 55.2515 23.1723 55.2515 22.3994V20.5777C55.2515 19.8048 54.6252 19.1699 53.8318 19.1699Z" fill="#ABABAB"/>
<path d="M58.6062 19.1699C57.8268 19.1699 57.1865 19.8048 57.1865 20.5777V22.3994C57.1865 23.1723 57.8268 23.8071 58.6062 23.8071C59.3857 23.8071 60.0259 23.1723 60.0259 22.3994V20.5777C60.0259 19.8048 59.3996 19.1699 58.6062 19.1699Z" fill="#ABABAB"/>
<path d="M63.3933 19.1699C62.6139 19.1699 61.9736 19.8048 61.9736 20.5777V22.3994C61.9736 23.1723 62.6139 23.8071 63.3933 23.8071C64.1728 23.8071 64.813 23.1723 64.813 22.3994V20.5777C64.813 19.8048 64.1728 19.1699 63.3933 19.1699Z" fill="#ABABAB"/>
<path d="M68.1677 19.1699C67.3883 19.1699 66.748 19.8048 66.748 20.5777V22.3994C66.748 23.1723 67.3883 23.8071 68.1677 23.8071C68.9472 23.8071 69.5874 23.1723 69.5874 22.3994V20.5777C69.5874 19.8048 68.9472 19.1699 68.1677 19.1699Z" fill="#ABABAB"/>
<path d="M53.8318 12.0347C53.0524 12.0347 52.4121 12.6695 52.4121 13.4424V15.2642C52.4121 16.037 53.0524 16.6719 53.8318 16.6719C54.6113 16.6719 55.2515 16.037 55.2515 15.2642V13.4424C55.2515 12.6695 54.6252 12.0347 53.8318 12.0347Z" fill="#ABABAB"/>
<path d="M58.6062 12.0347C57.8268 12.0347 57.1865 12.6695 57.1865 13.4424V15.2642C57.1865 16.037 57.8268 16.6719 58.6062 16.6719C59.3857 16.6719 60.0259 16.037 60.0259 15.2642V13.4424C60.0259 12.6695 59.3996 12.0347 58.6062 12.0347Z" fill="#ABABAB"/>
<path d="M63.3933 12.0347C62.6139 12.0347 61.9736 12.6695 61.9736 13.4424V15.2642C61.9736 16.037 62.6139 16.6719 63.3933 16.6719C64.1728 16.6719 64.813 16.037 64.813 15.2642V13.4424C64.813 12.6695 64.1728 12.0347 63.3933 12.0347Z" fill="#ABABAB"/>
<path d="M68.1677 12.0347C67.3883 12.0347 66.748 12.6695 66.748 13.4424V15.2642C66.748 16.037 67.3883 16.6719 68.1677 16.6719C68.9472 16.6719 69.5874 16.037 69.5874 15.2642V13.4424C69.5874 12.6695 68.9472 12.0347 68.1677 12.0347Z" fill="#ABABAB"/>
<path d="M53.8318 5.18921C53.0524 5.18921 52.4121 5.82407 52.4121 6.59694V8.4187C52.4121 9.19157 53.0524 9.82643 53.8318 9.82643C54.6113 9.82643 55.2515 9.19157 55.2515 8.4187V6.59694C55.2515 5.82407 54.6252 5.18921 53.8318 5.18921Z" fill="#ABABAB"/>
<path d="M58.6062 5.18921C57.8268 5.18921 57.1865 5.82407 57.1865 6.59694V8.4187C57.1865 9.19157 57.8268 9.82643 58.6062 9.82643C59.3857 9.82643 60.0259 9.19157 60.0259 8.4187V6.59694C60.0259 5.82407 59.3996 5.18921 58.6062 5.18921Z" fill="#ABABAB"/>
<path d="M63.3933 5.18921C62.6139 5.18921 61.9736 5.82407 61.9736 6.59694V8.4187C61.9736 9.19157 62.6139 9.82643 63.3933 9.82643C64.1728 9.82643 64.813 9.19157 64.813 8.4187V6.59694C64.813 5.82407 64.1728 5.18921 63.3933 5.18921Z" fill="#ABABAB"/>
<path d="M68.1677 5.18921C67.3883 5.18921 66.748 5.82407 66.748 6.59694V8.4187C66.748 9.19157 67.3883 9.82643 68.1677 9.82643C68.9472 9.82643 69.5874 9.19157 69.5874 8.4187V6.59694C69.5874 5.82407 68.9472 5.18921 68.1677 5.18921Z" fill="#ABABAB"/>
<path d="M74.8672 0H73.4197C72.6403 0 72 0.634858 72 1.40773V33.5923C72 34.3651 72.6403 35 73.4197 35H96.5803C97.3597 35 98 34.3651 98 33.5923V1.40773C98 0.634858 97.3597 0 96.5803 0H95.1328H74.8672ZM96.2045 33.3715H73.7955V28.7342H96.2045V33.3715ZM96.2045 27.1609H73.7955V1.76656H96.2045V27.1609Z" fill="#ABABAB"/>
<path d="M77.8318 19.1699C77.0524 19.1699 76.4121 19.8048 76.4121 20.5777V22.3994C76.4121 23.1723 77.0524 23.8071 77.8318 23.8071C78.6113 23.8071 79.2515 23.1723 79.2515 22.3994V20.5777C79.2515 19.8048 78.6252 19.1699 77.8318 19.1699Z" fill="#ABABAB"/>
<path d="M82.6062 19.1699C81.8268 19.1699 81.1865 19.8048 81.1865 20.5777V22.3994C81.1865 23.1723 81.8268 23.8071 82.6062 23.8071C83.3857 23.8071 84.0259 23.1723 84.0259 22.3994V20.5777C84.0259 19.8048 83.3996 19.1699 82.6062 19.1699Z" fill="#ABABAB"/>
<path d="M87.3933 19.1699C86.6139 19.1699 85.9736 19.8048 85.9736 20.5777V22.3994C85.9736 23.1723 86.6139 23.8071 87.3933 23.8071C88.1728 23.8071 88.813 23.1723 88.813 22.3994V20.5777C88.813 19.8048 88.1728 19.1699 87.3933 19.1699Z" fill="#ABABAB"/>
<path d="M92.1677 19.1699C91.3883 19.1699 90.748 19.8048 90.748 20.5777V22.3994C90.748 23.1723 91.3883 23.8071 92.1677 23.8071C92.9472 23.8071 93.5874 23.1723 93.5874 22.3994V20.5777C93.5874 19.8048 92.9472 19.1699 92.1677 19.1699Z" fill="#ABABAB"/>
<path d="M77.8318 12.0347C77.0524 12.0347 76.4121 12.6695 76.4121 13.4424V15.2642C76.4121 16.037 77.0524 16.6719 77.8318 16.6719C78.6113 16.6719 79.2515 16.037 79.2515 15.2642V13.4424C79.2515 12.6695 78.6252 12.0347 77.8318 12.0347Z" fill="#ABABAB"/>
<path d="M82.6062 12.0347C81.8268 12.0347 81.1865 12.6695 81.1865 13.4424V15.2642C81.1865 16.037 81.8268 16.6719 82.6062 16.6719C83.3857 16.6719 84.0259 16.037 84.0259 15.2642V13.4424C84.0259 12.6695 83.3996 12.0347 82.6062 12.0347Z" fill="#ABABAB"/>
<path d="M87.3933 12.0347C86.6139 12.0347 85.9736 12.6695 85.9736 13.4424V15.2642C85.9736 16.037 86.6139 16.6719 87.3933 16.6719C88.1728 16.6719 88.813 16.037 88.813 15.2642V13.4424C88.813 12.6695 88.1728 12.0347 87.3933 12.0347Z" fill="#ABABAB"/>
<path d="M92.1677 12.0347C91.3883 12.0347 90.748 12.6695 90.748 13.4424V15.2642C90.748 16.037 91.3883 16.6719 92.1677 16.6719C92.9472 16.6719 93.5874 16.037 93.5874 15.2642V13.4424C93.5874 12.6695 92.9472 12.0347 92.1677 12.0347Z" fill="#ABABAB"/>
<path d="M77.8318 5.18921C77.0524 5.18921 76.4121 5.82407 76.4121 6.59694V8.4187C76.4121 9.19157 77.0524 9.82643 77.8318 9.82643C78.6113 9.82643 79.2515 9.19157 79.2515 8.4187V6.59694C79.2515 5.82407 78.6252 5.18921 77.8318 5.18921Z" fill="#ABABAB"/>
<path d="M82.6062 5.18921C81.8268 5.18921 81.1865 5.82407 81.1865 6.59694V8.4187C81.1865 9.19157 81.8268 9.82643 82.6062 9.82643C83.3857 9.82643 84.0259 9.19157 84.0259 8.4187V6.59694C84.0259 5.82407 83.3996 5.18921 82.6062 5.18921Z" fill="#ABABAB"/>
<path d="M87.3933 5.18921C86.6139 5.18921 85.9736 5.82407 85.9736 6.59694V8.4187C85.9736 9.19157 86.6139 9.82643 87.3933 9.82643C88.1728 9.82643 88.813 9.19157 88.813 8.4187V6.59694C88.813 5.82407 88.1728 5.18921 87.3933 5.18921Z" fill="#ABABAB"/>
<path d="M92.1677 5.18921C91.3883 5.18921 90.748 5.82407 90.748 6.59694V8.4187C90.748 9.19157 91.3883 9.82643 92.1677 9.82643C92.9472 9.82643 93.5874 9.19157 93.5874 8.4187V6.59694C93.5874 5.82407 92.9472 5.18921 92.1677 5.18921Z" fill="#ABABAB"/>
</svg>
