<svg width="76" height="24" viewBox="0 0 76 24" fill="none" xmlns="http://www.w3.org/2000/svg"><path d="M30.46 3.798s-1.087 1.17-2.925 2.758c-.92.752-2.09 1.672-3.343 2.507-1.253.836-2.674 1.672-4.095 2.34-1.42.669-2.925 1.337-4.43 1.755-1.42.502-2.84.753-4.01.92-1.17.167-2.257.25-2.926.25H7.645c-.084 0-.167-.083-.167-.25a.18.18 0 0 1 .167-.167s.418 0 1.086-.084c.669-.084 1.672-.167 2.842-.418 2.34-.418 5.348-1.42 8.19-2.841 1.42-.669 2.841-1.505 4.095-2.257 1.253-.836 2.423-1.588 3.343-2.256.919-.753 1.755-1.338 2.256-1.755.502-.418.836-.669.836-.669a.254.254 0 0 1 .334 0c-.083-.084-.083.084-.167.167z" fill="#D29966"/><path d="M75.423 10.484c-1.338-5.349-8.358-4.43-12.37-3.426a31.782 31.782 0 0 0-7.103 2.674c-1.17.585-2.256 1.254-3.343 1.838-.501.251-1.17-.417-1.587-.668-.586-.418-1.254-.836-1.84-1.254-2.172-1.588-4.261-3.259-6.35-5.014-1.003-.752-1.84-1.671-2.758-2.507-.67-.669-1.672-2.09-2.675-1.254-3.928 3.51-7.772 7.104-12.201 10.029-.418.25-1.087 1.003-1.588.668-.502-.334-1.087-.585-1.588-.919a28.566 28.566 0 0 0-3.594-1.755c-2.423-1.086-4.847-1.922-7.438-2.423-2.423-.418-5.014-.585-7.354.417C1.712 7.893.542 10.066.625 12.323c.335 5.766 6.77 6.1 11.115 5.181 2.508-.501 5.015-1.504 7.355-2.59a39.743 39.743 0 0 0 3.26-1.672c.5-.334 1.086-.585 1.587-.92.585.335 1.087.67 1.671 1.087 4.346 2.925 8.274 6.519 12.118 10.029.67.668 2.257-1.337 2.675-1.755 1.003-.92 2.09-1.839 3.092-2.758a83.632 83.632 0 0 1 6.017-4.764c.502-.334 1.003-.668 1.505-1.086l.752-.502c.418-.25.418-.083.835.168 1.17.668 2.34 1.337 3.594 1.838 2.257 1.087 4.68 2.173 7.187 2.758 3.928 1.003 10.363 1.588 11.951-3.26a5.88 5.88 0 0 0 .084-3.593c-.168-.501.167.502 0 0zm-55.409 3.51c-3.593 1.672-7.438 2.674-11.45 2.758-1.754 0-3.844-.25-5.18-1.504-1.338-1.17-1.589-3.009-1.17-4.68 1.17-3.928 6.685-3.51 9.777-3.009 4.179.669 7.94 2.256 11.533 4.43a23.935 23.935 0 0 1-3.51 2.005c-1.671.752 1.254-.585 0 0zm31.09-1.504c-2.257 1.504-4.514 3.008-6.687 4.68-1.086.836-2.256 1.671-3.343 2.59-.501.418-1.002.836-1.504 1.17-.25.168-.501.419-.752.586-.334.25-.585.752-1.003.418-4.346-3.51-8.775-6.937-13.539-9.946 2.508-1.504 4.848-3.175 7.188-4.93 1.086-.836 2.256-1.672 3.342-2.591.585-.418 1.17-.836 1.756-1.337.25-.167.5-.418.752-.585.334-.251.585-.752 1.002-.418 2.09 1.755 4.263 3.426 6.436 5.098a70.82 70.82 0 0 0 7.103 4.847c-.25.167-.501.25-.752.418-1.504 1.003.25-.167 0 0zm23.065-.335c-.334 3.845-4.513 4.764-7.689 4.43-2.34-.25-4.847-.585-7.187-1.337s-4.513-2.006-6.602-3.26c3.928-2.423 8.19-4.095 12.787-4.68 3.426-.334 8.942.167 8.691 4.848z" fill="#D29966"/><path d="M45.753 20.262s1.087-1.17 2.925-2.758c.92-.752 2.09-1.671 3.343-2.507 1.254-.836 2.674-1.671 4.095-2.34 1.42-.669 2.925-1.337 4.43-1.755 1.42-.502 2.84-.752 4.01-.92 1.17-.166 2.257-.25 2.926-.25h1.086c.084 0 .168.084.168.25a.18.18 0 0 1-.168.168s-.418 0-1.086.083c-.669.084-1.671.167-2.841.418-2.34.418-5.35 1.421-8.19 2.842-1.421.668-2.842 1.504-4.096 2.256-1.253.836-2.423 1.588-3.343 2.257-.919.752-1.755 1.337-2.256 1.755-.502.418-.836.668-.836.668a.254.254 0 0 1-.334 0c.084 0 .084-.083.167-.167zm-7.605-4.346l-5.014-3.76 5.014-3.678 5.014 3.678-5.014 3.76z" fill="#D29966"/></svg>