<svg width="30" height="72" viewBox="0 0 30 72" fill="none" xmlns="http://www.w3.org/2000/svg">
<g clip-path="url(#clip0)">
<path d="M7.94968 0H4.48073C4.01499 0 3.56531 0.196945 3.26017 0.558012C2.95503 0.919079 2.81049 1.39503 2.85867 1.87098L2.92291 5.85913H1.65418C0.738758 5.85913 0 6.59767 0 7.53316V70.3424C0 71.2614 0.738758 72.0164 1.63812 72.0164H28.3619C29.2612 72.0164 30 71.2614 30 70.3424V7.53316C30 6.61409 29.2612 5.85913 28.3619 5.85913L27.2056 5.77707L27.1574 1.88739C27.2056 1.41144 27.061 0.935491 26.7559 0.574424C26.4347 0.196945 26.0011 0 25.5353 0H22.0664H7.94968ZM25.166 2.47823L25.0375 5.84271H5.17131L5.15525 2.47823H25.166ZM27.9604 69.8828H2.03961V64.5489H27.9443V69.8828H27.9604ZM27.9604 62.3332H2.03961V8.05835H27.9443V62.3332H27.9604Z" fill="#D29966"/>
<path d="M6.72894 53.2573C5.82958 53.2573 5.09082 54.0123 5.09082 54.9314V57.0978C5.09082 58.0168 5.82958 58.7718 6.72894 58.7718C7.6283 58.7718 8.36705 58.0168 8.36705 57.0978V54.9314C8.36705 53.9959 7.64436 53.2573 6.72894 53.2573Z" fill="#D29966"/>
<path d="M12.2377 53.2573C11.3384 53.2573 10.5996 54.0123 10.5996 54.9314V57.0978C10.5996 58.0168 11.3384 58.7718 12.2377 58.7718C13.1371 58.7718 13.8758 58.0168 13.8758 57.0978V54.9314C13.8758 53.9959 13.1531 53.2573 12.2377 53.2573Z" fill="#D29966"/>
<path d="M17.7621 53.2573C16.8628 53.2573 16.124 54.0123 16.124 54.9314V57.0978C16.124 58.0168 16.8628 58.7718 17.7621 58.7718C18.6615 58.7718 19.4002 58.0168 19.4002 57.0978V54.9314C19.4002 53.9959 18.6615 53.2573 17.7621 53.2573Z" fill="#D29966"/>
<path d="M23.2709 53.2573C22.3716 53.2573 21.6328 54.0123 21.6328 54.9314V57.0978C21.6328 58.0168 22.3716 58.7718 23.2709 58.7718C24.1703 58.7718 24.909 58.0168 24.909 57.0978V54.9314C24.909 53.9959 24.1703 53.2573 23.2709 53.2573Z" fill="#D29966"/>
<path d="M6.72894 45.1006C5.82958 45.1006 5.09082 45.8555 5.09082 46.7746V48.941C5.09082 49.8601 5.82958 50.6151 6.72894 50.6151C7.6283 50.6151 8.36705 49.8601 8.36705 48.941V46.7746C8.36705 45.8555 7.64436 45.1006 6.72894 45.1006Z" fill="#D29966"/>
<path d="M12.2377 45.1006C11.3384 45.1006 10.5996 45.8555 10.5996 46.7746V48.941C10.5996 49.8601 11.3384 50.6151 12.2377 50.6151C13.1371 50.6151 13.8758 49.8601 13.8758 48.941V46.7746C13.8758 45.8555 13.1531 45.1006 12.2377 45.1006Z" fill="#D29966"/>
<path d="M17.7621 45.1006C16.8628 45.1006 16.124 45.8555 16.124 46.7746V48.941C16.124 49.8601 16.8628 50.6151 17.7621 50.6151C18.6615 50.6151 19.4002 49.8601 19.4002 48.941V46.7746C19.4002 45.8555 18.6615 45.1006 17.7621 45.1006Z" fill="#D29966"/>
<path d="M23.2709 45.1006C22.3716 45.1006 21.6328 45.8555 21.6328 46.7746V48.941C21.6328 49.8601 22.3716 50.6151 23.2709 50.6151C24.1703 50.6151 24.909 49.8601 24.909 48.941V46.7746C24.909 45.8555 24.1703 45.1006 23.2709 45.1006Z" fill="#D29966"/>
<path d="M6.72894 36.7959C5.82958 36.7959 5.09082 37.5509 5.09082 38.4699V40.6363C5.09082 41.5554 5.82958 42.3104 6.72894 42.3104C7.6283 42.3104 8.36705 41.5554 8.36705 40.6363V38.4699C8.36705 37.5509 7.64436 36.7959 6.72894 36.7959Z" fill="#D29966"/>
<path d="M12.2377 36.7959C11.3384 36.7959 10.5996 37.5509 10.5996 38.4699V40.6363C10.5996 41.5554 11.3384 42.3104 12.2377 42.3104C13.1371 42.3104 13.8758 41.5554 13.8758 40.6363V38.4699C13.8758 37.5509 13.1531 36.7959 12.2377 36.7959Z" fill="#D29966"/>
<path d="M17.7621 36.7959C16.8628 36.7959 16.124 37.5509 16.124 38.4699V40.6363C16.124 41.5554 16.8628 42.3104 17.7621 42.3104C18.6615 42.3104 19.4002 41.5554 19.4002 40.6363V38.4699C19.4002 37.5509 18.6615 36.7959 17.7621 36.7959Z" fill="#D29966"/>
<path d="M23.2709 36.7959C22.3716 36.7959 21.6328 37.5509 21.6328 38.4699V40.6363C21.6328 41.5554 22.3716 42.3104 23.2709 42.3104C24.1703 42.3104 24.909 41.5554 24.909 40.6363V38.4699C24.909 37.5509 24.1703 36.7959 23.2709 36.7959Z" fill="#D29966"/>
<path d="M6.72894 28.6555C5.82958 28.6555 5.09082 29.4105 5.09082 30.3296V32.496C5.09082 33.415 5.82958 34.17 6.72894 34.17C7.6283 34.17 8.36705 33.415 8.36705 32.496V30.3296C8.36705 29.3941 7.64436 28.6555 6.72894 28.6555Z" fill="#D29966"/>
<path d="M12.2377 28.6555C11.3384 28.6555 10.5996 29.4105 10.5996 30.3296V32.496C10.5996 33.415 11.3384 34.17 12.2377 34.17C13.1371 34.17 13.8758 33.415 13.8758 32.496V30.3296C13.8758 29.3941 13.1531 28.6555 12.2377 28.6555Z" fill="#D29966"/>
<path d="M17.7621 28.6555C16.8628 28.6555 16.124 29.4105 16.124 30.3296V32.496C16.124 33.415 16.8628 34.17 17.7621 34.17C18.6615 34.17 19.4002 33.415 19.4002 32.496V30.3296C19.4002 29.3941 18.6615 28.6555 17.7621 28.6555Z" fill="#D29966"/>
<path d="M23.2709 28.6555C22.3716 28.6555 21.6328 29.4105 21.6328 30.3296V32.496C21.6328 33.415 22.3716 34.17 23.2709 34.17C24.1703 34.17 24.909 33.415 24.909 32.496V30.3296C24.909 29.3941 24.1703 28.6555 23.2709 28.6555Z" fill="#D29966"/>
<path d="M6.72894 20.1707C5.82958 20.1707 5.09082 20.9256 5.09082 21.8447V24.0111C5.09082 24.9302 5.82958 25.6851 6.72894 25.6851C7.6283 25.6851 8.36705 24.9302 8.36705 24.0111V21.8447C8.36705 20.9256 7.64436 20.1707 6.72894 20.1707Z" fill="#D29966"/>
<path d="M12.2377 20.1707C11.3384 20.1707 10.5996 20.9256 10.5996 21.8447V24.0111C10.5996 24.9302 11.3384 25.6851 12.2377 25.6851C13.1371 25.6851 13.8758 24.9302 13.8758 24.0111V21.8447C13.8758 20.9256 13.1531 20.1707 12.2377 20.1707Z" fill="#D29966"/>
<path d="M17.7621 20.1707C16.8628 20.1707 16.124 20.9256 16.124 21.8447V24.0111C16.124 24.9302 16.8628 25.6851 17.7621 25.6851C18.6615 25.6851 19.4002 24.9302 19.4002 24.0111V21.8447C19.4002 20.9256 18.6615 20.1707 17.7621 20.1707Z" fill="#D29966"/>
<path d="M23.2709 20.1707C22.3716 20.1707 21.6328 20.9256 21.6328 21.8447V24.0111C21.6328 24.9302 22.3716 25.6851 23.2709 25.6851C24.1703 25.6851 24.909 24.9302 24.909 24.0111V21.8447C24.909 20.9256 24.1703 20.1707 23.2709 20.1707Z" fill="#D29966"/>
<path d="M6.72894 12.03C5.82958 12.03 5.09082 12.785 5.09082 13.7041V15.8705C5.09082 16.7895 5.82958 17.5445 6.72894 17.5445C7.6283 17.5445 8.36705 16.7895 8.36705 15.8705V13.7041C8.36705 12.7686 7.64436 12.03 6.72894 12.03Z" fill="#D29966"/>
<path d="M12.2377 12.03C11.3384 12.03 10.5996 12.785 10.5996 13.7041V15.8705C10.5996 16.7895 11.3384 17.5445 12.2377 17.5445C13.1371 17.5445 13.8758 16.7895 13.8758 15.8705V13.7041C13.8758 12.7686 13.1531 12.03 12.2377 12.03Z" fill="#D29966"/>
<path d="M17.7621 12.03C16.8628 12.03 16.124 12.785 16.124 13.7041V15.8705C16.124 16.7895 16.8628 17.5445 17.7621 17.5445C18.6615 17.5445 19.4002 16.7895 19.4002 15.8705V13.7041C19.4002 12.7686 18.6615 12.03 17.7621 12.03Z" fill="#D29966"/>
<path d="M23.2709 12.03C22.3716 12.03 21.6328 12.785 21.6328 13.7041V15.8705C21.6328 16.7895 22.3716 17.5445 23.2709 17.5445C24.1703 17.5445 24.909 16.7895 24.909 15.8705V13.7041C24.909 12.7686 24.1703 12.03 23.2709 12.03Z" fill="#D29966"/>
</g>
<defs>
<clipPath id="clip0">
<rect width="30" height="72" fill="white"/>
</clipPath>
</defs>
</svg>
