<svg width="68" height="68" viewBox="0 0 68 68" fill="none" xmlns="http://www.w3.org/2000/svg">
<path d="M27.625 24.4375C30.559 24.4375 32.9375 22.059 32.9375 19.125C32.9375 16.191 30.559 13.8125 27.625 13.8125C24.691 13.8125 22.3125 16.191 22.3125 19.125C22.3125 22.059 24.691 24.4375 27.625 24.4375Z" fill="#D3EEE3"/>
<path d="M38.25 41.4375H46.75V38.25L47.1962 36.9113C47.3598 36.425 47.6578 35.995 48.0558 35.6712C48.4538 35.3474 48.9354 35.1431 49.4448 35.0819C49.9542 35.0208 50.4705 35.1053 50.9338 35.3256C51.3971 35.546 51.7885 35.8931 52.0625 36.3269V3.1875H3.1875V64.8125H52.0625V58.4375H39.3125C38.7494 58.4358 38.2099 58.2114 37.8118 57.8132C37.4136 57.4151 37.1892 56.8756 37.1875 56.3125C37.1917 55.7502 37.4169 55.2121 37.8145 54.8145C38.2121 54.4169 38.7502 54.1917 39.3125 54.1875H38.25C37.6869 54.1858 37.1474 53.9614 36.7493 53.5632C36.3511 53.1651 36.1267 52.6256 36.125 52.0625C36.1292 51.5002 36.3544 50.9621 36.752 50.5645C37.1496 50.1669 37.6877 49.9417 38.25 49.9375C37.6869 49.9358 37.1474 49.7114 36.7493 49.3132C36.3511 48.9151 36.1267 48.3756 36.125 47.8125C36.1292 47.2502 36.3544 46.7121 36.752 46.3145C37.1496 45.9169 37.6877 45.6917 38.25 45.6875C37.6869 45.6858 37.1474 45.4614 36.7493 45.0632C36.3511 44.6651 36.1267 44.1256 36.125 43.5625C36.1292 43.0002 36.3544 42.4621 36.752 42.0645C37.1496 41.6669 37.6877 41.4417 38.25 41.4375ZM35.0625 31.875L32.9375 36.125L29.4737 28.5069C28.253 28.7477 26.997 28.7477 25.7763 28.5069L22.3125 36.125L20.1875 31.875H15.9375L20.7188 25.7231C19.4228 24.3699 18.5529 22.6658 18.2172 20.8224C17.8815 18.979 18.0948 17.0777 18.8305 15.3545C19.5662 13.6312 20.7919 12.1621 22.3554 11.1296C23.9189 10.0971 25.7513 9.54662 27.625 9.54662C29.4987 9.54662 31.3311 10.0971 32.8946 11.1296C34.4581 12.1621 35.6838 13.6312 36.4195 15.3545C37.1552 17.0777 37.3685 18.979 37.0328 20.8224C36.6971 22.6658 35.8272 24.3699 34.5312 25.7231L39.3125 31.875H35.0625Z" fill="#D3EEE3"/>
<path d="M58.4375 42.5H64.8125V57.375H58.4375V42.5Z" fill="#D3EEE3"/>
<path d="M64.8125 41.4375H58.4375C58.1557 41.4375 57.8855 41.5494 57.6862 41.7487C57.4869 41.948 57.375 42.2182 57.375 42.5H55.6856L54.1131 40.9275L53.4863 37.1556C53.4224 36.7779 53.3005 36.4124 53.125 36.0719V3.1875C53.125 2.90571 53.0131 2.63546 52.8138 2.4362C52.6145 2.23694 52.3443 2.125 52.0625 2.125H3.1875C2.90571 2.125 2.63546 2.23694 2.4362 2.4362C2.23694 2.63546 2.125 2.90571 2.125 3.1875V64.8125C2.125 65.0943 2.23694 65.3645 2.4362 65.5638C2.63546 65.7631 2.90571 65.875 3.1875 65.875H52.0625C52.3443 65.875 52.6145 65.7631 52.8138 65.5638C53.0131 65.3645 53.125 65.0943 53.125 64.8125V59.5H54.1875C54.4692 59.4979 54.7393 59.3876 54.9419 59.1919L56.7481 57.375H57.375C57.375 57.6568 57.4869 57.927 57.6862 58.1263C57.8855 58.3256 58.1557 58.4375 58.4375 58.4375H64.8125C65.0943 58.4375 65.3645 58.3256 65.5638 58.1263C65.7631 57.927 65.875 57.6568 65.875 57.375V42.5C65.875 42.2182 65.7631 41.948 65.5638 41.7487C65.3645 41.5494 65.0943 41.4375 64.8125 41.4375ZM51 63.75H4.25V4.25H51V34.2125C50.6044 34.0715 50.1875 33.9997 49.7675 34C48.9751 33.9997 48.2028 34.249 47.56 34.7124C46.9173 35.1759 46.4369 35.83 46.1869 36.5819L45.7406 37.91C45.7074 38.0204 45.6896 38.1348 45.6875 38.25V40.375H38.25C37.4054 40.3775 36.5961 40.7142 35.9989 41.3114C35.4017 41.9086 35.065 42.7179 35.0625 43.5625C35.0646 44.3493 35.3601 45.1071 35.8913 45.6875C35.3583 46.2668 35.0625 47.0253 35.0625 47.8125C35.0625 48.5997 35.3583 49.3582 35.8913 49.9375C35.5782 50.2795 35.3443 50.6863 35.2061 51.1289C35.0679 51.5716 35.0289 52.0392 35.0918 52.4986C35.1546 52.958 35.3179 53.3979 35.5699 53.7871C35.8219 54.1763 36.1565 54.5053 36.55 54.7506C36.2737 55.2249 36.1271 55.7636 36.125 56.3125C36.1275 57.1571 36.4642 57.9664 37.0614 58.5636C37.6586 59.1608 38.4679 59.4975 39.3125 59.5H51V63.75ZM38.25 46.75H41.4375C41.7193 46.75 41.9895 46.8619 42.1888 47.0612C42.3881 47.2605 42.5 47.5307 42.5 47.8125C42.5 48.0943 42.3881 48.3645 42.1888 48.5638C41.9895 48.7631 41.7193 48.875 41.4375 48.875H38.25C37.9682 48.875 37.698 48.7631 37.4987 48.5638C37.2994 48.3645 37.1875 48.0943 37.1875 47.8125C37.1875 47.5307 37.2994 47.2605 37.4987 47.0612C37.698 46.8619 37.9682 46.75 38.25 46.75ZM37.1875 43.5625C37.1875 43.2807 37.2994 43.0105 37.4987 42.8112C37.698 42.6119 37.9682 42.5 38.25 42.5H41.4375C41.7193 42.5 41.9895 42.6119 42.1888 42.8112C42.3881 43.0105 42.5 43.2807 42.5 43.5625C42.5 43.8443 42.3881 44.1145 42.1888 44.3138C41.9895 44.5131 41.7193 44.625 41.4375 44.625H38.25C37.9682 44.625 37.698 44.5131 37.4987 44.3138C37.2994 44.1145 37.1875 43.8443 37.1875 43.5625ZM38.25 51H41.4375C41.7193 51 41.9895 51.1119 42.1888 51.3112C42.3881 51.5105 42.5 51.7807 42.5 52.0625C42.5 52.3443 42.3881 52.6145 42.1888 52.8138C41.9895 53.0131 41.7193 53.125 41.4375 53.125H38.25C37.9682 53.125 37.698 53.0131 37.4987 52.8138C37.2994 52.6145 37.1875 52.3443 37.1875 52.0625C37.1875 51.7807 37.2994 51.5105 37.4987 51.3112C37.698 51.1119 37.9682 51 38.25 51ZM39.3125 55.25H42.5C42.7818 55.25 43.052 55.3619 43.2513 55.5612C43.4506 55.7605 43.5625 56.0307 43.5625 56.3125C43.5625 56.5943 43.4506 56.8645 43.2513 57.0638C43.052 57.2631 42.7818 57.375 42.5 57.375H39.3125C39.0307 57.375 38.7605 57.2631 38.5612 57.0638C38.3619 56.8645 38.25 56.5943 38.25 56.3125C38.25 56.0307 38.3619 55.7605 38.5612 55.5612C38.7605 55.3619 39.0307 55.25 39.3125 55.25ZM57.375 55.25H56.3125C56.0308 55.2521 55.7607 55.3624 55.5581 55.5581L53.7519 57.375H45.4963C45.7446 56.6961 45.7513 55.9524 45.5152 55.2691C45.2791 54.5859 44.8146 54.005 44.2 53.6244C44.4763 53.1501 44.6229 52.6114 44.625 52.0625C44.6229 51.2757 44.3274 50.5179 43.7962 49.9375C44.3292 49.3582 44.625 48.5997 44.625 47.8125C44.625 47.0253 44.3292 46.2668 43.7962 45.6875C44.3274 45.1071 44.6229 44.3493 44.625 43.5625C44.6221 43.2 44.5574 42.8407 44.4338 42.5H45.6875V46.4738C45.6911 47.3897 45.9305 48.2892 46.3828 49.0857C46.835 49.8822 47.4847 50.5488 48.2694 51.0213L51.5206 52.9762L52.6044 51.1488L49.3638 49.2044C48.893 48.9202 48.5031 48.5198 48.2315 48.0417C47.9599 47.5635 47.8156 47.0236 47.8125 46.4738V38.42L48.2056 37.2513C48.3221 36.9021 48.5522 36.602 48.8592 36.3989C49.1661 36.1958 49.5323 36.1014 49.8992 36.1307C50.2661 36.1601 50.6126 36.3115 50.8834 36.5608C51.1542 36.8101 51.3337 37.143 51.3931 37.5062L52.0731 41.6075C52.1152 41.8264 52.2184 42.029 52.3706 42.1919L54.4956 44.3169C54.6982 44.5126 54.9683 44.6229 55.25 44.625H57.375V55.25ZM63.75 56.3125H59.5V43.5625H63.75V56.3125Z" fill="#25A874"/>
<path d="M15.9375 32.9375H19.5309L21.3616 36.5999C21.4498 36.7766 21.5856 36.9251 21.7535 37.0289C21.9215 37.1327 22.1151 37.1876 22.3125 37.1875H22.3327C22.5332 37.1836 22.7284 37.1231 22.896 37.0129C23.0635 36.9027 23.1964 36.7474 23.2794 36.5649L26.4116 29.6756C27.2175 29.7748 28.0325 29.7748 28.8384 29.6756L31.9706 36.5649C32.0536 36.7474 32.1865 36.9027 32.3541 37.0129C32.5216 37.1231 32.7169 37.1836 32.9173 37.1875H32.9375C33.135 37.1876 33.3285 37.1327 33.4965 37.0289C33.6645 36.9251 33.8002 36.7766 33.8885 36.5999L35.7191 32.9375H39.3125C39.5115 32.9376 39.7065 32.8819 39.8754 32.7766C40.0442 32.6714 40.1801 32.5208 40.2676 32.3421C40.355 32.1634 40.3906 31.9637 40.3701 31.7658C40.3497 31.5679 40.2741 31.3797 40.1519 31.2226L35.9125 25.7624C37.1671 24.2007 37.9546 22.3162 38.1842 20.3261C38.4139 18.3361 38.0762 16.3217 37.2103 14.5153C36.3443 12.7089 34.9854 11.1841 33.2901 10.1169C31.5949 9.04956 29.6325 8.48325 27.6293 8.48325C25.626 8.48325 23.6636 9.04956 21.9684 10.1169C20.2732 11.1841 18.9142 12.7089 18.0482 14.5153C17.1823 16.3217 16.8447 18.3361 17.0743 20.3261C17.3039 22.3162 18.0914 24.2007 19.346 25.7624L15.0981 31.2226C14.976 31.3797 14.9003 31.5679 14.8799 31.7658C14.8594 31.9637 14.895 32.1634 14.9825 32.3421C15.0699 32.5208 15.2058 32.6714 15.3747 32.7766C15.5435 32.8819 15.7385 32.9376 15.9375 32.9375ZM35.0625 30.8125C34.8642 30.8114 34.6695 30.8659 34.5005 30.9697C34.3315 31.0736 34.1949 31.2226 34.1063 31.4001L32.9779 33.6579L30.9591 29.206C32.218 28.7891 33.3877 28.1405 34.408 27.2935L37.1408 30.8125H35.0625ZM27.625 10.625C29.3062 10.625 30.9495 11.1235 32.3474 12.0575C33.7452 12.9915 34.8346 14.319 35.478 15.8722C36.1213 17.4254 36.2897 19.1344 35.9617 20.7833C35.6337 22.4321 34.8242 23.9467 33.6354 25.1354C32.4467 26.3242 30.9321 27.1337 29.2833 27.4617C27.6344 27.7897 25.9254 27.6213 24.3722 26.978C22.819 26.3346 21.4915 25.2452 20.5575 23.8474C19.6235 22.4495 19.125 20.8061 19.125 19.125C19.1275 16.8714 20.0239 14.7109 21.6174 13.1174C23.2109 11.5239 25.3714 10.6275 27.625 10.625ZM20.842 27.2956C21.8623 28.1426 23.0321 28.7913 24.2909 29.2081L22.2721 33.66L21.1438 31.4001C21.0551 31.2226 20.9185 31.0736 20.7495 30.9697C20.5805 30.8659 20.3859 30.8114 20.1875 30.8125H18.1082L20.842 27.2956Z" fill="#25A874"/>
<path d="M27.625 25.5C28.8859 25.5 30.1184 25.1261 31.1668 24.4256C32.2151 23.7251 33.0322 22.7295 33.5147 21.5646C33.9972 20.3997 34.1235 19.1179 33.8775 17.8813C33.6315 16.6447 33.0244 15.5088 32.1328 14.6172C31.2412 13.7256 30.1053 13.1185 28.8687 12.8725C27.6321 12.6265 26.3503 12.7528 25.1854 13.2353C24.0205 13.7178 23.0249 14.5349 22.3244 15.5832C21.6239 16.6316 21.25 17.8641 21.25 19.125C21.2517 20.8152 21.9239 22.4358 23.1191 23.6309C24.3142 24.8261 25.9348 25.4983 27.625 25.5ZM27.625 14.875C28.4656 14.875 29.2873 15.1243 29.9862 15.5913C30.6851 16.0583 31.2298 16.722 31.5515 17.4986C31.8732 18.2752 31.9573 19.1297 31.7933 19.9541C31.6293 20.7786 31.2246 21.5358 30.6302 22.1302C30.0358 22.7246 29.2785 23.1294 28.4541 23.2933C27.6297 23.4573 26.7752 23.3732 25.9986 23.0515C25.222 22.7298 24.5582 22.1851 24.0913 21.4862C23.6243 20.7873 23.375 19.9656 23.375 19.125C23.375 17.9978 23.8228 16.9168 24.6198 16.1198C25.4168 15.3228 26.4978 14.875 27.625 14.875Z" fill="#25A874"/>
<path d="M8.5 42.5H13.8125V44.625H8.5V42.5Z" fill="#25A874"/>
<path d="M17 42.5H34V44.625H17V42.5Z" fill="#25A874"/>
<path d="M8.5 47.8125H22.3125V49.9375H8.5V47.8125Z" fill="#25A874"/>
<path d="M25.5 47.8125H34V49.9375H25.5V47.8125Z" fill="#25A874"/>
<path d="M8.5 53.125H17V55.25H8.5V53.125Z" fill="#25A874"/>
</svg>
