<svg width="68" height="68" viewBox="0 0 68 68" fill="none" xmlns="http://www.w3.org/2000/svg">
<path d="M65.7333 34C65.7333 36.7393 63.1445 39.1 62.4694 41.6295C61.771 44.2443 62.8092 47.5806 61.4855 49.87C60.1424 52.192 56.7197 52.9518 54.836 54.8361C52.9528 56.7209 52.1908 60.1425 49.8666 61.4855C47.5772 62.8103 44.2409 61.7711 41.6261 62.4695C39.0999 63.1446 36.7392 65.7333 33.9999 65.7333C31.2607 65.7333 28.8999 63.1446 26.3704 62.4695C23.7557 61.7711 20.4193 62.8092 18.1299 61.4855C15.8079 60.1425 15.0481 56.7198 13.1639 54.8361C11.279 52.9529 7.85745 52.1909 6.51439 49.8667C5.18958 47.5773 6.22884 44.2409 5.53047 41.6262C4.85534 39.1 2.2666 36.7393 2.2666 34C2.2666 31.2607 4.85534 28.9 5.53047 26.3705C6.22884 23.7557 5.19069 20.4194 6.51439 18.13C7.85745 15.808 11.2746 15.0482 13.1639 13.1639C15.0531 11.2791 15.809 7.85752 18.1333 6.51445C20.4226 5.18964 23.759 6.2289 26.3737 5.53053C28.8999 4.8554 31.2607 2.26666 33.9999 2.26666C36.7392 2.26666 39.0999 4.8554 41.6295 5.53053C44.2442 6.2289 47.5806 5.19075 49.8699 6.51445C52.1919 7.85752 52.9517 11.2747 54.836 13.1639C56.7208 15.0532 60.1424 15.8091 61.4855 18.1333C62.8103 20.4227 61.771 23.759 62.4694 26.3738C63.1445 28.9 65.7333 31.2607 65.7333 34Z" fill="#D3EEE3"/>
<path d="M34 68C32.0056 68 30.5275 66.3681 29.0981 64.7881C28.3815 63.8142 27.4479 63.0201 26.3716 62.4695C25.1137 62.3937 23.8553 62.6161 22.6993 63.1186C20.7093 63.7533 18.6568 64.4096 16.9945 63.4473C15.3066 62.4717 14.8479 60.3434 14.4035 58.2853C14.2668 57.054 13.8418 55.8726 13.1639 54.8361C12.1269 54.1571 10.9443 53.7321 9.71247 53.5954C7.65553 53.151 5.52832 52.6889 4.5527 51.0055C3.59036 49.3421 4.24668 47.2884 4.88141 45.3007C5.38444 44.1452 5.6069 42.8874 5.53053 41.6295C4.98047 40.5526 4.18636 39.6185 3.21185 38.9019C1.63193 37.4725 0 35.9944 0 34C0 32.0056 1.63193 30.5275 3.21185 29.0981C4.18581 28.3815 4.97992 27.4479 5.53053 26.3716C5.6069 25.1132 5.38444 23.8553 4.88141 22.6993C4.24668 20.7116 3.59036 18.6568 4.5527 16.9945C5.52832 15.3066 7.65664 14.8479 9.71468 14.4035C10.946 14.2668 12.1274 13.8418 13.1639 13.1639C13.8446 12.1274 14.2718 10.9449 14.4102 9.71247C14.8545 7.65553 15.3172 5.52832 17 4.5527C18.6651 3.58926 20.7182 4.24779 22.7054 4.88141C23.8609 5.38333 25.1182 5.60579 26.376 5.53053C27.4534 4.98047 28.387 4.18636 29.1042 3.21185C30.5275 1.63193 32.0056 0 34 0C35.9944 0 37.4725 1.63193 38.9019 3.21185C39.6185 4.18581 40.5521 4.97992 41.6284 5.53053C42.8863 5.60635 44.1447 5.38389 45.3007 4.88141C47.2907 4.24668 49.3432 3.59036 51.0055 4.5527C52.6934 5.52832 53.1521 7.65664 53.5965 9.71468C53.7332 10.946 54.1582 12.1274 54.8361 13.1639C55.8726 13.8446 57.0551 14.2718 58.2875 14.4102C60.3445 14.8545 62.4717 15.3172 63.4473 17C64.4096 18.6635 63.7533 20.7171 63.1186 22.7054C62.6156 23.8603 62.3931 25.1182 62.4695 26.376C63.0195 27.4534 63.8136 28.387 64.7881 29.1042C66.3681 30.5275 68 32.0056 68 34C68 35.9944 66.3681 37.4725 64.7881 38.9019C63.8142 39.6185 63.0201 40.5521 62.4695 41.6284C62.3931 42.8868 62.6156 44.1447 63.1186 45.3007C63.7533 47.2884 64.4096 49.3432 63.4473 51.0055C62.4717 52.6934 60.3434 53.1521 58.2853 53.5965C57.054 53.7332 55.8726 54.1582 54.8361 54.8361C54.1571 55.8731 53.7321 57.0557 53.5954 58.2875C53.151 60.3445 52.6889 62.4717 51.0055 63.4473C49.3398 64.4107 47.2873 63.7533 45.3007 63.1186C44.1447 62.6167 42.8874 62.3942 41.6295 62.4695C40.5526 63.0195 39.6185 63.8136 38.9019 64.7881C37.4725 66.3681 35.9944 68 34 68ZM25.8071 60.1369C26.1945 60.1347 26.5813 60.1823 26.9565 60.2797C28.4811 60.905 29.8031 61.9388 30.7782 63.2674C31.8761 64.4799 33.0105 65.7333 34 65.7333C34.9895 65.7333 36.1239 64.4799 37.2218 63.2674C38.1969 61.9382 39.5195 60.9045 41.0446 60.2797C42.7241 60.0479 44.4352 60.283 45.9896 60.9598C47.5059 61.4435 49.0753 61.9449 49.8711 61.4855C50.6884 61.013 51.0398 59.3832 51.3796 57.8089C51.5639 56.1421 52.2058 54.5588 53.234 53.234C54.3353 52.13 56.1 51.7493 57.8066 51.3807C59.3821 51.041 61.0118 50.6895 61.4867 49.87C61.9399 49.077 61.4446 47.507 60.9598 45.9896C60.2819 44.4352 60.0467 42.7236 60.2797 41.0435C60.905 39.5189 61.9388 38.1969 63.2674 37.2218C64.4799 36.1239 65.7333 34.9895 65.7333 34C65.7333 33.0105 64.4799 31.8761 63.2674 30.7782C61.9382 29.8031 60.9045 28.4805 60.2797 26.9554C60.0467 25.2759 60.2819 23.5648 60.9598 22.0104C61.4446 20.493 61.9449 18.923 61.4855 18.1289C61.013 17.3116 59.3832 16.9602 57.8089 16.6204C56.1421 16.4361 54.5588 15.7942 53.234 14.766C52.13 13.6647 51.7493 11.9 51.3807 10.1934C51.041 8.61787 50.6895 6.98815 49.87 6.51335C49.077 6.06012 47.5092 6.5554 45.9896 7.04017C44.4346 7.71751 42.7236 7.9527 41.0435 7.72028C39.5189 7.09495 38.1969 6.06123 37.2218 4.73255C36.1239 3.52008 34.9895 2.26667 34 2.26667C33.0105 2.26667 31.8761 3.52008 30.7782 4.73255C29.8031 6.06178 28.4805 7.09551 26.9554 7.72028C25.4286 8.13034 23.6888 7.57751 22.0104 7.04017C20.493 6.5554 18.9269 6.05182 18.1333 6.51445C17.316 6.98704 16.9651 8.61676 16.6248 10.1911C16.4405 11.8579 15.7986 13.4412 14.771 14.766C13.6692 15.87 11.9044 16.2507 10.1978 16.6193C8.6223 16.959 6.99258 17.3104 6.51777 18.13C6.06455 18.923 6.55983 20.493 7.0446 22.0104C7.72249 23.5648 7.95768 25.2764 7.72471 26.9565C7.09938 28.4811 6.06566 29.8031 4.73753 30.7782C3.52008 31.8761 2.26667 33.0105 2.26667 34C2.26667 34.9895 3.52008 36.1239 4.73255 37.2218C6.06178 38.1969 7.09551 39.5195 7.72028 41.0446C7.95326 42.7241 7.71807 44.4352 7.04017 45.9896C6.5554 47.507 6.05514 49.0731 6.51445 49.8667C6.98704 50.684 8.61676 51.0349 10.1911 51.3752C11.8579 51.5595 13.4412 52.2014 14.766 53.229C15.87 54.3308 16.2507 56.0956 16.6193 57.8022C16.959 59.3777 17.3104 61.0074 18.13 61.4822C18.923 61.9354 20.4908 61.4402 22.0104 60.9554C23.2284 60.495 24.5078 60.2194 25.8071 60.1369Z" fill="#25A874"/>
<path d="M34 13.6C33.3742 13.6 32.8667 13.0926 32.8667 12.4667V10.2C32.8667 9.57414 33.3742 9.06668 34 9.06668C34.6259 9.06668 35.1334 9.57414 35.1334 10.2V12.4667C35.1334 13.0926 34.6259 13.6 34 13.6Z" fill="#25A874"/>
<path d="M28.4254 14.3332C27.913 14.3327 27.4642 13.9885 27.3319 13.4932L26.747 11.3051C26.6291 10.91 26.7354 10.4822 27.0242 10.1878C27.3131 9.89396 27.7387 9.77941 28.136 9.88953C28.5333 9.99966 28.8393 10.3173 28.9351 10.718L29.5222 12.9077C29.6838 13.512 29.3252 14.1329 28.7209 14.2945C28.6246 14.321 28.525 14.3338 28.4254 14.3332Z" fill="#25A874"/>
<path d="M23.2335 16.4854C22.8284 16.4859 22.4538 16.2695 22.2507 15.9187L21.1174 13.9547C20.9121 13.6039 20.9098 13.1695 21.1124 12.817C21.3149 12.4645 21.6912 12.2475 22.098 12.2481C22.5047 12.2492 22.8793 12.4678 23.0808 12.8214L24.2141 14.7854C24.4161 15.1362 24.4161 15.5678 24.2141 15.9181C24.0121 16.269 23.638 16.4848 23.2335 16.4854Z" fill="#25A874"/>
<path d="M18.7739 19.907C18.4734 19.907 18.1851 19.7874 17.9726 19.5749L16.3688 17.9712C16.0744 17.6868 15.956 17.2651 16.0601 16.8689C16.1635 16.4727 16.4729 16.1633 16.8691 16.0598C17.2653 15.9558 17.687 16.0742 17.9714 16.3686L19.5752 17.9723C19.8994 18.2966 19.9963 18.7842 19.8209 19.2075C19.6454 19.6308 19.2321 19.907 18.7739 19.907Z" fill="#25A874"/>
<path d="M15.351 24.3667C15.1523 24.3672 14.9564 24.3146 14.7843 24.215L12.8204 23.0817C12.4668 22.8803 12.2482 22.5056 12.2471 22.0989C12.2465 21.6921 12.4634 21.3158 12.816 21.1133C13.1685 20.9108 13.6029 20.913 13.9537 21.1183L15.9177 22.2516C16.362 22.5084 16.5784 23.0313 16.4456 23.5266C16.3128 24.0219 15.864 24.3667 15.351 24.3667Z" fill="#25A874"/>
<path d="M13.2008 29.5597C13.1017 29.5597 13.0032 29.5464 12.9075 29.5209L10.7177 28.9338C10.3171 28.8381 9.99944 28.532 9.88932 28.1347C9.7792 27.7374 9.89375 27.3118 10.1876 27.0229C10.482 26.7341 10.9098 26.6278 11.3049 26.7457L13.493 27.3317C14.0425 27.4784 14.3978 28.0096 14.3242 28.5735C14.25 29.1374 13.7697 29.5591 13.2008 29.5597Z" fill="#25A874"/>
<path d="M12.4669 35.1333H10.2002C9.57435 35.1333 9.06689 34.6259 9.06689 34C9.06689 33.3741 9.57435 32.8667 10.2002 32.8667H12.4669C13.0928 32.8667 13.6002 33.3741 13.6002 34C13.6002 34.6259 13.0928 35.1333 12.4669 35.1333Z" fill="#25A874"/>
<path d="M11.01 41.2942C10.4417 41.2936 9.96136 40.8719 9.8872 40.308C9.81305 39.7441 10.1683 39.2129 10.7178 39.0662L12.9076 38.4791C13.5108 38.3203 14.1289 38.6794 14.2899 39.2821C14.4515 39.8847 14.0951 40.5045 13.4931 40.6683L11.305 41.2543C11.2087 41.2809 11.1096 41.2942 11.01 41.2942Z" fill="#25A874"/>
<path d="M13.3892 47.0334C12.8762 47.0334 12.4274 46.6886 12.2946 46.1933C12.1618 45.698 12.3782 45.1751 12.8226 44.9183L14.7865 43.785C15.1374 43.5797 15.5718 43.5775 15.9243 43.78C16.2768 43.9825 16.4943 44.3588 16.4932 44.7656C16.4921 45.1723 16.2735 45.547 15.9199 45.7484L13.9559 46.8817C13.7838 46.9813 13.5884 47.0339 13.3892 47.0334Z" fill="#25A874"/>
<path d="M17.1699 51.9634C16.7117 51.9634 16.2983 51.6873 16.1235 51.2634C15.948 50.8401 16.0449 50.3531 16.3686 50.0288L17.9723 48.4251C18.4172 47.9957 19.1239 48.0018 19.5611 48.4389C19.9983 48.8761 20.0043 49.5828 19.5749 50.0277L17.9712 51.6314C17.7587 51.8439 17.4704 51.9634 17.1699 51.9634Z" fill="#25A874"/>
<path d="M22.0999 55.7453C21.6953 55.7447 21.3212 55.5289 21.1193 55.178C20.9173 54.8278 20.9173 54.3956 21.1193 54.0453L22.2526 52.0813C22.568 51.544 23.2575 51.3614 23.7971 51.6729C24.3366 51.9845 24.5237 52.6729 24.216 53.2146L23.0827 55.1786C22.8796 55.5294 22.5049 55.7458 22.0999 55.7453Z" fill="#25A874"/>
<path d="M27.8404 58.1221C27.4879 58.1221 27.1559 57.9583 26.9411 57.6783C26.7264 57.3988 26.6545 57.0352 26.7458 56.6949L27.3318 54.5068C27.4956 53.9047 28.1154 53.5483 28.7181 53.7099C29.3207 53.871 29.6798 54.4891 29.521 55.0923L28.9339 57.282C28.8016 57.7773 28.3528 58.1215 27.8404 58.1221Z" fill="#25A874"/>
<path d="M34 58.9333C33.3742 58.9333 32.8667 58.4259 32.8667 57.8V55.5333C32.8667 54.9074 33.3742 54.4 34 54.4C34.6259 54.4 35.1334 54.9074 35.1334 55.5333V57.8C35.1334 58.4259 34.6259 58.9333 34 58.9333Z" fill="#25A874"/>
<path d="M40.1596 58.1221C39.6472 58.1215 39.1984 57.7773 39.0661 57.282L38.479 55.0923C38.3202 54.4891 38.6793 53.871 39.2819 53.7099C39.8846 53.5483 40.5044 53.9047 40.6682 54.5068L41.2542 56.6949C41.3455 57.0352 41.2736 57.3988 41.0589 57.6783C40.8442 57.9583 40.5121 58.1221 40.1596 58.1221Z" fill="#25A874"/>
<path d="M45.9 55.7452C45.4949 55.7458 45.1203 55.5294 44.9172 55.1786L43.7839 53.2146C43.5786 52.8638 43.5763 52.4294 43.7789 52.0769C43.9814 51.7244 44.3577 51.5069 44.7645 51.508C45.1712 51.5091 45.5458 51.7277 45.7473 52.0813L46.8806 54.0453C47.0826 54.3955 47.0826 54.8277 46.8806 55.178C46.6786 55.5289 46.3045 55.7447 45.9 55.7452Z" fill="#25A874"/>
<path d="M50.83 51.9634C50.5295 51.9634 50.2412 51.8439 50.0287 51.6314L48.425 50.0277C47.9956 49.5828 48.0017 48.8761 48.4389 48.4389C48.876 48.0018 49.5827 47.9957 50.0276 48.4251L51.6313 50.0288C51.9551 50.3531 52.0519 50.8401 51.8765 51.2634C51.7016 51.6873 51.2882 51.9634 50.83 51.9634Z" fill="#25A874"/>
<path d="M54.6108 47.0334C54.4116 47.0339 54.2162 46.9813 54.0441 46.8817L52.0801 45.7484C51.7265 45.547 51.5079 45.1723 51.5068 44.7656C51.5057 44.3588 51.7232 43.9825 52.0757 43.78C52.4282 43.5775 52.8626 43.5797 53.2135 43.785L55.1774 44.9183C55.6218 45.1751 55.8382 45.698 55.7054 46.1933C55.5726 46.6886 55.1238 47.0334 54.6108 47.0334Z" fill="#25A874"/>
<path d="M56.9897 41.2942C56.8901 41.2942 56.7911 41.2809 56.6948 41.2543L54.5067 40.6683C53.9046 40.5045 53.5482 39.8847 53.7098 39.2821C53.8708 38.6794 54.489 38.3203 55.0922 38.4791L57.2819 39.0662C57.8314 39.2129 58.1867 39.7441 58.1125 40.308C58.0384 40.8719 57.558 41.2936 56.9897 41.2942Z" fill="#25A874"/>
<path d="M57.7999 35.1333H55.5332C54.9074 35.1333 54.3999 34.6259 54.3999 34C54.3999 33.3741 54.9074 32.8667 55.5332 32.8667H57.7999C58.4258 32.8667 58.9332 33.3741 58.9332 34C58.9332 34.6259 58.4258 35.1333 57.7999 35.1333Z" fill="#25A874"/>
<path d="M54.799 29.5597C54.2301 29.5591 53.7498 29.1374 53.6756 28.5735C53.602 28.0096 53.9573 27.4784 54.5068 27.3317L56.6949 26.7457C57.09 26.6278 57.5178 26.7341 57.8122 27.0229C58.106 27.3118 58.2206 27.7374 58.1105 28.1347C58.0004 28.532 57.6827 28.8381 57.2821 28.9338L55.0923 29.5209C54.9966 29.5464 54.8981 29.5597 54.799 29.5597Z" fill="#25A874"/>
<path d="M52.649 24.3667C52.136 24.3667 51.6872 24.0219 51.5544 23.5266C51.4216 23.0314 51.6379 22.5084 52.0823 22.2516L54.0463 21.1183C54.588 20.8106 55.2765 20.9977 55.588 21.5372C55.8996 22.0768 55.7169 22.7663 55.1796 23.0817L53.2156 24.215C53.0435 24.3147 52.8476 24.3672 52.649 24.3667Z" fill="#25A874"/>
<path d="M49.2266 19.907C48.7684 19.907 48.355 19.6308 48.1796 19.2075C48.0042 18.7842 48.101 18.2966 48.4253 17.9723L50.029 16.3686C50.3134 16.0742 50.7351 15.9558 51.1314 16.0598C51.5276 16.1633 51.8369 16.4727 51.9404 16.8689C52.0444 17.2651 51.926 17.6868 51.6316 17.9712L50.0279 19.5749C49.8154 19.7874 49.5271 19.907 49.2266 19.907Z" fill="#25A874"/>
<path d="M44.7669 16.4854C44.3623 16.4848 43.9882 16.269 43.7863 15.9181C43.5843 15.5678 43.5843 15.1362 43.7863 14.7854L44.9196 12.8214C45.121 12.4678 45.4957 12.2492 45.9024 12.2481C46.3091 12.2475 46.6854 12.4645 46.888 12.817C47.0905 13.1695 47.0883 13.6039 46.883 13.9547L45.7497 15.9187C45.5466 16.2695 45.1719 16.4859 44.7669 16.4854Z" fill="#25A874"/>
<path d="M39.5749 14.3332C39.4753 14.3338 39.3762 14.321 39.2805 14.2945C38.6762 14.1329 38.3176 13.512 38.4792 12.9077L39.0663 10.718C39.1621 10.3173 39.4681 9.99966 39.8654 9.88953C40.2627 9.77941 40.6883 9.89396 40.9772 10.1878C41.266 10.4822 41.3723 10.91 41.2544 11.3051L40.6684 13.4932C40.5361 13.9885 40.0873 14.3327 39.5749 14.3332Z" fill="#25A874"/>
<path d="M25.4998 49.8556C25.0952 49.855 24.7212 49.6386 24.5192 49.2883C24.3172 48.9375 24.3172 48.5059 24.5192 48.1556L41.5192 18.7111C41.8346 18.1737 42.5241 17.9917 43.0637 18.3032C43.6032 18.6148 43.7903 19.3032 43.4826 19.8444L26.4826 49.2889C26.2795 49.6397 25.9048 49.8556 25.4998 49.8556Z" fill="#25A874"/>
<path d="M28.3254 29.4667C25.9292 29.4672 23.9437 27.6095 23.7854 25.2183C23.6277 22.8277 25.3515 20.7243 27.7266 20.41C30.1017 20.0951 32.3136 21.6772 32.7835 24.0269C33.2533 26.3766 31.8195 28.6875 29.5063 29.3101C29.1211 29.4135 28.7238 29.4661 28.3254 29.4667ZM28.3331 22.6667C27.1959 22.6667 26.2341 23.5095 26.0858 24.6373C25.937 25.7651 26.6475 26.8281 27.7465 27.1225C28.845 27.4169 29.9916 26.8519 30.4271 25.801C30.8627 24.7502 30.4515 23.5394 29.4665 22.9705C29.1217 22.7713 28.731 22.6667 28.3331 22.6667Z" fill="#25A874"/>
<path d="M39.6589 47.6C37.2627 47.6006 35.2772 45.7428 35.1189 43.3517C34.9612 40.961 36.685 38.8576 39.0601 38.5433C41.4352 38.2284 43.6471 39.8105 44.117 42.1602C44.5868 44.5099 43.153 46.8208 40.8398 47.4434C40.4546 47.5469 40.0573 47.5994 39.6589 47.6ZM39.6666 40.8C38.5294 40.8 37.5676 41.6428 37.4193 42.7706C37.2705 43.8984 37.981 44.9615 39.08 45.2559C40.1785 45.5503 41.3251 44.9853 41.7606 43.9344C42.1961 42.8835 41.785 41.6727 40.8 41.1038C40.4552 40.9046 40.0645 40.8 39.6666 40.8Z" fill="#25A874"/>
</svg>
