<svg width="68" height="68" viewBox="0 0 68 68" fill="none" xmlns="http://www.w3.org/2000/svg">
<path d="M66.8665 31.7333V52.1333C66.8665 54.6369 64.8367 56.6667 62.3332 56.6667H52.1332L46.4665 64.6V56.6667H26.0665C23.563 56.6667 21.5332 54.6369 21.5332 52.1333V37.4H44.1999C46.7034 37.4 48.7332 35.3702 48.7332 32.8667V27.2H62.3332C64.8367 27.2 66.8665 29.2298 66.8665 31.7333Z" fill="#D3EEE3"/>
<path d="M44.2 3.39999H5.66663C3.16312 3.39999 1.1333 5.42981 1.1333 7.93333V32.8667C1.1333 35.3702 3.16312 37.4 5.66663 37.4H9.06663L14.7333 46.4667V37.4H44.2C46.7035 37.4 48.7333 35.3702 48.7333 32.8667V7.93333C48.7333 5.42981 46.7035 3.39999 44.2 3.39999ZM30.8042 28.4578C30.6387 29.6841 29.5618 30.579 28.3261 30.517C27.0904 30.455 26.1081 29.4567 26.0666 28.2199V24.9333C26.0572 23.6854 25.0478 22.6761 23.8 22.6667C22.5499 22.6705 21.5372 23.6832 21.5333 24.9333V28.2199C21.4918 29.4567 20.5095 30.455 19.2738 30.517C18.0381 30.579 16.9612 29.6841 16.7958 28.4578L16.5241 25.6815C16.2385 23.1625 15.4693 20.7226 14.2574 18.4958C13.6736 17.4034 13.4705 16.1472 13.6791 14.9259C14.0842 12.5641 15.9225 10.7069 18.2805 10.2791C19.7708 10.0157 21.3042 10.3677 22.5305 11.2542C23.2931 11.7865 24.3069 11.7865 25.0694 11.2542C26.2957 10.3677 27.8292 10.0157 29.3194 10.2791C31.6774 10.7069 33.5158 12.5641 33.9208 14.9259C34.1295 16.1472 33.9264 17.4034 33.3425 18.4958C32.1306 20.7226 31.3614 23.1625 31.0759 25.6815L30.9287 27.2L30.8042 28.4578Z" fill="#D3EEE3"/>
<path d="M62.3333 26.0667H49.8667V7.93333C49.8628 4.80504 47.3283 2.27054 44.2 2.26666H5.66667C2.53838 2.27054 0.0038737 4.80504 0 7.93333V32.8667C0.0038737 35.9949 2.53838 38.5295 5.66667 38.5333H8.43857L13.7721 47.0671C14.0405 47.496 14.5596 47.6957 15.046 47.5563C15.5319 47.4168 15.8667 46.9725 15.8667 46.4667V38.5333H20.4V52.1333C20.4039 55.2616 22.9384 57.7961 26.0667 57.8H45.3333V64.6C45.3333 65.0931 45.6515 65.5291 46.1208 65.6796C46.5901 65.8296 47.1031 65.6597 47.3892 65.2585L52.7172 57.8H62.3333C65.4616 57.7961 67.9961 55.2616 68 52.1333V31.7333C67.9961 28.605 65.4616 26.0705 62.3333 26.0667ZM14.7333 36.2667C14.1075 36.2667 13.6 36.7741 13.6 37.4V42.5149L10.0279 36.7996C9.82038 36.4681 9.45736 36.2667 9.06667 36.2667H5.66667C3.78903 36.2667 2.26667 34.7443 2.26667 32.8667V7.93333C2.26667 6.05569 3.78903 4.53333 5.66667 4.53333H44.2C46.0776 4.53333 47.6 6.05569 47.6 7.93333V32.8667C47.6 34.7443 46.0776 36.2667 44.2 36.2667H14.7333ZM65.7333 52.1333C65.7333 54.011 64.211 55.5333 62.3333 55.5333H52.1333C51.767 55.5333 51.4233 55.7104 51.2108 56.0081L47.6 61.0628V56.6667C47.6 56.0408 47.0925 55.5333 46.4667 55.5333H26.0667C24.189 55.5333 22.6667 54.011 22.6667 52.1333V38.5333H44.2C47.3283 38.5295 49.8628 35.9949 49.8667 32.8667V28.3333H62.3333C64.211 28.3333 65.7333 29.8557 65.7333 31.7333V52.1333Z" fill="#25A874"/>
<path d="M28.3335 40.8H60.0668V43.0667H28.3335V40.8Z" fill="#25A874"/>
<path d="M28.3335 47.6H60.0668V49.8667H28.3335V47.6Z" fill="#25A874"/>
<path d="M53.2666 34H60.0666V36.2667H53.2666V34Z" fill="#25A874"/>
<path d="M29.5129 9.16735C27.7261 8.85469 25.8883 9.27305 24.4129 10.3289C24.0477 10.5862 23.5607 10.5862 23.1955 10.3289C21.7213 9.27139 19.8829 8.85303 18.0955 9.16735C15.9583 9.54476 14.1288 10.9199 13.1731 12.8689C12.2169 14.818 12.249 17.1062 13.2589 19.0276C14.4083 21.1177 15.1376 23.4126 15.4038 25.7833L15.6728 28.5591C15.9135 30.3692 17.5011 31.6935 19.3251 31.6049C21.1496 31.5164 22.6017 30.0449 22.6664 28.2199V24.9333C22.6664 24.3074 23.1739 23.8 23.7998 23.8C24.4257 23.8 24.9331 24.3074 24.9331 24.9333V28.2199C24.9663 30.0693 26.4278 31.5761 28.2756 31.6658C30.1228 31.7554 31.7237 30.3974 31.9362 28.5602L32.2046 25.7844C32.4713 23.4137 33.2001 21.1183 34.3501 19.0276C35.3622 17.1062 35.3954 14.8169 34.4392 12.8673C33.4829 10.9177 31.6518 9.54255 29.5129 9.16735ZM32.3463 17.9689C31.0585 20.3192 30.2445 22.8991 29.949 25.5625L29.6795 28.3377C29.5893 28.9752 29.0287 29.439 28.3857 29.4085C27.7432 29.3781 27.2291 28.8629 27.1998 28.2199V24.9333C27.1998 23.0557 25.6774 21.5333 23.7998 21.5333C21.9221 21.5333 20.3998 23.0557 20.3998 24.9333V28.2199C20.3716 28.8634 19.8575 29.3786 19.2144 29.4102C18.5714 29.4412 18.0108 28.9774 17.9201 28.3399L17.6506 25.5647C17.3551 22.9013 16.541 20.3214 15.2533 17.9712C14.5793 16.6917 14.5571 15.1672 15.1935 13.8684C15.8305 12.5701 17.049 11.6537 18.4729 11.4025C19.6638 11.1894 20.8901 11.4667 21.8729 12.1722C23.0256 12.9962 24.574 12.9962 25.7267 12.1722C26.7089 11.4667 27.9358 11.1889 29.1267 11.4025C30.5494 11.6548 31.7658 12.5718 32.4016 13.8695C33.0369 15.1672 33.0148 16.6901 32.3418 17.9689H32.3463Z" fill="#25A874"/>
<path d="M20.8668 13.0206L19.936 15.0869C22.408 16.1268 25.1937 16.1268 27.6657 15.0869L26.7338 13.0206C24.8507 13.7727 22.75 13.7727 20.8668 13.0206Z" fill="#25A874"/>
</svg>
