<svg width="96" height="96" viewBox="0 0 96 96" fill="none" xmlns="http://www.w3.org/2000/svg">
<g clip-path="url(#clip0)">
<mask id="path-1-outside-1" maskUnits="userSpaceOnUse" x="-1" y="-1" width="80" height="98" fill="black">
<rect fill="white" x="-1" y="-1" width="80" height="98"/>
<path d="M70.5443 21.0408C65.5202 21.0408 61.4327 15.6048 61.4327 8.92345C61.4327 8.14533 60.8019 7.51439 60.0236 7.51439C59.2453 7.51439 58.6146 8.14533 58.6146 8.92345C58.6146 15.605 54.5271 21.0408 49.503 21.0408C48.7247 21.0408 48.0939 21.6718 48.0939 22.4499C48.0939 23.228 48.7247 23.859 49.503 23.859C54.5271 23.859 58.6146 29.295 58.6146 35.9763C58.6146 36.7545 59.2453 37.3854 60.0236 37.3854C60.8019 37.3854 61.4327 36.7545 61.4327 35.9763C61.4327 29.2948 65.5202 23.859 70.5443 23.859C71.3226 23.859 71.9533 23.228 71.9533 22.4499C71.9531 21.6718 71.3226 21.0408 70.5443 21.0408ZM60.0236 28.9393C58.8107 26.1088 56.8894 23.8207 54.5597 22.4497C56.8894 21.0789 58.8107 18.7906 60.0236 15.9601C61.2366 18.7906 63.1579 21.0787 65.4876 22.4497C63.1579 23.8207 61.2366 26.109 60.0236 28.9393Z"/>
<path d="M51.0062 37.5729C47.6966 37.5729 44.9004 33.4004 44.9004 28.4613C44.9004 27.6832 44.2697 27.0522 43.4914 27.0522C42.7131 27.0522 42.0823 27.6832 42.0823 28.4613C42.0823 33.4002 39.2863 37.5729 35.9766 37.5729C35.1984 37.5729 34.5675 38.2038 34.5675 38.9819C34.5675 39.76 35.1984 40.391 35.9766 40.391C39.2861 40.391 42.0823 44.5634 42.0823 49.5025C42.0823 50.2807 42.7131 50.9116 43.4914 50.9116C44.2697 50.9116 44.9004 50.2807 44.9004 49.5025C44.9004 44.5636 47.6964 40.391 51.0062 40.391C51.7845 40.391 52.4153 39.76 52.4153 38.9819C52.4153 38.2038 51.7845 37.5729 51.0062 37.5729ZM44.5459 41.2445C44.1491 41.8001 43.7968 42.3999 43.4916 43.0357C43.1863 42.3999 42.834 41.8001 42.4373 41.2445C41.7806 40.3252 41.0331 39.5664 40.2195 38.9819C41.0331 38.3975 41.7806 37.6387 42.4373 36.7194C42.834 36.1638 43.1863 35.564 43.4916 34.9282C43.7968 35.564 44.1491 36.1638 44.5459 36.7194C45.2025 37.6387 45.9501 38.3975 46.7636 38.9819C45.9501 39.5664 45.2025 40.3252 44.5459 41.2445Z"/>
<path d="M73.5501 48.0937C70.2405 48.0937 67.4443 43.9213 67.4443 38.9822C67.4443 38.2041 66.8136 37.5731 66.0353 37.5731C65.257 37.5731 64.6262 38.2041 64.6262 38.9822C64.6262 43.9211 61.8302 48.0937 58.5205 48.0937C57.7421 48.0937 57.1114 48.7247 57.1114 49.5028C57.1114 50.2809 57.7421 50.9119 58.5205 50.9119C61.83 50.9119 64.6262 55.0843 64.6262 60.0234C64.6262 60.8015 65.257 61.4325 66.0353 61.4325C66.8136 61.4325 67.4443 60.8015 67.4443 60.0234C67.4443 55.0845 70.2403 50.9119 73.5501 50.9119C74.3284 50.9119 74.9592 50.2809 74.9592 49.5028C74.9592 48.7247 74.3284 48.0937 73.5501 48.0937ZM67.0898 51.7652C66.693 52.3207 66.3407 52.9205 66.0355 53.5564C65.7302 52.9205 65.3779 52.3207 64.9811 51.7652C64.3245 50.8459 63.577 50.0872 62.7634 49.5026C63.577 48.9182 64.3245 48.1594 64.9811 47.2401C65.3779 46.6845 65.7302 46.0847 66.0355 45.4489C66.3407 46.0847 66.693 46.6845 67.0898 47.2401C67.7464 48.1594 68.494 48.918 69.3075 49.5026C68.4938 50.0872 67.7464 50.846 67.0898 51.7652Z"/>
<path d="M70.1862 63.7933C70.085 63.0218 69.3758 62.4786 68.6058 62.5802C67.8344 62.6818 67.291 63.3895 67.3927 64.1612C68.9967 76.3506 65.2126 88.1316 61.8638 91.9495C61.177 92.7328 60.506 93.1823 60.0235 93.1823C60.0179 93.1823 59.441 93.1573 58.5648 90.9932C57.8313 89.1814 57.1525 86.5309 56.434 83.725C53.8831 73.762 50.3894 60.1174 38.9825 60.1174C27.5755 60.1174 24.0818 73.762 21.5307 83.7248C20.8122 86.5307 20.1335 89.1812 19.4001 90.993C18.524 93.1571 17.947 93.1821 17.9414 93.1821C17.4985 93.1821 16.8837 92.7945 16.2541 92.119C14.5557 90.2961 12.8688 86.592 11.7415 82.2107C10.4656 77.2521 9.95952 71.7446 10.3165 66.702C10.3715 65.9258 9.78665 65.2519 9.0104 65.197C8.23358 65.1413 7.56027 65.7268 7.50533 66.5031C6.66683 78.3476 10.247 89.8056 14.1921 94.0401C15.4041 95.3408 16.6655 96 17.9412 96C21.2963 96 22.5398 91.1443 24.2605 84.4238C25.4975 79.5932 26.8992 74.1182 29.2371 69.8464C31.7821 65.196 34.97 62.9353 38.9823 62.9353C42.9946 62.9353 46.1825 65.196 48.7274 69.8464C51.065 74.1178 52.4669 79.5932 53.7038 84.4238C55.4247 91.1443 56.6682 96 60.0233 96C61.3743 96 62.7065 95.2622 63.9822 93.8074C68.2287 88.9661 71.8077 76.1143 70.1862 63.7933Z"/>
<path d="M71.2703 6.08137C66.8852 2.15962 60.756 0 54.012 0C48.5342 0 43.1529 2.46169 39.0276 6.80606C34.9264 2.51887 29.3976 0 23.9531 0C17.2091 0 11.0799 2.15962 6.69469 6.08137C2.3775 9.942 0 15.2214 0 20.9471C0 34.4186 4.8225 39.8917 8.34394 43.8883C11.2601 47.1977 12.7239 48.8591 10.6468 53.4285C9.73819 55.4278 9.00732 57.6116 8.47444 59.9196C8.304 60.6583 8.76975 61.4177 9.50438 61.6029C10.2593 61.7932 11.0454 61.3112 11.2204 60.5533C11.7109 58.428 12.3812 56.4231 13.2124 54.5946C16.0442 48.3645 13.4558 45.4267 10.4584 42.0251C7.0545 38.1622 2.81794 33.3544 2.81794 20.9471C2.81794 10.4424 11.7066 2.81794 23.9529 2.81794C28.7334 2.81794 33.6159 5.10731 37.2126 8.98987C37.1426 9.09019 37.0719 9.19144 37.0029 9.29062C34.6003 12.7462 33.0129 15.0292 26.9588 15.0292C26.1806 15.0292 25.5497 15.6602 25.5497 16.4383C25.5497 17.2164 26.1806 17.8474 26.9588 17.8474C34.4858 17.8474 36.7245 14.6274 39.3165 10.8994C39.5267 10.5973 39.7429 10.2879 39.9647 9.975C40.017 9.9285 40.0673 9.87937 40.1126 9.82462C43.8156 5.37187 48.8813 2.81794 54.0116 2.81794C66.2582 2.81794 75.1466 10.4422 75.1466 20.9471C75.1466 30.9662 72.3257 35.9649 69.868 39.2006C69.3973 39.8203 69.5181 40.7044 70.138 41.175C70.7573 41.6456 71.6415 41.5249 72.1123 40.9052C74.8371 37.3179 77.9648 31.8073 77.9648 20.9471C77.965 15.2216 75.5875 9.94219 71.2703 6.08137Z"/>
</mask>
<path d="M70.5443 21.0408C65.5202 21.0408 61.4327 15.6048 61.4327 8.92345C61.4327 8.14533 60.8019 7.51439 60.0236 7.51439C59.2453 7.51439 58.6146 8.14533 58.6146 8.92345C58.6146 15.605 54.5271 21.0408 49.503 21.0408C48.7247 21.0408 48.0939 21.6718 48.0939 22.4499C48.0939 23.228 48.7247 23.859 49.503 23.859C54.5271 23.859 58.6146 29.295 58.6146 35.9763C58.6146 36.7545 59.2453 37.3854 60.0236 37.3854C60.8019 37.3854 61.4327 36.7545 61.4327 35.9763C61.4327 29.2948 65.5202 23.859 70.5443 23.859C71.3226 23.859 71.9533 23.228 71.9533 22.4499C71.9531 21.6718 71.3226 21.0408 70.5443 21.0408ZM60.0236 28.9393C58.8107 26.1088 56.8894 23.8207 54.5597 22.4497C56.8894 21.0789 58.8107 18.7906 60.0236 15.9601C61.2366 18.7906 63.1579 21.0787 65.4876 22.4497C63.1579 23.8207 61.2366 26.109 60.0236 28.9393Z" fill="url(#paint0_linear)"/>
<path d="M51.0062 37.5729C47.6966 37.5729 44.9004 33.4004 44.9004 28.4613C44.9004 27.6832 44.2697 27.0522 43.4914 27.0522C42.7131 27.0522 42.0823 27.6832 42.0823 28.4613C42.0823 33.4002 39.2863 37.5729 35.9766 37.5729C35.1984 37.5729 34.5675 38.2038 34.5675 38.9819C34.5675 39.76 35.1984 40.391 35.9766 40.391C39.2861 40.391 42.0823 44.5634 42.0823 49.5025C42.0823 50.2807 42.7131 50.9116 43.4914 50.9116C44.2697 50.9116 44.9004 50.2807 44.9004 49.5025C44.9004 44.5636 47.6964 40.391 51.0062 40.391C51.7845 40.391 52.4153 39.76 52.4153 38.9819C52.4153 38.2038 51.7845 37.5729 51.0062 37.5729ZM44.5459 41.2445C44.1491 41.8001 43.7968 42.3999 43.4916 43.0357C43.1863 42.3999 42.834 41.8001 42.4373 41.2445C41.7806 40.3252 41.0331 39.5664 40.2195 38.9819C41.0331 38.3975 41.7806 37.6387 42.4373 36.7194C42.834 36.1638 43.1863 35.564 43.4916 34.9282C43.7968 35.564 44.1491 36.1638 44.5459 36.7194C45.2025 37.6387 45.9501 38.3975 46.7636 38.9819C45.9501 39.5664 45.2025 40.3252 44.5459 41.2445Z" fill="url(#paint1_linear)"/>
<path d="M73.5501 48.0937C70.2405 48.0937 67.4443 43.9213 67.4443 38.9822C67.4443 38.2041 66.8136 37.5731 66.0353 37.5731C65.257 37.5731 64.6262 38.2041 64.6262 38.9822C64.6262 43.9211 61.8302 48.0937 58.5205 48.0937C57.7421 48.0937 57.1114 48.7247 57.1114 49.5028C57.1114 50.2809 57.7421 50.9119 58.5205 50.9119C61.83 50.9119 64.6262 55.0843 64.6262 60.0234C64.6262 60.8015 65.257 61.4325 66.0353 61.4325C66.8136 61.4325 67.4443 60.8015 67.4443 60.0234C67.4443 55.0845 70.2403 50.9119 73.5501 50.9119C74.3284 50.9119 74.9592 50.2809 74.9592 49.5028C74.9592 48.7247 74.3284 48.0937 73.5501 48.0937ZM67.0898 51.7652C66.693 52.3207 66.3407 52.9205 66.0355 53.5564C65.7302 52.9205 65.3779 52.3207 64.9811 51.7652C64.3245 50.8459 63.577 50.0872 62.7634 49.5026C63.577 48.9182 64.3245 48.1594 64.9811 47.2401C65.3779 46.6845 65.7302 46.0847 66.0355 45.4489C66.3407 46.0847 66.693 46.6845 67.0898 47.2401C67.7464 48.1594 68.494 48.918 69.3075 49.5026C68.4938 50.0872 67.7464 50.846 67.0898 51.7652Z" fill="url(#paint2_linear)"/>
<path d="M70.1862 63.7933C70.085 63.0218 69.3758 62.4786 68.6058 62.5802C67.8344 62.6818 67.291 63.3895 67.3927 64.1612C68.9967 76.3506 65.2126 88.1316 61.8638 91.9495C61.177 92.7328 60.506 93.1823 60.0235 93.1823C60.0179 93.1823 59.441 93.1573 58.5648 90.9932C57.8313 89.1814 57.1525 86.5309 56.434 83.725C53.8831 73.762 50.3894 60.1174 38.9825 60.1174C27.5755 60.1174 24.0818 73.762 21.5307 83.7248C20.8122 86.5307 20.1335 89.1812 19.4001 90.993C18.524 93.1571 17.947 93.1821 17.9414 93.1821C17.4985 93.1821 16.8837 92.7945 16.2541 92.119C14.5557 90.2961 12.8688 86.592 11.7415 82.2107C10.4656 77.2521 9.95952 71.7446 10.3165 66.702C10.3715 65.9258 9.78665 65.2519 9.0104 65.197C8.23358 65.1413 7.56027 65.7268 7.50533 66.5031C6.66683 78.3476 10.247 89.8056 14.1921 94.0401C15.4041 95.3408 16.6655 96 17.9412 96C21.2963 96 22.5398 91.1443 24.2605 84.4238C25.4975 79.5932 26.8992 74.1182 29.2371 69.8464C31.7821 65.196 34.97 62.9353 38.9823 62.9353C42.9946 62.9353 46.1825 65.196 48.7274 69.8464C51.065 74.1178 52.4669 79.5932 53.7038 84.4238C55.4247 91.1443 56.6682 96 60.0233 96C61.3743 96 62.7065 95.2622 63.9822 93.8074C68.2287 88.9661 71.8077 76.1143 70.1862 63.7933Z" fill="url(#paint3_linear)"/>
<path d="M71.2703 6.08137C66.8852 2.15962 60.756 0 54.012 0C48.5342 0 43.1529 2.46169 39.0276 6.80606C34.9264 2.51887 29.3976 0 23.9531 0C17.2091 0 11.0799 2.15962 6.69469 6.08137C2.3775 9.942 0 15.2214 0 20.9471C0 34.4186 4.8225 39.8917 8.34394 43.8883C11.2601 47.1977 12.7239 48.8591 10.6468 53.4285C9.73819 55.4278 9.00732 57.6116 8.47444 59.9196C8.304 60.6583 8.76975 61.4177 9.50438 61.6029C10.2593 61.7932 11.0454 61.3112 11.2204 60.5533C11.7109 58.428 12.3812 56.4231 13.2124 54.5946C16.0442 48.3645 13.4558 45.4267 10.4584 42.0251C7.0545 38.1622 2.81794 33.3544 2.81794 20.9471C2.81794 10.4424 11.7066 2.81794 23.9529 2.81794C28.7334 2.81794 33.6159 5.10731 37.2126 8.98987C37.1426 9.09019 37.0719 9.19144 37.0029 9.29062C34.6003 12.7462 33.0129 15.0292 26.9588 15.0292C26.1806 15.0292 25.5497 15.6602 25.5497 16.4383C25.5497 17.2164 26.1806 17.8474 26.9588 17.8474C34.4858 17.8474 36.7245 14.6274 39.3165 10.8994C39.5267 10.5973 39.7429 10.2879 39.9647 9.975C40.017 9.9285 40.0673 9.87937 40.1126 9.82462C43.8156 5.37187 48.8813 2.81794 54.0116 2.81794C66.2582 2.81794 75.1466 10.4422 75.1466 20.9471C75.1466 30.9662 72.3257 35.9649 69.868 39.2006C69.3973 39.8203 69.5181 40.7044 70.138 41.175C70.7573 41.6456 71.6415 41.5249 72.1123 40.9052C74.8371 37.3179 77.9648 31.8073 77.9648 20.9471C77.965 15.2216 75.5875 9.94219 71.2703 6.08137Z" fill="url(#paint4_linear)"/>
<path d="M70.5443 21.0408C65.5202 21.0408 61.4327 15.6048 61.4327 8.92345C61.4327 8.14533 60.8019 7.51439 60.0236 7.51439C59.2453 7.51439 58.6146 8.14533 58.6146 8.92345C58.6146 15.605 54.5271 21.0408 49.503 21.0408C48.7247 21.0408 48.0939 21.6718 48.0939 22.4499C48.0939 23.228 48.7247 23.859 49.503 23.859C54.5271 23.859 58.6146 29.295 58.6146 35.9763C58.6146 36.7545 59.2453 37.3854 60.0236 37.3854C60.8019 37.3854 61.4327 36.7545 61.4327 35.9763C61.4327 29.2948 65.5202 23.859 70.5443 23.859C71.3226 23.859 71.9533 23.228 71.9533 22.4499C71.9531 21.6718 71.3226 21.0408 70.5443 21.0408ZM60.0236 28.9393C58.8107 26.1088 56.8894 23.8207 54.5597 22.4497C56.8894 21.0789 58.8107 18.7906 60.0236 15.9601C61.2366 18.7906 63.1579 21.0787 65.4876 22.4497C63.1579 23.8207 61.2366 26.109 60.0236 28.9393Z" stroke="url(#paint5_linear)" stroke-width="0.2" mask="url(#path-1-outside-1)"/>
<path d="M51.0062 37.5729C47.6966 37.5729 44.9004 33.4004 44.9004 28.4613C44.9004 27.6832 44.2697 27.0522 43.4914 27.0522C42.7131 27.0522 42.0823 27.6832 42.0823 28.4613C42.0823 33.4002 39.2863 37.5729 35.9766 37.5729C35.1984 37.5729 34.5675 38.2038 34.5675 38.9819C34.5675 39.76 35.1984 40.391 35.9766 40.391C39.2861 40.391 42.0823 44.5634 42.0823 49.5025C42.0823 50.2807 42.7131 50.9116 43.4914 50.9116C44.2697 50.9116 44.9004 50.2807 44.9004 49.5025C44.9004 44.5636 47.6964 40.391 51.0062 40.391C51.7845 40.391 52.4153 39.76 52.4153 38.9819C52.4153 38.2038 51.7845 37.5729 51.0062 37.5729ZM44.5459 41.2445C44.1491 41.8001 43.7968 42.3999 43.4916 43.0357C43.1863 42.3999 42.834 41.8001 42.4373 41.2445C41.7806 40.3252 41.0331 39.5664 40.2195 38.9819C41.0331 38.3975 41.7806 37.6387 42.4373 36.7194C42.834 36.1638 43.1863 35.564 43.4916 34.9282C43.7968 35.564 44.1491 36.1638 44.5459 36.7194C45.2025 37.6387 45.9501 38.3975 46.7636 38.9819C45.9501 39.5664 45.2025 40.3252 44.5459 41.2445Z" stroke="url(#paint6_linear)" stroke-width="0.2" mask="url(#path-1-outside-1)"/>
<path d="M73.5501 48.0937C70.2405 48.0937 67.4443 43.9213 67.4443 38.9822C67.4443 38.2041 66.8136 37.5731 66.0353 37.5731C65.257 37.5731 64.6262 38.2041 64.6262 38.9822C64.6262 43.9211 61.8302 48.0937 58.5205 48.0937C57.7421 48.0937 57.1114 48.7247 57.1114 49.5028C57.1114 50.2809 57.7421 50.9119 58.5205 50.9119C61.83 50.9119 64.6262 55.0843 64.6262 60.0234C64.6262 60.8015 65.257 61.4325 66.0353 61.4325C66.8136 61.4325 67.4443 60.8015 67.4443 60.0234C67.4443 55.0845 70.2403 50.9119 73.5501 50.9119C74.3284 50.9119 74.9592 50.2809 74.9592 49.5028C74.9592 48.7247 74.3284 48.0937 73.5501 48.0937ZM67.0898 51.7652C66.693 52.3207 66.3407 52.9205 66.0355 53.5564C65.7302 52.9205 65.3779 52.3207 64.9811 51.7652C64.3245 50.8459 63.577 50.0872 62.7634 49.5026C63.577 48.9182 64.3245 48.1594 64.9811 47.2401C65.3779 46.6845 65.7302 46.0847 66.0355 45.4489C66.3407 46.0847 66.693 46.6845 67.0898 47.2401C67.7464 48.1594 68.494 48.918 69.3075 49.5026C68.4938 50.0872 67.7464 50.846 67.0898 51.7652Z" stroke="url(#paint7_linear)" stroke-width="0.2" mask="url(#path-1-outside-1)"/>
<path d="M70.1862 63.7933C70.085 63.0218 69.3758 62.4786 68.6058 62.5802C67.8344 62.6818 67.291 63.3895 67.3927 64.1612C68.9967 76.3506 65.2126 88.1316 61.8638 91.9495C61.177 92.7328 60.506 93.1823 60.0235 93.1823C60.0179 93.1823 59.441 93.1573 58.5648 90.9932C57.8313 89.1814 57.1525 86.5309 56.434 83.725C53.8831 73.762 50.3894 60.1174 38.9825 60.1174C27.5755 60.1174 24.0818 73.762 21.5307 83.7248C20.8122 86.5307 20.1335 89.1812 19.4001 90.993C18.524 93.1571 17.947 93.1821 17.9414 93.1821C17.4985 93.1821 16.8837 92.7945 16.2541 92.119C14.5557 90.2961 12.8688 86.592 11.7415 82.2107C10.4656 77.2521 9.95952 71.7446 10.3165 66.702C10.3715 65.9258 9.78665 65.2519 9.0104 65.197C8.23358 65.1413 7.56027 65.7268 7.50533 66.5031C6.66683 78.3476 10.247 89.8056 14.1921 94.0401C15.4041 95.3408 16.6655 96 17.9412 96C21.2963 96 22.5398 91.1443 24.2605 84.4238C25.4975 79.5932 26.8992 74.1182 29.2371 69.8464C31.7821 65.196 34.97 62.9353 38.9823 62.9353C42.9946 62.9353 46.1825 65.196 48.7274 69.8464C51.065 74.1178 52.4669 79.5932 53.7038 84.4238C55.4247 91.1443 56.6682 96 60.0233 96C61.3743 96 62.7065 95.2622 63.9822 93.8074C68.2287 88.9661 71.8077 76.1143 70.1862 63.7933Z" stroke="url(#paint8_linear)" stroke-width="0.2" mask="url(#path-1-outside-1)"/>
<path d="M71.2703 6.08137C66.8852 2.15962 60.756 0 54.012 0C48.5342 0 43.1529 2.46169 39.0276 6.80606C34.9264 2.51887 29.3976 0 23.9531 0C17.2091 0 11.0799 2.15962 6.69469 6.08137C2.3775 9.942 0 15.2214 0 20.9471C0 34.4186 4.8225 39.8917 8.34394 43.8883C11.2601 47.1977 12.7239 48.8591 10.6468 53.4285C9.73819 55.4278 9.00732 57.6116 8.47444 59.9196C8.304 60.6583 8.76975 61.4177 9.50438 61.6029C10.2593 61.7932 11.0454 61.3112 11.2204 60.5533C11.7109 58.428 12.3812 56.4231 13.2124 54.5946C16.0442 48.3645 13.4558 45.4267 10.4584 42.0251C7.0545 38.1622 2.81794 33.3544 2.81794 20.9471C2.81794 10.4424 11.7066 2.81794 23.9529 2.81794C28.7334 2.81794 33.6159 5.10731 37.2126 8.98987C37.1426 9.09019 37.0719 9.19144 37.0029 9.29062C34.6003 12.7462 33.0129 15.0292 26.9588 15.0292C26.1806 15.0292 25.5497 15.6602 25.5497 16.4383C25.5497 17.2164 26.1806 17.8474 26.9588 17.8474C34.4858 17.8474 36.7245 14.6274 39.3165 10.8994C39.5267 10.5973 39.7429 10.2879 39.9647 9.975C40.017 9.9285 40.0673 9.87937 40.1126 9.82462C43.8156 5.37187 48.8813 2.81794 54.0116 2.81794C66.2582 2.81794 75.1466 10.4422 75.1466 20.9471C75.1466 30.9662 72.3257 35.9649 69.868 39.2006C69.3973 39.8203 69.5181 40.7044 70.138 41.175C70.7573 41.6456 71.6415 41.5249 72.1123 40.9052C74.8371 37.3179 77.9648 31.8073 77.9648 20.9471C77.965 15.2216 75.5875 9.94219 71.2703 6.08137Z" stroke="url(#paint9_linear)" stroke-width="0.2" mask="url(#path-1-outside-1)"/>
</g>
<defs>
<linearGradient id="paint0_linear" x1="0" y1="0" x2="78.0409" y2="0.0618941" gradientUnits="userSpaceOnUse">
<stop stop-color="#0DC180"/>
<stop offset="1" stop-color="#04B474"/>
</linearGradient>
<linearGradient id="paint1_linear" x1="0" y1="0" x2="78.0409" y2="0.0618941" gradientUnits="userSpaceOnUse">
<stop stop-color="#0DC180"/>
<stop offset="1" stop-color="#04B474"/>
</linearGradient>
<linearGradient id="paint2_linear" x1="0" y1="0" x2="78.0409" y2="0.0618941" gradientUnits="userSpaceOnUse">
<stop stop-color="#0DC180"/>
<stop offset="1" stop-color="#04B474"/>
</linearGradient>
<linearGradient id="paint3_linear" x1="0" y1="0" x2="78.0409" y2="0.0618941" gradientUnits="userSpaceOnUse">
<stop stop-color="#0DC180"/>
<stop offset="1" stop-color="#04B474"/>
</linearGradient>
<linearGradient id="paint4_linear" x1="0" y1="0" x2="78.0409" y2="0.0618941" gradientUnits="userSpaceOnUse">
<stop stop-color="#0DC180"/>
<stop offset="1" stop-color="#04B474"/>
</linearGradient>
<linearGradient id="paint5_linear" x1="0" y1="0" x2="78.0409" y2="0.0618941" gradientUnits="userSpaceOnUse">
<stop stop-color="#0DC180"/>
<stop offset="1" stop-color="#04B474"/>
</linearGradient>
<linearGradient id="paint6_linear" x1="0" y1="0" x2="78.0409" y2="0.0618941" gradientUnits="userSpaceOnUse">
<stop stop-color="#0DC180"/>
<stop offset="1" stop-color="#04B474"/>
</linearGradient>
<linearGradient id="paint7_linear" x1="0" y1="0" x2="78.0409" y2="0.0618941" gradientUnits="userSpaceOnUse">
<stop stop-color="#0DC180"/>
<stop offset="1" stop-color="#04B474"/>
</linearGradient>
<linearGradient id="paint8_linear" x1="0" y1="0" x2="78.0409" y2="0.0618941" gradientUnits="userSpaceOnUse">
<stop stop-color="#0DC180"/>
<stop offset="1" stop-color="#04B474"/>
</linearGradient>
<linearGradient id="paint9_linear" x1="0" y1="0" x2="78.0409" y2="0.0618941" gradientUnits="userSpaceOnUse">
<stop stop-color="#0DC180"/>
<stop offset="1" stop-color="#04B474"/>
</linearGradient>
<clipPath id="clip0">
<rect width="96" height="96" fill="white"/>
</clipPath>
</defs>
</svg>
