<svg width="13" height="9" viewBox="0 0 13 9" fill="none" xmlns="http://www.w3.org/2000/svg">
<mask id="path-1-outside-1" maskUnits="userSpaceOnUse" x="6" y="-0.5" width="7" height="10" fill="black">
<rect fill="white" x="6" y="-0.5" width="7" height="10"/>
<path fill-rule="evenodd" clip-rule="evenodd" d="M12 4.5L7.61987 0.5L6.99998 1.0661L10.7602 4.5L6.99998 7.9339L7.61987 8.5L12 4.5Z"/>
</mask>
<path fill-rule="evenodd" clip-rule="evenodd" d="M12 4.5L7.61987 0.5L6.99998 1.0661L10.7602 4.5L6.99998 7.9339L7.61987 8.5L12 4.5Z" fill="#0DC180"/>
<path d="M7.61987 0.5L7.82217 0.278473L7.61987 0.0937284L7.41757 0.278473L7.61987 0.5ZM12 4.5L12.2023 4.72153L12.4449 4.5L12.2023 4.27847L12 4.5ZM6.99998 1.0661L6.79768 0.844571L6.5551 1.0661L6.79768 1.28762L6.99998 1.0661ZM10.7602 4.5L10.9625 4.72153L11.2051 4.5L10.9625 4.27847L10.7602 4.5ZM6.99998 7.9339L6.79768 7.71238L6.5551 7.9339L6.79768 8.15543L6.99998 7.9339ZM7.61987 8.5L7.41757 8.72153L7.61987 8.90627L7.82217 8.72153L7.61987 8.5ZM7.41757 0.721527L11.7977 4.72153L12.2023 4.27847L7.82217 0.278473L7.41757 0.721527ZM7.20228 1.28762L7.82217 0.721527L7.41757 0.278473L6.79768 0.844571L7.20228 1.28762ZM6.79768 1.28762L10.5579 4.72153L10.9625 4.27847L7.20228 0.844571L6.79768 1.28762ZM10.5579 4.27847L6.79768 7.71238L7.20228 8.15543L10.9625 4.72153L10.5579 4.27847ZM7.82217 8.27847L7.20228 7.71238L6.79768 8.15543L7.41757 8.72153L7.82217 8.27847ZM11.7977 4.27847L7.41757 8.27847L7.82217 8.72153L12.2023 4.72153L11.7977 4.27847Z" fill="#0DC180" mask="url(#path-1-outside-1)"/>
<rect x="0.85" y="3.85" width="10.3" height="1.3" fill="#0DC180" stroke="#0DC180" stroke-width="0.3"/>
</svg>
