<svg width="142" height="50" viewBox="0 0 142 50" fill="none" xmlns="http://www.w3.org/2000/svg">
<path fill-rule="evenodd" clip-rule="evenodd" d="M27.0754 30.2873C29.6066 28.9246 31.8999 27.0007 33.8535 24.642C34.0193 24.9071 34.1693 25.1517 34.306 25.3882C34.6256 25.9522 34.8759 26.5091 35.0513 27.1347C35.0513 27.1347 35.272 28.1556 35.2911 28.2829C35.4569 27.539 35.6915 26.3437 35.6222 25.4216C35.4263 22.812 34.1579 21.0531 31.596 20.4185C30.5865 20.1681 30.1412 21.3821 30.7752 21.8346C31.2019 22.1397 31.952 22.7667 32.3963 23.1443C36.4392 26.604 26.5751 29.3681 24.3683 31.4946C25.2966 31.1628 26.2001 30.7579 27.0754 30.2869C34.2859 23.7141 34.6094 23.419 27.0754 30.2869V30.2873ZM30.0313 3.8176C30.1011 3.81187 30.1441 3.82236 30.1622 3.82332C30.1704 3.82427 30.1737 3.82475 30.1732 3.82522C27.6324 5.35624 24.0964 3.85002 20.8935 2.48064C11.4718 -1.54787 4.23259 -0.799293 1.16768 5.67951C-5.34818 24.4656 19.4334 38.9695 32.3958 23.1443C36.4387 26.604 26.5747 29.3681 24.3678 31.4946C14.7933 34.9209 3.89432 30.9992 0 21.2667L0.00191109 21.2886C0.773513 29.3519 2.24553 36.574 4.42322 41.9757C7.01656 48.4063 11.6533 51.7011 13.2252 49.1135C16.1501 44.2968 19.6541 30.0251 26.7428 39.8587C29.9644 44.3287 31.931 50.1724 34.8769 47.7407C40.206 43.3422 44.9584 11.661 41.3608 5.11307C37.3217 -2.24019 28.674 4.21334 23.8681 2.22269C23.7998 2.19408 26.4514 4.09319 30.0313 3.81664V3.8176ZM32.3958 23.1448L32.4011 23.1391C34.1817 21.2467 33.9505 21.4927 32.3958 23.1448Z" fill="url(#paint0_linear)"/>
<path d="M65.1493 19.1419V26.3388H62.3242L61.8784 22.2331H52.8079L52.3622 26.3388H49.5371V19.1419H50.8008C51.1477 18.7462 51.4329 18.2394 51.656 17.6209C51.8792 17.003 52.0856 16.1576 52.2757 15.0863C52.4654 14.0144 52.6923 12.481 52.957 10.4861L53.6259 5.09436H63.6381V19.1424H65.1498L65.1493 19.1419ZM59.6974 8.08678H57.0458L56.8475 10.1394C56.6492 12.0519 56.4304 13.5772 56.1906 14.7148C55.9512 15.8525 55.6621 16.7636 55.3234 17.4479C54.9847 18.1321 54.5427 18.6971 53.9976 19.1419H59.6979V8.08678H59.6974ZM74.0215 4.67334C76.4667 4.67334 78.3707 5.45673 79.7338 7.02303C81.0968 8.5898 81.7781 10.7993 81.7781 13.6515C81.7781 15.5149 81.4685 17.1222 80.8489 18.4744C80.2297 19.8262 79.3372 20.8613 78.1724 21.5779C77.0081 22.2955 75.624 22.6541 74.0215 22.6541C72.4191 22.6541 71.0397 22.2998 69.883 21.5908C68.7268 20.8818 67.8387 19.8552 67.219 18.5116C66.5993 17.1675 66.2897 15.5478 66.2897 13.652C66.2897 11.8054 66.5993 10.2057 67.219 8.85395C67.8387 7.50221 68.7268 6.46707 69.883 5.75044C71.0393 5.03333 72.4191 4.67429 74.0215 4.67429V4.67334ZM74.0215 7.64144C72.8486 7.64144 71.9771 8.11538 71.4071 9.06375C70.8372 10.0116 70.5519 11.5407 70.5519 13.6515C70.5519 15.7619 70.841 17.2953 71.4191 18.2513C71.9972 19.2077 72.8648 19.686 74.021 19.686C75.2107 19.686 76.0903 19.212 76.6607 18.2641C77.2307 17.3158 77.5155 15.7786 77.5155 13.6515C77.5155 11.5245 77.2264 9.99113 76.6483 9.05135C76.0702 8.11157 75.1949 7.64144 74.0215 7.64144ZM97.7138 5.09388L93.4759 12.8601L98.1844 22.2331H93.7478L90.0551 14.7887H88.2711V22.2331H84.2067V5.09388H88.2711V11.8211H90.1544L93.7229 5.09388H97.7128H97.7138ZM111.394 5.09388L110.997 8.21027H106.759V22.2331H102.695V8.21027H98.2584V5.09388H111.393H111.394ZM119.101 4.67334C121.546 4.67334 123.45 5.45673 124.813 7.02303C126.176 8.5898 126.857 10.7993 126.857 13.6515C126.857 15.5149 126.548 17.1222 125.928 18.4744C125.309 19.8262 124.416 20.8613 123.252 21.5779C122.087 22.2955 120.703 22.6541 119.101 22.6541C117.498 22.6541 116.119 22.2998 114.962 21.5908C113.806 20.8818 112.918 19.8552 112.298 18.5116C111.679 17.1675 111.369 15.5478 111.369 13.652C111.369 11.8054 111.679 10.2057 112.298 8.85395C112.918 7.50221 113.806 6.46707 114.962 5.75044C116.118 5.03333 117.498 4.67429 119.101 4.67429V4.67334ZM119.101 7.64144C117.928 7.64144 117.056 8.11538 116.486 9.06375C115.916 10.0116 115.631 11.5407 115.631 13.6515C115.631 15.7619 115.92 17.2953 116.498 18.2513C117.076 19.2077 117.944 19.686 119.1 19.686C120.29 19.686 121.17 19.212 121.74 18.2641C122.31 17.3158 122.595 15.7786 122.595 13.6515C122.595 11.5245 122.306 9.99113 121.728 9.05135C121.149 8.11157 120.274 7.64144 119.101 7.64144ZM134.838 5.09388C137.101 5.09388 138.86 5.56401 140.116 6.50379C141.372 7.44357 142 8.83679 142 10.6834C142 12.6126 141.384 14.0678 140.153 15.0491C138.923 16.0298 137.274 16.5205 135.209 16.5205H133.351V22.2335H129.286V5.09436H134.838V5.09388ZM134.862 13.6015C135.82 13.6015 136.551 13.375 137.055 12.9216C137.559 12.4681 137.812 11.7224 137.812 10.6834C137.812 8.8859 136.804 7.9876 134.788 7.9876H133.351V13.6015H134.862H134.862ZM58.4829 30.1971C59.5569 30.1971 60.5111 30.3535 61.3453 30.6672C62.1794 30.98 62.9682 31.4506 63.7117 32.0771L61.7786 34.3772C61.2664 33.981 60.7624 33.6844 60.2669 33.4866C59.771 33.2887 59.2426 33.1895 58.6807 33.1895C57.5245 33.1895 56.6115 33.6759 55.9421 34.649C55.2732 35.6217 54.9388 37.1222 54.9388 39.15C54.9388 41.145 55.2732 42.6245 55.9421 43.5891C56.611 44.5537 57.5408 45.0357 58.7299 45.0357C59.3582 45.0357 59.9277 44.9165 60.4399 44.6772C60.952 44.4378 61.5053 44.0959 62.1001 43.6511L63.9095 45.9755C63.2649 46.6187 62.4843 47.146 61.5674 47.5585C60.6501 47.9704 59.6382 48.1764 58.5312 48.1764C56.9454 48.1764 55.5656 47.8303 54.3927 47.1379C53.2193 46.4451 52.3068 45.4191 51.6541 44.0587C51.0015 42.6984 50.6752 41.062 50.6752 39.1496C50.6752 37.2862 51.0096 35.6789 51.6785 34.3267C52.3474 32.975 53.2728 31.9484 54.4543 31.248C55.6359 30.5471 56.9779 30.1966 58.4815 30.1966L58.4829 30.1971ZM82.77 47.7568H78.7801L78.4825 41.0539C78.3998 39.4547 78.3587 38.0286 78.3587 36.7756C78.3587 35.8191 78.3836 34.9122 78.4333 34.0554L75.7816 45.9512H71.9399L69.1148 34.0554C69.2142 35.4896 69.2634 36.8414 69.2634 38.1111C69.2634 39.0676 69.2385 40.065 69.1888 41.104L68.8917 47.7568H64.9266L66.2152 30.6172H71.345L73.9226 42.2416L76.3263 30.6172H81.4814L82.77 47.7568ZM94.2442 47.7568L93.3517 44.0716H88.3456L87.4784 47.7568H83.2654L88.4445 30.6172H93.3761L98.5556 47.7568H94.2437H94.2442ZM89.0398 41.1283H92.658L90.8491 33.5605L89.0403 41.1283H89.0398ZM113.054 47.7568H109.064V41.351C109.064 38.9932 109.253 36.7427 109.634 34.599L104.702 47.7568H99.8203V30.6172H103.81V37.1465C103.81 38.5154 103.76 39.6531 103.662 40.56C103.562 41.4668 103.414 42.522 103.215 43.7255L108.246 30.6176H113.054V47.7573V47.7568ZM106.412 29.2073C105.14 29.2073 104.136 28.8616 103.401 28.1688C102.666 27.476 102.249 26.5529 102.149 25.3986L104.306 25.0028C104.454 25.5306 104.698 25.9097 105.037 26.1405C105.375 26.3712 105.834 26.4866 106.412 26.4866C106.99 26.4866 107.449 26.3712 107.788 26.1405C108.126 25.9097 108.378 25.5306 108.543 25.0028L110.7 25.3986C110.601 26.5524 110.179 27.476 109.436 28.1688C108.692 28.8616 107.685 29.2073 106.413 29.2073H106.412ZM129.286 30.6172V47.7568H125.222V33.684H121.653L121.009 39.4957C120.778 41.4583 120.484 43.0079 120.129 44.1455C119.774 45.2832 119.249 46.1738 118.556 46.817C117.861 47.4598 116.895 47.9132 115.656 48.1769L114.689 45.3328C115.284 45.102 115.731 44.7801 116.028 44.3682C116.325 43.9562 116.549 43.3998 116.697 42.6984C116.845 41.998 117.01 40.8642 117.193 39.2979L118.234 30.6167H129.286L129.286 30.6172Z" fill="#25A874"/>
<defs>
<linearGradient id="paint0_linear" x1="24.374" y1="49.759" x2="18.2673" y2="0.237122" gradientUnits="userSpaceOnUse">
<stop stop-color="#25A874"/>
<stop offset="1" stop-color="#33BD86"/>
</linearGradient>
</defs>
</svg>
