<svg width="14" height="14" viewBox="0 0 14 14" fill="none" xmlns="http://www.w3.org/2000/svg">
<path d="M0.98 7C0.98 10.3194 3.68065 13.02 7 13.02C10.3194 13.02 13.02 10.3194 13.02 7C13.02 3.68065 10.3194 0.98 7 0.98C3.68065 0.98 0.98 3.68065 0.98 7ZM1.94308 7C1.94308 4.21227 4.21136 1.94308 7 1.94308C9.78864 1.94308 12.0569 4.21227 12.0569 7C12.0569 9.78773 9.78864 12.0569 7 12.0569C4.21136 12.0569 1.94308 9.78773 1.94308 7ZM6.51844 9.76891C6.51844 10.0347 6.73416 10.2504 6.99998 10.2504C7.26579 10.2504 7.48151 10.0347 7.48151 9.76891V6.07661C7.48151 5.8108 7.26579 5.59508 6.99998 5.59508C6.73416 5.59508 6.51844 5.8108 6.51844 6.07661V9.76891ZM6.99998 4.71228C7.26592 4.71228 7.48151 4.49669 7.48151 4.23075C7.48151 3.9648 7.26592 3.74921 6.99998 3.74921C6.73403 3.74921 6.51844 3.9648 6.51844 4.23075C6.51844 4.49669 6.73403 4.71228 6.99998 4.71228Z" fill="#92949D" stroke="#92949D" stroke-width="0.04"/>
</svg>
