<svg width="61" height="60" viewBox="0 0 61 60" fill="none" xmlns="http://www.w3.org/2000/svg">
<path d="M18.5 16H42.5V19H18.5V16Z" fill="#D3EEE3"/>
<path d="M42.5 15V16H18.5V14C18.5049 11.793 20.293 10.0049 22.5 10H25.5V5C25.5 2.79102 27.291 1 29.5 1H31.5C33.709 1 35.5 2.79102 35.5 5V10H38.5C40.707 10.0049 42.4951 11.793 42.5 14V15ZM32.5 7C32.5 5.89551 31.6045 5 30.5 5C29.3955 5 28.5 5.89551 28.5 7C28.5 8.10449 29.3955 9 30.5 9C31.603 8.99658 32.4966 8.10303 32.5 7Z" fill="#D3EEE3"/>
<path d="M39.4303 30.1699C39.6144 31.2476 39.4352 32.356 38.92 33.3198C37.8507 35.2847 37.172 37.4375 36.92 39.6602L36.6803 42.1099C36.5343 43.1919 35.5841 43.9815 34.4937 43.9268C33.4034 43.8721 32.5367 42.9912 32.5001 41.8999V39C32.4918 37.8989 31.6012 37.0083 30.5001 37C29.3971 37.0034 28.5035 37.897 28.5001 39V41.8999C28.4635 42.9912 27.5968 43.8721 26.5064 43.9268C25.4161 43.9815 24.4659 43.1919 24.3199 42.1099L24.0802 39.6602C23.8282 37.4375 23.1495 35.2847 22.0802 33.3198C21.565 32.356 21.3858 31.2476 21.5699 30.1699C21.9273 28.086 23.5494 26.4473 25.63 26.0698C26.9449 25.8374 28.2979 26.148 29.38 26.9302C30.0528 27.3999 30.9474 27.3999 31.6202 26.9302C32.7022 26.148 34.0553 25.8374 35.3702 26.0698C37.4508 26.4473 39.0729 28.086 39.4303 30.1699Z" fill="#D3EEE3"/>
<path d="M21.5 50V55H20.5C17.1865 55 14.5 52.3135 14.5 49V48H19.5C20.603 48.0034 21.4966 48.897 21.5 50Z" fill="#D3EEE3"/>
<path d="M46.5 10H41.4692C40.6138 9.354 39.5718 9.00342 38.5 9H36.5V5C36.4966 2.23975 34.2603 0.00341798 31.5 0H29.5C26.7397 0.00341798 24.5034 2.23975 24.5 5V9H22.5C21.4282 9.00342 20.3862 9.354 19.5308 10H14.5C11.7397 10.0034 9.50342 12.2397 9.5 15V55C9.50342 57.7603 11.7397 59.9966 14.5 60H46.5C49.2603 59.9966 51.4966 57.7603 51.5 55V15C51.4966 12.2397 49.2603 10.0034 46.5 10ZM20.5 54C17.7397 53.9966 15.5034 51.7603 15.5 49H19.5C20.0522 49 20.5 49.4478 20.5 50V54ZM19.5 47H15.5V16H17.5V19C17.5 19.5522 17.9478 20 18.5 20H42.5C43.0522 20 43.5 19.5522 43.5 19V16H45.5V54H22.5V50C22.5 48.3433 21.1567 47 19.5 47ZM19.5 17H41.5V18H19.5V17ZM22.5 11H25.5C26.0522 11 26.5 10.5522 26.5 10V5C26.5 3.34326 27.8433 2 29.5 2H31.5C33.1567 2 34.5 3.34326 34.5 5V10C34.5 10.5522 34.9478 11 35.5 11H38.5C40.1567 11 41.5 12.3433 41.5 14V15H19.5V14C19.5 12.3433 20.8433 11 22.5 11ZM49.5 55C49.5 56.6567 48.1567 58 46.5 58H14.5C12.8433 58 11.5 56.6567 11.5 55V15C11.5 13.3433 12.8433 12 14.5 12H17.9238C17.645 12.6299 17.5005 13.311 17.5 14H15.5C14.3955 14 13.5 14.8955 13.5 16V49C13.5044 52.8643 16.6357 55.9956 20.5 56H45.5C46.6045 56 47.5 55.1045 47.5 54V16C47.5 14.8955 46.6045 14 45.5 14H43.5C43.4995 13.311 43.355 12.6299 43.0762 12H46.5C48.1567 12 49.5 13.3433 49.5 15V55Z" fill="#25A874"/>
<path d="M30.5 10C32.1567 10 33.5 8.65674 33.5 7C33.5 5.34326 32.1567 4 30.5 4C28.8433 4 27.5 5.34326 27.5 7C27.5 8.65674 28.8433 10 30.5 10ZM30.5 6C31.0522 6 31.5 6.44775 31.5 7C31.5 7.55225 31.0522 8 30.5 8C29.9478 8 29.5 7.55225 29.5 7C29.5 6.44775 29.9478 6 30.5 6Z" fill="#25A874"/>
<path d="M23.3211 42.2001C23.5086 43.8212 24.9212 45.0195 26.551 44.9404C28.1814 44.8613 29.471 43.5317 29.5003 41.8998V38.9999C29.5003 38.4477 29.948 37.9999 30.5003 37.9999C31.0525 37.9999 31.5003 38.4477 31.5003 38.9999V41.8998C31.5296 43.5317 32.8191 44.8613 34.4495 44.9404C36.0794 45.0195 37.492 43.8212 37.6795 42.2001L37.9163 39.7499C38.1521 37.6586 38.7952 35.6332 39.8093 33.789C41.1077 31.3349 40.5491 28.31 38.4602 26.4814C36.3709 24.6528 33.2986 24.4999 31.0383 26.1117C30.7156 26.3378 30.2859 26.3378 29.9632 26.1117C28.6619 25.1791 27.0403 24.8095 25.4632 25.0868C23.5769 25.4198 21.9627 26.6332 21.1189 28.3525C20.2752 30.0722 20.303 32.0912 21.1941 33.787C22.2088 35.6313 22.8518 37.6562 23.0872 39.748L23.3211 42.2001ZM22.5554 30.3261C22.8411 28.6625 24.1389 27.3573 25.8001 27.061C26.8509 26.8735 27.9329 27.1186 28.8001 27.7402C29.8181 28.4692 31.1873 28.4692 32.2053 27.7402C33.0725 27.1176 34.1546 26.8725 35.2053 27.061C36.4607 27.2836 37.5344 28.0927 38.095 29.2377C38.6555 30.3827 38.636 31.7265 38.0422 32.8549C36.906 34.9301 36.1873 37.2084 35.927 39.56L35.6892 42.0087C35.6116 42.5742 35.1145 42.9863 34.5447 42.9579C33.9749 42.9296 33.5213 42.4702 33.5003 41.8998V38.9999C33.5003 37.3432 32.157 35.9999 30.5003 35.9999C28.8435 35.9999 27.5003 37.3432 27.5003 38.9999V41.8998C27.4754 42.4677 27.0217 42.9223 26.4544 42.9501C25.887 42.9775 25.3924 42.5683 25.3123 42.0058L25.0745 39.5571C24.8142 37.205 24.0955 34.9272 22.9593 32.852C22.5515 32.0776 22.4099 31.1908 22.5554 30.3281V30.3261Z" fill="#25A874"/>
<path d="M33.9102 30.312L33.0898 28.4888C31.4292 29.1572 29.5737 29.1572 27.9131 28.4888L27.0908 30.312C29.2715 31.2295 31.7295 31.2295 33.9102 30.312Z" fill="#25A874"/>
</svg>
