<svg width="61" height="60" viewBox="0 0 61 60" fill="none" xmlns="http://www.w3.org/2000/svg">
<path d="M46.6662 21.6257C46.9881 24.1033 46.3763 26.6123 44.9494 28.6639C43.137 31.2878 41.9172 34.2751 41.3749 37.4183C40.87 40.3361 40.3045 43.5778 39.9717 45.4962C39.7982 46.4591 38.961 47.1607 37.9823 47.1622H36.407C35.3919 47.1627 34.533 46.4118 34.3979 45.405L33.2871 36.802C33.1554 35.7981 32.3005 35.0467 31.2878 35.0453H29.8945C28.8818 35.0467 28.0269 35.7981 27.8952 36.802L26.7844 45.405C26.6493 46.4118 25.7904 47.1627 24.7748 47.1622H23.1995C22.2213 47.1607 21.3836 46.4591 21.2106 45.4962C20.8773 43.5778 20.3118 40.3361 19.8069 37.4183C19.2651 34.2751 18.0453 31.2878 16.2324 28.6639C14.1902 25.7219 13.8623 21.9176 15.371 18.67C16.8797 15.4218 19.9982 13.2184 23.5634 12.8812C25.3447 12.7047 27.1414 13.0114 28.7635 13.7701C29.9206 14.3154 31.2612 14.3154 32.4188 13.7701C34.0404 13.0114 35.8371 12.7047 37.6189 12.8812C42.2969 13.3461 46.042 16.966 46.6662 21.6257Z" fill="#D3EEE3"/>
<path d="M32.9229 2.83941L34.3364 1.42587L32.9066 0L29.8774 3.02923C29.4829 3.42366 29.4829 4.06264 29.8774 4.45707L32.9066 7.4863L34.3344 6.05846L33.159 4.88306C45.9785 6.18715 55.7585 16.9374 55.8472 29.8229C55.9359 42.7085 46.3059 53.5924 33.5051 55.0734L33.7354 57.0796C47.6302 55.4575 58.0422 43.5822 57.8337 29.5947C57.6256 15.6072 46.8645 4.04736 32.9278 2.83941H32.9229Z" fill="#25A874"/>
<path d="M28.3061 52.4766L26.8782 53.9039L28.0901 55.1158C15.2568 53.8447 5.44531 43.1054 5.33537 30.2099C5.22591 17.3145 14.8535 6.40945 27.6631 4.92047L27.4304 2.91528C13.5292 4.53492 3.11275 16.4177 3.32672 30.4116C3.54021 44.405 14.3156 55.9643 28.2597 57.1585L26.8462 58.572L28.274 59.9998L31.3333 56.9405C31.7277 56.5461 31.7277 55.9071 31.3333 55.5127L28.3061 52.4766Z" fill="#25A874"/>
<path d="M36.4052 48.1719H37.9804C39.4527 48.1754 40.7129 47.1173 40.9643 45.6668L42.3719 37.5889C42.8936 34.5912 44.0572 31.7419 45.7838 29.2363C47.3442 26.9786 48.0153 24.224 47.6677 21.5015C47.217 17.9925 45.1201 14.9086 42.0224 13.1992C38.9246 11.4898 35.1977 11.3597 31.9885 12.8491C31.104 13.2702 30.077 13.2702 29.1925 12.8491C24.6487 10.7409 19.2563 11.9375 16.0308 15.7699C12.8054 19.6023 12.5465 25.1199 15.3998 29.2373C17.1254 31.7429 18.289 34.5922 18.8106 37.5898L20.2182 45.6678C20.4697 47.1178 21.7299 48.1754 23.2016 48.1719H24.7778C26.2989 48.168 27.5823 47.0399 27.7819 45.5322L28.8928 36.9356C28.9578 36.4307 29.3883 36.0535 29.8976 36.055H31.285C31.7923 36.055 32.2213 36.4312 32.2863 36.9346L33.3972 45.5322C33.5968 47.0414 34.8827 48.17 36.4052 48.1719ZM31.285 34.0355H29.8976C28.3765 34.039 27.0927 35.167 26.8935 36.6748L25.7827 45.2719C25.7176 45.7753 25.2896 46.152 24.7823 46.1524H23.2016C22.712 46.1524 22.2929 45.8014 22.2071 45.3192L20.7966 37.2467C20.2266 33.9601 18.9521 30.8362 17.0608 28.089C14.7302 24.7215 14.9427 20.2107 17.5795 17.0769C20.2158 13.9437 24.624 12.9625 28.3405 14.6827C29.7669 15.3493 31.4151 15.3493 32.842 14.6827C36.5585 12.9625 40.9663 13.9437 43.6031 17.0769C46.2393 20.2107 46.4518 24.7215 44.1217 28.089C42.2309 30.8367 40.9564 33.9606 40.3855 37.2467L38.9719 45.3192C38.8862 45.8014 38.4671 46.1524 37.9775 46.1524H36.4022C35.8949 46.1524 35.4659 45.7763 35.4004 45.2729L34.2901 36.6748C34.0909 35.1665 32.8065 34.038 31.285 34.0355Z" fill="#25A874"/>
<path d="M35.0449 16.5577C32.3372 18.3204 28.8445 18.3204 26.1362 16.5577L24.9465 18.1897C26.6026 19.3365 28.5773 19.9341 30.5913 19.8991C32.6049 19.9341 34.579 19.3365 36.2346 18.1897L35.0449 16.5577Z" fill="#25A874"/>
</svg>
