<svg width="61" height="44" viewBox="0 0 61 44" fill="none" xmlns="http://www.w3.org/2000/svg">
<path d="M36.0889 6.30615L34.9111 4.69043C32.229 6.43554 28.77 6.43554 26.0879 4.69043L24.9102 6.30615C26.5503 7.44189 28.5054 8.03417 30.5 7.99902C32.4941 8.03417 34.4492 7.44189 36.0889 6.30615Z" fill="#25A874"/>
<path d="M59.5 25.999H53.46C51.9741 26.0005 50.5649 25.3408 49.6138 24.1992L49.0679 23.5322C47.7393 21.9267 45.7637 20.998 43.6802 20.999H43.5C44.0503 19.6816 44.7368 18.4253 45.5479 17.25C47.0933 15.0146 47.7578 12.2861 47.4141 9.5903C46.9673 6.11472 44.8906 3.061 41.8232 1.36813C38.7554 -0.324738 35.0645 -0.453644 31.8862 1.02097C31.0103 1.43796 29.9927 1.43796 29.1172 1.02097C24.6172 -1.06644 19.2764 0.118622 16.082 3.91403C12.8877 7.70895 12.6318 13.1738 15.457 17.2514C16.2661 18.4262 16.9507 19.6826 17.5 20.999H17.3198C15.2334 20.998 13.2554 21.9282 11.9258 23.5361L11.3921 24.1894C10.4419 25.3364 9.0293 26 7.54004 25.999H1.5C0.947754 25.999 0.5 26.4468 0.5 26.999V42.999C0.5 43.5512 0.947754 43.999 1.5 43.999H59.5C60.0522 43.999 60.5 43.5512 60.5 42.999V26.999C60.5 26.4468 60.0522 25.999 59.5 25.999ZM45.4282 9.83737C45.7095 12.0449 45.165 14.2793 43.8999 16.1103C43.5801 16.5713 43.2832 17.0512 43 17.5381C40.2612 16.7041 39.5 14.9614 39.5 13.999C39.5 13.437 39.7168 13.1992 40.207 12.706C41.0151 12.0381 41.4883 11.0478 41.5 9.99899C41.4819 9.03708 41.0977 8.11765 40.4258 7.42819C39.7939 6.7822 39.4585 5.90231 39.5 4.99899C39.5532 4.21872 39.8198 3.46823 40.271 2.82907C43.0786 4.12546 45.0254 6.77097 45.4282 9.83737ZM15.5732 9.83737C15.9419 6.99704 17.6411 4.50241 20.1494 3.1196C22.6577 1.73727 25.6748 1.63229 28.2729 2.83737C29.6855 3.49753 31.3184 3.49753 32.731 2.83737C34.1797 2.1655 35.7812 1.89206 37.3711 2.04538C37.6929 2.07712 38.0127 2.12741 38.3291 2.19528C37.8184 3.04391 37.5332 4.00925 37.5 4.99899C37.457 6.36325 37.9512 7.68942 38.876 8.69333C39.3091 9.22214 39.5 9.478 39.5 9.99899C39.5 10.561 39.2832 10.7993 38.793 11.292C37.9849 11.9604 37.5117 12.9507 37.5 13.999C37.5 15.9531 38.9268 18.226 42.0532 19.3222C41.1768 21.1831 40.5532 23.1528 40.2002 25.1792L38.7998 33.1743C38.7153 33.6518 38.2998 33.9995 37.8149 33.999H36.2549C35.7524 33.9995 35.3276 33.6264 35.2632 33.1284L34.1631 24.6133C33.9663 23.1191 32.6938 22.0019 31.187 21.999H29.813C28.3066 22.0029 27.0352 23.1201 26.8379 24.6133L25.7378 33.1274C25.6738 33.6255 25.2495 33.999 24.7471 33.999H23.1821C22.6973 33.9995 22.2817 33.6518 22.1968 33.1743L20.7998 25.1792C20.2354 21.9248 18.9731 18.831 17.1001 16.1103C15.834 14.2793 15.2905 12.0449 15.5732 9.83737ZM58.5 41.999H2.5V27.999H7.54004C9.62598 27.9995 11.604 27.0693 12.9341 25.4624L13.4692 24.8091C14.4189 23.6626 15.8311 22.999 17.3198 22.999H18.2202C18.4751 23.8266 18.6787 24.6694 18.8301 25.5224L20.2241 33.5224C20.4751 34.958 21.7241 36.0044 23.1821 35.999H24.7432C26.249 35.9951 27.5205 34.8784 27.7178 33.3852L28.8179 24.8711C28.8823 24.3716 29.3091 23.9975 29.813 23.999H31.187C31.6895 23.999 32.1143 24.372 32.1792 24.8701L33.2788 33.3852C33.4771 34.8799 34.7505 35.997 36.2578 35.999H37.8179C39.2759 36.0024 40.5239 34.9546 40.7729 33.518L42.167 25.518C42.3184 24.667 42.522 23.8257 42.7769 22.999H43.6768C45.1626 22.9975 46.5718 23.6572 47.522 24.7993L48.0679 25.4663C49.3984 27.0713 51.375 28 53.46 27.999H58.5V41.999Z" fill="#25A874"/>
<path d="M49.5 8.99902H53.5V10.999H49.5V8.99902Z" fill="#25A874"/>
<path d="M47.0522 3.10449L51.0522 1.10449L51.9468 2.89355L47.9468 4.89355L47.0522 3.10449Z" fill="#25A874"/>
<path d="M48.0522 16.8931L48.9468 15.1045L52.9468 17.1045L52.0522 18.8931L48.0522 16.8931Z" fill="#25A874"/>
</svg>
