<svg width="61" height="60" viewBox="0 0 61 60" fill="none" xmlns="http://www.w3.org/2000/svg">
<g clip-path="url(#clip0)">
<path d="M59.5 41.5005V57.5005H1.5V41.5005H3.54004C5.32568 41.4995 7.01904 40.7041 8.16016 39.3306L8.7002 38.6704C9.84131 37.2969 11.5342 36.5015 13.3198 36.5005H14.96C15.332 37.5938 15.6196 38.7134 15.8198 39.8506C16.3198 42.7407 16.8799 45.9507 17.21 47.8506C17.3818 48.8042 18.2109 49.499 19.1802 49.5005H20.7402C21.7456 49.501 22.5962 48.7573 22.73 47.7607L23.8301 39.2407C23.9604 38.2461 24.8071 37.502 25.8101 37.5005H27.1899C28.1929 37.502 29.0396 38.2461 29.1699 39.2407L30.27 47.7607C30.4038 48.7573 31.2544 49.501 32.2598 49.5005H33.8198C34.7891 49.499 35.6182 48.8042 35.79 47.8506C36.1201 45.9507 36.6802 42.7407 37.1802 39.8506C37.3804 38.7134 37.668 37.5938 38.04 36.5005H39.6802C41.4658 36.5015 43.1587 37.2969 44.2998 38.6704L44.8398 39.3306C45.981 40.7041 47.6743 41.4995 49.46 41.5005H59.5Z" fill="#D3EEE3"/>
<path d="M47.5001 2.50049C40.8727 2.50049 35.5001 7.87305 35.5001 14.5005C35.4977 15.0059 35.5314 15.5103 35.6002 16.0107C36.4093 22.3911 42.1056 26.999 48.5143 26.458C54.9235 25.917 59.7662 20.4189 59.4938 13.9932C59.2218 7.5669 53.9318 2.49805 47.5001 2.50049ZM52.4503 14.5508L47.5001 19.5005L42.5499 14.5508C41.4489 13.3687 41.4811 11.5264 42.6237 10.3843C43.7662 9.2417 45.608 9.20899 46.7902 10.3105L47.5001 11.0107L48.2101 10.3105C49.3922 9.20899 51.234 9.2417 52.3766 10.3843C53.5192 11.5264 53.5514 13.3687 52.4503 14.5508Z" fill="#D3EEE3"/>
<path d="M32.0889 20.8076L30.9112 19.1914C28.2295 20.937 24.7705 20.937 22.0889 19.1914L20.9111 20.8076C22.5508 21.9434 24.5059 22.5356 26.5 22.5005C28.4942 22.5356 30.4492 21.9434 32.0889 20.8076Z" fill="#25A874"/>
<path d="M59.5 40.5004H49.46C47.9741 40.5019 46.5649 39.8422 45.6138 38.7006L45.0679 38.0336C43.7393 36.4281 41.7637 35.4994 39.6802 35.5004H39.4868C40.0396 34.184 40.7271 32.9281 41.5391 31.7533C42.5605 30.2929 43.2046 28.6025 43.4141 26.8324C48.7656 28.6025 54.6479 26.7211 57.9785 22.1737C61.3091 17.6264 61.3286 11.4506 58.0269 6.88224C54.7246 2.31388 48.854 0.395424 43.4917 2.13175C38.1294 3.86857 34.4976 8.86369 34.5 14.5004C34.5 14.5683 34.5088 14.6347 34.5098 14.7006C34.1968 14.6425 33.8828 14.5854 33.5571 14.5546C31.6147 14.3627 29.6562 14.6977 27.8882 15.5234C27.0103 15.9399 25.9917 15.9399 25.1138 15.5234C23.3457 14.6986 21.3887 14.3637 19.4468 14.5536C15.561 14.9203 12.1621 17.3217 10.5176 20.8612C8.87354 24.4013 9.23096 28.5473 11.457 31.7533C12.2705 32.9277 12.9595 34.1835 13.5132 35.5004H13.3198C11.2334 35.4994 9.25537 36.4296 7.92578 38.0375L7.39209 38.6903C6.44189 39.8373 5.0293 40.5009 3.54004 40.5004H1.5C0.947754 40.5004 0.5 40.9482 0.5 41.5004V57.5004C0.5 58.0527 0.947754 58.5004 1.5 58.5004H59.5C60.0522 58.5004 60.5 58.0527 60.5 57.5004V41.5004C60.5 40.9482 60.0522 40.5004 59.5 40.5004ZM47.5 3.50041C53.5752 3.50041 58.5 8.42521 58.5 14.5004C58.5 20.5756 53.5752 25.5004 47.5 25.5004C41.4248 25.5004 36.5 20.5756 36.5 14.5004C36.5073 8.42814 41.4277 3.50773 47.5 3.50041ZM11.5718 24.3344C11.9438 21.496 13.644 19.0038 16.1514 17.622C18.6582 16.2402 21.6733 16.1332 24.272 17.3344C25.6865 17.9965 27.3218 17.9965 28.7358 17.3344C30.1812 16.6601 31.7808 16.3871 33.3682 16.5434C33.8247 16.5898 34.2764 16.6747 34.7192 16.7963C35.4331 20.7372 37.9204 24.1303 41.4639 25.9965C41.3848 27.6493 40.8428 29.247 39.8989 30.6064C38.7124 32.3232 37.77 34.1962 37.0991 36.1723C36.7104 37.3144 36.4092 38.4848 36.1992 39.6723L34.811 47.6664C34.7295 48.1498 34.3101 48.5028 33.8198 48.5004H32.2598C31.7563 48.5024 31.3291 48.1313 31.2598 47.6322L30.1602 39.1103C29.9619 37.62 28.6934 36.5053 27.1899 36.5004H25.8101C24.3057 36.5053 23.0361 37.621 22.8379 39.1127L21.7378 47.6293C21.6694 48.1293 21.2422 48.5014 20.7378 48.5004H19.1802C18.6963 48.5009 18.2817 48.1552 18.1948 47.6796L16.8062 39.6796C16.5957 38.4916 16.2949 37.3217 15.9058 36.1796C15.2339 34.2006 14.2896 32.3256 13.1001 30.6073C11.8325 28.7773 11.2881 26.5424 11.5718 24.3344ZM58.5 56.5004H2.5V42.5004H3.54004C5.62842 42.5028 7.6084 41.5722 8.93994 39.9633L9.47412 39.3105C10.4229 38.165 11.8325 37.5019 13.3198 37.5004H14.2148C14.4722 38.3276 14.6792 39.1694 14.835 40.0214L16.2261 48.0263C16.481 49.4579 17.7261 50.5009 19.1802 50.5004H20.7402C22.2471 50.497 23.5205 49.3822 23.7231 47.8886L24.8232 39.3705C24.8882 38.8744 25.3096 38.5028 25.8101 38.5004H27.1899C27.6899 38.5019 28.1118 38.873 28.1782 39.3686L29.2778 47.8915C29.481 49.3837 30.7539 50.4975 32.2598 50.5004H33.8198C35.2759 50.5009 36.522 49.4555 36.7749 48.0214L38.165 40.0214C38.3208 39.1694 38.5278 38.3276 38.7852 37.5004H39.6851C41.1704 37.4985 42.5801 38.1581 43.5298 39.3007L44.0762 39.9677C45.4048 41.5707 47.3779 42.4989 49.46 42.5004H58.5V56.5004Z" fill="#25A874"/>
<path d="M46.7929 20.2075C47.1835 20.5981 47.8163 20.5981 48.2069 20.2075L53.1571 15.2573C54.7192 13.6953 54.7192 11.1626 53.1571 9.60059C51.5946 8.03857 49.0619 8.03857 47.4999 9.60059C45.933 8.06787 43.4247 8.08203 41.8749 9.63135C40.3251 11.1812 40.3109 13.6895 41.8427 15.2563L46.7929 20.2075ZM43.2567 11.0156C44.038 10.2344 45.3046 10.2344 46.0858 11.0156L46.7929 11.7227C47.1835 12.1128 47.8163 12.1128 48.2069 11.7227L48.914 11.0156C49.6947 10.2344 50.9613 10.2344 51.7426 11.0151C52.5238 11.7959 52.5238 13.0625 51.7431 13.8438L47.4999 18.0864L43.2567 13.8438C42.476 13.0625 42.476 11.7964 43.2567 11.0156Z" fill="#25A874"/>
</g>
<defs>
<clipPath id="clip0">
<rect width="60" height="60" fill="white" transform="translate(0.5)"/>
</clipPath>
</defs>
</svg>
