<svg width="61" height="60" viewBox="0 0 61 60" fill="none" xmlns="http://www.w3.org/2000/svg">
<path d="M24.1134 47.5194L23.1407 47.6901L21.9497 40.9337C21.9198 40.764 21.8456 40.6054 21.7342 40.4738L12.977 30.0363C12.1836 29.0886 10.9915 28.5676 9.75711 28.6278L8.61955 22.1838C8.38578 20.784 7.41837 19.6175 6.08608 19.1287C4.75427 18.6395 3.26196 18.9027 2.1779 19.818C1.09337 20.7339 0.58388 22.1606 0.842722 23.5556L4.61497 44.9426C4.65305 45.1633 4.76584 45.3648 4.93455 45.5123L9.42018 49.461L9.53104 50.092L8.55834 50.2635C8.02137 50.3585 7.66275 50.8704 7.75771 51.4079L9.13001 59.1847C9.2134 59.6556 9.62214 59.9993 10.1003 59.9998C10.1586 59.9998 10.216 59.995 10.2733 59.9853L25.828 57.2426C26.3649 57.1477 26.7226 56.6353 26.6276 56.0988L25.2616 48.3201C25.2158 48.0612 25.0693 47.8313 24.8538 47.6809C24.6384 47.5305 24.3718 47.4727 24.1134 47.5194ZM11.3039 48.7761C11.2653 48.5548 11.1525 48.3538 10.9838 48.2053L6.49821 44.2567L2.78669 23.2133C2.59581 22.1389 3.3116 21.1137 4.38601 20.9228C5.45994 20.7319 6.48519 21.4482 6.67607 22.5221L7.86038 29.2231C6.88815 29.8261 6.22587 30.822 6.04704 31.9523C5.86773 33.0821 6.18875 34.2341 6.92672 35.1085L14.1815 43.753L15.6859 42.4886L8.43735 33.8451C7.74084 33.0108 7.84688 31.7715 8.67402 31.0673C8.84851 30.9184 9.04951 30.8041 9.26642 30.7304C9.29968 30.7198 9.33245 30.7067 9.36523 30.6928C9.44476 30.6643 9.52671 30.6431 9.61009 30.6296C10.3052 30.5082 11.0128 30.7651 11.4678 31.3049L20.0558 41.5371L21.2021 48.0328L11.4803 49.7473L11.3039 48.7761ZM10.9029 57.8678L9.87327 52.0345L23.4844 49.6345L24.514 55.4679L10.9029 57.8678Z" fill="#25A874"/>
<path d="M57.1393 18.9812C54.9914 18.6024 52.9434 20.0359 52.5645 22.1838L51.4274 28.6278C50.1949 28.5738 49.0063 29.0925 48.2071 30.0324L39.4498 40.4738C39.3385 40.6059 39.2643 40.7654 39.2349 40.9356L38.0433 47.6901L37.0711 47.5194C36.5341 47.425 36.0227 47.7831 35.9278 48.3201L34.5569 56.0969C34.4615 56.6334 34.8196 57.1458 35.3561 57.2407L50.9112 59.9834C50.9681 59.993 51.0259 59.9978 51.0837 59.9978C51.5619 59.9974 51.9711 59.6537 52.054 59.1827L53.4263 51.4059C53.5213 50.8685 53.1627 50.3561 52.6257 50.2616L51.6535 50.09L51.7639 49.4591L56.2495 45.5104C56.4182 45.3624 56.531 45.1614 56.5696 44.9407L60.3413 23.5527C60.7183 21.4063 59.2852 19.3601 57.1393 18.9812ZM50.2812 57.8678L36.671 55.4679L37.6996 49.6345L51.3098 52.0345L50.2812 57.8678ZM58.3978 23.2124L54.6858 44.2586L50.2002 48.2073C50.032 48.3557 49.9192 48.5567 49.8806 48.778L49.7086 49.7492L39.9873 48.0347L41.133 41.5391L49.7216 31.3069C50.1771 30.7694 50.8827 30.5125 51.5773 30.6316C51.6617 30.645 51.7441 30.6663 51.8241 30.6952C51.8559 30.7087 51.8882 30.7217 51.9229 30.7323C52.1355 30.8046 52.3331 30.9159 52.5042 31.061C53.3381 31.7638 53.4485 33.0074 52.752 33.8461L45.4986 42.4886L47.0098 43.7583L54.2655 35.1124C55.6624 33.4364 55.4416 30.9463 53.7719 29.5417C53.6331 29.4275 53.4871 29.3219 53.3348 29.227L54.5191 22.527C54.7085 21.453 55.7323 20.7358 56.8062 20.9247C57.8806 21.1142 58.5979 22.138 58.4084 23.2124H58.3978Z" fill="#25A874"/>
<path d="M29.605 0H31.5793V1.97433H29.605V0Z" fill="#25A874"/>
<path d="M24.7837 0.893626L26.6905 0.38269L27.2015 2.29002L25.2946 2.80096L24.7837 0.893626Z" fill="#25A874"/>
<path d="M20.3589 3.00633L22.0686 2.01917L23.0558 3.72887L21.3461 4.71604L20.3589 3.00633Z" fill="#25A874"/>
<path d="M16.6323 6.19059L18.0282 4.79468L19.4246 6.19059L18.0282 7.58699L16.6323 6.19059Z" fill="#25A874"/>
<path d="M13.8555 10.2328L14.8426 8.52356L16.5514 9.51073L15.5642 11.2195L13.8555 10.2328Z" fill="#25A874"/>
<path d="M12.2197 14.8552L12.7307 12.9484L14.6375 13.4593L14.1266 15.3661L12.2197 14.8552Z" fill="#25A874"/>
<path d="M11.8359 17.7689H13.8103V19.7433H11.8359V17.7689Z" fill="#25A874"/>
<path d="M12.2192 22.6572L14.1266 22.1458L14.6375 24.0531L12.7302 24.564L12.2192 22.6572Z" fill="#25A874"/>
<path d="M13.856 27.2787L15.5647 26.292L16.5514 28.0007L14.8426 28.9874L13.856 27.2787Z" fill="#25A874"/>
<path d="M16.6313 31.3199L18.0277 29.924L19.4237 31.3199L18.0277 32.7163L16.6313 31.3199Z" fill="#25A874"/>
<path d="M20.3579 34.5061L21.3451 32.7964L23.0548 33.7835L22.0681 35.4932L20.3579 34.5061Z" fill="#25A874"/>
<path d="M24.7847 36.6183L25.2956 34.7109L27.2024 35.2219L26.6915 37.1292L24.7847 36.6183Z" fill="#25A874"/>
<path d="M29.605 35.538H31.5793V37.5123H29.605V35.538Z" fill="#25A874"/>
<path d="M33.9819 35.2219L35.8893 34.7109L36.4002 36.6183L34.4934 37.1292L33.9819 35.2219Z" fill="#25A874"/>
<path d="M38.1279 33.784L39.8376 32.7969L40.8248 34.5066L39.1151 35.4938L38.1279 33.784Z" fill="#25A874"/>
<path d="M41.7607 31.321L43.1567 29.9246L44.5531 31.321L43.1567 32.7169L41.7607 31.321Z" fill="#25A874"/>
<path d="M44.6318 28.0012L45.619 26.2925L47.3277 27.2796L46.3406 28.9884L44.6318 28.0012Z" fill="#25A874"/>
<path d="M46.5469 24.0531L47.0578 22.1462L48.9651 22.6572L48.4537 24.5645L46.5469 24.0531Z" fill="#25A874"/>
<path d="M47.374 17.7689H49.3484V19.7433H47.374V17.7689Z" fill="#25A874"/>
<path d="M46.5464 13.4588L48.4537 12.9479L48.9647 14.8547L47.0573 15.3657L46.5464 13.4588Z" fill="#25A874"/>
<path d="M44.6328 9.51024L46.3416 8.52307L47.3282 10.2318L45.6195 11.219L44.6328 9.51024Z" fill="#25A874"/>
<path d="M41.7607 6.19108L43.1567 4.79517L44.5526 6.19108L43.1567 7.58748L41.7607 6.19108Z" fill="#25A874"/>
<path d="M38.1284 3.72887L39.1151 2.01917L40.8253 3.00585L39.8381 4.71604L38.1284 3.72887Z" fill="#25A874"/>
<path d="M33.9819 2.29052L34.4929 0.383667L36.4002 0.894603L35.8888 2.80145L33.9819 2.29052Z" fill="#25A874"/>
<path d="M37.6788 25.864L37.9131 23.4452C38.1459 21.3808 38.7807 19.3814 39.7818 17.5608C41.0635 15.1382 40.5121 12.1521 38.4495 10.347C36.3875 8.54182 33.3546 8.39095 31.1234 9.98208C30.8048 10.2053 30.3806 10.2053 30.062 9.98208C28.7774 9.06143 27.1762 8.69654 25.6198 8.97033C23.7577 9.29906 22.1642 10.4969 21.3313 12.194C20.4983 13.8917 20.5258 15.8848 21.4055 17.5589C22.4066 19.3794 23.0415 21.3784 23.2743 23.4433L23.508 25.8606C23.7028 27.4517 25.0919 28.6226 26.6927 28.5454C28.2935 28.4688 29.5636 27.1698 29.6051 25.5676V22.7049C29.6051 22.1597 30.0471 21.7177 30.5922 21.7177C31.1374 21.7177 31.5794 22.1597 31.5794 22.7049V25.5676C31.6083 27.1784 32.8813 28.491 34.4908 28.5691C36.0997 28.6471 37.4942 27.4643 37.6788 25.864ZM33.5537 25.5676V22.7049C33.5537 21.0694 32.2277 19.7434 30.5922 19.7434C28.9567 19.7434 27.6307 21.0694 27.6307 22.7049V25.5676C27.6057 26.1281 27.1583 26.5769 26.5982 26.6044C26.0381 26.6314 25.5494 26.2274 25.4708 25.6721L25.2356 23.2548C24.9782 20.9349 24.2687 18.6878 23.148 16.6406C22.5609 15.5262 22.5416 14.1983 23.0959 13.067C23.6502 11.9362 24.7121 11.1379 25.9523 10.9191C26.9896 10.7331 28.0578 10.975 28.9138 11.5896C29.9188 12.3092 31.2704 12.3092 32.2754 11.5896C33.1315 10.975 34.1996 10.7331 35.2369 10.9191C36.4762 11.1389 37.5356 11.9376 38.0895 13.0679C38.6428 14.1983 38.6236 15.5248 38.0374 16.6387C36.9163 18.6858 36.2072 20.933 35.9493 23.2529L35.7146 25.6702C35.6384 26.2279 35.1492 26.6347 34.5872 26.6082C34.0251 26.5817 33.5764 26.1301 33.5537 25.5676Z" fill="#25A874"/>
<path d="M28.0388 12.3285L27.2271 14.1283C29.3797 15.034 31.8062 15.034 33.9584 14.1283L33.1491 12.3285C31.5098 12.9884 29.6781 12.9884 28.0388 12.3285Z" fill="#25A874"/>
</svg>
