<svg width="61" height="60" viewBox="0 0 61 60" fill="none" xmlns="http://www.w3.org/2000/svg">
<path d="M42.7582 17.7335C42.3098 14.2413 40.2229 11.1721 37.1405 9.47092C34.058 7.76925 30.349 7.6402 27.1552 9.12205C26.2744 9.54109 25.2518 9.54109 24.3715 9.12205C19.8494 7.0244 14.4824 8.21527 11.2724 12.0293C8.06286 15.8429 7.80525 21.3345 10.6443 25.4317C12.3617 27.9258 13.5197 30.7615 14.0388 33.7448L15.4397 41.7841C15.6919 43.2257 16.9456 44.2767 18.4093 44.2728H19.978C21.4917 44.2689 22.769 43.1467 22.9677 41.6462L24.0732 33.0902C24.138 32.5883 24.5663 32.2124 25.0727 32.2139H26.4535C26.9589 32.2139 27.3853 32.5888 27.4505 33.0892L28.556 41.6462C28.7548 43.1477 30.034 44.2703 31.5487 44.2728H33.1174C34.5821 44.2762 35.8362 43.2232 36.0865 41.7797L37.4874 33.7404C38.0065 30.7575 39.1645 27.9219 40.8819 25.4278C42.4354 23.1824 43.1037 20.442 42.7582 17.7335ZM39.2293 24.2865C37.3466 27.0205 36.0781 30.1295 35.5109 33.3998L34.1041 41.4342C34.0188 41.9141 33.6017 42.2635 33.114 42.263H31.5487C31.0438 42.263 30.6179 41.8881 30.5526 41.3881L29.4471 32.8311C29.2489 31.3292 27.9687 30.206 26.4535 30.2041H25.0727C23.559 30.208 22.2817 31.3307 22.0835 32.8311L20.978 41.3871C20.9132 41.8876 20.4868 42.263 19.9819 42.263H18.4093C17.9221 42.2635 17.505 41.9141 17.4196 41.4342L16.0158 33.3998C15.4481 30.1295 14.1797 27.0205 12.2974 24.2865C9.97847 20.9346 10.1899 16.4459 12.8141 13.3272C15.4378 10.2084 19.8244 9.23245 23.5232 10.9439C24.9427 11.6078 26.5835 11.6078 28.0031 10.9439C31.7018 9.23245 36.0889 10.2084 38.7126 13.3272C41.3368 16.4459 41.5482 20.9346 39.2293 24.2865Z" fill="#FFB800"/>
<path d="M54.8976 42.9446C53.7052 41.8062 51.8284 41.8062 50.6355 42.9446L46.7165 39.0255C53.8387 28.2537 51.6468 13.8385 41.6448 5.67066C31.6429 -2.49718 17.0805 -1.7641 7.94945 7.36693C-1.18158 16.498 -1.91466 31.0603 6.25318 41.0623C14.421 51.0643 28.8362 53.2562 39.608 46.134L43.5271 50.0535C42.3509 51.2307 42.3509 53.1379 43.5271 54.3151L49.2106 60.0001L50.6326 58.5791L44.9481 52.8941C44.5555 52.5015 44.5555 51.8656 44.9481 51.4731L52.0546 44.3675C52.4515 43.9878 53.0777 43.9878 53.4746 44.3675L59.1596 50.052L60.5801 48.6306L54.8976 42.9446ZM2.65012 25.1795C2.65012 12.415 12.998 2.06662 25.7631 2.06662C38.5281 2.06662 48.876 12.415 48.876 25.1795C48.876 37.9446 38.5281 48.2925 25.7631 48.2925C13.0044 48.2782 2.66484 37.9387 2.65012 25.1795ZM45.5207 40.6693L49.2136 44.3636L44.9471 48.6306L41.2528 44.9372C42.8406 43.6899 44.2734 42.2571 45.5207 40.6693Z" fill="#FFB800"/>
<path d="M25.763 14.1256C24.185 14.1545 22.6369 13.6947 21.3298 12.8105L20.1458 14.4342C21.7939 15.5755 23.7586 16.1707 25.763 16.1354C27.7675 16.1707 29.7321 15.5755 31.3798 14.4342L30.1958 12.8105C28.8892 13.6947 27.3411 14.154 25.763 14.1256Z" fill="#FFB800"/>
</svg>
