<svg width="61" height="60" viewBox="0 0 61 60" fill="none" xmlns="http://www.w3.org/2000/svg">
<path d="M39.875 57.1875H21.125C21.1252 55.199 21.7574 53.2619 22.9302 51.656C24.103 50.0502 25.7558 48.8585 27.65 48.2532C29.4922 48.9157 31.5078 48.9157 33.35 48.2532C35.2442 48.8585 36.897 50.0502 38.0698 51.656C39.2426 53.2619 39.8748 55.199 39.875 57.1875Z" fill="#D3EEE3"/>
<path d="M24.312 46.05C25.2306 47.0427 26.3757 47.7986 27.6495 48.2532C25.7553 48.8585 24.1025 50.0502 22.9297 51.656C21.7569 53.2619 21.1247 55.199 21.1245 57.1875H16.437C16.1884 57.1875 15.9499 57.0888 15.7741 56.913C15.5983 56.7371 15.4995 56.4987 15.4995 56.25V55.5C15.4987 53.3319 16.2493 51.2306 17.6236 49.5537C18.9979 47.8768 20.911 46.7281 23.037 46.3032L24.312 46.05Z" fill="#D3EEE3"/>
<path d="M37.9621 46.3032C40.0882 46.7281 42.0012 47.8768 43.3755 49.5537C44.7498 51.2306 45.5005 53.3319 45.4996 55.5V56.25C45.4996 56.4987 45.4008 56.7371 45.225 56.913C45.0492 57.0888 44.8108 57.1875 44.5621 57.1875H39.8746C39.8744 55.199 39.2422 53.2619 38.0694 51.656C36.8966 50.0502 35.2438 48.8585 33.3496 48.2532C34.6234 47.7986 35.7685 47.0427 36.6871 46.05L37.9621 46.3032Z" fill="#D3EEE3"/>
<path d="M30.4998 39.375C29.7155 39.3736 28.9514 39.1271 28.3142 38.6698C27.6771 38.2126 27.1989 37.5675 26.9467 36.825C26.904 36.6852 26.895 36.5373 26.9202 36.3933C26.9455 36.2494 27.0044 36.1134 27.0921 35.9965C27.1798 35.8796 27.2938 35.785 27.4249 35.7204C27.556 35.6559 27.7005 35.6232 27.8467 35.6249H33.1529C33.299 35.6232 33.4435 35.6559 33.5746 35.7204C33.7058 35.785 33.8198 35.8796 33.9075 35.9965C33.9952 36.1134 34.054 36.2494 34.0793 36.3933C34.1046 36.5373 34.0955 36.6852 34.0529 36.825C33.8006 37.5675 33.3224 38.2126 32.6853 38.6698C32.0482 39.1271 31.284 39.3736 30.4998 39.375Z" fill="#D3EEE3"/>
<path d="M47.8812 16.7344C48.3197 18.8 48.2392 20.942 47.6468 22.9688L47.4687 23.5876C46.9856 23.4454 46.4786 23.4037 45.9787 23.4649C45.4789 23.5262 44.9969 23.6892 44.5625 23.9438V20.5407C44.5605 20.3178 44.4793 20.1029 44.3332 19.9346C44.1872 19.7662 43.986 19.6554 43.7656 19.6219C42.8119 19.4554 41.9329 18.9987 41.2483 18.3142C40.5638 17.6297 40.1071 16.7506 39.9406 15.7969C39.9072 15.5766 39.7963 15.3753 39.628 15.2293C39.4596 15.0833 39.2447 15.002 39.0218 15.0001H21.9781C21.7552 15.002 21.5403 15.0833 21.372 15.2293C21.2036 15.3753 21.0928 15.5766 21.0593 15.7969C20.8928 16.7506 20.4361 17.6297 19.7516 18.3142C19.0671 18.9987 18.188 19.4554 17.2343 19.6219C17.014 19.6554 16.8127 19.7662 16.6667 19.9346C16.5207 20.1029 16.4394 20.3178 16.4375 20.5407V23.9438C16.003 23.6892 15.521 23.5262 15.0212 23.4649C14.5214 23.4037 14.0143 23.4454 13.5312 23.5876L13.3531 22.9688C12.7608 20.942 12.6802 18.8 13.1187 16.7344C14.0039 12.7852 16.2076 9.25516 19.3669 6.72559C22.5262 4.19602 26.4528 2.81775 30.5 2.81775C34.5472 2.81775 38.4737 4.19602 41.6331 6.72559C44.7924 9.25516 46.996 12.7852 47.8812 16.7344Z" fill="#D3EEE3"/>
<path d="M48.781 23.1281C48.7159 23.1026 48.6531 23.0712 48.5935 23.0344C49.184 20.9137 49.2547 18.682 48.7998 16.5281C47.8714 12.3671 45.5526 8.64675 42.2259 5.9805C38.8992 3.31425 34.7631 1.86133 30.4998 1.86133C26.2365 1.86133 22.1004 3.31425 18.7737 5.9805C15.447 8.64675 13.1282 12.3671 12.1998 16.5281C11.745 18.682 11.8157 20.9137 12.406 23.0344C12.3465 23.0712 12.2837 23.1026 12.2185 23.1281C11.325 23.6441 10.6266 24.4405 10.2318 25.3938C9.83693 26.3471 9.76766 27.4041 10.0347 28.4007C10.3018 29.3974 10.8903 30.2781 11.7089 30.9063C12.5275 31.5345 13.5305 31.875 14.5623 31.875C14.9675 31.8746 15.371 31.821 15.7623 31.7156C16.2201 34.2229 17.2696 36.5847 18.8235 38.6049C20.3774 40.6251 22.3908 42.2454 24.6967 43.3313L25.8123 43.8469V44.0625C25.8123 44.3111 25.7135 44.5496 25.5377 44.7254C25.3619 44.9012 25.1234 45 24.8748 45C24.8119 45.0016 24.7492 45.0079 24.6873 45.0188L22.8498 45.3844C20.5155 45.8598 18.4166 47.1255 16.9069 48.9682C15.3973 50.8109 14.5692 53.1179 14.5623 55.5V56.25C14.5638 56.7468 14.7618 57.2229 15.1131 57.5742C15.4644 57.9255 15.9405 58.1235 16.4373 58.125H44.5623C45.0591 58.1235 45.5352 57.9255 45.8865 57.5742C46.2378 57.2229 46.4358 56.7468 46.4373 56.25V55.5C46.4303 53.1164 45.601 50.8083 44.0894 48.9654C42.5778 47.1224 40.4766 45.8575 38.1404 45.3844L36.3123 45.0188C36.2503 45.0079 36.1877 45.0016 36.1248 45C35.8762 45 35.6377 44.9012 35.4619 44.7254C35.2861 44.5496 35.1873 44.3111 35.1873 44.0625V43.8469L36.3029 43.3313C38.6087 42.2454 40.6222 40.6251 42.1761 38.6049C43.73 36.5847 44.7795 34.2229 45.2373 31.7156C45.6286 31.821 46.032 31.8746 46.4373 31.875C47.4691 31.875 48.4721 31.5345 49.2907 30.9063C50.1093 30.2781 50.6978 29.3974 50.9649 28.4007C51.2319 27.4041 51.1627 26.3471 50.7678 25.3938C50.373 24.4405 49.6746 23.6441 48.781 23.1281ZM14.5623 30C13.8171 29.9978 13.103 29.7008 12.576 29.1738C12.0491 28.6468 11.752 27.9327 11.7498 27.1875C11.749 26.6947 11.8787 26.2104 12.1257 25.7839C12.3727 25.3575 12.7282 25.004 13.156 24.7594C13.5079 24.5554 13.9006 24.4319 14.3058 24.3979C14.7111 24.3639 15.1189 24.4201 15.4998 24.5625V28.8844C15.4998 29.1938 15.5185 29.5125 15.5373 29.8219C15.2252 29.9377 14.8952 29.998 14.5623 30ZM16.4373 56.25V55.5C16.4419 53.5509 17.1187 51.663 18.3535 50.155C19.5883 48.6469 21.3055 47.6109 23.2154 47.2219L24.0217 47.0625C24.4581 47.4867 24.9354 47.8666 25.4467 48.1969C23.9882 49.0138 22.7511 50.1743 21.8427 51.5777C20.9344 52.981 20.3822 54.5849 20.2342 56.25H16.4373ZM36.9779 47.0625L37.7748 47.2219C39.6865 47.6089 41.406 48.644 42.6427 50.1523C43.8794 51.6605 44.5574 53.5495 44.5623 55.5V56.25H40.7654C40.6174 54.5849 40.0652 52.981 39.1569 51.5777C38.2485 50.1743 37.0114 49.0138 35.5529 48.1969C36.0641 47.8666 36.5415 47.4867 36.9779 47.0625ZM38.881 56.25H22.1185C22.2905 54.6786 22.9026 53.1876 23.8844 51.9487C24.8663 50.7098 26.178 49.7733 27.6685 49.2469C29.5103 49.8344 31.4893 49.8344 33.331 49.2469C34.8216 49.7733 36.1333 50.7098 37.1152 51.9487C38.097 53.1876 38.7091 54.6786 38.881 56.25ZM26.2623 46.4906C26.6129 46.2939 26.9168 46.0237 27.1531 45.6984C27.3894 45.3731 27.5524 45.0005 27.631 44.6063C29.4945 45.2187 31.5051 45.2187 33.3685 44.6063C33.4472 45.0005 33.6102 45.3731 33.8465 45.6984C34.0828 46.0237 34.3867 46.2939 34.7373 46.4906C34.2073 46.8596 33.6303 47.1559 33.0217 47.3719C31.3882 47.9578 29.602 47.9578 27.9685 47.3719C27.3629 47.1559 26.789 46.8595 26.2623 46.4906ZM43.6248 20.5406V28.8844C43.6183 31.558 42.8527 34.1748 41.4171 36.4303C39.9815 38.6858 37.9349 40.4872 35.5154 41.625L33.6685 42.4875C32.6764 42.9506 31.5947 43.1907 30.4998 43.1907C29.4049 43.1907 28.3232 42.9506 27.331 42.4875L25.4842 41.625C23.0647 40.4872 21.0181 38.6858 19.5825 36.4303C18.1469 34.1748 17.3813 31.558 17.3748 28.8844L17.3935 20.5406C18.5403 20.3426 19.5973 19.7934 20.4185 18.9688C21.2397 18.1443 21.7846 17.0851 21.9779 15.9375L39.0217 15.9563C39.2172 17.101 39.7633 18.1567 40.5844 18.9779C41.4056 19.799 42.4613 20.3451 43.606 20.5406H43.6248ZM43.9248 18.6938C43.1608 18.5654 42.4558 18.2021 41.908 17.6543C41.3602 17.1065 40.9969 16.4015 40.8685 15.6375C40.7951 15.1997 40.5697 14.8018 40.2319 14.5137C39.8941 14.2256 39.4656 14.0659 39.0217 14.0625H21.9779C21.534 14.0659 21.1055 14.2256 20.7677 14.5137C20.4299 14.8018 20.2045 15.1997 20.131 15.6375C20.0027 16.4015 19.6394 17.1065 19.0916 17.6543C18.5438 18.2021 17.8388 18.5654 17.0748 18.6938C16.637 18.7672 16.239 18.9926 15.951 19.3304C15.6629 19.6682 15.5032 20.0967 15.4998 20.5406V22.6125C15.0774 22.5266 14.6449 22.5014 14.2154 22.5375C13.7046 20.7137 13.6435 18.7932 14.0373 16.9406C14.8743 13.199 16.961 9.85406 19.9534 7.45704C22.9459 5.06002 26.6657 3.75391 30.4998 3.75391C34.3339 3.75391 38.0537 5.06002 41.0462 7.45704C44.0386 9.85406 46.1253 13.199 46.9623 16.9406C47.3561 18.7932 47.295 20.7137 46.7842 22.5375C46.3547 22.5014 45.9222 22.5266 45.4998 22.6125V20.5406C45.4964 20.0967 45.3367 19.6682 45.0486 19.3304C44.7605 18.9926 44.3626 18.7672 43.9248 18.6938ZM46.4373 30C46.1032 29.9926 45.7731 29.9259 45.4623 29.8031C45.481 29.4938 45.4998 29.1938 45.4998 28.8844V24.5625C45.8807 24.4201 46.2885 24.3639 46.6938 24.3979C47.099 24.4319 47.4917 24.5554 47.8435 24.7594C48.2714 25.004 48.6269 25.3575 48.8739 25.7839C49.1209 26.2104 49.2506 26.6947 49.2498 27.1875C49.2476 27.9327 48.9505 28.6468 48.4236 29.1738C47.8966 29.7008 47.1825 29.9978 46.4373 30Z" fill="#25A874"/>
<path d="M37.0625 30C38.098 30 38.9375 29.1605 38.9375 28.125C38.9375 27.0895 38.098 26.25 37.0625 26.25C36.027 26.25 35.1875 27.0895 35.1875 28.125C35.1875 29.1605 36.027 30 37.0625 30Z" fill="#25A874"/>
<path d="M31.9565 22.7813L32.8865 24.4097C34.1755 23.7423 35.611 23.408 37.0622 23.4375C38.5488 23.4054 40.0183 23.7608 41.3259 24.4688L42.2887 22.8591C40.6916 21.973 38.8883 21.5257 37.0622 21.5625C35.2844 21.5285 33.5272 21.9479 31.9565 22.7813Z" fill="#25A874"/>
<path d="M23.9375 30C24.973 30 25.8125 29.1605 25.8125 28.125C25.8125 27.0895 24.973 26.25 23.9375 26.25C22.902 26.25 22.0625 27.0895 22.0625 28.125C22.0625 29.1605 22.902 30 23.9375 30Z" fill="#25A874"/>
<path d="M28.1132 24.4125L29.0432 22.784C27.4727 21.9496 25.7156 21.5292 23.9375 21.5625C22.1122 21.5242 20.3092 21.9699 18.7119 22.8543L19.6738 24.4687C20.9815 23.7609 22.4509 23.4055 23.9375 23.4375C25.389 23.4087 26.8245 23.7439 28.1132 24.4125Z" fill="#25A874"/>
<path d="M29.2277 31.4353C29.5885 31.117 30.0556 30.9457 30.5367 30.9552C31.0177 30.9648 31.4776 31.1545 31.8255 31.4869L33.1512 30.1612C32.466 29.4762 31.5422 29.0829 30.5734 29.0638C29.6047 29.0448 28.6662 29.4014 27.9546 30.0591L29.2277 31.4353Z" fill="#25A874"/>
<path d="M33.1499 34.6875H27.8493C27.5483 34.6882 27.2518 34.7604 26.9842 34.8981C26.7165 35.0358 26.4855 35.2352 26.3099 35.4797C26.1386 35.7143 26.0264 35.9868 25.9828 36.2741C25.9393 36.5613 25.9656 36.8548 26.0596 37.1297C26.3739 38.058 26.9712 38.8645 27.7677 39.4357C28.5641 40.007 29.5195 40.3142 30.4996 40.3142C31.4797 40.3142 32.4352 40.007 33.2316 39.4357C34.028 38.8645 34.6254 38.058 34.9396 37.1297C35.0337 36.8546 35.06 36.561 35.0164 36.2736C34.9729 35.9862 34.8606 35.7136 34.6893 35.4788C34.5138 35.2343 34.2827 35.0351 34.015 34.8975C33.7474 34.7599 33.4509 34.6879 33.1499 34.6875ZM30.4996 38.4375C29.9175 38.4381 29.3493 38.2595 28.8723 37.9259C28.3952 37.5923 28.0325 37.1198 27.8334 36.5728C27.8334 36.5728 27.8409 36.5625 27.8493 36.5625L33.164 36.5288C32.9751 37.0855 32.6165 37.569 32.1386 37.9113C31.6607 38.2537 31.0875 38.4377 30.4996 38.4375Z" fill="#25A874"/>
</svg>
