<svg width="61" height="44" viewBox="0 0 61 44" fill="none" xmlns="http://www.w3.org/2000/svg">
<path d="M59.5 25.9999H53.46C51.9741 26.0009 50.5649 25.3413 49.6138 24.1997L49.0688 23.5327C47.7397 21.9277 45.7642 20.999 43.6802 20.9999H43.5C44.0503 19.6826 44.7363 18.4262 45.5469 17.2509C48.3721 13.1733 48.1162 7.70893 44.9219 3.91352C41.7275 0.118109 36.3867 -1.06695 31.8872 1.02094C31.0107 1.43793 29.9932 1.43793 29.1172 1.02094C24.6172 -1.06695 19.2764 0.118109 16.082 3.91352C12.8877 7.70893 12.6318 13.1733 15.457 17.2509C16.2661 18.4262 16.9507 19.6826 17.5 20.9999H17.3198C15.2334 20.9985 13.2554 21.9291 11.9258 23.5366L11.3921 24.1899C10.4419 25.3369 9.0293 26.0004 7.54004 25.9999H1.5C0.947754 25.9999 0.5 26.4477 0.5 26.9999V42.9999C0.5 43.5522 0.947754 43.9999 1.5 43.9999H59.5C60.0522 43.9999 60.5 43.5522 60.5 42.9999V26.9999C60.5 26.4477 60.0522 25.9999 59.5 25.9999ZM15.5732 9.83784C15.9419 6.9975 17.6411 4.50287 20.1494 3.12055C22.6577 1.73774 25.6748 1.63276 28.2729 2.83784C29.6855 3.49799 31.3184 3.49799 32.731 2.83784C36.4102 1.1391 40.7715 2.11127 43.3809 5.21186C45.9902 8.31293 46.2026 12.7758 43.8999 16.1108C42.0269 18.8315 40.7646 21.9252 40.2002 25.1796L38.7998 33.1747C38.7153 33.6523 38.2998 33.9999 37.8149 33.9999H36.2568C35.7549 33.9995 35.3306 33.6269 35.2661 33.1288L34.166 24.6137C33.9683 23.1191 32.6948 22.0014 31.187 21.9999H29.813C28.3066 22.0034 27.0352 23.1206 26.8379 24.6137L25.7378 33.1279C25.6738 33.6264 25.2495 33.9995 24.7471 33.9999H23.1821C22.6973 33.9999 22.2817 33.6523 22.1968 33.1747L20.7998 25.1796C20.2354 21.9252 18.9731 18.8315 17.1001 16.1108C15.834 14.2797 15.2905 12.0454 15.5732 9.83784ZM58.5 41.9999H2.5V27.9999H7.54004C9.62598 27.9999 11.604 27.0698 12.9341 25.4628L13.4692 24.81C14.4189 23.663 15.8311 22.9995 17.3198 22.9999H18.2202C18.4751 23.8276 18.6787 24.6699 18.8301 25.5229L20.2241 33.5229C20.4751 34.9589 21.7241 36.0048 23.1821 35.9999H24.7432C26.249 35.996 27.5205 34.8788 27.7178 33.3857L28.8179 24.872C28.8823 24.372 29.3091 23.998 29.813 23.9999H31.187C31.6895 23.9995 32.1143 24.3725 32.1792 24.871L33.2788 33.3857C33.4771 34.8798 34.7495 35.9975 36.2568 35.9999H37.8179C39.2759 36.0034 40.5239 34.9555 40.7729 33.519L42.167 25.519C42.3184 24.6674 42.522 23.8261 42.7769 22.9999H43.6768C45.1626 22.9985 46.5723 23.6581 47.5229 24.7997L48.0679 25.4667C49.3979 27.0727 51.375 28.0014 53.46 27.9999H58.5V41.9999Z" fill="#25A874"/>
</svg>
