<svg width="32" height="29" viewBox="0 0 32 29" fill="none" xmlns="http://www.w3.org/2000/svg">
<path d="M25.421 5.53613H4.26882C4.01142 5.53613 3.80273 5.76568 3.80273 6.04883C3.80273 6.33197 4.01142 6.56152 4.26882 6.56152H25.4211C25.6785 6.56152 25.8872 6.33197 25.8872 6.04883C25.8872 5.76568 25.6784 5.53613 25.421 5.53613Z" fill="url(#paint0_linear)"/>
<path d="M25.8871 10.6343C25.8871 10.3511 25.6784 10.1216 25.421 10.1216H4.26882C4.01142 10.1216 3.80273 10.3511 3.80273 10.6343C3.80273 10.9174 4.01142 11.147 4.26882 11.147H25.4211C25.6784 11.147 25.8871 10.9174 25.8871 10.6343Z" fill="url(#paint1_linear)"/>
<path d="M4.26882 14.707C4.01142 14.707 3.80273 14.9366 3.80273 15.2197C3.80273 15.5029 4.01142 15.7324 4.26882 15.7324H14.6614C14.9188 15.7324 15.1275 15.5029 15.1275 15.2197C15.1275 14.9366 14.9188 14.707 14.6614 14.707H4.26882Z" fill="url(#paint2_linear)"/>
<path d="M24.4954 16.8365C23.4039 16.811 22.4682 17.6891 22.3176 18.8761C22.3038 18.9847 22.2969 19.0957 22.2969 19.2059C22.2969 19.489 22.5056 19.7186 22.763 19.7186C23.0204 19.7186 23.229 19.489 23.229 19.2059C23.229 19.1429 23.233 19.0795 23.2409 19.0178C23.3262 18.345 23.858 17.8474 24.4767 17.8617C25.1138 17.8759 25.6388 18.4346 25.6718 19.1337C25.7085 19.9112 25.1467 20.5504 24.4513 20.5504C24.1939 20.5504 23.9852 20.7799 23.9852 21.0631V23.005C23.9852 23.2882 24.1939 23.5177 24.4513 23.5177C24.7087 23.5177 24.9174 23.2882 24.9174 23.005V21.519C25.9184 21.2731 26.6591 20.2732 26.6028 19.0805C26.5445 17.847 25.6189 16.8614 24.4954 16.8365Z" fill="url(#paint3_linear)"/>
<path d="M31.7467 27.5215L30.2618 23.8217C30.2219 23.7222 30.2192 23.6099 30.2546 23.5058C30.5265 22.7034 30.6573 21.8587 30.6434 20.9951C30.5837 17.303 27.8373 14.3115 24.4794 14.2819C21.0035 14.2536 18.1847 17.3498 18.2131 21.1759C18.2409 24.9284 21.0335 27.9793 24.4735 27.9561C25.301 27.9496 26.104 27.7668 26.8603 27.4127C26.9434 27.3738 27.0373 27.3701 27.1245 27.4019L30.7502 28.7269C31.0573 28.8392 31.3853 28.7465 31.605 28.4808C31.8236 28.2162 31.878 27.8487 31.7467 27.5215ZM27.4184 26.4288C27.2836 26.3796 27.144 26.355 27.0047 26.355C26.8308 26.355 26.6575 26.3932 26.4952 26.4692C25.8528 26.77 25.1704 26.9253 24.4669 26.9307C21.5584 26.9535 19.1689 24.3703 19.1452 21.1676C19.1212 17.9219 21.504 15.3071 24.4283 15.3071C24.4427 15.3071 24.4574 15.3072 24.4718 15.3073C27.3104 15.3322 29.6609 17.8919 29.7113 21.0133C29.7231 21.7479 29.612 22.4661 29.3811 23.1476C29.2604 23.5037 29.2703 23.8903 29.409 24.2357L30.7826 27.6582L27.4184 26.4288Z" fill="url(#paint4_linear)"/>
<path d="M16.4996 21.19H9.91304C9.53141 21.19 9.16886 21.3491 8.89206 21.6381L4.08286 26.6599L4.78727 22.3576C4.88695 21.749 4.46144 21.19 3.89996 21.19H3.60316C2.13033 21.19 0.932111 19.872 0.932111 18.2519V4.18969C0.932111 2.56957 2.13033 1.25153 3.60316 1.25153H26.0879C27.5607 1.25153 28.7589 2.56957 28.7589 4.18969V14.912C28.7589 15.1951 28.9676 15.4247 29.225 15.4247C29.4824 15.4247 29.6911 15.1951 29.6911 14.912V4.18962C29.6911 2.0041 28.0747 0.226074 26.0879 0.226074H3.60322C1.61639 0.226074 0 2.0041 0 4.18962V18.2518C0 20.4373 1.61639 22.2154 3.60322 22.2154H3.86342L3.09699 26.8968C3.03509 27.2747 3.20003 27.6512 3.50721 27.8336C3.81302 28.015 4.18975 27.9621 4.44423 27.6964L9.53383 22.3818C9.63662 22.2745 9.77129 22.2154 9.91304 22.2154H16.4996C16.757 22.2154 16.9657 21.9858 16.9657 21.7027C16.9657 21.4195 16.757 21.19 16.4996 21.19Z" fill="url(#paint5_linear)"/>
<defs>
<linearGradient id="paint0_linear" x1="3.80273" y1="5.53613" x2="25.899" y2="6.00088" gradientUnits="userSpaceOnUse">
<stop stop-color="#0DC180"/>
<stop offset="1" stop-color="#04B474"/>
</linearGradient>
<linearGradient id="paint1_linear" x1="3.80273" y1="10.1216" x2="25.8989" y2="10.5863" gradientUnits="userSpaceOnUse">
<stop stop-color="#0DC180"/>
<stop offset="1" stop-color="#04B474"/>
</linearGradient>
<linearGradient id="paint2_linear" x1="3.80273" y1="14.707" x2="15.1372" y2="14.8293" gradientUnits="userSpaceOnUse">
<stop stop-color="#0DC180"/>
<stop offset="1" stop-color="#04B474"/>
</linearGradient>
<linearGradient id="paint3_linear" x1="22.2969" y1="16.8359" x2="26.61" y2="16.8387" gradientUnits="userSpaceOnUse">
<stop stop-color="#0DC180"/>
<stop offset="1" stop-color="#04B474"/>
</linearGradient>
<linearGradient id="paint4_linear" x1="18.2129" y1="14.2817" x2="31.8306" y2="14.2942" gradientUnits="userSpaceOnUse">
<stop stop-color="#0DC180"/>
<stop offset="1" stop-color="#04B474"/>
</linearGradient>
<linearGradient id="paint5_linear" x1="0" y1="0.226074" x2="29.7201" y2="0.257168" gradientUnits="userSpaceOnUse">
<stop stop-color="#0DC180"/>
<stop offset="1" stop-color="#04B474"/>
</linearGradient>
</defs>
</svg>
