<svg xmlns="http://www.w3.org/2000/svg" viewBox="0 0 30 30"><defs><style>.cls-1{fill:#f99d13;}</style></defs><title>1-torgovie</title><g id="Layer_2" data-name="Layer 2"><g id="Layer_2-2" data-name="Layer 2"><path class="cls-1" d="M29.12,28.26H26.78V20.9h.88a.87.87,0,0,0,.87-.87V8.39a.87.87,0,0,0-.62-.83l-1-.28V.87a.84.84,0,0,0-.36-.7A.89.89,0,0,0,25.8,0L14.63,3.62,2.6,0a.9.9,0,0,0-.78.13.88.88,0,0,0-.35.7V20a.87.87,0,0,0,.87.87h.88v7.36H.88A.87.87,0,1,0,.88,30H29.12a.87.87,0,1,0,0-1.74Zm-4.1,0H23.26V20.9H25Zm-5.1-7.36H21.5v7.36H19.92ZM25.2,2.06v4.7L17.59,4.5Zm-22,15.37h4.1a.87.87,0,1,0,0-1.74H3.22V14h4.1a.87.87,0,1,0,0-1.73H3.22V10.48h4.1a.87.87,0,1,0,0-1.74H3.22V7h4.1a.87.87,0,1,0,0-1.74H3.22V2L26.78,9v3.18h-4.1a.87.87,0,1,0,0,1.73h4.1v1.74h-4.1a.87.87,0,1,0,0,1.74h4.1v1.73H19.92V13.08a.86.86,0,0,0-.88-.86H11.13a.87.87,0,0,0-.88.86v6.08h-7Zm7,3.47v7.36H8.5V20.9ZM5,20.9H6.74v7.36H5Zm11,7.36V21.65a.88.88,0,0,0-1.76,0v6.61H12V14h6.15V28.26Z"/></g></g></svg>