<svg xmlns="http://www.w3.org/2000/svg" viewBox="0 0 30 30"><defs><style>.cls-1{fill:#f99d13;}</style></defs><title>2-sanatorii</title><g id="Layer_2" data-name="Layer 2"><g id="Layer_2-2" data-name="Layer 2"><path class="cls-1" d="M13,6.74h1.17V7.91a.88.88,0,0,0,1.76,0V6.74h1.17a.88.88,0,0,0,0-1.76H15.88V3.81a.88.88,0,0,0-1.76,0V5H13a.88.88,0,1,0,0,1.76ZM29.12,5H20.86V2.1A2.1,2.1,0,0,0,18.76,0H11.24a2.1,2.1,0,0,0-2.1,2.1V5H.88A.87.87,0,0,0,0,5.86V29.12A.87.87,0,0,0,.88,30H29.12a.87.87,0,0,0,.88-.88V5.86A.87.87,0,0,0,29.12,5Zm-.88,1.76V10H20.86V6.74ZM10.9,2.1a.34.34,0,0,1,.34-.34h7.52a.34.34,0,0,1,.34.34V10H10.9V2.1ZM1.76,6.74H9.14V10H1.76Zm12.38,10V28.24H10.57V16.79Zm5.29,0V28.24H15.9V16.79ZM8.81,28.24H5.27V16.79H8.81Zm12.38,0V16.79h3.54V28.24Zm7,0H26.48V15.91a.87.87,0,0,0-.87-.87H4.39a.87.87,0,0,0-.87.87V28.24H1.76V11.72H28.24Z"/></g></g></svg>