<svg xmlns="http://www.w3.org/2000/svg" viewBox="0 0 30 30"><defs><style>.cls-1{fill:#f99d13;}</style></defs><title>3-kotedzh</title><g id="Layer_2" data-name="Layer 2"><g id="Layer_2-2" data-name="Layer 2"><path class="cls-1" d="M16.17,17.05H12.66a.87.87,0,0,0-.88.88v3.52a.87.87,0,0,0,.88.87h3.51a.87.87,0,0,0,.88-.87V17.93A.87.87,0,0,0,16.17,17.05Zm-.88,3.52H13.54V18.81h1.75Z"/><path class="cls-1" d="M9.73,17.05H6.21a.88.88,0,0,0-.88.88v3.52a.88.88,0,0,0,.88.87H9.73a.88.88,0,0,0,.88-.87V17.93A.88.88,0,0,0,9.73,17.05Zm-.88,3.52H7.09V18.81H8.85Z"/><path class="cls-1" d="M29.12,25.25H27.6V15.88h1.52A.88.88,0,0,0,30,14.75L26.88,4.21A.88.88,0,0,0,26,3.57H23.83V1.76a.88.88,0,0,0,0-1.76H18.56a.88.88,0,1,0,0,1.76V3.57H4a.88.88,0,0,0-.84.64L0,14.75a.87.87,0,0,0,.84,1.13H2.4v9.37H.88a.88.88,0,0,0-.88.88v3A.87.87,0,0,0,.88,30H29.12a.87.87,0,0,0,.88-.88v-3A.88.88,0,0,0,29.12,25.25ZM20.32,1.76h1.75V3.57H20.32ZM4.62,5.33H25.38L28,14.12h-7.6l-4.71-5a.88.88,0,0,0-1.28,0l-4.71,5H2.05ZM4.16,15.88H10a.88.88,0,0,0,.65-.28L15,11l4.32,4.64a.88.88,0,0,0,.65.28h5.87v9.37H24.67v-5a3.23,3.23,0,0,0-6.45,0v5H4.16Zm18.75,9.37H20v-5a1.47,1.47,0,0,1,2.93,0v5Zm5.33,3H1.76V27H28.24v1.23Z"/></g></g></svg>