<svg xmlns="http://www.w3.org/2000/svg" viewBox="0 0 30 30"><defs><style>.cls-1{fill:#f99d13;}</style></defs><title>4-restorany</title><g id="Layer_2" data-name="Layer 2"><g id="Layer_2-2" data-name="Layer 2"><path class="cls-1" d="M23.74,20.23,21,22.92a2.63,2.63,0,0,0-2.47-1.71H15.72c-.4,0-.58-.22-1-.58a6.16,6.16,0,0,0-4.68-1.5,6.09,6.09,0,0,0-4,2.08H2.64a.87.87,0,0,0-.88.88v7a.87.87,0,0,0,.88.88H20.33a2.62,2.62,0,0,0,1.87-.77L27.47,24a2.63,2.63,0,0,0-3.73-3.72ZM3.52,23H5.39v5.27H3.52Zm22.71-.26L21,28a.85.85,0,0,1-.62.26H7.15V22.61A4.38,4.38,0,0,1,13.57,22a3,3,0,0,0,2.15,1h2.85a.88.88,0,1,1,0,1.76H15a2.61,2.61,0,0,0-2.13,1.09.88.88,0,1,0,1.42,1,.89.89,0,0,1,.71-.37H19.6a.91.91,0,0,0,.63-.25L25,21.47a.89.89,0,0,1,1.25,0A.88.88,0,0,1,26.23,22.71Zm2.89-6.77h-.91A13.31,13.31,0,0,0,17.45,3.74a2.57,2.57,0,0,0,.25-1.1,2.64,2.64,0,1,0-5.28,0,2.72,2.72,0,0,0,.24,1.1A13.41,13.41,0,0,0,1.79,15.94H.88a.88.88,0,0,0,0,1.76H29.12a.88.88,0,0,0,0-1.76ZM14.18,2.64a.88.88,0,1,1,1.76,0,.88.88,0,1,1-1.76,0Zm.88,2.62A11.49,11.49,0,0,1,26.45,15.94H3.55A11.73,11.73,0,0,1,15.06,5.26Z"/></g></g></svg>