<svg xmlns="http://www.w3.org/2000/svg" viewBox="0 0 30 30"><defs><style>.cls-1{fill:#f99d13;}</style></defs><title>5-prom</title><g id="Layer_2" data-name="Layer 2"><g id="Layer_2-2" data-name="Layer 2"><path class="cls-1" d="M30,23.85a2.64,2.64,0,0,0-2.64-2.64H22.91V16.76a.87.87,0,0,0-.88-.88H17.64V13.24a.87.87,0,0,0-.47-.77.86.86,0,0,0-.9,0l-3.91,2.61V13.24a.88.88,0,0,0-.46-.77.86.86,0,0,0-.9,0L7.09,15.12V7.91A.87.87,0,0,0,6.21,7H2.7a.87.87,0,0,0-.88.88v7.18L.4,16a.89.89,0,0,0-.4.74V29.12A.87.87,0,0,0,.88,30H22a.87.87,0,0,0,.88-.88V26.48h3.57v2.64a.88.88,0,0,0,.88.88h1.76a.88.88,0,1,0,0-1.76h-.88V26.33A2.63,2.63,0,0,0,30,23.85ZM3.57,8.79H5.33v4L3.57,13.93ZM15.88,28.24H14.12V23h1.76Zm5.27,0H17.64V22.09a.88.88,0,0,0-.88-.88H13.24a.88.88,0,0,0-.88.88v6.15H1.76v-11s3.57-2.35,3.57-2.36v1.89a.87.87,0,0,0,.47.77.86.86,0,0,0,.9,0l3.91-2.61v1.88a.88.88,0,0,0,1.36.73l3.91-2.61v1.88a.88.88,0,0,0,.88.88h4.39ZM22.91,23h4.45a.88.88,0,1,1,0,1.76H22.91ZM9.73,21.21H4.45a.88.88,0,0,0-.88.88v3.52a.88.88,0,0,0,.88.87H9.73a.88.88,0,0,0,.88-.87V22.09a.88.88,0,0,0-.88-.88Zm-.88,3.52H5.33V23H8.85ZM5.33,4.39a.88.88,0,0,1,.88-.87H9.73A2.64,2.64,0,0,0,12.36.88a.88.88,0,1,0-1.75,0,.89.89,0,0,1-.88.88H6.21A2.64,2.64,0,0,0,3.57,4.39a.88.88,0,1,0,1.76,0Z"/></g></g></svg>