<svg xmlns="http://www.w3.org/2000/svg" viewBox="0 0 30 30"><defs><style>.cls-1{fill:#f99d13;}</style></defs><title>6-mob</title><g id="Layer_2" data-name="Layer 2"><g id="Layer_2-2" data-name="Layer 2"><path class="cls-1" d="M23.87,28.24H22.78c-.19-.73-4.9-18.72-5-18.9a3.52,3.52,0,1,0-5.6,0c-.05.18-4.76,18.17-4.95,18.9H6.19a.88.88,0,0,0,0,1.76H23.87a.88.88,0,1,0,0-1.76ZM20,24.73l-3.27-1.9,2.41-1.4Zm-1.88-7.19L16.36,16l1.12-1ZM15,5.44A1.76,1.76,0,1,1,13.25,7.2,1.76,1.76,0,0,1,15,5.44Zm-1.28,5a3.59,3.59,0,0,0,2.56,0L17,13.06l-2,1.72-2-1.72ZM12.57,15l1.13,1-1.81,1.6ZM15,17.12,18.23,20,15,21.81,11.82,20Zm-4.15,4.32,2.4,1.39L10,24.73Zm-1.79,6.8.3-1.11L15,23.85l5.65,3.28L21,28.24ZM5.39,12.5a.89.89,0,0,1-.8-.51,11.41,11.41,0,0,1,0-9.58.88.88,0,1,1,1.6.74,9.64,9.64,0,0,0,0,8.1A.88.88,0,0,1,5.39,12.5ZM3.17,1.28a13.13,13.13,0,0,0,0,11.84.87.87,0,0,1-.39,1.18.88.88,0,0,1-1.18-.38A14.93,14.93,0,0,1,1.6.48.89.89,0,0,1,2.78.09.88.88,0,0,1,3.17,1.28ZM7.6,10a7.84,7.84,0,0,1,0-5.64.88.88,0,0,1,1.13-.51A.9.9,0,0,1,9.24,5a6.07,6.07,0,0,0,0,4.38.9.9,0,0,1-.51,1.14A.88.88,0,0,1,7.6,10ZM25.46,2.41a11.38,11.38,0,0,1,0,9.58.88.88,0,1,1-1.59-.74,9.64,9.64,0,0,0,0-8.1.88.88,0,1,1,1.59-.74Zm3,11.51a.88.88,0,0,1-1.56-.8,13.38,13.38,0,0,0-.06-11.84A.89.89,0,0,1,27.21.09.9.9,0,0,1,28.4.48,15.12,15.12,0,0,1,28.45,13.92ZM20.82,9.39a6.12,6.12,0,0,0,0-4.38.88.88,0,1,1,1.64-.63,7.89,7.89,0,0,1,0,5.64.88.88,0,1,1-1.64-.63Z"/></g></g></svg>