<svg xmlns="http://www.w3.org/2000/svg" viewBox="0 0 30 30"><defs><style>.cls-1{fill:#f99d13;}</style></defs><title>7-azs</title><g id="Layer_2" data-name="Layer 2"><g id="Layer_2-2" data-name="Layer 2"><path class="cls-1" d="M8.41,16H4.64a.88.88,0,0,0,0,1.76H8.41a.88.88,0,0,0,0-1.76ZM19.8,17.75a1.83,1.83,0,0,1,1.83,1.82v3.09a3.6,3.6,0,0,0,3.59,3.57h1.19A3.58,3.58,0,0,0,30,22.65V16.88A82.46,82.46,0,0,0,28.1,1.63.89.89,0,0,0,27,1a.88.88,0,0,0-.66,1s.24,1.07.54,2.7H25.36a.89.89,0,0,0-.87.7l-.94,4.71a.88.88,0,0,0,.86,1.05h3.48c.44,4,.35,5.43.35,11.48a1.83,1.83,0,0,1-1.82,1.83H25.23a1.83,1.83,0,0,1-1.83-1.82V19.57A3.6,3.6,0,0,0,19.8,16H18.7V3a3,3,0,0,0-3-3H3A3,3,0,0,0,0,3V29.12A.87.87,0,0,0,.88,30H29.12a.88.88,0,1,0,0-1.76H18.7V17.75Zm5.69-8.34.59-2.95h1.15c.15.91.3,1.9.44,3ZM17,28.24H1.76V13.05H17ZM6.6,11.3a2.9,2.9,0,0,1,2.73-2l-.62,2Zm4,0L11,9.82A2.81,2.81,0,0,1,12.1,11.3Zm6.4,0h-3a4.65,4.65,0,0,0-2.36-3.21l1-3.18a.88.88,0,1,0-1.67-.53l-1,3.18A4.65,4.65,0,0,0,4.79,11.3h-3V3A1.21,1.21,0,0,1,3,1.76H15.73A1.22,1.22,0,0,1,17,3Z"/></g></g></svg>