<svg xmlns="http://www.w3.org/2000/svg" viewBox="0 0 54.68 70"><defs><style>.cls-1{fill:#f99d13;}.cls-2{fill:#2286da;}</style></defs><title>3</title><g id="Layer_2" data-name="Layer 2"><g id="Layer_2-2" data-name="Layer 2"><path class="cls-1" d="M54,16.68,28.21.25a1.6,1.6,0,0,0-1.71,0L.74,16.68A1.57,1.57,0,0,0,0,18V32.26A36.27,36.27,0,0,0,15.28,61.81l11.14,7.91a1.65,1.65,0,0,0,1.83,0L39.4,61.81A36.3,36.3,0,0,0,54.68,32.26V18A1.56,1.56,0,0,0,54,16.68Zm-2.42,15.6a33.11,33.11,0,0,1-14,27L27.35,66.51,17.13,59.25a33.11,33.11,0,0,1-13.95-27V18.9L27.35,3.47,51.53,18.9Z"/><path class="cls-2" d="M19,33.09a1.57,1.57,0,1,0-2.26,2.19L23.24,42a1.6,1.6,0,0,0,2.23.05L38,30.24A1.57,1.57,0,1,0,35.84,28L24.45,38.71Z"/></g></g></svg>