<svg xmlns="http://www.w3.org/2000/svg" viewBox="0 0 69.86 70"><defs><style>.cls-1{fill:#f99d13;}.cls-2{fill:#2286da;}</style></defs><title>2</title><g id="Layer_2" data-name="Layer 2"><g id="Layer_2-2" data-name="Layer 2"><path class="cls-1" d="M58.13,32.3l.15-22.57a4,4,0,0,0-3.93-4L51,5.71l0-4A1.42,1.42,0,0,0,49.61.3L40.77.24h0a1.43,1.43,0,0,0-1.43,1.41l0,4-20-.14,0-4A1.43,1.43,0,0,0,17.91.06L9.1,0A1.45,1.45,0,0,0,7.65,1.42l0,4H4.26A4,4,0,0,0,1.47,6.54,3.89,3.89,0,0,0,.3,9.33L0,52.85a4.07,4.07,0,0,0,1.14,2.82,4,4,0,0,0,2.79,1.18L31.67,57a19.76,19.76,0,0,0,4.51,7.11A19.47,19.47,0,0,0,50.06,70h.14a19.69,19.69,0,0,0,7.93-37.7Zm-7.81-1.66h-.15c-.58,0-1.16,0-1.73.07l-3.69,0,.06-8.42,10.51.08,0,8.41-3.08,0c-.62,0-1.25-.1-1.87-.1Zm-34,11.13.06-8.41,11.32.07-.06,8.42Zm11.31,2.94-.06,9.42-11.32-.07.06-9.42ZM42,22.27l-.06,8.42-11.32-.08.06-8.41Zm-14.24,8.3L16.4,30.5l.05-8.41,11.32.07Zm-14.18-.08L3,30.42,3.08,22l10.51.07Zm0,2.86-.06,8.41L3,41.69l0-8.41Zm17,.11,9.37.06a20,20,0,0,0-3.56,2.79,19.69,19.69,0,0,0-4,5.56H30.5ZM42.19,3.1l6,0-.06,8.77-5.95-.05ZM10.53,2.89l6,0-.06,8.77-6,0Zm-7,5.68a1.18,1.18,0,0,1,.77-.32h0l3.35,0,0,4.8a1.37,1.37,0,0,0,.41,1,1.45,1.45,0,0,0,1,.42l8.81,0h0a1.45,1.45,0,0,0,1-.4,1.42,1.42,0,0,0,.42-1l0-4.8,20,.15,0,4.79a1.45,1.45,0,0,0,1.42,1.46l8.81.09h0a1.47,1.47,0,0,0,1.43-1.45l0-4.81,3.35,0a1.09,1.09,0,0,1,.78.33,1.06,1.06,0,0,1,.32.78l-.07,9.79L3.09,19.14l.07-9.78a1.11,1.11,0,0,1,.33-.79Zm-.3,45.08a1.15,1.15,0,0,1-.31-.79l.05-8.32,10.52.07L13.39,54,4,54a1.11,1.11,0,0,1-.79-.33Zm27.23.51,0-9.42h.83a19.94,19.94,0,0,0-.43,9.42ZM62,62.29a16.66,16.66,0,0,1-11.8,4.85h-.11a16.81,16.81,0,0,1-1.52-33.55l3.46,0A16.8,16.8,0,0,1,62,62.29Z"/><path class="cls-2" d="M51.13,51.62l0-7a1.43,1.43,0,1,0-2.86,0l-.06,7.59a1.45,1.45,0,0,0,.42,1L52.48,57a1.42,1.42,0,0,0,2-2Z"/></g></g></svg>