<svg xmlns="http://www.w3.org/2000/svg" viewBox="0 0 69.96 70"><defs><style>.cls-1{fill:#2286da;}.cls-2{fill:#f99d13;}</style></defs><title>1</title><g id="Layer_2" data-name="Layer 2"><g id="Layer_2-2" data-name="Layer 2"><path class="cls-1" d="M42.79,28.5,32.28,38.43l-5.05-5.19a1.46,1.46,0,0,0-2.09,2l6.06,6.21a1.46,1.46,0,0,0,2.05,0L44.82,30.61a1.45,1.45,0,0,0,.46-1,1.47,1.47,0,0,0-.4-1,1.49,1.49,0,0,0-2.09-.06Z"/><path class="cls-2" d="M35,13.21A21.8,21.8,0,1,0,56.78,35,21.82,21.82,0,0,0,35,13.21Zm0,40.67A18.88,18.88,0,1,1,53.87,35,18.9,18.9,0,0,1,35,53.88Z"/><path class="cls-2" d="M65,27l.48-8.65a1.45,1.45,0,0,0-.8-1.39L57,13.05l-3.9-7.7a1.48,1.48,0,0,0-1.38-.81L43,5,35.79.24a1.45,1.45,0,0,0-1.6,0L27,5l-8.66-.48a1.45,1.45,0,0,0-1.38.8L13,13l-7.7,3.9a1.48,1.48,0,0,0-.8,1.39L5,27,.24,34.19a1.45,1.45,0,0,0,0,1.6L5,43l-.49,8.65a1.46,1.46,0,0,0,.81,1.38L13,57l3.89,7.7a1.48,1.48,0,0,0,1.39.8L27,65l7.22,4.77a1.43,1.43,0,0,0,1.61,0L43,65l8.65.48a1.44,1.44,0,0,0,1.38-.8l3.9-7.7,7.7-3.9a1.45,1.45,0,0,0,.8-1.38L65,43l4.77-7.22a1.47,1.47,0,0,0,0-1.61ZM62.27,41.83a1.35,1.35,0,0,0-.23.89l.45,8.18-7.28,3.68a1.42,1.42,0,0,0-.64.64L50.89,62.5l-8.18-.45a1.6,1.6,0,0,0-.89.23L35,66.79l-6.83-4.51a1.4,1.4,0,0,0-.8-.24h-.07l-8.19.45-3.67-7.28a1.44,1.44,0,0,0-.65-.64L7.49,50.9l.45-8.18a1.65,1.65,0,0,0-.23-.89L3.2,35l4.51-6.82a1.35,1.35,0,0,0,.23-.89L7.49,19.1l7.28-3.67a1.47,1.47,0,0,0,.64-.64l3.68-7.28L27.27,8a1.57,1.57,0,0,0,.89-.24L35,3.22l6.83,4.5a1.34,1.34,0,0,0,.89.24l8.18-.45,3.68,7.28a1.42,1.42,0,0,0,.64.64l7.28,3.67L62,27.29a1.49,1.49,0,0,0,.23.89L66.78,35Z"/></g></g></svg>