<svg xmlns="http://www.w3.org/2000/svg" viewBox="0 0 137.89 120"><defs><style>.cls-1{fill:#ccc;}.cls-2{fill:#bfbfbf;}.cls-3{fill:#fff;}.cls-4{fill:#f99d13;}.cls-5{fill:#4c91bf;}.cls-6{fill:#3d82b0;}.cls-7{fill:#65add5;}.cls-8{fill:#569ec6;}</style></defs><title>dom-2</title><g id="Layer_2" data-name="Layer 2"><g id="Layer_2-2" data-name="Layer 2"><polygon class="cls-1" points="83.52 60.28 83.52 102.55 16.66 102.55 16.66 60.28 50.08 40.99 83.52 60.28"/><polygon class="cls-2" points="121.23 22.57 121.23 64.84 83.52 102.55 83.52 60.28 121.23 22.57"/><polygon class="cls-3" points="123.39 56.33 87.91 93.17 87.91 53.69 79.12 53.69 79.12 98.16 54.48 98.16 54.48 38.79 45.69 38.79 45.69 98.16 14.46 98.16 14.46 106.95 86.62 106.95 123.47 68.79 123.39 56.33"/><polygon class="cls-4" points="85.72 104.75 121.26 67.91 121.22 61.74 85.72 98.62 85.72 55.89 81.32 55.89 81.32 100.36 52.28 100.36 52.28 40.99 47.89 40.99 47.89 100.36 16.66 100.36 16.66 104.75 85.71 104.75 85.71 104.75 85.71 104.75 85.72 104.75 85.72 104.75"/><polygon class="cls-5" points="100.17 66.63 137.89 28.91 87.8 0 50.09 37.72 100.17 66.63"/><polygon class="cls-6" points="98.76 69.08 136.48 31.37 137.89 28.91 100.17 66.63 98.76 69.08"/><polygon class="cls-7" points="37.72 28.91 0 66.63 50.09 37.72 87.8 0 37.72 28.91"/><path class="cls-6" d="M100.92,58.86l-2.46-1.42.59-1,2.46,1.42ZM96,56l-2.46-1.41.59-1L96.6,55ZM91.1,53.19l-2.46-1.42.59-1,2.46,1.42Zm-4.91-2.84-2.46-1.41.59-1,2.46,1.41Zm-4.91-2.83L78.82,46.1l.59-1,2.46,1.42Zm-4.91-2.83-2.46-1.42.59-1L77,43.66Zm-4.91-2.84L69,40.43l.59-1,2.46,1.42ZM66.55,39,64.09,37.6l.59-1L67.14,38Zm-4.92-2.84-2.45-1.42.59-1,2.45,1.42Z"/><path class="cls-6" d="M106.21,53.57l-2.46-1.42.59-1,2.46,1.41Zm-4.91-2.84-2.46-1.41.59-1,2.46,1.42ZM96.39,47.9l-2.46-1.42.59-1L97,46.88Zm-4.91-2.84L89,43.65l.59-1L92.07,44Zm-4.91-2.83-2.46-1.42.59-1,2.46,1.42Zm-4.91-2.84L79.2,38l.59-1,2.46,1.42Zm-4.91-2.83-2.46-1.42.59-1,2.46,1.42Zm-4.91-2.83-2.46-1.42.59-1,2.46,1.41Zm-4.92-2.84-2.45-1.42.59-1,2.45,1.42Z"/><path class="cls-6" d="M111.5,48.28l-2.45-1.42.59-1,2.45,1.41Zm-4.91-2.84L104.13,44l.6-1,2.45,1.42Zm-4.91-2.83-2.46-1.42.59-1,2.46,1.42Zm-4.91-2.84-2.46-1.41.59-1,2.46,1.42Zm-4.91-2.83L89.4,35.52l.59-1,2.46,1.42ZM87,34.1l-2.46-1.41.59-1,2.46,1.42ZM82,31.27l-2.46-1.42.59-1,2.46,1.42Zm-4.91-2.84L74.67,27l.59-1,2.46,1.42ZM72.22,25.6l-2.46-1.42.59-1,2.46,1.42Z"/><path class="cls-6" d="M116.79,43l-2.45-1.42.59-1L117.38,42Zm-4.91-2.84-2.45-1.42.59-1,2.45,1.42ZM107,37.32l-2.46-1.42.6-1,2.45,1.42Zm-4.91-2.84L99.6,33.06l.59-1,2.46,1.42Zm-4.91-2.83-2.46-1.42.59-1,2.46,1.42Zm-4.91-2.84L89.78,27.4l.59-1,2.46,1.42ZM87.33,26l-2.46-1.42.59-1L87.92,25Zm-4.91-2.84L80,21.73l.59-1L83,22.12Zm-4.91-2.83-2.46-1.42.59-1,2.46,1.42Z"/><path class="cls-6" d="M122.08,37.7l-2.45-1.42.59-1,2.45,1.41Zm-4.91-2.84-2.45-1.42.59-1,2.45,1.42ZM112.26,32l-2.45-1.42.59-1L112.85,31Zm-4.91-2.84-2.45-1.42.59-1,2.45,1.42Zm-4.91-2.83L100,24.94l.59-1L103,25.33Zm-4.91-2.84-2.46-1.41.59-1,2.46,1.42Zm-4.91-2.83-2.46-1.42.59-1,2.46,1.42Zm-4.91-2.84-2.46-1.41.59-1,2.46,1.42ZM82.8,15,80.34,13.6l.59-1L83.39,14Z"/><path class="cls-6" d="M127.37,32.41,124.92,31l.59-1L128,31.38Zm-4.91-2.84L120,28.15l.59-1,2.45,1.42Zm-4.91-2.83-2.45-1.42.59-1,2.45,1.41Zm-4.91-2.84-2.45-1.42.59-1,2.45,1.42Zm-4.91-2.83-2.46-1.42.6-1L108.32,20Zm-4.91-2.84-2.46-1.42.59-1,2.46,1.42ZM97.91,15.4,95.45,14,96,13l2.46,1.41ZM93,12.56l-2.46-1.41.59-1,2.46,1.42ZM88.09,9.73,85.63,8.31l.59-1,2.46,1.42Z"/><path class="cls-5" d="M14.79,54.26l-.35-.61,2.45-1.42.36.61Zm4.91-2.83-.35-.62,2.46-1.42.35.62Zm4.91-2.84L24.26,48l2.46-1.42.35.61Zm4.91-2.83-.35-.62,2.46-1.41.35.61Zm4.92-2.84-.36-.61,2.46-1.42.35.61Zm4.91-2.83L39,39.47l2.46-1.41.35.61Zm4.91-2.84-.36-.61,2.46-1.42.35.62Zm4.91-2.83-.36-.62,2.46-1.41.35.61Zm4.91-2.84L53.72,31l2.46-1.42.35.62Z"/><path class="cls-5" d="M23.63,45.43l-.36-.62,2.46-1.41.35.61Zm4.91-2.84L28.18,42l2.46-1.42.35.62Zm4.91-2.83-.36-.62,2.46-1.41.35.61Zm4.91-2.84L38,36.31l2.46-1.42.35.62Zm4.91-2.83-.36-.61,2.46-1.42.35.61Zm4.91-2.84-.36-.61,2.46-1.42.35.62Zm4.91-2.83-.36-.61,2.46-1.42.35.61ZM58,25.58,57.65,25l2.45-1.42.36.62Zm4.91-2.83-.35-.61L65,20.72l.36.61Z"/><path class="cls-5" d="M32.46,36.59,32.11,36l2.45-1.42.35.62Zm4.91-2.83L37,33.15l2.45-1.42.36.61Zm4.91-2.84-.35-.61,2.45-1.42.36.62Zm4.91-2.83-.35-.61,2.45-1.42.36.61Zm4.91-2.83-.35-.62,2.45-1.41.36.61ZM57,22.42l-.35-.61,2.45-1.42.36.61Zm4.91-2.83L61.57,19,64,17.56l.36.61Zm4.91-2.84-.35-.61,2.45-1.42.36.61Zm4.91-2.83-.35-.62,2.45-1.41.36.61Z"/><polygon class="cls-8" points="100.18 66.63 98.76 69.08 83.52 60.28 50.08 40.99 16.66 60.28 1.42 69.08 0 66.63 16.66 57.01 50.08 37.72 83.52 57.01 100.18 66.63"/><path d="M50.49,107.89a7.6,7.6,0,0,1,2.42.33,3.81,3.81,0,0,1,1.55,1,3.4,3.4,0,0,1,.82,1.49,7.46,7.46,0,0,1,.24,2v6.81q-.71.15-2,.36a18.8,18.8,0,0,1-3,.21,9.77,9.77,0,0,1-2-.2,4.37,4.37,0,0,1-1.57-.65,2.93,2.93,0,0,1-1-1.17,4.15,4.15,0,0,1-.35-1.78,3.3,3.3,0,0,1,.41-1.72,3.22,3.22,0,0,1,1.08-1.12,5.12,5.12,0,0,1,1.56-.6,8.48,8.48,0,0,1,1.83-.19,9.52,9.52,0,0,1,1.13.06,4.19,4.19,0,0,1,.8.14v-.31a1.85,1.85,0,0,0-.5-1.34,2.45,2.45,0,0,0-1.76-.5,11.24,11.24,0,0,0-1.65.12,6.94,6.94,0,0,0-1.41.34l-.42-2.64.72-.19c.28-.06.6-.12.93-.17s.7-.1,1.07-.13A10.55,10.55,0,0,1,50.49,107.89Zm.26,9.58c.33,0,.63,0,.93,0a5.11,5.11,0,0,0,.7-.07V114.9a5.9,5.9,0,0,0-.59-.09,6.53,6.53,0,0,0-.73,0,7.85,7.85,0,0,0-.87,0,2.37,2.37,0,0,0-.71.21,1.24,1.24,0,0,0-.48.42,1.16,1.16,0,0,0-.18.66,1.13,1.13,0,0,0,.52,1.07A2.91,2.91,0,0,0,50.75,117.47Z"/><path d="M120.8,95.3a7.29,7.29,0,0,1-.4,2.5,5.35,5.35,0,0,1-1.18,1.92,5.27,5.27,0,0,1-1.89,1.22,7.25,7.25,0,0,1-2.55.42c-.39,0-.81,0-1.24,0l-1.27-.14q-.63-.09-1.2-.21c-.38-.08-.72-.17-1-.25V84.55l3.27-.52v5.75a6.6,6.6,0,0,1,1.14-.37,5.78,5.78,0,0,1,1.28-.13,5.13,5.13,0,0,1,2.17.43,4.24,4.24,0,0,1,1.59,1.22,5.48,5.48,0,0,1,1,1.9A8.63,8.63,0,0,1,120.8,95.3Zm-3.34-.09c0-2.11-.77-3.16-2.33-3.16a3.81,3.81,0,0,0-1,.13,3,3,0,0,0-.8.33v5.95a6,6,0,0,0,.62.08q.38,0,.81,0a2.34,2.34,0,0,0,2-.92A4,4,0,0,0,117.46,95.21Z"/><path d="M24.55,78.21V61.68l3.27-.52v5.53a6.77,6.77,0,0,1,.85-.2,5,5,0,0,1,1-.1,6.29,6.29,0,0,1,2.34.38,3.64,3.64,0,0,1,1.49,1.09,4.25,4.25,0,0,1,.8,1.67,9.45,9.45,0,0,1,.23,2.15v6.53H31.25V72.08a4.52,4.52,0,0,0-.4-2.24,1.65,1.65,0,0,0-1.51-.66,4.25,4.25,0,0,0-.82.07l-.7.17v8.79Z"/><path d="M42.31,64.34a2.32,2.32,0,0,1-.19.94,4.38,4.38,0,0,1-.5.86,8.7,8.7,0,0,1-.69.81c-.26.25-.51.5-.76.73l-.42.4-.43.45L39,69a1.14,1.14,0,0,0-.2.33h3.82v1.6H36.66a1.73,1.73,0,0,1,0-.36v-.3a3.15,3.15,0,0,1,.2-1.13,4.46,4.46,0,0,1,.52-1,5.64,5.64,0,0,1,.73-.82l.8-.77.57-.56a5.61,5.61,0,0,0,.48-.51,2.79,2.79,0,0,0,.32-.5,1.34,1.34,0,0,0,.11-.51.89.89,0,0,0-.32-.79,1.27,1.27,0,0,0-.79-.23,1.74,1.74,0,0,0-.65.11,4,4,0,0,0-.55.25,3.2,3.2,0,0,0-.43.3l-.27.23L36.4,63a4.77,4.77,0,0,1,1.32-.86,3.77,3.77,0,0,1,1.6-.34,4.5,4.5,0,0,1,1.35.18,2.66,2.66,0,0,1,.93.5,2.1,2.1,0,0,1,.54.8A3.12,3.12,0,0,1,42.31,64.34Z"/><path d="M59.8,93.1V76.58l3.27-.53v5.54a5.26,5.26,0,0,1,.85-.21,5,5,0,0,1,1-.1,6.29,6.29,0,0,1,2.34.38,3.74,3.74,0,0,1,1.5,1.09,4.38,4.38,0,0,1,.79,1.67,9.54,9.54,0,0,1,.23,2.16V93.1H66.5V87a4.55,4.55,0,0,0-.4-2.24,1.65,1.65,0,0,0-1.51-.66,4.22,4.22,0,0,0-.82.08c-.26,0-.49.1-.7.16V93.1Z"/><path d="M72.1,78.75c.25-.1.51-.22.78-.35a8.78,8.78,0,0,0,.79-.44c.25-.16.5-.32.73-.5a5,5,0,0,0,.64-.55h1.33v8.87H74.46V79.39a5.82,5.82,0,0,1-.86.47,9.68,9.68,0,0,1-.92.36Z"/></g></g></svg>