<svg xmlns="http://www.w3.org/2000/svg" viewBox="0 0 129.79 120"><defs><style>.cls-1{fill:#bfbfbf;}.cls-2{fill:#ccc;}.cls-3{fill:#fff;}.cls-4{fill:#f99d13;}.cls-5{fill:#569ec6;}.cls-6{fill:#65add5;}.cls-7{fill:#4c91bf;}</style></defs><title>dom-1</title><g id="Layer_2" data-name="Layer 2"><g id="Layer_2-2" data-name="Layer 2"><polygon class="cls-1" points="119.64 6.12 119.64 69.47 87.37 101.74 87.37 38.38 119.64 6.12"/><path class="cls-2" d="M87.37,38.38v63.36H18.16V38.38Z"/><path class="cls-3" d="M90.65,106.32H15.87V97.15H82.79V36.09H92V92.15l29.93-31.64.08,13.1Zm-70.19-4.58h0Z"/><polygon class="cls-4" points="119.63 66.23 89.67 97.91 89.67 38.38 85.08 38.38 85.08 99.44 18.16 99.44 18.16 104.03 89.67 104.03 119.67 72.7 119.63 66.23"/><rect class="cls-5" y="37.93" width="91.86" height="7.29"/><polygon class="cls-6" points="0 37.93 91.86 37.93 129.79 0 37.93 0 0 37.93"/><polygon class="cls-7" points="91.86 45.22 129.79 7.29 129.79 0 91.86 37.93 91.86 45.22"/><path class="cls-7" d="M13.47,34.82l-.8-.81,1.85-1.85.81.8Zm3.71-3.71-.8-.81,1.85-1.85.81.8Zm3.71-3.71-.8-.81,1.85-1.85.81.8Zm3.71-3.71-.8-.81L25.65,21l.81.8ZM28.31,20l-.8-.81,1.85-1.85.81.8ZM32,16.27l-.8-.81,1.85-1.85.81.8Zm3.71-3.71-.8-.81L36.78,9.9l.81.8Zm3.71-3.71L38.64,8l1.85-1.85.81.8Zm3.71-3.71-.8-.81L44.2,2.48l.81.8Z"/><path class="cls-7" d="M22.56,34.82l-.8-.81,1.85-1.85.81.8Zm3.72-3.71-.81-.81,1.85-1.85.81.8ZM30,27.4l-.81-.81L31,24.74l.81.8Zm3.71-3.71-.81-.81L34.74,21l.81.8ZM37.41,20l-.81-.81,1.85-1.85.81.8Zm3.71-3.71-.81-.81,1.86-1.85.8.8Zm3.71-3.71L44,11.75,45.88,9.9l.8.8Zm3.71-3.71L47.73,8l1.86-1.85.8.8Zm3.71-3.71-.81-.81L53.3,2.48l.8.8Z"/><path class="cls-7" d="M31.66,34.82,30.85,34l1.86-1.85.8.8Zm3.71-3.71-.81-.81,1.86-1.85.8.8Zm3.71-3.71-.81-.81,1.86-1.85.8.8Zm3.71-3.71L42,22.88,43.84,21l.8.8ZM46.5,20l-.81-.81,1.86-1.85.8.8Zm3.71-3.71-.81-.81,1.86-1.85.8.8Zm3.71-3.71-.81-.81L55,9.9l.81.8Zm3.71-3.71L56.82,8l1.86-1.85.81.8Zm3.71-3.71-.81-.81,1.86-1.85.81.8Z"/><path class="cls-7" d="M40.75,34.82,40,34l1.85-1.85.81.8Zm3.71-3.71-.8-.81,1.85-1.85.81.8Zm3.71-3.71-.8-.81,1.85-1.85.81.8Zm3.71-3.71-.8-.81L52.93,21l.81.8ZM55.59,20l-.8-.81,1.85-1.85.81.8Zm3.71-3.71-.8-.81,1.85-1.85.81.8ZM63,12.56l-.8-.81L64.06,9.9l.81.8Zm3.71-3.71L65.92,8l1.85-1.85.81.8Zm3.71-3.71-.8-.81,1.85-1.85.81.8Z"/><path class="cls-7" d="M49.84,34.82,49,34l1.85-1.85.81.8Zm3.72-3.71-.81-.81,1.85-1.85.81.8Zm3.71-3.71-.81-.81,1.85-1.85.81.8ZM61,23.69l-.81-.81L62,21l.8.8ZM64.69,20l-.81-.81,1.86-1.85.8.8Zm3.71-3.71-.81-.81,1.86-1.85.8.8Zm3.71-3.71-.81-.81L73.16,9.9l.8.8Zm3.71-3.71L75,8l1.86-1.85.8.8Zm3.71-3.71-.81-.81,1.86-1.85.8.8Z"/><path class="cls-7" d="M58.94,34.82,58.13,34,60,32.16l.8.8Zm3.71-3.71-.81-.81,1.86-1.85.8.8Zm3.71-3.71-.81-.81,1.86-1.85.8.8Zm3.71-3.71-.81-.81L71.12,21l.8.8ZM73.78,20,73,19.17l1.86-1.85.8.8Zm3.71-3.71-.81-.81,1.86-1.85.8.8Zm3.71-3.71-.81-.81L82.25,9.9l.81.8Zm3.71-3.71L84.1,8,86,6.19l.81.8Zm3.71-3.71-.8-.81,1.85-1.85.81.8Z"/><path class="cls-7" d="M68,34.82l-.8-.81,1.85-1.85.81.8Zm3.71-3.71-.8-.81,1.85-1.85.81.8Zm3.71-3.71-.8-.81,1.85-1.85.81.8Zm3.71-3.71-.8-.81L80.21,21l.81.8ZM82.87,20l-.8-.81,1.85-1.85.81.8Zm3.71-3.71-.8-.81,1.85-1.85.81.8Zm3.71-3.71-.8-.81L91.34,9.9l.81.8ZM94,8.85,93.2,8l1.85-1.85.81.8Zm3.71-3.71-.8-.81,1.85-1.85.81.8Z"/><path class="cls-7" d="M77.13,34.82,76.32,34l1.85-1.85L79,33Zm3.71-3.71L80,30.3l1.85-1.85.81.8Zm3.71-3.71-.81-.81,1.85-1.85.81.8Zm3.71-3.71-.81-.81L89.31,21l.8.8ZM92,20l-.81-.81L93,17.32l.8.8Zm3.71-3.71-.81-.81,1.86-1.85.8.8Zm3.71-3.71-.81-.81,1.86-1.85.8.8Zm3.71-3.71L102.29,8l1.86-1.85.8.8Zm3.71-3.71L106,4.33l1.86-1.85.8.8Z"/><path class="cls-7" d="M86.22,34.82,85.41,34l1.86-1.85.8.8Zm3.71-3.71-.81-.81L91,28.45l.8.8Zm3.71-3.71-.81-.81,1.86-1.85.8.8Zm3.71-3.71-.81-.81L98.4,21l.8.8ZM101.06,20l-.81-.81,1.86-1.85.81.8Zm3.71-3.71-.81-.81,1.86-1.85.81.8Zm3.71-3.71-.81-.81,1.86-1.85.81.8Zm3.71-3.71L111.38,8l1.86-1.85.81.8Zm3.71-3.71-.8-.81L117,2.48l.81.8Z"/><path d="M51.63,107.36a8,8,0,0,1,2.53.35,4,4,0,0,1,1.61,1,3.62,3.62,0,0,1,.86,1.56,7.65,7.65,0,0,1,.25,2v7.11c-.48.11-1.16.24-2,.38a19,19,0,0,1-3.16.22,9.82,9.82,0,0,1-2.12-.21,4.49,4.49,0,0,1-1.64-.67,3.23,3.23,0,0,1-1.06-1.23A4.28,4.28,0,0,1,46.5,116a3.56,3.56,0,0,1,.42-1.79,3.2,3.2,0,0,1,1.14-1.17,5.07,5.07,0,0,1,1.62-.63,9.17,9.17,0,0,1,1.91-.19,10.43,10.43,0,0,1,1.18.06,4.86,4.86,0,0,1,.84.14v-.32a1.92,1.92,0,0,0-.53-1.4,2.58,2.58,0,0,0-1.84-.52,12.32,12.32,0,0,0-1.72.12,8,8,0,0,0-1.46.36l-.44-2.75.74-.2c.3-.07.63-.13,1-.18s.72-.1,1.11-.14A11.66,11.66,0,0,1,51.63,107.36Zm.28,10,1,0c.31,0,.55,0,.74-.07v-2.59l-.62-.09a7.24,7.24,0,0,0-.76,0,6.62,6.62,0,0,0-.91.06,2.29,2.29,0,0,0-.74.22,1.14,1.14,0,0,0-.69,1.12,1.16,1.16,0,0,0,.54,1.11A2.94,2.94,0,0,0,51.91,117.36Z"/><path d="M119.93,99.26a7.68,7.68,0,0,1-.42,2.61,5.44,5.44,0,0,1-1.23,2,5.36,5.36,0,0,1-2,1.27,7.38,7.38,0,0,1-2.66.45c-.41,0-.85,0-1.3-.06s-.89-.09-1.33-.15-.85-.13-1.25-.22-.75-.17-1-.26V88l3.42-.55v6a6.12,6.12,0,0,1,2.52-.53,5.44,5.44,0,0,1,2.27.45,4.41,4.41,0,0,1,1.65,1.27,5.93,5.93,0,0,1,1,2A9,9,0,0,1,119.93,99.26Zm-3.48-.09c0-2.2-.81-3.31-2.43-3.31a4.15,4.15,0,0,0-1,.14,2.8,2.8,0,0,0-.83.35v6.21a6.13,6.13,0,0,0,.64.08,7.46,7.46,0,0,0,.85,0,2.45,2.45,0,0,0,2.11-1A4.2,4.2,0,0,0,116.45,99.17Z"/><path d="M67.22,79.12V61.88l3.41-.55v5.78a6.79,6.79,0,0,1,.89-.22,5.31,5.31,0,0,1,1-.1,6.39,6.39,0,0,1,2.44.4,3.71,3.71,0,0,1,1.56,1.13,4.37,4.37,0,0,1,.83,1.75,9.68,9.68,0,0,1,.24,2.24v6.81H74.21V72.73a4.76,4.76,0,0,0-.42-2.34,1.7,1.7,0,0,0-1.57-.69,4.57,4.57,0,0,0-.86.08c-.27,0-.51.11-.73.17v9.17Z"/></g></g></svg>