<svg xmlns="http://www.w3.org/2000/svg" viewBox="0 0 78.47 13">
    <path class="cls-1" d="M6.48.26H9.57V12.74H6.48v-5H3.09v5H0V.26H3.09V4.84H6.48ZM11.3,12.74h3.09V.26H11.3ZM22.39,8.61H25.2a1.5,1.5,0,0,1-.45.66,2.92,2.92,0,0,1-.71.47,3.88,3.88,0,0,1-.83.29,4,4,0,0,1-.82.09,3.22,3.22,0,0,1-1.34-.28A3.44,3.44,0,0,1,20,9.06a3.77,3.77,0,0,1-.74-1.16,3.47,3.47,0,0,1-.28-1.4,3.47,3.47,0,0,1,.28-1.4A3.77,3.77,0,0,1,20,3.94a3.44,3.44,0,0,1,1.1-.78,3.22,3.22,0,0,1,1.34-.28,3.1,3.1,0,0,1,1.69.47,3.21,3.21,0,0,1,1.17,1.23h3.42a6.32,6.32,0,0,0-1-1.88,7.3,7.3,0,0,0-1.5-1.44A6.9,6.9,0,0,0,24.35.33a6,6,0,0,0-2-.33,6.51,6.51,0,0,0-2.57.51,6.88,6.88,0,0,0-2.11,1.4A6.59,6.59,0,0,0,16.29,4a6.41,6.41,0,0,0,0,5.06,6.59,6.59,0,0,0,1.42,2.06,6.88,6.88,0,0,0,2.11,1.4,6.51,6.51,0,0,0,2.57.51A6,6,0,0,0,25,12.45a6.69,6.69,0,0,0,2.09-1.52,7.36,7.36,0,0,0,1.93-5H22.39ZM36.85,4.84h-3.4V.26H30.37V12.74h3.08v-5h3.4v5h3.09V.26H36.85Zm15.2,2.73V.26H49.31L44.74,7.57V.26H41.65V12.74h3.09L49,5.89v6.85h3.38L60.56.26H56.63Zm9,5.17h7.21V9.86H64.17V7.75h4.12V4.87H65A.87.87,0,0,1,64.17,4h0A.87.87,0,0,1,65,3.14h3.26V.26H61.08ZM78.33,7.9A3.32,3.32,0,0,0,78,7.07a3.24,3.24,0,0,0-.52-.64A4.55,4.55,0,0,0,76.8,6a2.86,2.86,0,0,0,.72-1,3.27,3.27,0,0,0,.27-1.34,3.09,3.09,0,0,0-.29-1.31,3.25,3.25,0,0,0-.82-1.06A4.18,4.18,0,0,0,75.47.53,4.05,4.05,0,0,0,74,.26h-4V12.74h4.21a4.87,4.87,0,0,0,1.73-.3,4.25,4.25,0,0,0,1.37-.83,3.83,3.83,0,0,0,.9-1.21,3.56,3.56,0,0,0,.32-1.49A3.52,3.52,0,0,0,78.33,7.9Z"/>
</svg>