<svg xmlns="http://www.w3.org/2000/svg" viewBox="0 0 40 40">
    <path class="cls-1" d="M20,40A20,20,0,1,1,40,20,20,20,0,0,1,20,40ZM20,1.9A18.1,18.1,0,1,0,38.1,20,18.12,18.12,0,0,0,20,1.9Z"/>
    <path class="cls-1" d="M24.75,12.5h-9.5a2.75,2.75,0,0,0-2.75,2.75v9.5a2.75,2.75,0,0,0,2.75,2.75h9.5a2.75,2.75,0,0,0,2.75-2.75v-9.5a2.75,2.75,0,0,0-2.75-2.75ZM20,24.94A4.94,4.94,0,1,1,24.94,20,5,5,0,0,1,20,24.94Zm5.1-8.86a1.17,1.17,0,1,1,1.17-1.17,1.17,1.17,0,0,1-1.17,1.17ZM20,17.15A2.85,2.85,0,1,0,22.85,20,2.86,2.86,0,0,0,20,17.15Zm9.59,7.6a4.84,4.84,0,0,1-4.84,4.84h-9.5a4.84,4.84,0,0,1-4.84-4.84v-9.5a4.84,4.84,0,0,1,4.84-4.84h9.5a4.84,4.84,0,0,1,4.84,4.84Z"/>
</svg>