<svg xmlns="http://www.w3.org/2000/svg" viewBox="0 0 40 40"><defs><style>.cls-1{fill:#8b929f;}</style></defs><title>kontur_1</title><g id="Layer_2" data-name="Layer 2"><g id="Layer_2-2" data-name="Layer 2"><path class="cls-1" d="M11.64,16.67a1.25,1.25,0,0,1-1.25-1.25V14.28H12.9v1.14A1.26,1.26,0,0,1,11.64,16.67Zm9.23-1.22h6V13h-6Zm-2.71,1.28H29.61v12.9H18.16Zm2.76,6.62a.63.63,0,0,0,.51.25h1l-.91,3.83a.63.63,0,0,0,.36.73.62.62,0,0,0,.26.06.63.63,0,0,0,.53-.28l4.21-6.19a.63.63,0,0,0,0-.66.64.64,0,0,0-.57-.34h-.81L26.26,19a.67.67,0,0,0-.05-.6.65.65,0,0,0-.54-.29H22.6a.62.62,0,0,0-.61.47l-1.17,4.18A.63.63,0,0,0,20.92,23.35Zm-2.76-13v5.08h1.43V12.33a.64.64,0,0,1,.64-.63h7.31a.63.63,0,0,1,.64.63v3.12h1.43V10.37ZM40,20A20,20,0,1,1,20,0,20,20,0,0,1,40,20ZM30.89,9.73a.64.64,0,0,0-.64-.64H17.52a.64.64,0,0,0-.63.64v8.5h-.77a2.25,2.25,0,0,0-2.25,2.25v8.3a.81.81,0,1,1-1.62,0V17.88a2.54,2.54,0,0,0,1.92-2.46V11.26a.64.64,0,1,0-1.27,0V13H10.39V11.26a.64.64,0,1,0-1.28,0v4.16A2.53,2.53,0,0,0,11,17.86V28.78a2.09,2.09,0,1,0,4.17,0v-8.3a1,1,0,0,1,1-1h.77V30.27a.64.64,0,0,0,.63.64H30.25a.64.64,0,0,0,.64-.64ZM23.73,22.57a.62.62,0,0,1,.12.54l-.29,1.24L25.14,22h-.58a.65.65,0,0,1-.59-.89l.74-1.72H23.09l-.82,2.91h1A.61.61,0,0,1,23.73,22.57Z"/></g></g></svg>