<svg xmlns="http://www.w3.org/2000/svg" viewBox="0 0 110 110"><defs><style>.cls-1{fill:#2286da;}.cls-2{fill:#fff;}</style></defs><title>kontur_2</title><g id="Layer_2" data-name="Layer 2"><g id="Layer_2-2" data-name="Layer 2"><circle class="cls-1" cx="55" cy="55" r="55"/><path class="cls-2" d="M83.19,25h-35a1.76,1.76,0,0,0-1.76,1.76V50.12H44.34a6.21,6.21,0,0,0-6.2,6.21V79.15a2.23,2.23,0,1,1-4.45,0v-30A7,7,0,0,0,39,42.41V31a1.76,1.76,0,0,0-3.52,0v4.81h-6.9V31a1.76,1.76,0,0,0-3.51,0V42.41a7,7,0,0,0,5.13,6.7v30a5.74,5.74,0,1,0,11.47,0V56.33a2.7,2.7,0,0,1,2.69-2.7h2.09V83.24A1.76,1.76,0,0,0,48.19,85h35A1.76,1.76,0,0,0,85,83.24V26.76A1.76,1.76,0,0,0,83.19,25ZM28.56,42.41V39.27h6.9v3.14a3.45,3.45,0,0,1-6.9,0Zm21.38-13.9h31.5v14H77.5V33.92a1.76,1.76,0,0,0-1.76-1.76H55.64a1.75,1.75,0,0,0-1.75,1.76v8.56h-4v-14Zm24,14H57.4V35.67H74v6.81Zm7.45,39H49.94V46h31.5Zm-9-24.43H70.2l2-4.73a1.76,1.76,0,0,0-1.62-2.45H62.15a1.77,1.77,0,0,0-1.69,1.29L57.24,62.68a1.77,1.77,0,0,0,1.69,2.23h2.73L59.15,75.44a1.75,1.75,0,0,0,3.16,1.39l11.59-17A1.78,1.78,0,0,0,74,58a1.74,1.74,0,0,0-1.55-.94ZM64.78,67l.81-3.41a1.78,1.78,0,0,0-.33-1.5,1.75,1.75,0,0,0-1.38-.66H61.25l2.24-8H68l-2,4.74a1.78,1.78,0,0,0,.15,1.66,1.76,1.76,0,0,0,1.46.78h1.59Z"/></g></g></svg>