<svg xmlns="http://www.w3.org/2000/svg" viewBox="0 0 30 30"><defs><style>.cls-1{fill:#242526;}</style></defs><title>mail</title><g id="Layer_2" data-name="Layer 2"><g id="Layer_2-2" data-name="Layer 2"><path class="cls-1" d="M17.7,14.94a2.64,2.64,0,1,1-2.64-2.64A2.64,2.64,0,0,1,17.7,14.94Zm12.3,0A15.16,15.16,0,0,1,14.94,30,15,15,0,1,1,30,14.94Zm-5.27.88c0-7-4.81-10.55-9.67-10.55a9.67,9.67,0,1,0,5.88,17.35.88.88,0,0,0-1.07-1.4,7.81,7.81,0,0,1-4.81,1.63A7.91,7.91,0,0,1,15.06,7c4,0,7.91,2.91,7.91,8.79a1.76,1.76,0,1,1-3.52,0V11.43a.88.88,0,1,0-1.75,0v0a4.36,4.36,0,0,0-2.64-.9,4.4,4.4,0,1,0,3.28,7.29,3.51,3.51,0,0,0,6.39-2Z"/></g></g></svg>