<svg xmlns="http://www.w3.org/2000/svg" viewBox="0 0 110 110"><defs><style>.cls-1{fill:#2286da;}.cls-2{fill:#fff;}</style></defs><title>molniya_2</title><g id="Layer_2" data-name="Layer 2"><g id="Layer_2-2" data-name="Layer 2"><circle class="cls-1" cx="55" cy="55" r="55"/><path class="cls-2" d="M55,22.5A32.5,32.5,0,1,0,87.5,55,32.54,32.54,0,0,0,55,22.5Zm0,61.19A28.69,28.69,0,1,1,83.69,55,28.72,28.72,0,0,1,55,83.69ZM71.32,49H61.24L63,34.84a1.9,1.9,0,0,0-3.29-1.52L37.28,57.79A1.9,1.9,0,0,0,38.68,61H48.76L47,75.16a1.9,1.9,0,0,0,3.29,1.52L72.72,52.21A1.9,1.9,0,0,0,71.32,49ZM51.51,69.71l1.3-10.39a1.9,1.9,0,0,0-1.89-2.14H43L58.49,40.29l-1.3,10.39a1.9,1.9,0,0,0,1.89,2.14H67Z"/></g></g></svg>