<svg xmlns="http://www.w3.org/2000/svg" viewBox="0 0 40 40"><defs><style>.cls-1{fill:#8b929f;}</style></defs><title>molniya_1</title><g id="Layer_2" data-name="Layer 2"><g id="Layer_2-2" data-name="Layer 2"><path class="cls-1" d="M20,9.57A10.43,10.43,0,1,0,30.43,20,10.44,10.44,0,0,0,20,9.57ZM26.44,19l-8.15,8.91a.7.7,0,0,1-1.2-.56l.64-5.15H14.07A.69.69,0,0,1,13.56,21l8.15-8.91a.7.7,0,0,1,1.2.56l-.64,5.15h3.66A.69.69,0,0,1,26.44,19Zm-5,.23h2.88l-5.63,6.14.47-3.78A.68.68,0,0,0,19,21a.74.74,0,0,0-.52-.23H15.64l5.63-6.14-.47,3.78A.65.65,0,0,0,21,19,.71.71,0,0,0,21.48,19.21ZM20,0A20,20,0,1,0,40,20,20,20,0,0,0,20,0Zm0,31.82A11.82,11.82,0,1,1,31.82,20,11.83,11.83,0,0,1,20,31.82Z"/></g></g></svg>