<svg xmlns="http://www.w3.org/2000/svg" viewBox="0 0 40 40"><defs><style>.cls-1{fill:#fff;}</style></defs><title>montazh</title><g id="Layer_2" data-name="Layer 2"><g id="Layer_2-2" data-name="Layer 2"><path class="cls-1" d="M20,24.85A4.85,4.85,0,0,1,17.23,16v4a.69.69,0,0,0,.31.58L19.61,22a.68.68,0,0,0,.77,0l2.08-1.38a.71.71,0,0,0,.31-.58V16A4.85,4.85,0,0,1,20,24.85ZM25.36,14a.71.71,0,0,1-.74-.06,7.79,7.79,0,0,0-1.68-1,.71.71,0,0,1-.39-.42l-1-3H18.42l-1,3a.65.65,0,0,1-.39.42,8,8,0,0,0-1.67,1,.71.71,0,0,1-.74.06l-2.85-.58-1.57,2.73,1.93,2.18a.7.7,0,0,1,.3.67,9.38,9.38,0,0,0-.07,1,9.38,9.38,0,0,0,.07,1,.68.68,0,0,1-.3.67l-1.93,2.18,1.57,2.73L14.64,26a.71.71,0,0,1,.74.06,7.79,7.79,0,0,0,1.68,1,.59.59,0,0,1,.17.1V25.58A6.24,6.24,0,0,1,13.77,20a6.25,6.25,0,0,1,3.89-5.78.71.71,0,0,1,.65.07.68.68,0,0,1,.3.57v4.77l1.39.92,1.38-.92V14.86a.69.69,0,0,1,.31-.57.71.71,0,0,1,.65-.07,6.23,6.23,0,0,1,.43,11.36v1.56A.42.42,0,0,1,23,27a8,8,0,0,0,1.67-1,.71.71,0,0,1,.74-.06l2.85.58,1.57-2.73-1.93-2.18a.7.7,0,0,1-.3-.67,9.38,9.38,0,0,0,.07-1,9.38,9.38,0,0,0-.07-1,.7.7,0,0,1,.3-.67l1.93-2.18-1.57-2.73ZM40,20A20,20,0,1,1,20,0,20,20,0,0,1,40,20Zm-11-.81,2.19-2.47a.69.69,0,0,0,.08-.81l-2.07-3.6a.71.71,0,0,0-.74-.33l-3.24.67a8.34,8.34,0,0,0-1.41-.82l-1-3.17a.7.7,0,0,0-.66-.48H17.92a.7.7,0,0,0-.66.48l-1,3.17a8,8,0,0,0-1.4.82L11.58,12a.71.71,0,0,0-.74.33l-2.07,3.6a.69.69,0,0,0,.08.81L11,19.19a8.22,8.22,0,0,0,0,1.62L8.85,23.28a.69.69,0,0,0-.08.81l2.07,3.6a.71.71,0,0,0,.74.33l3.24-.67a8.34,8.34,0,0,0,1.41.82l1,3.13a.69.69,0,0,0,.67.52h4.16a.7.7,0,0,0,.66-.48l1-3.17a8,8,0,0,0,1.4-.82l3.24.67a.71.71,0,0,0,.74-.33l2.07-3.6a.69.69,0,0,0-.08-.81L29,20.81a8.22,8.22,0,0,0,0-1.62ZM18.61,26.08v4.35h2.77V26.08a6.28,6.28,0,0,1-1.38.15A6.37,6.37,0,0,1,18.61,26.08Z"/></g></g></svg>