<svg xmlns="http://www.w3.org/2000/svg" viewBox="0 0 110 110"><defs><style>.cls-1{fill:#2286da;}.cls-2{fill:#fff;}</style></defs><title>montazh_2</title><g id="Layer_2" data-name="Layer 2"><g id="Layer_2-2" data-name="Layer 2"><circle class="cls-1" cx="55" cy="55" r="55"/><path class="cls-2" d="M79.64,57.23a20.78,20.78,0,0,0,0-4.46l6-6.79a1.92,1.92,0,0,0,.22-2.22l-5.71-9.89a1.92,1.92,0,0,0-2-.92l-8.91,1.83a24.76,24.76,0,0,0-3.86-2.26l-2.86-8.71a1.89,1.89,0,0,0-1.81-1.31H49.29a1.9,1.9,0,0,0-1.81,1.31l-2.87,8.71a24.35,24.35,0,0,0-3.85,2.26L31.85,33a1.92,1.92,0,0,0-2,.92l-5.71,9.89A1.92,1.92,0,0,0,24.33,46l6,6.79a20.78,20.78,0,0,0,0,4.46l-6,6.79a1.92,1.92,0,0,0-.22,2.22l5.71,9.89a1.92,1.92,0,0,0,2,.92l8.91-1.83a24.76,24.76,0,0,0,3.86,2.26l2.82,8.59a1.89,1.89,0,0,0,1.84,1.43H60.71a1.9,1.9,0,0,0,1.81-1.31l2.87-8.71a24.35,24.35,0,0,0,3.85-2.26l8.91,1.83a1.92,1.92,0,0,0,2-.92l5.71-9.89A1.92,1.92,0,0,0,85.67,64Zm-31.41-.65,5.71,3.81a1.89,1.89,0,0,0,2.11,0l5.71-3.81A1.89,1.89,0,0,0,62.61,55V44.06a13.34,13.34,0,1,1-15.23,0V55a1.89,1.89,0,0,0,.85,1.58Zm3,27.11v-12a17,17,0,0,0,7.61,0v12ZM77.57,73l-7.82-1.6a1.91,1.91,0,0,0-2,.18,20.65,20.65,0,0,1-4.6,2.7,1.83,1.83,0,0,0-.5.31V70.35a17.14,17.14,0,0,0-1.19-31.24,1.91,1.91,0,0,0-2.62,1.77V54L55,56.52,51.19,54V40.88a1.89,1.89,0,0,0-.85-1.58,1.86,1.86,0,0,0-1.77-.19,17.18,17.18,0,0,0-7.71,6.21,17.13,17.13,0,0,0,6.52,25v4.26a1.81,1.81,0,0,0-.48-.29,21.27,21.27,0,0,1-4.61-2.7,1.91,1.91,0,0,0-2-.18L32.43,73l-4.34-7.52,5.32-6a1.93,1.93,0,0,0,.84-1.83,18.32,18.32,0,0,1,0-5.4,1.93,1.93,0,0,0-.84-1.83l-5.32-6L32.43,37l7.82,1.6a1.91,1.91,0,0,0,2-.18,20.65,20.65,0,0,1,4.6-2.7A2,2,0,0,0,48,34.52l2.7-8.21h8.66L62,34.52a1.92,1.92,0,0,0,1.07,1.16,21.27,21.27,0,0,1,4.61,2.7,1.91,1.91,0,0,0,2,.18L77.57,37l4.34,7.52-5.32,6a1.93,1.93,0,0,0-.84,1.83,18.33,18.33,0,0,1,0,5.4,1.93,1.93,0,0,0,.84,1.83l5.32,6Z"/></g></g></svg>