<svg xmlns="http://www.w3.org/2000/svg" viewBox="0 0 20 20"><defs><style>.cls-1{fill:#8b929f;}</style></defs><title>name</title><g id="Layer_2" data-name="Layer 2"><g id="Layer_2-2" data-name="Layer 2"><path class="cls-1" d="M16.12,13.91l-3-1a.83.83,0,0,0-.22,0H7.14a.83.83,0,0,0-.22,0l-3,1A5.66,5.66,0,0,0,0,19.29.71.71,0,0,0,.71,20H19.29a.71.71,0,0,0,.71-.71A5.66,5.66,0,0,0,16.12,13.91Z"/><path class="cls-1" d="M10,11.43a4.3,4.3,0,0,0,4.29-4.29V4.29a4.29,4.29,0,1,0-8.58,0V7.14A4.3,4.3,0,0,0,10,11.43Z"/></g></g></svg>