<svg xmlns="http://www.w3.org/2000/svg" viewBox="0 0 30 30"><defs><style>.cls-1{fill:#fff;}</style></defs><title>phone</title><g id="Layer_2" data-name="Layer 2"><g id="Layer_2-2" data-name="Layer 2"><path class="cls-1" d="M25.6,4.39A15,15,0,1,0,30,15,15,15,0,0,0,25.6,4.39Zm-2.89,16.5-.76.76a4,4,0,0,1-3.77,1.08A13.4,13.4,0,0,1,14.32,21a18.46,18.46,0,0,1-3.05-2.46A17.73,17.73,0,0,1,9,15.78a14,14,0,0,1-1.71-3.46,4,4,0,0,1,1-4.08l.89-.89a.64.64,0,0,1,.9,0h0l2.81,2.81a.62.62,0,0,1,0,.89h0l-1.65,1.65a1.35,1.35,0,0,0-.14,1.75,19.74,19.74,0,0,0,2,2.3A20,20,0,0,0,15.67,19a1.36,1.36,0,0,0,1.73-.15L19,17.18a.64.64,0,0,1,.9,0h0L22.71,20a.63.63,0,0,1,0,.89h0Z"/></g></g></svg>