<svg xmlns="http://www.w3.org/2000/svg" viewBox="0 0 80 80"><defs><style>.cls-1{fill:#f99d13;}.cls-2{fill:#3c4043;}</style></defs><title>icon-spasibo</title><g id="Layer_2" data-name="Layer 2"><g id="Layer_2-2" data-name="Layer 2"><path class="cls-1" d="M41.52,30.11a1.55,1.55,0,0,0-2.09.7L35.2,39.3a1.56,1.56,0,0,0,.7,2.1,1.68,1.68,0,0,0,.57.16h4.41L37.77,47.8a1.56,1.56,0,1,0,2.8,1.39L44.8,40.7a1.57,1.57,0,0,0-.71-2.1,1.44,1.44,0,0,0-.67-.16h-4.3l3.1-6.24a1.55,1.55,0,0,0-.7-2.09Z"/><path class="cls-1" d="M75.41,31.16h-2a34.18,34.18,0,0,0-3.55-8.57l1.37-1.38a4.58,4.58,0,0,0,0-6.49l-6-6a4.59,4.59,0,0,0-6.49,0l-1.38,1.38a34.74,34.74,0,0,0-8.57-3.56V4.59A4.6,4.6,0,0,0,44.24,0H35.75a4.6,4.6,0,0,0-4.59,4.59V6.53a34.74,34.74,0,0,0-8.57,3.56L21.21,8.71a4.59,4.59,0,0,0-6.49,0l-6,6a4.6,4.6,0,0,0,0,6.49l1.38,1.38a34.74,34.74,0,0,0-3.56,8.57H4.59A4.6,4.6,0,0,0,0,35.75v8.49a4.6,4.6,0,0,0,4.59,4.6H6.53a34.58,34.58,0,0,0,3.56,8.57L8.71,58.79a4.6,4.6,0,0,0,0,6.49l6,6a4.58,4.58,0,0,0,6.49,0l1.38-1.37a34.74,34.74,0,0,0,8.57,3.56V75.4A4.6,4.6,0,0,0,35.75,80h8.49a4.6,4.6,0,0,0,4.6-4.6V73.47a34.74,34.74,0,0,0,8.57-3.56l1.38,1.37a4.58,4.58,0,0,0,6.49,0l6-6a4.59,4.59,0,0,0,0-6.49l-1.38-1.38a34.18,34.18,0,0,0,3.55-8.57h2A4.6,4.6,0,0,0,80,44.24V35.75a4.6,4.6,0,0,0-4.59-4.59Zm1.46,13.08a1.46,1.46,0,0,1-1.46,1.47H72.23a1.56,1.56,0,0,0-1.52,1.22,31.28,31.28,0,0,1-4.09,9.88,1.57,1.57,0,0,0,.21,1.94L69.08,61a1.49,1.49,0,0,1,0,2.07l-6,6a1.47,1.47,0,0,1-2.07,0l-2.25-2.25a1.57,1.57,0,0,0-1.94-.21,31,31,0,0,1-9.88,4.09,1.57,1.57,0,0,0-1.22,1.53v3.17a1.46,1.46,0,0,1-1.47,1.46H35.75a1.46,1.46,0,0,1-1.46-1.46V72.24a1.57,1.57,0,0,0-1.22-1.53,31,31,0,0,1-9.88-4.09,1.51,1.51,0,0,0-.84-.24,1.55,1.55,0,0,0-1.1.45L19,69.08a1.47,1.47,0,0,1-2.07,0l-6-6a1.49,1.49,0,0,1,0-2.08l2.24-2.24a1.57,1.57,0,0,0,.21-1.94,31,31,0,0,1-4.09-9.88,1.57,1.57,0,0,0-1.53-1.22H4.59a1.47,1.47,0,0,1-1.47-1.47V35.75a1.46,1.46,0,0,1,1.47-1.46H7.76a1.57,1.57,0,0,0,1.53-1.22,31,31,0,0,1,4.09-9.88,1.57,1.57,0,0,0-.21-1.94L10.92,19a1.49,1.49,0,0,1,0-2.07l6-6a1.47,1.47,0,0,1,2.07,0l2.25,2.25a1.57,1.57,0,0,0,1.94.21,31,31,0,0,1,9.88-4.09,1.57,1.57,0,0,0,1.22-1.53V4.59a1.47,1.47,0,0,1,1.46-1.47h8.49a1.47,1.47,0,0,1,1.47,1.47V7.76a1.57,1.57,0,0,0,1.22,1.53,31,31,0,0,1,9.88,4.09,1.57,1.57,0,0,0,1.94-.21L61,10.92a1.47,1.47,0,0,1,2.07,0l6,6a1.49,1.49,0,0,1,0,2.07l-2.25,2.25a1.57,1.57,0,0,0-.21,1.94,31.28,31.28,0,0,1,4.09,9.88,1.56,1.56,0,0,0,1.52,1.22h3.18a1.46,1.46,0,0,1,1.46,1.46Z"/><path class="cls-2" d="M28.21,49.58a1.56,1.56,0,0,0,0,2.21A16.67,16.67,0,0,0,56.59,41.65l1.66,1.65a1.55,1.55,0,0,0,2.2,0,1.55,1.55,0,0,0,0-2.21l-4.39-4.4A1.58,1.58,0,0,0,55,36.24a1.56,1.56,0,0,0-1.1.45l-4.4,4.4a1.56,1.56,0,0,0,2.21,2.21l1.8-1.8a13.54,13.54,0,0,1-23,8.08,1.56,1.56,0,0,0-2.21,0Z"/><path class="cls-2" d="M23.41,38.35l-1.66-1.66a1.56,1.56,0,0,0-2.21,2.21l4.4,4.4a1.58,1.58,0,0,0,2.21,0l4.4-4.4a1.56,1.56,0,0,0-2.21-2.21l-1.8,1.81a13.43,13.43,0,0,1,3.88-8.08,13.57,13.57,0,0,1,19.16,0,1.56,1.56,0,1,0,2.21-2.21A16.67,16.67,0,0,0,23.41,38.35Z"/><path class="cls-1" d="M47.69,13.4a1.56,1.56,0,0,0-.87,3,24.61,24.61,0,1,1-13.33-.08,1.57,1.57,0,0,0-.83-3,27.7,27.7,0,1,0,15,.1Z"/><path class="cls-1" d="M40,15.44h0a1.57,1.57,0,1,0-1.57-1.57A1.56,1.56,0,0,0,40,15.44Z"/></g></g></svg>