<svg xmlns="http://www.w3.org/2000/svg" viewBox="0 0 110 110"><defs><style>.cls-1{fill:#2286da;}.cls-2{fill:#fff;}</style></defs><title>proekt_2</title><g id="Layer_2" data-name="Layer 2"><g id="Layer_2-2" data-name="Layer 2"><circle class="cls-1" cx="55" cy="55" r="55"/><path class="cls-2" d="M45.48,60.09v3.18A9.53,9.53,0,0,0,53.1,72.6V77a1.9,1.9,0,1,0,3.8,0V72.6a9.53,9.53,0,0,0,7.62-9.33V60.09a1.9,1.9,0,1,0,0-3.8H62V50.06a1.91,1.91,0,0,0-3.81,0v6.23H51.83V50.06a1.91,1.91,0,0,0-3.81,0v6.23H45.48a1.9,1.9,0,1,0,0,3.8Zm3.81,0H60.71v3.18a5.71,5.71,0,0,1-11.42,0ZM86.48,40.83l-6.72-4.2V26.45a1.91,1.91,0,0,0-1.91-1.9H70.23a1.9,1.9,0,0,0-1.9,1.9v3L56,21.79a1.89,1.89,0,0,0-2,0l-30.47,19a1.91,1.91,0,0,0,1,3.52h5.71V84.6a1.91,1.91,0,0,0,1.91,1.9h45.7a1.91,1.91,0,0,0,1.91-1.9V44.35h5.71a1.91,1.91,0,0,0,1-3.52ZM72.14,28.36H76v5.89l-3.81-2.38ZM76,82.69H34.05V44.35H76ZM31.17,40.54,55,25.65,78.83,40.54Z"/></g></g></svg>