<svg xmlns="http://www.w3.org/2000/svg" viewBox="0 0 40 40"><defs><style>.cls-1{fill:#8b929f;}</style></defs><title>proekt_1</title><g id="Layer_2" data-name="Layer 2"><g id="Layer_2-2" data-name="Layer 2"><path class="cls-1" d="M12.38,30.07H27.62V16.13H12.38Zm4.16-9.6h.92V18.21a.7.7,0,1,1,1.39,0v2.26h2.3V18.21a.7.7,0,1,1,1.39,0v2.26h.92a.69.69,0,1,1,0,1.38V23a3.46,3.46,0,0,1-2.77,3.39V28a.69.69,0,1,1-1.38,0V26.4A3.46,3.46,0,0,1,16.54,23V21.85a.69.69,0,1,1,0-1.38ZM20,9.33l8.67,5.41H11.33ZM20,0A20,20,0,1,0,40,20,20,20,0,0,0,20,0ZM31.75,15.63a.71.71,0,0,1-.67.5H29V30.76a.69.69,0,0,1-.69.69H11.69a.69.69,0,0,1-.69-.69V16.13H8.92a.69.69,0,0,1-.37-1.28L19.63,7.92a.7.7,0,0,1,.74,0l4.48,2.8V9.62a.69.69,0,0,1,.69-.69h2.77a.69.69,0,0,1,.69.69v3.7l2.45,1.53A.7.7,0,0,1,31.75,15.63ZM17.92,23V21.85h4.16V23a2.08,2.08,0,0,1-4.16,0Zm9.7-10.56-1.39-.86V10.31h1.39Z"/></g></g></svg>