<svg xmlns="http://www.w3.org/2000/svg" viewBox="0 0 60 60"><defs><style>.cls-1{fill:#fff;}</style></defs><title>telegram</title><g id="Layer_2" data-name="Layer 2"><g id="Layer_2-2" data-name="Layer 2"><path class="cls-1" d="M45,0H15A15,15,0,0,0,0,15V45A15,15,0,0,0,15,60H45A15,15,0,0,0,60,45V15A15,15,0,0,0,45,0ZM24.21,47.39a1.75,1.75,0,0,1-2.92-.7l-3.8-12.07-10.2-3a1.47,1.47,0,0,1-.12-2.77L47.3,13.2a2.07,2.07,0,0,1,2.77,2.35L43.22,48.3a2.16,2.16,0,0,1-3.39,1.3L29.48,42ZM42.27,20.47,23.63,37a1,1,0,0,0-.33.64L22.58,44a.19.19,0,0,1-.38,0l-2.95-9.51a1,1,0,0,1,.43-1.15l22-13.65A.49.49,0,0,1,42.27,20.47Z"/></g></g></svg>