<svg xmlns="http://www.w3.org/2000/svg" viewBox="0 0 60 60"><defs><style>.cls-1{fill:#fff;}</style></defs><title>viber</title><g id="Layer_2" data-name="Layer 2"><g id="Layer_2-2" data-name="Layer 2"><path class="cls-1" d="M45,0H15A15,15,0,0,0,0,15V45A15,15,0,0,0,15,60H45A15,15,0,0,0,60,45V15A15,15,0,0,0,45,0ZM29.84,45.37q-1.43,0-2.85-.09l-4.38,4.56a1.74,1.74,0,0,1-3-1.21V44.31c-3.82-1.09-7.82-5.06-8.74-8.77a35.71,35.71,0,0,1,0-16.29l0-.11c1-3.88,5.28-8,9.25-8.9l.24-.05a49.57,49.57,0,0,1,19.19.05c4,.87,8.29,5,9.25,8.9v.05a37.66,37.66,0,0,1,0,16.3v0c-1,3.88-5.28,8-9.25,8.9h0A51.77,51.77,0,0,1,29.84,45.37ZM45.35,34.71a34.24,34.24,0,0,0,0-14.74c-.64-2.53-3.92-5.67-6.53-6.25a48,48,0,0,0-18,0c-2.6.58-5.88,3.72-6.52,6.25a34.24,34.24,0,0,0,0,14.74c.64,2.53,3.92,5.67,6.52,6.25h0a.26.26,0,0,1,.2.24v7.17a.39.39,0,0,0,.68.27l3.41-3.49,3.19-3.28a.27.27,0,0,1,.19-.08A47.47,47.47,0,0,0,38.82,41C41.43,40.38,44.71,37.24,45.35,34.71Zm-6.43.36a5.56,5.56,0,0,1-2.38,2.62,5.79,5.79,0,0,1-1,.33c-.41-.12-.79-.21-1.14-.35a25.83,25.83,0,0,1-9.74-6.51,25.19,25.19,0,0,1-3.72-5.7c-.48-1-.88-2-1.3-3a2.6,2.6,0,0,1,.76-2.55,6,6,0,0,1,2-1.51A1.28,1.28,0,0,1,24,18.8a21.48,21.48,0,0,1,2.49,3.49A1.66,1.66,0,0,1,26,24.54a5.13,5.13,0,0,0-.53.42,1.87,1.87,0,0,0-.41.43,1.14,1.14,0,0,0-.07,1,9.28,9.28,0,0,0,5.21,5.78,2.71,2.71,0,0,0,1.34.32c.82-.1,1.08-1,1.65-1.46A1.56,1.56,0,0,1,35.09,31c.6.38,1.19.79,1.77,1.2S38,33,38.52,33.44A1.32,1.32,0,0,1,38.92,35.07Zm-5.41-9.15a6.63,6.63,0,0,0-.11-.76A2,2,0,0,0,32,23.59c-.29-.08-.6-.06-.89-.13a.56.56,0,0,1-.45-.64.57.57,0,0,1,.61-.46,3.3,3.3,0,0,1,3.39,3.29,1.76,1.76,0,0,1,0,.46.47.47,0,0,1-.4.39s0,0,0,0h-.05A.6.6,0,0,1,33.51,25.92ZM33,21.49a6.74,6.74,0,0,0-1.82-.56l-.82-.11a.53.53,0,0,1-.5-.59.52.52,0,0,1,.58-.51,7.52,7.52,0,0,1,3.15.82,6.38,6.38,0,0,1,3.46,4.95c0,.1,0,.2,0,.3,0,.25,0,.5,0,.83a2,2,0,0,1,0,.34.54.54,0,0,1-1,.05,1.38,1.38,0,0,1-.06-.46,5.82,5.82,0,0,0-.74-2.92A5.41,5.41,0,0,0,33,21.49Zm6.16,6.88c-.38,0-.55-.32-.58-.66-.05-.69-.08-1.37-.18-2.05a8.57,8.57,0,0,0-6.92-7.18c-.53-.1-1.08-.12-1.62-.18-.35,0-.8-.06-.87-.48a.59.59,0,0,1,.58-.67h.27c4.62.13.29,0,0,0a9.77,9.77,0,0,1,9.59,8.08c.14.81.19,1.64.26,2.46A.58.58,0,0,1,39.17,28.37Z"/></g></g></svg>