<svg xmlns="http://www.w3.org/2000/svg" viewBox="0 0 40 40">
    <path d="M20,40A20,20,0,1,1,40,20,20,20,0,0,1,20,40ZM20,1.9A18.1,18.1,0,1,0,38.1,20,18.12,18.12,0,0,0,20,1.9Z"/>
    <path class="cls-1" d="M20,27.65h0c-.64,0-6.28-.06-7.88-.49a3.26,3.26,0,0,1-2.3-2.3A23.41,23.41,0,0,1,9.42,20a23.71,23.71,0,0,1,.39-4.87h0a3.36,3.36,0,0,1,2.3-2.32h0A60.16,60.16,0,0,1,20,12.35h0c.64,0,6.3.06,7.88.49a3.26,3.26,0,0,1,2.3,2.3,22.5,22.5,0,0,1,.39,4.9,24.07,24.07,0,0,1-.39,4.83h0a3.28,3.28,0,0,1-2.3,2.3h0a60,60,0,0,1-7.87.47ZM11.4,15.57A24.3,24.3,0,0,0,11.07,20v0a22.62,22.62,0,0,0,.33,4.4,1.62,1.62,0,0,0,1.14,1.13A55,55,0,0,0,20,26a58.51,58.51,0,0,0,7.46-.41,1.59,1.59,0,0,0,1.13-1.13,22.14,22.14,0,0,0,.34-4.4v0a22.45,22.45,0,0,0-.33-4.45h0a1.62,1.62,0,0,0-1.14-1.13A54.86,54.86,0,0,0,20,14a56.73,56.73,0,0,0-7.46.41,1.67,1.67,0,0,0-1.14,1.15Zm18,9.09Zm-11.5-1.31v-6.7L23.68,20Z"/>
</svg>