<svg width="119" height="50" viewBox="0 0 119 50" fill="none" xmlns="http://www.w3.org/2000/svg">
<path d="M60.9833 0.0933228H59.0519V50H60.9833V0.0933228Z" fill="#1D1D1B"/>
<path d="M10.63 34.7278H7.40082V44.2457H10.63V34.7278Z" fill="#1D1D1B"/>
<path d="M7.5708 44.0902H10.46V34.9145H7.5708V44.0902Z" fill="#1D1D1B"/>
<path d="M18.0463 29.8134H12.2832V33.0638H18.0463V29.8134Z" fill="#1D1D1B"/>
<path d="M12.4531 32.8927H17.8763V29.9845H12.4531V32.8927Z" fill="#1D1D1B"/>
<path d="M9.00767 33.0642C9.9038 33.0642 10.6145 32.3332 10.6145 31.4467C10.6145 30.5603 9.88835 29.8293 9.00767 29.8293C8.11154 29.8293 7.40082 30.5603 7.40082 31.4467C7.40082 32.3332 8.12699 33.0642 9.00767 33.0642Z" fill="#EF8018"/>
<path d="M0 0V49.8756H49.5499V0H0ZM1.88496 24.0124V1.89736H23.8402V24.0124H1.88496ZM1.88496 47.9938V25.8942H23.8402V47.9938H1.88496ZM25.7251 24.0124V1.89736H47.6803V24.0124H25.7251ZM25.7251 47.9938V25.8942H47.6803V47.9938H25.7251Z" fill="#1D1D1B"/>
<path d="M36.7568 29.7978L35.1963 32.9082L40.8357 44.2613H43.9413L36.7568 29.7978Z" fill="#1D1D1B"/>
<path d="M36.7568 40.2955C35.8761 40.2955 35.1654 41.0109 35.1654 41.8973C35.1654 42.7838 35.8761 43.4992 36.7568 43.4992C37.6375 43.4992 38.3482 42.7838 38.3482 41.8973C38.3482 41.0109 37.6375 40.2955 36.7568 40.2955Z" fill="#009845"/>
<path d="M12.7312 5.61432L11.1707 8.74029L16.8102 20.0933H19.9157L12.7312 5.61432Z" fill="#1D1D1B"/>
<path d="M42.2108 5.64581L34.4547 13.0642V10.6069H31.2564V16.5323V20.1093L35.1963 16.5323L38.9044 13.173L42.2263 10.016V5.64581H42.2108Z" fill="#1D1D1B"/>
<path d="M32.8637 8.83358C33.7444 8.83358 34.4551 8.11819 34.4551 7.23172C34.4551 6.34525 33.7444 5.62985 32.8637 5.62985C31.983 5.62985 31.2723 6.34525 31.2723 7.23172C31.2568 8.11819 31.983 8.83358 32.8637 8.83358Z" fill="#0081C1"/>
<path d="M34.1611 35.0544L29.5878 44.2613H32.7242L35.7371 38.2115L34.1611 35.0544Z" fill="#1D1D1B"/>
<path d="M10.1356 10.8709L5.56219 20.0933H8.69865L11.7115 14.028L10.1356 10.8709Z" fill="#1D1D1B"/>
<path d="M39.028 15.5521V20.1088H42.2263V12.6127L39.028 15.5521Z" fill="#1D1D1B"/>
<path d="M72.6175 35.6298C72.6175 35.5365 72.5866 35.4588 72.5248 35.3966C72.463 35.3344 72.3857 35.3033 72.293 35.3033H71.4278V35.7698H72.1694V37.6361H71.3815V38.1026H73.39V37.6361H72.602V35.6298H72.6175ZM72.6175 37.6516H72.5402H72.6175Z" fill="#1D1D1B"/>
<path d="M72.6175 34.2457H72.154V34.9145H72.6175V34.2457Z" fill="#1D1D1B"/>
<path d="M77.917 35.3033H76.5574C76.4647 35.3033 76.3874 35.3344 76.3256 35.3966C76.2638 35.4588 76.2329 35.5365 76.2329 35.6298V38.0715H76.6964V35.7543H77.8089V38.0715H78.2724V35.6298C78.2724 35.5365 78.2415 35.4588 78.1797 35.3966C78.087 35.3344 78.0097 35.3033 77.917 35.3033Z" fill="#1D1D1B"/>
<path d="M82.7685 35.3033H81.4089C81.3162 35.3033 81.2389 35.3344 81.1771 35.3966C81.1153 35.4588 81.0844 35.5365 81.0844 35.6298V38.0715H81.5479V35.7543H82.6604V38.0715H83.1239V35.6298C83.1239 35.5365 83.093 35.4588 83.0312 35.3966C82.9385 35.3344 82.8612 35.3033 82.7685 35.3033Z" fill="#1D1D1B"/>
<path d="M87.62 35.3033H86.2603C86.1676 35.3033 86.0904 35.3344 86.0286 35.3966C85.9667 35.4588 85.9359 35.5365 85.9359 35.6298V37.7449C85.9359 37.8383 85.9667 37.916 86.0286 37.9782C86.0904 38.0404 86.1676 38.0715 86.2603 38.0715H87.62C87.7127 38.0715 87.7899 38.0404 87.8517 37.9782C87.9135 37.916 87.9444 37.8383 87.9444 37.7449V35.6298C87.9444 35.5365 87.9135 35.4588 87.8517 35.3966C87.7899 35.3344 87.7127 35.3033 87.62 35.3033ZM87.4964 35.7698V37.6361H86.3839V35.7698H87.4964Z" fill="#1D1D1B"/>
<path d="M92.3478 36.9207C92.3324 36.9518 92.3015 36.9829 92.2706 37.0295C92.2242 37.0762 92.1624 37.154 92.0851 37.2628C92.0079 37.3561 91.9152 37.465 91.7916 37.6205C91.668 37.4806 91.5753 37.3561 91.498 37.2628C91.4208 37.1695 91.359 37.0918 91.3126 37.0295C91.2817 36.9829 91.2508 36.9518 91.2354 36.9362V35.3033H90.7719V36.9518C90.7719 37.0295 90.8028 37.1073 90.8491 37.1695C91.0036 37.3561 91.1427 37.5272 91.2663 37.6672C91.3899 37.8071 91.498 37.9471 91.6062 38.0715L91.6216 38.1026H91.9615L92.7341 37.1851C92.7804 37.1229 92.8113 37.0451 92.8113 36.9673V35.3033H92.3478V36.9207Z" fill="#1D1D1B"/>
<path d="M97.3229 35.3033H95.9633C95.8705 35.3033 95.7933 35.3344 95.7315 35.3966C95.6697 35.4588 95.6388 35.5365 95.6388 35.6298V36.2364H96.1023V35.7543H97.2147V36.3452L95.9633 36.563C95.8705 36.5785 95.8088 36.6096 95.7469 36.6718C95.6851 36.734 95.6388 36.8118 95.6388 36.9051V37.7449C95.6388 37.8383 95.6697 37.916 95.7315 37.9782C95.7933 38.0404 95.8705 38.0715 95.9633 38.0715H97.3229C97.4156 38.0715 97.4929 38.0404 97.5547 37.9782C97.6165 37.916 97.6474 37.8383 97.6474 37.7449V35.6298C97.6474 35.5365 97.6165 35.4588 97.5547 35.3966C97.4929 35.3344 97.4156 35.3033 97.3229 35.3033ZM96.0869 37.6205V37.014L97.1993 36.8274V37.6205H96.0869Z" fill="#1D1D1B"/>
<path d="M101.247 35.7698H102.452V35.3033H101.247V34.7745H100.784V35.3033H100.258V35.7698H100.784V37.7605C100.784 37.8538 100.815 37.9316 100.877 37.9938C100.938 38.056 101.016 38.0871 101.108 38.0871H102.7V37.6205H101.232L101.247 35.7698ZM101.247 37.6516H101.17H101.247Z" fill="#1D1D1B"/>
<path d="M107.026 35.3033H105.666C105.573 35.3033 105.496 35.3344 105.434 35.3966C105.373 35.4588 105.342 35.5365 105.342 35.6298V37.7449C105.342 37.8383 105.373 37.916 105.434 37.9782C105.496 38.0404 105.573 38.0715 105.666 38.0715H107.026C107.119 38.0715 107.196 38.0404 107.258 37.9782C107.319 37.916 107.35 37.8383 107.35 37.7449V35.6298C107.35 35.5365 107.319 35.4588 107.258 35.3966C107.196 35.3344 107.119 35.3033 107.026 35.3033ZM106.902 35.7698V37.6361H105.79V35.7698H106.902Z" fill="#1D1D1B"/>
<path d="M111.167 35.7698H111.707V36.2519H112.171V35.6454C112.171 35.5521 112.14 35.4743 112.078 35.4121C112.016 35.3499 111.939 35.3188 111.846 35.3188H111.058C110.966 35.3188 110.888 35.3499 110.827 35.4121C110.765 35.4743 110.734 35.5521 110.734 35.6454V37.6361H109.946V38.1026H112.248V37.6361H111.197L111.167 35.7698ZM111.167 37.6516H111.089H111.167Z" fill="#1D1D1B"/>
<path d="M116.961 37.9938C117.022 37.9316 117.053 37.8538 117.053 37.7605V36.9207C117.053 36.8274 117.022 36.7496 116.961 36.6874C116.899 36.6252 116.821 36.5941 116.744 36.5785L115.493 36.3608V35.7698H116.605V36.2519H117.069V35.6454C117.069 35.5521 117.038 35.4743 116.976 35.4121C116.914 35.3499 116.837 35.3188 116.744 35.3188H115.385C115.292 35.3188 115.215 35.3499 115.153 35.4121C115.091 35.4743 115.06 35.5521 115.06 35.6454V36.4852C115.06 36.5785 115.091 36.6563 115.153 36.7185C115.215 36.7807 115.292 36.8118 115.369 36.8274L116.621 37.0295V37.6205H115.045V38.0871H116.744C116.821 38.0871 116.899 38.056 116.961 37.9938Z" fill="#1D1D1B"/>
<path d="M101.247 45.7232H102.452V45.2566H101.247V44.7278H100.784V45.2566H100.258V45.7232H100.784V47.7138C100.784 47.8072 100.815 47.8849 100.877 47.9471C100.938 48.0093 101.016 48.0404 101.108 48.0404H102.7V47.5739H101.232L101.247 45.7232ZM101.247 47.605H101.17H101.247Z" fill="#1D1D1B"/>
<path d="M107.026 45.2566H105.666C105.573 45.2566 105.496 45.2877 105.434 45.3499C105.373 45.4121 105.342 45.4899 105.342 45.5832V47.6983C105.342 47.7916 105.373 47.8694 105.434 47.9316C105.496 47.9938 105.573 48.0249 105.666 48.0249H107.366V47.5583H105.79V46.9674L107.041 46.7496C107.134 46.7341 107.196 46.703 107.258 46.6408C107.319 46.5786 107.366 46.5008 107.366 46.4075V45.5677C107.366 45.4744 107.335 45.3966 107.273 45.3344C107.196 45.2877 107.119 45.2566 107.026 45.2566ZM106.902 46.3297L105.79 46.5163V45.7232H106.902V46.3297Z" fill="#1D1D1B"/>
<path d="M111.877 45.2566H110.518C110.425 45.2566 110.348 45.2877 110.286 45.3499C110.224 45.4121 110.193 45.4899 110.193 45.5832V46.1897H110.657V45.7076H111.769V46.2986L110.518 46.5163C110.425 46.5319 110.363 46.563 110.301 46.6252C110.24 46.6874 110.193 46.7652 110.193 46.8585V47.6983C110.193 47.7916 110.224 47.8694 110.286 47.9316C110.348 47.9938 110.425 48.0249 110.518 48.0249H111.877C111.97 48.0249 112.047 47.9938 112.109 47.9316C112.171 47.8694 112.202 47.7916 112.202 47.6983V45.5832C112.202 45.4899 112.171 45.4121 112.109 45.3499C112.047 45.2877 111.97 45.2566 111.877 45.2566ZM111.754 46.7807V47.5739H110.641V46.9674L111.754 46.7807Z" fill="#1D1D1B"/>
<path d="M117.069 45.3655C117.007 45.3033 116.93 45.2722 116.837 45.2722H116.203C116.157 45.2722 116.111 45.3033 116.064 45.3499C116.064 45.3655 116.049 45.3655 116.049 45.3655C116.049 45.3655 116.049 45.3655 116.049 45.3499C116.003 45.2722 115.941 45.2566 115.91 45.2566H115.261C115.168 45.2566 115.091 45.2877 115.029 45.3499C114.967 45.4121 114.937 45.4899 114.937 45.5832V48.0249H115.4V45.7076H115.833V48.0249H116.296V45.7076H116.729V48.0249H117.192V45.5832C117.161 45.5055 117.13 45.4277 117.069 45.3655Z" fill="#1D1D1B"/>
<path d="M116.281 0.0777588H72.2621C70.7634 0.0777588 69.5583 1.30637 69.5583 2.79938V23.3126C69.5583 24.8211 70.7789 26.0342 72.2621 26.0342H116.281C117.779 26.0342 118.985 24.8056 118.985 23.3126V2.79938C119 1.30637 117.779 0.0777588 116.281 0.0777588ZM71.4433 2.79938C71.4433 2.34836 71.8141 1.97511 72.2621 1.97511H116.281C116.729 1.97511 117.1 2.34836 117.1 2.79938V23.3126C117.1 23.7636 116.729 24.1369 116.281 24.1369H72.2621C71.8141 24.1369 71.4433 23.7636 71.4433 23.3126V2.79938Z" fill="#1D1D1B"/>
<path d="M80.8372 9.87558C80.59 9.87558 80.3582 9.96889 80.1883 10.14C80.0183 10.311 79.9256 10.5443 79.9256 10.7932V14.9922C79.9256 15.2411 80.0183 15.4743 80.1883 15.6454C80.3582 15.8165 80.59 15.9098 80.8372 15.9098C81.0844 15.9098 81.3162 15.8165 81.4861 15.6454C81.6561 15.4743 81.7488 15.2411 81.7488 14.9922V10.7932C81.7488 10.5443 81.6561 10.311 81.4861 10.14C81.3007 9.96889 81.0844 9.87558 80.8372 9.87558Z" fill="#1D1D1B"/>
<path d="M93.8775 9.87558C93.6302 9.87558 93.3985 9.96889 93.2285 10.14C93.0586 10.311 92.9659 10.5443 92.9659 10.7932V13.2193C92.9659 13.4992 92.9504 13.6703 92.935 13.7792C92.9195 13.7792 92.9195 13.7636 92.9041 13.7636C92.8114 13.7169 92.6878 13.6392 92.5333 13.5614L86.9247 10.1089C86.8165 10.0311 86.6775 9.98444 86.5384 9.93779C86.3994 9.89113 86.2603 9.87558 86.1058 9.87558C85.6732 9.87558 85.3178 10.0155 85.0243 10.311C84.7462 10.6065 84.6071 10.9642 84.6071 11.3997V14.9922C84.6071 15.2411 84.6998 15.4743 84.8698 15.6454C85.0397 15.8165 85.2715 15.9098 85.5187 15.9098C85.7659 15.9098 85.9977 15.8165 86.1676 15.6454C86.3376 15.4743 86.4303 15.2411 86.4303 14.9922V12.5661C86.4303 12.2862 86.4457 12.1151 86.4612 12.0062C86.4766 12.0062 86.4766 12.0218 86.4921 12.0218C86.5848 12.0684 86.7084 12.1462 86.8629 12.2239L92.4715 15.6765C92.5796 15.7543 92.7187 15.8165 92.8577 15.8476C92.9968 15.8942 93.1358 15.9098 93.2903 15.9098C93.7229 15.9098 94.0783 15.7698 94.3719 15.4743C94.65 15.1788 94.789 14.8211 94.789 14.3857V10.8087C94.789 10.5599 94.6963 10.3266 94.5264 10.1555C94.3564 9.96889 94.1247 9.87558 93.8775 9.87558Z" fill="#1D1D1B"/>
<path d="M105.295 10.1555C105.125 9.98443 104.894 9.89111 104.646 9.89111C104.353 9.89111 104.106 10.0155 103.936 10.2488L101.062 14.0902C101.031 14.1368 100.969 14.199 100.907 14.2613C100.877 14.2924 100.861 14.2924 100.861 14.2924C100.861 14.2924 100.846 14.2924 100.815 14.2613C100.737 14.199 100.676 14.1368 100.629 14.0746L97.7864 10.2644C97.6165 10.0155 97.3693 9.89111 97.0603 9.89111C96.8131 9.89111 96.5813 9.98443 96.4113 10.1555C96.2414 10.3266 96.1487 10.5599 96.1487 10.8087C96.1487 10.9487 96.1796 11.0731 96.2414 11.1975C96.2877 11.2753 96.3186 11.3375 96.365 11.4152L99.3469 15.4277C99.5169 15.6609 99.7332 15.8476 100.011 15.972C100.274 16.0964 100.552 16.1586 100.846 16.1586C101.155 16.1586 101.464 16.0809 101.726 15.9409C102.004 15.8009 102.221 15.6143 102.391 15.381L105.342 11.3841C105.481 11.2441 105.558 11.042 105.558 10.7931C105.558 10.5443 105.465 10.3266 105.295 10.1555Z" fill="#1D1D1B"/>
<path d="M114.133 14.93C114.133 14.6812 114.04 14.4479 113.87 14.2768C113.7 14.1057 113.469 14.0124 113.221 14.0124H109.05C108.803 14.0124 108.571 14.1057 108.401 14.2768C108.231 14.4479 108.138 14.6812 108.138 14.93C108.138 15.1788 108.231 15.4121 108.401 15.5832C108.571 15.7543 108.803 15.8476 109.05 15.8476H113.221C113.469 15.8476 113.7 15.7543 113.87 15.5832C114.04 15.3966 114.133 15.1788 114.133 14.93Z" fill="#E42313"/>
</svg>
