<svg width="110" height="123" viewBox="0 0 110 123" fill="none" xmlns="http://www.w3.org/2000/svg">
<g clip-path="url(#clip0)">
<path d="M89.4289 74.8464L68.3742 63.1513L79.3057 53.4012C79.8074 52.9882 79.9077 52.2615 79.5955 51.6597C79.2833 51.0579 78.6188 50.7891 78 50.9764L64.3624 54.7742L68.812 22.6854C68.8945 22.0163 68.4685 21.3793 67.8431 21.1857C67.2176 20.9921 66.5063 21.2771 66.1785 21.9333L51.9274 50.8619L42.4613 39.9756C42.0566 39.4714 41.3386 39.3755 40.7588 39.638C40.1612 39.9582 39.8903 40.632 40.071 41.2563L43.8098 55.5475L19.9436 53.3376C19.2646 53.3169 18.6492 53.6947 18.453 54.3285C18.2568 54.9624 18.5333 55.6794 19.1231 55.9883L40.121 67.6658L28.962 77.3455C28.4603 77.7585 28.36 78.4852 28.6153 79.0694C28.8105 79.4455 29.116 79.6663 29.4571 79.7719C29.6846 79.8424 29.9299 79.8551 30.193 79.8103L44.4349 76.0733L41.974 100.127C41.8916 100.796 42.3175 101.433 42.943 101.627C43.5684 101.82 44.2229 101.518 44.5718 100.994L56.3759 79.7696L65.7885 90.8287C65.9803 91.0144 66.1721 91.2 66.3995 91.2704C66.7407 91.376 67.1176 91.3664 67.4342 91.1487C68.0318 90.8285 68.2848 90.2123 68.1789 89.5481L64.6853 75.2696L88.6652 77.5147C89.3264 77.593 89.9028 77.14 90.099 76.5062C90.2952 75.8723 90.0008 75.2129 89.4289 74.8464ZM73.1179 55.2744L65.9157 61.6325C65.9157 61.6325 65.8979 61.6902 65.8232 61.7302L63.5386 60.4547L63.9433 57.7385L73.1179 55.2744ZM64.8643 30.8087L60.8227 60.3717L54.8468 63.5734L51.7248 57.5555L64.8643 30.8087ZM44.2889 46.3505L50.5807 53.6022L49.38 56.072L46.7744 55.8337C46.7923 55.7761 46.7923 55.7761 46.7532 55.7009L44.2889 46.3505ZM44.6087 73.0962L35.2635 75.5075L42.5794 69.1846C42.5973 69.1269 42.5973 69.1269 42.672 69.0869L45.0134 70.38L44.7403 73.0738C44.6834 73.0562 44.6834 73.0562 44.6087 73.0962ZM46.4984 67.9982L26.2431 56.7399L49.3166 58.8938L52.3996 64.8365L46.4984 67.9982ZM45.4044 93.6748L47.7293 70.463L53.6874 67.3189L56.6923 73.1111C56.7314 73.1863 56.7882 73.2039 56.8272 73.2792L45.4044 93.6748ZM64.0925 84.4314L57.9323 77.1573C57.8754 77.1397 57.8754 77.1397 57.8364 77.0645L59.133 74.6875L61.7954 74.9433C61.7776 75.001 61.7776 75.001 61.8166 75.0762L64.0925 84.4314ZM59.1607 71.9809C59.1217 71.9057 59.1395 71.848 59.1005 71.7728L56.0956 65.9806L61.9968 62.8189L82.2521 74.0772L59.1607 71.9809Z" fill="#D29966"/>
</g>
<path d="M43.9753 107.502C43.3012 106.878 42.5278 106.437 41.6551 106.179C41.2229 106.051 40.8701 106.037 40.5965 106.137C40.323 106.237 40.1445 106.428 40.061 106.711C39.9234 107.176 40.1742 107.612 40.8134 108.018C41.951 108.725 42.6992 109.389 43.0578 110.01C43.4248 110.633 43.4977 111.319 43.2766 112.067C43.0162 112.948 42.518 113.533 41.782 113.821C41.0461 114.11 40.0921 114.081 38.9202 113.735C38.3966 113.58 37.8756 113.34 37.3571 113.015C36.8411 112.682 36.43 112.33 36.1238 111.959L37.1126 110.449C37.7884 111.281 38.5834 111.832 39.4976 112.102C39.9298 112.23 40.2797 112.239 40.5474 112.128C40.8258 112.012 41.013 111.791 41.1088 111.467C41.1874 111.201 41.1598 110.958 41.0261 110.738C40.9007 110.52 40.6333 110.278 40.2238 110.013C39.1834 109.344 38.4839 108.698 38.1253 108.077C37.7691 107.448 37.6954 106.78 37.9042 106.073C38.1376 105.284 38.6181 104.744 39.3458 104.453C40.0817 104.164 40.9858 104.178 42.058 104.495C43.1966 104.832 44.1267 105.324 44.8482 105.971L43.9753 107.502Z" fill="#D29966"/>
<path d="M65.4408 17.8423L68.2433 8.7755L70.3051 9.41278L71.802 15.9714L71.8269 15.979L73.5468 10.4148L75.6085 11.0521L72.806 20.1188L70.7443 19.4815L69.2473 12.923L69.2225 12.9153L67.5026 18.4795L65.4408 17.8423Z" fill="#D29966"/>
<path d="M11.819 47.8394L11.7944 47.831L8.29991 54.2847L5.86695 53.4444L6.9746 43.7868L9.08808 44.5168L7.85454 51.7515L7.87911 51.76L11.2999 45.2808L13.8434 46.1593L12.5239 53.3643L12.5484 53.3728L16.0552 46.9233L18.1195 47.6363L13.0307 55.9187L10.5977 55.0784L11.819 47.8394Z" fill="#D29966"/>
<path d="M96.5292 74.9251L95.9601 76.7766L99.4021 77.8346L98.9094 79.4376L95.4673 78.3796L94.7874 80.5914L98.478 81.7259L97.9547 83.4283L92.1517 81.6445L94.9401 72.5733L100.743 74.3571L100.22 76.0595L96.5292 74.9251Z" fill="#D29966"/>
<defs>
<clipPath id="clip0">
<rect width="82" height="92" fill="white" transform="translate(30.3086 11) rotate(15.3208)"/>
</clipPath>
</defs>
</svg>
