<svg width="76" height="24" viewBox="0 0 76 24" fill="none" xmlns="http://www.w3.org/2000/svg">
<path d="M30.46 3.79818C30.46 3.79818 29.3735 4.9682 27.5349 6.55608C26.6156 7.30823 25.4456 8.22753 24.192 9.06325C22.9385 9.89898 21.5177 10.7347 20.097 11.4033C18.6763 12.0719 17.1719 12.7404 15.6676 13.1583C14.2469 13.6597 12.8262 13.9105 11.6562 14.0776C10.4861 14.2447 9.39971 14.3283 8.73113 14.3283C7.97897 14.3283 7.64468 14.3283 7.64468 14.3283C7.56111 14.3283 7.47754 14.2447 7.47754 14.0776C7.47754 13.994 7.56111 13.9105 7.64468 13.9105C7.64468 13.9105 8.06255 13.9105 8.73113 13.8269C9.39971 13.7433 10.4026 13.6597 11.5726 13.409C13.9126 12.9912 16.9212 11.9883 19.7627 10.5676C21.1834 9.89898 22.6042 9.06325 23.8577 8.3111C25.1113 7.47537 26.2813 6.72322 27.2006 6.05464C28.1199 5.30249 28.9557 4.71748 29.4571 4.29962C29.9585 3.88176 30.2928 3.63104 30.2928 3.63104C30.3764 3.54747 30.5435 3.54747 30.6271 3.63104C30.5435 3.54747 30.5435 3.71461 30.46 3.79818Z" fill="#D29966"/>
<path d="M75.4227 10.4841C74.0855 5.13542 67.0654 6.05472 63.0539 7.05759C60.6303 7.6426 58.2067 8.56189 55.9503 9.73191C54.7803 10.3169 53.6938 10.9855 52.6074 11.5705C52.1059 11.8212 51.4374 11.1526 51.0195 10.9019C50.4345 10.4841 49.7659 10.0662 49.1809 9.64834C47.008 8.06046 44.9187 6.38901 42.8294 4.63399C41.8265 3.88184 40.9908 2.96254 40.0715 2.12681C39.4029 1.45823 38.4001 0.0375012 37.3972 0.873226C33.4693 4.38327 29.6249 7.97689 25.1956 10.9019C24.7777 11.1526 24.1092 11.9048 23.6077 11.5705C23.1063 11.2362 22.5213 10.9855 22.0198 10.6512C20.8498 9.98263 19.6798 9.39762 18.4262 8.89618C16.0026 7.80974 13.579 6.97402 10.9883 6.47258C8.56468 6.05472 5.97393 5.88758 3.6339 6.89045C1.71173 7.89332 0.541719 10.0662 0.625291 12.3227C0.959581 18.0892 7.39466 18.4235 11.7404 17.5042C14.2476 17.0027 16.7548 15.9998 19.0948 14.9134C20.1813 14.412 21.3513 13.827 22.3541 13.242C22.8556 12.9077 23.4406 12.6569 23.942 12.3227C24.527 12.6569 25.0285 12.9912 25.6135 13.4091C29.9592 16.3341 33.8871 19.9278 37.7315 23.4378C38.4001 24.1064 39.9879 22.1006 40.4058 21.6828C41.4087 20.7635 42.4951 19.8442 43.498 18.9249C45.4201 17.2534 47.4259 15.6656 49.5152 14.1613C50.0166 13.827 50.5181 13.4927 51.0195 13.0748C51.2702 12.9077 51.5209 12.7405 51.7717 12.5734C52.1895 12.3227 52.1895 12.4898 52.6074 12.7405C53.7774 13.4091 54.9474 14.0777 56.201 14.5791C58.4575 15.6656 60.8811 16.752 63.3882 17.337C67.3161 18.3399 73.7512 18.9249 75.3391 14.0777C75.757 12.8241 75.757 11.6541 75.4227 10.4841C75.2555 9.98263 75.5898 10.9855 75.4227 10.4841ZM20.0141 13.9941C16.4205 15.6656 12.5762 16.6684 8.56468 16.752C6.80966 16.752 4.72034 16.5013 3.38318 15.2477C2.04602 14.0777 1.79531 12.2391 2.21317 10.5676C3.38318 6.63973 8.89897 7.05759 11.9911 7.55903C16.1698 8.22761 19.9305 9.81548 23.5242 11.9884C22.4377 12.7405 21.2677 13.4091 20.0141 13.9941C18.3427 14.7463 21.2677 13.4091 20.0141 13.9941ZM51.1031 12.4898C48.8466 13.9941 46.5902 15.4984 44.4173 17.1699C43.3308 18.0056 42.1608 18.8413 41.0744 19.7606C40.5729 20.1785 40.0715 20.5963 39.5701 20.9306C39.3194 21.0978 39.0686 21.3485 38.8179 21.5156C38.4836 21.7663 38.2329 22.2678 37.815 21.9335C33.4693 18.4235 29.0399 14.997 24.2763 11.9884C26.7835 10.4841 29.1235 8.81261 31.4635 7.05759C32.55 6.22187 33.72 5.38614 34.8064 4.46684C35.3914 4.04898 35.9765 3.63112 36.5615 3.12968C36.8122 2.96254 37.0629 2.71182 37.3136 2.54468C37.6479 2.29396 37.8986 1.79252 38.3165 2.12681C40.4058 3.88184 42.5787 5.55329 44.7516 7.22474C47.008 8.97976 49.3481 10.5676 51.8552 12.0719C51.6045 12.2391 51.3538 12.3227 51.1031 12.4898C49.5988 13.4927 51.3538 12.3227 51.1031 12.4898ZM74.1691 12.1555C73.8348 15.9998 69.6562 16.9191 66.4804 16.5849C64.1404 16.3341 61.6332 15.9998 59.2932 15.2477C56.9531 14.4955 54.7803 13.242 52.691 11.9884C56.6189 9.56477 60.8811 7.89332 65.4775 7.30831C68.904 6.97402 74.4198 7.47545 74.1691 12.1555Z" fill="#D29966"/>
<path d="M45.7531 20.2621C45.7531 20.2621 46.8395 19.0921 48.6781 17.5042C49.5974 16.752 50.7674 15.8327 52.021 14.997C53.2746 14.1613 54.6953 13.3256 56.1161 12.657C57.5368 11.9884 59.0411 11.3198 60.5454 10.9019C61.9661 10.4005 63.3869 10.1498 64.5569 9.98265C65.7269 9.81551 66.8134 9.73193 67.4819 9.73193C68.2341 9.73193 68.5684 9.73193 68.5684 9.73193C68.6519 9.73193 68.7355 9.81551 68.7355 9.98265C68.7355 10.0662 68.6519 10.1498 68.5684 10.1498C68.5684 10.1498 68.1505 10.1498 67.4819 10.2334C66.8134 10.3169 65.8105 10.4005 64.6405 10.6512C62.3004 11.0691 59.2918 12.072 56.4504 13.4927C55.0296 14.1613 53.6089 14.997 52.3553 15.7492C51.1017 16.5849 49.9317 17.337 49.0124 18.0056C48.0931 18.7578 47.2574 19.3428 46.756 19.7606C46.2545 20.1785 45.9202 20.4292 45.9202 20.4292C45.8367 20.5128 45.6695 20.5128 45.5859 20.4292C45.6695 20.4292 45.6695 20.3456 45.7531 20.2621Z" fill="#D29966"/>
<path d="M38.1481 15.9162L33.1338 12.1555L38.1481 8.47827L43.1625 12.1555L38.1481 15.9162Z" fill="#D29966"/>
</svg>
