<?xml version="1.0" encoding="iso-8859-1"?>
<!-- Generator: Adobe Illustrator 16.0.0, SVG Export Plug-In . SVG Version: 6.00 Build 0)  -->
<!DOCTYPE svg PUBLIC "-//W3C//DTD SVG 1.1//EN" "http://www.w3.org/Graphics/SVG/1.1/DTD/svg11.dtd">
<svg version="1.1" id="Capa_1" xmlns="http://www.w3.org/2000/svg" xmlns:xlink="http://www.w3.org/1999/xlink" x="0px" y="0px" width="438.536px" height="438.536px" viewBox="0 0 438.536 438.536" style="enable-background:new 0 0 438.536 438.536;" xml:space="preserve">
	<symbol  id="insta" viewBox="0 0 64 64">
		<path d="M421.981,16.562C410.941,5.519,397.711,0,382.298,0H56.248C40.83,0,27.604,5.521,16.561,16.562
		C5.52,27.6,0.001,40.828,0.001,56.243V382.29c0,15.413,5.518,28.644,16.56,39.683c11.043,11.04,24.272,16.563,39.687,16.563
		h326.046c15.41,0,28.644-5.523,39.684-16.563c11.043-11.039,16.557-24.27,16.557-39.683V56.243
		C438.534,40.825,433.021,27.604,421.981,16.562z M157.462,158.025c17.224-16.652,37.924-24.982,62.097-24.982
		c24.36,0,45.153,8.33,62.381,24.982c17.228,16.655,25.837,36.785,25.837,60.386c0,23.598-8.609,43.729-25.837,60.379
		c-17.228,16.659-38.014,24.988-62.381,24.988c-24.172,0-44.87-8.336-62.097-24.988c-17.228-16.652-25.841-36.781-25.841-60.379
		C131.621,194.81,140.234,174.681,157.462,158.025z M388.865,370.589c0,4.945-1.718,9.083-5.141,12.416
		c-3.433,3.33-7.519,4.996-12.282,4.996h-305.2c-4.948,0-9.091-1.666-12.419-4.996c-3.333-3.326-4.998-7.471-4.998-12.416V185.575
		H89.08c-3.805,11.993-5.708,24.462-5.708,37.402c0,36.553,13.322,67.715,39.969,93.511c26.65,25.786,58.721,38.685,96.217,38.685
		c24.744,0,47.583-5.903,68.527-17.703c20.937-11.807,37.486-27.839,49.676-48.112c12.183-20.272,18.274-42.4,18.274-66.38
		c0-12.94-1.91-25.406-5.715-37.402h38.547v185.014H388.865z M388.865,115.626c0,5.52-1.903,10.184-5.716,13.99
		c-3.805,3.809-8.466,5.711-13.989,5.711h-49.676c-5.517,0-10.185-1.903-13.99-5.711c-3.806-3.806-5.708-8.47-5.708-13.99V68.522
		c0-5.33,1.902-9.945,5.708-13.848c3.806-3.901,8.474-5.854,13.99-5.854h49.676c5.523,0,10.185,1.952,13.989,5.854
		c3.812,3.903,5.716,8.518,5.716,13.848V115.626z"/>
	</symbol>
	<symbol  id="vk" viewBox="0 0 24 24">
		<path d="m19.915 13.028c-.388-.49-.277-.708 0-1.146.005-.005 3.208-4.431 3.538-5.932l.002-.001c.164-.547 0-.949-.793-.949h-2.624c-.668 0-.976.345-1.141.731 0 0-1.336 3.198-3.226 5.271-.61.599-.892.791-1.225.791-.164 0-.419-.192-.419-.739v-5.105c0-.656-.187-.949-.74-.949h-4.126c-.419 0-.668.306-.668.591 0 .622.945.765 1.043 2.515v3.797c0 .832-.151.985-.486.985-.892 0-3.057-3.211-4.34-6.886-.259-.713-.512-1.001-1.185-1.001h-2.625c-.749 0-.9.345-.9.731 0 .682.892 4.073 4.148 8.553 2.17 3.058 5.226 4.715 8.006 4.715 1.671 0 1.875-.368 1.875-1.001 0-2.922-.151-3.198.686-3.198.388 0 1.056.192 2.616 1.667 1.783 1.749 2.076 2.532 3.074 2.532h2.624c.748 0 1.127-.368.909-1.094-.499-1.527-3.871-4.668-4.023-4.878z"/>
	</symbol>
	<symbol  id="facebook" viewBox="0 0 24 24">
		<path d="m15.997 3.985h2.191v-3.816c-.378-.052-1.678-.169-3.192-.169-3.159 0-5.323 1.987-5.323 5.639v3.361h-3.486v4.266h3.486v10.734h4.274v-10.733h3.345l.531-4.266h-3.877v-2.939c.001-1.233.333-2.077 2.051-2.077z"/>
	</symbol>
</svg>
