<svg xmlns="http://www.w3.org/2000/svg" width="98.943" height="107.758" viewBox="0 0 98.943 107.758"><g transform="translate(-133.135 -30.399)"><path d="M178.977,211.132c-.484,1.646-.675,1.149-2.269,1.485-1.136.239-2.129.348-3.3.553.132-1.374.626-1.232,1-1.952l4.563-.086Zm.569-1.911c-.09.607-.1.457-1.4.711a15.987,15.987,0,0,1-1.691.21c.255-.321.237-.357.406-.587l2.688-.334Zm3.93-.563c.245-.415,1.233-.206,2.139-.144,7.829.534,11.486-1.327,16.3-1.325a2.758,2.758,0,0,0,.23.614c-.941-.181-7.792.976-9.426,1.173-1.785.215-2.753.686-4.81.506-.686-.06-4.18-.485-4.435-.824Zm21.874-1.056a2.352,2.352,0,0,1,1.791-.52c1.255.105,1.663-.049,1.906.615l-3.7-.1Zm-12.732-.293c.37-.286.638-.234,1.1-.4.42-.152.682-.275,1.091-.406l.226.38c.071.129.08.174.192.4l-2.614.03Zm-40.491-1.644c.86-.291,1.776.29,2.451.592.955.427,1.97.081,2.492.849l-.231.087a16.791,16.791,0,0,1-4.961.427l.248-1.954Zm60.973,1.219c.364-.144.448-.363.984-.488l.132.512-1.116-.025Zm-28.739-.06c-.973.384-.909-.141-.909-.141.838-.375.867.087.909.141Zm14.255-.09c.316-.736.384-.872,1.106-1.021a11.3,11.3,0,0,1,2-.194l-.059.881a7.038,7.038,0,0,1-3.051.334Zm19.415-3.365,1.674-.092a2.831,2.831,0,0,1-1.895,1.237l.221-1.145Zm-34.95.508c-1.044.043-.868.129-1.264-.721a1.15,1.15,0,0,1,.287-.113c.037-.01.234-.046.277-.048.567-.034.535.049.722.162l-.022.721ZM153,201.747c.241-.447-.152-.074.5-.343a4.133,4.133,0,0,1,2.133-.293c-.121,1.09-.866,1.209-2,1-.766-.143-.471.007-.635-.361Zm54.458-.1c-1.42-.077-1.335.129-1.043-1.234.255-1.188.322-.953,1.791-.957l-.749,2.191Zm-47.657-.354c-.148-.87.032-1.681.824-1.781a25.027,25.027,0,0,0,4.23-1.071,3.89,3.89,0,0,1,1.811-.83c-.05.169-.868,1.805-.9,1.845a30.367,30.367,0,0,1-4.077,1.218,6.823,6.823,0,0,0-1.884.619ZM147.067,198.5c.692-1.918,2.166-.733,3.191-1.537a5.353,5.353,0,0,1-.164,1.248l-3.027.289Zm28.595-.8c-.367-1.532,1.021-2.174,2.818-2.955,1.26-.548,3.578-1.367,4.7-.2,2.531,2.642-2.819,6.115-3.425,7.342a12.611,12.611,0,0,0,1.207,1.473,10.915,10.915,0,0,1,1.086,1.605c1.776,3.176-.33,7.139-2.987,9.093a14.883,14.883,0,0,1-1.584,1.124,8.881,8.881,0,0,1-4.06,1.4c-3.756.137-3.908-3.529-1.011-5.812.55-.433,2.5-1.885,3.493-1.744.043.7-1.148,1.038-1.687,1.4-1.571,1.066-2.136,3.173-.843,4.317,1.856,1.642,8.593-1.839,6.677-7.821-.749-2.341-2.517-2.788-2.586-3.941-.055-.922.831-1.337,1.434-1.8,3.534-2.691,3-5.7.844-5.725-2.433-.032-1.855,2.84-4.07,2.228Zm23.579,3.208a11.145,11.145,0,0,0,3.113-.51c1.242-.474,1.25-.614,1.544-2,.231-1.089.875-4.534,3.2-3.787.656,1.66-1.093,3.774-1.438,5.1a17.183,17.183,0,0,0-.635,5.569,2.771,2.771,0,0,0,1.826-.342c2.449-1.19.636-.91,1.916-4.306a7.832,7.832,0,0,1,1.572-2.688c5.119-5.316,10.266-2.852,8.768-.558-1.256,1.922-2.6,6.876-1.882,8.151,1.408.231,3-1.171,3.865-1.973a2.474,2.474,0,0,1,.546-.467c.567-.321.286-.159.437-.037.3.327.3.107-.067.533l-3.888,2.974c-2.977,1.78-3.482,1.049-3.22-2.576-.554.293-1.22,1.749-3.208,2.62-3.047,1.334-3.263-1.175-3.515-1.637-1.058.573-4.056,2.512-5.456,2.262-.594-1.261.582-5.068.67-6.593a16.683,16.683,0,0,1-2.03,1.049l-2.331.685c-.017-.03-.069.031-.1.05a15.6,15.6,0,0,1-.7,3.094,1.994,1.994,0,0,1-2.408,1.188c-.43-.722-.122-1.161-.013-1.906-1.725.669-2.152,1.746-5.595,1.678-1.281-.026-1.651.536-3.012.574a2.869,2.869,0,0,1-2.491-1.029c-1.042-1.54-.827-3.937-.3-5.89.675-2.516,1.241-3.777,3.421-3.4a5.169,5.169,0,0,1,3.97-2.1c3.854-.026,3.3,4.89,1.85,7.665-1.13,2.168-2.3,2.612-2.642,3.261a7.148,7.148,0,0,0,4.1-.99c1.924-1.029.752-2.676.927-3.274.456-.957.763,0,1.2-1.672.188-.722.346-1.457.528-2.171.559-2.194,1.805-3.027,2.7-2.639.191.657-1.139,4.747-1.22,6.1Zm-33.321,2.955c.165-3.87,1.418-6.4,4.331-8.6,2.609-1.974,7.439-2.253,3.092,2.606l-1.492,1.643c-.375.414-.726.63-1.108,1.025a16.567,16.567,0,0,1-2.106,2.148c.142,4.685,5.248,2.888,7.576,1.255.878-.617.4-.514,1.161-.738.1.806-.238.936-.815,1.36-2.043,1.5-5.546,3.057-8.236,2.314-1.773-.489-1.811-1.616-2.242-2.161-1.821.877-3.5,2.257-6.186,2.34-5.736.177-4.04-8.155.581-11.378,7.076-4.936,5.54,3.108,2.5,2.238.121-.717.617-1.413.082-2.072-1.247-.889-2.943,1.418-3.333,2.2a8.684,8.684,0,0,0-.835,4.7c.527,4.544,4.8,2.716,7.035,1.118Zm-12.041-5.5a49.491,49.491,0,0,1,2.145-7.329c.652.221,1.293,1.223,1.617,1.787,1.021,1.773-.128,3.147-1.394,4.351-.634.6-1.069,1.058-1.66,1.65-.376-.153-.31-.195-.708-.458Zm31.633-4.936c.351-.586.485-.588,1.46-.658l6.257-.187c6.032-.087,6.993-.975,12.971.207a18.152,18.152,0,0,0,2.379.238l1.884.2-3.4.621a3.3,3.3,0,0,0-1.127-.073c-.942.163-.862.764-1.827.888a26.631,26.631,0,0,1-2.689.123c-.661-.435-.586-.909-1.664-.816-.913.079-1.071.506-1.674.75a7.96,7.96,0,0,1-2.553.056c-1.269-.055-1.118.065-2.067-.449-1.689-.914-2.461-.34-4.055,0-1.254.266-3.484-.07-3.9-.9Zm-35.795,1c.58-1.616,1.941-3.15,2.4-4.944l1.043.279c-.349.466-.906.618-1.153,1.141l-1.017,3.637-1.273-.112Zm.505,6.212c-1.68.028-5.9.975-6.849.847-1.268-.17.051-1.38.591-2.119.522-.714,1.093-1.39,1.669-2.174a27.4,27.4,0,0,0,3.971-7.514c.2-.726.12-1.08.584-1.415a1.834,1.834,0,0,1,1.489-.3c-.361,2.32-3.432,6.866-4.8,9.044a22.147,22.147,0,0,0-1.736,2.7c.936-.115,1.874-.257,2.835-.384.5-.067.941-.1,1.43-.146a4.11,4.11,0,0,0,1.355-.254c.457-1.149.975-3.73,1.329-5.13.479-1.893.731-3.526,3.059-3.355l-2.373,8.345a.75.75,0,0,0,.114.058l.338.146c.334.14.067-.1.4.182a.583.583,0,0,1,.136.769c-.234.559-.629.649-1.441.679-.342,1.607-.8,2.958-1.043,4.658-.146,1.031.055,1.588-.629,2.205-.395.356-1.205.947-1.939.612-.354-1.23,1.329-5.823,1.5-7.458Zm22.18-7.505c-1.144-1.268-5.563-2.919-7.229-3.9a8.645,8.645,0,0,1-2.135-1.451c2.664-.167,2.1.108,3.9.985.548.268,1.05.462,1.668.768.518.256,1.106.545,1.64.778a32.628,32.628,0,0,1,4.768,2.518c.645.354.919.444.853,1.455-.637-.4-.257-.707-1.3-1.038a7.576,7.576,0,0,0-2.161-.117Zm-33.619-5.424c4.18-.4,6.463.877,10.071,1.215a19.821,19.821,0,0,1-2.312,5.164c-3.311.1-9.344-.954-11.484-.8v-.56l-.543,2.438a14.913,14.913,0,0,0-.184,2.948l9.492-.206c-.479,1.137-1.9,1.866-1.8,3.141.057.7.312.6.512,1.143l-6.582.168s-.436.085-.451.091c-.517.176.12-.23-.284.156.6.688,1.56.627,2.7.739a20.345,20.345,0,0,0,2.961.246l6.316-.785c.655-.109,1.072-.419,1.764-.515-.331,1.37-1.211.444-3.684,1.2a26.619,26.619,0,0,1-3.667,1.036l-8,1.5-.375,3.112c-.079.5-.242,2.914.157,3.33l-.068-1.489a52.935,52.935,0,0,0,5.648-.8,50.786,50.786,0,0,1,8.575-.856l5.889-.474c1.1-.056,2.07.077,3.167,0,1.843-.134,3.877-.509,5.744-.506,6.306.007,4.979.385,11.887-.495.761-.1,4.873-.89,5.149-.45-.131.367.217.126-.468.279l-4.958.608a15.54,15.54,0,0,0-2.837.4c-.968.174-1.884.114-2.882.248a13.94,13.94,0,0,1-2.718.38c-.932-.049-1.8-.253-2.887-.261-1.876-.014-4.168.255-6.034.328-4.162.163-7.959.159-12.043.678-2,.255-9.985,1.674-11.056,1.59l.073.918-.009.361c1.982-.34,7.744-1.2,9.525-1.271,4.805-.191,5.611-1.083,9.464-1.413.7-.06,1.549-.266,2.222-.3a20.208,20.208,0,0,1,2.39.162c1.794.108,3.336.234,5.158.259a21.275,21.275,0,0,0,4.808-.475c2.085-.452,2.91-.056,4.963-.192-.66.817-.666.546-1.827.69l.819.4c-.511.953-1.181,1.229-1.325,2.538-1.66-.074-2.9-.584-4.543-.487-3.091.182-9.89-.823-13.995.13-6.441,1.5-6.867.713-12.765,1.709-.694.117-1.457.188-2.119.342a11.619,11.619,0,0,1-2.208.254l.129.434a.966.966,0,0,0,.628.963,9.4,9.4,0,0,0,1.139-.148l7.358-1.02c1.417-.134,2.784-.416,4.315-.564,1.6-.155,3.12.033,4.793-.135,1.41-.141,2.812-.569,4.155-.652a78.787,78.787,0,0,1,9.366.3l3.235.289c.56.076.413-.033.545.625a107.865,107.865,0,0,0-12.773-.678c-1.3.078-2.439.427-3.728.576-2.887.333-5.384.117-8.292.637l-7.506,1.234.869.138c-.277.528-.806.541-1.4.758-.753.274-.857.493-1.773.342l.269.644a.632.632,0,0,0,.06.094c.421-.368,4.527-.787,5.48-.93a100.941,100.941,0,0,1,11.373-1.512c2.063-.138,4.083.172,6.126-.017a31.977,31.977,0,0,1,6.145-.307c1.912.139,4.2.1,6.007.434.965.178,1.174.6,2.47.673,1.519.085,7.515-.706,9.217-.442a49.75,49.75,0,0,0,6.155.045,31.8,31.8,0,0,0,5.895-.614c3.924-.605,7.171-.06,12.146-.734,1.915-.26,3.7-.608,5.612-.858.991-.129,1.866-.22,2.862-.331,1.042-.116,1.7-.4,2.736-.544a24.757,24.757,0,0,1,6.084.245,47.242,47.242,0,0,0,5.764.773,5.66,5.66,0,0,0,.223-1.832l.17-1.384-3.287-.392c-7.207-.383-7.156.8-9.283,1.075-2.166.275-4.365-.144-6.675.128-2.092.246-4.036.516-6.018.818-6.2.947-6.695,1.389-12.579.572-2.838-.395-7.766,1.708-12.656,1.006.941-.72.681-.571,2.972-.564a21.286,21.286,0,0,0,3.352-.075,47.809,47.809,0,0,1,6.135-.815c2.37.025,4.311.159,6.741.033,1.756-.091,10.58-1.275,12.386-1.6,2.073-.376,4.568.3,6.6.084.613-.065,2.057-.687,2.825-.862,3.1-.7,6.885-.052,9.7-.15l-.015,2.013.131-1.123q-.006-.708,0-1.416a8.635,8.635,0,0,0-.23-2.539c-.62.394-7.377.6-8.109.657-1.338.114-2.4.413-3.873.448a16.051,16.051,0,0,0-4.018.3c-3.988,1.094-4.535-.125-8.062.386-1.4.2-6.818.627-7.622,1.026.195.048-.167.01.33.04,1.873.112,4.027-.045,6.472.254a3.064,3.064,0,0,1,1.765.5,16.485,16.485,0,0,1-5.969,1.182c-2.439.033-3.373.837-6.161.312-5.023-.944-1.671-1.119-5.9-1.047l-6.758.163a3.072,3.072,0,0,1,.723-1.431c2.526.042,2.324-.559,6.014-.21a36.472,36.472,0,0,0,6.133-.056c3.737-.289,7.7-.953,11.486-1.436,1.871-.239,4.249.348,6.118.281.921-.033.663-.121,1.378-.423,1.407-.6,2.687-.41,4.22-.441a21.94,21.94,0,0,0,2.975-.373l8.8-.593a3.211,3.211,0,0,0-.392-1.8c-.159.341.062.194-.328.264l-8.81.332c.392-.788.822-.8,1.763-.82.812-.019,1.634-.036,2.45-.055a41.167,41.167,0,0,1,4.741-.106l.144-.654c-1.384.216-1.448-.407-2.721-.307a4.012,4.012,0,0,1-.965-.248c-.739-.208-2.227.14-2.8-.238.327-.478.39-.469,1.013-.474l3.974.187a7.011,7.011,0,0,0,2.326-.183c.8-.152,1.154-.426,1.108-1.245l-.07-.332-12.966-.138a7.1,7.1,0,0,1,1.488-3.873c.9-1.7-1.487-.973,6.2-1.5,1.853-.128,3.818-.4,5.566-.507-.209-1.208-.3.035-.282-2.372a3.175,3.175,0,0,0-.423-1.836c-.146-.266-.05-.117-.156-.25-1.277-.024-3.308-.448-4.62-.582-1.589-.163-3.092-.307-4.677-.478-3.067-.332-6.338-.672-9.427-.927-3.157-.261-5.661-1.287-8.568-1.633-2.432-.29-27.129-.053-30.894-.053-3.424,0-6.952.108-10.344.018-1.692-.045-3.48-.047-5.172,0-.9.027-4.374.255-4.828-.227-2.572-.926-1.759.359-3.938.073a9.965,9.965,0,0,1-3.446-1.163c.4.612.431.158.431,1.138l-6.293.04c-.443.13-.008-.114-.316.163Z" transform="translate(0 -108.586)" fill="#efeff0" fill-rule="evenodd"/><path d="M184.924,295.5l.431-.014c.215.4.2.272.117,1.048l-.646,0c-.094-.6-.163-.574.1-1.03Zm-3.709,1.176a2.429,2.429,0,1,1-4.525-1.747c.988-2.818,5.734-1.622,4.525,1.747Zm9.115.6-.06.772c-2.527,1.108-5.105-.873-3.932-3.375.917-1.956,4.3-2.129,4.082,1.293l-3.3.056c.16,1.634,1.661,1.388,3.208,1.253Zm-8.7-3.7,4.184-.04-.031.872-1.6-.053.039,3.827-1-.009.016-3.8-1.625.046.018-.837Zm14.25,0,1.047-.1-.023,1.723c1.48-.11,3.357.029,2.884,1.834-.365,1.392-2.34,1.053-3.789,1.162l-.119-4.615Zm-5.3,4.617c-.052-.87.021-.732.435-1.177.881-.946,1.223-2.753,1.67-3.442l2.349-.066-.014,4.7-.955-.277-.031-3.538-.763-.069c-.582,1.255-1.11,3.917-2.691,3.872ZM184.483,286.8c-.738,2.818-5.748,2.036-4.582-1.55a2.42,2.42,0,1,1,4.582,1.55Zm21.316-1.258,2.34-.105-.067.658-2.334.215.061-.768Zm-31.325-1.807c1.518-.065.789.146,1.324.1.134-.011,2.688-1.038,3.339,1.314.392,1.418-.344,3.945-3.43,3.14l.013,2.169-1.13.026a32.806,32.806,0,0,0-.115-6.751Zm29.03,3.716c-.022.725.1.9-.642,1a4.89,4.89,0,0,1-1.569-.1,2.367,2.367,0,0,1-.8-4.179c.778-.677,1.657-.588,2.756-.509l-.1.97c-3.454-.787-2.807,2.268-1.649,2.818a3.327,3.327,0,0,0,2,0Zm-5.756-3.681,1.125-.12-.045,4.69-.986.033.023-2.053-2.085,0,.013,2.06-1.033-.042c-.006-.842-.119-4.068-.035-4.6l1.075-.093-.051,1.832,2.087.042-.088-1.749Zm-7.635.868.062-.869c1.2-.311,3.024-.321,3.479.52.279.518.181,3.1.3,4.042a1.8,1.8,0,0,1-.554.032c-.729-.079-.218-.091-.514-.153-.365-.077-2.255.879-2.9-.454-1.045-2.157,2.736-2.337,2.826-2.367.109-1.339-1.792-1-2.7-.752Zm-4.876-.88a11.267,11.267,0,0,1,3.034.051c1.106.339,1.044,1.289.4,2,.582.6,1.172,1.516.084,2.216-.805.518-2.413.325-3.458.348.01-.812.067-1.605.054-2.424-.01-.651-.162-1.641-.117-2.2ZM168.807,282.1h4.6l.052,6.268-1.108.006.068-5.484-2.592-.014.059,5.5-1.032-.017-.047-6.262Zm-27.385,1.781c1.235,2.625,9.312,2.142,11.607,2.14,4.654,0,9.4.1,14.041-.006l.005,1.3c-3.311-.168-8.758-.016-12.467-.022-1.36,0-2.475.16-3.878.15.218.683-.337.721-.575,1.422,1.007-.814.6-.608,2.3-.517l9.251.673c2.648.283,5.963.258,9.29.55.529.046.974.11,1.443.138l1.266.07c.31.069.153.008.362.131l-.025.565c-.7.363-4.631.016-5.782-.013-6.109-.156-12.624.079-18.315-.112l.085-1.145-.172,1.128c0,.487-.045.834.187,1.128l.024-.422.471.8c3.187-.231,6.682.289,10.024.1,7.042-.4,17.987-.521,25.224-.477,1.636.01,3.613-.133,5.193.005l-.2.114c-.846.357.435-.123-.211.089a3.215,3.215,0,0,1-.578.114c-.325.047-.763.085-1.17.124-2.182.208-4.746.169-7.324.428-1.434.144-2.894.382-4.33.536-7.418.8-2.441,2.078-1.6,2.554.313.177.149-.053.319.29.153.309.087.381.072.679l-1.039.362c-.385.067-.665.123-1.067.184l-16.623,1.513c-.507.1-.194-.044-.43.219.285.228.2.085.4.428,1.656.142,4.189-.138,6.033-.136,1.612,0,4.429.367,5.767.189a21.312,21.312,0,0,0,2.537-.013c-.114-.031-.465-.107-.564-.142l-.578-.347a27.341,27.341,0,0,1,6.561-.369,3.307,3.307,0,0,0,2.763.475c1.639-.514.448-.766,2.766-.8.5.931.706.738,1.9.682l.208.023.253-.8a3.614,3.614,0,0,1,1.422.064c.041.024,1.03.7,1.083.748a19.3,19.3,0,0,0,2.654.069c.8-.055,1.924-.04,2.828-.033,1.87.013,4.178-.087,5.935.024.606-.689,1.359-.4,1.584-1.717.451.023,1.267.133,1.5-.206l-1.413-.423c-.553-1.571-.876-1.7-2.917-1.8l-.014-1.375c-.826-.574-1.262-.04-2.227-.2a9.168,9.168,0,0,0-2.883.039c-.545.287-.641,2.1-1.382,2.707-.1-1.064-.159-.794.507-1.206-.73-.34-.444.028-.958-.746a1.936,1.936,0,0,0-1.031-.814c.477-.324,8.751-.921,10.049-1.007,1.588-.106,3.382-.305,4.917-.492.826-.1,1.648-.218,2.425-.283a6.9,6.9,0,0,0,2.461-.5c-1.982-.5-13.3.014-16.269.014-2.777,0-5.555.037-8.333.053-2.6.015-5.91.17-8.44-.082l-.056-1.14a20.611,20.611,0,0,0,2.779-.639c2.3-.406,1.686.124,2.987.179a15.763,15.763,0,0,1,6.29.128,49.2,49.2,0,0,0,6.347.625c4.949.34,2.888-.036,6.612-.171l6.008-.939a37.867,37.867,0,0,1,6.639-.442c2.415-.068,12.043-.464,13.792.076-.279-.46-.237-.137-.287-.732a6.086,6.086,0,0,1,1.873-.136l.57-.14a29.289,29.289,0,0,1-5.036-.069c-4.124-.3-11.432.383-15.662-.065l0-1.19c3.182-.19,12.144-.02,15.96-.021,2.416,0,5.2.275,6.958-.855a7.4,7.4,0,0,0,2.932-4.973l.117-.479c-3.466-.363-8.553-1.583-11.9-1.027l-5.562.882c-2.783.426-9.2,1.606-11.654,1.369-2.142-.207-3.43-.628-5.748-.109a26.815,26.815,0,0,1-5.6.906c-1.929.019-4.373.188-6.21,0a9.072,9.072,0,0,0-2.9.284,23.026,23.026,0,0,1-3.155-.034,34.708,34.708,0,0,1-5.9-.511,49.093,49.093,0,0,0-12.133-.149c-2.1.184-4.083-.059-6.067.077-6.783.463-9.855,1.158-15.919,1.888-1.107.133-.955.271-.995.579Z" transform="translate(-5.769 -172.769)" fill="#f9f8fa" fill-rule="evenodd"/><path d="M238.046,347.57c-1.981-.216-6.118.519-8.5.554-3.021.044-5.82-.325-8.75-.352-.353.2.062.05-.451.156l-2.8.267c-.989.148-1.919.332-3.017.495-.671.1-6.25.767-6.335.812,1.14.9,8.539,4.678,10.262,4.715,1.611-.106,3.038-.15,4.627-.271,1.554-.118,3.007-.325,4.6-.425,8.155-.513,15.73.1,24.045-.534,2.127-.162,3.495.166,4.615-.091a13.369,13.369,0,0,0,4.616-2.214c.624-.033.084-.043.316.194.892-1.082.642-.243,1.893-.635-.418.018-1.056-.036-1.422.011-.989.127.129.285-1.154.288-1.506,0-6.759-.263-7.6-.792,1.171-.634,7.592-.385,9.609-.43.978-.022,3.106-1.491,3.66-2.109-.358-.311-10.208-.727-10.854-.735l-10.11,1.25-7.246-.153Z" transform="translate(-52.253 -220.058)" fill="#f9f8fa" fill-rule="evenodd"/><path d="M238.594,156.989c.743-.725,2.043.284,1.458,1.119-.735,1.05-2.065-.089-1.458-1.119Zm3.53-.688c-.319-1.134.673-3.52,1.881-2.294.771.782-.456,2.65-1.881,2.294Zm38.433-4.75-8.129-.13c-1.044.093-1.759.05-2.838.214-.837.127-1.735.273-2.647.34a30.818,30.818,0,0,1-5.466.2c-2.283-.168-9.64-.014-11.364.553a1.635,1.635,0,0,1-1.193.854c-.974.18-.891-.318-1.215-.807-.36-.18-.264.215-.327-.2l-.04.195c-.643,3.918-3.338,2.5-1.655.142a2.024,2.024,0,0,0,.184-.293l-.613-.044c-.366.411-.958,1.331-1.841.777a1.016,1.016,0,0,1,.478-1.693c-.012-.01.219-.337-.41-.064-.447.194-1.007,2.2-3.006,1.5-.9-.314-.75-.84-1.931-.786-.854.04.165.135-.782.362-.634.152-.449-.09-1.036-.261-.473.05-.673-.116-.593.207.755.891.948.945.687,2.242a1.691,1.691,0,0,1,1.84-.037c.706.235.21.091.412-.062-.19-.506-1.547-1.022-1-1.805a1.212,1.212,0,0,1,1.662.027c.278.2.122.131.308.269.837.622,1.412-.669,1.515,1.646.156,3.486-1.89,1.314-2.751,1.373-.424.178-.718.515-1.215.756-.005.475.094.366.118.841a4.589,4.589,0,0,1-.125,1.03c1.055.263,11.033-.876,13.986-.912,5.15-.063,10.23.126,15.378-.062,6.858-.25,5.944-1.236,12.924,1.751a5.45,5.45,0,0,0,2.872.819c2.283.032,10.1.589,11.225.333.341-.006.274-.362.424,0,.018-.03.037-.116.041-.1s.032-.077.037-.1l.05-.23a4.335,4.335,0,0,0-1.078-3.8l-.206.454-.423.1c-.234.169.23.191-.027.32-.236-.154-.214.652-.176.285l-.568-.035c-3.16.279-5.975-.248-9.1-.51l-6.377-.267c-2.241-.018-4.651.089-6.847.02.7-.7,5.147-1.024,5.98-1.085,2.335-.172,5.215-.012,7.557.011l.1-.431-.55-1.66a4.8,4.8,0,0,1-.625-2.417c-2-.132-.645-.159-1.625.163Z" transform="translate(-71.697 -84.17)" fill="#efeff0" fill-rule="evenodd"/><path d="M191.511,173.285c-1.025.5-.851.436-1.674-.279.207.691.348.229-.32.49-.016-.485,0-.371-.264-.735.27,1.257-.937,2.619-2.03,2.032l-.007-.942-1.335.094c1.664-1.375.226-1.949-.947-1.283-.765.434-.5.934-.287,1.565-1.746.923-5,.713-7.168.8a69.5,69.5,0,0,1-7.542.222c.906,1.464,6.857,1.136,8.835,1.136l60.055,0c1.476.005,8.049.321,9.067-1.166-1.125.256-8.942-.3-11.225-.333a5.45,5.45,0,0,1-2.872-.819c-6.979-2.987-6.066-2-12.924-1.751-5.149.188-10.228,0-15.378.062-2.952.036-12.931,1.175-13.986.912Z" transform="translate(-25.623 -98.554)" fill="#d1cdcf" fill-rule="evenodd"/><path d="M302.828,222.219c.346.485.612,1.242.924,1.748a1.966,1.966,0,0,1-.924-1.748Zm3.358-7.055c4.48-1.058,2.727,7.565.392,8.644-2.829,1.308-4.24-7.736-.392-8.644Zm27.409.032c-.1.527.052.094-.379.616-1.462,1.773-.959,5.519-3.427,7.35-3.287,2.438-3.625-2.912-1.359-6.4,1.305-2.011,3.639-2.914,5.165-1.563Zm-17.844,4.379c.081-1.348,1.411-5.438,1.22-6.095-.9-.388-2.142.445-2.7,2.639-.182.714-.34,1.448-.528,2.17-.437,1.677-.744.715-1.2,1.672-.175.6,1,2.245-.927,3.274a7.148,7.148,0,0,1-4.1.99c.345-.649,1.512-1.092,2.642-3.261,1.447-2.775,2-7.691-1.85-7.665a5.169,5.169,0,0,0-3.97,2.1c-2.181-.374-2.746.887-3.421,3.4-.524,1.953-.739,4.35.3,5.89a2.869,2.869,0,0,0,2.491,1.029c1.361-.038,1.731-.6,3.012-.574,3.443.068,3.87-1.009,5.595-1.678-.109.745-.416,1.184.013,1.906a1.994,1.994,0,0,0,2.408-1.188,15.6,15.6,0,0,0,.7-3.094c.032-.019.083-.081.1-.05l2.331-.685a16.69,16.69,0,0,0,2.03-1.049c-.088,1.525-1.264,5.333-.67,6.593,1.4.251,4.4-1.689,5.456-2.262.253.462.469,2.972,3.515,1.637,1.988-.871,2.653-2.327,3.208-2.62-.262,3.626.244,4.356,3.22,2.576l3.888-2.974c.371-.426.367-.206.067-.533-.151-.122.13-.285-.437.037a2.475,2.475,0,0,0-.546.468c-.866.8-2.457,2.2-3.865,1.973-.723-1.275.626-6.229,1.882-8.151,1.5-2.294-3.649-4.758-8.768.558a7.833,7.833,0,0,0-1.572,2.688c-1.28,3.4.534,3.116-1.916,4.306a2.772,2.772,0,0,1-1.826.342,17.183,17.183,0,0,1,.635-5.569c.345-1.326,2.094-3.441,1.438-5.1-2.326-.747-2.97,2.7-3.2,3.787-.294,1.382-.3,1.521-1.544,2a11.145,11.145,0,0,1-3.113.51Z" transform="translate(-116.509 -127.254)" fill="#633077" fill-rule="evenodd"/><path d="M278.663,320.629c4.447.1,3.977-.552,9.831-.054,5.72.486,5.724-.08,9.81-.007-1.818.645-11.053.358-13.8.406-3.947.069-7.583.531-11.426.9l-1.428.2c-.029.011-.075.04-.1.049a.441.441,0,0,0-.092.053l7.246.153,10.11-1.25c.646.008,10.5.424,10.854.735a8.949,8.949,0,0,0,1.725-1.329,8.167,8.167,0,0,0,1.636-1.527c-4.015.226-14.269-.785-18.409-2.16l.528.012c-.272-.237-.334-.2-.769-.252-.4.3-1.088.171-1.6.151-.977-.039-4.007.153-3.687-.959.611-1.19,11.343-2.373,13.555-2.691a43.428,43.428,0,0,1,7.664-.564c2.479.063,5.026.61,7.5.585l-.031.477a1.391,1.391,0,0,1,.145-.087h.023a.055.055,0,0,1,0,.023c.528-.241.061.121.207-.31l.062-1.534a1.8,1.8,0,0,0-.586-1.373c-1.749-.54-11.376-.144-13.791-.076a37.873,37.873,0,0,0-6.639.442l-6.008.939c-3.724.135-1.663.511-6.612.171a49.2,49.2,0,0,1-6.347-.625,15.762,15.762,0,0,0-6.29-.128c-1.3-.055-.69-.585-2.987-.179a20.612,20.612,0,0,1-2.779.639l.056,1.14c2.53.252,5.84.1,8.44.082,2.778-.016,5.556-.053,8.333-.053,2.974,0,14.288-.514,16.269-.014a6.9,6.9,0,0,1-2.461.5c-.777.065-1.6.183-2.425.283-1.534.187-3.328.386-4.917.492-1.3.086-9.572.683-10.049,1.007a1.936,1.936,0,0,1,1.031.814c.515.774.228.406.958.746-.666.411-.61.142-.507,1.206.741-.608.837-2.42,1.382-2.707a9.169,9.169,0,0,1,2.883-.039c.965.164,1.4-.37,2.227.2l.014,1.375c2.04.093,2.364.224,2.917,1.8l1.413.423c-.237.338-1.054.228-1.5.206-.224,1.314-.978,1.029-1.584,1.717Z" transform="translate(-85.671 -194.658)" fill="#d1cdcf" fill-rule="evenodd"/><path d="M213.5,111.807c.57-1.026,1.275-.663,2.633-.717l-.052.714-2.581,0Zm-2.58-.688.564.022c.032.636-.144.666-.795.681l.231-.7Zm-4.144.012a.955.955,0,0,1,.273-1.793c1.747-.46,1.93,2.465-.273,1.793Zm20.135-2.091a26.265,26.265,0,0,0-3.372-.017l-.033,1.019c-1.1.024-.867.2-1.122-.68-.175-.6-.45-.711-.6-1.109a32.093,32.093,0,0,1,5.129.786ZM213.4,106.823c.3.275.611.351.6.979a2.04,2.04,0,0,1-2.432,1.79,3.291,3.291,0,0,1,.748-2.675l-1.28.042a4.233,4.233,0,0,1-.9,2.73,1.543,1.543,0,0,1-1.541-.361c-.56-.385-.7-.478-.68-1.225h-.234c-.177.768-.435.771-1.113.983a5.974,5.974,0,0,1-1.523.427c.024,1.25-.163,2.52-1.519,2.546a1.8,1.8,0,0,1-.836-1.95c.164-.923.649-1.169,1.119-1.767l.162-.275h-.157c-.455.351-.4.457-1.15.167a1.576,1.576,0,0,1-.6.429c-.231.131-.38.189-.569.295.554.093.169-.093.471.383.128.2.2.328.291.475l-1.142-.1c.453.6.759.948.086,1.448a3.047,3.047,0,0,1-2.2.33,2.057,2.057,0,0,0,1.036.264c-.563.371-6.16.213-7.431.29a6.145,6.145,0,0,0-1.93,1.058,6.618,6.618,0,0,0-1.661,1.379,18.525,18.525,0,0,1,3.949.325c.8.127,2.968.275,3.145,1.037-2.134,1.049-10.1,1.352-10.131,1.128-.507.214-.372.143-.742.564-.511.655-.889.584-1.208,1.522,2.7-.064,5.5-.3,8.136-.539l7.771-.655a1.208,1.208,0,0,1-.37-.856,3.44,3.44,0,0,1,3.449-.058l-.024.727c.3-.3.246.385.249-.376.023.041.055.135.1.261l.139.369.054-.714c1.092-.744,1.249-.706,2.748-.355.229-.141-.29-.2.327-.108.052-.64.082-.189-.242-.385a2.381,2.381,0,0,1-1.54-.252c-.471-.31-.545-.607-.907-.938-.338.1-.816-.32-.819-.885.466-.309.487-.069,1.012-.26.341-.125.481-.32.823-.476a4.706,4.706,0,0,1,2.2-.1c.689.029,1.16-.374,2.044-.5,2.941-.433,10.254-.56,11.448-1.05a6.32,6.32,0,0,0-2.208-.172l.478-.475c3.548.574,1.721-.176,4.313-.229,1.665-.034,3.238-.048,4.913-.041,1.093-.144,2.236-.416,3.416-.477a5.643,5.643,0,0,0,.959-.091c1.512-.337,2.044-.009,2.534-.354a36.489,36.489,0,0,0-6.19-.323c-2.787.18-4.1.917-5.38,1.043.266-.445.35-.41.727-.613l1.8-.788a2.2,2.2,0,0,0,.928-.345c.548.022.835-.229,1.747-.255.672-.019,1.346-.06,2.017-.067a21.9,21.9,0,0,1,3.736.311c-.365-.375.156,0-.316-.186-.018-.007-.471-.117-.475-.118-.322-.059-.594-.076-.933-.143a25.4,25.4,0,0,0-2.874-.054,37.207,37.207,0,0,1-5.16-.517c-.75-.074-2.388-.106-2.361-.352l-.336.307c-.719.631-1.124.731-2.434.466-.392.672-.286.015-.78,1.145a2.891,2.891,0,0,1-.638-.037c-.3-.076-.207-.081-.362-.206-1.638.406-1.533.181-1.522-1.423l-.036-.135c-1,.36-.958.354-1.856-.156l.112-1.081a10.615,10.615,0,0,1-1.043.282Z" transform="translate(-35.431 -53.012)" fill="#d1cdcf" fill-rule="evenodd"/><path d="M293.215,122.542a2.76,2.76,0,0,0-.226.474l-.491.042-.557.568c-.272.471-.093.052-.307.491l-.342.8a1.846,1.846,0,0,0-.085.616c1.117-.087,6.441-.143,7.053.191-1.764.528-5.536.487-7.716.69.16-.395.124-.2.3-.625-.9.244-.406.544-1.125.908l-.018-.7-.291.41-7.327.4h.742a2.531,2.531,0,0,1,.33,1.119c-.807.427-.6.758-1.45.939-.349-.367-.339-.416-.656-.793l-1.108-.123a3.5,3.5,0,0,1,.683,1.94c1.724-.567,9.082-.721,11.364-.553a30.818,30.818,0,0,0,5.466-.2c.912-.067,1.81-.213,2.647-.34,1.079-.163,1.794-.121,2.838-.214-.448-.268-4.3-.28-5.75-.859a53.615,53.615,0,0,1,7.274.037l6.064.555c.739.124.45.089.541.4.98-.322-.377-.3,1.625-.163a4.8,4.8,0,0,0,.625,2.417c-.192-1.889-.127-2.259-.337-3.307-.14-.7-.492-.832-.713-1.536-.35-1.115-.132-.985-.589-1.354l.126.762c-1.932-.163-8.9-.9-10.188-1.649.555-.672,3.939-1.232,5.334-1.207a12.618,12.618,0,0,1,3.933.878c.266.207.316.627.734.924a2.565,2.565,0,0,0-.34-1.056c-.257-.435-.3-.252-.309-.9l-.434-.018c-.169-.776-.272-.572-.617-1.133l-1.429-1.011c-.891-.25-.488-.849-1.544-.982-.518-.065-.994-.416-1.495-.481-.408-.053-1.853-.3-2.25-.358-1.529-.238-3.74.674-5.509,1.379l-2.721,1.262c-.026.014-.349.2-.362.213-.536.38-.07.211-.717.58-.349.2-.526.176-.678.573Zm-11.284,2.12c-.36.1-.485.29-.866.6-.609.5-.531.394-.746.868,1.109-.169,1.16-.641,1.922-.722l5.159.077c1.636.021,2.215-.231,2.265.381.3-.507.393.2.566-.278.2-.548-.05-.257.368-.5.144-.606.361-.688.733-1.179.109-.282.446-.738.5-.895.2-.56.406.255.605-.433.345-.033.194-.511.516-.635l.493-.106c.549-.173.617-1.062,1.355-1.483-.777-.286-9.029,2.905-9.031,2.907a9.356,9.356,0,0,1-2.121,1.161,6.369,6.369,0,0,1-1.566.666c-.224-.227-.242.368-.153-.437Z" transform="translate(-102.211 -61.336)" fill="#d1cdcf" fill-rule="evenodd"/><path d="M171.432,321.3a2.1,2.1,0,0,0,.651,1.146c.3.348.526.76.879.933,2.758.207,13.118.172,14.579,1.21-.626,1.2-9.6,1.51-11.606,1.62-.231.26-.106-.084-.085.324a11.325,11.325,0,0,0,1.841,1.6c.237-.263-.076-.122.43-.219l16.623-1.513c.4-.061.682-.117,1.067-.184l1.039-.362c.015-.3.081-.37-.072-.679-.17-.343-.006-.112-.319-.29-.838-.476-5.815-1.754,1.6-2.554,1.436-.155,2.9-.392,4.33-.536,2.578-.259,5.142-.22,7.324-.428.407-.039.845-.077,1.17-.124a3.212,3.212,0,0,0,.578-.114c.646-.212-.635.269.211-.089l.2-.114c-1.58-.138-3.557,0-5.193-.005-7.237-.044-18.183.081-25.224.477-3.342.188-6.837-.332-10.024-.1Z" transform="translate(-26.663 -202.229)" fill="#d1cdcf" fill-rule="evenodd"/><path d="M179.714,162.815c-.011-.685.185-.853.744-1.214a1.155,1.155,0,0,1,1.41-.089c.623,1.526-1.222,1.75-2.153,1.3Zm3.182-1c-.026-.391-.172-.6.612-1.295a1.109,1.109,0,0,1,1.3-.311c.6,1.423-.7,1.927-1.912,1.606Zm2.464.033a5.536,5.536,0,0,1,.276-1.782,1.55,1.55,0,0,1,1.8.865l-.855,1.055c-.491.49-.68.179-1.219-.138Zm-2.29-1.619c-.687.878-3.777.848-2.317-.722a2.289,2.289,0,0,1,1.609-.776.9.9,0,0,1,.707,1.5ZM167.4,165.017c-.054-.569-.053-.137.141-.307l.518.48a69.5,69.5,0,0,0,7.542-.222c2.171-.085,5.421.125,7.168-.8-.217-.631-.478-1.13.287-1.565,1.173-.666,2.611-.092.947,1.283l1.335-.094a2.412,2.412,0,0,1,.685-1.266.83.83,0,0,1,1.352.176c.267.364.248.251.264.735.668-.261.527.2.32-.49-.011-1.3-.238-1.222.451-2.328l.128-.836a1.882,1.882,0,0,1-1.848-.31c-.719-.433-.73-.7-.769-1.618-.078-.506.359-.335-.467-.238a.663.663,0,0,0-.461.2c.8.768.293,1.737-.95,1.587-.4-.588-.379-.635-.436-1.54a47.2,47.2,0,0,1-7,.546c-2.6.02-4.809-.245-7.357-.3l0-.578a9.5,9.5,0,0,0-1.712,3.083,11.3,11.3,0,0,0-.136,4.392Z" transform="translate(-23.745 -88.499)" fill="#efeff0" fill-rule="evenodd"/><path d="M241.97,368.937l4.4,1.376a55.526,55.526,0,0,0,25.09.08c.88-.2,7.773-2.063,8.4-2.776-1.12.257-2.488-.071-4.615.091-8.315.633-15.89.021-24.045.534-1.591.1-3.044.307-4.6.425-1.589.121-3.016.165-4.627.271Z" transform="translate(-75.773 -234.778)" fill="#d1cdcf" fill-rule="evenodd"/><path d="M221.422,219.05c-.34-2.432,1.307-6.836,4.042-5.962a1.586,1.586,0,0,1-.334,1.936c-.381.5-.735,1.015-1.1,1.444a18.241,18.241,0,0,1-2.6,2.582Zm-2.514,2.146c-2.236,1.6-6.508,3.426-7.035-1.118a8.684,8.684,0,0,1,.835-4.7c.39-.782,2.086-3.089,3.333-2.2.535.659.039,1.356-.082,2.072,3.044.87,4.58-7.174-2.5-2.238-4.62,3.222-6.317,11.555-.581,11.378,2.685-.083,4.365-1.463,6.186-2.34.43.546.468,1.672,2.242,2.161,2.69.742,6.193-.814,8.236-2.314.577-.424.911-.553.815-1.36-.756.224-.283.121-1.161.738-2.328,1.633-7.433,3.43-7.576-1.255a16.569,16.569,0,0,0,2.106-2.148c.382-.394.733-.61,1.108-1.025l1.492-1.643c4.346-4.86-.484-4.581-3.092-2.606-2.913,2.2-4.165,4.73-4.331,8.6Z" transform="translate(-52.988 -125.919)" fill="#633077" fill-rule="evenodd"/><path d="M167.7,181.516c.14.443.215.425.544.749s.306.407.762.511a9.965,9.965,0,0,0,3.446,1.163c2.178.287,1.366-1,3.938-.073.841.222,14.781.076,16.9.076q8.477,0,16.953,0c5.582,0,11.4-.177,16.953,0,2.04.063,15.766.132,16.852-.106,1.414-.181,1.633-1.111,2.4-1.651.444-.235.224.124.3-.524-.15-.361-.083,0-.424,0-1.019,1.487-7.591,1.171-9.067,1.166l-60.055,0c-1.978,0-7.929.328-8.835-1.136l-.518-.48c-.194.169-.2-.262-.141.306Z" transform="translate(-24.042 -104.997)" fill="#7a7573" fill-rule="evenodd"/><path d="M169.8,320.07c.213,1.623,3.742,5.185,4.961,6.382a35.976,35.976,0,0,0,6.244,5.153,42.75,42.75,0,0,0,9.431,4.846,48.506,48.506,0,0,0,11.5,2.812,22.116,22.116,0,0,0,2.6.272l8.628,0a56.085,56.085,0,0,0,9.714-1.747c1.559-.443,2.862-.892,4.343-1.378l5.049-2.1c1.961-.987,2.321-1.048,2.27-2.119-.231-.237.308-.227-.316-.194a13.369,13.369,0,0,1-4.616,2.214c-.624.714-7.517,2.573-8.4,2.777a55.526,55.526,0,0,1-25.09-.08l-4.4-1.376c-1.723-.036-9.122-3.815-10.262-4.715a12.521,12.521,0,0,1-1.735-1.063,8.21,8.21,0,0,0-1.49-1.009,5.475,5.475,0,0,0-1.282-1.041c-.2-.343-.114-.2-.4-.428a11.324,11.324,0,0,1-1.841-1.6,18.126,18.126,0,0,1-2.888-3.154c-.352-.173-.581-.585-.879-.933a2.1,2.1,0,0,1-.651-1.146l-.471-.8-.024.422Z" transform="translate(-25.529 -201.382)" fill="#7a7573" fill-rule="evenodd"/><path d="M261.053,215.086c2.215.613,1.636-2.259,4.07-2.228,2.158.028,2.691,3.035-.844,5.725-.6.458-1.489.873-1.434,1.8.069,1.153,1.837,1.6,2.586,3.941,1.916,5.982-4.821,9.463-6.677,7.821-1.294-1.144-.728-3.251.843-4.317.54-.367,1.73-.7,1.687-1.4-.988-.141-2.943,1.311-3.493,1.744-2.9,2.283-2.745,5.949,1.011,5.812a8.881,8.881,0,0,0,4.06-1.4,14.884,14.884,0,0,0,1.584-1.124c2.658-1.955,4.763-5.917,2.987-9.093a10.918,10.918,0,0,0-1.086-1.605,12.608,12.608,0,0,1-1.207-1.473c.606-1.227,5.956-4.7,3.425-7.342-1.119-1.168-3.437-.35-4.7.2-1.8.782-3.185,1.424-2.818,2.955Z" transform="translate(-85.391 -125.974)" fill="#633077" fill-rule="evenodd"/><path d="M427.134,223.756c.173.18.227-.317.125.446.649-.613.37-3.743.38-5.22,0-.276.027-.745,0-1-.057-.6-.153-.522-.291-.583-1.749.1-3.713.379-5.566.507-7.686.532-5.3-.195-6.2,1.5a7.1,7.1,0,0,0-1.488,3.873l12.966.138.07.332Z" transform="translate(-195.612 -130.195)" fill="#d1cdcf" fill-rule="evenodd"/><path d="M139.458,195.62v.56c2.141-.149,8.174.9,11.484.8a19.821,19.821,0,0,0,2.312-5.164c-3.608-.338-5.891-1.615-10.071-1.215a2.853,2.853,0,0,0-1.537.544,2.1,2.1,0,0,0-1.1,1.176,7.4,7.4,0,0,0-1.089,3.294Z" transform="translate(-4.401 -111.486)" fill="#d1cdcf" fill-rule="evenodd"/><path d="M172.464,204.19c-.175,1.635-1.858,6.228-1.5,7.458.734.335,1.544-.256,1.939-.612.684-.617.484-1.174.629-2.205.24-1.7.7-3.051,1.043-4.658.811-.029,1.207-.119,1.441-.679a.583.583,0,0,0-.136-.769c-.334-.278-.067-.042-.4-.182l-.338-.146a.75.75,0,0,1-.114-.058L177.4,194c-2.328-.17-2.58,1.463-3.059,3.356-.354,1.4-.872,3.981-1.329,5.13a4.11,4.11,0,0,1-1.355.254c-.489.044-.927.08-1.43.146-.961.127-1.9.27-2.835.384a22.145,22.145,0,0,1,1.736-2.7c1.364-2.178,4.435-6.724,4.8-9.044a1.834,1.834,0,0,0-1.489.3c-.464.335-.385.689-.584,1.415a27.4,27.4,0,0,1-3.971,7.514c-.576.784-1.147,1.46-1.669,2.174-.54.738-1.859,1.948-.591,2.119.951.128,5.169-.82,6.849-.847Z" transform="translate(-22.242 -112.141)" fill="#633077" fill-rule="evenodd"/><path d="M134.546,266.3a3.581,3.581,0,0,0,.027.4l.137.459.17-.344c2.392-.246,4.891-.688,7.205-.974,2.716-.336,4.628-.2,7.27-.881a22.626,22.626,0,0,1,7.508-.6c1.3.135,5.958.721,6.91,1.239-1.275-.07-2.461-.259-3.751-.272s-2.569.077-3.879.1c-4.513.087-3.22.285-6.938.956-2.207.4-4.935.419-7.336.7-1.848.217-5.5.984-7.087.91.2.613.044.7.461,1.084l-.129-.434a11.619,11.619,0,0,0,2.208-.254c.662-.154,1.424-.225,2.119-.342,5.9-1,6.324-.214,12.765-1.709,4.1-.953,10.9.051,13.995-.13,1.648-.1,2.883.413,4.543.487.144-1.309.814-1.585,1.325-2.538l-.819-.4c1.161-.144,1.167.127,1.827-.69-2.054.136-2.879-.259-4.963.192a21.276,21.276,0,0,1-4.808.475c-1.822-.025-3.364-.151-5.158-.259a20.208,20.208,0,0,0-2.39-.162c-.673.035-1.523.241-2.222.3-3.853.331-4.659,1.222-9.464,1.413-1.78.071-7.542.931-9.525,1.271Z" transform="translate(-0.982 -161.97)" fill="#d1cdcf" fill-rule="evenodd"/><path d="M342.448,256.374l-.058-.461-8.8.593a21.94,21.94,0,0,1-2.975.373c-1.533.031-2.813-.155-4.22.441-.715.3-.457.39-1.378.423-1.869.067-4.247-.52-6.118-.281-3.784.483-7.749,1.146-11.486,1.436a36.469,36.469,0,0,1-6.133.056c-3.69-.348-3.487.252-6.014.21a3.072,3.072,0,0,0-.723,1.431l6.758-.163c4.23-.072.878.1,5.9,1.047,2.788.524,3.722-.279,6.161-.312a16.484,16.484,0,0,0,5.969-1.182,3.064,3.064,0,0,0-1.765-.5c-2.445-.3-4.6-.142-6.472-.254-.5-.03-.135.008-.33-.04.8-.4,6.227-.824,7.622-1.026,3.527-.511,4.074.708,8.062-.386a16.051,16.051,0,0,1,4.018-.3c1.471-.036,2.534-.335,3.873-.448.732-.062,7.489-.263,8.109-.657Z" transform="translate(-112.376 -157.008)" fill="#d1cdcf" fill-rule="evenodd"/><path d="M234.915,344.453c-1.756-.111-4.065-.011-5.935-.024-.9-.007-2.033-.022-2.828.033a19.309,19.309,0,0,1-2.654-.069l-2.758-.014-.208-.023c-.486.262-1.279.066-2.037.171-.66.091-1.109.151-1.734.221-1.2.134-10.675.728-11.61.118-1.338.178-4.155-.188-5.767-.189-1.845,0-4.378.279-6.033.136a5.475,5.475,0,0,1,1.282,1.041c.223-.492-.125-.07.321-.212.349-.111,14.4-.031,15.508.553,2.929.027,5.729.4,8.75.352,2.387-.035,6.524-.769,8.5-.554a.442.442,0,0,1,.092-.053c.022-.01.068-.038.1-.049l1.428-.2c3.844-.368,7.48-.83,11.426-.9,2.743-.048,11.978.239,13.8-.406-4.085-.073-4.09.493-9.81.007-5.854-.5-5.384.159-9.831.054Z" transform="translate(-41.923 -218.483)" fill="#aaa6a6" fill-rule="evenodd"/><path d="M140.892,282.1l-.042.6h.174c.04-.308-.112-.446.995-.579,6.063-.73,9.135-1.425,15.919-1.888,1.984-.135,3.968.108,6.067-.077a49.093,49.093,0,0,1,12.133.149,34.708,34.708,0,0,0,5.9.511,23.027,23.027,0,0,0,3.155.034,9.071,9.071,0,0,1,2.9-.284c1.837.184,4.281.015,6.21,0a26.815,26.815,0,0,0,5.6-.906c2.318-.519,3.606-.1,5.748.109,2.451.237,8.871-.943,11.654-1.369l5.562-.882c3.347-.556,8.434.665,11.9,1.027l-.117.479a1.609,1.609,0,0,0,.32-1.04,47.235,47.235,0,0,1-5.764-.773,24.757,24.757,0,0,0-6.084-.245c-1.035.144-1.694.428-2.736.544-1,.111-1.871.2-2.862.331-1.911.25-3.7.6-5.612.858-4.975.674-8.222.129-12.146.734a31.8,31.8,0,0,1-5.895.614A49.762,49.762,0,0,1,187.71,280c-1.7-.264-7.7.527-9.217.442-1.3-.072-1.5-.495-2.47-.673-1.805-.332-4.1-.3-6.007-.434a31.977,31.977,0,0,0-6.145.307c-2.043.189-4.063-.122-6.126.017a100.954,100.954,0,0,0-11.373,1.512c-.953.142-5.059.561-5.48.93Z" transform="translate(-5.371 -171.594)" fill="#d1cdcf" fill-rule="evenodd"/><path d="M340.428,325.207c.435.056.5.015.769.252l17.606,1.164c.048,0,.568,0,.577.006.548.1.319-.082.574.307l1.254-1.482c-3.284.464-14.807-.367-17.322-1.375.879-.465,7.836-1.148,9.317-1.1,1.621.05,3.137.356,4.732.368,3.016.023,1.5.574,2.8,1.135.268.116.255.039.512.169.376.19.214.059.443.379.023-.029.049-.116.06-.093.1.227.116-.17.124-.181s.045-.061.064-.085l.52-.623a6.157,6.157,0,0,1,.772-.938c-.887-.045-1.761-.546-3-.618-2.236-.13-8.775-.059-10.771.065-1.951.121-11.715,1.183-12.78,1.7a10.671,10.671,0,0,0,3.746.949Z" transform="translate(-141.714 -203.313)" fill="#aaa6a6" fill-rule="evenodd"/><path d="M305.554,206.754c.415.831,2.644,1.166,3.9.9,1.594-.337,2.366-.911,4.055,0,.949.514.8.393,2.067.449a7.961,7.961,0,0,0,2.553-.056c.6-.244.761-.671,1.673-.75,1.078-.093,1,.381,1.664.816a26.628,26.628,0,0,0,2.689-.123c.964-.124.885-.725,1.827-.888a3.3,3.3,0,0,1,1.127.073l3.4-.621-1.884-.2a18.154,18.154,0,0,1-2.379-.238c-5.978-1.182-6.939-.294-12.971-.207l-6.257.187c-.975.07-1.108.072-1.46.658Z" transform="translate(-120.042 -121.915)" fill="#d1cdcf" fill-rule="evenodd"/><path d="M247.632,125.373c.119-.6.162-.676.884-.71a4.038,4.038,0,0,1,1.35.2c.9.385.73,1.068.214,1.7.324.2.294-.256.242.385-.618-.089-.1-.033-.327.108.35.842-.233,1.286-.52,1.934l-.046.1.044.279a1.15,1.15,0,0,1,1.053-.293c.352.081.258.115.58.368l.081.065.17.119c-.124-.246-.183-.353.17-.832l.183-.621a1.916,1.916,0,0,1-1.29-.288c-.16-.745.167-1.025.522-1.454.5-.6,1.048-2.324,2.369-.422a1.083,1.083,0,0,1,.267.868c-.087.737-.434.543-.141.828.628-.352.114-1.3,1.058-1.738a1.777,1.777,0,0,1,2.188.466c0-.006-.007-.391,0-.407a.8.8,0,0,1,.138-.385,3,3,0,0,1,.392-.722s-1.614-.191-2.029.134c-.352,1-1.346.742-1.591-.069-.344-1.139,1.078-1.41,1.5-.821a24.6,24.6,0,0,0,2.634-.2c.9-.04,1.581-.172,2.513-.278,1.766-.2,3.358-.234,5.078-.528a29.652,29.652,0,0,0,3.159-1.1c1.1-.352,2.21-.6,3.36-.884-1.676-.007-3.248.007-4.913.041-2.592.053-.766.8-4.313.229l-.478.475a6.32,6.32,0,0,1,2.208.172c-1.194.49-8.507.617-11.448,1.05-.884.13-1.355.533-2.044.5a4.706,4.706,0,0,0-2.2.1c-.342.156-.482.351-.823.476-.525.191-.546-.049-1.012.26,0,.564.481.989.819.885Z" transform="translate(-79.145 -63.202)" fill="#efeff0" fill-rule="evenodd"/><path d="M390.684,276.354a1.609,1.609,0,0,1-.32,1.04,7.4,7.4,0,0,1-2.932,4.973c-1.762,1.13-4.542.855-6.958.855-3.816,0-12.778-.169-15.96.021l0,1.19c4.229.448,11.537-.237,15.662.065a29.289,29.289,0,0,0,5.036.069,4.181,4.181,0,0,0,1.725-.428,3.074,3.074,0,0,0,1.352-.988,9.931,9.931,0,0,0,.711-.937,5.058,5.058,0,0,1,.666-1.081,4.127,4.127,0,0,0,.522-1.278c.348-1.053,1.125-3.691.775-4.6.072-.528.115-.357-.06-.732a5.659,5.659,0,0,1-.223,1.832Z" transform="translate(-161.091 -169.964)" fill="#7a7573" fill-rule="evenodd"/><path d="M137.066,224.546v2.808c.336.9.175,1.109.893,1.683.4-.385-.234.02.284-.156.015-.005.447-.09.451-.091l6.582-.168c-.2-.547-.455-.44-.512-1.143-.1-1.275,1.316-2,1.8-3.141l-9.492.206Z" transform="translate(-2.737 -135.026)" fill="#d1cdcf" fill-rule="evenodd"/><path d="M150.332,299.652c1.4.01,2.518-.153,3.878-.15,3.709.006,9.156-.146,12.467.022l-.005-1.3c-4.641.105-9.387,0-14.041.006-2.3,0-10.372.485-11.607-2.14h-.174c0,1.457.1,1.559.979,2.245a6.857,6.857,0,0,0,2.322.965,16.616,16.616,0,0,0,6.181.351Z" transform="translate(-5.371 -184.982)" fill="#7a7573" fill-rule="evenodd"/><path d="M169.686,311.1l-.128.339-.085,1.145c5.691.191,12.206-.044,18.315.112,1.151.029,5.079.376,5.782.013l.025-.565c-.209-.123-.052-.062-.362-.131l-1.266-.07c-.468-.028-.914-.091-1.443-.138-3.327-.291-6.642-.267-9.29-.549l-9.251-.673c-1.7-.09-1.291-.3-2.3.517Z" transform="translate(-25.299 -195.006)" fill="#d1cdcf" fill-rule="evenodd"/><path d="M315.491,224.275c-.213,1.458-.677.905-2.239,1.342-1.364.382-.852-.823-.831-.848.251-.3,2.587-.465,3.07-.494Zm-1.617-4.762c-3.847.908-2.436,9.952.393,8.644,2.335-1.079,4.088-9.7-.393-8.644Z" transform="translate(-124.197 -131.603)" fill="#f9f8fa" fill-rule="evenodd"/><path d="M173.851,154.067l0,.578c2.549.052,4.761.317,7.357.3a47.2,47.2,0,0,0,7-.546c.187,2.989,2.6,1.115,1.386-.047a.663.663,0,0,1,.461-.2c.826-.1.389-.268.467.238l.546-.919c-.385-.147-.66.232-1.25.241a5.965,5.965,0,0,1-1.313-.324c-2.27-.088-4.253-.467-6.431-.6-2.235-.139-4.5-.231-6.756-.258a4.263,4.263,0,0,0-1.469,1.546Z" transform="translate(-28.347 -85.024)" fill="#d1cdcf" fill-rule="evenodd"/><path d="M135.088,269.965l.072.835c1.591.074,5.239-.693,7.087-.91,2.4-.282,5.129-.3,7.336-.7,3.719-.671,2.425-.869,6.938-.956,1.31-.025,2.578-.115,3.879-.1s2.476.2,3.751.272c-.952-.519-5.609-1.1-6.91-1.239a22.626,22.626,0,0,0-7.508.6c-2.642.683-4.554.545-7.27.881-2.315.286-4.813.728-7.205.974l-.17.344Z" transform="translate(-1.36 -164.776)" fill="#f9f8fa" fill-rule="evenodd"/><path d="M377.716,326.721c.348-.209.154-.154.486-.426-.229-.32-.067-.19-.443-.379-.257-.13-.245-.053-.512-.169-1.3-.561.212-1.112-2.8-1.135-1.594-.012-3.111-.318-4.732-.368-1.481-.045-8.438.638-9.317,1.1,2.515,1.008,14.037,1.839,17.322,1.375Z" transform="translate(-158.223 -204.58)" fill="#d1cdcf" fill-rule="evenodd"/><path d="M274.9,193.756a1.87,1.87,0,0,0-.329-.976,2.554,2.554,0,0,0-.214-.353c-.213-.266-.161-.2-.318-.247-3.531-.046-7.216-.136-10.739-.315a34.128,34.128,0,0,1-9.112-1.729c1.55-.283,9.279.285,9.836-.294-1.086.237-14.812.169-16.852.106-5.552-.173-11.372,0-16.953,0q-8.477,0-16.953,0c-2.115,0-16.056.146-16.9-.076.454.483,3.923.254,4.828.227,1.692-.051,3.48-.048,5.172,0,3.392.09,6.92-.018,10.344-.018,3.766,0,28.462-.236,30.894.053,2.907.346,5.411,1.372,8.568,1.633,3.089.255,6.36.595,9.427.927,1.585.172,3.089.316,4.677.478,1.313.134,3.343.558,4.62.582Z" transform="translate(-44.027 -111.008)" fill="#d1cdcf" fill-rule="evenodd"/><path d="M336.842,322.252a10.671,10.671,0,0,1-3.746-.949c1.064-.519,10.829-1.581,12.78-1.7,2-.124,8.536-.195,10.771-.065,1.239.072,2.112.573,3,.618a5.867,5.867,0,0,0,.6-.9l.031-.477c-2.479.025-5.026-.522-7.5-.585a43.425,43.425,0,0,0-7.664.564c-2.212.317-12.944,1.5-13.555,2.691-.32,1.112,2.71.92,3.687.959.511.021,1.2.149,1.6-.151Z" transform="translate(-138.128 -200.358)" fill="#f9f8fa" fill-rule="evenodd"/><path d="M396.543,186.057c-.556.579-8.286.011-9.836.294a34.129,34.129,0,0,0,9.112,1.729c3.523.179,7.207.268,10.739.315,0-1.8-4.969-1.031-6.756-2.112a1.456,1.456,0,0,1-.859-1.877c-.766.54-.986,1.471-2.4,1.651Z" transform="translate(-176.542 -107.223)" fill="#f9f8fa" fill-rule="evenodd"/><path d="M391.494,223.412a8.3,8.3,0,0,0-2.638.046c.029-1.425.515-1.729.875-2.693a11.094,11.094,0,0,0,2.512-.5l-.748,3.152Zm2.833-5.059c-1.525-1.351-3.859-.448-5.165,1.563-2.266,3.492-1.928,8.842,1.358,6.4,2.468-1.831,1.965-5.577,3.427-7.35.431-.522.28-.089.379-.616Z" transform="translate(-177.241 -130.41)" fill="#f9f8fa" fill-rule="evenodd"/><path d="M336.051,269.229c.174.375.132.2.06.732.588-.245.075.131.235-.306a1.73,1.73,0,0,0,.065-.54l.015-2.013c-2.811.1-6.6-.554-9.7.15-.768.174-2.211.8-2.825.862-2.028.215-4.523-.459-6.6-.083-1.806.327-10.629,1.511-12.386,1.6-2.431.126-4.371-.008-6.741-.033a47.821,47.821,0,0,0-6.135.815,21.283,21.283,0,0,1-3.352.075c-2.29-.007-2.03-.156-2.972.564,4.89.7,9.818-1.4,12.656-1.006,5.885.818,6.38.375,12.579-.572,1.981-.3,3.926-.572,6.018-.818,2.31-.272,4.509.147,6.675-.128,2.127-.27,2.076-1.458,9.283-1.075l3.287.392-.17,1.384Z" transform="translate(-106.235 -164.671)" fill="#d1cdcf" fill-rule="evenodd"/><path d="M179.356,332.28c-.021-.408-.147-.064.085-.324,2-.11,10.98-.42,11.606-1.62-1.461-1.038-11.821-1-14.579-1.21a18.128,18.128,0,0,0,2.888,3.154Z" transform="translate(-30.169 -207.981)" fill="#aaa6a6" fill-rule="evenodd"/><path d="M133.758,258.859c.037.3.017.542.036.786a1.335,1.335,0,0,0,.053.415.728.728,0,0,0,.159.38l-.073-.918c1.071.084,9.056-1.336,11.056-1.59,4.084-.519,7.88-.515,12.043-.678,1.866-.073,4.158-.342,6.034-.328,1.089.008,1.955.212,2.887.261a13.94,13.94,0,0,0,2.718-.38c1-.134,1.914-.074,2.882-.248a15.546,15.546,0,0,1,2.837-.4l4.958-.608c.684-.153.337.088.468-.279-.277-.44-4.388.353-5.149.45-6.908.88-5.581.5-11.887.495-1.867,0-3.9.372-5.744.506-1.1.079-2.071-.053-3.167,0l-5.889.474a50.787,50.787,0,0,0-8.575.856,52.918,52.918,0,0,1-5.648.8Z" transform="translate(-0.434 -156.469)" fill="#d1cdcf" fill-rule="evenodd"/><path d="M391.81,151.551l.653,3.84,7.067.451-.1-.367c-.272-.815-1.781-2.942-1.815-3.356-.544-.237-.562-1.089-.916-1.438l-5.5-.109.608.979Z" transform="translate(-179.672 -83.667)" fill="#f9f8fa" fill-rule="evenodd"/><path d="M369.635,168.234l-.686-1.317c-.163-.468-.044-.358-.468-.629l.1.367-7.067-.451.324,2.709c-1.9.129-1.575-.07-1.647-.447l-.1-1.731c-.01-.114-.032-.435-.047-.524l-.269-.045c-2.342-.023-4.71-.143-7.045.029-.833.061-5.279.39-5.98,1.085,2.2.069,4.607-.038,6.847-.02l6.377.267c1.857.156,6.574.98,9.667.706Z" transform="translate(-148.719 -94.481)" fill="#d1cdcf" fill-rule="evenodd"/><path d="M230.4,146.843c.069.763.093.428.238.607l2.088-.008.02,1.4c.587.171.4.413,1.036.261.947-.228-.072-.323.782-.362,1.181-.054,1.033.472,1.931.786,2,.7,2.559-1.307,3.006-1.5.629-.273.4.054.41.064a1.016,1.016,0,0,0-.478,1.693c.883.553,1.475-.366,1.841-.777a4.917,4.917,0,0,0,.3-1.458c-1.019.167-1.686-.02-1.48-1.358-.353.479-.294.586-.17.832l-.17-.119-.081-.065c-.322-.253-.228-.287-.58-.368a1.15,1.15,0,0,0-1.053.293l-.044-.279c-1.067,1.065-.217.37-2.046,1.6-.082-.1-.074-.016-.213-.327a2.915,2.915,0,0,1-.137-1.167,8.234,8.234,0,0,1-.909.05c-.325-.064-.315-.18-.579-.289-.68-.28-.788.013-1.179.427-.609-.139-2.107-1.361-2.537.061Z" transform="translate(-67.717 -80.596)" fill="#9f84b7" fill-rule="evenodd"/><path d="M201.246,142.353c-1.686,1.087-1.512.652-3.055.187l-7.771.655c-2.633.237-5.432.474-8.136.539.319-.937.7-.866,1.208-1.522a2.635,2.635,0,0,0-1.072.88c-.188.2-.286.344-.45.545-.323.395-.312.183-.446.709a61.236,61.236,0,0,0,14.847-.416c.43-1.422,1.928-.2,2.537-.061.391-.414.5-.707,1.179-.427.264.109.254.225.579.289a8.242,8.242,0,0,0,.909-.05l.156-.875,0-.2-.139-.369c-.047-.125-.079-.22-.1-.261,0,.761.047.077-.249.376Z" transform="translate(-33.689 -77.683)" fill="#f9f8fa" fill-rule="evenodd"/><path d="M138.91,280.226c.265.358.013.172.436.332.028.011.532.086.592.091.486.035,1.091.047,1.578.039l7.506-1.234c2.908-.521,5.405-.3,8.292-.637,1.289-.149,2.424-.5,3.728-.576a107.871,107.871,0,0,1,12.773.678c-.131-.658.016-.549-.545-.625l-3.235-.29a78.794,78.794,0,0,0-9.366-.3c-1.343.082-2.746.511-4.155.652-1.673.167-3.194-.021-4.793.135-1.53.148-2.9.43-4.315.564l-7.358,1.02a9.393,9.393,0,0,1-1.139.148Z" transform="translate(-4.021 -172.155)" fill="#d1cdcf" fill-rule="evenodd"/><path d="M200.8,351.113c.085-.045,5.663-.712,6.335-.812,1.1-.163,2.028-.347,3.017-.495l2.8-.267c.513-.105.1.049.451-.156-1.106-.585-15.159-.664-15.508-.553-.446.141-.1-.281-.321.212a8.209,8.209,0,0,1,1.49,1.009,12.521,12.521,0,0,0,1.735,1.063Z" transform="translate(-44.861 -221.669)" fill="#d1cdcf" fill-rule="evenodd"/><path d="M285.7,100.434l-1.513.668c-.651.536-.279.108-.288.46l-.112,1.081c.9.51.86.516,1.856.156l.036.135a11,11,0,0,0,1.049-1,1.243,1.243,0,0,1,1.483-.385c-.286.843.091,1.026,0,1.71a3.377,3.377,0,0,1,.765.193c1.31.265,1.715.165,2.434-.466l.336-.307.168-.213.022-.694-.13-.776c-.236-2.1-2.309-1.955-3.255-.647-.4.551-.312.769-1.208.788-.028-.038-.2-.527-.287-.705Z" transform="translate(-104.884 -48.034)" fill="#9f84b7" fill-rule="evenodd"/><path d="M377.046,321.513a5.866,5.866,0,0,1-.6.9,6.156,6.156,0,0,0-.772.938l-.52.623c-.019.024-.047.063-.064.085s-.022.408-.124.181c-.01-.023-.037.064-.06.093-.332.272-.139.217-.486.426l-1.254,1.482c-.328.083-.573.473-.876.669a8.166,8.166,0,0,1-1.636,1.527,8.951,8.951,0,0,1-1.725,1.329c-.554.618-2.682,2.087-3.66,2.109-2.017.045-8.439-.2-9.609.43.838.529,6.091.795,7.6.792,1.283,0,.165-.161,1.154-.288.366-.047,1,.007,1.422-.011a13.351,13.351,0,0,0,1.81-1.114l3.182-2.517a48.309,48.309,0,0,0,4.2-4.339c.59-.761,2.407-2.525,2.187-3.382a.054.054,0,0,0,0-.023h-.023a1.4,1.4,0,0,0-.145.087Z" transform="translate(-154.925 -202.62)" fill="#7a7573" fill-rule="evenodd"/><path d="M361.36,134.355l-.061-.292c-.419-.3-.469-.717-.735-.924a12.618,12.618,0,0,0-3.933-.878c-1.395-.025-4.779.534-5.334,1.207,1.286.751,8.257,1.486,10.188,1.649l-.126-.762Z" transform="translate(-151.889 -70.918)" fill="#efeff0" fill-rule="evenodd"/><path d="M179.548,148.822l-.862.834c2.256.026,4.521.118,6.756.258,2.179.136,4.161.514,6.431.6-.006-.618-.169-1.074.339-1.3.11-.049,1.352-.289,1.814.18a1.791,1.791,0,0,1,.268.318c.34.484.033.413.51.6a1.511,1.511,0,0,1,1.345.3c-.081-.324.12-.158.593-.207l-.02-1.4-2.088.008c-.145-.179-.169.156-.238-.607a61.237,61.237,0,0,1-14.847.416Z" transform="translate(-31.714 -82.159)" fill="#aaa6a6" fill-rule="evenodd"/><path d="M368.214,334.539c.3-.2.548-.586.876-.669-.255-.39-.026-.206-.574-.307-.009,0-.529-.007-.577-.006l-17.606-1.164-.528-.012c4.14,1.375,14.394,2.386,18.409,2.16Z" transform="translate(-150.85 -210.245)" fill="#f9f8fa" fill-rule="evenodd"/><path d="M201.422,209.063c.4.264.332.306.708.458.591-.592,1.026-1.047,1.66-1.65,1.266-1.2,2.414-2.578,1.394-4.351-.324-.563-.965-1.565-1.617-1.786a49.5,49.5,0,0,0-2.145,7.329Z" transform="translate(-47.543 -119.287)" fill="#d1cdcf" fill-rule="evenodd"/><path d="M240.938,196.273a7.576,7.576,0,0,1,2.161.117c1.045.331.664.638,1.3,1.038.066-1.011-.208-1.1-.853-1.455a32.623,32.623,0,0,0-4.768-2.518c-.534-.233-1.122-.522-1.64-.778-.618-.306-1.12-.5-1.668-.768-1.8-.877-1.233-1.152-3.9-.985a8.645,8.645,0,0,0,2.135,1.451c1.666.978,6.085,2.63,7.229,3.9Z" transform="translate(-68.536 -111.729)" fill="#d1cdcf" fill-rule="evenodd"/><path d="M231.619,296.49l1.032.017-.059-5.5,2.592.014-.068,5.484,1.108-.006-.052-6.268h-4.6l.047,6.262Z" transform="translate(-68.533 -180.899)" fill="#633077" fill-rule="evenodd"/><path d="M251.448,296.277c2.689-1.081,2.712,1.552,2.179,2.391-.113.177-2.874,2.531-2.179-2.391Zm-1.224-.95a32.806,32.806,0,0,1,.115,6.751l1.13-.026-.013-2.169c3.086.806,3.822-1.722,3.43-3.14-.651-2.352-3.2-1.325-3.339-1.314-.534.044.194-.167-1.324-.1Z" transform="translate(-81.52 -184.359)" fill="#633077" fill-rule="evenodd"/><path d="M281.356,134.393c-.066.838-.639,1.187-1.553,1.16-.295.155-.358.467-.423.806.594.247.546.248.651.983l.026.233.507-.051c.469-.432.569.006,1.128-.4l7.326-.4.291-.41-.037-.129c-.05-.612-.629-.36-2.265-.381l-5.159-.077c-.761.082-.813.553-1.922.722.215-.474.137-.365.746-.868.381-.314.506-.5.866-.6.607-.016,1.778-.978,2.5-1.267-.322-.709-1.927-.008-2.4-.4-.2.7.161.472-.284,1.074Z" transform="translate(-101.819 -71.655)" fill="#efeff0" fill-rule="evenodd"/><path d="M297.81,87.521c-.085.266-.021.222-.189.4-.069.074-.2.168-.224.137s-.093.039-.137.062c.127.547-.077.395-.137.98-.077.75.26.254-.2.958a22.952,22.952,0,0,1,2.863-.423,6.982,6.982,0,0,1,1.734-.674c.182-.46.351-.313,1-.313-.026-.032-.063-.069-.082-.093s-.056-.065-.077-.094a1.53,1.53,0,0,1-.04-1.788c-.6.28-.666.394-1.241.012a2.4,2.4,0,0,0-1.163-.569,2.353,2.353,0,0,0-2.116,1.4Z" transform="translate(-114.035 -38.787)" fill="#c1b8dc" fill-rule="evenodd"/><path d="M267.358,95.376a2.44,2.44,0,0,0,2.372,1.782,5.6,5.6,0,0,0,2.155-.555l-.278-.1a11.528,11.528,0,0,0,.968-1.17,4.505,4.505,0,0,0,.334-1.7c-.366.046-.744.084-1.095.126a1.4,1.4,0,0,1-.48.009c-.52-.108-.018.5-.329-.175-.028.028-.061.068-.082.086l-2.916,1.06c-.054-.743.042-.876-.288-1.2.139.863.2,1.169-.361,1.833Z" transform="translate(-93.449 -43.962)" fill="#c1b8dc" fill-rule="evenodd"/><path d="M260.521,102.293l.527.641-.3.642c-.018.747.119.84.68,1.225a1.543,1.543,0,0,0,1.541.361,4.233,4.233,0,0,0,.9-2.73c-.029-.755-.429-.54-1.162-.7a3.462,3.462,0,0,0-.592-1c-.2-.213-.472-.344-.82-.692-.8,0-1.81-.087-1.2,1.541l.424.713Z" transform="translate(-88.263 -48.484)" fill="#9f84b7" fill-rule="evenodd"/><path d="M192.62,133.363l4.4.282c-.327.332.2.1-.574.359-.01,0-.462.07-.465.07-.61.067-2.667.411-3.152.113,0,.294.106.053-.07.219l-.43.042c-.8.279-1.383-.081-1.887.674.033.224,8-.079,10.131-1.128-.177-.762-2.344-.91-3.145-1.037a18.525,18.525,0,0,0-3.949-.325c-.387.037-.19-.077-.554.255a.784.784,0,0,0-.308.475Z" transform="translate(-39.901 -71.157)" fill="#aaa6a6" fill-rule="evenodd"/><path d="M244.119,98.86c.05.006.415.021.426.024.473.156,0-.368.32.193l.738-.866.279-.771c-.176-1.655.266-1.532-.785-2.511a1.639,1.639,0,0,0-2.315.069c-1.559,1.381-.01,3.463,1.338,3.862Z" transform="translate(-75.883 -44.616)" fill="#9f84b7" fill-rule="evenodd"/><path d="M298.854,256.385c.255.34,3.75.765,4.435.824,2.057.18,3.025-.291,4.81-.506,1.635-.2,8.485-1.354,9.426-1.174a2.758,2.758,0,0,1-.23-.614c-4.818,0-8.474,1.859-16.3,1.325-.906-.062-1.894-.271-2.139.144Z" transform="translate(-115.377 -156.314)" fill="#d1cdcf" fill-rule="evenodd"/><path d="M249.235,222.98a18.244,18.244,0,0,0,2.6-2.582c.37-.429.724-.942,1.1-1.444a1.586,1.586,0,0,0,.334-1.936c-2.734-.874-4.382,3.53-4.042,5.962Z" transform="translate(-80.8 -129.85)" fill="#f9f8fa" fill-rule="evenodd"/><path d="M288.687,299.181a3.212,3.212,0,0,1-1.958.084l-.045-1.154a5.539,5.539,0,0,1,2.007.233l0,.837Zm-.478-1.966c-.5.428-.9.245-1.613.225l-.047-1.137a2.271,2.271,0,0,1,1.358-.139c.423.091.224.1.329.159l.331.4c-.146.548.07.318-.358.489Zm.461-1.647a11.267,11.267,0,0,0-3.034-.051c-.044.555.107,1.545.117,2.2.013.819-.044,1.612-.054,2.424,1.045-.023,2.653.169,3.458-.348,1.089-.7.5-1.613-.084-2.216.64-.716.7-1.666-.4-2Z" transform="translate(-106.169 -184.526)" fill="#633077" fill-rule="evenodd"/><path d="M229.283,154.871l-.546.919c.038.916.05,1.186.769,1.618a1.882,1.882,0,0,0,1.848.31l-.128.836c.161.416.053.153.487.36.36.172.455.224.743.376.5-.242.79-.578,1.215-.756.03-.666.128-.979-.147-1.447a1.691,1.691,0,0,0-1.84.037c.262-1.3.068-1.351-.687-2.242a1.511,1.511,0,0,0-1.345-.3l-.368.284Z" transform="translate(-66.56 -86.431)" fill="#633077" fill-rule="evenodd"/><path d="M289.4,329.072c.167-.742.4-1.174,1.25-1.167.739.006,1.026.407,1,1.113l-2.247.055Zm3.2,1.977c-1.547.135-3.048.38-3.208-1.253l3.3-.056c.214-3.421-3.164-3.249-4.082-1.293-1.173,2.5,1.405,4.482,3.932,3.375l.06-.773Z" transform="translate(-108.042 -206.539)" fill="#633077" fill-rule="evenodd"/><path d="M301.857,299.033c-.325-1.227.659-1.317,1.9-1.315l-.021,1.2a2.872,2.872,0,0,1-1.879.118ZM301,296.161c.91-.248,2.81-.587,2.7.752-.09.03-3.871.209-2.826,2.367.645,1.332,2.534.377,2.9.454.3.062-.216.074.514.153a1.8,1.8,0,0,0,.554-.032c-.122-.944-.023-3.524-.3-4.042-.454-.841-2.279-.831-3.479-.52l-.062.869Z" transform="translate(-116.659 -184.289)" fill="#633077" fill-rule="evenodd"/><path d="M260.618,330.321c-.655,2.2-3.271,1.031-2.606-1.221a1.336,1.336,0,0,1,1.862-.94,2.126,2.126,0,0,1,.745,2.162Zm.966.282c1.21-3.369-3.537-4.565-4.525-1.747a2.429,2.429,0,1,0,4.525,1.747Z" transform="translate(-86.138 -206.696)" fill="#633077" fill-rule="evenodd"/><path d="M269.3,296c1.929-1.225,2.707,2.185,1.336,3.022-1.645,1-2.938-2-1.336-3.022Zm2.969,2.234a2.42,2.42,0,1,0-4.582-1.55c-1.166,3.586,3.844,4.369,4.582,1.55Z" transform="translate(-93.556 -184.204)" fill="#633077" fill-rule="evenodd"/><path d="M259.691,137.873c-.205,1.338.461,1.525,1.48,1.358l.693-.926a2.213,2.213,0,0,0,.163-1.13,1.6,1.6,0,0,1-.426-.391c-.293-.285.054-.091.141-.828a1.083,1.083,0,0,0-.267-.868c-1.321-1.9-1.873-.18-2.369.422-.354.43-.682.709-.522,1.454a1.916,1.916,0,0,0,1.29.288l-.184.621Z" transform="translate(-87.311 -72.281)" fill="#633077" fill-rule="evenodd"/><path d="M319.929,297.2l-2.087-.042.051-1.832-1.075.093c-.084.53.029,3.756.035,4.6l1.033.042-.013-2.06,2.085,0-.023,2.053.986-.033.045-4.69-1.125.12.088,1.749Z" transform="translate(-127.863 -184.451)" fill="#633077" fill-rule="evenodd"/><path d="M320.865,58.2l-.179.8c-.57-.009-.216.149-.411-.228-.309.385-.388.838-1.09.591l-.1,1.514c.141.965.752,1.336,1.729.98a9.562,9.562,0,0,0,1.9-1.121c.277-.9-.336-.614-.264-1.369.063-.651.289-.509.084-1.451-.192-.312-.337-.656-.925-.521a.914.914,0,0,0-.749.8Z" transform="translate(-129.463 -18.778)" fill="#9f84b7" fill-rule="evenodd"/><path d="M232.2,343.638c.936.611,10.411.017,11.61-.118.625-.07,1.074-.13,1.734-.221.758-.105,1.55.091,2.037-.171-1.19.056-1.395.249-1.9-.682-2.318.029-1.126.282-2.766.8a3.308,3.308,0,0,1-2.763-.475,27.338,27.338,0,0,0-6.561.369l.578.347c.1.035.45.111.564.142a21.325,21.325,0,0,1-2.537.013Z" transform="translate(-68.968 -217.254)" fill="#d1cdcf" fill-rule="evenodd"/><path d="M350.1,73.69c-.594.08-.027-.012-.346.275-.69.621-.386.115-1.04.792L348,74.672l.471.389c.189.121.359.2.535.316-.14.515-.149.3-.431.7,1.271-.364,1.814.248,2.625.789l0,.626a2.5,2.5,0,0,0,.684-.423l.536.423,0-.657.547-.428c-.6.019-.15-.1-.183-.459-.017-.185.025-.415-.01-.713a1.427,1.427,0,0,0-.6-.99c-.537-.4-.708-.189-.865-.92a2.213,2.213,0,0,1-1.2.365Z" transform="translate(-149.595 -29.886)" fill="#c1b8dc" fill-rule="evenodd"/><path d="M242.847,157.9c.275.468.177.781.147,1.447.861-.059,2.907,2.114,2.751-1.373-.1-2.315-.678-1.024-1.515-1.646-.187-.139-.031-.068-.308-.269a1.212,1.212,0,0,0-1.662-.027c-.548.783.808,1.3,1,1.805-.2.153.295.3-.412.062Z" transform="translate(-75.885 -87.247)" fill="#9f84b7" fill-rule="evenodd"/><path d="M386.184,137.86l.016-.633,5.751.2-3.194-2.9c-.556-.411-.406-2.245-1.244-2.513l-3.825-1.105c.18.951,1.568,4,1.774,4.808l.43,1.722a.8.8,0,0,0,.29.422Z" transform="translate(-174.441 -69.976)" fill="#d1cdcf" fill-rule="evenodd"/><path d="M339.052,70.281a2.631,2.631,0,0,0-.561.144l-.4.268c-.032.1-.122.4-.144.451a.684.684,0,0,1-.187.281l-.685-.45c-.035-.019-.091-.077-.11-.045s-.085-.034-.112-.043c-.2-.065.165-.13-.691-.152a.792.792,0,0,0-.438.06c-.556.167-.208.06-.382.18-.238.551-.234.352-.09.987a2.534,2.534,0,0,0,1.526.7,10.1,10.1,0,0,0,2.279-.273l.717.085c.654-.677.35-.172,1.04-.792.319-.287-.248-.2.346-.275-.528-.584-.07.037-.314-.641a3.43,3.43,0,0,0-.31-.67l-.933-.051c-.15.322.007.224-.545.239Z" transform="translate(-140.645 -27.6)" fill="#9f84b7" fill-rule="evenodd"/><path d="M141.974,240.068l1.936.3a21.194,21.194,0,0,1-3.6.542,5.826,5.826,0,0,1-3.738-.258,3.4,3.4,0,0,0,.287.688,5.914,5.914,0,0,0-1.281.293c-.5.179-.742.317-.874.881l8-1.5a26.615,26.615,0,0,0,3.667-1.036c2.473-.761,3.353.166,3.684-1.2-.692.1-1.109.406-1.764.515l-6.316.785Z" transform="translate(-1.09 -145.071)" fill="#d1cdcf" fill-rule="evenodd"/><path d="M321.732,331.511l.028-1.35a2.015,2.015,0,0,1,1.868.287c.221,1.259-.831,1.385-1.9,1.063Zm-.92.872c1.449-.109,3.425.23,3.789-1.162.473-1.8-1.4-1.944-2.884-1.834l.023-1.723-1.047.1.119,4.615Z" transform="translate(-130.582 -206.963)" fill="#633077" fill-rule="evenodd"/><path d="M303.2,332.466c1.581.045,2.109-2.617,2.691-3.872l.763.069.031,3.538.955.277.014-4.7-2.349.066c-.447.689-.789,2.5-1.67,3.442-.414.445-.487.307-.435,1.177Z" transform="translate(-118.394 -207.044)" fill="#633077" fill-rule="evenodd"/><path d="M274.064,128.7l.087.89c.415-.325,2.029-.134,2.029-.134.932-.511,1.947-.543,1.475,1.022.445-.6.088-.378.284-1.074.471.388,2.076-.313,2.4.4a5.729,5.729,0,0,0,.988-.583l.37-.222a15.062,15.062,0,0,0,2.6-1.3c-1.72.294-3.312.326-5.078.528-.932.107-1.612.238-2.513.278a24.592,24.592,0,0,1-2.634.2Z" transform="translate(-98.118 -67.743)" fill="#d1cdcf" fill-rule="evenodd"/><path d="M220.809,227.074a6.824,6.824,0,0,1,1.884-.619,30.366,30.366,0,0,0,4.077-1.218c.037-.04.855-1.676.9-1.845a3.891,3.891,0,0,0-1.811.83,25.026,25.026,0,0,1-4.23,1.071c-.793.1-.972.911-.824,1.781Z" transform="translate(-61.007 -134.366)" fill="#d1cdcf" fill-rule="evenodd"/><path d="M315.839,47.735l.625.781.6-.063,1.215-.423c.81-.564.841-1.565.575-2.688-.647-.148-1.944-.325-2.479.105-.589.475-.538,1.27-.538,2.288Z" transform="translate(-127.202 -10.288)" fill="#9f84b7" fill-rule="evenodd"/><path d="M331.864,62.227c.316,1.084,3.013.687,3.23.575.427-.221.369-.458.564-.857l-.937-.671a3.1,3.1,0,0,1,1.507-.041c-.849-.6-1.081.327-2.078-.344a6,6,0,0,0-.683-.45c-.416-.233-.311-.271-.851-.3a1.464,1.464,0,0,1,.273-.429c-.782.522-.415.03-1.15.327a2.311,2.311,0,0,0,.126,2.194Z" transform="translate(-138.113 -20.404)" fill="#c1b8dc" fill-rule="evenodd"/><path d="M342.475,149.48l8.129.13c-.091-.308.2-.273-.541-.4L344,148.659a53.615,53.615,0,0,0-7.274-.037c1.454.579,5.3.591,5.75.859Z" transform="translate(-141.744 -82.23)" fill="#aaa6a6" fill-rule="evenodd"/><path d="M268.611,137.932a1.6,1.6,0,0,0,.426.391,2.213,2.213,0,0,1-.163,1.13c.009.679-.045.19.2.374l.934-.157c-.02-.635.174-.72.622-.978a2.911,2.911,0,0,1,1.251-.559c.065-.339.128-.651.423-.806-.329-.6-.325-.522-.314-1.459a.8.8,0,0,0-.138.385c0,.016,0,.4,0,.407a1.777,1.777,0,0,0-2.188-.466c-.944.442-.43,1.385-1.058,1.738Z" transform="translate(-94.321 -73.43)" fill="#c1b8dc" fill-rule="evenodd"/><path d="M337.043,56.087c.153.52.221.964-.416.964-.451,0-.638-.292-.977-.526.039.491.056.2-.228.539a1.464,1.464,0,0,0-.273.429c.54.033.434.071.851.3a6.008,6.008,0,0,1,.683.45c1,.671,1.23-.259,2.078.344l.337.149h.085c.507-.2.59-.117.771-.705a2.412,2.412,0,0,0-.569-1.6c-.545-.629-.606-.52-1.668-.52-.26.248-.223.238-.675.169Z" transform="translate(-140.647 -17.762)" fill="#9f84b7" fill-rule="evenodd"/><path d="M288.844,89.726a2.265,2.265,0,0,1-.267.826c-.248.422-.144.334-.517.36-.066.5-.254.714-.161,1.2.088.458-.03,0,.177.4.25.485.1-.077.245.513.572-.118.193-.078.329.09a9.207,9.207,0,0,0,.948-.158c.549-.114.444-.218,1.025-.265.179-.211.024-.067,0-.282.456-.7.12-.208.2-.958.06-.585.264-.433.137-.98a1.414,1.414,0,0,0-.72-.623l.088-.364c-.724.258-.6-.094-1.482.242Z" transform="translate(-107.733 -41.136)" fill="#9f84b7" fill-rule="evenodd"/><path d="M336.746,299.064a3.327,3.327,0,0,1-2,0c-1.157-.55-1.8-3.6,1.649-2.818l.1-.97c-1.1-.079-1.978-.169-2.756.509a2.367,2.367,0,0,0,.8,4.179,4.889,4.889,0,0,0,1.569.1c.744-.1.619-.275.642-1Z" transform="translate(-139.012 -184.38)" fill="#633077" fill-rule="evenodd"/><path d="M138.206,237.511a5.826,5.826,0,0,0,3.738.258,21.2,21.2,0,0,0,3.6-.542l-1.936-.3a20.353,20.353,0,0,1-2.961-.246c-1.141-.113-2.1-.051-2.7-.739-.718-.574-.556-.783-.893-1.683a4.2,4.2,0,0,0,.574,2.814.835.835,0,0,0,.251.3c.262.2.078.1.324.128Z" transform="translate(-2.727 -141.936)" fill="#7a7573" fill-rule="evenodd"/><path d="M268.076,84.337c.039.032.1.029.119.1.035.1.154.125.21.161.109.073.132.069.246.137l.363-.056.416-.187c.783,1.883,2.151.771,2.628,1.146a5.113,5.113,0,0,1,.547-.408,1.725,1.725,0,0,0,.46-.363.863.863,0,0,0-.2-1.23,3.651,3.651,0,0,0-2.608-.4c-.532.107-.609.319-.881.685-.421.568-.357.416-1.3.416Z" transform="translate(-93.949 -36.731)" fill="#c1b8dc" fill-rule="evenodd"/><path d="M249.747,107.432l-.444.594-.162.275c.282.562.158.034.76.567.192.17.3.418.476.6a5.974,5.974,0,0,0,1.523-.427c.677-.212.935-.215,1.113-.983-.07-.708-.163-.517-.456-1-.218-.381-.65-.5-1.257-.582l-.815.084-.738.866Z" transform="translate(-80.766 -52.971)" fill="#633077" fill-rule="evenodd"/><path d="M263.016,332.037a2.126,2.126,0,0,0-.745-2.162,1.336,1.336,0,0,0-1.862.94c-.665,2.252,1.952,3.417,2.606,1.221Z" transform="translate(-88.537 -208.412)" fill="#f9f8fa" fill-rule="evenodd"/><path d="M271.723,297.759c-1.6,1.017-.309,4.025,1.336,3.022,1.371-.837.594-4.246-1.336-3.022Z" transform="translate(-95.978 -185.96)" fill="#f9f8fa" fill-rule="evenodd"/><path d="M266.72,267.984c-.378.721-.872.578-1,1.952,1.169-.205,2.162-.314,3.3-.553,1.595-.337,1.785.161,2.269-1.485l-4.563.086Z" transform="translate(-92.306 -165.352)" fill="#d1cdcf" fill-rule="evenodd"/><path d="M394.867,226.1a11.092,11.092,0,0,1-2.512.5c-.359.964-.846,1.268-.875,2.693a8.3,8.3,0,0,1,2.638-.046l.749-3.152Z" transform="translate(-179.866 -136.254)" fill="#d1cdcf" fill-rule="evenodd"/><path d="M254,298.164c-.695,4.922,2.066,2.569,2.179,2.391.533-.839.51-3.473-2.179-2.391Z" transform="translate(-84.069 -186.245)" fill="#f9f8fa" fill-rule="evenodd"/><path d="M276.335,332.534l-.04-3.827,1.6.053.031-.872-4.184.04-.017.837,1.625-.045-.016,3.8,1,.009Z" transform="translate(-97.882 -207.119)" fill="#633077" fill-rule="evenodd"/><path d="M348.973,65.706l-.025.362c.025.031.066.039.075.092s.057.07.067.087a2.215,2.215,0,0,1,.116.219l.933.051a3.433,3.433,0,0,1,.31.67c.244.678-.214.057.314.641a2.213,2.213,0,0,0,1.2-.365c.582-.553.489-1.331.287-2.18A15.293,15.293,0,0,0,350.385,65c-.91-.156-1.29-.253-1.412.7Z" transform="translate(-150.254 -24.024)" fill="#633077" fill-rule="evenodd"/><path d="M229.353,115.985l-.27.393c-.2.492.116.758.445,1.257l.8.2a3.047,3.047,0,0,0,2.2-.33c.673-.5.367-.849-.086-1.448l-.589-.224-1.166-.186a2.926,2.926,0,0,0-1.329.336Z" transform="translate(-66.756 -59.353)" fill="#9f84b7" fill-rule="evenodd"/><path d="M194.839,251.673a16.791,16.791,0,0,0,4.961-.427l.231-.087c-.522-.769-1.537-.422-2.492-.849-.676-.3-1.591-.883-2.451-.592l-.248,1.954Z" transform="translate(-42.96 -152.64)" fill="#d1cdcf" fill-rule="evenodd"/><path d="M343.771,83.947a1.6,1.6,0,0,0-1.041.766,1.241,1.241,0,0,0,.063,1.4,1.547,1.547,0,0,0,2.517-.39l.331-.714.436.043c-.645-.588-.777-.963-1.651-1.117l-.033-.609-.143.141.016.407-.494.072Z" transform="translate(-145.795 -36.85)" fill="#9f84b7" fill-rule="evenodd"/><path d="M273.707,147.89l.262.329-.091,1.257c.324.489.24.987,1.214.807a1.635,1.635,0,0,0,1.193-.854,3.5,3.5,0,0,0-.684-1.94l1.108.123-.094-.87-.507.051-.026-.233c-.694.581,0,.559-1.055.817-.648.159-.176-.012-.7.305-.283.17-.139.233-.615.209Z" transform="translate(-97.869 -80.873)" fill="#9f84b7" fill-rule="evenodd"/><path d="M247.73,113.64c-.177-.186-.284-.434-.476-.6-.6-.533-.478,0-.76-.567-.47.6-.955.844-1.119,1.767a1.8,1.8,0,0,0,.836,1.95c1.356-.026,1.543-1.3,1.519-2.546Z" transform="translate(-78.119 -57.139)" fill="#9f84b7" fill-rule="evenodd"/><path d="M429.82,249a.893.893,0,0,0-.183-.386,41.163,41.163,0,0,0-4.741.106c-.816.019-1.637.036-2.45.055-.942.022-1.371.032-1.763.82l8.81-.332c.389-.069.169.077.328-.264Z" transform="translate(-200.197 -151.887)" fill="#d1cdcf" fill-rule="evenodd"/><path d="M314.083,85.987a1.53,1.53,0,0,0,.04,1.788c.021.029.06.071.077.094s.056.061.082.093a1.836,1.836,0,0,0,1.764-.808c.686-.672.8-.761.535-1.872-.713-.163-1.761-.385-2.335.384-.16.215-.111.135-.164.322Z" transform="translate(-125.789 -38.099)" fill="#9f84b7" fill-rule="evenodd"/><path d="M259.244,89.439c.158-.349.213-.622.606-.53-.352-.6.139-.262-.139-1.132-.174-.546-.405-.409-.833-.736-1.4.271-1.862,1.821-1.491,3.385.738,0,.74.125,1.2-.235a2.882,2.882,0,0,0,.659-.752Z" transform="translate(-86.422 -39.435)" fill="#9f84b7" fill-rule="evenodd"/><path d="M223.2,107.559c1.529,0,3.017.175,3.017-1.41,0-1.1-2.292-.379-3.162.141-.655.392-1.124,1.269.145,1.269Z" transform="translate(-62.152 -52.338)" fill="#c1b8dc" fill-rule="evenodd"/><path d="M133.826,268.874a13.089,13.089,0,0,0,.372,3.376,3.344,3.344,0,0,0,1.427,2.515c.915.151,1.019-.068,1.773-.342.6-.217,1.124-.23,1.4-.758l-.869-.138c-.488.009-1.092,0-1.578-.039-.06,0-.564-.08-.592-.091-.423-.161-.171.026-.436-.332a.966.966,0,0,1-.628-.963c-.417-.388-.263-.47-.461-1.084l-.072-.835-.137-.459a3.582,3.582,0,0,1-.027-.4l.009-.362a.728.728,0,0,1-.159-.38,1.335,1.335,0,0,1-.053-.415c-.019-.244,0-.483-.036-.786l.068,1.489Z" transform="translate(-0.434 -164.995)" fill="#7a7573" fill-rule="evenodd"/><path d="M290,107.692c-.011,1.6-.116,1.828,1.522,1.423.346-.268.919-.7,1.014-1.1.087-.684-.291-.867,0-1.71a1.243,1.243,0,0,0-1.483.385,11,11,0,0,1-1.049,1Z" transform="translate(-109.209 -52.791)" fill="#633077" fill-rule="evenodd"/><path d="M268.411,87.778l.28.17a2.4,2.4,0,0,0-.466,1.321l-.493.026v.2l.248-.14c.33.325.234.458.288,1.2l2.916-1.06c.02-.019.054-.058.082-.086a1.41,1.41,0,0,0,.552-.735c-.477-.375-1.845.737-2.627-1.146l-.416.188-.363.056Z" transform="translate(-93.709 -39.779)" fill="#9f84b7" fill-rule="evenodd"/><path d="M286.782,83.557a2.23,2.23,0,0,0,1.3,1.831c.884-.336.758.016,1.482-.242l.3-.359c0-1.187.328-1.516-.846-1.528a4.326,4.326,0,0,0-2.235.3Z" transform="translate(-106.972 -36.798)" fill="#633077" fill-rule="evenodd"/><path d="M235.913,109.121l.735.7c.6-.1.539-.087.969-.536.189-.106.338-.164.569-.295a1.576,1.576,0,0,0,.6-.429c-.453-1-.569-1.552-2.011-1.552a3.788,3.788,0,0,0-.582.839,10.008,10.008,0,0,0-.28,1.276Z" transform="translate(-71.556 -53.335)" fill="#9f84b7" fill-rule="evenodd"/><path d="M314.278,56.15c-.141.542,0-.031.01.656a3.579,3.579,0,0,0-.01.815,3.186,3.186,0,0,0,1.517.767c.7.248.781-.206,1.09-.591l-.022-.716a.9.9,0,0,0-.285-.751l-.64-.369-.6.063-1.057.125Z" transform="translate(-126.073 -17.798)" fill="#633077" fill-rule="evenodd"/><path d="M275.252,107.564a3.291,3.291,0,0,0-.748,2.675,2.04,2.04,0,0,0,2.432-1.79c.008-.629-.3-.7-.6-.979h-.85l-.231.095Z" transform="translate(-98.366 -53.658)" fill="#9f84b7" fill-rule="evenodd"/><path d="M314.219,103.107a2.439,2.439,0,0,0,.633,1.941,3.629,3.629,0,0,0,2.158-1.071,1.216,1.216,0,0,0-.307-.971c-.438-.467-2.056-.591-2.484.1Z" transform="translate(-126.074 -50.283)" fill="#633077" fill-rule="evenodd"/><path d="M248.05,141.045l0,.2c.478.295,1.164,1.083,2.051.257.351.2.069-.038.235.409.287-.648.87-1.092.52-1.934-1.5-.35-1.656-.389-2.748.355l-.054.714Z" transform="translate(-80.003 -76.121)" fill="#9f84b7" fill-rule="evenodd"/><path d="M315.141,141.764c-.178.423-.142.23-.3.625,2.18-.2,5.952-.161,7.716-.69-.612-.334-5.936-.279-7.053-.191-.009,0-.3.216-.361.256Z" transform="translate(-126.506 -77.31)" fill="#f9f8fa" fill-rule="evenodd"/><path d="M235.541,140.74c1.543.464,1.369.9,3.055-.187l.024-.727a3.44,3.44,0,0,0-3.449.058,1.208,1.208,0,0,0,.37.856Z" transform="translate(-71.04 -75.882)" fill="#633077" fill-rule="evenodd"/><path d="M441.414,239.749l-1.873.335a1.36,1.36,0,0,0,.341.278c.077.054.187.149.209.116s.068.027.1.045c1.273-.1,1.337.523,2.721.307a1.709,1.709,0,0,0,1.406-.682c.424-.406.8-.642.657-1.38.1-.763.048-.266-.125-.446.046.818-.31,1.093-1.108,1.245a7.011,7.011,0,0,1-2.326.183Z" transform="translate(-213.327 -144.76)" fill="#7a7573" fill-rule="evenodd"/><path d="M303.545,30.822c0,3.079,2.442,2.118,2.442,1.269,0-1.33-1.634-1.692-2.155-1.692-.2,0-.287.192-.287.423Z" transform="translate(-118.643)" fill="#c1b8dc" fill-rule="evenodd"/><path d="M300.348,52.616l-.029-.484c-.422-.26-.336-.365-.91-.559-1.041.156-1.167-.06-2.011.337V52.9c2.018,1.327,2.461.283,2.951-.282Z" transform="translate(-114.363 -14.742)" fill="#9f84b7" fill-rule="evenodd"/><path d="M213.151,163.009a.9.9,0,0,0-.707-1.5,2.289,2.289,0,0,0-1.609.776c-1.461,1.57,1.63,1.6,2.317.722Z" transform="translate(-53.826 -91.282)" fill="#c1b8dc" fill-rule="evenodd"/><path d="M332.868,81.519c0,.323.049.164.144.564,3.7.846,3.317-1.551,1.868-1.551-.631,0-2.011-.123-2.011.987Z" transform="translate(-139.059 -34.901)" fill="#633077" fill-rule="evenodd"/><path d="M308.28,58.423a1.385,1.385,0,0,1,.2-.247c.285-.207-.1-.012.377-.2a3.58,3.58,0,0,1,.01-.815c-.009-.687-.151-.115-.01-.656l-.286.019a1.853,1.853,0,0,0-1.677.395c-.594.457-.509.911-.335,1.646.937.077.813.294,1.719-.141Z" transform="translate(-120.653 -18.152)" fill="#9f84b7" fill-rule="evenodd"/><path d="M363.086,82.927l-.547.428,0,.657c.663.771,1.5.681,2.625.423.266-1.119.229-1.54-1.006-1.745l-1.07.237Z" transform="translate(-159.714 -36.406)" fill="#9f84b7" fill-rule="evenodd"/><path d="M349.012,82.13l-.385.287.033.609c.874.154,1.005.529,1.651,1.117l.281-.021a1.438,1.438,0,0,0,.691-.189c.642-.335.284-.1.348-.388l0-.626c-.81-.541-1.354-1.153-2.625-.789Z" transform="translate(-150.03 -35.94)" fill="#633077" fill-rule="evenodd"/><path d="M255.757,161.734c1.426.355,2.652-1.513,1.881-2.294-1.209-1.226-2.2,1.16-1.881,2.294Z" transform="translate(-85.33 -89.604)" fill="#9f84b7" fill-rule="evenodd"/><path d="M187.721,201.565l1.273.112,1.017-3.637c.247-.523.8-.675,1.153-1.141l-1.043-.279c-.459,1.794-1.82,3.328-2.4,4.944Z" transform="translate(-38.004 -115.728)" fill="#d1cdcf" fill-rule="evenodd"/><path d="M330.335,51.591l.495-.043c.5-.4.6-.255.639-.966.029-.485-.172-.1.016-.421-.13-.116-.022-.086-.25-.185-.163-.071.082-.032-.337-.1a4.49,4.49,0,0,0-.961.023c-.751.125-.818.344-1.325.678v.987l1.724.028Z" transform="translate(-136.095 -13.547)" fill="#9f84b7" fill-rule="evenodd"/><path d="M327.647,74.1c-.061-.611-.11-.541-.447-.987h-1.946l-.4.453-.031.816a1.945,1.945,0,0,0,1.586.441c.821-.021,1.018-.225,1.232-.723Z" transform="translate(-133.461 -29.738)" fill="#9f84b7" fill-rule="evenodd"/><path d="M249.509,133.357c.362.331.437.628.907.938a2.381,2.381,0,0,0,1.54.252c.516-.631.685-1.314-.214-1.7a4.039,4.039,0,0,0-1.35-.2c-.722.034-.765.106-.884.71Z" transform="translate(-81.022 -71.186)" fill="#9f84b7" fill-rule="evenodd"/><path d="M266.549,155.48a2.022,2.022,0,0,1-.184.293c-1.683,2.362,1.012,3.777,1.655-.142a1.885,1.885,0,0,0-1.471-.151Z" transform="translate(-92.378 -87.029)" fill="#633077" fill-rule="evenodd"/><path d="M226.813,174.684l.007.942c1.094.587,2.3-.775,2.03-2.032a.83.83,0,0,0-1.352-.176,2.412,2.412,0,0,0-.685,1.266Z" transform="translate(-65.221 -99.389)" fill="#9f84b7" fill-rule="evenodd"/><path d="M235.34,170.08c.823.716.649.783,1.674.279a4.589,4.589,0,0,0,.125-1.03c-.024-.474-.123-.366-.118-.841-.288-.152-.383-.2-.743-.376-.433-.207-.325.056-.487-.36-.689,1.106-.462,1.025-.451,2.328Z" transform="translate(-71.127 -95.628)" fill="#9f84b7" fill-rule="evenodd"/><path d="M280.124,132.772a3,3,0,0,0-.392.722c-.011.937-.014.854.314,1.459.914.027,1.487-.321,1.553-1.16.472-1.564-.543-1.533-1.475-1.022Z" transform="translate(-102.061 -71.056)" fill="#9f84b7" fill-rule="evenodd"/><path d="M302.816,77.878c-.73,3.075,2.377,2.749,1.724,0a2.622,2.622,0,0,0-1.724,0Z" transform="translate(-118.058 -32.952)" fill="#9f84b7" fill-rule="evenodd"/><path d="M222.029,152.139a5.964,5.964,0,0,0,1.313.324c.59-.009.865-.388,1.25-.241l.368-.284c-.478-.186-.17-.114-.51-.6a1.791,1.791,0,0,0-.268-.318c-.462-.469-1.7-.229-1.814-.18-.509.224-.346.679-.339,1.3Z" transform="translate(-61.869 -83.782)" fill="#9f84b7" fill-rule="evenodd"/><path d="M273.158,144.861l-.025.53.174.246c.476.024.332-.04.615-.209.529-.317.056-.146.7-.3,1.056-.258.361-.236,1.055-.817-.105-.735-.057-.735-.651-.983a2.911,2.911,0,0,0-1.251.559c-.448.259-.642.344-.622.978Z" transform="translate(-97.47 -78.621)" fill="#633077" fill-rule="evenodd"/><path d="M232.815,95.548c-.673,2.837,1.868,2.464,1.868.987,0-1.047-.975-1.327-1.868-.987Z" transform="translate(-69.32 -45.263)" fill="#c1b8dc" fill-rule="evenodd"/><path d="M266.5,150.31a4.917,4.917,0,0,1-.3,1.458l.613.044a1.885,1.885,0,0,1,1.471.151l.04-.195c.063.411-.033.015.327.2l.091-1.257-.262-.329-.174-.246-1.8.179Z" transform="translate(-92.643 -83.36)" fill="#d1cdcf" fill-rule="evenodd"/><path d="M247.881,86.3l-.144,1.551a8.058,8.058,0,0,0,2.442-.141c0-.642.069-.775-.311-1.105a2.106,2.106,0,0,0-1.988-.3Z" transform="translate(-79.788 -38.832)" fill="#9f84b7" fill-rule="evenodd"/><path d="M355.149,93.257c-.2-.382-.242-.315-.525-.594-.223-.219-.245-.317-.455-.543-1.054.023-1.414.426-1.437,1.419.568.149,1.557,1.141,2.052.473.338-.455-.215-.281.364-.756Z" transform="translate(-152.888 -42.972)" fill="#633077" fill-rule="evenodd"/><path d="M281.625,96.82l.575.006a3.067,3.067,0,0,0,1.577-.758c-.144-.59.005-.028-.245-.513-.208-.4-.089.054-.177-.4-.093-.481.1-.693.161-1.2l-.868-.1a4.506,4.506,0,0,1-.334,1.7,11.528,11.528,0,0,1-.968,1.17l.278.1Z" transform="translate(-103.188 -44.18)" fill="#633077" fill-rule="evenodd"/><path d="M257.719,117.428c2.2.671,2.02-2.253.272-1.793a.955.955,0,0,0-.272,1.793Z" transform="translate(-86.372 -59.309)" fill="#9f84b7" fill-rule="evenodd"/><path d="M320.746,36.1c-.32,1.35-.14,2.368,1.581,1.974a17.858,17.858,0,0,0-.144-1.974,1.9,1.9,0,0,0-1.437,0Z" transform="translate(-130.528 -3.871)" fill="#9f84b7" fill-rule="evenodd"/><path d="M283.28,146.254l.094.87c.317.378.307.426.656.793.846-.181.643-.512,1.45-.939a2.53,2.53,0,0,0-.33-1.119h-.742c-.559.4-.659-.036-1.128.4Z" transform="translate(-104.534 -80.386)" fill="#633077" fill-rule="evenodd"/><path d="M226.872,167.649c.539.317.728.628,1.219.138l.855-1.055a1.55,1.55,0,0,0-1.8-.865,5.537,5.537,0,0,0-.276,1.782Z" transform="translate(-65.257 -94.304)" fill="#633077" fill-rule="evenodd"/><path d="M317.3,235.4c-.484.029-2.82.19-3.07.494-.021.025-.533,1.229.831.848,1.562-.437,2.026.116,2.239-1.342Z" transform="translate(-126.002 -142.723)" fill="#d1cdcf" fill-rule="evenodd"/><path d="M305.933,48.564l.221.591c.137.012.393.021.512.041.193.033.056-.015.257.046.518.156.1.018.32.168.383-.2.262-.141.837-.141V47.577c-1.329,0-1.7.111-2.148.987Z" transform="translate(-120.306 -11.96)" fill="#9f84b7" fill-rule="evenodd"/><path d="M247.531,145.58a2.916,2.916,0,0,0,.137,1.167c.139.31.131.229.213.327,1.829-1.235.98-.54,2.046-1.6l.046-.1c-.166-.447.115-.208-.235-.409-.886.826-1.573.038-2.05-.257l-.156.875Z" transform="translate(-79.645 -79.582)" fill="#633077" fill-rule="evenodd"/><path d="M375.007,231.621l.749-2.191c-1.469,0-1.536-.231-1.791.957-.293,1.362-.377,1.157,1.043,1.234Z" transform="translate(-167.549 -138.559)" fill="#d1cdcf" fill-rule="evenodd"/><path d="M208.3,171.531c.931.447,2.777.223,2.153-1.3a1.155,1.155,0,0,0-1.41.089c-.558.361-.755.529-.744,1.214Z" transform="translate(-52.333 -97.216)" fill="#c1b8dc" fill-rule="evenodd"/><path d="M179,222.8l3.027-.289a5.352,5.352,0,0,0,.164-1.248c-1.025.8-2.5-.381-3.191,1.537Z" transform="translate(-31.931 -132.885)" fill="#d1cdcf" fill-rule="evenodd"/><path d="M348.694,250.638a7.038,7.038,0,0,0,3.051-.334l.059-.881a11.3,11.3,0,0,0-2,.194c-.721.149-.79.284-1.106,1.021Z" transform="translate(-150.077 -152.49)" fill="#d1cdcf" fill-rule="evenodd"/><path d="M197.6,135.663l.213.265c.485.3,2.542-.046,3.152-.113,0,0,.455-.067.465-.07.777-.262.247-.028.574-.359l-4.4-.282v.559Z" transform="translate(-44.885 -72.898)" fill="#7a7573" fill-rule="evenodd"/><path d="M221.562,117.6c-.209.274-.158.2.077.435a1.073,1.073,0,0,0,.738.293c.683.1,1.21-.039,1.869.076-.329-.5-.649-.765-.445-1.257l.27-.393a6.837,6.837,0,0,0-2.508.846Z" transform="translate(-61.473 -60.123)" fill="#c1b8dc" fill-rule="evenodd"/><path d="M295.311,42.613c-.333,1.365.311,1.552,2.011,1.552,0-1.482-.938-1.961-2.011-1.552Z" transform="translate(-112.851 -8.406)" fill="#c1b8dc" fill-rule="evenodd"/><path d="M335.915,52.242l.268.762c.339.234.526.526.977.526.637,0,.57-.443.416-.964l-.049-.451a2.4,2.4,0,0,0-.957-1.261c-.188.325.013-.063-.016.421-.043.711-.144.567-.639.966Z" transform="translate(-141.18 -14.242)" fill="#633077" fill-rule="evenodd"/><path d="M218.715,167.78c1.216.321,2.511-.183,1.912-1.606a1.109,1.109,0,0,0-1.3.311c-.784.69-.638.9-.612,1.295Z" transform="translate(-59.564 -94.468)" fill="#633077" fill-rule="evenodd"/><path d="M295.505,33.566c0,.412.716.987,1.149.987.329,0,.167-.048.575-.141.092-.378.144-.266.144-.564,0-1.09-1.119-1.129-1.868-1.129v.846Z" transform="translate(-113.046 -1.616)" fill="#c1b8dc" fill-rule="evenodd"/><path d="M263.549,88.908l.594.043.493-.026a2.4,2.4,0,0,1,.466-1.321l-.28-.17c-.114-.068-.137-.064-.246-.137-.056-.037-.175-.057-.21-.161-.022-.066-.08-.063-.119-.1h-1.67c.427.327.659.189.833.736.277.869-.214.527.138,1.132Z" transform="translate(-90.121 -39.435)" fill="#633077" fill-rule="evenodd"/><path d="M362.653,70.756c0,1.586-.177,1.4,1.146,1.4.356,0,1.491-.91-.287-1.834l-.859.429Z" transform="translate(-159.789 -27.799)" fill="#9f84b7" fill-rule="evenodd"/><path d="M324.114,337.022c1.064.322,2.117.2,1.9-1.063a2.015,2.015,0,0,0-1.868-.287l-.028,1.35Z" transform="translate(-132.964 -212.474)" fill="#f9f8fa" fill-rule="evenodd"/><path d="M303.072,41.036a1.074,1.074,0,0,0,1.018,1.132c1.127.151.993-.274.993-1.132-.939-.215-.474-.423-2.011-.423v.423Z" transform="translate(-118.314 -7.111)" fill="#633077" fill-rule="evenodd"/><path d="M243.919,169.471c-.607,1.03.723,2.169,1.458,1.119.584-.835-.715-1.844-1.458-1.119Z" transform="translate(-77.023 -96.652)" fill="#9f84b7" fill-rule="evenodd"/><path d="M270.585,131.2l-.087-.89c-.425-.59-1.847-.318-1.5.821.245.811,1.239,1.067,1.591.069Z" transform="translate(-94.551 -69.349)" fill="#9f84b7" fill-rule="evenodd"/><path d="M304.379,305.039a2.872,2.872,0,0,0,1.879-.118l.021-1.2c-1.242,0-2.226.089-1.9,1.315Z" transform="translate(-119.18 -190.295)" fill="#f9f8fa" fill-rule="evenodd"/><path d="M433.055,243.366c-.031-.018-.082-.07-.1-.045s-.131-.062-.209-.116a1.359,1.359,0,0,1-.341-.278l1.873-.335-3.974-.187c-.622.005-.685,0-1.013.474.57.378,2.058.03,2.8.238a4.013,4.013,0,0,0,.965.248Z" transform="translate(-206.192 -147.604)" fill="#d1cdcf" fill-rule="evenodd"/><path d="M313,39.138a2.01,2.01,0,0,0,.144.705c1.14.261.705.2,1.437-.282,0-1.115.08-1.269-1.006-1.269-.442,0-.575.413-.575.846Z" transform="translate(-125.229 -5.495)" fill="#c1b8dc" fill-rule="evenodd"/><path d="M291.109,304.47a5.54,5.54,0,0,0-2.007-.233l.045,1.154a3.212,3.212,0,0,0,1.958-.084l0-.837Z" transform="translate(-108.588 -190.651)" fill="#f9f8fa" fill-rule="evenodd"/><path d="M330.557,43.375h.431c0-.586.082-1.833-1.006-1.833-1.442,0-.09,1.833.575,1.833Z" transform="translate(-136.604 -7.758)" fill="#9f84b7" fill-rule="evenodd"/><path d="M198.53,235.544c.164.368-.13.218.635.361,1.136.212,1.881.093,2-1a4.134,4.134,0,0,0-2.133.293c-.656.269-.263-.1-.5.343Z" transform="translate(-45.529 -142.384)" fill="#d1cdcf" fill-rule="evenodd"/><path d="M291.879,331.019l2.247-.055c.029-.706-.258-1.107-1-1.113-.847-.007-1.083.426-1.25,1.167Z" transform="translate(-110.521 -208.486)" fill="#f9f8fa" fill-rule="evenodd"/><path d="M313.878,65.22h-.862l-.4.453c-.031.714-.006,1.321.918,1.065.689-.191.594-1.008.344-1.518Z" transform="translate(-124.953 -24.243)" fill="#9f84b7" fill-rule="evenodd"/><path d="M290.611,299.122c.429-.17.213.06.358-.489l-.331-.4-1.56-.054.036,1.093,1.5-.147Z" transform="translate(-108.571 -186.432)" fill="#f9f8fa" fill-rule="evenodd"/><path d="M370.862,255.064l3.7.1c-.242-.664-.651-.51-1.906-.615a2.352,2.352,0,0,0-1.791.52Z" transform="translate(-165.511 -156.049)" fill="#d1cdcf" fill-rule="evenodd"/><path d="M283.514,342.862l2.758.014c-.053-.043-1.041-.724-1.083-.748a3.614,3.614,0,0,0-1.422-.064l-.253.8Z" transform="translate(-104.697 -216.965)" fill="#d1cdcf" fill-rule="evenodd"/><path d="M353.143,302.1l2.333-.215.067-.658-2.34.105-.061.768Z" transform="translate(-153.175 -188.558)" fill="#633077" fill-rule="evenodd"/><path d="M276.136,261.94c-.169.23-.152.266-.406.587a15.986,15.986,0,0,0,1.691-.21c1.3-.253,1.314-.1,1.4-.711l-2.688.334Z" transform="translate(-99.278 -160.972)" fill="#d1cdcf" fill-rule="evenodd"/><path d="M411.879,243.279a2.831,2.831,0,0,0,1.895-1.237l-1.674.092-.221,1.145Z" transform="translate(-194.068 -147.351)" fill="#d1cdcf" fill-rule="evenodd"/><path d="M328.95,253.459l2.614-.03c-.113-.225-.122-.271-.192-.4l-.226-.38c-.409.131-.671.255-1.091.406-.467.169-.735.117-1.1.4Z" transform="translate(-136.331 -154.736)" fill="#d1cdcf" fill-rule="evenodd"/><path d="M293.392,241.258c.4.85.22.764,1.264.721l.022-.721c-.187-.113-.154-.2-.722-.162-.043,0-.24.038-.277.048a1.151,1.151,0,0,0-.287.113Z" transform="translate(-111.574 -146.687)" fill="#d1cdcf" fill-rule="evenodd"/><path d="M267.2,148.6l1.8-.179.025-.53-.934.157c-.246-.184-.192.305-.2-.374l-.693.926Z" transform="translate(-93.336 -81.647)" fill="#9f84b7" fill-rule="evenodd"/><path d="M284.11,335.341l.646,0c.079-.776.1-.644-.117-1.048l-.431.014c-.262.456-.192.427-.1,1.03Z" transform="translate(-105.054 -211.581)" fill="#d1cdcf" fill-rule="evenodd"/><path d="M290.319,298.772l-1.5.147-.036-1.093,1.56.054c-.1-.063.094-.067-.329-.159a2.27,2.27,0,0,0-1.358.138l.047,1.137c.714.019,1.114.2,1.613-.225Z" transform="translate(-108.279 -186.083)" fill="#9f84b7" fill-rule="evenodd"/><path d="M442.79,298.307a2.391,2.391,0,0,0,1.377-2.018,5.058,5.058,0,0,0-.666,1.081,9.93,9.93,0,0,1-.711.937Z" transform="translate(-215.589 -185.119)" fill="#f9f8fa" fill-rule="evenodd"/><path d="M419.956,169.9l.568.035a2.141,2.141,0,0,0-.685-1.155l.117,1.121Z" transform="translate(-199.61 -96.345)" fill="#cacf74" fill-rule="evenodd"/><path d="M310.551,107.932c.53-.087.573-.087.822-.483-.18-.107-.051-.09-.362-.162-.019,0-.413-.046-.437-.049l-.022.694Z" transform="translate(-123.521 -53.497)" fill="#d1cdcf" fill-rule="evenodd"/><path d="M309.133,244.691c-.311-.506-.577-1.263-.924-1.748a1.966,1.966,0,0,0,.924,1.748Z" transform="translate(-121.89 -147.978)" fill="#f9f8fa" fill-rule="evenodd"/><path d="M396.374,252.8l1.116.025-.132-.512c-.536.125-.621.344-.984.488Z" transform="translate(-183.273 -154.499)" fill="#d1cdcf" fill-rule="evenodd"/><path d="M298.774,252.919s-.065.525.909.141c-.041-.054-.07-.516-.909-.141Z" transform="translate(-115.321 -154.822)" fill="#d1cdcf" fill-rule="evenodd"/><path d="M196.658,137.471l.43-.042c.176-.166.072.075.07-.219l-.213-.265a1.916,1.916,0,0,1-.287.526Z" transform="translate(-44.226 -74.18)" fill="#f9f8fa" fill-rule="evenodd"/><path d="M316.931,64.756l-.144.141.144-.141Z" transform="translate(-127.863 -23.92)" fill="#d1cdcf" fill-rule="evenodd"/><path d="M222.113,158.757c-1.046-.46-2.159-2.156-.4-2.717.68.343.836.487.922,1.237.083.721.076,1-.523,1.479Z" transform="translate(-61.028 -87.474)" fill="#c1b8dc" fill-rule="evenodd"/><path d="M219.36,173.882c-.358,1.069-1.964,2.329-2.712.667.278-.7.408-.866,1.159-1.027.722-.155,1.009-.177,1.553.359Z" transform="translate(-58.144 -99.579)" fill="#c1b8dc" fill-rule="evenodd"/><path d="M300.834,90.37l-1.462-.391a17.759,17.759,0,0,0-2.3-.482,12,12,0,0,0-2.5-.385,2.653,2.653,0,0,0-1.555.162.731.731,0,0,0,.255.152,23.8,23.8,0,0,0,3.085.634,40.285,40.285,0,0,1,8.026,2.558,33.513,33.513,0,0,1,4.8,2.414c-4.633-1.679-8.727-2.147-13.775.273-.376.2-.918.195-1.185.64,1.05.155,6.421-1.634,12.029-.747-.489.346-1.022.018-2.534.355a5.645,5.645,0,0,1-.959.091c-1.179.06-2.322.333-3.416.477-1.15.282-2.259.532-3.36.884a29.652,29.652,0,0,1-3.159,1.1,15.061,15.061,0,0,1-2.6,1.3l-.37.222a5.726,5.726,0,0,1-.988.583c-.721.289-1.892,1.251-2.5,1.267-.089.8-.071.21.153.437a6.369,6.369,0,0,0,1.566-.666,9.356,9.356,0,0,0,2.121-1.161s8.254-3.193,9.031-2.907a32.743,32.743,0,0,0-2.968,2.657c-1.61,1.5-2.135,2.036-2.308,4.008,1.788-.789,3.146-4.788,8.166-7.116,11.475-4.565,15.349,6.368,15.985,15.407.073.378-.249.577,1.647.447-.169-5.579-1.867-8.569-3.07-12.864a7.18,7.18,0,0,1,2.866,1.689c3.267,3.256,5.9,5.911,7.551,10.433-.058.557,1.3-.358,1.536-.557l-.252-.705a23.168,23.168,0,0,0-3.493-5.379c-3.153-4.186-7.559-7.037-7.314-13.2a.248.248,0,0,0-.033-.107l-.235.562c-.019.031-.077.129-.092.1s-.068.072-.1.108h.057c-.455,3.885.514,3.512,1.19,6.709-4.489-.827-4.565-8.634-2.776-11.472.149-.236,1.544-1.8,1.493-1.888-3.014,2.362-2.725,2.763-3.456,6.086l.042,1.015c-1.256-1.137-3.731-6.369-5.768-6.463a37.8,37.8,0,0,1,5.579,8.174c.212.411.3.716.478,1.079l.618,1.436a4.107,4.107,0,0,1-1.947-1.257C311,94.547,307.5,92.9,305.4,91.9c-5.164-2.457-5.811-6.47-6.516-6.72-1.033,2.114,1.573,3.979,1.952,5.186Z" transform="translate(-106.653 -38.143)" fill="#a0ad20" fill-rule="evenodd"/></g></svg>