<svg width="51" height="167" viewBox="0 0 51 167" fill="none" xmlns="http://www.w3.org/2000/svg">
<path d="M0 4.45829V0H4.45567V4.45829H0Z" fill="#121B30"/>
<path d="M23.2722 4.45829V0H27.7278V4.45829H23.2722Z" fill="#121B30"/>
<path d="M46.5443 4.45829V0H51V4.45829H46.5443Z" fill="#121B30"/>
<path d="M0 36.9666V32.5083H4.45567V36.9666H0Z" fill="#121B30"/>
<path d="M23.2722 36.9666V32.5083H27.7278V36.9666H23.2722Z" fill="#121B30"/>
<path d="M46.5443 36.9666V32.5083H51V36.9666H46.5443Z" fill="#121B30"/>
<path d="M0 69.475V65.0167H4.45567V69.475H0Z" fill="#121B30"/>
<path d="M23.2722 69.475V65.0167H27.7278V69.475H23.2722Z" fill="#121B30"/>
<path d="M46.5443 69.475V65.0167H51V69.475H46.5443Z" fill="#121B30"/>
<path d="M0 101.983V97.525H4.45567V101.983H0Z" fill="#121B30"/>
<path d="M23.2722 101.983V97.525H27.7278V101.983H23.2722Z" fill="#121B30"/>
<path d="M46.5443 101.983V97.525H51V101.983H46.5443Z" fill="#121B30"/>
<path d="M0 134.492V130.033H4.45567V134.492H0Z" fill="#121B30"/>
<path d="M23.2722 134.492V130.033H27.7278V134.492H23.2722Z" fill="#121B30"/>
<path d="M46.5443 134.492V130.033H51V134.492H46.5443Z" fill="#121B30"/>
<path d="M0 167V162.542H4.45567V167H0Z" fill="#121B30"/>
<path d="M23.2722 167V162.542H27.7278V167H23.2722Z" fill="#121B30"/>
<path d="M46.5443 167V162.542H51V167H46.5443Z" fill="#121B30"/>
</svg>
