<svg xmlns="http://www.w3.org/2000/svg" viewBox="0 0 240 46.79"><defs><style>.cls-1{fill:#fff;}.cls-2{fill:#f99c10;}.cls-3{fill:#f99d13;}</style></defs><title>logo</title><g id="Layer_2" data-name="Layer 2"><g id="logo"><path class="cls-1" d="M69.1,14H86.51V36H83.33V17h-11V36H69.1Zm33.84,10.17A6.07,6.07,0,0,1,105,29a6.47,6.47,0,0,1-2.27,5.27,9.57,9.57,0,0,1-6.26,1.84l-2.91-.06h-1l-.83,0-.43,0h-.29V14h12.7v3H94.24v5.54a29.63,29.63,0,0,1,3-.15A8.58,8.58,0,0,1,102.94,24.16Zm-2.33,7.91a3.47,3.47,0,0,0,1.22-2.88,3.37,3.37,0,0,0-1.19-2.75,5.56,5.56,0,0,0-3.57-1,26.83,26.83,0,0,0-2.83.16V33c1,.07,1.89.1,2.65.1A5.79,5.79,0,0,0,100.61,32.07ZM121.35,26a5.22,5.22,0,0,1,1.25,3.62,5.76,5.76,0,0,1-2.2,4.87,9.56,9.56,0,0,1-5.87,1.63c-2.34,0-4.28,0-5.77-.12h-.27V14h.28c2.91-.08,4.83-.12,5.89-.12A8.37,8.37,0,0,1,120,15.36a5.05,5.05,0,0,1,1.8,4.13,5.25,5.25,0,0,1-1,3.3,5.65,5.65,0,0,1-2,1.61A5.42,5.42,0,0,1,121.35,26Zm-2.7-5.9c0-2.11-1.33-3.14-4.06-3.14-.56,0-1.55,0-2.92.08v6.35h3.14a4.2,4.2,0,0,0,2.78-.9A2.89,2.89,0,0,0,118.65,20.07Zm.77,9.37a2.67,2.67,0,0,0-1.15-2.35,5.85,5.85,0,0,0-3.43-.85h-3.17V33c.79.06,1.8.09,3,.09a5.79,5.79,0,0,0,3.54-.93A3.15,3.15,0,0,0,119.42,29.44Z"/><path class="cls-2" d="M134.29,33h9.8v3h-13V14h12.67v3h-9.49v6.34h8.58v3h-8.58Zm15.46-6.76a20.83,20.83,0,0,1-.37,3.15,10.65,10.65,0,0,1-.62,2.1A4.24,4.24,0,0,1,148,32.6a2.34,2.34,0,0,1-.71.53,1.33,1.33,0,0,1-.58.09l-.34,0,.23,3h.27a5.5,5.5,0,0,0,2.14-.38,4.47,4.47,0,0,0,1.69-1.37A7.89,7.89,0,0,0,152,31.51a31.33,31.33,0,0,0,.72-4.78l.14-2.06h4.27V36h3V21.65H150Zm25.48-3a6.27,6.27,0,0,1,1.92,4.74,8.32,8.32,0,0,1-.16,1.7l0,.24H166.44a3.82,3.82,0,0,0,1.32,2.52,4.77,4.77,0,0,0,3.16,1,5.7,5.7,0,0,0,4-1.36l.31-.29,1,2.51-.15.14a7.71,7.71,0,0,1-5.37,1.88,7.61,7.61,0,0,1-5.56-2.05,7.24,7.24,0,0,1-2.11-5.44,7.62,7.62,0,0,1,2-5.34,7,7,0,0,1,5.41-2.14A6.58,6.58,0,0,1,175.23,23.2Zm-8.93,4.11H174a3.43,3.43,0,0,0-1-2.19,3.76,3.76,0,0,0-2.64-.9,4.1,4.1,0,0,0-2.79.94A3.69,3.69,0,0,0,166.3,27.31Zm26.62-5.66h-4l-6,6.91V21.65h-3V36h3V28.78l6.29,7.12.08.1h4.19l-6.88-7.48Zm.49,3h5.05V36h3V24.67h5v-3H193.41Zm27.48-1.27a7.51,7.51,0,0,1,1.81,5.21,7.78,7.78,0,0,1-2.06,5.49,7,7,0,0,1-5.39,2.21,7.89,7.89,0,0,1-3.6-.73v6.54h-3V21.65h3v1.21a6.09,6.09,0,0,1,1.62-1,7.23,7.23,0,0,1,2.78-.56A6.07,6.07,0,0,1,220.89,23.4Zm-2.49,2a3.9,3.9,0,0,0-3.06-1.2,4.55,4.55,0,0,0-3.69,1.71v6.56a6.25,6.25,0,0,0,3.39.94,4.21,4.21,0,0,0,3.26-1.3,4.85,4.85,0,0,0,1.22-3.43A4.65,4.65,0,0,0,218.4,25.42Zm21.6,3.4a7.31,7.31,0,0,1-2.14,5.38,7.44,7.44,0,0,1-5.5,2.11,7.67,7.67,0,0,1-5.53-2.1h0a7.44,7.44,0,0,1-2.1-5.38,7.23,7.23,0,0,1,2.1-5.34,7.51,7.51,0,0,1,5.53-2.14,7.42,7.42,0,0,1,5.51,2.14A7.22,7.22,0,0,1,240,28.82Zm-3.18,0a4.65,4.65,0,0,0-1.27-3.32,4.62,4.62,0,0,0-6.38,0,4.47,4.47,0,0,0-1.26,3.32,4.55,4.55,0,0,0,1.23,3.32,4.68,4.68,0,0,0,6.43,0A4.53,4.53,0,0,0,236.82,28.82Z"/><path class="cls-1" d="M57.05,27.37c.26-1.08-4-7.7-4-7.7a14.72,14.72,0,0,0,1.13-2.47c.22-.87,0-5.5-2.79-10.77-1.76-3.31-5-5.29-9.2-6L33.4,13.26h14L19.71,46.79H40.8a29.51,29.51,0,0,1,2.33-7.32c.91.16,3.53.65,5.58.92a4.09,4.09,0,0,0,4.19-2c.37-1-.72-2.85-.26-3.44s2-2.27,1.46-3.72A3.43,3.43,0,0,1,53.83,29S56.77,28.44,57.05,27.37Z"/><path class="cls-3" d="M0,16.72H2.62v2.61H0ZM3.26,35.81H5.87V33.19H3.26ZM5.32,15.66H8.87V12.11H5.32ZM7.57,4.28H4V7.83H7.57Zm3.54,21.58h-5v5h5Zm15.78-9.17,1.45-2.13h0L38.24,0H20.62L18.29,3.73h5.15V10.2H16.91v-6H10.86v6h6.05v6.46H10.22l-4,6.48H24.29L23.2,25.91H19.7V30h3.71v5.09H19.63L15.55,46.59l24.73-29.9ZM18.48,30h-5v5h5Zm-8,9.17h2.62V36.54H10.46Z"/></g></g></svg>