<svg width="268" height="341" viewBox="0 0 268 341" fill="none" xmlns="http://www.w3.org/2000/svg">
<path d="M102.056 97.7233C135.492 102.942 136.692 39.9156 109.86 39.7501C85.9606 39.6042 68.6192 92.5042 102.056 97.7233Z" fill="black"/>
<path d="M166.175 98.3201C199.612 93.1002 182.271 40.1999 158.371 40.348C131.539 40.5115 132.74 103.539 166.175 98.3201Z" fill="black"/>
<path d="M89.365 121.898C91.3454 122.712 93.7127 123.139 95.8379 122.595C97.7252 122.114 98.3958 121.771 100.382 120.945C103.772 119.538 105.601 123.416 106.946 125.664C109.223 129.476 112.722 134.954 117.654 135.443C122.182 135.892 129.476 128.109 132.762 131.48C136.578 135.39 141.201 138.043 146.795 136.7C153.264 135.148 155.716 126.846 162.545 125.99C168.141 125.289 173.598 128.105 178.815 124.795C182.736 122.303 183.908 116.485 187.355 113.308C188.907 111.877 186.846 109.143 185.087 110.364C181.565 112.807 180.131 116.192 178.105 119.821C175.092 125.225 166.26 121.661 161.314 122.296C156.79 122.879 153.517 126.696 150.462 129.715C147.654 132.493 145.071 133.939 141.083 132.883C137.576 131.953 136.32 128.829 133.476 127.165C129.921 125.081 125.623 128.297 122.695 130.08C115.522 134.442 111.963 126.623 108.507 121.386C106.309 118.054 103.373 116.594 99.4637 117.607C95.7492 118.573 92.5892 120.887 89.0113 118.037C86.8342 116.302 85.4622 113.047 83.7777 110.835C82.9499 109.747 81.1889 110.672 81.8945 111.937C83.7755 115.304 85.4661 120.296 89.365 121.898Z" fill="black"/>
<path d="M27.9307 329.198C33.3317 329.198 39.0808 327.282 45.5123 323.341C49.856 320.68 54.2989 319.385 59.1 319.385C68.2593 319.385 77.4183 324.076 87.1093 329.045C90.9275 331.002 94.8778 333.026 98.8844 334.777C107.332 338.471 115.706 340.344 123.777 340.344C134.602 340.344 144.326 336.886 151.904 330.34C155.762 327.009 161.457 325.318 168.834 325.318C181.464 325.318 196.702 330.121 209.943 334.82C214.651 336.491 220.472 337.374 226.779 337.374H226.783C246.407 337.374 266.522 329.223 266.994 313.649C267.211 306.468 262.838 297.319 257.301 285.739C246.743 263.652 232.282 233.397 235.375 190.838C238.498 147.88 244.315 67.9219 206.137 26.8628C189.561 9.03913 166.138 0 136.52 0C104.252 0 78.5357 10.8043 60.0831 32.1119C28.6735 68.3792 24.5286 129.743 30.5236 171.269C35.2252 203.85 21.1822 241.207 10.9306 268.482C2.5577 290.755 -3.49102 306.848 2.27209 313.477C9.37226 321.64 17.3954 329.198 27.9307 329.198ZM13.9788 269.628C24.3569 242.022 38.5695 204.215 33.7459 170.802C27.852 129.957 31.8543 69.6808 62.5435 34.2455C80.3507 13.685 105.241 3.25821 136.52 3.25821C165.196 3.25821 187.815 11.9466 203.753 29.0812C240.963 69.1003 235.214 148.139 232.127 190.602C228.969 234.024 243.647 264.726 254.362 287.144C259.708 298.327 263.931 307.159 263.737 313.551C263.335 326.909 244.394 334.117 226.779 334.117C220.838 334.117 215.395 333.3 211.031 331.75C197.53 326.959 181.958 322.063 168.834 322.063C160.654 322.063 154.241 324.016 149.773 327.876C142.795 333.904 133.807 337.087 123.777 337.087C116.158 337.087 108.221 335.307 100.192 331.793C96.2727 330.078 92.3697 328.081 88.5973 326.144C78.5419 320.993 69.0456 316.128 59.0999 316.128C53.6803 316.128 48.6785 317.576 43.8092 320.564C37.9051 324.182 32.7131 325.941 27.9307 325.941C19.2143 325.941 12.3522 320.101 4.73286 311.339C0.24007 306.178 6.6076 289.238 13.9788 269.628Z" fill="black"/>
<path d="M58.4338 210.75C59.8306 211.242 61.1901 211.493 62.4648 211.493C66.8045 211.493 69.4428 208.722 71.3715 206.698C72.0813 205.951 73.1532 204.823 73.5795 204.823C73.6478 204.823 73.8011 204.889 74.0224 205.079C75.0159 205.932 76.0504 207.778 77.0521 209.564C79.1751 213.355 81.5841 217.649 85.909 217.649H85.9112C87.7302 217.649 89.5927 216.867 91.6083 215.257C97.833 210.274 103.35 189.812 98.1372 174.955C95.627 167.795 89.5946 159.262 75.1215 159.262L74.4572 159.268C62.7793 159.475 54.3198 168.776 51.8302 184.143C50.0382 195.183 52.056 208.498 58.4338 210.75ZM55.0441 184.665C55.876 179.537 59.7353 162.787 74.517 162.524L75.1215 162.518C85.2096 162.518 91.9206 167.066 95.064 176.033C99.9043 189.828 94.4165 208.837 89.5718 212.711C88.1772 213.829 86.9458 214.392 85.9111 214.392C83.49 214.392 81.6648 211.126 79.8933 207.97C78.6993 205.845 77.5735 203.834 76.1414 202.607C75.3345 201.917 74.4736 201.566 73.5795 201.566C71.7564 201.566 70.4216 202.965 69.0105 204.45C67.3219 206.224 65.4075 208.233 62.4648 208.233C61.5584 208.233 60.5672 208.045 59.5201 207.674C55.8532 206.383 53.163 196.268 55.0441 184.665Z" fill="black"/>
<path d="M166.57 169.585C161.357 184.439 166.872 204.905 173.095 209.888C175.111 211.499 176.975 212.281 178.796 212.281C183.121 212.281 185.53 207.987 187.655 204.196C188.657 202.41 189.689 200.564 190.687 199.711C190.908 199.521 191.064 199.455 191.128 199.455C191.552 199.455 192.626 200.582 193.336 201.33C195.262 203.353 197.901 206.124 202.241 206.122C203.521 206.122 204.875 205.874 206.274 205.377C212.652 203.128 214.667 189.814 212.877 178.769C210.386 163.404 201.926 154.106 190.25 153.898L189.588 153.892C175.113 153.892 169.082 162.425 166.57 169.585ZM189.588 157.148L190.19 157.155C204.968 157.418 208.829 174.165 209.659 179.29C211.544 190.896 208.852 201.015 205.187 202.306C204.142 202.677 203.151 202.863 202.24 202.863C199.298 202.865 197.384 200.858 195.697 199.082C194.283 197.596 192.949 196.197 191.128 196.197C190.232 196.197 189.373 196.549 188.566 197.24C187.132 198.466 186.008 200.477 184.814 202.602C183.042 205.76 181.213 209.026 178.796 209.026C177.757 209.026 176.526 208.461 175.131 207.343C170.289 203.469 164.803 184.46 169.643 170.662C172.789 161.696 179.5 157.148 189.588 157.148Z" fill="black"/>
<path d="M240.65 321.466C244.53 321.518 247.945 317.088 250.761 314.915C251.91 314.027 251.322 311.832 249.691 312.37C247.846 312.982 246.236 313.926 244.729 315.151C243.129 316.45 241.062 317.754 239.775 319.352C239.117 320.165 239.489 321.45 240.65 321.466Z" fill="black"/>
<path d="M246.447 324.875C245.88 325.722 247.07 326.429 247.753 325.883C251.066 323.242 254.364 320.668 257.797 318.181C258.84 317.427 257.965 315.985 256.804 316.481C252.738 318.218 248.924 321.177 246.447 324.875Z" fill="black"/>
<path d="M140.26 322.634C141.379 321.744 140.158 320.051 138.939 320.366C135.306 321.301 131.436 323.702 128.942 326.52C127.879 327.719 129.195 329.21 130.565 328.623C132.247 327.905 133.785 326.82 135.37 325.912C137.092 324.923 138.704 323.871 140.26 322.634Z" fill="black"/>
<path d="M149.137 320.595C144.363 322.6 139.955 325.305 135.208 327.385C134.378 327.749 134.774 329.235 135.682 329.123C141.102 328.455 145.984 325.779 150.226 322.466C151.091 321.794 150.153 320.167 149.137 320.595Z" fill="black"/>
<path d="M26.2772 322.034C28.0216 321.289 29.6317 320.198 31.3368 319.347C33.0937 318.474 35.0245 317.887 36.8726 317.224C38.3626 316.693 38.0957 314.596 36.5021 314.493C32.231 314.209 27.6326 317.055 24.7562 320.064C23.7048 321.163 25.0231 322.574 26.2772 322.034Z" fill="black"/>
<path d="M34.3312 320.368C37.5926 320.109 40.9533 318.762 43.6247 316.922C44.9181 316.034 43.8151 314.199 42.41 314.844C39.608 316.128 36.5392 317.169 33.8945 318.756C33.1951 319.176 33.4393 320.438 34.3312 320.368Z" fill="black"/>
<path d="M82.8338 204.053C84.7024 204.235 87.1899 202.936 88.0136 201.268C88.3571 200.57 87.7859 199.542 86.9189 199.848C86.1304 200.126 85.4474 200.511 84.7336 200.939C84.1935 201.262 83.4838 201.808 82.8338 201.847C81.3999 201.938 81.4286 203.919 82.8338 204.053Z" fill="black"/>
<path d="M84.5912 206.156C83.3247 207.741 85.4395 210 86.8694 208.436C87.5978 207.637 88.4237 206.905 89.2927 206.265C90.4867 205.39 89.8019 203.515 88.2727 203.846C86.7743 204.171 85.5451 204.955 84.5912 206.156Z" fill="black"/>
<path d="M198.06 195.424C200.252 196.674 202.47 196.864 204.558 195.093C205.44 194.341 204.504 192.746 203.418 193.135C202.184 193.578 200.964 194.008 199.736 193.863C200.045 193.547 200.367 193.249 200.73 193.005C201.326 192.605 202.023 192.506 202.452 191.889C202.658 191.593 202.627 191.146 202.452 190.846C201.847 189.818 200.502 190.082 199.637 190.6C198.464 191.297 197.535 192.479 196.986 193.708C196.63 194.503 197.336 195.471 198.06 195.424Z" fill="black"/>
<path d="M230.713 238.424C228.58 222.44 228.358 206.077 225.521 190.226C225.206 188.473 222.301 188.878 222.421 190.645C223.52 206.493 222.21 223.679 227.478 238.86C228.052 240.508 230.972 240.363 230.713 238.424Z" fill="black"/>
<path d="M233.923 253.838C234.759 254.834 236.597 253.777 236.135 252.549C235.516 250.912 234.896 249.303 234.035 247.771C233.163 246.223 230.695 247.27 231.181 248.971C231.715 250.838 232.685 252.367 233.923 253.838Z" fill="black"/>
<path d="M212.62 63.576C213.233 65.068 215.584 64.5321 215.107 62.8897C211.383 50.0418 205.127 36.8102 195.581 27.2218C194.972 26.6092 193.929 27.3997 194.382 28.1458C201.406 39.6961 207.48 51.027 212.62 63.576Z" fill="black"/>
<path d="M221.559 79.5588C220.927 76.4392 220.008 73.4158 218.539 70.5797C217.848 69.243 216.126 70.2579 216.306 71.5212C216.755 74.6937 218.044 77.5939 219.325 80.4993C219.913 81.8362 221.817 80.8368 221.559 79.5588Z" fill="black"/>
<path d="M103.074 209.206C104.707 208.039 106.1 206.805 107.025 204.999C107.577 203.923 106.477 202.824 105.4 203.374C103.592 204.297 102.356 205.692 101.193 207.327C100.405 208.43 101.967 209.992 103.074 209.206Z" fill="black"/>
<path d="M109.796 207.805C105.231 210.042 101.301 213.44 96.8666 215.944C95.9541 216.461 96.5997 217.736 97.5474 217.558C102.659 216.594 106.707 212.473 110.891 209.68C112.06 208.899 111.052 207.188 109.796 207.805Z" fill="black"/>
<path d="M191.546 212.103C191.736 211.881 191.902 211.635 192.075 211.399C192.125 211.331 192.522 210.808 192.309 211.079C193.131 210.029 192.096 208.291 190.788 209.107C189.919 209.646 189.164 210.269 188.408 210.957C188.028 211.304 187.69 211.689 187.336 212.062C187.146 212.26 186.956 212.434 186.8 212.664C186.753 212.732 186.74 212.759 186.73 212.782C186.72 212.786 186.72 212.782 186.695 212.802C185.89 213.485 186.529 214.951 187.558 214.888C188.642 214.826 189.451 214.028 190.26 213.394C190.718 213.034 191.165 212.546 191.546 212.103Z" fill="black"/>
<path d="M196.512 211.884C193.812 213.868 190.73 215.613 188.292 217.918C187.152 218.996 188.609 220.803 189.936 220.05C192.831 218.406 196.125 216.724 198.199 214.069C199.08 212.939 197.901 210.866 196.512 211.884Z" fill="black"/>
<path d="M208.573 284.942C208.229 283.015 205.005 282.996 204.678 284.942C203.033 294.734 197.88 305.483 191.295 312.86C190.557 313.686 191.254 315.318 192.467 314.873C197.779 312.926 201.411 306.817 204.055 302.167C207.056 296.899 209.669 291.092 208.573 284.942Z" fill="black"/>
<path d="M209.599 268.606C209.338 267.695 207.989 267.89 207.964 268.827C207.904 271.456 207.611 274.139 206.613 276.588C206.272 277.426 207.561 277.864 208.01 277.177C209.705 274.576 210.464 271.627 209.599 268.606Z" fill="black"/>
<path d="M212.819 125.49C212.583 123.526 209.775 122.844 209.185 124.999C207.615 130.739 205.28 137.595 205.669 143.589C205.787 145.387 208.581 145.991 208.968 144.034C210.146 138.118 213.544 131.56 212.819 125.49Z" fill="black"/>
<path d="M210.839 105.174C210.11 104.202 208.933 104.202 208.204 105.174C207.207 106.502 207.716 108.734 207.79 110.288C207.896 112.519 211.147 112.519 211.251 110.288C211.325 108.734 211.836 106.503 210.839 105.174Z" fill="black"/>
<path d="M150.216 19.1886C149.173 18.4466 148.126 17.894 146.963 17.3623C145.725 16.7964 144.568 16.0565 143.269 15.6437C141.886 15.2029 141.27 16.8874 141.994 17.8259C143.587 19.8838 146.507 21.5301 149.026 22.0111C150.78 22.3465 151.654 20.2139 150.216 19.1886Z" fill="black"/>
<path d="M81.9544 184.34C81.2178 185.574 80.748 186.534 80.3651 187.937C79.941 189.487 79.5083 191.033 79.1524 192.599C78.958 193.46 80.2514 194.105 80.6404 193.226C81.2881 191.769 81.9999 190.35 82.7139 188.926C83.4259 187.498 83.6947 186.424 83.852 184.853C83.9576 183.802 82.4428 183.525 81.9544 184.34Z" fill="black"/>
<path d="M193.354 170.796C192.607 170.497 191.68 170.986 191.301 171.631C190.763 172.551 191.158 173.532 191.955 174.113C193.373 175.152 194.569 177.074 195.082 178.726C195.591 180.356 197.812 179.953 197.95 178.339C198.248 174.862 196.593 172.093 193.354 170.796Z" fill="black"/>
</svg>
