<svg width="268" height="341" viewBox="0 0 268 341" fill="none" xmlns="http://www.w3.org/2000/svg">
    <path d="M109.732 120.109C115.701 115.839 122.194 113.085 129.395 111.681C138.116 109.983 144.155 113.241 151.896 116.511C154.167 117.472 156.187 114.192 153.87 113.132C146.685 109.841 140.215 106.768 132.102 107.919C123.373 109.159 114.957 112.359 108.392 118.37C107.471 119.208 108.701 120.845 109.732 120.109Z" fill="black"/>
    <path d="M86.1935 98.2615C108.64 106.136 125.57 95.112 127.539 69.5164C129.508 43.9207 121.633 34.4703 104.308 36.8329C66.1244 42.0396 63.7474 90.3868 86.1935 98.2615Z" fill="black"/>
    <path d="M158.253 101.411C188.97 103.774 193.299 83.6906 189.756 70.699C186.211 57.7035 180.699 36.0463 156.677 38.409C137.291 40.3146 127.539 99.0486 158.253 101.411Z" fill="black"/>
    <path d="M228.718 186.983C228.136 177.004 227.954 166.237 227.763 154.844C226.599 85.8563 225.155 0 130.239 0C101.189 0 77.9392 9.48125 61.1323 28.1838C25.6516 67.6723 28.7764 136.882 31.7682 164.807C39.184 234.033 33.973 264.733 10.3159 291.14C-1.16738 303.959 -1.01379 312.394 1.13788 317.209C3.76686 323.094 10.9122 326.754 19.781 326.754C24.4159 326.754 29.0817 325.697 32.9137 323.781C38.2516 321.11 43.6164 319.816 49.3107 319.816C59.1242 319.816 70.3799 323.529 88.1603 332.635C98.1478 337.751 108.088 340.344 117.709 340.344C128.049 340.344 138.307 337.336 148.198 331.399C155.767 326.86 166.068 321.649 178.67 321.649C186.031 321.649 193.555 323.328 201.669 326.777C212.149 331.229 222.991 333.584 233.025 333.584H233.028C247.386 333.584 258.756 328.662 265.047 319.725C270.592 311.843 264.701 299.056 255.783 279.706C245.318 257.002 230.988 225.91 228.718 186.983ZM262.41 317.867C256.742 325.922 246.306 330.358 233.028 330.358H233.025C223.421 330.358 213.016 328.092 202.93 323.805C194.41 320.186 186.473 318.424 178.67 318.424C165.273 318.424 154.462 323.879 146.54 328.631C128.387 339.522 109.358 339.866 89.6294 329.762C71.3573 320.406 59.6774 316.59 49.3106 316.59C43.104 316.59 37.2658 317.998 31.4708 320.895C28.0776 322.592 23.926 323.526 19.7808 323.526C12.2009 323.526 6.18672 320.602 4.08237 315.894C1.55567 310.236 4.54133 302.42 12.7194 293.29C39.9441 262.901 41.5752 226.062 34.9751 164.463C32.0303 136.968 28.9156 68.863 63.5316 30.3396C79.7011 12.3481 102.143 3.22328 130.239 3.22328C221.98 3.22328 223.398 87.3217 224.538 154.896C224.732 166.328 224.913 177.126 225.497 187.171C227.806 226.705 242.281 258.119 252.852 281.054C260.998 298.732 266.887 311.506 262.41 317.867Z" fill="black"/>
    <path d="M201.258 218.638C200.746 217.91 199.741 217.734 199.01 218.242C171.986 237.221 145.016 242.455 136.268 230.428C131.499 223.871 129.991 216.918 132.133 211.357C134.403 205.454 140.602 201.28 150.065 199.29C172.677 194.528 198.744 170.961 199.842 169.958C200.504 169.358 200.549 168.34 199.949 167.68C199.348 167.02 198.328 166.977 197.67 167.573C197.408 167.813 171.15 191.552 149.401 196.132C136.028 198.948 130.991 205.337 129.121 210.197C128.987 210.546 128.912 210.915 128.799 211.271C127.717 204.294 122.354 198.601 114.16 196.165C92.888 189.839 67.153 168.342 66.8948 168.123C66.2165 167.551 65.198 167.637 64.6222 168.322C64.0504 169.002 64.1386 170.02 64.821 170.594C65.8929 171.496 91.3181 192.739 113.24 199.255C121.603 201.743 126.494 208.119 125.703 215.501C124.817 223.763 116.525 232.656 99.9963 233.904C70.1243 236.139 52.0489 207.777 51.8707 207.49C51.4014 206.737 50.4074 206.497 49.6493 206.972C48.8953 207.439 48.6615 208.433 49.1289 209.191C49.3093 209.482 66.8867 237.26 96.6052 237.258C97.7978 237.258 99.0107 237.213 100.24 237.121C116.412 235.898 125.52 227.781 128.176 219.312C128.731 223.593 130.553 228.056 133.659 232.328C137.469 237.564 143.944 240.098 152.108 240.096C165.32 240.096 182.959 233.455 200.865 220.886C201.592 220.373 201.768 219.365 201.258 218.638Z" fill="black"/>
    <path d="M213.685 78.1946C212.302 66.279 207.333 46.2938 196.27 39.4908C195.409 38.9622 194.735 40.0954 195.274 40.7837C204.01 51.9679 207.606 64.9961 211.047 78.5514C211.411 79.9896 213.864 79.7232 213.685 78.1946Z" fill="black"/>
    <path d="M216.048 88.6574C216.544 86.6393 213.448 85.7846 212.938 87.801C212.092 91.1473 212.69 94.0367 213.993 97.1676C214.61 98.645 216.737 98.1267 216.425 96.4975C215.927 93.9093 215.411 91.262 216.048 88.6574Z" fill="black"/>
    <path d="M181.65 220.559C172.961 224.863 164.314 227.23 154.751 228.555C153.667 228.705 154.013 230.316 154.995 230.369C164.544 230.91 175.15 228.336 182.822 222.562C183.998 221.676 183.017 219.881 181.65 220.559Z" fill="black"/>
    <path d="M187.844 217.851C186.922 219.041 188.348 220.584 189.531 219.537C190.182 218.959 191.041 218.634 191.858 218.363C193.143 217.935 192.807 216.267 191.553 216.117C190.034 215.939 188.76 216.662 187.844 217.851Z" fill="black"/>
    <path d="M87.6134 227.906C89.1236 228.049 89.3921 225.656 87.9657 225.299C78.3493 222.886 69.7368 218.353 62.5073 211.542C61.5586 210.648 60.3127 211.968 61.1058 212.943C67.4991 220.797 77.4374 226.951 87.6134 227.906Z" fill="black"/>
    <path d="M104.385 229.049C105.66 228.807 105.228 227.039 104.101 226.936C102.281 226.773 100.441 226.648 98.6643 226.211C97.2362 225.859 96.7216 227.887 98.0658 228.381C100.158 229.147 102.187 229.465 104.385 229.049Z" fill="black"/>
    <path d="M247.714 313.561C248.79 312.682 247.636 310.899 246.39 311.287C242.753 312.412 239.48 315.524 237.204 318.498C236.472 319.456 237.829 320.411 238.702 319.992C240.316 319.217 241.673 318.051 243.111 316.993C244.658 315.856 246.226 314.776 247.714 313.561Z" fill="black"/>
    <path d="M243.322 323.412C248.091 321.233 253.41 318.125 256.012 313.406C256.92 311.76 254.859 310.307 253.506 311.471C249.644 314.793 246.177 318.086 241.574 320.424C239.562 321.447 241.324 324.326 243.322 323.412Z" fill="black"/>
    <path d="M134.585 320.686C131.059 321.514 127.948 324.053 125.95 327.016C125.141 328.219 126.944 329.557 127.93 328.543C130.184 326.225 132.987 324.885 135.569 323.02C136.718 322.188 136.056 320.342 134.585 320.686Z" fill="black"/>
    <path d="M142.907 320.858C138.774 323.184 134.46 325.414 131.249 328.995C130.27 330.087 131.795 331.635 132.864 330.612C136.266 327.352 140.784 325.762 144.393 322.785C145.499 321.875 144.085 320.196 142.907 320.858Z" fill="black"/>
    <path d="M34.5801 306.377C31.3281 308.502 28.029 310.586 24.5701 312.363C25.0209 312.109 25.4798 311.865 25.9021 311.566C27.0597 310.746 26.3916 308.799 24.9062 309.201C22.2075 309.935 19.6952 311.252 17.0334 312.117C15.7589 312.531 15.9064 314.69 17.3632 314.557C19.5417 314.363 21.728 313.791 23.7137 312.832C22.1563 313.725 23.6152 316.006 25.271 315.295C29.2976 313.559 33.0023 311.51 36.2708 308.568C37.4466 307.508 35.9077 305.51 34.5801 306.377Z" fill="black"/>
    <path d="M124.557 234.392C125.141 233.094 123.672 231.82 122.551 232.844C121.422 233.881 120.41 235.027 119.252 236.039C117.982 237.15 116.65 238.186 115.348 239.26C114.188 240.217 115.727 242.209 116.955 241.346C119.651 239.449 123.151 237.514 124.557 234.392Z" fill="black"/>
    <path d="M128.873 234.748C124.698 235.828 121.471 239.496 118.393 242.305C117.5 243.125 118.686 244.694 119.697 243.996C123.057 241.672 126.536 239.387 129.791 236.928C130.823 236.147 130.268 234.387 128.873 234.748Z" fill="black"/>
    <path d="M130.69 243.85C132.26 242.397 133.881 241.043 135.151 239.315C135.79 238.449 134.524 237.184 133.655 237.821C131.93 239.092 130.575 240.713 129.123 242.283C128.149 243.334 129.639 244.822 130.69 243.85Z" fill="black"/>
    <path d="M201.997 223.31C200.045 224.07 198.522 225.615 197.211 227.217C196.289 228.342 197.678 229.742 198.801 228.808C200.227 227.625 201.879 226.617 203.127 225.246C203.842 224.461 203.157 222.859 201.997 223.31Z" fill="black"/>
    <path d="M205.331 225.621C203.219 226.59 201.633 228.225 200.559 230.277C199.844 231.647 201.768 232.76 202.62 231.482C203.68 229.892 205.198 228.561 206.674 227.363C207.725 226.511 206.389 225.135 205.331 225.621Z" fill="black"/>
    <path d="M172.619 260.897C170.906 260.606 169.8 262.8 171.402 263.784C179.123 268.521 182.031 276.45 185.246 284.478C186.088 286.586 189.272 286.41 189.336 283.927C189.557 275.448 181.519 262.411 172.619 260.897Z" fill="black"/>
    <path d="M192.668 293.455C192.385 292.65 191.725 292.062 190.838 292.062C189.893 292.062 188.817 292.93 188.94 293.961C189.209 296.234 188.727 299.508 190.772 301.031C191.186 301.338 191.917 301.304 192.333 301.031C194.69 299.48 193.415 295.59 192.668 293.455Z" fill="black"/>
    <path d="M198.75 109.017C198.783 107.39 196.213 106.995 195.881 108.63C194.377 115.962 196.199 123.126 197.949 130.218C198.375 131.941 200.957 131.529 200.986 129.806C201.1 122.732 198.617 116.081 198.75 109.017Z" fill="black"/>
    <path d="M201.744 140.839C201.387 139.537 201.698 138.3 201.625 136.976C201.485 134.509 198.096 134.007 197.334 136.394C196.684 138.425 197.504 140.48 198.736 142.107C199.803 143.517 202.274 142.767 201.744 140.839Z" fill="black"/>
    <path d="M172.466 204.154C167.15 206.056 163.054 210.101 157.435 211.404C155.689 211.808 156.04 214.791 157.863 214.572C163.718 213.871 169.72 210.89 174.117 206.99C175.363 205.886 174.058 203.583 172.466 204.154Z" fill="black"/>
    <path d="M182.965 198.134C182.135 198.696 181.248 199.177 180.439 199.763C179.631 200.347 178.99 201.144 178.287 201.843C177.004 203.113 178.623 204.995 180.142 204.242C181.008 203.812 181.996 203.375 182.703 202.7C183.523 201.915 184.197 200.949 184.873 200.042C185.713 198.917 184.084 197.378 182.965 198.134Z" fill="black"/>
    <path d="M94.4984 208.521C90.2527 207.142 86.2261 205.755 83.101 202.417C81.7775 201.001 79.2322 202.894 80.3839 204.513C83.6277 209.072 88.5581 211.378 94.0661 211.72C95.9738 211.841 96.1807 209.066 94.4984 208.521Z" fill="black"/>
    <path d="M176.459 26.198C175.93 24.3641 174.906 22.8681 173.721 21.3887C172.668 20.073 171.35 18.6347 169.672 18.1817C168.652 17.9091 167.57 19.1018 168.229 20.0587C169.068 21.2698 170.123 22.2964 170.961 23.5217C171.938 24.9581 172.697 26.4662 174.045 27.6036C175.096 28.491 176.887 27.6795 176.459 26.198Z" fill="black"/>
</svg>
