<svg width="18" height="20" viewBox="0 0 18 20" fill="none" xmlns="http://www.w3.org/2000/svg">
<path d="M4.60428 10.0825C4.60428 9.55258 4.23634 9.23633 3.58701 9.23633C3.32214 9.23633 3.14269 9.26187 3.04858 9.28749V10.989C3.15984 11.0143 3.29659 11.0229 3.48416 11.0229C4.17692 11.0229 4.60428 10.6725 4.60428 10.0825Z" fill="#36B5EB"/>
<path d="M8.62336 9.25391C8.33237 9.25391 8.14474 9.27952 8.0332 9.30517V13.0751C8.14453 13.1011 8.32409 13.1011 8.48657 13.1011C9.66614 13.1094 10.4356 12.46 10.4356 11.0835C10.4442 9.88626 9.74302 9.25391 8.62336 9.25391Z" fill="#36B5EB"/>
<path d="M16.3241 7.03873H15.8515V4.75883C15.8515 4.74461 15.8493 4.73028 15.8474 4.71589C15.8467 4.62536 15.8179 4.53643 15.7559 4.46598L11.9619 0.131972C11.9607 0.130865 11.9596 0.130472 11.9588 0.129257C11.9362 0.103999 11.9098 0.0829918 11.882 0.0648072C11.8737 0.0592697 11.8654 0.0546253 11.8568 0.049838C11.8326 0.036655 11.807 0.0257228 11.7806 0.0178273C11.7735 0.0158267 11.767 0.0128971 11.7599 0.0110394C11.7312 0.00425141 11.7015 0 11.6713 0H2.34706C1.92128 0 1.57538 0.346293 1.57538 0.77172V7.03855H1.10297C0.493878 7.03855 0 7.53221 0 8.14152V13.8772C0 14.4861 0.493878 14.98 1.10297 14.98H1.57542V18.9063C1.57542 19.3317 1.92132 19.678 2.3471 19.678H15.0799C15.5053 19.678 15.8516 19.3317 15.8516 18.9063V14.98H16.3241C16.933 14.98 17.427 14.4861 17.427 13.8772V8.1417C17.427 7.53243 16.933 7.03873 16.3241 7.03873ZM2.34706 0.771863H11.2855V4.72007C11.2855 4.93324 11.4584 5.10591 11.6713 5.10591H15.0799V7.03898H2.34706V0.771863ZM11.8202 11.0402C11.8202 12.1433 11.4185 12.9039 10.862 13.3743C10.2557 13.8786 9.3322 14.1179 8.20411 14.1179C7.52889 14.1179 7.05027 14.0751 6.72502 14.0325V8.37296C7.20371 8.29618 7.82817 8.25342 8.48646 8.25342C9.58011 8.25342 10.2898 8.4502 10.8458 8.86883C11.4439 9.31345 11.8202 10.0229 11.8202 11.0402ZM1.75758 14.0582V8.37296C2.15918 8.30493 2.72369 8.25342 3.51874 8.25342C4.32226 8.25342 4.89516 8.40732 5.27972 8.71528C5.64741 9.00577 5.89474 9.48461 5.89474 10.0489C5.89474 10.6133 5.70718 11.092 5.36496 11.4166C4.92045 11.8356 4.26227 12.0238 3.49266 12.0238C3.32196 12.0238 3.16755 12.0152 3.0484 11.998V14.0583H1.75758V14.0582ZM15.0799 18.6974H2.34706V14.98H15.0799V18.6974H15.0799ZM16.198 9.36479H13.9834V10.6813H16.0524V11.7415H13.9834V14.0582H12.6761V8.29618H16.198V9.36479Z" fill="#36B5EB"/>
</svg>
