<svg width="100" height="159" viewBox="0 0 100 159" fill="none" xmlns="http://www.w3.org/2000/svg">
<g clip-path="url(#clip0)">
<path d="M151.857 112.407H149.062V30.8497C149.06 28.6268 148.176 26.4956 146.604 24.9237C145.032 23.3518 142.901 22.4676 140.678 22.465H18.3223C16.0993 22.4676 13.9681 23.3518 12.3962 24.9237C10.8244 26.4956 9.94013 28.6268 9.9375 30.8497V112.407H7.14258C5.24885 112.409 3.43326 113.162 2.09419 114.501C0.755126 115.84 0.00197297 117.656 0 119.549L0 129.391C0.00197297 131.285 0.755126 133.101 2.09419 134.44C3.43326 135.779 5.24885 136.532 7.14258 136.534H151.857C153.751 136.532 155.567 135.779 156.906 134.44C158.245 133.101 158.998 131.285 159 129.391V119.549C158.998 117.656 158.245 115.84 156.906 114.501C155.567 113.162 153.751 112.409 151.857 112.407V112.407ZM14.2852 30.8497C14.2865 29.7794 14.7122 28.7533 15.4691 27.9965C16.2259 27.2397 17.252 26.8139 18.3223 26.8126H140.678C141.748 26.8139 142.774 27.2397 143.531 27.9965C144.288 28.7533 144.714 29.7794 144.715 30.8497V112.407H14.2852V30.8497ZM102.032 116.754L99.9427 122.296H59.0573L56.968 116.754H102.032ZM154.652 129.392C154.651 130.133 154.357 130.844 153.833 131.368C153.309 131.892 152.598 132.186 151.857 132.187H7.14258C6.40162 132.186 5.69129 131.892 5.16736 131.368C4.64342 130.844 4.34864 130.133 4.34766 129.392V119.549C4.34864 118.808 4.64342 118.098 5.16736 117.574C5.69129 117.05 6.40162 116.755 7.14258 116.754H52.3209L55.5258 125.237C55.6816 125.651 55.9599 126.007 56.3234 126.259C56.6869 126.51 57.1185 126.645 57.5605 126.645H101.446C101.887 126.644 102.317 126.508 102.679 126.257C103.041 126.006 103.319 125.65 103.474 125.237L106.673 116.754H151.851C152.592 116.755 153.302 117.05 153.826 117.574C154.35 118.098 154.645 118.808 154.646 119.549L154.652 129.392Z" fill="#D7F0FB"/>
<path d="M136.641 102.159V37.0607C136.641 36.4841 136.412 35.9312 136.004 35.5235C135.596 35.1159 135.043 34.8868 134.467 34.8868H24.5332C23.9567 34.8868 23.4037 35.1159 22.9961 35.5235C22.5884 35.9312 22.3594 36.4841 22.3594 37.0607V102.159C22.3594 102.735 22.5884 103.288 22.9961 103.696C23.4037 104.104 23.9567 104.333 24.5332 104.333H134.467C135.043 104.333 135.596 104.104 136.004 103.696C136.412 103.288 136.641 102.735 136.641 102.159V102.159ZM132.293 99.9849H26.707V39.2345H132.293V99.9849Z" fill="#D7F0FB"/>
</g>
<defs>
<clipPath id="clip0">
<rect width="100" height="159" fill="white"/>
</clipPath>
</defs>
</svg>
