<svg width="75" height="124" viewBox="0 0 75 124" fill="none" xmlns="http://www.w3.org/2000/svg">
<g clip-path="url(#clip0)">
<path d="M62 29.8519C44.2725 29.8519 29.8518 44.2726 29.8518 62C29.8518 79.7274 44.2725 94.1482 62 94.1482C79.7274 94.1482 94.1481 79.7274 94.1481 62C94.1481 44.2726 79.7274 29.8519 62 29.8519ZM62 89.5556C46.8054 89.5556 34.4444 77.1946 34.4444 62C34.4444 46.8054 46.8054 34.4445 62 34.4445C77.1945 34.4445 89.5555 46.8054 89.5555 62C89.5555 77.1946 77.1945 89.5556 62 89.5556Z" fill="#D7F0FB"/>
<path d="M117.616 48.2222H112.982C111.8 43.8317 110.061 39.6295 107.793 35.6913L111.067 32.4168C112.273 31.2113 112.936 29.6061 112.936 27.9023C112.936 26.1961 112.273 24.5933 111.067 23.3855L100.612 12.9304C98.2011 10.5216 93.9966 10.517 91.5809 12.9304L88.3064 16.205C84.3659 13.9385 80.166 12.2002 75.7778 11.0176V6.3837C75.7778 2.86348 72.9143 0 69.3941 0H54.6059C51.0857 0 48.2222 2.86348 48.2222 6.3837V11.0176C43.834 12.2002 39.6341 13.9385 35.6913 16.2073L32.4168 12.9327C30.0034 10.517 25.7966 10.5216 23.3855 12.9327L12.9304 23.3878C11.7249 24.5933 11.0613 26.1984 11.0613 27.9046C11.0613 29.6084 11.7249 31.2113 12.9304 32.4191L16.205 35.6936C13.9385 39.6295 12.1979 43.8317 11.0176 48.2222H6.3837C2.86348 48.2222 0 51.0857 0 54.6059V69.3918C0 72.9143 2.86348 75.7778 6.3837 75.7778H11.0176C12.2002 80.166 13.9385 84.3659 16.2073 88.3087L12.9327 91.5832C11.7272 92.7887 11.0636 94.3938 11.0636 96.0977C11.0636 97.8038 11.7272 99.4067 12.9327 100.615L23.3878 111.07C25.7989 113.483 30.0057 113.485 32.4191 111.07L35.6936 107.795C39.6364 110.061 43.8363 111.802 48.2245 112.985V117.619C48.2245 121.139 51.088 124.002 54.6082 124.002H69.3941C72.9143 124.002 75.7778 121.139 75.7778 117.619V112.985C80.166 111.802 84.3659 110.064 88.3087 107.795L91.5832 111.07C93.9989 113.485 98.2011 113.481 100.615 111.07L111.07 100.615C112.275 99.409 112.939 97.8038 112.939 96.0977C112.939 94.3938 112.275 92.791 111.07 91.5832L107.795 88.3087C110.061 84.3659 111.802 80.166 112.985 75.7778H117.619C121.139 75.7778 124.002 72.9143 124.002 69.3941V54.6059C124 51.0857 121.137 48.2222 117.616 48.2222ZM119.407 69.3941C119.407 70.3815 118.604 71.1852 117.616 71.1852H109.368L108.955 72.9602C107.758 78.097 105.742 82.9721 102.954 87.4521L101.99 88.9998L107.82 94.8301C108.521 95.5305 108.521 96.6672 107.82 97.3653L97.3653 107.82C96.6672 108.518 95.5305 108.523 94.8301 107.82L88.9998 101.99L87.4521 102.954C82.9744 105.742 78.0993 107.761 72.9602 108.955L71.1852 109.368V117.616C71.1852 118.604 70.3815 119.407 69.3941 119.407H54.6059C53.6185 119.407 52.8148 118.604 52.8148 117.616V109.368L51.0398 108.955C45.903 107.758 41.0279 105.742 36.5479 102.954L35.0001 101.99L29.1698 107.82C28.4672 108.523 27.3305 108.518 26.6347 107.82L16.1797 97.3653C15.4793 96.6649 15.4793 95.5282 16.1797 94.8301L22.01 88.9998L21.0456 87.4521C18.2579 82.9744 16.2394 78.0993 15.0453 72.9602L14.632 71.1852H6.3837C5.3963 71.1852 4.59259 70.3815 4.59259 69.3941V54.6059C4.59259 53.6185 5.3963 52.8148 6.3837 52.8148H14.632L15.0453 51.0398C16.2417 45.9007 18.2579 41.0256 21.0456 36.5479L22.01 35.0001L16.1797 29.1698C15.4793 28.4695 15.4793 27.3328 16.1797 26.6347L26.6347 16.1797C27.3328 15.4816 28.4695 15.477 29.1698 16.1797L35.0001 22.01L36.5479 21.0456C41.0256 18.2579 45.9007 16.2394 51.0398 15.0453L52.8148 14.632V6.3837C52.8148 5.3963 53.6185 4.59259 54.6059 4.59259H69.3918C70.3815 4.59259 71.1852 5.3963 71.1852 6.3837V14.632L72.9602 15.0453C78.097 16.2417 82.9721 18.2579 87.4521 21.0456L88.9998 22.01L94.8301 16.1797C95.5328 15.477 96.6695 15.4816 97.3653 16.1797L107.82 26.6347C108.521 27.3351 108.521 28.4718 107.82 29.1698L101.99 35.0001L102.954 36.5479C105.742 41.0233 107.761 45.8984 108.955 51.0398L109.368 52.8148H117.616C118.604 52.8148 119.407 53.6185 119.407 54.6059V69.3941Z" fill="#D7F0FB"/>
<path d="M62.0001 39.037C49.3383 39.037 39.0371 49.3382 39.0371 62C39.0371 74.6618 49.3383 84.963 62.0001 84.963C74.6619 84.963 84.963 74.6618 84.963 62C84.963 49.3382 74.6619 39.037 62.0001 39.037ZM62.0001 80.3704C51.8711 80.3704 43.6297 72.129 43.6297 62C43.6297 51.8711 51.8711 43.6296 62.0001 43.6296C72.129 43.6296 80.3704 51.8711 80.3704 62C80.3704 72.129 72.129 80.3704 62.0001 80.3704Z" fill="#D7F0FB"/>
</g>
<defs>
<clipPath id="clip0">
<rect width="75" height="124" fill="white"/>
</clipPath>
</defs>
</svg>
