<svg width="188" height="138" viewBox="0 0 188 138" fill="none" xmlns="http://www.w3.org/2000/svg">
<g clip-path="url(#clip0)">
<path d="M108.318 52.8744L108.149 52.8524L108.028 52.7311L84.3477 28.925C74.0245 18.5468 61.2688 10.5382 47.463 5.766C33.6585 0.994281 18.7034 -0.576507 4.21198 1.22537C2.82468 1.39787 1.72881 2.49727 1.55666 3.89703C-0.235367 18.4635 1.32631 33.5013 6.07263 47.38C10.8199 61.2602 18.7865 74.0837 29.1098 84.4619L52.79 108.269L52.9098 108.389L52.9314 108.557L57.3403 142.921C57.4267 143.596 57.733 144.222 58.2103 144.701L91.1667 177.833C91.1668 177.833 91.1668 177.833 91.1668 177.833C91.7489 178.418 92.5285 178.732 93.3257 178.732C93.6285 178.732 93.9331 178.687 94.2303 178.595C95.3122 178.257 96.1202 177.343 96.3275 176.22C96.3275 176.22 96.3275 176.22 96.3275 176.22L100.943 151.169L100.971 151.017L101.08 150.907L105.977 145.985L106.452 145.507L106.771 146.1L112.417 156.58L111.976 156.817L112.417 156.58C112.876 157.433 113.709 158.017 114.662 158.156C114.808 158.178 114.956 158.188 115.101 158.188C115.904 158.188 116.682 157.869 117.259 157.289L156.789 117.549C157.471 116.863 157.791 115.894 157.652 114.933C157.513 113.972 156.931 113.135 156.084 112.674L156.084 112.674L145.659 106.999L145.074 106.68L145.544 106.207L150.44 101.285L150.55 101.174L150.703 101.146L175.622 96.5058C176.735 96.2985 177.645 95.4873 177.982 94.3971L177.982 94.3968C178.319 93.3061 178.027 92.118 177.225 91.3117L144.268 58.18C144.268 58.1799 144.268 58.1799 144.268 58.1798C143.79 57.6999 143.169 57.3929 142.5 57.3062L142.5 57.3062L108.318 52.8744ZM150.345 94.9651L150.085 95.0135L149.899 94.8262L116.254 61.0018L115.223 59.9654L116.673 60.1533L140.518 63.2449L140.688 63.2669L140.808 63.3882L168.132 90.8579L168.799 91.5288L167.869 91.7021L150.345 94.9651ZM116.311 149.558L115.836 150.035L115.517 149.442L111.134 141.305L110.958 140.978L111.22 140.715L140.302 111.478L140.566 111.212L140.895 111.392L148.99 115.798L149.575 116.117L149.105 116.59L116.311 149.558ZM63.3841 141.217L63.2642 141.096L63.2426 140.928L60.1674 116.956L59.9802 115.497L61.0179 116.54L94.6632 150.364L94.8479 150.55L94.8005 150.807L91.5542 168.424L91.3812 169.363L90.708 168.686L63.3841 141.217ZM98.4969 144.82L98.1424 145.176L97.7879 144.82L33.427 80.1166C24.0235 70.6626 16.7172 59.0428 12.2322 46.4556L12.0372 45.9083L12.6074 45.797C20.7974 44.1986 28.3944 40.1728 34.3427 34.1924L34.6972 34.545L34.3428 34.1923C40.2916 28.2124 44.2967 20.5738 45.8865 12.3391L45.9973 11.7656L46.5468 11.9635C59.0692 16.4722 70.6279 23.8172 80.0315 33.2712L144.392 97.975L144.743 98.3277L144.392 98.6803L98.4969 144.82ZM10.6486 39.9168L10.1992 39.9939L10.0812 39.5535C7.29024 29.1421 6.33795 18.2055 7.31503 7.47235L7.35277 7.0579L7.76718 7.01979C18.4445 6.03791 29.3241 6.99487 39.6812 9.80087L40.1194 9.91957L40.0434 10.3671C38.7978 17.7091 35.3061 24.5394 30.027 29.8461C24.7479 35.1528 17.9535 38.6643 10.6486 39.9168Z" fill="#D7F0FB" stroke="white"/>
<path d="M53.0132 52.955C44.8305 61.1812 44.8022 74.5503 52.9279 82.8115L53.0132 82.8973C57.1174 87.0233 62.5098 89.0869 67.9011 89.0869C73.2944 89.0869 78.6845 87.0242 82.7896 82.8973C91.0002 74.6425 91.0002 61.2097 82.7896 52.955C74.5805 44.7027 61.2228 44.7022 53.0132 52.955ZM57.329 78.5506L57.3289 78.5505C51.5014 72.6915 51.5014 63.1602 57.3299 57.3012C60.2441 54.3715 64.0735 52.9063 67.9016 52.9063C71.7292 52.9063 75.5591 54.371 78.4734 57.3013C84.3018 63.1603 84.3018 72.6915 78.4733 78.5506C72.6448 84.4106 63.1594 84.4115 57.329 78.5506Z" fill="#D7F0FB" stroke="white"/>
<path d="M153.359 139.321L153.359 139.322C153.955 139.921 154.736 140.22 155.517 140.22C156.298 140.22 157.078 139.921 157.675 139.322C158.869 138.122 158.869 136.176 157.675 134.976L157.675 134.976L155.784 133.074L155.784 133.074C154.594 131.876 152.662 131.875 151.468 133.074C150.274 134.273 150.274 136.22 151.468 137.42L151.468 137.42L153.359 139.321Z" fill="#D7F0FB" stroke="white"/>
</g>
<defs>
<clipPath id="clip0">
<rect width="188" height="138" fill="white" transform="matrix(-1 0 0 1 188 0)"/>
</clipPath>
</defs>
</svg>
