<svg version="1.1" xmlns="http://www.w3.org/2000/svg" xmlns:xlink="http://www.w3.org/1999/xlink">
    <symbol id="setting" viewBox="0 0 44 45">
        <circle cx="35" cy="36" r="9" fill="#36B5EB"/>
        <path d="M20.9996 10.5294C15.2259 10.5294 10.5294 15.2259 10.5294 20.9996C10.5294 26.7732 15.2259 31.4698 20.9996 31.4698C26.7732 31.4698 31.4698 26.7732 31.4698 20.9996C31.4698 15.2259 26.7732 10.5294 20.9996 10.5294ZM20.9996 29.7883C16.1534 29.7883 12.2108 25.8457 12.2108 20.9996C12.2108 16.1534 16.1534 12.2108 20.9996 12.2108C25.8457 12.2108 29.7883 16.1534 29.7883 20.9996C29.7883 25.8457 25.8457 29.7883 20.9996 29.7883Z" fill="#424242" stroke="#424242" stroke-width="2"/>
        
        <mask id="path-3-outside-1" maskUnits="userSpaceOnUse" x="0" y="0" width="42" height="42" fill="black">
            <rect fill="white" width="42" height="42"/>
            <path d="M38.94 16.5553H37.4453C37.0638 15.139 36.503 13.7835 35.7712 12.5131L36.8275 11.4568C37.2164 11.068 37.4304 10.5502 37.4304 10.0006C37.4304 9.45021 37.2164 8.93319 36.8275 8.54356L33.455 5.17103C32.6772 4.39401 31.3209 4.39253 30.5417 5.17103L29.4854 6.22731C28.2143 5.49621 26.8595 4.93548 25.444 4.55401V3.05922C25.444 1.92369 24.5203 1 23.3848 1H18.6145C17.479 1 16.5553 1.92369 16.5553 3.05922V4.55401C15.1397 4.93548 13.7849 5.49621 12.5131 6.22805L11.4568 5.17177C10.6783 4.39253 9.32133 4.39401 8.54356 5.17177L5.17103 8.5443C4.78215 8.93319 4.56808 9.45095 4.56808 10.0013C4.56808 10.5509 4.78215 11.068 5.17103 11.4576L6.22731 12.5139C5.49621 13.7835 4.93474 15.139 4.55401 16.5553H3.05922C1.92369 16.5553 1 17.479 1 18.6145V23.384C1 24.5203 1.92369 25.444 3.05922 25.444H4.55401C4.93548 26.8595 5.49621 28.2143 6.22805 29.4861L5.17177 30.5424C4.78289 30.9313 4.56882 31.4491 4.56882 31.9987C4.56882 32.549 4.78289 33.0661 5.17177 33.4557L8.5443 36.8282C9.32207 37.6067 10.6791 37.6075 11.4576 36.8282L12.5139 35.7719C13.7857 36.503 15.1405 37.0645 16.556 37.446V38.9408C16.556 40.0763 17.4797 41 18.6152 41H23.3848C24.5203 41 25.444 40.0763 25.444 38.9408V37.446C26.8595 37.0645 28.2143 36.5038 29.4861 35.7719L30.5424 36.8282C31.3217 37.6075 32.6772 37.606 33.4557 36.8282L36.8282 33.4557C37.2171 33.0668 37.4312 32.549 37.4312 31.9987C37.4312 31.4491 37.2171 30.932 36.8282 30.5424L35.7719 29.4861C36.503 28.2143 37.0645 26.8595 37.446 25.444H38.9408C40.0763 25.444 41 24.5203 41 23.3848V18.6145C40.9993 17.479 40.0756 16.5553 38.94 16.5553ZM39.5178 23.3848C39.5178 23.7033 39.2586 23.9625 38.94 23.9625H36.2793L36.146 24.5351C35.7601 26.1921 35.1097 27.7647 34.2105 29.2098L33.8994 29.7091L35.7801 31.5898C36.006 31.8157 36.006 32.1824 35.7801 32.4076L32.4076 35.7801C32.1824 36.0053 31.8157 36.0068 31.5898 35.7801L29.7091 33.8994L29.2098 34.2105C27.7654 35.1097 26.1929 35.7608 24.5351 36.146L23.9625 36.2793V38.94C23.9625 39.2586 23.7033 39.5178 23.3848 39.5178H18.6145C18.296 39.5178 18.0367 39.2586 18.0367 38.94V36.2793L17.4641 36.146C15.8071 35.7601 14.2346 35.1097 12.7894 34.2105L12.2902 33.8994L10.4095 35.7801C10.1828 36.0068 9.81613 36.0053 9.59169 35.7801L6.21916 32.4076C5.99324 32.1816 5.99324 31.815 6.21916 31.5898L8.09987 29.7091L7.78876 29.2098C6.88952 27.7654 6.23842 26.1929 5.85324 24.5351L5.71991 23.9625H3.05922C2.74071 23.9625 2.48145 23.7033 2.48145 23.3848V18.6145C2.48145 18.296 2.74071 18.0367 3.05922 18.0367H5.71991L5.85324 17.4641C6.23916 15.8064 6.88952 14.2338 7.78876 12.7894L8.09987 12.2902L6.21916 10.4095C5.99324 10.1835 5.99324 9.81687 6.21916 9.59169L9.59169 6.21916C9.81687 5.99398 10.1835 5.9925 10.4095 6.21916L12.2902 8.09987L12.7894 7.78876C14.2338 6.88952 15.8064 6.23842 17.4641 5.85324L18.0367 5.71991V3.05922C18.0367 2.74071 18.296 2.48145 18.6145 2.48145H23.384C23.7033 2.48145 23.9625 2.74071 23.9625 3.05922V5.71991L24.5351 5.85324C26.1921 6.23916 27.7647 6.88952 29.2098 7.78876L29.7091 8.09987L31.5898 6.21916C31.8165 5.9925 32.1831 5.99398 32.4076 6.21916L35.7801 9.59169C36.006 9.81761 36.006 10.1843 35.7801 10.4095L33.8994 12.2902L34.2105 12.7894C35.1097 14.2331 35.7608 15.8057 36.146 17.4641L36.2793 18.0367H38.94C39.2586 18.0367 39.5178 18.296 39.5178 18.6145V23.3848Z"/>
        </mask>
        
        <path d="M38.94 16.5553H37.4453C37.0638 15.139 36.503 13.7835 35.7712 12.5131L36.8275 11.4568C37.2164 11.068 37.4304 10.5502 37.4304 10.0006C37.4304 9.45021 37.2164 8.93319 36.8275 8.54356L33.455 5.17103C32.6772 4.39401 31.3209 4.39253 30.5417 5.17103L29.4854 6.22731C28.2143 5.49621 26.8595 4.93548 25.444 4.55401V3.05922C25.444 1.92369 24.5203 1 23.3848 1H18.6145C17.479 1 16.5553 1.92369 16.5553 3.05922V4.55401C15.1397 4.93548 13.7849 5.49621 12.5131 6.22805L11.4568 5.17177C10.6783 4.39253 9.32133 4.39401 8.54356 5.17177L5.17103 8.5443C4.78215 8.93319 4.56808 9.45095 4.56808 10.0013C4.56808 10.5509 4.78215 11.068 5.17103 11.4576L6.22731 12.5139C5.49621 13.7835 4.93474 15.139 4.55401 16.5553H3.05922C1.92369 16.5553 1 17.479 1 18.6145V23.384C1 24.5203 1.92369 25.444 3.05922 25.444H4.55401C4.93548 26.8595 5.49621 28.2143 6.22805 29.4861L5.17177 30.5424C4.78289 30.9313 4.56882 31.4491 4.56882 31.9987C4.56882 32.549 4.78289 33.0661 5.17177 33.4557L8.5443 36.8282C9.32207 37.6067 10.6791 37.6075 11.4576 36.8282L12.5139 35.7719C13.7857 36.503 15.1405 37.0645 16.556 37.446V38.9408C16.556 40.0763 17.4797 41 18.6152 41H23.3848C24.5203 41 25.444 40.0763 25.444 38.9408V37.446C26.8595 37.0645 28.2143 36.5038 29.4861 35.7719L30.5424 36.8282C31.3217 37.6075 32.6772 37.606 33.4557 36.8282L36.8282 33.4557C37.2171 33.0668 37.4312 32.549 37.4312 31.9987C37.4312 31.4491 37.2171 30.932 36.8282 30.5424L35.7719 29.4861C36.503 28.2143 37.0645 26.8595 37.446 25.444H38.9408C40.0763 25.444 41 24.5203 41 23.3848V18.6145C40.9993 17.479 40.0756 16.5553 38.94 16.5553ZM39.5178 23.3848C39.5178 23.7033 39.2586 23.9625 38.94 23.9625H36.2793L36.146 24.5351C35.7601 26.1921 35.1097 27.7647 34.2105 29.2098L33.8994 29.7091L35.7801 31.5898C36.006 31.8157 36.006 32.1824 35.7801 32.4076L32.4076 35.7801C32.1824 36.0053 31.8157 36.0068 31.5898 35.7801L29.7091 33.8994L29.2098 34.2105C27.7654 35.1097 26.1929 35.7608 24.5351 36.146L23.9625 36.2793V38.94C23.9625 39.2586 23.7033 39.5178 23.3848 39.5178H18.6145C18.296 39.5178 18.0367 39.2586 18.0367 38.94V36.2793L17.4641 36.146C15.8071 35.7601 14.2346 35.1097 12.7894 34.2105L12.2902 33.8994L10.4095 35.7801C10.1828 36.0068 9.81613 36.0053 9.59169 35.7801L6.21916 32.4076C5.99324 32.1816 5.99324 31.815 6.21916 31.5898L8.09987 29.7091L7.78876 29.2098C6.88952 27.7654 6.23842 26.1929 5.85324 24.5351L5.71991 23.9625H3.05922C2.74071 23.9625 2.48145 23.7033 2.48145 23.3848V18.6145C2.48145 18.296 2.74071 18.0367 3.05922 18.0367H5.71991L5.85324 17.4641C6.23916 15.8064 6.88952 14.2338 7.78876 12.7894L8.09987 12.2902L6.21916 10.4095C5.99324 10.1835 5.99324 9.81687 6.21916 9.59169L9.59169 6.21916C9.81687 5.99398 10.1835 5.9925 10.4095 6.21916L12.2902 8.09987L12.7894 7.78876C14.2338 6.88952 15.8064 6.23842 17.4641 5.85324L18.0367 5.71991V3.05922C18.0367 2.74071 18.296 2.48145 18.6145 2.48145H23.384C23.7033 2.48145 23.9625 2.74071 23.9625 3.05922V5.71991L24.5351 5.85324C26.1921 6.23916 27.7647 6.88952 29.2098 7.78876L29.7091 8.09987L31.5898 6.21916C31.8165 5.9925 32.1831 5.99398 32.4076 6.21916L35.7801 9.59169C36.006 9.81761 36.006 10.1843 35.7801 10.4095L33.8994 12.2902L34.2105 12.7894C35.1097 14.2331 35.7608 15.8057 36.146 17.4641L36.2793 18.0367H38.94C39.2586 18.0367 39.5178 18.296 39.5178 18.6145V23.3848Z" fill="#424242"/>
        <path d="M38.94 16.5553H37.4453C37.0638 15.139 36.503 13.7835 35.7712 12.5131L36.8275 11.4568C37.2164 11.068 37.4304 10.5502 37.4304 10.0006C37.4304 9.45021 37.2164 8.93319 36.8275 8.54356L33.455 5.17103C32.6772 4.39401 31.3209 4.39253 30.5417 5.17103L29.4854 6.22731C28.2143 5.49621 26.8595 4.93548 25.444 4.55401V3.05922C25.444 1.92369 24.5203 1 23.3848 1H18.6145C17.479 1 16.5553 1.92369 16.5553 3.05922V4.55401C15.1397 4.93548 13.7849 5.49621 12.5131 6.22805L11.4568 5.17177C10.6783 4.39253 9.32133 4.39401 8.54356 5.17177L5.17103 8.5443C4.78215 8.93319 4.56808 9.45095 4.56808 10.0013C4.56808 10.5509 4.78215 11.068 5.17103 11.4576L6.22731 12.5139C5.49621 13.7835 4.93474 15.139 4.55401 16.5553H3.05922C1.92369 16.5553 1 17.479 1 18.6145V23.384C1 24.5203 1.92369 25.444 3.05922 25.444H4.55401C4.93548 26.8595 5.49621 28.2143 6.22805 29.4861L5.17177 30.5424C4.78289 30.9313 4.56882 31.4491 4.56882 31.9987C4.56882 32.549 4.78289 33.0661 5.17177 33.4557L8.5443 36.8282C9.32207 37.6067 10.6791 37.6075 11.4576 36.8282L12.5139 35.7719C13.7857 36.503 15.1405 37.0645 16.556 37.446V38.9408C16.556 40.0763 17.4797 41 18.6152 41H23.3848C24.5203 41 25.444 40.0763 25.444 38.9408V37.446C26.8595 37.0645 28.2143 36.5038 29.4861 35.7719L30.5424 36.8282C31.3217 37.6075 32.6772 37.606 33.4557 36.8282L36.8282 33.4557C37.2171 33.0668 37.4312 32.549 37.4312 31.9987C37.4312 31.4491 37.2171 30.932 36.8282 30.5424L35.7719 29.4861C36.503 28.2143 37.0645 26.8595 37.446 25.444H38.9408C40.0763 25.444 41 24.5203 41 23.3848V18.6145C40.9993 17.479 40.0756 16.5553 38.94 16.5553ZM39.5178 23.3848C39.5178 23.7033 39.2586 23.9625 38.94 23.9625H36.2793L36.146 24.5351C35.7601 26.1921 35.1097 27.7647 34.2105 29.2098L33.8994 29.7091L35.7801 31.5898C36.006 31.8157 36.006 32.1824 35.7801 32.4076L32.4076 35.7801C32.1824 36.0053 31.8157 36.0068 31.5898 35.7801L29.7091 33.8994L29.2098 34.2105C27.7654 35.1097 26.1929 35.7608 24.5351 36.146L23.9625 36.2793V38.94C23.9625 39.2586 23.7033 39.5178 23.3848 39.5178H18.6145C18.296 39.5178 18.0367 39.2586 18.0367 38.94V36.2793L17.4641 36.146C15.8071 35.7601 14.2346 35.1097 12.7894 34.2105L12.2902 33.8994L10.4095 35.7801C10.1828 36.0068 9.81613 36.0053 9.59169 35.7801L6.21916 32.4076C5.99324 32.1816 5.99324 31.815 6.21916 31.5898L8.09987 29.7091L7.78876 29.2098C6.88952 27.7654 6.23842 26.1929 5.85324 24.5351L5.71991 23.9625H3.05922C2.74071 23.9625 2.48145 23.7033 2.48145 23.3848V18.6145C2.48145 18.296 2.74071 18.0367 3.05922 18.0367H5.71991L5.85324 17.4641C6.23916 15.8064 6.88952 14.2338 7.78876 12.7894L8.09987 12.2902L6.21916 10.4095C5.99324 10.1835 5.99324 9.81687 6.21916 9.59169L9.59169 6.21916C9.81687 5.99398 10.1835 5.9925 10.4095 6.21916L12.2902 8.09987L12.7894 7.78876C14.2338 6.88952 15.8064 6.23842 17.4641 5.85324L18.0367 5.71991V3.05922C18.0367 2.74071 18.296 2.48145 18.6145 2.48145H23.384C23.7033 2.48145 23.9625 2.74071 23.9625 3.05922V5.71991L24.5351 5.85324C26.1921 6.23916 27.7647 6.88952 29.2098 7.78876L29.7091 8.09987L31.5898 6.21916C31.8165 5.9925 32.1831 5.99398 32.4076 6.21916L35.7801 9.59169C36.006 9.81761 36.006 10.1843 35.7801 10.4095L33.8994 12.2902L34.2105 12.7894C35.1097 14.2331 35.7608 15.8057 36.146 17.4641L36.2793 18.0367H38.94C39.2586 18.0367 39.5178 18.296 39.5178 18.6145V23.3848Z" stroke="#424242" stroke-width="0.4" mask="url(#path-3-outside-1)"/>
        <path d="M20.9997 13.4924C16.8601 13.4924 13.4924 16.8601 13.4924 20.9997C13.4924 25.1393 16.8601 28.5069 20.9997 28.5069C25.1393 28.5069 28.5069 25.1393 28.5069 20.9997C28.5069 16.8601 25.1393 13.4924 20.9997 13.4924ZM20.9997 26.8255C17.7876 26.8255 15.1739 24.2118 15.1739 20.9997C15.1739 17.7876 17.7876 15.1739 20.9997 15.1739C24.2118 15.1739 26.8255 17.7876 26.8255 20.9997C26.8255 24.2118 24.2118 26.8255 20.9997 26.8255Z" fill="#424242" stroke="#424242" stroke-width="1"/>
        
        <mask id="mask0" mask-type="alpha" maskUnits="userSpaceOnUse" x="26" y="27" width="18" height="18">
            <circle cx="35" cy="36" r="9" fill="#36B5EB"/>
        </mask>
        
        <g mask="url(#mask0)">
            <path d="M20.9996 10.5294C15.2259 10.5294 10.5294 15.2259 10.5294 20.9996C10.5294 26.7732 15.2259 31.4698 20.9996 31.4698C26.7732 31.4698 31.4698 26.7732 31.4698 20.9996C31.4698 15.2259 26.7732 10.5294 20.9996 10.5294ZM20.9996 29.7883C16.1534 29.7883 12.2108 25.8457 12.2108 20.9996C12.2108 16.1534 16.1534 12.2108 20.9996 12.2108C25.8457 12.2108 29.7883 16.1534 29.7883 20.9996C29.7883 25.8457 25.8457 29.7883 20.9996 29.7883Z" fill="#E9F4F9" stroke="#424242" stroke-width="1"/>
            
            <mask id="path-7-outside-2" maskUnits="userSpaceOnUse" x="0" y="0" width="42" height="42" fill="black">
                <rect fill="white" width="42" height="42"/>
                <path d="M38.94 16.5553H37.4453C37.0638 15.139 36.503 13.7835 35.7712 12.5131L36.8275 11.4568C37.2164 11.068 37.4304 10.5502 37.4304 10.0006C37.4304 9.45021 37.2164 8.93319 36.8275 8.54356L33.455 5.17103C32.6772 4.39401 31.3209 4.39253 30.5417 5.17103L29.4854 6.22731C28.2143 5.49621 26.8595 4.93548 25.444 4.55401V3.05922C25.444 1.92369 24.5203 1 23.3848 1H18.6145C17.479 1 16.5553 1.92369 16.5553 3.05922V4.55401C15.1397 4.93548 13.7849 5.49621 12.5131 6.22805L11.4568 5.17177C10.6783 4.39253 9.32133 4.39401 8.54356 5.17177L5.17103 8.5443C4.78215 8.93319 4.56808 9.45095 4.56808 10.0013C4.56808 10.5509 4.78215 11.068 5.17103 11.4576L6.22731 12.5139C5.49621 13.7835 4.93474 15.139 4.55401 16.5553H3.05922C1.92369 16.5553 1 17.479 1 18.6145V23.384C1 24.5203 1.92369 25.444 3.05922 25.444H4.55401C4.93548 26.8595 5.49621 28.2143 6.22805 29.4861L5.17177 30.5424C4.78289 30.9313 4.56882 31.4491 4.56882 31.9987C4.56882 32.549 4.78289 33.0661 5.17177 33.4557L8.5443 36.8282C9.32207 37.6067 10.6791 37.6075 11.4576 36.8282L12.5139 35.7719C13.7857 36.503 15.1405 37.0645 16.556 37.446V38.9408C16.556 40.0763 17.4797 41 18.6152 41H23.3848C24.5203 41 25.444 40.0763 25.444 38.9408V37.446C26.8595 37.0645 28.2143 36.5038 29.4861 35.7719L30.5424 36.8282C31.3217 37.6075 32.6772 37.606 33.4557 36.8282L36.8282 33.4557C37.2171 33.0668 37.4312 32.549 37.4312 31.9987C37.4312 31.4491 37.2171 30.932 36.8282 30.5424L35.7719 29.4861C36.503 28.2143 37.0645 26.8595 37.446 25.444H38.9408C40.0763 25.444 41 24.5203 41 23.3848V18.6145C40.9993 17.479 40.0756 16.5553 38.94 16.5553ZM39.5178 23.3848C39.5178 23.7033 39.2586 23.9625 38.94 23.9625H36.2793L36.146 24.5351C35.7601 26.1921 35.1097 27.7647 34.2105 29.2098L33.8994 29.7091L35.7801 31.5898C36.006 31.8157 36.006 32.1824 35.7801 32.4076L32.4076 35.7801C32.1824 36.0053 31.8157 36.0068 31.5898 35.7801L29.7091 33.8994L29.2098 34.2105C27.7654 35.1097 26.1929 35.7608 24.5351 36.146L23.9625 36.2793V38.94C23.9625 39.2586 23.7033 39.5178 23.3848 39.5178H18.6145C18.296 39.5178 18.0367 39.2586 18.0367 38.94V36.2793L17.4641 36.146C15.8071 35.7601 14.2346 35.1097 12.7894 34.2105L12.2902 33.8994L10.4095 35.7801C10.1828 36.0068 9.81613 36.0053 9.59169 35.7801L6.21916 32.4076C5.99324 32.1816 5.99324 31.815 6.21916 31.5898L8.09987 29.7091L7.78876 29.2098C6.88952 27.7654 6.23842 26.1929 5.85324 24.5351L5.71991 23.9625H3.05922C2.74071 23.9625 2.48145 23.7033 2.48145 23.3848V18.6145C2.48145 18.296 2.74071 18.0367 3.05922 18.0367H5.71991L5.85324 17.4641C6.23916 15.8064 6.88952 14.2338 7.78876 12.7894L8.09987 12.2902L6.21916 10.4095C5.99324 10.1835 5.99324 9.81687 6.21916 9.59169L9.59169 6.21916C9.81687 5.99398 10.1835 5.9925 10.4095 6.21916L12.2902 8.09987L12.7894 7.78876C14.2338 6.88952 15.8064 6.23842 17.4641 5.85324L18.0367 5.71991V3.05922C18.0367 2.74071 18.296 2.48145 18.6145 2.48145H23.384C23.7033 2.48145 23.9625 2.74071 23.9625 3.05922V5.71991L24.5351 5.85324C26.1921 6.23916 27.7647 6.88952 29.2098 7.78876L29.7091 8.09987L31.5898 6.21916C31.8165 5.9925 32.1831 5.99398 32.4076 6.21916L35.7801 9.59169C36.006 9.81761 36.006 10.1843 35.7801 10.4095L33.8994 12.2902L34.2105 12.7894C35.1097 14.2331 35.7608 15.8057 36.146 17.4641L36.2793 18.0367H38.94C39.2586 18.0367 39.5178 18.296 39.5178 18.6145V23.3848Z"/>
            </mask>
            
            <path d="M38.94 16.5553H37.4453C37.0638 15.139 36.503 13.7835 35.7712 12.5131L36.8275 11.4568C37.2164 11.068 37.4304 10.5502 37.4304 10.0006C37.4304 9.45021 37.2164 8.93319 36.8275 8.54356L33.455 5.17103C32.6772 4.39401 31.3209 4.39253 30.5417 5.17103L29.4854 6.22731C28.2143 5.49621 26.8595 4.93548 25.444 4.55401V3.05922C25.444 1.92369 24.5203 1 23.3848 1H18.6145C17.479 1 16.5553 1.92369 16.5553 3.05922V4.55401C15.1397 4.93548 13.7849 5.49621 12.5131 6.22805L11.4568 5.17177C10.6783 4.39253 9.32133 4.39401 8.54356 5.17177L5.17103 8.5443C4.78215 8.93319 4.56808 9.45095 4.56808 10.0013C4.56808 10.5509 4.78215 11.068 5.17103 11.4576L6.22731 12.5139C5.49621 13.7835 4.93474 15.139 4.55401 16.5553H3.05922C1.92369 16.5553 1 17.479 1 18.6145V23.384C1 24.5203 1.92369 25.444 3.05922 25.444H4.55401C4.93548 26.8595 5.49621 28.2143 6.22805 29.4861L5.17177 30.5424C4.78289 30.9313 4.56882 31.4491 4.56882 31.9987C4.56882 32.549 4.78289 33.0661 5.17177 33.4557L8.5443 36.8282C9.32207 37.6067 10.6791 37.6075 11.4576 36.8282L12.5139 35.7719C13.7857 36.503 15.1405 37.0645 16.556 37.446V38.9408C16.556 40.0763 17.4797 41 18.6152 41H23.3848C24.5203 41 25.444 40.0763 25.444 38.9408V37.446C26.8595 37.0645 28.2143 36.5038 29.4861 35.7719L30.5424 36.8282C31.3217 37.6075 32.6772 37.606 33.4557 36.8282L36.8282 33.4557C37.2171 33.0668 37.4312 32.549 37.4312 31.9987C37.4312 31.4491 37.2171 30.932 36.8282 30.5424L35.7719 29.4861C36.503 28.2143 37.0645 26.8595 37.446 25.444H38.9408C40.0763 25.444 41 24.5203 41 23.3848V18.6145C40.9993 17.479 40.0756 16.5553 38.94 16.5553ZM39.5178 23.3848C39.5178 23.7033 39.2586 23.9625 38.94 23.9625H36.2793L36.146 24.5351C35.7601 26.1921 35.1097 27.7647 34.2105 29.2098L33.8994 29.7091L35.7801 31.5898C36.006 31.8157 36.006 32.1824 35.7801 32.4076L32.4076 35.7801C32.1824 36.0053 31.8157 36.0068 31.5898 35.7801L29.7091 33.8994L29.2098 34.2105C27.7654 35.1097 26.1929 35.7608 24.5351 36.146L23.9625 36.2793V38.94C23.9625 39.2586 23.7033 39.5178 23.3848 39.5178H18.6145C18.296 39.5178 18.0367 39.2586 18.0367 38.94V36.2793L17.4641 36.146C15.8071 35.7601 14.2346 35.1097 12.7894 34.2105L12.2902 33.8994L10.4095 35.7801C10.1828 36.0068 9.81613 36.0053 9.59169 35.7801L6.21916 32.4076C5.99324 32.1816 5.99324 31.815 6.21916 31.5898L8.09987 29.7091L7.78876 29.2098C6.88952 27.7654 6.23842 26.1929 5.85324 24.5351L5.71991 23.9625H3.05922C2.74071 23.9625 2.48145 23.7033 2.48145 23.3848V18.6145C2.48145 18.296 2.74071 18.0367 3.05922 18.0367H5.71991L5.85324 17.4641C6.23916 15.8064 6.88952 14.2338 7.78876 12.7894L8.09987 12.2902L6.21916 10.4095C5.99324 10.1835 5.99324 9.81687 6.21916 9.59169L9.59169 6.21916C9.81687 5.99398 10.1835 5.9925 10.4095 6.21916L12.2902 8.09987L12.7894 7.78876C14.2338 6.88952 15.8064 6.23842 17.4641 5.85324L18.0367 5.71991V3.05922C18.0367 2.74071 18.296 2.48145 18.6145 2.48145H23.384C23.7033 2.48145 23.9625 2.74071 23.9625 3.05922V5.71991L24.5351 5.85324C26.1921 6.23916 27.7647 6.88952 29.2098 7.78876L29.7091 8.09987L31.5898 6.21916C31.8165 5.9925 32.1831 5.99398 32.4076 6.21916L35.7801 9.59169C36.006 9.81761 36.006 10.1843 35.7801 10.4095L33.8994 12.2902L34.2105 12.7894C35.1097 14.2331 35.7608 15.8057 36.146 17.4641L36.2793 18.0367H38.94C39.2586 18.0367 39.5178 18.296 39.5178 18.6145V23.3848Z" fill="#E9F4F9"/>
            <path d="M38.94 16.5553H37.4453C37.0638 15.139 36.503 13.7835 35.7712 12.5131L36.8275 11.4568C37.2164 11.068 37.4304 10.5502 37.4304 10.0006C37.4304 9.45021 37.2164 8.93319 36.8275 8.54356L33.455 5.17103C32.6772 4.39401 31.3209 4.39253 30.5417 5.17103L29.4854 6.22731C28.2143 5.49621 26.8595 4.93548 25.444 4.55401V3.05922C25.444 1.92369 24.5203 1 23.3848 1H18.6145C17.479 1 16.5553 1.92369 16.5553 3.05922V4.55401C15.1397 4.93548 13.7849 5.49621 12.5131 6.22805L11.4568 5.17177C10.6783 4.39253 9.32133 4.39401 8.54356 5.17177L5.17103 8.5443C4.78215 8.93319 4.56808 9.45095 4.56808 10.0013C4.56808 10.5509 4.78215 11.068 5.17103 11.4576L6.22731 12.5139C5.49621 13.7835 4.93474 15.139 4.55401 16.5553H3.05922C1.92369 16.5553 1 17.479 1 18.6145V23.384C1 24.5203 1.92369 25.444 3.05922 25.444H4.55401C4.93548 26.8595 5.49621 28.2143 6.22805 29.4861L5.17177 30.5424C4.78289 30.9313 4.56882 31.4491 4.56882 31.9987C4.56882 32.549 4.78289 33.0661 5.17177 33.4557L8.5443 36.8282C9.32207 37.6067 10.6791 37.6075 11.4576 36.8282L12.5139 35.7719C13.7857 36.503 15.1405 37.0645 16.556 37.446V38.9408C16.556 40.0763 17.4797 41 18.6152 41H23.3848C24.5203 41 25.444 40.0763 25.444 38.9408V37.446C26.8595 37.0645 28.2143 36.5038 29.4861 35.7719L30.5424 36.8282C31.3217 37.6075 32.6772 37.606 33.4557 36.8282L36.8282 33.4557C37.2171 33.0668 37.4312 32.549 37.4312 31.9987C37.4312 31.4491 37.2171 30.932 36.8282 30.5424L35.7719 29.4861C36.503 28.2143 37.0645 26.8595 37.446 25.444H38.9408C40.0763 25.444 41 24.5203 41 23.3848V18.6145C40.9993 17.479 40.0756 16.5553 38.94 16.5553ZM39.5178 23.3848C39.5178 23.7033 39.2586 23.9625 38.94 23.9625H36.2793L36.146 24.5351C35.7601 26.1921 35.1097 27.7647 34.2105 29.2098L33.8994 29.7091L35.7801 31.5898C36.006 31.8157 36.006 32.1824 35.7801 32.4076L32.4076 35.7801C32.1824 36.0053 31.8157 36.0068 31.5898 35.7801L29.7091 33.8994L29.2098 34.2105C27.7654 35.1097 26.1929 35.7608 24.5351 36.146L23.9625 36.2793V38.94C23.9625 39.2586 23.7033 39.5178 23.3848 39.5178H18.6145C18.296 39.5178 18.0367 39.2586 18.0367 38.94V36.2793L17.4641 36.146C15.8071 35.7601 14.2346 35.1097 12.7894 34.2105L12.2902 33.8994L10.4095 35.7801C10.1828 36.0068 9.81613 36.0053 9.59169 35.7801L6.21916 32.4076C5.99324 32.1816 5.99324 31.815 6.21916 31.5898L8.09987 29.7091L7.78876 29.2098C6.88952 27.7654 6.23842 26.1929 5.85324 24.5351L5.71991 23.9625H3.05922C2.74071 23.9625 2.48145 23.7033 2.48145 23.3848V18.6145C2.48145 18.296 2.74071 18.0367 3.05922 18.0367H5.71991L5.85324 17.4641C6.23916 15.8064 6.88952 14.2338 7.78876 12.7894L8.09987 12.2902L6.21916 10.4095C5.99324 10.1835 5.99324 9.81687 6.21916 9.59169L9.59169 6.21916C9.81687 5.99398 10.1835 5.9925 10.4095 6.21916L12.2902 8.09987L12.7894 7.78876C14.2338 6.88952 15.8064 6.23842 17.4641 5.85324L18.0367 5.71991V3.05922C18.0367 2.74071 18.296 2.48145 18.6145 2.48145H23.384C23.7033 2.48145 23.9625 2.74071 23.9625 3.05922V5.71991L24.5351 5.85324C26.1921 6.23916 27.7647 6.88952 29.2098 7.78876L29.7091 8.09987L31.5898 6.21916C31.8165 5.9925 32.1831 5.99398 32.4076 6.21916L35.7801 9.59169C36.006 9.81761 36.006 10.1843 35.7801 10.4095L33.8994 12.2902L34.2105 12.7894C35.1097 14.2331 35.7608 15.8057 36.146 17.4641L36.2793 18.0367H38.94C39.2586 18.0367 39.5178 18.296 39.5178 18.6145V23.3848Z" stroke="#E9F4F9" stroke-width="0.4" mask="url(#path-7-outside-2)"/>
            <path d="M20.9997 13.4924C16.8601 13.4924 13.4924 16.8601 13.4924 20.9997C13.4924 25.1393 16.8601 28.5069 20.9997 28.5069C25.1393 28.5069 28.5069 25.1393 28.5069 20.9997C28.5069 16.8601 25.1393 13.4924 20.9997 13.4924ZM20.9997 26.8255C17.7876 26.8255 15.1739 24.2118 15.1739 20.9997C15.1739 17.7876 17.7876 15.1739 20.9997 15.1739C24.2118 15.1739 26.8255 17.7876 26.8255 20.9997C26.8255 24.2118 24.2118 26.8255 20.9997 26.8255Z" fill="#E9F4F9" stroke="#424242" stroke-width="1"/>
        </g>
    </symbol>
</svg>