<svg version="1.1" xmlns="http://www.w3.org/2000/svg" xmlns:xlink="http://www.w3.org/1999/xlink">
    <symbol id="vk" viewBox="0 0 22 12">
        <path fill-rule="evenodd" clip-rule="evenodd" d="M18.2391 7.40235C18.9215 8.06859 19.6418 8.69542 20.2538 9.42884C20.5241 9.75476 20.7801 10.0911 20.9759 10.4693C21.2534 11.007 21.0021 11.5987 20.52 11.6308L17.523 11.6294C16.75 11.6936 16.1334 11.3824 15.6149 10.8539C15.2 10.4313 14.8157 9.98146 14.4168 9.54455C14.2532 9.36598 14.082 9.19795 13.8775 9.06514C13.4683 8.79957 13.1132 8.88089 12.8794 9.30758C12.6413 9.74158 12.5873 10.2221 12.5639 10.7058C12.5318 11.4115 12.3185 11.5971 11.6096 11.6294C10.0946 11.7008 8.65685 11.4716 7.3212 10.7074C6.14364 10.0336 5.23049 9.08251 4.4357 8.00573C2.88822 5.90901 1.70316 3.60506 0.638074 1.23656C0.398331 0.702938 0.573661 0.416491 1.16244 0.406353C2.14013 0.38736 3.11769 0.388712 4.09653 0.405001C4.4939 0.410814 4.75696 0.638728 4.91039 1.01412C5.43935 2.31476 6.08659 3.55221 6.89903 4.69921C7.11538 5.00458 7.336 5.30996 7.65016 5.52489C7.99771 5.76288 8.26232 5.684 8.42582 5.29685C8.52958 5.05136 8.575 4.78694 8.59838 4.52402C8.67584 3.61946 8.68605 2.71645 8.55019 1.81507C8.46678 1.25252 8.14992 0.888339 7.58858 0.781884C7.30214 0.727609 7.34479 0.62102 7.48348 0.457519C7.72437 0.175532 7.95093 0 8.40257 0H11.7896C12.3228 0.105238 12.4412 0.344778 12.5142 0.881309L12.5171 4.64359C12.5113 4.85129 12.6209 5.46765 12.995 5.60512C13.2944 5.70299 13.4918 5.46345 13.6714 5.27359C14.4824 4.4129 15.0612 3.39573 15.5782 2.34248C15.8077 1.87935 16.005 1.39837 16.1962 0.917808C16.3379 0.561202 16.5602 0.385737 16.9619 0.39351L20.2217 0.396417C20.3183 0.396417 20.4161 0.397836 20.5097 0.413855C21.0591 0.507468 21.2096 0.743763 21.0399 1.28016C20.7726 2.12173 20.2525 2.82304 19.7439 3.5276C19.2003 4.27981 18.6189 5.00627 18.0798 5.76295C17.5845 6.45392 17.6238 6.80222 18.2391 7.40235Z"/>
    </symbol>
    
    <symbol id="tg" viewBox="0 0 18 15">
        <path d="M0.747755 7.14276L4.69005 8.61415L6.21596 13.5215C6.31359 13.8357 6.69792 13.9519 6.95302 13.7434L9.15052 11.9519C9.38086 11.7642 9.70896 11.7549 9.94969 11.9296L13.9132 14.8072C14.1861 15.0056 14.5727 14.856 14.6411 14.5263L17.5446 0.560009C17.6193 0.199804 17.2654 -0.100689 16.9224 0.0319635L0.743135 6.27344C0.343865 6.42742 0.347344 6.99271 0.747755 7.14276ZM5.97004 7.83089L13.6747 3.08555C13.8132 3.00052 13.9557 3.18775 13.8368 3.29804L7.47816 9.20869C7.25465 9.41673 7.11048 9.69516 7.06965 9.99736L6.85304 11.6025C6.82436 11.8169 6.52329 11.8381 6.46415 11.6307L5.63111 8.70363C5.5357 8.36977 5.67474 8.01316 5.97004 7.83089Z"/>
    </symbol>
    
    <symbol id="twitter" viewBox="0 0 18 14">
        <path d="M17.392 1.65654C16.7576 1.93765 16.0769 2.12829 15.3617 2.2134C16.092 1.7761 16.651 1.08247 16.916 0.258492C16.2309 0.663466 15.4748 0.95753 14.6691 1.11694C14.024 0.428689 13.1063 0 12.0884 0C10.1357 0 8.55239 1.58331 8.55239 3.53499C8.55239 3.81178 8.58363 4.08213 8.64395 4.34065C5.70569 4.19307 3.10024 2.78534 1.35644 0.64623C1.05162 1.16755 0.878213 1.775 0.878213 2.42342C0.878213 3.65023 1.50293 4.7327 2.45077 5.366C1.87129 5.34663 1.32628 5.18722 0.849148 4.92225V4.96641C0.849148 6.67897 2.06841 8.10825 3.6851 8.43355C3.38889 8.51325 3.07655 8.55741 2.75342 8.55741C2.52509 8.55741 2.30428 8.5348 2.08779 8.4917C2.53799 9.8973 3.84343 10.9194 5.39013 10.9475C4.18056 11.8953 2.65541 12.4586 0.998869 12.4586C0.713452 12.4586 0.432316 12.4414 0.155518 12.4101C1.72052 13.4151 3.57849 14.001 5.5754 14.001C12.0799 14.001 15.6353 8.61343 15.6353 3.94106L15.6235 3.4833C16.3182 2.98781 16.9192 2.36527 17.392 1.65654Z"/>
    </symbol>
    
    <symbol id="fb" viewBox="0 0 8 17">
        <path d="M1.62541 3.12077C1.62541 3.52685 1.62541 5.33936 1.62541 5.33936H0V8.05225H1.62541V16.114H4.96433V8.05247H7.20491C7.20491 8.05247 7.41475 6.75166 7.51647 5.32935C7.22484 5.32935 4.97696 5.32935 4.97696 5.32935C4.97696 5.32935 4.97696 3.75108 4.97696 3.47444C4.97696 3.1972 5.341 2.82428 5.70081 2.82428C6.05995 2.82428 6.81794 2.82428 7.51999 2.82428C7.51999 2.45491 7.51999 1.17868 7.51999 9.69082e-09C6.58277 9.69082e-09 5.51653 9.69082e-09 5.04653 9.69082e-09C1.54287 -0.000187314 1.62541 2.7154 1.62541 3.12077Z"/>
    </symbol>

    <symbol id="swiper-arrow" viewBox="0 0 14 22">
        <path d="M12 2L3 11L12 20" stroke-width="3"/>
    </symbol>

    <symbol id="link-arrow" viewBox="0 0 32 11">
        <path d="M0 5.5H30M30 5.5L25.5 1M30 5.5L25.5 10" stroke-width="2"/>
    </symbol>

    <symbol id="whats-app" viewBox="0 0 12 12">
        <path d="M12 5.84547C12 9.07387 9.3628 11.6909 6.10907 11.6909C5.07613 11.6909 4.10573 11.4269 3.26147 10.9636L0 12L1.06333 8.86373C0.526933 7.98293 0.218 6.94987 0.218 5.84547C0.218 2.61707 2.85547 0 6.10907 0C9.36307 0 12 2.61707 12 5.84547ZM6.10907 0.930933C3.37787 0.930933 1.15627 3.1356 1.15627 5.84547C1.15627 6.9208 1.5068 7.91667 2.09973 8.7268L1.48093 10.552L3.38427 9.94707C4.16627 10.4605 5.10307 10.76 6.1092 10.76C8.84 10.76 11.062 8.5556 11.062 5.84573C11.062 3.13587 8.84013 0.930933 6.10907 0.930933ZM9.08387 7.19173C9.04747 7.13213 8.95133 7.09613 8.80707 7.02453C8.66253 6.95293 7.9524 6.60613 7.8204 6.55853C7.688 6.5108 7.59147 6.4868 7.49533 6.63013C7.3992 6.7736 7.1224 7.09613 7.038 7.19173C6.95373 7.2876 6.8696 7.2996 6.72507 7.22787C6.5808 7.15627 6.1156 7.0048 5.564 6.5168C5.1348 6.13707 4.84493 5.66827 4.76067 5.52467C4.67653 5.38133 4.75187 5.30387 4.824 5.23253C4.88907 5.16827 4.96853 5.0652 5.04067 4.9816C5.11307 4.89787 5.13707 4.83827 5.18493 4.74253C5.23333 4.64693 5.2092 4.56333 5.17293 4.49147C5.13693 4.41987 4.84787 3.7148 4.7276 3.42787C4.60733 3.1412 4.4872 3.18893 4.4028 3.18893C4.31867 3.18893 4.22227 3.17693 4.126 3.17693C4.02973 3.17693 3.8732 3.2128 3.7408 3.35613C3.60853 3.4996 3.2356 3.84627 3.2356 4.5512C3.2356 5.25627 3.7528 5.93747 3.8252 6.03293C3.89733 6.1284 4.82387 7.62227 6.29187 8.196C7.76 8.76947 7.76 8.57813 8.0248 8.55413C8.28933 8.53027 8.87893 8.2076 8.99973 7.8732C9.11973 7.53827 9.11973 7.25147 9.08387 7.19173Z"/>
    </symbol>

    <symbol id="phone" viewBox="0 0 12 12">
        <path d="M11.2061 9.45151L9.4358 7.68102C9.08319 7.32983 8.49926 7.3405 8.13437 7.70552L7.24248 8.59721C7.18614 8.56615 7.12781 8.53371 7.06649 8.4993C6.50328 8.18723 5.73243 7.7595 4.92126 6.94775C4.1077 6.13428 3.67957 5.36224 3.36655 4.79866C3.33352 4.73896 3.30187 4.68139 3.27061 4.62672L3.8692 4.02903L4.16348 3.73438C4.52894 3.36883 4.53901 2.78506 4.18723 2.43285L2.41694 0.662161C2.06515 0.310441 1.48096 0.321111 1.1155 0.686663L0.616576 1.18846L0.63021 1.20199C0.462912 1.41546 0.323113 1.66167 0.219079 1.92717C0.123179 2.17989 0.0634726 2.42106 0.0361715 2.66272C-0.197584 4.60061 0.687974 6.37169 3.09126 8.77501C6.41334 12.0969 9.0905 11.8459 9.20599 11.8337C9.45753 11.8036 9.6986 11.7435 9.94358 11.6483C10.2068 11.5455 10.4528 11.4059 10.6662 11.239L10.6771 11.2487L11.1825 10.7537C11.5472 10.3882 11.5577 9.80429 11.2061 9.45151Z"/>
    </symbol>

    <symbol id="viber" viewBox="0 0 12 12">
        <path d="M10.4255 5.19357C10.4403 3.44859 8.95411 1.84889 7.11245 1.62769C7.07582 1.62334 7.03592 1.61673 6.99368 1.60974C6.9025 1.59463 6.80822 1.5791 6.71309 1.5791C6.33563 1.5791 6.23473 1.84424 6.20817 2.00237C6.18234 2.15612 6.20698 2.28524 6.28128 2.38629C6.40628 2.55626 6.62622 2.58643 6.80288 2.61061C6.85465 2.61776 6.9035 2.62441 6.9444 2.6336C8.59906 3.00333 9.15621 3.58462 9.4285 5.2252C9.43515 5.26529 9.43815 5.31469 9.44134 5.36708C9.45322 5.56318 9.47797 5.9712 9.91662 5.9712H9.91666C9.95317 5.9712 9.99242 5.96805 10.0333 5.96182C10.4418 5.89974 10.429 5.52678 10.4228 5.34759C10.4211 5.29712 10.4194 5.24938 10.4237 5.21763C10.4248 5.20964 10.4254 5.2016 10.4255 5.19357Z"/>
        <path d="M6.60595 0.987382C6.65496 0.990918 6.70136 0.994301 6.73999 1.00022C9.45709 1.41807 10.7067 2.70542 11.0529 5.44378C11.0588 5.49033 11.0597 5.5471 11.0607 5.60722C11.0642 5.82116 11.0713 6.26623 11.5492 6.27546L11.5641 6.27561C11.714 6.27561 11.8332 6.23041 11.9185 6.14116C12.0673 5.98552 12.0569 5.75432 12.0485 5.56851C12.0465 5.52293 12.0445 5.47999 12.045 5.4424C12.0796 2.64177 9.65535 0.102167 6.85722 0.00772593C6.84561 0.00734156 6.83454 0.00795656 6.82336 0.00953249C6.81786 0.0103397 6.80767 0.0113391 6.79022 0.0113391C6.76232 0.0113391 6.72799 0.00891749 6.69159 0.0064575C6.64758 0.00345937 6.59769 0 6.54711 0C6.1015 0 6.01678 0.316725 6.00594 0.50553C5.98096 0.941872 6.40308 0.972583 6.60595 0.987382Z"/>
        <path d="M10.9217 8.9827C10.8639 8.93858 10.8042 8.89291 10.7482 8.84786C10.4516 8.60913 10.136 8.38907 9.83074 8.17624C9.76739 8.13212 9.70405 8.08795 9.64093 8.04367C9.24995 7.76904 8.89843 7.63558 8.56633 7.63558C8.11904 7.63558 7.72905 7.88274 7.40718 8.37009C7.26457 8.58614 7.09157 8.69119 6.87835 8.69119C6.75228 8.69119 6.60902 8.65521 6.45262 8.58422C5.1906 8.01192 4.28944 7.13447 3.7741 5.97624C3.52499 5.41643 3.60575 5.05051 4.04417 4.7527C4.29313 4.58372 4.75653 4.26915 4.7237 3.66676C4.68653 2.98269 3.17717 0.9244 2.54122 0.690623C2.27197 0.591608 1.98907 0.590686 1.69886 0.688317C0.967784 0.934086 0.443151 1.3657 0.181545 1.93642C-0.0712579 2.48788 -0.059842 3.1354 0.214563 3.80898C1.00784 5.75645 2.12314 7.45439 3.5296 8.85555C4.90628 10.2272 6.59834 11.3507 8.55872 12.1948C8.73542 12.2708 8.92077 12.3123 9.05611 12.3426C9.10223 12.3529 9.14205 12.3618 9.17107 12.3697C9.18702 12.3741 9.20347 12.3764 9.21996 12.3766L9.23545 12.3767C9.23549 12.3767 9.23545 12.3767 9.23553 12.3767C10.1576 12.3767 11.2647 11.5341 11.6047 10.5736C11.9026 9.73246 11.3587 9.31672 10.9217 8.9827Z"/>
        <path d="M7.01353 3.21176C6.85567 3.21576 6.52714 3.22391 6.41187 3.55851C6.35794 3.71487 6.3644 3.85063 6.43109 3.96202C6.52895 4.12546 6.71645 4.17554 6.88699 4.20303C7.50549 4.30227 7.82314 4.64429 7.88667 5.27928C7.91619 5.57536 8.11557 5.78211 8.37156 5.78211H8.3716C8.39051 5.78211 8.40985 5.781 8.4291 5.77866C8.73699 5.74202 8.88624 5.51582 8.87275 5.10638C8.87767 4.67907 8.65404 4.19395 8.2737 3.80754C7.89206 3.41994 7.432 3.20165 7.01353 3.21176Z"/>
    </symbol>
</svg>