<svg xmlns="http://www.w3.org/2000/svg" viewBox="0 0 273.04 396.14"><defs><style>.cls-1{fill:#222221;}</style></defs><g id="Слой_2" data-name="Слой 2"><g id="Слой_1-2" data-name="Слой 1"><path class="cls-1" d="M67.38,9a13.41,13.41,0,0,0-10.75,5.34V0H47.47V44.66h9.16V40.19a13.54,13.54,0,0,0,10.75,5.34c8.8,0,15.44-6.64,15.44-18.26C82.82,15.87,76.26,9,67.38,9ZM64.5,37.37a10.21,10.21,0,0,1-7.87-3.89V21.14a10.11,10.11,0,0,1,7.87-4c5.33,0,8.87,4.11,8.87,10.17S69.83,37.37,64.5,37.37Z"/><polygon class="cls-1" points="234.63 29 235.92 0.02 235.92 0 225.2 0 226.55 29 234.63 29"/><path class="cls-1" d="M169.77,9a14.77,14.77,0,0,0-12,6.35c-1.3-4-4.55-6.35-9.67-6.35-5.34,0-10,3.32-11.4,5.41V9.81h-9.16V44.66h9.16V21.21A9.34,9.34,0,0,1,144,17.1c3.75,0,5.19,2.31,5.19,5.56v22h9.24V21.14a9.21,9.21,0,0,1,7.21-4c3.75,0,5.2,2.31,5.2,5.56v22H180V19.48C180,12.34,176.2,9,169.77,9Z"/><path class="cls-1" d="M230.59,45.38a5.81,5.81,0,1,0-5.77-5.77A5.83,5.83,0,0,0,230.59,45.38Z"/><path class="cls-1" d="M104.66,9c-10.61,0-18,8.15-18,18.25,0,11.18,8,18.33,18.61,18.33,5.41,0,10.9-1.66,14.36-4.84l-5.07-5.07a15.54,15.54,0,0,1-8.27,2.62c-5.92,0-9.45-3.68-10-8.08h25.9v-2C122.12,16.74,115.05,9,104.66,9ZM96.07,24c.43-3.47,2.89-7.73,8.59-7.73,6.06,0,8.37,4.41,8.58,7.73Z"/><path class="cls-1" d="M202.71,9a22.87,22.87,0,0,0-15.22,5.48h0l4.93,4.92a14.41,14.41,0,0,1,8.71-2.9c4.61,0,7.64,2.31,7.64,5.84V27c-2.3-2.74-6.42-4.25-11-4.25-5.56,0-12.13,3.1-12.13,11.25,0,7.79,6.57,11.55,12.13,11.55,4.54,0,8.65-1.66,11-4.48v3.61h9.17V22.15C217.94,12.12,210.65,9,202.71,9Zm6.06,27.34c-1.51,2-4.4,3-7.35,3-3.61,0-6.57-1.87-6.57-5.12s3-5.27,6.57-5.27c3,0,5.84,1,7.35,3Z"/><path class="cls-1" d="M67.38,59a13.44,13.44,0,0,0-10.75,5.34V50.09H47.47V72.42c-4.92,15.66-25.92,16.66-34.92,30.66,7-4,14-8,20-13,0,1-1,2-2,3,14-2,27-6,40.87-5.15,9.74-.2,11.4-4.76,11.4-10.57C82.82,66,76.26,59,67.38,59ZM52.72,85.47c-5,.15-6-.79-2.06-2.46l6-11.78a10.11,10.11,0,0,1,7.87-4c5.33,0,8.87,4.11,8.87,10.17,0,3-1.64,5.32-6,6.37A78.49,78.49,0,0,1,52.72,85.47Z"/><polygon class="cls-1" points="226.55 79.09 234.63 79.09 235.92 50.1 235.92 50.09 225.2 50.09 226.55 79.09"/><path class="cls-1" d="M169.77,59a14.8,14.8,0,0,0-12,6.35c-1.3-4-4.55-6.35-9.67-6.35-5.34,0-10,3.32-11.4,5.42V59.9h-9.16V94.75h9.16V71.3A9.34,9.34,0,0,1,144,67.19c3.75,0,5.19,2.31,5.19,5.55v22h9.24V71.23a9.21,9.21,0,0,1,7.21-4c3.75,0,5.2,2.31,5.2,5.55v22H180V69.57C180,62.43,176.2,59,169.77,59Z"/><path class="cls-1" d="M230.59,83.85a5.81,5.81,0,1,0,5.84,5.85A5.91,5.91,0,0,0,230.59,83.85Z"/><path class="cls-1" d="M104.66,59c-10.61,0-18,8.16-18,18.26,0,11.18,8,18.32,18.61,18.32,5.41,0,10.9-1.66,14.36-4.83l-5.07-5.07a15.63,15.63,0,0,1-8.27,2.62c-5.92,0-9.45-3.68-10-8.08h25.9v-2C122.12,66.83,115.05,59,104.66,59ZM96.07,74c.43-3.46,2.89-7.72,8.59-7.72,6.06,0,8.37,4.4,8.58,7.72Z"/><path class="cls-1" d="M202.71,59a22.88,22.88,0,0,0-15.22,5.49h0l4.93,4.92a14.41,14.41,0,0,1,8.71-2.9c4.61,0,7.64,2.31,7.64,5.84v4.69c-2.3-2.74-6.42-4.26-11-4.26-5.56,0-12.13,3.11-12.13,11.26,0,7.79,6.57,11.54,12.13,11.54,4.54,0,8.65-1.66,11-4.47v3.61h9.17V72.24C217.94,62.21,210.65,59,202.71,59Zm6.06,27.35c-1.51,2-4.4,3-7.35,3-3.61,0-6.57-1.88-6.57-5.12,0-3.39,3-5.27,6.57-5.27,3,0,5.84,1,7.35,3Z"/><path class="cls-1" d="M17.46,111.08c-6.91,6-10.91,15-12.91,24,1-10,5-19,9-28-17,12-18,41-3,57,6,6,15,11,24,8-4-4-10-7-11-10-8-18-1-38,10-56,1-2,0-3-1.94-2.66C29.25,103.14,24.16,105.33,17.46,111.08Zm-1.09,39.07c-.82,3.93,1.18,7.93-.82,10.93-10-11-14-31,1-40,0,5,0,10-.29,15.38A130.83,130.83,0,0,0,16.37,150.15Z"/><polygon class="cls-1" points="234.63 129.18 235.92 100.19 235.92 100.17 225.2 100.17 226.55 129.18 234.63 129.18"/><path class="cls-1" d="M169.77,109.12a14.8,14.8,0,0,0-12,6.35c-1.3-4-4.55-6.35-9.67-6.35-5.34,0-10,3.32-11.4,5.41V110h-9.16v34.85h9.16V121.39a9.34,9.34,0,0,1,7.22-4.11c3.75,0,5.19,2.3,5.19,5.55v22h9.24V121.31a9.23,9.23,0,0,1,7.21-4c3.75,0,5.2,2.3,5.2,5.55v22H180V119.66C180,112.51,176.2,109.12,169.77,109.12Z"/><path class="cls-1" d="M230.59,133.94a5.81,5.81,0,1,0,5.84,5.84A5.91,5.91,0,0,0,230.59,133.94Z"/><path class="cls-1" d="M102.67,106.77c-18.12-9.69-48.12-16.69-63.12,1.31,30-6,60,6,79,30-9-22-35-27-55-36,20,1,38,12,53.1,25.06a23.3,23.3,0,0,0,5.47,3.19v-2c0-5.7-1.77-10.49-4.84-13.87S109.85,109.12,102.67,106.77ZM67,100.23c16.54-.15,34.54,4.85,44.54,19.85-11-8-23-16-37.26-18.58C69.89,100.6,67,100.23,67,100.23Z"/><path class="cls-1" d="M202.71,109.12a22.87,22.87,0,0,0-15.22,5.48h0l4.93,4.92a14.35,14.35,0,0,1,8.71-2.91c4.61,0,7.64,2.31,7.64,5.85v4.69c-2.3-2.74-6.42-4.26-11-4.26-5.56,0-12.13,3.1-12.13,11.26,0,7.79,6.57,11.54,12.13,11.54,4.54,0,8.65-1.66,11-4.47v3.6h9.17v-22.5C217.94,112.3,210.65,109.12,202.71,109.12Zm6.06,27.35c-1.51,2-4.4,3-7.35,3-3.61,0-6.57-1.88-6.57-5.13s3-5.26,6.57-5.26c3,0,5.84,1,7.35,3Z"/><path class="cls-1" d="M28.8,142.93c3.75,8.15,3.75,10.15,1.75,19.15,0,3,5,6,9,7,1-20,16-41,38-27,2-6-6-6-9-9,6,3,12,5,19,5-4-14-19-18-31-18-10,0-20,4-24.81,12.71A19.13,19.13,0,0,0,28.8,142.93ZM66.06,129.4c-10.51,2.68-20.51,8.68-29.51,15.68-7-12,8-19,17.21-19.81C65.11,124.9,69.84,127.81,66.06,129.4Z"/><polygon class="cls-1" points="234.63 179.27 235.92 150.28 235.92 150.26 225.2 150.26 226.55 179.27 234.63 179.27"/><path class="cls-1" d="M169.77,159.21a14.77,14.77,0,0,0-12,6.35c-1.3-4-4.55-6.35-9.67-6.35-5.34,0-10,3.32-11.4,5.41v-4.55h-9.16v34.85h9.16V171.47c1.37-1.94,4-4.11,7.22-4.11,3.75,0,5.19,2.31,5.19,5.56v22h9.24V171.4a9.24,9.24,0,0,1,7.21-4c3.75,0,5.2,2.31,5.2,5.56v22H180V169.74C180,162.6,176.2,159.21,169.77,159.21Z"/><path class="cls-1" d="M230.59,184a5.81,5.81,0,1,0,5.84,5.84A5.91,5.91,0,0,0,230.59,184Z"/><path class="cls-1" d="M93.44,122.56c-8.89-4.48-17.89-10.48-27.89-7.48,27,14,46,40,44.87,72,.32,8.59,5.71,7.08,9.17,3.91l-3.84-8c-5.2-16.91-8.2-32.91-18.2-47.91,12,11,14,27,21.69,41.24a21.34,21.34,0,0,0,2.88,4.1v-2a59.83,59.83,0,0,0-1-9.66c-2.53-13.66-7.53-28.66-18.86-39A58.74,58.74,0,0,0,93.44,122.56Zm-4.26,2.75a5.94,5.94,0,0,0-1.63-2.23c14,7,26,21,28,37-3-12-12-22-21.3-30.82C91.27,126.76,89.18,125.31,89.18,125.31Z"/><path class="cls-1" d="M202.71,159.21a22.87,22.87,0,0,0-15.22,5.48h0l4.93,4.93a14.35,14.35,0,0,1,8.71-2.91c4.61,0,7.64,2.31,7.64,5.85v4.68c-2.3-2.74-6.42-4.25-11-4.25-5.56,0-12.13,3.1-12.13,11.25,0,7.8,6.57,11.55,12.13,11.55,4.54,0,8.65-1.66,11-4.47v3.6h9.17V172.41C217.94,162.38,210.65,159.21,202.71,159.21Zm6.06,27.34c-1.51,2-4.4,3-7.35,3-3.61,0-6.57-1.87-6.57-5.12s3-5.27,6.57-5.27c3,0,5.84,1,7.35,3Z"/><path class="cls-1" d="M67.38,259.38a13.44,13.44,0,0,0-10.75,5.34V250.43H47.47V295.1h9.16v-4.48A13.51,13.51,0,0,0,67.38,296c8.8,0,15.44-6.64,15.44-18.25C82.82,266.31,76.26,259.38,67.38,259.38ZM64.5,287.81a10.19,10.19,0,0,1-7.87-3.9V271.57a10.13,10.13,0,0,1,7.87-4c5.33,0,8.87,4.11,8.87,10.17S69.83,287.81,64.5,287.81Z"/><path class="cls-1" d="M205.22,317.54c.33-2.46,1.33-4.46.33-6.46-13-16-10-37,0-53-19,9-16,38-5.59,53.6A45,45,0,0,0,205.22,317.54Z"/><path class="cls-1" d="M169.77,259.38a14.8,14.8,0,0,0-12,6.35c-1.3-4-4.55-6.35-9.67-6.35-5.34,0-10,3.32-11.4,5.41v-4.54h-9.16V295.1h9.16V271.65a9.34,9.34,0,0,1,7.22-4.11c3.75,0,5.19,2.3,5.19,5.55v22l9.16.37s.08-6.25.08-12.13V271.57a9.23,9.23,0,0,1,7.21-4c3.75,0,4.16,3.87,3.26,8.81-3.3,18.73-3.3,38.73,11.7,52.73-10-20-9-43-5.29-64.56C175.4,260.4,173,259.38,169.77,259.38Z"/><path class="cls-1" d="M211.64,318.23c.25,2.46,4,5.41,8.55,5.66s7.74-2.42,6.71-4.76-5.37-3.72-9.05-4.09S211.39,315.77,211.64,318.23Z"/><path class="cls-1" d="M104.66,259.38c-10.61,0-18,8.16-18,18.25,0,11.19,8,18.33,18.61,18.33,5.41,0,10.9-1.66,14.36-4.83l-5.07-5.07a15.63,15.63,0,0,1-8.27,2.62c-5.92,0-9.45-3.68-10-8.09h25.9v-2C122.12,267.17,115.05,259.38,104.66,259.38Zm-8.59,15c.43-3.46,2.89-7.72,8.59-7.72,6.06,0,8.37,4.4,8.58,7.72Z"/><path class="cls-1" d="M182.34,280.23c-.79-1.15-2.79-3.15-3.79-3.15-5,6-2,14-1,21,0-1,1-1,1-2,8,6,10,17,16,25-6-4-8-13-17-14,0,18,19,38,37,30,2-1,1-2,0-3,5,4,9-1,11-5-21-1-36-18-39.6-37.91A75.48,75.48,0,0,0,182.34,280.23Zm25.59,51.13c-.38.72.62.72.62,1.72-8,3-19-3-20-11,5,0,8,4,13,5.32Z"/><path class="cls-1" d="M67.38,309.47a13.41,13.41,0,0,0-10.75,5.34V300.52H47.47v44.66h9.16v-4.47a13.54,13.54,0,0,0,10.75,5.34c8.8,0,15.44-6.64,15.44-18.25C82.82,316.39,76.26,309.47,67.38,309.47ZM64.5,337.89A10.18,10.18,0,0,1,56.63,334V321.66a10.11,10.11,0,0,1,7.87-4c5.33,0,8.87,4.11,8.87,10.18S69.83,337.89,64.5,337.89Z"/><path class="cls-1" d="M256.14,304.89c-9.59-3.81-19.59.19-25.59,8.19-2,2,2,5,3,8,7-5,15-8,23.91-6.73Z"/><path class="cls-1" d="M173.15,329.64c-4.6-4.56-8.6-10.56-15.24-12.3-1.41-5.22-4.66-7.87-9.78-7.87-5.34,0-10,3.32-11.4,5.41v-4.54h-9.16v34.84h9.16V321.73c1.37-1.94,4-4.11,7.22-4.11,3.75,0,5.19,2.31,5.19,5.56v22h9.24V333.42c.17-3.34.17-7.34.17-10.34,9,4,25,18,16,28,7,3,16,12,21,7,7-8-9-15-15-21A86.79,86.79,0,0,1,173.15,329.64Z"/><path class="cls-1" d="M104.66,309.47c-10.61,0-18,8.15-18,18.25,0,11.19,8,18.33,18.61,18.33,5.41,0,10.9-1.66,14.36-4.83l-5.07-5.07a15.61,15.61,0,0,1-8.27,2.61c-5.92,0-9.45-3.68-10-8.08h25.9v-2C122.12,317.26,115.05,309.47,104.66,309.47Zm-8.59,15c.43-3.47,2.89-7.72,8.59-7.72,6.06,0,8.37,4.4,8.58,7.72Z"/><path class="cls-1" d="M230.21,341.16c-5.66,4.92-13.66,5.92-20.66,9.92,15,4,23-8,36-14,1,0,3,0,4,1-11,8-22,14-35,18-2,1-5,3-4,4,15,9,32,0,42-12,0,1-1,2-1,3,10-7,14-20,1-27-4-2-8,2-10.15,5.63A61.38,61.38,0,0,1,230.21,341.16ZM252,343.87c-5.47,6.21-12.47,14.21-21.47,13.21,5-8,14-11,20.59-16.14Z"/><path class="cls-1" d="M67.38,359.56a13.43,13.43,0,0,0-10.75,5.33V350.61H47.47v44.66h9.16V390.8a13.54,13.54,0,0,0,10.75,5.34c8.8,0,15.44-6.64,15.44-18.26C82.82,366.48,76.26,359.56,67.38,359.56ZM64.5,388a10.21,10.21,0,0,1-7.87-3.89V371.75a10.11,10.11,0,0,1,7.87-4c5.33,0,8.87,4.11,8.87,10.17S69.83,388,64.5,388Z"/><path class="cls-1" d="M248.77,378.4c15.78-12.32,26.78-31.32,23.78-51.32-9,19-12,42-32.89,53Z"/><path class="cls-1" d="M169.77,359.56a14.77,14.77,0,0,0-12,6.35c-1.3-4-4.55-6.35-9.67-6.35-5.34,0-10,3.31-11.4,5.41v-4.55h-9.16v34.85h9.16V371.82a9.34,9.34,0,0,1,7.22-4.11c3.75,0,5.19,2.31,5.19,5.56v22h9.24V371.75a9.21,9.21,0,0,1,7.21-4c3.75,0,5.2,2.31,5.2,5.56v22H180V370.09C181.78,364.63,177.48,361,169.77,359.56Z"/><path class="cls-1" d="M234.16,384.46c-3.63.11-9.34,2.58-9.34,5.76a5.83,5.83,0,0,0,5.77,5.77,5.89,5.89,0,0,0,5.84-5.77C236.43,387,237.8,384.35,234.16,384.46Z"/><path class="cls-1" d="M104.66,359.56c-10.61,0-18,8.15-18,18.25,0,11.18,8,18.33,18.61,18.33,5.41,0,10.9-1.66,14.36-4.84l-5.07-5.07a15.63,15.63,0,0,1-8.27,2.62c-5.92,0-9.45-3.68-10-8.08h25.9v-2C122.12,367.35,115.05,359.56,104.66,359.56Zm-8.59,15c.43-3.46,2.89-7.72,8.59-7.72,6.06,0,8.37,4.4,8.58,7.72Z"/><path class="cls-1" d="M232.07,368.92c-12.52,3.16-25.52,2.16-38.52,1.16,11,8,24,1,35,5-4,2-8,5-12,4-9-2-18-5-26.9-3.14a10.19,10.19,0,0,0-4,8.65c0,7.79,6.57,11.55,12.13,11.55,4.54,0,8.65-1.66,11-4.48v3.61h9.17a56.41,56.41,0,0,1,1.24-11c10.37-4.16,23.37-7.16,27.93-18.49C245.05,365.36,239.51,367.11,232.07,368.92Zm-23.3,18c-1.51,2-4.4,3-7.35,3-3.61,0-6.57-1.87-6.57-5.12s3-5.27,7-5.06c4.16.43,7.25,1.43,7.11,2.89Z"/><path class="cls-1" d="M99.27,174.73c.28.35-.72-.65-.72-.65-2,5-4,10-5,16,4-14,1-30-6-43,13,33-2,72-38.38,83.41a24.34,24.34,0,0,0-1.7,7.54v7h9.16v-4.47a13.54,13.54,0,0,0,10.75,5.34c8.8,0,15.44-6.64,15.44-18.26,0-2.85.21-5.78,3.88-11.08,6.85-10.46,11.85-21.46,13.15-33.44C100.2,178.89,99.9,175.93,99.27,174.73Zm-34.77,63a10.21,10.21,0,0,1-7.87-3.89s2.63-4,10.48-9.73c10.44-6,15.44-17,24.44-23-4,10-12,18-18.18,26.54C73.37,233.68,69.83,237.72,64.5,237.72Z"/><polygon class="cls-1" points="234.63 229.35 235.92 200.36 235.92 200.35 225.2 200.35 226.55 229.35 234.63 229.35"/><path class="cls-1" d="M169.77,209.3a14.77,14.77,0,0,0-12,6.35c-1.3-4-4.55-6.35-9.67-6.35-5.34,0-10,3.31-11.4,5.41v-4.55h-9.16V245h9.16V221.56a9.34,9.34,0,0,1,7.22-4.11c3.75,0,5.19,2.31,5.19,5.56v22h9.24V221.49a9.21,9.21,0,0,1,7.21-4c3.75,0,5.2,2.31,5.2,5.56v22H180V219.83C180,212.69,176.2,209.3,169.77,209.3Z"/><path class="cls-1" d="M230.59,234.12c-3.18,0-6.05,2.69-13.2,7.75-1.84,4.21-8.84,3.21-8.84,9.21,6-3,13-7,18.67-10.22C235.36,236.77,233.77,234.12,230.59,234.12Z"/><path class="cls-1" d="M104.66,209.3c-4.86-.43-6.83-.65-11.21,3.8s-6.83,9.4-6.83,14.45c0,11.18,8,18.32,18.61,18.32,5.41,0,10.9-1.65,14.36-4.83L114.52,236a15.63,15.63,0,0,1-8.27,2.62c-5.92,0-9.45-3.68-10-8.08h25.9v-2c0-5.7-1.77-10.5-4.84-13.87A16.58,16.58,0,0,0,104.66,209.3Zm-8.59,15c.43-3.46,2.89-7.72,8.59-7.72,6.06,0,8.37,4.4,8.58,7.72Z"/><path class="cls-1" d="M202.71,209.3a22.87,22.87,0,0,0-15.22,5.48h0l4.93,4.92a14.41,14.41,0,0,1,8.71-2.9c4.61,0,7.64,2.31,7.64,5.84v4.69c-2.3-2.74-6.42-4.26-11-4.26-5.56,0-12.13,3.11-12.13,11.26,0,7.79,6.57,11.55,10.62,12.34,4.32-.59,8.32-.59,10.32-4.59l-6,6,3,3c4-6,11-10,14.39-17.33V222.5C217.94,212.47,210.65,209.3,202.71,209.3Zm6.06,27.34c-1.51,2-4.4,3-7.35,3-3.61,0-6.57-1.88-6.57-5.12,0-3.39,3-5.27,6.57-5.27,3,0,5.84,1,7.35,3Z"/></g></g></svg>