<svg xmlns="http://www.w3.org/2000/svg" viewBox="0 0 841.89 202.84"><defs><style>.cls-1{fill:#fff;}</style></defs><g id="Слой_2" data-name="Слой 2"><g id="Слой_1-2" data-name="Слой 1"><path class="cls-1" d="M40.82,149.15v-55c6.75-10.28,21.86-18,35-18,23.78,0,39.53,18.32,39.53,45.32s-15.75,45-39.53,45c-13.18,0-28.29-7.39-35-17.36M0,0V199H40.82V179c12.22,15.44,29.26,23.8,47.9,23.8,39.21,0,68.78-29.58,68.78-81.33,0-50.79-29.24-81.65-68.78-81.65-18.32,0-35.68,8-47.9,23.79V0Z"/><polygon class="cls-1" points="791.82 0 797.85 129.23 833.85 129.23 839.6 0.07 839.6 0 791.82 0"/><path class="cls-1" d="M491.56,68.15c-5.79-17.68-20.26-28.29-43.08-28.29-23.78,0-44.36,14.79-50.78,24.11V43.72H356.86V199H397.7V94.5c6.1-8.67,18-18.31,32.14-18.31,16.71,0,23.14,10.28,23.14,24.75v98h41.15V94.18c5.78-8.35,17.67-18,32.14-18,16.72,0,23.15,10.28,23.15,24.75v98h41.14V86.8c0-31.83-17-46.94-45.65-46.94-23.79,0-44.35,14.15-53.35,28.29"/><path class="cls-1" d="M790.14,176.47a26,26,0,0,0,25.72,25.72c14.14,0,26-11.89,26-25.72a26.34,26.34,0,0,0-26-26c-14.15,0-25.72,11.89-25.72,26"/><path class="cls-1" d="M298.73,158.71c-10.36,7.36-25.51,11.66-36.86,11.66-26.37,0-42.1-16.39-44.68-36H332.58v-9c0-50.79-31.5-85.51-77.79-85.51-47.25,0-80.36,36.33-80.36,81.32,0,49.83,35.68,81.65,82.93,81.65,24.11,0,48.53-7.39,64-21.53ZM254.79,72.33c27,0,37.29,19.6,38.25,34.4h-76.5C218.47,91.3,229.4,72.33,254.79,72.33Z"/><path class="cls-1" d="M691.66,39.86c-24.43,0-48.86,7.72-67.82,24.43h0l21.94,21.94a64.14,64.14,0,0,1,38.81-12.94c20.56,0,34.07,10.28,34.07,26v20.89c-10.28-12.21-28.6-19-49.18-19-24.75,0-54,13.83-54,50.16,0,34.7,29.25,51.43,54,51.43,20.25,0,38.58-7.4,49.18-19.93V199h40.83V98.7C759.49,54,727,39.86,691.66,39.86Zm27,121.83c-6.75,9-19.6,13.5-32.79,13.5-16.07,0-29.24-8.36-29.24-22.82,0-15.11,13.17-23.47,29.24-23.47,13.19,0,26,4.5,32.79,13.5Z"/></g></g></svg>