<svg xmlns="http://www.w3.org/2000/svg" viewBox="0 0 1372.34 147.03"><defs><style>.cls-1{fill:#fff;}</style></defs><g id="Слой_2" data-name="Слой 2"><g id="Режим_изоляции" data-name="Режим изоляции"><polygon class="cls-1" points="1203.03 74.36 1171.99 56.44 1171.99 92.28 1203.03 74.36"/><path class="cls-1" d="M56.26,145,0,2H23.54L67.43,116.41,111.42,2h23.44L78.7,145Z"/><path class="cls-1" d="M193.06,115.26q11.22,11.42,26.54,11.42t26.53-11.47a37.74,37.74,0,0,0,11.22-27.33V2h22.54V87.88q0,24.54-17.6,41.84T219.6,147q-25.09,0-42.7-17.36T159.3,87.88V2h22.54V87.88A37.68,37.68,0,0,0,193.06,115.26Z"/><path class="cls-1" d="M318.6,2h50.07q29.82,0,51.17,21.14t21.35,50.37q0,29.24-21.35,50.38T368.67,145H318.6Zm50.07,20.44H341V124.58h27.63a47.77,47.77,0,0,0,35.41-14.81Q418.65,95,418.64,73.51T404.08,37.26A47.78,47.78,0,0,0,368.67,22.44Z"/><path class="cls-1" d="M505.47,115.26q11.24,11.42,26.54,11.42t26.53-11.47a37.74,37.74,0,0,0,11.22-27.33V2H592.3V87.88q0,24.54-17.6,41.84T532,147q-25.1,0-42.7-17.36t-17.6-41.79V2h22.54V87.88A37.68,37.68,0,0,0,505.47,115.26Z"/><path class="cls-1" d="M643.38,124.49a12.8,12.8,0,0,1,4,9.32,12.66,12.66,0,0,1-4,9.28,13,13,0,0,1-18.66,0,12.62,12.62,0,0,1-4-9.28,13.2,13.2,0,0,1,22.65-9.32Z"/><path class="cls-1" d="M786.22,104.14a15.49,15.49,0,0,0-4.19-11,29,29,0,0,0-10.83-7,133.05,133.05,0,0,0-14.71-4.59,158.83,158.83,0,0,1-16.16-5,78.83,78.83,0,0,1-14.71-7.18A31.5,31.5,0,0,1,714.8,57.41q-4.2-7.74-4.19-18.61,0-16.56,12.66-27.68T757.59,0A59.76,59.76,0,0,1,772.9,1.94a55.33,55.33,0,0,1,12.17,4.59,81.15,81.15,0,0,1,8.48,5.29,35.23,35.23,0,0,1,5.33,4.54l1.6,2L786.22,32.72a17.4,17.4,0,0,1-1.15-1.35,22.54,22.54,0,0,0-3.39-3A41.73,41.73,0,0,0,776,24.69a36.27,36.27,0,0,0-8-2.94,40.64,40.64,0,0,0-10.42-1.3q-11.07,0-17.81,5.48T733.05,38.8a15.62,15.62,0,0,0,4.19,11.07,28.4,28.4,0,0,0,10.82,7,133.73,133.73,0,0,0,14.71,4.59,165.48,165.48,0,0,1,16.16,5,76.69,76.69,0,0,1,14.72,7.13,31.43,31.43,0,0,1,10.82,12q4.18,7.78,4.19,18.56,0,18.94-13.57,30.92t-37.5,12A72,72,0,0,1,739,144.68a61.3,61.3,0,0,1-14.51-5.58,80.83,80.83,0,0,1-9.87-6.53,45.59,45.59,0,0,1-6.09-5.49l-2-2.5,14.26-14.26c.27.4.71,1,1.35,1.75a42.15,42.15,0,0,0,4.29,4,42.74,42.74,0,0,0,7.23,5A46.74,46.74,0,0,0,744,124.93a51.56,51.56,0,0,0,13.62,1.75q13.26,0,20.94-6.48A20.23,20.23,0,0,0,786.22,104.14Z"/><path class="cls-1" d="M839.28,2h57.16q20.44,0,34.26,13.41A43.78,43.78,0,0,1,944.52,48,43.61,43.61,0,0,1,930.7,80.6Q916.89,94,896.44,94H861.72V145H839.28Zm57.16,20.44H861.72V73.51h34.72a24.85,24.85,0,0,0,18-7.33A24.38,24.38,0,0,0,922,48a25.39,25.39,0,0,0-25.53-25.59Z"/><path class="cls-1" d="M948.51,145,1007.76,2h22.44l59.25,143H1066l-15.36-37.8H987.31L972,145ZM1019,27.53,995.49,86.78h47Z"/><path class="cls-1" d="M1181.42,0a76,76,0,0,1,20.85,2.84,64.93,64.93,0,0,1,16.5,6.93,113.1,113.1,0,0,1,11.42,8.08,48.61,48.61,0,0,1,7.19,6.89l2.19,2.79-14.26,14.36c-.4-.53-1-1.28-1.75-2.24a60.62,60.62,0,0,0-5.24-5.24,50.44,50.44,0,0,0-8.77-6.53,60.08,60.08,0,0,0-12.22-5.09,53.34,53.34,0,0,0-15.91-2.34q-22.25,0-37.71,15.41t-15.46,37.65q0,22.24,15.41,37.71t37.76,15.46a54.35,54.35,0,0,0,16-2.34,50.63,50.63,0,0,0,12.67-5.64,90.94,90.94,0,0,0,8.87-6.53,47.23,47.23,0,0,0,5.74-5.54l1.59-2.49,14.37,14.36a35.07,35.07,0,0,1-2.45,3.14,78.2,78.2,0,0,1-7.28,6.84,83.59,83.59,0,0,1-12,8.67,79.13,79.13,0,0,1-37.55,9.88q-32.13,0-53.87-21.35t-21.74-52.17q0-30.81,21.74-52.16T1181.42,0Z"/><path class="cls-1" d="M1291.64,124.58h80.7V145H1269.2V2h101.14V22.44h-78.7V60.25H1354V80.7h-62.34Z"/></g></g></svg>