<svg width="64" height="64" viewBox="0 0 64 64" xmlns="http://www.w3.org/2000/svg">
    <path fill-rule="evenodd" clip-rule="evenodd" d="M32 64C49.6731 64 64 49.6731 64 32C64 14.3269 49.6731 0 32 0C14.3269 0 0 14.3269 0 32C0 49.6731 14.3269 64 32 64ZM28.206 41.9688C26.8929 41.5421 26.1743 40.1317 26.6009 38.8186L34.0568 15.8717C34.4835 14.5586 35.8939 13.8399 37.207 14.2666C38.5202 14.6933 39.2388 16.1036 38.8121 17.4168L31.3562 40.3637C30.9295 41.6768 29.5192 42.3955 28.206 41.9688ZM40.9631 19.0375C41.8408 17.9717 43.4164 17.8193 44.4822 18.697L54.6699 27.0868C55.2465 27.5617 55.5806 28.2696 55.5806 29.0167C55.5806 29.7637 55.2465 30.4716 54.6699 30.9465L44.4822 39.3364C43.4164 40.2141 41.8408 40.0616 40.9631 38.9958C40.0854 37.93 40.2378 36.3544 41.3036 35.4767L49.148 29.0167L41.3036 22.5566C40.2378 21.6789 40.0854 20.1033 40.9631 19.0375ZM20.3269 18.697C21.3927 17.8193 22.9683 17.9717 23.846 19.0375C24.7238 20.1033 24.5713 21.6789 23.5055 22.5566L15.6611 29.0167L23.5055 35.4767C24.5713 36.3544 24.7238 37.93 23.846 38.9958C22.9683 40.0616 21.3927 40.2141 20.3269 39.3364L10.1392 30.9465C9.56259 30.4716 9.22852 29.7637 9.22852 29.0167C9.22852 28.2696 9.56259 27.5617 10.1392 27.0868L20.3269 18.697ZM35.0003 50C35.0003 51.6569 33.6571 53 32.0003 53C30.3434 53 29.0003 51.6569 29.0003 50C29.0003 48.3432 30.3434 47 32.0003 47C33.6571 47 35.0003 48.3432 35.0003 50ZM22.0003 53C23.6571 53 25.0003 51.6569 25.0003 50C25.0003 48.3432 23.6571 47 22.0003 47C20.3434 47 19.0003 48.3432 19.0003 50C19.0003 51.6569 20.3434 53 22.0003 53ZM45.0003 50C45.0003 51.6569 43.6571 53 42.0003 53C40.3434 53 39.0003 51.6569 39.0003 50C39.0003 48.3432 40.3434 47 42.0003 47C43.6571 47 45.0003 48.3432 45.0003 50Z"/>
</svg>
