<svg width="123" height="123" viewBox="0 0 123 123" fill="none" xmlns="http://www.w3.org/2000/svg">
<circle cx="61.5" cy="61.5" r="61.5" fill="black"/>
<path d="M50.5 80C50.1022 80 49.7207 79.842 49.4393 79.5607C49.158 79.2794 49 78.8978 49 78.5V45.4998C49 45.2391 49.068 44.9829 49.1972 44.7566C49.3264 44.5302 49.5123 44.3414 49.7367 44.2087C49.9611 44.0761 50.2162 44.0042 50.4768 44.0002C50.7375 43.9962 50.9946 44.0601 51.223 44.1857L81.2235 60.6859C81.4586 60.8153 81.6548 61.0056 81.7914 61.2367C81.9279 61.4678 82 61.7314 82 61.9999C82 62.2683 81.9279 62.5319 81.7914 62.763C81.6548 62.9942 81.4586 63.1844 81.2235 63.3139L51.223 79.814C51.0016 79.9359 50.7528 79.9999 50.5 80Z" fill="#F2F2F2"/>
</svg>
