<svg version="1.1" id="Capa_1" xmlns="http://www.w3.org/2000/svg" xmlns:xlink="http://www.w3.org/1999/xlink" x="0px" y="0px"
	viewBox="0 0 512.002 512.002" style="enable-background:new 0 0 512.002 512.002;" xml:space="preserve">
	<rect x="44.552" y="392.627" transform="matrix(-0.7071 -0.7071 0.7071 -0.7071 -213.6818 812.5942)" style="fill:none;" width="33.801" height="115.849"/>
	<path style="fill:none;" d="M107.073,434.689l-29.756-29.756c-4.984-4.984-4.984-13.065,0-18.048l35.32-35.32l47.805,47.805
		l-35.32,35.32C120.137,439.672,112.056,439.672,107.073,434.689z"/>
	<path style="fill:none;" d="M498.52,144.918L367.088,13.476c-6.605-6.605-17.323-6.605-23.928,0L225.261,131.375l59.751,59.76
		l35.858,35.858l59.751,59.76L498.52,168.854C505.134,162.241,505.134,151.523,498.52,144.918z"/>

	<path style="fill:none;" d="M331.222,216.641l-41.831,41.831c-9.899,9.899-25.95,9.899-35.858,0
		c-9.899-9.899-9.899-25.95,0-35.858l41.831-41.831l-71.707-71.707L122.075,210.66L80.243,336.153l95.609,95.609l125.485-41.831
		l101.591-101.582L331.222,216.641z"/>
	
	<rect x="356.146" y="33.447" transform="matrix(-0.7071 -0.7071 0.7071 -0.7071 589.2791 378.5822)" style="fill:none;" width="33.801" height="67.602"/>

	<rect x="380.074" y="57.342" transform="matrix(-0.7071 -0.7071 0.7071 -0.7071 613.23 436.2935)" style="fill:none;" width="33.801" height="67.602"/>
	<rect x="403.969" y="81.264" transform="matrix(-0.7071 -0.7071 0.7071 -0.7071 637.1057 494.0268)" style="fill:none;" width="33.801" height="67.602"/>

	
	<rect x="427.865" y="105.196" transform="matrix(-0.7071 -0.7071 0.7071 -0.7071 660.9767 551.7782)" style="fill:none;" width="33.801" height="67.602"/>
	<path style="fill: none;" d="M253.533,258.464L253.533,258.464c-9.899-9.899-9.899-25.95,0-35.858l77.68-77.68l35.858,35.858
		l-77.68,77.68C279.492,268.371,263.44,268.371,253.533,258.464z"/>


	<path style="fill:#000000;" d="M361.097,111.637c-2.185,0-4.369-0.836-6.033-2.5l-23.902-23.902c-1.604-1.604-2.5-3.772-2.5-6.033
		s0.896-4.437,2.5-6.033l47.805-47.805c3.337-3.337,8.73-3.337,12.066,0l23.902,23.902c1.604,1.604,2.5,3.772,2.5,6.033
		s-0.896,4.437-2.5,6.033l-47.805,47.805C365.466,110.801,363.282,111.637,361.097,111.637z M349.261,79.201l11.836,11.836
		l35.738-35.738L385,43.463L349.261,79.201z"/>
	<path style="fill:#000000;" d="M385,135.539L385,135.539c-2.261,0-4.437-0.896-6.033-2.5l-23.902-23.902
		c-3.337-3.337-3.337-8.73,0-12.066l47.805-47.805c1.604-1.604,3.772-2.5,6.033-2.5l0,0c2.261,0,4.437,0.896,6.033,2.5
		l23.902,23.902c3.337,3.337,3.337,8.73,0,12.066l-47.805,47.805C389.428,134.635,387.261,135.539,385,135.539z M373.164,103.104
		L385,114.94l35.738-35.738l-11.836-11.836L373.164,103.104z"/>
	<path style="fill:#000000;" d="M408.902,159.442c-2.185,0-4.369-0.836-6.033-2.5l-23.902-23.902c-1.604-1.604-2.5-3.772-2.5-6.033
		s0.896-4.437,2.5-6.033l47.805-47.805c3.337-3.337,8.73-3.337,12.066,0L462.74,97.07c1.604,1.604,2.5,3.772,2.5,6.033
		c0,2.261-0.896,4.437-2.5,6.033l-47.805,47.805C413.271,158.605,411.086,159.442,408.902,159.442z M397.066,127.006l11.836,11.836
		l35.738-35.738l-11.836-11.836L397.066,127.006z"/>
	<path style="fill:#000000;" d="M432.804,183.344L432.804,183.344c-2.261,0-4.437-0.896-6.033-2.5l-23.902-23.902
		c-3.337-3.337-3.337-8.73,0-12.066l47.805-47.805c1.604-1.604,3.772-2.5,6.033-2.5l0,0c2.261,0,4.437,0.896,6.033,2.5
		l23.902,23.902c3.337,3.337,3.337,8.73,0,12.066l-47.805,47.805C437.233,182.448,435.065,183.344,432.804,183.344z
		M420.968,150.908l11.836,11.836l35.738-35.738l-11.836-11.836L420.968,150.908z"/>
	<path style="fill:#000000;" d="M271.462,274.405c-8.679,0-17.349-3.302-23.962-9.907l0,0c-6.4-6.4-9.924-14.908-9.924-23.962
		c0-9.054,3.524-17.562,9.924-23.962l77.68-77.689c3.2-3.2,8.866-3.2,12.066,0l35.858,35.858c1.604,1.604,2.5,3.772,2.5,6.033
		s-0.896,4.437-2.5,6.033l-77.689,77.68C288.819,271.102,280.14,274.405,271.462,274.405z M331.213,157.001l-71.647,71.647
		c-3.174,3.183-4.924,7.399-4.924,11.896s1.749,8.713,4.924,11.896l0,0c6.562,6.562,17.229,6.562,23.783,0l71.647-71.647
		L331.213,157.001z"/>
	<path style="fill:#000000;" d="M253.533,350.66c-2.185,0-4.369-0.836-6.033-2.5L116.041,216.693c-3.337-3.337-3.337-8.73,0-12.066
		c3.328-3.337,8.738-3.337,12.066,0l131.467,131.467c3.337,3.337,3.337,8.73,0,12.066
		C257.902,349.823,255.717,350.66,253.533,350.66z"/>
	<path style="fill:#000000;" d="M301.337,398.464c-2.185,0-4.369-0.836-6.033-2.5l-23.902-23.902c-3.337-3.337-3.337-8.73,0-12.066
		c3.337-3.337,8.73-3.337,12.066,0l23.902,23.902c3.337,3.337,3.337,8.73,0,12.066C305.706,397.628,303.522,398.464,301.337,398.464
		z"/>
	<path style="fill:#000000;" d="M116.093,446.951c-5.453,0-10.906-2.074-15.053-6.229l-29.756-29.756
		c-4.028-4.028-6.238-9.37-6.238-15.062c0-5.692,2.219-11.034,6.238-15.062l26.829-26.829c3.328-3.337,8.738-3.337,12.066,0
		l47.805,47.805c1.604,1.604,2.5,3.772,2.5,6.033c0,2.261-0.896,4.437-2.5,6.033l-26.829,26.829
		C127.007,444.869,121.546,446.943,116.093,446.951z M104.146,372.121L83.35,392.917c-1.075,1.075-1.237,2.338-1.237,2.995
		s0.162,1.911,1.246,2.995l29.756,29.756l0,0c1.647,1.647,4.326,1.647,5.982,0l20.796-20.796L104.146,372.121z"/>
	<path style="fill:#000000;" d="M32.439,512.002c-2.185,0-4.369-0.836-6.033-2.5L2.504,485.6c-1.604-1.604-2.5-3.772-2.5-6.033
		c0-2.261,0.896-4.437,2.5-6.033l71.707-71.707c3.2-3.2,8.866-3.2,12.066,0l23.902,23.902c3.337,3.337,3.337,8.73,0,12.066
		l-71.707,71.707C36.808,511.166,34.624,512.002,32.439,512.002z M20.603,479.566l11.836,11.836l59.64-59.64l-11.836-11.836
		L20.603,479.566z"/>
	<path style="fill:#000000;" d="M390.973,284.926L390.973,284.926c-2.261,0-4.437-0.896-6.033-2.5l-59.751-59.76
		c-1.604-1.604-2.5-3.772-2.5-6.033s0.896-4.437,2.5-6.033l29.824-29.816l-23.791-23.791l-29.816,29.824
		c-3.2,3.2-8.866,3.2-12.066,0l-59.76-59.751c-1.604-1.604-2.5-3.772-2.5-6.033s0.896-4.437,2.5-6.033L337.127,7.443
		c9.916-9.924,26.07-9.924,35.994,0l131.441,131.441l0,0c9.916,9.924,9.916,26.07,0,35.994L397.006,282.426
		C395.402,284.03,393.234,284.926,390.973,284.926z M343.288,216.633l47.685,47.694l101.514-101.514
		c3.268-3.268,3.268-8.585,0-11.862L361.055,19.51c-3.268-3.26-8.593-3.26-11.862,0L247.679,121.032l47.685,47.685l29.816-29.824
		c3.2-3.2,8.866-3.2,12.066,0l35.858,35.858c1.604,1.604,2.5,3.772,2.5,6.033s-0.896,4.437-2.5,6.033L343.288,216.633z"/>
	<path style="fill:#000000;" d="M175.853,440.295c-2.227,0-4.412-0.87-6.033-2.5L74.21,342.186c-2.287-2.287-3.081-5.666-2.065-8.73
		l41.831-125.493c0.418-1.254,1.126-2.398,2.065-3.337l101.582-101.583c3.328-3.337,8.738-3.337,12.066,0l71.707,71.707
		c3.337,3.337,3.337,8.73,0,12.066l-41.831,41.831c-3.174,3.183-4.924,7.399-4.924,11.896s1.749,8.713,4.924,11.896
		c6.357,6.349,17.434,6.349,23.783,0l41.831-41.831c3.337-3.337,8.73-3.337,12.066,0l71.707,71.707c3.337,3.337,3.337,8.73,0,12.066
		L307.379,395.964c-0.939,0.939-2.082,1.638-3.337,2.065L178.549,439.86C177.67,440.15,176.757,440.295,175.853,440.295z
		M90.006,333.849L178.157,422l118.573-39.527l94.124-94.124l-59.64-59.649l-35.798,35.798c-12.8,12.809-35.115,12.8-47.915,0
		c-6.4-6.4-9.924-14.908-9.924-23.962c0-9.054,3.524-17.562,9.924-23.962l35.798-35.798l-59.64-59.64l-94.124,94.124L90.006,333.849
		z"/>
	<path style="fill:#000000;" d="M229.631,386.517c-2.185,0-4.369-0.836-6.033-2.5l-95.609-95.609c-3.337-3.337-3.337-8.73,0-12.066
		c3.328-3.337,8.738-3.337,12.066,0l95.609,95.609c3.337,3.337,3.337,8.73,0,12.066C234,385.681,231.815,386.517,229.631,386.517z"
		/>
	<path style="fill:#000000;" d="M181.826,386.517c-2.185,0-4.369-0.836-6.033-2.5l-47.805-47.805c-3.337-3.337-3.337-8.73,0-12.066
		c3.328-3.337,8.738-3.337,12.066,0l47.805,47.805c3.337,3.337,3.337,8.73,0,12.066
		C186.195,385.681,184.011,386.517,181.826,386.517z"/>
</svg>