<svg width="106" height="41" viewBox="0 0 106 41" fill="none" xmlns="http://www.w3.org/2000/svg">
<g clip-path="url(#clip0)">
<path d="M30.5306 0.246094H0.681641V8.23351H30.5306V0.246094Z" fill="white"/>
<path d="M30.5306 40.1858V32.1984H9.86125V24.2109H0.681641V40.1858H30.5306Z" fill="white"/>
<path d="M30.5307 16.2234H9.86133V24.2108H30.5307V16.2234Z" fill="white"/>
<path d="M41.2773 37.6633V27.8545H42.6949V37.6633H41.2773Z" fill="white"/>
<path d="M47.3835 37.836C45.6516 37.836 43.8232 36.6712 43.8232 34.0474C43.8232 31.4084 45.6516 30.2461 47.3835 30.2461C49.1281 30.2461 50.9565 31.4109 50.9565 34.0474C50.959 36.6738 49.1307 37.836 47.3835 37.836ZM49.4578 34.0474C49.4578 32.2335 48.4612 31.436 47.3835 31.436C46.3185 31.436 45.3244 32.2084 45.3244 34.0474C45.3244 35.8461 46.321 36.6461 47.3835 36.6461C48.4612 36.6461 49.4578 35.8209 49.4578 34.0474Z" fill="white"/>
<path d="M58.4594 30.3818V36.8095C58.4594 38.1478 58.1729 38.8673 57.6682 39.368C57.1104 39.9491 56.2228 40.2485 55.1045 40.2485C53.469 40.2485 52.267 39.5441 52.0362 38.017H53.4969C53.6465 38.6812 54.0699 39.0736 55.1324 39.0736C55.8273 39.0736 56.3065 38.8849 56.6057 38.5453C56.8923 38.2334 57.0419 37.856 57.0419 37.1114V36.339C56.5905 37.0837 55.8551 37.5441 54.7774 37.5441C53.0734 37.5441 51.6533 36.2057 51.6533 33.8912C51.6533 31.5919 53.0708 30.251 54.7774 30.251C55.8551 30.251 56.5905 30.7114 57.0419 31.456V30.3868H58.4594V30.3818ZM53.1672 33.8862C53.1672 35.4686 53.9305 36.3893 55.1045 36.3893C56.1949 36.3893 57.0952 35.6321 57.0952 33.8862C57.0952 32.1554 56.1949 31.4107 55.1045 31.4107C53.9305 31.4107 53.1672 32.329 53.1672 33.8862Z" fill="white"/>
<path d="M61.4068 29.4083H59.9893V27.8511H61.4068V29.4083ZM61.4068 37.6624H59.9893V30.3819H61.4068V37.6624Z" fill="white"/>
<path d="M65.4942 31.368C64.7994 31.368 64.0488 31.6523 64.0488 32.2485C64.0488 32.7894 64.4038 33.0208 65.0707 33.1542L66.1205 33.3579C67.5127 33.6296 68.7248 34.1026 68.7248 35.524C68.7248 36.9982 67.3326 37.8384 65.6413 37.8384C63.7876 37.8384 62.6541 36.7692 62.4766 35.4032H63.922C64.1122 36.2284 64.6574 36.7164 65.6818 36.7164C66.5947 36.7164 67.3047 36.3365 67.3047 35.6875C67.3047 35.0108 66.6632 34.7391 65.8999 34.5906L64.7943 34.3743C63.6887 34.1579 62.6541 33.6699 62.6541 32.3038C62.6541 31.0183 64.0183 30.2334 65.6286 30.2334C67.1019 30.2334 68.2886 31.0057 68.56 32.412H67.1551C66.9548 31.6674 66.3259 31.368 65.4942 31.368Z" fill="white"/>
<path d="M71.5651 28.5152V30.3819H73.0105V31.4511H71.5651V35.6045C71.5651 36.3492 71.6868 36.5379 72.3969 36.5379H72.9978V37.6599H71.9607C70.4747 37.6599 70.1476 37.2951 70.1476 35.7932V31.4485H69.0293V30.3794H70.1476V28.5127H71.5651V28.5152Z" fill="white"/>
<path d="M75.3843 29.4083H73.9668V27.8511H75.3843V29.4083ZM75.3843 37.6624H73.9668V30.3819H75.3843V37.6624Z" fill="white"/>
<path d="M81.8123 32.8448C81.6627 32.0196 80.9121 31.4511 79.984 31.4511C78.9621 31.4511 78.0188 32.2485 78.0188 34.0221C78.0188 35.8209 78.9748 36.6334 79.984 36.6334C80.8842 36.6334 81.6754 36.1051 81.8656 35.2397H83.2983C83.0118 36.7693 81.579 37.8385 79.9561 37.8385C77.8412 37.8385 76.5049 36.2284 76.5049 34.0372C76.5049 31.8712 77.8818 30.2485 80.0499 30.2485C81.7286 30.2485 83.0092 31.4259 83.2273 32.8473H81.8123V32.8448Z" fill="white"/>
<path d="M86.9697 31.368C86.2749 31.368 85.5243 31.6523 85.5243 32.2485C85.5243 32.7894 85.8793 33.0208 86.5463 33.1542L87.5961 33.3579C88.9882 33.6296 90.2003 34.1026 90.2003 35.524C90.2003 36.9982 88.8082 37.8384 87.1168 37.8384C85.2632 37.8384 84.1297 36.7692 83.9521 35.4032H85.3975C85.5877 36.2284 86.1329 36.7164 87.1574 36.7164C88.0703 36.7164 88.7803 36.3365 88.7803 35.6875C88.7803 35.0108 88.1387 34.7391 87.3755 34.5906L86.2699 34.3743C85.1643 34.1579 84.1296 33.6699 84.1296 32.3038C84.1296 31.0183 85.4939 30.2334 87.1041 30.2334C88.5774 30.2334 89.7642 31.0057 90.0355 32.412H88.6307C88.4304 31.6674 87.8015 31.368 86.9697 31.368Z" fill="white"/>
<path d="M56.1799 1.32544V5.38582H45.6766V8.82229H55.6068V12.9103H45.6766V16.8625H56.1799V20.9481H41.0107V1.32544H56.1799Z" fill="white"/>
<path d="M67.9641 6.0625C71.7298 6.0625 72.9014 8.2537 72.9014 12.2059V20.948H68.4003V13.3153C68.4003 11.2323 68.3192 9.52665 66.1358 9.52665C64.2264 9.52665 63.4073 10.7996 63.4073 13.4789V20.948H58.9062V6.38703H63.4073V8.30904C64.0615 7.22728 65.6718 6.0625 67.9641 6.0625Z" fill="white"/>
<path d="M82.1315 8.95821C80.6861 8.95821 79.6768 9.69028 79.512 11.0966H75.3101C75.5003 8.36198 78.1756 5.92676 82.5118 5.92676C86.7137 5.92676 89.1404 7.60475 89.0593 12.045L89.006 15.2123C88.9781 17.1066 89.0593 19.7054 89.3331 20.9507H84.9132L84.86 19.1922C83.7696 20.7343 82.0224 21.3029 79.9228 21.3029C77.141 21.3029 74.8486 19.6777 74.8486 17.0261C74.8486 13.4538 78.9135 12.2639 84.614 11.8563V11.2878C84.614 9.57959 83.7417 8.95821 82.1315 8.95821ZM81.5584 18.2689C83.3588 18.2689 84.723 17.5117 84.723 14.8324V14.4802C81.5863 14.7519 79.4841 15.1569 79.4841 16.6991C79.4841 17.6475 80.3843 18.2689 81.5584 18.2689Z" fill="white"/>
<path d="M99.9101 10.5832C97.7546 10.5832 96.6085 11.3681 96.6085 13.6423V20.9505H92.1074V6.38698H96.4462V9.14673C97.1283 7.44107 98.3556 6.35931 100.455 6.27881C100.673 6.27881 100.919 6.27881 101.137 6.30648V10.6637C100.648 10.6084 100.318 10.5832 99.9101 10.5832Z" fill="white"/>
<path d="M100.777 17.4739C100.911 17.162 101.093 16.8953 101.322 16.6689C101.55 16.4425 101.821 16.2689 102.133 16.1456C102.445 16.0224 102.777 15.9595 103.132 15.9595C103.487 15.9595 103.819 16.0224 104.126 16.1456C104.436 16.2689 104.704 16.445 104.935 16.6689C105.163 16.8953 105.346 17.162 105.48 17.4739C105.615 17.7834 105.681 18.128 105.681 18.5079C105.681 18.8827 105.615 19.2249 105.48 19.5368C105.346 19.8463 105.163 20.1154 104.935 20.3368C104.704 20.5607 104.436 20.7318 104.126 20.8551C103.817 20.9783 103.485 21.0387 103.132 21.0387C102.777 21.0387 102.445 20.9783 102.133 20.8551C101.821 20.7318 101.552 20.5607 101.322 20.3368C101.091 20.1154 100.911 19.8463 100.777 19.5368C100.642 19.2249 100.576 18.8827 100.576 18.5079C100.576 18.128 100.642 17.7834 100.777 17.4739ZM101.294 19.3255C101.395 19.5721 101.537 19.7859 101.717 19.9645C101.897 20.1406 102.108 20.2815 102.349 20.3796C102.59 20.4777 102.851 20.528 103.132 20.528C103.419 20.528 103.683 20.4777 103.923 20.3796C104.164 20.2815 104.372 20.1406 104.55 19.9645C104.727 19.7859 104.867 19.5721 104.966 19.3255C105.065 19.079 105.115 18.8048 105.115 18.5079C105.115 18.206 105.065 17.9293 104.966 17.6802C104.867 17.4312 104.727 17.2148 104.55 17.0362C104.372 16.8551 104.164 16.7167 103.923 16.6211C103.683 16.523 103.419 16.4752 103.132 16.4752C102.851 16.4752 102.59 16.523 102.349 16.6211C102.108 16.7192 101.897 16.8576 101.717 17.0362C101.537 17.2148 101.398 17.4312 101.294 17.6802C101.192 17.9293 101.142 18.206 101.142 18.5079C101.142 18.8048 101.192 19.0765 101.294 19.3255ZM101.961 19.7632V17.0588H103.051C103.234 17.0588 103.401 17.0714 103.556 17.0991C103.71 17.1268 103.845 17.1721 103.956 17.2375C104.071 17.3029 104.159 17.3934 104.223 17.5066C104.286 17.6224 104.319 17.7683 104.319 17.9444C104.319 18.1482 104.273 18.3066 104.18 18.4249C104.086 18.5406 103.967 18.6287 103.822 18.689L104.484 19.7632H103.665L103.092 18.7972H102.696V19.7632H101.961ZM103.5 17.7305C103.447 17.6626 103.358 17.6299 103.234 17.6299H102.696V18.2387H103.234C103.355 18.2387 103.444 18.211 103.5 18.1532C103.556 18.0978 103.581 18.0274 103.581 17.9469C103.581 17.8689 103.556 17.796 103.5 17.7305Z" fill="white"/>
</g>
<defs>
<clipPath id="clip0">
<rect width="105" height="40" fill="white" transform="translate(0.681641 0.246094)"/>
</clipPath>
</defs>
</svg>
