<svg width="19" height="25" viewBox="0 0 19 25" fill="none" xmlns="http://www.w3.org/2000/svg">
<g filter="url(#filter0_d)">
<path d="M9.50115 0.15918C6.46319 0.15918 4 2.57651 4 5.55854C4 7.08408 5.51461 9.81715 5.51461 9.81715L9.29837 16.1592L13.2463 9.8912C13.2463 9.8912 15 7.28352 15 5.55854C15.0005 2.57651 12.5377 0.15918 9.50115 0.15918ZM9.4754 8.53239C7.73548 8.53239 6.32617 7.13996 6.32617 5.41907C6.32617 3.70045 7.73502 2.30893 9.4754 2.30893C11.2144 2.30893 12.6251 3.70045 12.6251 5.41907C12.6251 7.13996 11.2144 8.53239 9.4754 8.53239Z" fill="#FF9A00"/>
</g>
<defs>
<filter id="filter0_d" x="0" y="0.15918" width="19" height="24" filterUnits="userSpaceOnUse" color-interpolation-filters="sRGB">
<feFlood flood-opacity="0" result="BackgroundImageFix"/>
<feColorMatrix in="SourceAlpha" type="matrix" values="0 0 0 0 0 0 0 0 0 0 0 0 0 0 0 0 0 0 127 0"/>
<feOffset dy="4"/>
<feGaussianBlur stdDeviation="2"/>
<feColorMatrix type="matrix" values="0 0 0 0 0 0 0 0 0 0 0 0 0 0 0 0 0 0 0.25 0"/>
<feBlend mode="normal" in2="BackgroundImageFix" result="effect1_dropShadow"/>
<feBlend mode="normal" in="SourceGraphic" in2="effect1_dropShadow" result="shape"/>
</filter>
</defs>
</svg>
