<?xml version="1.0" standalone="no"?>
<!DOCTYPE svg PUBLIC "-//W3C//DTD SVG 1.1//EN" "http://www.w3.org/Graphics/SVG/1.1/DTD/svg11.dtd" >
<svg xmlns="http://www.w3.org/2000/svg" xmlns:xlink="http://www.w3.org/1999/xlink" version="1.1">
<metadata>
Created by FontForge 20190801 at Fri Jan  1 01:00:00 1904
 By Jimmy Wärting
 
</metadata>
<defs>
<font id="Compact" horiz-adv-x="278" >
  <font-face 
    font-family="Compact"
    font-weight="400"
    font-stretch="normal"
    units-per-em="1000"
    panose-1="0 0 0 0 0 0 0 0 0 0"
    ascent="800"
    descent="-200"
    x-height="560"
    cap-height="700"
    bbox="0 -224 713 829"
    underline-thickness="50"
    underline-position="-105"
    unicode-range="U+0020-2219"
  />
<missing-glyph 
d="M243 560v-560h-61v-119h-84v119h-63v560h84v-500h40v500h84v0z" />
    <glyph glyph-name=".notdef" 
d="M243 560v-560h-61v-119h-84v119h-63v560h84v-500h40v500h84v0z" />
    <glyph glyph-name="glyph1" horiz-adv-x="0" 
 />
    <glyph glyph-name="glyph2" horiz-adv-x="351" 
 />
    <glyph glyph-name="space" unicode=" " horiz-adv-x="351" 
 />
    <glyph glyph-name="exclam" unicode="!" horiz-adv-x="188" 
d="M46 0v96h96v-96h-96v0zM57 158l-11 542h96l-10 -542h-75v0z" />
    <glyph glyph-name="quotedbl" unicode="&#x22;" horiz-adv-x="337" 
d="M136 700l-24 -178h-31l-24 178h79v0zM280 700l-23 -178h-32l-23 178h78v0z" />
    <glyph glyph-name="numbersign" unicode="#" horiz-adv-x="503" 
d="M157 489l18 85h71l-19 -85h105l18 85h69l-18 -85h67l-16 -69h-66l-29 -126h67l-15 -69h-66l-23 -100h-69l22 100h-104l-22 -100h-70l22 100h-64l15 69h64l28 126h-65l15 69h65v0zM184 294h104l29 126h-104l-29 -126v0z" />
    <glyph glyph-name="dollar" unicode="$" horiz-adv-x="314" 
d="M35 245h99v-162q0 -7 4 -11t9 -6q3 -1 5.5 -1.5t4.5 -0.5q9 0 14 3t7 7q1 3 1.5 5.5t0.5 3.5v146q0 16 -6 24.5t-13 15.5l-1 1l-1 1l-3.5 3.5l-2.5 2.5l-80 90q-7 8 -13 15t-10 13q-8 11 -11.5 24t-3.5 33v139q0 49 22 78.5t64 30.5v84h72v-84q39 0 56.5 -18t24.5 -39
q4 -15 4.5 -28t0.5 -21v-1.5v-1.5v-115h-99v134q0 10 -4 15.5t-9 7.5q-2 2 -4.5 2.5t-4.5 0.5q-9 0 -16.5 -7.5t-7.5 -18.5v-125q0 -12 0.5 -20.5t4.5 -16.5q2 -5 6 -10.5t10 -12.5l87 -94q6 -6 10.5 -11.5t8.5 -10.5q9 -12 13.5 -26t4.5 -37v-138v-1v-1q0 -8 -0.5 -21.5
t-5.5 -28.5q-7 -21 -24.5 -38.5t-55.5 -17.5v-105h-72v105q-39 0 -57 18t-24 39q-4 14 -4.5 26.5t-0.5 20.5v2v2v137v0z" />
    <glyph glyph-name="percent" unicode="%" horiz-adv-x="505" 
d="M54 0l306 700h91l-306 -700h-91v0zM397 0h-55q-43 0 -56.5 15.5t-15.5 33.5q-1 5 -1 10v10v2v2v136q0 7 0.5 14.5t1.5 16.5q4 18 18.5 33t52.5 15h55q6 0 14 -0.5t17 -3.5q16 -6 29 -22t13 -53v-136q0 -41 -16 -55t-35 -17q-5 -1 -11 -1h-11v0zM390 71v146
q0 10 -6.5 15.5t-14.5 5.5h-2t-2 -1q-6 -1 -11 -6.5t-5 -13.5v-146q0 -8 5 -13.5t11 -6.5q1 -1 2 -1h2q8 0 14.5 5.5t6.5 15.5v0zM163 412h-55q-43 0 -56.5 15.5t-15.5 33.5q-1 5 -1 10v10v2v2v136q0 7 0.5 14.5t1.5 16.5q4 18 18.5 33t52.5 15h55q6 0 14 -0.5t17 -3.5
q16 -6 29 -22t13 -53v-136q0 -41 -16 -55t-35 -17q-5 -1 -11 -1h-11v0zM156 483v146q0 10 -6.5 15.5t-14.5 5.5h-2t-2 -1q-6 -1 -11 -6.5t-5 -13.5v-146q0 -8 5 -13.5t11 -6.5q1 -1 2 -1h2q8 0 14.5 5.5t6.5 15.5v0z" />
    <glyph glyph-name="ampersand" unicode="&#x26;" horiz-adv-x="337" 
d="M314 73v-73h-62q-28 0 -43.5 5t-21.5 25l-4.5 -4.5t-5.5 -3.5q-22 -17 -42 -19.5t-31 -2.5h-1.5h-0.5q-36 0 -49 20t-16 44q-2 10 -2 20v18v1.5v1.5v168v0.5v0.5q0 5 0.5 15t4.5 21q5 15 17.5 27.5t39.5 13.5v7q-30 1 -46 19.5t-16 49.5v161q0 8 1 22.5t6 30.5
q7 22 25 40.5t56 18.5h57q7 0 16 -0.5t18 -2.5q21 -5 38 -25.5t17 -72.5v-53h-99v64v0.5v0.5v4.5t-1 5.5q-1 6 -5.5 10.5t-16.5 4.5q-7 0 -13.5 -6t-9.5 -13q0 -2 -0.5 -3.5t-0.5 -3.5v-203v-2t1 -2q2 -5 7.5 -9.5t14.5 -4.5t16.5 4t7.5 14v56h99v-65h35v-73h-35v-215
q0 -16 10 -27t26 -11h4.5t4.5 1v0zM170 83v242q-3 0 -6.5 -1t-6.5 -1q-13 -4 -23.5 -13t-10.5 -26v-201q0 -5 4 -9t9 -7q3 -1 5.5 -2t4.5 -1t5 0.5t6 2.5q5 2 9 6t4 10v0z" />
    <glyph glyph-name="quotesingle" unicode="'" horiz-adv-x="193" 
d="M136 700l-24 -178h-31l-24 178h79v0z" />
    <glyph glyph-name="parenleft" unicode="(" horiz-adv-x="179" 
d="M35 -86v690q0 7 1.5 19t7.5 25q10 20 35 36t77 16v-62q-16 0 -23 -6t-9 -13q-1 -4 -1.5 -8t-0.5 -7v-690q0 -2 0.5 -6t1.5 -8q2 -7 9 -13t23 -6v-63q-52 1 -77 17t-34 35q-7 14 -8.5 26t-1.5 19v-1z" />
    <glyph glyph-name="parenright" unicode=")" horiz-adv-x="179" 
d="M144 604v-690q0 -46 -26 -66t-57 -26q-10 -2 -19.5 -2.5t-18.5 -0.5v61q16 1 23 7t9 13q1 4 1.5 8t0.5 7v689q0 3 -0.5 7t-1.5 8q-2 7 -9 13t-23 6v62q9 0 18.5 -0.5t19.5 -2.5q31 -6 57 -26t26 -67v0z" />
    <glyph glyph-name="asterisk" unicode="*" horiz-adv-x="317" 
d="M35 585l21 66l68 -23v72h69v-72l68 23l21 -66l-68 -22l42 -58l-55 -40l-43 58l-41 -58l-56 40l42 58l-68 22v0z" />
    <glyph glyph-name="plus" unicode="+" horiz-adv-x="480" 
d="M272 145h-63v174h-174v63h174v173h63v-173h173v-63h-173v-174v0z" />
    <glyph glyph-name="comma" unicode="," horiz-adv-x="169" 
d="M38 0v96h96v-96q0 -6 -1 -13.5t-3 -15.5q-4 -15 -10.5 -30t-16.5 -27l-68 -1q3 4 7 8.5t9 10.5q8 12 14.5 29t7.5 39h-35v0z" />
    <glyph glyph-name="hyphen" unicode="-" horiz-adv-x="217" 
d="M35 266v84h147v-84h-147v0z" />
    <glyph glyph-name="period" unicode="." horiz-adv-x="166" 
d="M35 0v96h96v-96h-96v0z" />
    <glyph glyph-name="slash" unicode="/" horiz-adv-x="231" 
d="M62 -182h-62l169 882h62l-169 -882v0z" />
    <glyph glyph-name="zero" unicode="0" horiz-adv-x="314" 
d="M279 587v-474q0 -9 -0.5 -22t-4.5 -27q-6 -24 -24 -44t-59 -20h-68q-41 0 -59 20t-24 44q-3 14 -4 27t-1 22v474q0 9 1 22t4 27q6 24 24 44t59 20h68q41 0 59 -20t24 -44q4 -14 4.5 -27t0.5 -22v0zM134 612v-524q0 -11 7.5 -17.5t16.5 -6.5q2 0 4.5 0.5t4.5 1.5q5 2 9 7
t4 15v524q0 11 -6 17.5t-16 6.5q-9 0 -14.5 -5.5t-8.5 -11.5q0 -2 -0.5 -3.5t-0.5 -3.5v0z" />
    <glyph glyph-name="one" unicode="1" horiz-adv-x="314" 
d="M117 0v554q-10 -7 -24.5 -13t-40.5 -11v78q35 2 60 27t26 65h78v-700h-99v0z" />
    <glyph glyph-name="two" unicode="2" horiz-adv-x="315" 
d="M35 0v100q0 54 16.5 95.5t41.5 80.5l17 25.5t18 26.5q20 29 36 61t16 75v151q0 7 -5 13t-11 7q-1 1 -2 1h-2q-2 0 -3.5 -0.5t-3.5 -0.5q-7 -2 -13 -7t-6 -13v-139h-99v116q0 58 19 79.5t42 26.5q8 1 16.5 1.5t15.5 0.5h62h0.5h0.5h14t15 -2q22 -4 40.5 -25t18.5 -81v-129
v-7v-6v-12v-11q-1 -24 -14.5 -55t-59.5 -100q-17 -25 -29.5 -47t-22.5 -43q-11 -27 -16.5 -54t-6.5 -61h150v-67h-245v0z" />
    <glyph glyph-name="three" unicode="3" horiz-adv-x="316" 
d="M135 476h-99v115q0 9 1 21t4 25q6 23 25.5 43t62.5 20h63h10t10 -1q26 -3 47 -23t21 -84v-128v-0.5v-0.5q0 -8 -1 -21.5t-6 -27.5q-6 -20 -23.5 -36.5t-53.5 -18.5v-5q42 1 63 -24t21 -63v-159q0 -63 -21 -83.5t-47 -23.5q-5 -1 -10 -1h-10h-65q-6 0 -18 1.5t-25 7.5
q-18 9 -33 31t-15 67v138h99v-160q0 -9 5.5 -13.5t11.5 -6.5q2 -1 4 -1h4t3.5 0.5t3.5 1.5q6 2 10 6.5t4 12.5v175v0.5v0.5v6v6q-1 21 -11.5 39t-54.5 17v67h3.5h3.5q1 -1 3 -1h3q28 1 38.5 15t13.5 31q1 7 1 13v12v146q0 9 -3.5 14t-8.5 7q-3 2 -5.5 2.5t-4.5 0.5t-5 -0.5
t-6 -1.5q-5 -2 -9 -7.5t-4 -14.5v-136v0z" />
    <glyph glyph-name="four" unicode="4" horiz-adv-x="314" 
d="M169 0v178h-160v77l106 445h153v-455h37v-67h-37v-178h-99v0zM102 245h67v357l-67 -357v0z" />
    <glyph glyph-name="five" unicode="5" horiz-adv-x="315" 
d="M35 245h99v-160q0 -8 5 -12.5t11 -6.5q2 -1 5 -1.5t5 -0.5h2t2 1q6 1 11 6.5t5 13.5v318q0 2 -0.5 4.5t-1.5 4.5q-2 4 -6 7.5t-12 3.5q-12 0 -19 -6t-7 -14v-53h-99v350h245v-67h-146v-171q8 8 15 14.5t15 11.5q12 9 24 14t26 5q42 0 53.5 -28.5t11.5 -75.5v-297
q0 -73 -26 -89.5t-57 -16.5h-2.5h-2.5h-63q-8 0 -18 1t-21 4q-20 7 -37 29t-17 73v138v0z" />
    <glyph glyph-name="six" unicode="6" horiz-adv-x="315" 
d="M280 476h-99v138q0 8 -5.5 13.5t-11.5 7.5q-2 0 -3.5 0.5t-3.5 0.5q-10 0 -16.5 -6.5t-6.5 -15.5v-229q14 16 34 28.5t45 12.5q34 0 47.5 -17t17.5 -37q1 -10 1.5 -19.5t0.5 -16.5v-1.5v-1.5v-229q0 -69 -24.5 -86t-54.5 -18h-6h-6h-65q-44 0 -62 18.5t-23 40.5
q-3 11 -3.5 22.5t-0.5 19.5v1.5v1.5v484v0.5v0.5q0 8 1 22t5 30q7 22 25.5 40.5t57.5 18.5h66q6 0 13 -0.5t14 -1.5q24 -4 43.5 -26t19.5 -84v-112v0zM134 325v-239q0 -8 5.5 -13.5t11.5 -7.5q2 0 3.5 -0.5t3.5 -0.5q9 0 16 6.5t7 15.5v239q0 8 -4.5 13t-9.5 7
q-2 1 -4.5 1.5t-4.5 0.5t-5 -0.5t-6 -2.5q-5 -2 -9 -6.5t-4 -12.5v0z" />
    <glyph glyph-name="seven" unicode="7" horiz-adv-x="314" 
d="M53 0l118 633h-139v67h238v-70l-114 -630h-103v0z" />
    <glyph glyph-name="eight" unicode="8" horiz-adv-x="314" 
d="M193 0h-74q-45 0 -62 20t-20 44q-2 10 -2 19.5v17.5v2.5v2.5v161q0 7 1 17t4 20q6 16 21 30t47 17v8h-1.5h-0.5h-1.5h-1.5q-28 0 -42 12.5t-20 27.5q-4 11 -5 21.5t-1 15.5v152q0 9 0.5 21.5t3.5 25.5q5 24 23.5 44.5t63.5 20.5h63q45 0 63.5 -21t23.5 -46q2 -12 2.5 -24
t0.5 -21v-152q0 -3 -1 -14t-6 -24q-6 -15 -19.5 -27t-40.5 -12h-1.5h-0.5h-1.5h-1.5v-8q32 -3 46.5 -16.5t20.5 -29.5q4 -11 4.5 -21t0.5 -17v-161v-3.5v-3.5v-16.5t-2 -18.5q-3 -24 -20 -44t-64 -20v0zM134 301v-214q0 -11 7.5 -17t16.5 -6q10 0 14.5 4t5.5 8q2 3 2 6v5
v214q0 10 -5.5 16t-16.5 6q-10 0 -15.5 -5t-7.5 -10q0 -2 -0.5 -3.5t-0.5 -3.5v0zM134 613v-204q0 -9 3.5 -13.5t8.5 -6.5q3 -1 6.5 -1.5t4.5 -0.5q10 0 16.5 6t6.5 16v204q0 8 -4.5 13t-9.5 7q-3 2 -5.5 2.5t-4.5 0.5h-2t-2 -1q-7 -2 -12.5 -8t-5.5 -14v0z" />
    <glyph glyph-name="nine" unicode="9" horiz-adv-x="315" 
d="M35 238h99v-152v-2t1 -2q2 -7 9 -12.5t15 -5.5t15 6t7 16v243q-21 -22 -40 -31.5t-38 -9.5q-40 0 -52.5 22t-14.5 49q-1 5 -1 11v11v215q0 69 24.5 86t54.5 18h6h6h65q44 0 62 -18.5t23 -40.5q3 -11 3.5 -22.5t0.5 -19.5v-1.5v-1.5v-484v-0.5v-0.5q0 -8 -1 -22t-5 -30
q-7 -22 -25.5 -40.5t-57.5 -18.5h-66q-7 0 -16 0.5t-18 3.5q-21 6 -38.5 28.5t-17.5 79.5v126v0zM181 389v225q0 11 -7.5 16.5t-16.5 5.5t-14.5 -5t-7.5 -10q0 -2 -0.5 -3.5t-0.5 -3.5v-225v-2t1 -2q2 -6 7.5 -11.5t11.5 -6.5h1.5h1.5q2 0 4.5 0.5t5.5 1.5q5 2 9.5 7t4.5 13
v0z" />
    <glyph glyph-name="colon" unicode=":" horiz-adv-x="166" 
d="M35 0v96h96v-96h-96v0zM35 464v96h96v-96h-96v0z" />
    <glyph glyph-name="semicolon" unicode=";" horiz-adv-x="167" 
d="M36 0v96h97v-96q0 -8 -2 -19.5t-6 -23.5q-4 -11 -10 -22.5t-13 -20.5l-68 -1q2 3 4 5.5t5 4.5q9 12 17.5 30.5t11.5 46.5h-36v0zM36 464v96h97v-96h-97v0z" />
    <glyph glyph-name="less" unicode="&#x3c;" horiz-adv-x="481" 
d="M124 350l322 -135v-67l-411 178v51l411 179v-68l-322 -138v0z" />
    <glyph glyph-name="equal" unicode="=" horiz-adv-x="480" 
d="M35 245v63h410v-63h-410v0zM35 392v63h410v-63h-410v0z" />
    <glyph glyph-name="greater" unicode="&#x3e;" horiz-adv-x="481" 
d="M357 350l-322 138v68l411 -179v-51l-411 -178v67l322 135v0z" />
    <glyph glyph-name="question" unicode="?" horiz-adv-x="294" 
d="M91 0v96h95v-96h-95v0zM91 160v75q0 37 3.5 61.5t11.5 46.5q4 9 8.5 18.5t10.5 20.5q2 4 4 7.5t4 7.5q1 1 1.5 2t0.5 2q11 19 19.5 38.5t8.5 42.5v130q0 2 -0.5 4.5t-1.5 5.5q-2 4 -7 7.5t-13 3.5t-12.5 -3.5t-6.5 -7.5q-2 -3 -2.5 -6t-0.5 -4v-136h-96v113v0.5v0.5
q0 8 0.5 22t4.5 28q6 23 24 41.5t56 18.5h65q48 0 65 -21.5t20 -47.5q1 -9 1 -18v-17v-4v-4v-99q0 -29 -3.5 -45.5t-9.5 -30.5q-4 -7 -8.5 -14.5t-9.5 -16.5q-3 -6 -7 -13t-8 -16q-10 -21 -18 -50t-8 -67v-76h-96v0z" />
    <glyph glyph-name="at" unicode="@" horiz-adv-x="570" 
d="M535 0h-371h-0.5h-1.5q-9 0 -24.5 1t-32.5 6q-26 9 -48 36t-22 86v442q0 59 22 86t48 36q17 5 32.5 6t24.5 1h1.5h0.5h242h0.5h1.5q9 0 24.5 -1t32.5 -6q26 -9 48 -36t22 -86v-295q0 -70 -24 -99.5t-53 -37.5q-13 -3 -25.5 -4t-22.5 -1q-8 0 -22.5 1t-29.5 7
q-15 5 -28.5 16t-21.5 30q-6 -20 -26.5 -36t-43.5 -18h-2h-2q-26 0 -37.5 12t-15.5 27q-2 9 -2.5 17.5t-0.5 14.5v0.5v1.5v263v10v10q1 31 11.5 57t47.5 26q18 0 34.5 -13.5t26.5 -30.5q1 -2 2 -3.5t2 -3.5v38h86v-300q0 -39 9.5 -51.5t23.5 -12.5q17 0 25.5 14.5t8.5 49.5
v281q0 72 -23.5 84t-64.5 12h-164q-40 0 -64 -12t-24 -84v-382q0 -72 24.5 -84t53.5 -12h0.5h1.5h4h4h332v-63v0zM262 469v-225q0 -13 4 -19t10 -7q1 -1 3 -1h3q9 0 13 4.5t5 10.5q2 3 2 6.5v5.5v225v5t-1 7q-1 6 -5.5 11t-13.5 5t-13 -4.5t-6 -10.5q-1 -4 -1 -7.5v-5.5v0z
" />
    <glyph glyph-name="A" unicode="A" horiz-adv-x="339" 
d="M23 0l74 700h149l70 -700h-98l-16 192h-68l-15 -192h-96v0zM138 259h59l-26 357h-5l-28 -357v0z" />
    <glyph glyph-name="B" unicode="B" horiz-adv-x="326" 
d="M41 0v700h147h13t14 -1q26 -4 47 -23.5t21 -77.5v-146q0 -5 -1 -16t-5 -23q-6 -15 -20.5 -28t-44.5 -14v-7h0.5h0.5h0.5h0.5q35 0 53 -22t18 -52v-193q0 -8 -1 -19.5t-5 -24.5q-7 -20 -27.5 -36.5t-64.5 -16.5h-146v0zM140 67h11q17 0 26 10t9 26v190q0 21 -10 31.5
t-23 10.5h-13v-268v0zM140 399h10q20 0 28 8t8 24v167q0 15 -10.5 25t-24.5 10h-11v-234v0z" />
    <glyph glyph-name="C" unicode="C" horiz-adv-x="315" 
d="M187 245h99v-141q0 -60 -21 -80t-46 -23q-6 -1 -11.5 -1h-10.5h-68h-2h-2h-12t-13 1q-22 3 -40.5 23t-18.5 81v492v2v2v16.5t2 18.5q4 24 21.5 44t64.5 20h68h6h6q29 -1 53 -18.5t24 -83.5v-122h-99v137q0 7 -5.5 12.5t-11.5 8.5q-2 1 -4 1.5t-4 0.5t-3.5 -0.5t-3.5 -1.5
q-5 -2 -10 -8t-5 -13v-527q0 -8 5 -13.5t10 -7.5q2 0 3.5 -0.5t3.5 -0.5t4 0.5t4 1.5q6 2 11.5 7.5t5.5 12.5v159v0z" />
    <glyph glyph-name="D" unicode="D" horiz-adv-x="326" 
d="M41 0v700h155q45 0 63 -18.5t23 -40.5q2 -10 2.5 -20t0.5 -18v-504q0 -8 -1 -19.5t-4 -23.5q-6 -21 -25 -38.5t-60 -17.5h-154v0zM140 67h14h4t4 1q9 2 16.5 10t7.5 26v494q0 2 -0.5 6.5t-2.5 9.5q-2 7 -9 13t-21 6h-13v-566v0z" />
    <glyph glyph-name="E" unicode="E" horiz-adv-x="298" 
d="M41 0v700h232v-67h-133v-230h133v-67h-133v-269h135v-67h-234v0z" />
    <glyph glyph-name="F" unicode="F" horiz-adv-x="255" 
d="M41 0v700h202v-67h-103v-241h91v-67h-91v-325h-99v0z" />
    <glyph glyph-name="G" unicode="G" horiz-adv-x="317" 
d="M166 343h122v-236v-4.5v-4.5v-13.5v-13.5q-2 -27 -18.5 -49t-70.5 -22h-69h-9.5t-9.5 1q-26 2 -48 22t-22 84v481v3v3q0 9 0.5 21t2.5 24q6 23 24 42t61 19h60q51 0 70.5 -20t23.5 -44q2 -10 2 -20v-19v-4v-4v-113h-99v140q0 2 -0.5 3.5t-0.5 3.5q-2 5 -7.5 9t-14.5 4
q-10 0 -16.5 -6t-6.5 -14v-527q0 -12 7 -18t15 -7h1.5h1.5q9 0 16.5 6.5t7.5 18.5v187h-23v67v0z" />
    <glyph glyph-name="H" unicode="H" horiz-adv-x="325" 
d="M41 0v700h99v-297h45v297h99v-700h-99v336h-45v-336h-99v0z" />
    <glyph glyph-name="I" unicode="I" horiz-adv-x="181" 
d="M41 0v700h99v-700h-99v0z" />
    <glyph glyph-name="J" unicode="J" horiz-adv-x="188" 
d="M12 0v67h11q11 0 18 4.5t7 25.5v603h99v-613q0 -53 -16 -69t-35 -18h-8.5h-9.5h-2.5h-2.5h-61v0z" />
    <glyph glyph-name="K" unicode="K" horiz-adv-x="321" 
d="M41 0v700h99v-301l50 301h98l-61 -331l71 -369h-95l-63 333v-333h-99v0z" />
    <glyph glyph-name="L" unicode="L" horiz-adv-x="263" 
d="M41 0v700h99v-633h111v-67h-210v0z" />
    <glyph glyph-name="M" unicode="M" horiz-adv-x="524" 
d="M41 700h146l71 -551l79 551h146v-700h-99v539l-73 -539h-98l-73 539v-539h-99v700v0z" />
    <glyph glyph-name="N" unicode="N" horiz-adv-x="342" 
d="M41 0v700h99l62 -397v397h99v-700h-99l-62 363v-363h-99v0z" />
    <glyph glyph-name="O" unicode="O" horiz-adv-x="326" 
d="M285 587v-474q0 -9 -0.5 -22t-4.5 -27q-6 -24 -24 -44t-59 -20h-68q-41 0 -59 20t-24 44q-4 14 -4.5 27t-0.5 22v474q0 9 0.5 22t4.5 27q6 24 24 44t59 20h68q41 0 59 -20t24 -44q4 -14 4.5 -27t0.5 -22v0zM140 610v-520q0 -11 4.5 -16.5t9.5 -7.5q2 -1 4.5 -1.5
t4.5 -0.5t4 0.5t4 1.5q5 2 10 8.5t5 15.5v520q0 10 -5 16t-10 8q-2 1 -4 1.5t-4 0.5t-4.5 -0.5t-4.5 -1.5q-5 -2 -9.5 -7.5t-4.5 -16.5v0z" />
    <glyph glyph-name="P" unicode="P" horiz-adv-x="308" 
d="M41 0v700h154q47 0 65 -20t23 -45q1 -10 1.5 -19.5t0.5 -17.5v-241v-0.5v-0.5q0 -9 -0.5 -20t-2.5 -23q-5 -24 -23.5 -43.5t-63.5 -19.5h-55v-250h-99v0zM140 314h12q16 0 25 9t9 25v252q0 19 -8.5 26.5t-17.5 9.5h-3.5h-3.5h-13v-322v0z" />
    <glyph glyph-name="Q" unicode="Q" horiz-adv-x="326" 
d="M126 -117v117h-2.5h-3.5q-36 0 -52.5 17.5t-22.5 38.5q-3 14 -3.5 26.5t-0.5 20.5v1v2v481q0 9 0.5 22t4.5 27q6 24 24 44t59 20h68q41 0 59 -20t24 -44q3 -14 4 -27t1 -22v-481v-1.5v-1.5q0 -8 -0.5 -20.5t-3.5 -25.5q-6 -21 -22.5 -39t-54.5 -18h-0.5h-1.5h-1.5h-0.5
v-117h-74v0zM140 612v-523q0 -10 7 -17.5t15 -7.5h2t2 1q7 2 13 8t7 13v1.5v1.5v523q0 2 -0.5 3.5t-1.5 3.5q-2 6 -8.5 11.5t-13.5 5.5q-2 0 -3.5 -0.5t-3.5 -1.5q-5 -2 -10 -8.5t-5 -13.5v0z" />
    <glyph glyph-name="R" unicode="R" horiz-adv-x="323" 
d="M41 0v700h156h1.5h0.5h11.5t11.5 -1q24 -2 43.5 -20.5t19.5 -78.5v-232v-2.5v-2.5q0 -8 -0.5 -17.5t-1.5 -18.5q-4 -16 -13.5 -30.5t-30.5 -23.5l66 -273h-106l-52 258h-7v-258h-99v0zM140 322h14q14 0 23 11t9 33v231q0 17 -6.5 24.5t-13.5 10.5q-3 0 -5.5 0.5t-4.5 0.5
h-16v-311v0z" />
    <glyph glyph-name="S" unicode="S" horiz-adv-x="314" 
d="M35 245h99v-162q0 -7 4 -11t9 -6q3 -1 5.5 -1.5t4.5 -0.5q9 0 14 3t7 7q1 3 1.5 5.5t0.5 3.5v132v3.5v3.5q-2 16 -10 30.5t-17 24.5l-80 90q-4 5 -8 9.5t-8 9.5q-10 13 -16 28.5t-6 37.5v139q0 81 27 95t61 14h60h2.5h3.5q33 0 61.5 -15.5t28.5 -93.5v-115h-99v134
q0 9 -5 15.5t-10 8.5q-2 1 -3.5 1.5t-3.5 0.5q-9 0 -16.5 -7.5t-7.5 -18.5v-125q0 -12 0.5 -20.5t4.5 -16.5q2 -5 6 -10.5t10 -12.5l87 -94q2 -2 4 -4.5t4 -4.5q12 -13 20.5 -28t8.5 -41v-145q0 -9 -0.5 -20.5t-3.5 -23.5q-5 -24 -25 -44t-68 -20h-59q-46 0 -64 19.5
t-22 43.5q-2 10 -2 20v19v3v3v137v0z" />
    <glyph glyph-name="T" unicode="T" horiz-adv-x="273" 
d="M87 0v633h-75v67h249v-67h-75v-633h-99v0z" />
    <glyph glyph-name="U" unicode="U" horiz-adv-x="327" 
d="M41 700h99v-614q0 -8 5 -13t10 -7q2 -1 4 -1.5t4 -0.5t4 0.5t5 1.5q5 3 10 8t5 12v614h99v-592v-1.5v-1.5q0 -9 -0.5 -20t-2.5 -22q-5 -24 -23 -43.5t-63 -19.5h-67h-10.5t-11.5 1q-25 2 -46 21t-21 85v593v0z" />
    <glyph glyph-name="V" unicode="V" horiz-adv-x="327" 
d="M97 0l-79 700h101l48 -521l39 521h103l-76 -700h-136v0z" />
    <glyph glyph-name="W" unicode="W" horiz-adv-x="525" 
d="M263 503l-37 -503h-145l-63 700h106l27 -511l37 511h149l36 -511l28 511h106l-64 -700h-145l-35 503v0z" />
    <glyph glyph-name="X" unicode="X" horiz-adv-x="326" 
d="M18 0l66 357l-66 343h104l36 -278l31 278h104l-61 -343l76 -357h-104l-46 292l-36 -292h-104v0z" />
    <glyph glyph-name="Y" unicode="Y" horiz-adv-x="321" 
d="M111 0v184l-93 516h111l32 -293l32 293h110l-93 -516v-184h-99v0z" />
    <glyph glyph-name="Z" unicode="Z" horiz-adv-x="245" 
d="M12 0v77l113 556h-100v67h199v-77l-113 -556h122v-67h-221v0z" />
    <glyph glyph-name="bracketleft" unicode="[" horiz-adv-x="207" 
d="M35 -182v882h149v-64h-59v-754h59v-64h-149v0z" />
    <glyph glyph-name="backslash" unicode="\" horiz-adv-x="231" 
d="M169 -182l-169 882h62l169 -882h-62v0z" />
    <glyph glyph-name="bracketright" unicode="]" horiz-adv-x="209" 
d="M23 -182v64h60v754h-60v64h151v-882h-151v0z" />
    <glyph glyph-name="asciicircum" unicode="^" horiz-adv-x="437" 
d="M218 645l-113 -155h-70l153 210h61l153 -210h-70l-114 155v0z" />
    <glyph glyph-name="underscore" unicode="_" horiz-adv-x="439" 
d="M0 -119h439v-63h-439v63v0z" />
    <glyph glyph-name="grave" unicode="`" horiz-adv-x="260" 
d="M57 700h94l52 -105h-52l-94 105v0z" />
    <glyph glyph-name="a" unicode="a" 
d="M35 392v95q0 33 13.5 48t29.5 20q10 4 20 4.5t16 0.5h57q32 0 52 -20.5t20 -52.5v-487h-84v28l-6.5 -6.5t-10.5 -9.5q-10 -7 -23.5 -12t-31.5 -5q-31 0 -40.5 18.5t-11.5 41.5v8.5v8.5v156q0 19 10.5 42.5t60.5 48.5q3 2 6.5 3.5t7.5 3.5q14 8 26.5 21.5t12.5 35.5v99
q0 6 -3.5 10t-6.5 6q-3 1 -6 1.5t-4 0.5t-3 -0.5t-3 -0.5q-6 -2 -10 -6.5t-4 -10.5v-90h-84v0zM159 298q-13 -7 -21 -13t-12 -12q-5 -7 -6 -14.5t-1 -18.5v-1.5v-0.5v-152q0 -8 5 -14.5t12 -7.5h0.5h1.5q2 0 4 0.5t5 1.5q4 2 8 6.5t4 13.5v212v0z" />
    <glyph glyph-name="b" unicode="b" 
d="M35 0v700h84v-162q13 11 29 19.5t35 8.5q31 0 43 -15t15 -33q2 -9 2 -17v-14v-1.5v-1.5v-407q0 -6 -0.5 -16.5t-3.5 -21.5q-5 -17 -18 -30.5t-40 -13.5q-11 0 -26.5 5.5t-35.5 22.5v-23h-84v0zM119 477v-394q0 -8 5 -12.5t11 -6.5h2h2t4 0.5t6 1.5q3 2 6.5 6t3.5 11v394
q0 7 -3.5 11t-6.5 6q-3 1 -6 1.5t-4 0.5h-2h-2q-6 -2 -11 -6.5t-5 -12.5v0z" />
    <glyph glyph-name="c" unicode="c" 
d="M159 196h84v-109v-3.5v-3.5v-9.5v-9.5q-1 -23 -15 -42t-63 -19h-54q-43 0 -57.5 17.5t-17.5 38.5q-1 7 -1 13.5v12.5v2v2v384v2.5v3.5v13t1 15q3 21 17.5 38.5t56.5 17.5h55q44 0 59 -17.5t18 -38.5q1 -7 1 -14v-14v-1v-2v-102h-84v109q0 9 -3.5 13t-8.5 6q-2 1 -4.5 1
h-4.5t-3.5 -0.5t-3.5 -1.5q-5 -2 -8.5 -6.5t-3.5 -11.5v-402q0 -6 3.5 -10t8.5 -6q2 -1 3.5 -1.5t3.5 -0.5t4.5 0.5t4.5 1.5q5 1 8.5 5t3.5 11v118v0z" />
    <glyph glyph-name="d" unicode="d" 
d="M243 700v-700h-84v23q-6 -7 -13 -12t-14 -8q-10 -4 -19 -6t-15 -2q-30 0 -43 15.5t-17 33.5q-2 9 -2.5 17.5t-0.5 15.5v409q0 7 0.5 15.5t1.5 16.5q3 18 15.5 33t42.5 15q16 0 28.5 -5t20.5 -11q5 -3 9 -6.5t6 -5.5v162h84v0zM119 477v-394q0 -6 5 -11t10 -7
q2 0 3.5 -0.5t3.5 -0.5q1 0 3.5 0.5t5.5 1.5q3 2 6 6t3 11v394q0 1 -0.5 3.5t-1.5 5.5q-1 4 -5 7t-12 3t-14 -5t-7 -12v-0.5v-1.5v0z" />
    <glyph glyph-name="e" unicode="e" 
d="M159 196h84v-113q0 -39 -14 -56t-31 -23q-10 -3 -19.5 -3.5t-15.5 -0.5h-52q-6 0 -14.5 0.5t-17.5 3.5q-17 5 -30.5 22t-13.5 56v395q0 5 1 16t6 24q6 16 21.5 29.5t47.5 13.5h52q36 0 58 -22t22 -60v-226h-124v-175v-2.5t1 -2.5q2 -5 6 -8.5t11 -3.5h2h2q7 1 12.5 5.5
t5.5 11.5v119v0zM119 308h40v175q0 7 -5.5 11.5t-12.5 5.5h-2h-2q-7 0 -11 -3.5t-6 -8.5q-1 -1 -1 -2.5v-2.5v-175v0z" />
    <glyph glyph-name="f" unicode="f" horiz-adv-x="226" 
d="M70 0v500h-58v60h58v53q0 7 0.5 17.5t5.5 21.5q7 18 28 33t68 15h42v-60h-10q-4 0 -9.5 -0.5t-10.5 -1.5q-11 -3 -20.5 -13t-9.5 -35v-30h60v-60h-60v-500h-84v0z" />
    <glyph glyph-name="g" unicode="g" 
d="M243 560v-639q0 1 0 0.5v-1.5q0 -7 -0.5 -20t-4.5 -26q-5 -21 -21.5 -38t-52.5 -17l-50 -1q-36 1 -52.5 16t-21.5 33q-3 11 -4 21t-1 17v25h84v-45v-0.5v-0.5q1 -6 7 -10.5t15 -4.5t12.5 3t4.5 7q1 2 1 4v3v137l-1.5 -1.5l-1.5 -1.5q-10 -10 -26.5 -17.5t-39.5 -7.5
q-26 0 -37.5 15t-14.5 33q-2 9 -2.5 17t-0.5 15v410q0 7 0.5 15t1.5 16q3 19 15 34.5t43 15.5q20 0 36.5 -9t27.5 -21v24h84v0zM119 477v-394q0 -7 4 -11t8 -6q3 -1 5 -1.5t4 -0.5h3.5t3.5 1q5 1 8.5 5.5t3.5 12.5v394q0 8 -3.5 12.5t-8.5 5.5q-2 1 -3.5 1h-3.5t-4 -0.5
t-5 -1.5q-4 -2 -8 -6t-4 -11v0z" />
    <glyph glyph-name="h" unicode="h" 
d="M35 0v700h84v-162q19 14 34.5 20t30.5 8h5h4q26 0 36 -15.5t13 -33.5q0 -6 0.5 -12t0.5 -11v-494h-84v476q0 7 -3 11t-7 6q-3 2 -5.5 2.5t-3.5 0.5h-1.5h-1.5q-5 -1 -9.5 -5t-6.5 -8q-1 -2 -1.5 -3.5t-0.5 -3.5v-476h-84v0z" />
    <glyph glyph-name="i" unicode="i" horiz-adv-x="154" 
d="M35 0v560h84v-560h-84v0zM35 616v84h84v-84h-84v0z" />
    <glyph glyph-name="j" unicode="j" horiz-adv-x="154" 
d="M35 -182v742h84v-742h-84v0zM35 616v84h84v-84h-84v0z" />
    <glyph glyph-name="k" unicode="k" horiz-adv-x="289" 
d="M35 0v700h84v-386h4l46 246h88l-59 -271l73 -289h-86l-62 267h-4v-267h-84v0z" />
    <glyph glyph-name="l" unicode="l" horiz-adv-x="154" 
d="M35 0v700h84v-700h-84v0z" />
    <glyph glyph-name="m" unicode="m" horiz-adv-x="404" 
d="M35 0v560h84v-28q6 6 12.5 11t13.5 9q13 7 24.5 10.5t19.5 3.5q19 0 32 -8.5t20 -24.5q23 22 41.5 27.5t34.5 5.5q26 0 39 -15t13 -68v-483h-84v476q0 8 -6 14t-15 6q-7 0 -13.5 -5t-6.5 -15v-476h-84v478q0 7 -4.5 12t-10.5 6h-0.5h-1.5h-2h-2q-8 -2 -14 -7t-6 -11v-478
h-84v0z" />
    <glyph glyph-name="n" unicode="n" 
d="M35 0v560h84v-23q2 1 8 5.5t14 8.5q11 6 24.5 10.5t28.5 4.5q26 0 36 -15t12 -32q1 -7 1 -13.5v-12.5v-493h-84v476q0 7 -3 11t-6 6t-5.5 2.5t-3.5 0.5q-2 0 -3.5 -0.5t-3.5 -1.5q-4 -2 -8 -5.5t-6 -8.5q-1 -1 -1 -2v-2v-476h-84v0z" />
    <glyph glyph-name="o" unicode="o" 
d="M164 0h-51q-40 0 -56 16.5t-20 35.5q-1 9 -1.5 17.5t-0.5 15.5v0.5v0.5v382v0v1q0 5 1 17.5t6 26.5q6 17 22 32t48 15h53q33 0 49 -15t22 -33q5 -14 6 -26t1 -18v-382q0 -7 -0.5 -16t-2.5 -18q-4 -19 -20 -35.5t-56 -16.5v0zM119 481v-402q0 -8 5 -12.5t11 -6.5h2h2
t4 0.5t6 1.5q3 2 6.5 6t3.5 11v402q0 7 -3.5 11t-6.5 6q-3 1 -6 1.5t-4 0.5h-2h-2q-6 -2 -11 -6.5t-5 -12.5v0z" />
    <glyph glyph-name="p" unicode="p" 
d="M35 -182v742h84v-22q8 8 17.5 14t20.5 10q6 2 12 3t12 1q4 0 8.5 -0.5t9.5 -1.5q16 -4 30 -21.5t14 -59.5v-407v-0.5v-0.5v-15t-2 -17q-3 -18 -15.5 -33t-44.5 -15q-11 0 -27 5.5t-35 22.5v-205h-84v0zM119 477v-394q0 -7 5 -12.5t12 -6.5h0.5h1.5q2 0 3.5 0.5t3.5 0.5
q6 2 10 6.5t4 11.5v394q0 8 -6 13.5t-15 5.5q-8 0 -12 -3.5t-6 -8.5q0 -2 -0.5 -3.5t-0.5 -3.5v0z" />
    <glyph glyph-name="q" unicode="q" 
d="M243 560v-742h-84v205q-10 -10 -22.5 -17t-25.5 -9q-4 -1 -7.5 -1.5t-7.5 -0.5q-31 0 -43.5 15t-15.5 33q-2 9 -2 17v15v0.5v0.5v407q0 6 0.5 16.5t3.5 21.5q5 17 17.5 31t39.5 14q7 0 14.5 -1.5t15.5 -4.5q9 -4 17.5 -9.5t15.5 -12.5v22h84v0zM159 83v394q0 7 -3 11
t-7 6q-3 1 -5.5 1.5t-3.5 0.5t-2.5 -0.5t-3.5 -0.5q-5 -2 -10 -7t-5 -11v-394q0 -6 5 -11t10 -7q2 0 3.5 -0.5t2.5 -0.5t3.5 0.5t5.5 1.5q4 2 7 6t3 11v0z" />
    <glyph glyph-name="r" unicode="r" horiz-adv-x="261" 
d="M35 560h84v-23q9 6 17 11t16 9q10 4 20 6.5t22 2.5q27 0 36.5 -15t11.5 -32q1 -7 1 -13.5v-12.5v-123h-84v106q0 7 -3 11t-7 6q-3 2 -5.5 2.5t-3.5 0.5t-2.5 -0.5t-3.5 -0.5q-5 -2 -10 -7t-5 -12v-476h-84v560v0z" />
    <glyph glyph-name="s" unicode="s" horiz-adv-x="266" 
d="M29 196h84v-115q0 -9 6 -15t13 -6t12 4t7 10q1 2 1.5 3.5t0.5 3.5v101q0 19 -6.5 31.5t-16.5 22.5l-75 78q-11 11 -16.5 20t-7.5 17q-2 7 -2 14.5v15.5v5v5v90v0.5v0.5v12t1 12q2 20 17 37t59 17h47q45 0 61.5 -16.5t20.5 -35.5q1 -7 1.5 -13.5t0.5 -12.5v-104h-84v102
q0 8 -5.5 14t-13.5 6h-2.5t-3.5 -1q-5 -2 -10 -7t-5 -12v-82q0 -13 6 -21t14 -15q2 -1 3.5 -2.5l3.5 -3.5q3 -3 6.5 -6t6.5 -7l46 -59q6 -8 11.5 -13.5t9.5 -10.5q8 -10 12.5 -24t4.5 -48v-103q0 -7 -0.5 -16.5t-3.5 -19.5q-5 -18 -22 -33.5t-58 -15.5h-50q-38 0 -53 16
t-19 35q-1 9 -1.5 17.5t-0.5 15.5v0.5v0.5v111v0z" />
    <glyph glyph-name="t" unicode="t" horiz-adv-x="214" 
d="M12 500v60h45v140h84v-140h61v-60h-61v-403v-6.5t1 -6.5q2 -9 8.5 -16.5t21.5 -7.5h30v-60h-55q-7 0 -15 0.5t-16 1.5q-22 4 -40.5 20.5t-18.5 62.5v415h-45v0z" />
    <glyph glyph-name="u" unicode="u" 
d="M243 560v-560h-84v23q-20 -17 -39 -22.5t-37 -5.5q-25 0 -35 13.5t-12 30.5q-1 7 -1 14v12v1.5v0.5v493h84v-476q0 -7 6 -13.5t13 -6.5q2 0 3.5 0.5t3.5 0.5q6 2 10 6.5t4 12.5v476h84v0z" />
    <glyph glyph-name="v" unicode="v" horiz-adv-x="269" 
d="M78 -2l-60 562h91l26 -434l23 434h93l-69 -562h-104v0z" />
    <glyph glyph-name="w" unicode="w" horiz-adv-x="461" 
d="M88 0l-70 560h89l31 -390l46 390h87l51 -390h1l30 390h90l-77 -560h-93l-44 333l-48 -333h-93v0z" />
    <glyph glyph-name="x" unicode="x" horiz-adv-x="281" 
d="M18 0l53 294l-53 266h89l28 -251l28 251h86l-48 -266l62 -294h-90l-38 262l-30 -262h-87v0z" />
    <glyph glyph-name="y" unicode="y" 
d="M243 560v-639q0 1 0 0.5v-1.5q0 -7 -0.5 -20t-4.5 -26q-5 -21 -21.5 -38t-52.5 -17l-51 -1q-35 1 -51 16t-22 33q-3 11 -4 21t-1 17v25h84v-45v-0.5v-0.5q1 -6 7 -10.5t15 -4.5t12.5 3t4.5 7q1 2 1 4v3v149q-6 -7 -12 -13t-12 -9q-12 -8 -23.5 -10.5t-21.5 -2.5
q-25 0 -36.5 16t-15.5 36q-2 9 -2.5 18.5t-0.5 16.5v473h84v-481q0 -7 4 -11t8 -6q3 -1 5 -1.5t4 -0.5h3.5t3.5 1q5 1 8.5 5.5t3.5 12.5v481h84v0z" />
    <glyph glyph-name="z" unicode="z" horiz-adv-x="212" 
d="M12 0v63l98 437h-93v60h178v-63l-98 -437h103v-60h-188v0z" />
    <glyph glyph-name="braceleft" unicode="{" horiz-adv-x="224" 
d="M112 259q26 -6 33.5 -25.5t8.5 -41.5v-9.5v-9.5v-0.5v-1.5v-226q0 -30 5 -50t28 -20h0.5h0.5h0.5h0.5v-57h-23q-7 1 -19.5 3t-25.5 8q-20 10 -36.5 33t-16.5 68v241q0 29 -4.5 44t-28.5 16v56q24 1 28.5 16.5t4.5 43.5v242q0 45 16.5 68t36.5 33q13 6 25.5 8t19.5 2h23
v-56h-1.5h-0.5q-23 0 -28 -20t-5 -51v-226v-1.5v-0.5v-9.5v-9.5q-1 -22 -8.5 -41.5t-33.5 -25.5v0z" />
    <glyph glyph-name="bar" unicode="|" horiz-adv-x="135" 
d="M35 -224v1053h65v-1053h-65v0z" />
    <glyph glyph-name="braceright" unicode="}" horiz-adv-x="224" 
d="M112 259q-26 6 -33.5 25.5t-8.5 41.5v9.5v9.5v0.5v1.5v226q0 31 -5 51t-28 20h-0.5h-0.5h-0.5h-0.5v56h23q7 0 19.5 -2t25.5 -8q20 -10 36.5 -33t16.5 -68v-242q0 -28 4.5 -43.5t28.5 -16.5v-56q-24 -1 -28.5 -16t-4.5 -44v-242q0 -44 -16.5 -67t-36.5 -33
q-13 -6 -25.5 -8t-19.5 -2l-23 -1v56q1 1 1.5 1h0.5q23 0 28 20t5 51v225v1.5v0.5v9.5v9.5q1 22 8.5 41.5t33.5 25.5v0z" />
    <glyph glyph-name="asciitilde" unicode="~" horiz-adv-x="480" 
d="M35 294v70q14 12 31 22.5t34 18.5q16 7 31 11t29 4q24 0 42 -8t35 -20q2 -1 4.5 -3t5.5 -4q19 -13 39.5 -24t47.5 -11q6 0 11.5 1t11.5 2q20 5 39 16.5t35 24.5q4 3 7.5 6t6.5 6v-70q-14 -12 -31 -22.5t-34 -18.5q-16 -7 -31 -11t-29 -4q-24 0 -42 8.5t-35 19.5
q-2 2 -4.5 3.5t-5.5 3.5q-19 14 -39.5 24.5t-47.5 10.5q-6 0 -11.5 -1t-11.5 -2q-20 -5 -39 -16.5t-35 -24.5q-4 -3 -7.5 -6t-6.5 -6v0z" />
    <glyph glyph-name="x" unicode="&#xd8;" horiz-adv-x="471" 
d="M41 0v700h99v-633h46v633h99v-633h46v633h99v-700h-389v0z" />
    <glyph glyph-name="x" unicode="&#x428;" horiz-adv-x="471" 
d="M41 0v700h99v-633h46v633h99v-633h46v633h99v-700h-389v0z" />
    <glyph glyph-name="p" unicode="&#xd0;" horiz-adv-x="308" 
d="M41 0v700h154q47 0 65 -20t23 -45q1 -10 1.5 -19.5t0.5 -17.5v-241v-0.5v-0.5q0 -9 -0.5 -20t-2.5 -23q-5 -24 -23.5 -43.5t-63.5 -19.5h-55v-250h-99v0zM140 314h12q16 0 25 9t9 25v252q0 19 -8.5 26.5t-17.5 9.5h-3.5h-3.5h-13v-322v0z" />
    <glyph glyph-name="p" unicode="&#x420;" horiz-adv-x="308" 
d="M41 0v700h154q47 0 65 -20t23 -45q1 -10 1.5 -19.5t0.5 -17.5v-241v-0.5v-0.5q0 -9 -0.5 -20t-2.5 -23q-5 -24 -23.5 -43.5t-63.5 -19.5h-55v-250h-99v0zM140 314h12q16 0 25 9t9 25v252q0 19 -8.5 26.5t-17.5 9.5h-3.5h-3.5h-13v-322v0z" />
    <glyph glyph-name="T" unicode="&#xb4;" horiz-adv-x="248" 
d="M35 0v560h114v98h84v-162h-114v-496h-84v0z" />
    <glyph glyph-name="bar" unicode="&#xdc;" horiz-adv-x="320" 
d="M41 0v700h99v-265h53q7 0 15.5 -0.5t17.5 -2.5q22 -5 40.5 -24t18.5 -68v-242q0 -52 -19.5 -71.5t-42.5 -24.5q-9 -1 -17 -1.5t-15 -0.5h-150v0zM140 67h20q10 0 18 8t8 24v228v7t-1 8q-1 10 -6.5 18t-19.5 8h-19v-301v0z" />
    <glyph glyph-name="bar" unicode="&#x42c;" horiz-adv-x="320" 
d="M41 0v700h99v-265h53q7 0 15.5 -0.5t17.5 -2.5q22 -5 40.5 -24t18.5 -68v-242q0 -52 -19.5 -71.5t-42.5 -24.5q-9 -1 -17 -1.5t-15 -0.5h-150v0zM140 67h20q10 0 18 8t8 24v228v7t-1 8q-1 10 -6.5 18t-19.5 8h-19v-301v0z" />
    <glyph glyph-name="V" unicode="&#xb6;" horiz-adv-x="394" 
d="M208 -182h-56v672h-12q-48 0 -72.5 18.5t-34.5 40.5q-6 13 -8 25t-2 21t2 21t8 25q10 22 34.5 40.5t72.5 18.5h68v-882v0zM277 700h56v-882h-56v882v0z" />
    <glyph glyph-name="z" unicode="&#xda;" horiz-adv-x="366" 
d="M88 0v633h-76v67h175v-265h51q7 0 15.5 -0.5t16.5 -2.5q23 -4 42 -23.5t19 -68.5v-242q0 -52 -19.5 -71.5t-42.5 -24.5q-9 -1 -17 -1.5t-15 -0.5h-149v0zM187 67h20q11 0 18 9.5t7 22.5v228v7t-1 8q-2 10 -7 18t-18 8h-19v-301v0z" />
    <glyph glyph-name="z" unicode="&#x42a;" horiz-adv-x="366" 
d="M88 0v633h-76v67h175v-265h51q7 0 15.5 -0.5t16.5 -2.5q23 -4 42 -23.5t19 -68.5v-242q0 -52 -19.5 -71.5t-42.5 -24.5q-9 -1 -17 -1.5t-15 -0.5h-149v0zM187 67h20q11 0 18 9.5t7 22.5v228v7t-1 8q-2 10 -7 18t-18 8h-19v-301v0z" />
    <glyph glyph-name="braceleft" unicode="&#xdb;" horiz-adv-x="468" 
d="M41 0v700h99v-265h52q7 0 15.5 -0.5t16.5 -2.5q23 -4 42 -23.5t19 -68.5v-242q0 -52 -19.5 -71.5t-42.5 -24.5q-9 -1 -17 -1.5t-15 -0.5h-150v0zM140 67h20q10 0 18 8t8 24v228v7t-1 8q-1 10 -6.5 18t-19.5 8h-19v-301v0zM328 0v700h99v-700h-99v0z" />
    <glyph glyph-name="braceleft" unicode="&#x42b;" horiz-adv-x="468" 
d="M41 0v700h99v-265h52q7 0 15.5 -0.5t16.5 -2.5q23 -4 42 -23.5t19 -68.5v-242q0 -52 -19.5 -71.5t-42.5 -24.5q-9 -1 -17 -1.5t-15 -0.5h-150v0zM140 67h20q10 0 18 8t8 24v228v7t-1 8q-1 10 -6.5 18t-19.5 8h-19v-301v0zM328 0v700h99v-700h-99v0z" />
    <glyph glyph-name="d" unicode="&#xc4;" horiz-adv-x="361" 
d="M26 -117v184h7q25 0 34.5 11.5t12.5 25.5q1 5 1 10v9v577h243v-633h25v-184h-99v117h-125v-117h-99v0zM180 633v-510q0 -21 -4 -32t-10 -17q-2 -2 -3.5 -4t-3.5 -3h66v566h-45v0z" />
    <glyph glyph-name="d" unicode="&#x414;" horiz-adv-x="361" 
d="M26 -117v184h7q25 0 34.5 11.5t12.5 25.5q1 5 1 10v9v577h243v-633h25v-184h-99v117h-125v-117h-99v0zM180 633v-510q0 -21 -4 -32t-10 -17q-2 -2 -3.5 -4t-3.5 -3h66v566h-45v0z" />
    <glyph glyph-name="h" unicode="&#xc8;" horiz-adv-x="337" 
d="M41 0v700h99v-406l57 406h99v-700h-99v394l-57 -394h-99v0z" />
    <glyph glyph-name="h" unicode="&#x418;" horiz-adv-x="337" 
d="M41 0v700h99v-406l57 406h99v-700h-99v394l-57 -394h-99v0z" />
    <glyph glyph-name="grave" unicode="&#xc0;" horiz-adv-x="339" 
d="M23 0l74 700h149l70 -700h-98l-16 192h-68l-15 -192h-96v0zM138 259h59l-26 357h-5l-28 -357v0z" />
    <glyph glyph-name="grave" unicode="&#x410;" horiz-adv-x="339" 
d="M23 0l74 700h149l70 -700h-98l-16 192h-68l-15 -192h-96v0zM138 259h59l-26 357h-5l-28 -357v0z" />
    <glyph glyph-name="l" unicode="&#xcc;" horiz-adv-x="524" 
d="M41 700h146l71 -551l79 551h146v-700h-99v539l-73 -539h-98l-73 539v-539h-99v700v0z" />
    <glyph glyph-name="l" unicode="&#x41c;" horiz-adv-x="524" 
d="M41 700h146l71 -551l79 551h146v-700h-99v539l-73 -539h-98l-73 539v-539h-99v700v0z" />
    <glyph glyph-name="quotedbl" unicode="&#xe2;" 
d="M35 0v560h128q33 0 56.5 -18t23.5 -55v-125q0 -22 -10.5 -35t-23.5 -19q-7 -4 -13.5 -5.5t-11.5 -1.5h-14v-6h13q27 0 39.5 -12.5t16.5 -27.5q3 -9 3.5 -17.5t0.5 -14.5v-150q0 -5 -1 -14.5t-5 -19.5q-6 -15 -23 -27t-53 -12h-126v0zM119 60h14q11 0 18.5 6t7.5 21v140
v7.5t-1 9.5q-2 8 -7 15t-17 7h-15v-206v0zM119 500v-178h0.5h1.5h1.5h0.5q16 0 23.5 7.5t10.5 16.5q2 6 2 11.5v9.5v0.5v0.5v109q0 15 -8 19t-18 4h-14v0z" />
    <glyph glyph-name="quotedbl" unicode="&#x432;" 
d="M35 0v560h128q33 0 56.5 -18t23.5 -55v-125q0 -22 -10.5 -35t-23.5 -19q-7 -4 -13.5 -5.5t-11.5 -1.5h-14v-6h13q27 0 39.5 -12.5t16.5 -27.5q3 -9 3.5 -17.5t0.5 -14.5v-150q0 -5 -1 -14.5t-5 -19.5q-6 -15 -23 -27t-53 -12h-126v0zM119 60h14q11 0 18.5 6t7.5 21v140
v7.5t-1 9.5q-2 8 -7 15t-17 7h-15v-206v0zM119 500v-178h0.5h1.5h1.5h0.5q16 0 23.5 7.5t10.5 16.5q2 6 2 11.5v9.5v0.5v0.5v109q0 15 -8 19t-18 4h-14v0z" />
    <glyph glyph-name="t" unicode="&#xd4;" horiz-adv-x="447" 
d="M174 0v73h-47q-40 0 -58 17.5t-24 38.5q-3 13 -3.5 25t-0.5 20v393q0 8 0.5 20t4.5 26q6 20 24 37.5t57 17.5h47v46h99v-46h50q5 0 16 -1.5t24 -7.5q16 -8 29.5 -29t13.5 -63v-393q0 -8 -1 -20t-4 -26q-6 -20 -23.5 -37.5t-54.5 -17.5h-50v-73h-99v0zM174 137v467h-1.5
h-0.5h-1.5h-1.5q-15 0 -22 -11.5t-7 -28.5v-389q0 -3 0.5 -7.5t1.5 -10.5q3 -7 9.5 -13.5t20.5 -6.5h0.5h0.5h0.5h0.5v0zM273 604v-467h1.5h0.5q14 0 20.5 6.5t9.5 13.5q1 6 1.5 10.5t0.5 7.5v389q0 17 -7 29t-23 11h-1.5h-2.5v0z" />
    <glyph glyph-name="t" unicode="&#x424;" horiz-adv-x="447" 
d="M174 0v73h-47q-40 0 -58 17.5t-24 38.5q-3 13 -3.5 25t-0.5 20v393q0 8 0.5 20t4.5 26q6 20 24 37.5t57 17.5h47v46h99v-46h50q5 0 16 -1.5t24 -7.5q16 -8 29.5 -29t13.5 -63v-393q0 -8 -1 -20t-4 -26q-6 -20 -23.5 -37.5t-54.5 -17.5h-50v-73h-99v0zM174 137v467h-1.5
h-0.5h-1.5h-1.5q-15 0 -22 -11.5t-7 -28.5v-389q0 -3 0.5 -7.5t1.5 -10.5q3 -7 9.5 -13.5t20.5 -6.5h0.5h0.5h0.5h0.5v0zM273 604v-467h1.5h0.5q14 0 20.5 6.5t9.5 13.5q1 6 1.5 10.5t0.5 7.5v389q0 17 -7 29t-23 11h-1.5h-2.5v0z" />
    <glyph glyph-name="U" unicode="&#xb5;" 
d="M243 560v-560h-84v42q-2 -9 -6 -14.5t-8 -7.5q-1 -1 -2.5 -1.5t-3.5 -0.5q-1 0 -3 0.5t-3 1.5q-4 2 -8 7.5t-6 14.5v-224h-84v742h84v-459q0 -10 5 -17t10 -10q2 0 3.5 -0.5t2.5 -0.5q2 0 4 1l4 2q4 3 7.5 9t3.5 16v459h84v0z" />
    <glyph glyph-name="e" unicode="&#xc5;" horiz-adv-x="298" 
d="M41 0v700h232v-67h-133v-230h133v-67h-133v-269h135v-67h-234v0z" />
    <glyph glyph-name="e" unicode="&#x415;" horiz-adv-x="298" 
d="M41 0v700h232v-67h-133v-230h133v-67h-133v-269h135v-67h-234v0z" />
    <glyph glyph-name="i" unicode="&#xc9;" horiz-adv-x="337" 
d="M41 0v700h99v-406l57 406h99v-700h-99v394l-57 -394h-99v0zM73 826h72v-31v-1.5v-1.5q1 -8 7 -15t18 -7q9 0 14.5 5t8.5 10q1 3 1.5 5.5t0.5 4.5v31h72v-28q0 -30 -18 -46.5t-50 -16.5h-57q-27 0 -41 10t-20 22q-6 11 -7 20.5t-1 10.5v28v0z" />
    <glyph glyph-name="i" unicode="&#x419;" horiz-adv-x="337" 
d="M41 0v700h99v-406l57 406h99v-700h-99v394l-57 -394h-99v0zM73 826h72v-31v-1.5v-1.5q1 -8 7 -15t18 -7q9 0 14.5 5t8.5 10q1 3 1.5 5.5t0.5 4.5v31h72v-28q0 -30 -18 -46.5t-50 -16.5h-57q-27 0 -41 10t-20 22q-6 11 -7 20.5t-1 10.5v28v0z" />
    <glyph glyph-name="a" unicode="&#xc1;" horiz-adv-x="320" 
d="M41 0v700h222v-67h-123v-226h50q8 0 18 -0.5t20 -3.5q22 -6 39.5 -26t17.5 -66v-213q0 -8 -0.5 -17t-2.5 -18q-5 -24 -24.5 -43.5t-68.5 -19.5h-148v0zM140 67h19q2 0 5 0.5t6 1.5q6 3 11 10t5 21v200q0 19 -6 27.5t-13 11.5q-2 0 -4 0.5t-4 0.5h-19v-273v0z" />
    <glyph glyph-name="a" unicode="&#x411;" horiz-adv-x="320" 
d="M41 0v700h222v-67h-123v-226h50q8 0 18 -0.5t20 -3.5q22 -6 39.5 -26t17.5 -66v-213q0 -8 -0.5 -17t-2.5 -18q-5 -24 -24.5 -43.5t-68.5 -19.5h-148v0zM140 67h19q2 0 5 0.5t6 1.5q6 3 11 10t5 21v200q0 19 -6 27.5t-13 11.5q-2 0 -4 0.5t-4 0.5h-19v-273v0z" />
    <glyph glyph-name="m" unicode="&#xcd;" horiz-adv-x="325" 
d="M41 0v700h99v-297h45v297h99v-700h-99v336h-45v-336h-99v0z" />
    <glyph glyph-name="m" unicode="&#x41d;" horiz-adv-x="325" 
d="M41 0v700h99v-297h45v297h99v-700h-99v336h-45v-336h-99v0z" />
    <glyph glyph-name="u" unicode="&#xd5;" horiz-adv-x="326" 
d="M18 0l66 357l-66 343h104l36 -278l31 278h104l-61 -343l76 -357h-104l-46 292l-36 -292h-104v0z" />
    <glyph glyph-name="u" unicode="&#x425;" horiz-adv-x="326" 
d="M18 0l66 357l-66 343h104l36 -278l31 278h104l-61 -343l76 -357h-104l-46 292l-36 -292h-104v0z" />
    <glyph glyph-name="y" unicode="&#xd9;" horiz-adv-x="467" 
d="M41 0v700h99v-633h46v633h99v-633h46v633h99v-633h25v-184h-98v117h-316v0z" />
    <glyph glyph-name="y" unicode="&#x429;" horiz-adv-x="467" 
d="M41 0v700h99v-633h46v633h99v-633h46v633h99v-633h25v-184h-98v117h-316v0z" />
    <glyph glyph-name="q" unicode="&#xd1;" horiz-adv-x="315" 
d="M187 245h99v-141q0 -60 -21 -80t-46 -23q-6 -1 -11.5 -1h-10.5h-68h-2h-2h-12t-13 1q-22 3 -40.5 23t-18.5 81v492v2v2v16.5t2 18.5q4 24 21.5 44t64.5 20h68h6h6q29 -1 53 -18.5t24 -83.5v-122h-99v137q0 7 -5.5 12.5t-11.5 8.5q-2 1 -4 1.5t-4 0.5t-3.5 -0.5t-3.5 -1.5
q-5 -2 -10 -8t-5 -13v-527q0 -8 5 -13.5t10 -7.5q2 0 3.5 -0.5t3.5 -0.5t4 0.5t4 1.5q6 2 11.5 7.5t5.5 12.5v159v0z" />
    <glyph glyph-name="q" unicode="&#x421;" horiz-adv-x="315" 
d="M187 245h99v-141q0 -60 -21 -80t-46 -23q-6 -1 -11.5 -1h-10.5h-68h-2h-2h-12t-13 1q-22 3 -40.5 23t-18.5 81v492v2v2v16.5t2 18.5q4 24 21.5 44t64.5 20h68h6h6q29 -1 53 -18.5t24 -83.5v-122h-99v137q0 7 -5.5 12.5t-11.5 8.5q-2 1 -4 1.5t-4 0.5t-3.5 -0.5t-3.5 -1.5
q-5 -2 -10 -8t-5 -13v-527q0 -8 5 -13.5t10 -7.5q2 0 3.5 -0.5t3.5 -0.5t4 0.5t4 1.5q6 2 11.5 7.5t5.5 12.5v159v0z" />
    <glyph glyph-name="braceright" unicode="&#xdd;" horiz-adv-x="321" 
d="M35 245h99v-161q0 -7 4 -11.5t9 -6.5q3 -1 6 -1.5t5 -0.5t4 0.5t4 0.5q5 2 10 6.5t5 12.5v251h-82v64h82v215q0 8 -4.5 13t-9.5 7q-2 1 -4.5 1.5t-4.5 0.5t-5 -0.5t-6 -2.5q-5 -2 -9 -6.5t-4 -12.5v-138h-99v114q0 9 0.5 19.5t2.5 20.5q4 26 24 48t72 22h58q43 0 61 -20
t23 -44q3 -12 3.5 -24.5t0.5 -21.5v-0.5v-1.5v-480q0 -59 -19.5 -80.5t-43.5 -25.5q-6 -1 -12.5 -1.5t-12.5 -0.5h-58q-52 0 -71.5 21t-24.5 46q-2 11 -2.5 21.5t-0.5 19.5v137v0z" />
    <glyph glyph-name="braceright" unicode="&#x42d;" horiz-adv-x="321" 
d="M35 245h99v-161q0 -7 4 -11.5t9 -6.5q3 -1 6 -1.5t5 -0.5t4 0.5t4 0.5q5 2 10 6.5t5 12.5v251h-82v64h82v215q0 8 -4.5 13t-9.5 7q-2 1 -4.5 1.5t-4.5 0.5t-5 -0.5t-6 -2.5q-5 -2 -9 -6.5t-4 -12.5v-138h-99v114q0 9 0.5 19.5t2.5 20.5q4 26 24 48t72 22h58q43 0 61 -20
t23 -44q3 -12 3.5 -24.5t0.5 -21.5v-0.5v-1.5v-480q0 -59 -19.5 -80.5t-43.5 -25.5q-6 -1 -12.5 -1.5t-12.5 -0.5h-58q-52 0 -71.5 21t-24.5 46q-2 11 -2.5 21.5t-0.5 19.5v137v0z" />
    <glyph glyph-name="periodcentered" unicode="&#x2219;" horiz-adv-x="166" 
d="M35 260v96h96v-96h-96v0z" />
    <glyph glyph-name="f" unicode="&#xc6;" horiz-adv-x="461" 
d="M181 700h99v-313h2l46 313h99l-71 -335l82 -365h-99l-57 313h-2v-313h-99v313h-2l-57 -313h-99l82 365l-71 335h99l46 -313h2v313v0z" />
    <glyph glyph-name="f" unicode="&#x416;" horiz-adv-x="461" 
d="M181 700h99v-313h2l46 313h99l-71 -335l82 -365h-99l-57 313h-2v-313h-99v313h-2l-57 -313h-99l82 365l-71 335h99l46 -313h2v313v0z" />
    <glyph glyph-name="j" unicode="&#xca;" horiz-adv-x="321" 
d="M41 0v700h99v-301l50 301h98l-61 -331l71 -369h-95l-63 333v-333h-99v0z" />
    <glyph glyph-name="j" unicode="&#x41a;" horiz-adv-x="321" 
d="M41 0v700h99v-301l50 301h98l-61 -331l71 -369h-95l-63 333v-333h-99v0z" />
    <glyph glyph-name="b" unicode="&#xc2;" horiz-adv-x="326" 
d="M41 0v700h147h13t14 -1q26 -4 47 -23.5t21 -77.5v-146q0 -5 -1 -16t-5 -23q-6 -15 -20.5 -28t-44.5 -14v-7h0.5h0.5h0.5h0.5q35 0 53 -22t18 -52v-193q0 -8 -1 -19.5t-5 -24.5q-7 -20 -27.5 -36.5t-64.5 -16.5h-146v0zM140 67h11q17 0 26 10t9 26v190q0 21 -10 31.5
t-23 10.5h-13v-268v0zM140 399h10q20 0 28 8t8 24v167q0 15 -10.5 25t-24.5 10h-11v-234v0z" />
    <glyph glyph-name="b" unicode="&#x412;" horiz-adv-x="326" 
d="M41 0v700h147h13t14 -1q26 -4 47 -23.5t21 -77.5v-146q0 -5 -1 -16t-5 -23q-6 -15 -20.5 -28t-44.5 -14v-7h0.5h0.5h0.5h0.5q35 0 53 -22t18 -52v-193q0 -8 -1 -19.5t-5 -24.5q-7 -20 -27.5 -36.5t-64.5 -16.5h-146v0zM140 67h11q17 0 26 10t9 26v190q0 21 -10 31.5
t-23 10.5h-13v-268v0zM140 399h10q20 0 28 8t8 24v167q0 15 -10.5 25t-24.5 10h-11v-234v0z" />
    <glyph glyph-name="n" unicode="&#xce;" horiz-adv-x="326" 
d="M285 587v-474q0 -9 -0.5 -22t-4.5 -27q-6 -24 -24 -44t-59 -20h-68q-41 0 -59 20t-24 44q-4 14 -4.5 27t-0.5 22v474q0 9 0.5 22t4.5 27q6 24 24 44t59 20h68q41 0 59 -20t24 -44q4 -14 4.5 -27t0.5 -22v0zM140 610v-520q0 -11 4.5 -16.5t9.5 -7.5q2 -1 4.5 -1.5
t4.5 -0.5t4 0.5t4 1.5q5 2 10 8.5t5 15.5v520q0 10 -5 16t-10 8q-2 1 -4 1.5t-4 0.5t-4.5 -0.5t-4.5 -1.5q-5 -2 -9.5 -7.5t-4.5 -16.5v0z" />
    <glyph glyph-name="n" unicode="&#x41e;" horiz-adv-x="326" 
d="M285 587v-474q0 -9 -0.5 -22t-4.5 -27q-6 -24 -24 -44t-59 -20h-68q-41 0 -59 20t-24 44q-4 14 -4.5 27t-0.5 22v474q0 9 0.5 22t4.5 27q6 24 24 44t59 20h68q41 0 59 -20t24 -44q4 -14 4.5 -27t0.5 -22v0zM140 610v-520q0 -11 4.5 -16.5t9.5 -7.5q2 -1 4.5 -1.5
t4.5 -0.5t4 0.5t4 1.5q5 2 10 8.5t5 15.5v520q0 10 -5 16t-10 8q-2 1 -4 1.5t-4 0.5t-4.5 -0.5t-4.5 -1.5q-5 -2 -9.5 -7.5t-4.5 -16.5v0z" />
    <glyph glyph-name="asterisk" unicode="&#xea;" horiz-adv-x="285" 
d="M35 0v560h84v-253l44 253h86l-57 -271l75 -289h-88l-60 260v-260h-84v0z" />
    <glyph glyph-name="asterisk" unicode="&#x43a;" horiz-adv-x="285" 
d="M35 0v560h84v-253l44 253h86l-57 -271l75 -289h-88l-60 260v-260h-84v0z" />
    <glyph glyph-name="g" unicode="&#xc7;" horiz-adv-x="315" 
d="M29 245h99v-158v-1.5v-1.5q1 -6 7 -12t13 -7q1 -1 2 -1h2t2.5 0.5t3.5 0.5q6 2 11.5 8t5.5 14v201v8t-1 9q-3 11 -13.5 20.5t-37.5 9.5h-39v64h39q32 0 41.5 12t10.5 26v5.5v5.5v169v3.5t-2 5.5q-2 4 -6.5 7t-13.5 3q-2 0 -5 -0.5t-5 -1.5q-6 -2 -10.5 -6.5t-4.5 -10.5
v-141h-99v113q0 9 0.5 22.5t5.5 27.5q7 23 26.5 42t63.5 19h50q8 0 18.5 -0.5t20.5 -3.5q23 -6 41.5 -29t18.5 -78v-145q0 -5 -1 -14.5t-5 -19.5q-6 -14 -21 -26t-46 -13v-7h0.5h1.5h1.5h0.5q5 0 11 -0.5t12 -2.5q17 -5 31.5 -21t14.5 -52v-182v-4v-4v-12.5v-12.5
q-3 -28 -21 -50.5t-78 -22.5h-56q-7 0 -15.5 0.5t-16.5 2.5q-22 6 -40 27t-18 75v140v0z" />
    <glyph glyph-name="g" unicode="&#x417;" horiz-adv-x="315" 
d="M29 245h99v-158v-1.5v-1.5q1 -6 7 -12t13 -7q1 -1 2 -1h2t2.5 0.5t3.5 0.5q6 2 11.5 8t5.5 14v201v8t-1 9q-3 11 -13.5 20.5t-37.5 9.5h-39v64h39q32 0 41.5 12t10.5 26v5.5v5.5v169v3.5t-2 5.5q-2 4 -6.5 7t-13.5 3q-2 0 -5 -0.5t-5 -1.5q-6 -2 -10.5 -6.5t-4.5 -10.5
v-141h-99v113q0 9 0.5 22.5t5.5 27.5q7 23 26.5 42t63.5 19h50q8 0 18.5 -0.5t20.5 -3.5q23 -6 41.5 -29t18.5 -78v-145q0 -5 -1 -14.5t-5 -19.5q-6 -14 -21 -26t-46 -13v-7h0.5h1.5h1.5h0.5q5 0 11 -0.5t12 -2.5q17 -5 31.5 -21t14.5 -52v-182v-4v-4v-12.5v-12.5
q-3 -28 -21 -50.5t-78 -22.5h-56q-7 0 -15.5 0.5t-16.5 2.5q-22 6 -40 27t-18 75v140v0z" />
    <glyph glyph-name="k" unicode="&#xcb;" horiz-adv-x="340" 
d="M155 633v-525q0 -9 -1 -21.5t-5 -26.5q-7 -23 -26.5 -41.5t-61.5 -18.5h-51v67h0.5h1.5h1.5h0.5q20 0 31 14t11 33v586h243v-700h-99v633h-45v0z" />
    <glyph glyph-name="k" unicode="&#x41b;" horiz-adv-x="340" 
d="M155 633v-525q0 -9 -1 -21.5t-5 -26.5q-7 -23 -26.5 -41.5t-61.5 -18.5h-51v67h0.5h1.5h1.5h0.5q20 0 31 14t11 33v586h243v-700h-99v633h-45v0z" />
    <glyph glyph-name="c" unicode="&#xc3;" horiz-adv-x="254" 
d="M41 0v700h201v-67h-102v-633h-99v0z" />
    <glyph glyph-name="c" unicode="&#x413;" horiz-adv-x="254" 
d="M41 0v700h201v-67h-102v-633h-99v0z" />
    <glyph glyph-name="o" unicode="&#xcf;" horiz-adv-x="326" 
d="M41 0v700h244v-700h-99v633h-46v-633h-99v0z" />
    <glyph glyph-name="o" unicode="&#x41f;" horiz-adv-x="326" 
d="M41 0v700h244v-700h-99v633h-46v-633h-99v0z" />
    <glyph glyph-name="three" unicode="&#xf3;" 
d="M243 560v-639q0 1 0 0.5v-1.5q0 -7 -0.5 -20t-4.5 -26q-5 -21 -21.5 -38t-52.5 -17l-51 -1q-35 1 -51 16t-22 33q-3 11 -4 21t-1 17v25h84v-45v-0.5v-0.5q1 -6 7 -10.5t15 -4.5t12.5 3t4.5 7q1 2 1 4v3v149q-6 -7 -12 -13t-12 -9q-12 -8 -23.5 -10.5t-21.5 -2.5
q-25 0 -36.5 16t-15.5 36q-2 9 -2.5 18.5t-0.5 16.5v473h84v-481q0 -7 4 -11t8 -6q3 -1 5 -1.5t4 -0.5h3.5t3.5 1q5 1 8.5 5.5t3.5 12.5v481h84v0z" />
    <glyph glyph-name="three" unicode="&#x443;" 
d="M243 560v-639q0 1 0 0.5v-1.5q0 -7 -0.5 -20t-4.5 -26q-5 -21 -21.5 -38t-52.5 -17l-51 -1q-35 1 -51 16t-22 33q-3 11 -4 21t-1 17v25h84v-45v-0.5v-0.5q1 -6 7 -10.5t15 -4.5t12.5 3t4.5 7q1 2 1 4v3v149q-6 -7 -12 -13t-12 -9q-12 -8 -23.5 -10.5t-21.5 -2.5
q-25 0 -36.5 16t-15.5 36q-2 9 -2.5 18.5t-0.5 16.5v473h84v-481q0 -7 4 -11t8 -6q3 -1 5 -1.5t4 -0.5h3.5t3.5 1q5 1 8.5 5.5t3.5 12.5v481h84v0z" />
    <glyph glyph-name="S" unicode="&#xb3;" horiz-adv-x="154" 
d="M35 0v560h84v-560h-84v0zM35 616v84h84v-84h-84v0z" />
    <glyph glyph-name="underscore" unicode="&#xbf;" horiz-adv-x="222" 
d="M69 0v560h84v-560h-84v0zM15 619v81h83v-81h-83v0zM124 619v81h83v-81h-83v0z" />
    <glyph glyph-name="bracketleft" unicode="&#xbb;" horiz-adv-x="315" 
d="M115 497l43 -210l-43 -210h-80l44 210l-44 210h80v0zM237 497l43 -210l-43 -210h-80l44 210l-44 210h80v0z" />
    <glyph glyph-name="bracketright" unicode="&#xbd;" horiz-adv-x="314" 
d="M35 245h99v-162q0 -7 4 -11t9 -6q3 -1 5.5 -1.5t4.5 -0.5q9 0 14 3t7 7q1 3 1.5 5.5t0.5 3.5v132v3.5v3.5q-2 16 -10 30.5t-17 24.5l-80 90q-4 5 -8 9.5t-8 9.5q-10 13 -16 28.5t-6 37.5v139q0 81 27 95t61 14h60h2.5h3.5q33 0 61.5 -15.5t28.5 -93.5v-115h-99v134
q0 9 -5 15.5t-10 8.5q-2 1 -3.5 1.5t-3.5 0.5q-9 0 -16.5 -7.5t-7.5 -18.5v-125q0 -12 0.5 -20.5t4.5 -16.5q2 -5 6 -10.5t10 -12.5l87 -94q2 -2 4 -4.5t4 -4.5q12 -13 20.5 -28t8.5 -41v-145q0 -9 -0.5 -20.5t-3.5 -23.5q-5 -24 -25 -44t-68 -20h-59q-46 0 -64 19.5
t-22 43.5q-2 10 -2 20v19v3v3v137v0z" />
    <glyph glyph-name="space" 
 />
    <glyph glyph-name="two" unicode="&#xf2;" horiz-adv-x="404" 
d="M35 0v560h84v-28q6 6 12.5 11t13.5 9q13 7 24.5 10.5t19.5 3.5q19 0 32 -8.5t20 -24.5q23 22 41.5 27.5t34.5 5.5q26 0 39 -15t13 -68v-483h-84v476q0 8 -6 14t-15 6q-7 0 -13.5 -5t-6.5 -15v-476h-84v478q0 7 -4.5 12t-10.5 6h-0.5h-1.5h-2h-2q-8 -2 -14 -7t-6 -11v-478
h-84v0z" />
    <glyph glyph-name="two" unicode="&#x442;" horiz-adv-x="404" 
d="M35 0v560h84v-28q6 6 12.5 11t13.5 9q13 7 24.5 10.5t19.5 3.5q19 0 32 -8.5t20 -24.5q23 22 41.5 27.5t34.5 5.5q26 0 39 -15t13 -68v-483h-84v476q0 8 -6 14t-15 6q-7 0 -13.5 -5t-6.5 -15v-476h-84v478q0 7 -4.5 12t-10.5 6h-0.5h-1.5h-2h-2q-8 -2 -14 -7t-6 -11v-478
h-84v0z" />
    <glyph glyph-name="asciitilde" unicode="&#xde;" horiz-adv-x="473" 
d="M140 403h48v184q0 9 0.5 22t4.5 27q5 24 23.5 44t60.5 20h66q41 0 59.5 -19.5t24.5 -43.5q4 -14 4.5 -27.5t0.5 -22.5v-481v-2v-2q0 -8 -0.5 -19t-2.5 -23q-5 -22 -23.5 -41t-62.5 -19h-67q-45 0 -63 19t-22 41q-3 11 -3 21.5v18.5v3.5v2.5v230h-48v-336h-99v700h99v-297
v0zM287 612v-524q0 -9 6 -16.5t16 -7.5t16 6t8 14v2v2v524q0 2 -0.5 3.5t-1.5 3.5q-2 6 -8.5 11.5t-13.5 5.5q-8 0 -15 -7.5t-7 -16.5v0z" />
    <glyph glyph-name="asciitilde" unicode="&#x42e;" horiz-adv-x="473" 
d="M140 403h48v184q0 9 0.5 22t4.5 27q5 24 23.5 44t60.5 20h66q41 0 59.5 -19.5t24.5 -43.5q4 -14 4.5 -27.5t0.5 -22.5v-481v-2v-2q0 -8 -0.5 -19t-2.5 -23q-5 -22 -23.5 -41t-62.5 -19h-67q-45 0 -63 19t-22 41q-3 11 -3 21.5v18.5v3.5v2.5v230h-48v-336h-99v700h99v-297
v0zM287 612v-524q0 -9 6 -16.5t16 -7.5t16 6t8 14v2v2v524q0 2 -0.5 3.5t-1.5 3.5q-2 6 -8.5 11.5t-13.5 5.5q-8 0 -15 -7.5t-7 -16.5v0z" />
    <glyph glyph-name="I" unicode="&#xa9;" horiz-adv-x="566" 
d="M169 700h216q102 0 124 -35.5t22 -118.5v-392q0 -111 -29 -132.5t-73 -21.5h-292q-47 0 -74.5 24t-27.5 130v392q0 95 24.5 124.5t109.5 29.5v0zM188 63h197q49 0 58 23t9 73v382q0 50 -9 73t-58 23h-197q-53 0 -63.5 -20.5t-10.5 -75.5v-389q0 -55 13 -72t61 -17v0z
M303 308h82v-92q0 -52 -18.5 -67.5t-40.5 -17.5h-6.5h-6.5h-55h-1.5h-1.5h-11t-12 1q-17 3 -32 19.5t-15 64.5v274v2v3v11.5t1 13.5q2 20 16 37t56 17h55h4.5h5.5q23 -1 42.5 -14.5t19.5 -68.5v-85h-82v102q0 8 -4.5 13.5t-13.5 5.5t-13.5 -5.5t-4.5 -13.5v-314
q0 -9 5.5 -13.5t12.5 -4.5q8 0 13 4.5t5 13.5v114v0z" />
    <glyph glyph-name="H" unicode="&#xa8;" horiz-adv-x="292" 
d="M35 0v700h233v-67h-134v-230h134v-67h-134v-269h135v-67h-234v0zM38 735v91h91v-91h-91v0zM174 735v91h91v-91h-91v0z" />
    <glyph glyph-name="J" unicode="&#xaa;" horiz-adv-x="321" 
d="M286 245v-137q0 -9 -0.5 -19.5t-2.5 -21.5q-4 -25 -23 -46t-67 -21h-64q-6 0 -12.5 0.5t-12.5 1.5q-24 4 -43.5 25.5t-19.5 80.5v480v1.5v0.5q0 9 0.5 21.5t3.5 24.5q5 24 23 44t61 20h64h10.5t11.5 -1q26 -4 47.5 -25t21.5 -84v-114h-97v138q0 6 -4.5 11t-10.5 8
q-2 1 -5 2t-5 1h-2t-2 -1q-7 -1 -12.5 -7t-5.5 -14v-215h82v-64h-82v-251q0 -8 5.5 -13t12.5 -7h2h2q2 0 4 0.5t4 0.5q6 3 11.5 7.5t5.5 11.5v161h99v0z" />
    <glyph glyph-name="quoteright" unicode="&#x2019;" horiz-adv-x="169" 
d="M38 604v96h96v-96q0 -7 -1 -14.5t-3 -15.5q-4 -15 -10.5 -29.5t-16.5 -27.5h-68q3 3 7 7.5t9 10.5q8 12 14.5 29t7.5 40h-35v0z" />
    <glyph glyph-name="OE" unicode="&#x152;" horiz-adv-x="464" 
d="M41 0v700h99v-265h45v265h99v-265h53q7 0 15.5 -0.5t17.5 -2.5q22 -6 40.5 -25.5t18.5 -67.5v-241q0 -52 -19.5 -71.5t-42.5 -24.5q-9 -1 -17 -1.5t-15 -0.5h-150v368h-45v-368h-99v0zM284 67h20q10 0 18 8t8 24v228v7t-1 8q-1 10 -6.5 18t-19.5 8h-19v-301v0z" />
    <glyph glyph-name="s" 
 />
    <glyph glyph-name="r" unicode="&#xd3;" horiz-adv-x="332" 
d="M314 700l-97 -593q-12 -73 -39.5 -90t-82.5 -17h-58v67h23h1.5h1.5h2h2q17 0 32.5 7t20.5 41l7 43l-109 542h107l50 -383l40 383h99v0z" />
    <glyph glyph-name="r" unicode="&#x423;" horiz-adv-x="332" 
d="M314 700l-97 -593q-12 -73 -39.5 -90t-82.5 -17h-58v67h23h1.5h1.5h2h2q17 0 32.5 7t20.5 41l7 43l-109 542h107l50 -383l40 383h99v0z" />
    <glyph glyph-name="Scaron" unicode="&#xd2;" horiz-adv-x="273" 
d="M87 0v633h-75v67h249v-67h-75v-633h-99v0z" />
    <glyph glyph-name="Scaron" unicode="&#x422;" horiz-adv-x="273" 
d="M87 0v633h-75v67h249v-67h-75v-633h-99v0z" />
    <glyph glyph-name="backslash" 
 />
    <glyph glyph-name="perthousand" unicode="&#x160;" horiz-adv-x="479" 
d="M155 633v-525q0 -9 -1 -21.5t-5 -26.5q-7 -23 -26.5 -41.5t-61.5 -18.5h-51v67h0.5h1.5h1.5h0.5q20 0 31 14t11 33v586h243v-265h52q7 0 15.5 -0.5t16.5 -2.5q23 -4 42 -23.5t19 -68.5v-242q0 -52 -19.5 -71.5t-42.5 -24.5q-9 -1 -17 -1.5t-15 -0.5h-150v633h-45v0z
M299 67h20q10 0 18 8t8 24v228v7t-1 8q-1 10 -6.5 18t-19.5 8h-19v-301v0z" />
    <glyph glyph-name="nine" 
 />
    <glyph glyph-name="colon" 
 />
    <glyph glyph-name="w" unicode="&#xbc;" horiz-adv-x="154" 
d="M35 -182v742h84v-742h-84v0zM35 616v84h84v-84h-84v0z" />
    <glyph glyph-name="v" unicode="&#x2030;" horiz-adv-x="748" 
d="M54 0l306 700h91l-306 -700h-91v0zM397 0h-55q-43 0 -56.5 15.5t-15.5 33.5q-1 5 -1 10v10v2v2v136q0 7 0.5 14.5t1.5 16.5q4 18 18.5 33t52.5 15h55q6 0 14 -0.5t17 -3.5q16 -6 29 -22t13 -53v-136q0 -41 -16 -55t-35 -17q-5 -1 -11 -1h-11v0zM390 71v146
q0 10 -6.5 15.5t-14.5 5.5h-2t-2 -1q-6 -1 -11 -6.5t-5 -13.5v-146q0 -8 5 -13.5t11 -6.5q1 -1 2 -1h2q8 0 14.5 5.5t6.5 15.5v0zM640 0h-55q-43 0 -56.5 15.5t-15.5 33.5q-1 5 -1 10v10v2v2v136q0 7 0.5 14.5t1.5 16.5q4 18 18.5 33t52.5 15h55q6 0 14 -0.5t17 -3.5
q16 -6 29 -22t13 -53v-136q0 -41 -16 -55t-35 -17q-5 -1 -11 -1h-11v0zM633 71v146q0 10 -6.5 15.5t-14.5 5.5h-2t-2 -1q-6 -1 -11 -6.5t-5 -13.5v-146q0 -8 5 -13.5t11 -6.5q1 -1 2 -1h2q8 0 14.5 5.5t6.5 15.5v0zM163 412h-55q-43 0 -56.5 15.5t-15.5 33.5q-1 5 -1 10v10
v2v2v136q0 7 0.5 14.5t1.5 16.5q4 18 18.5 33t52.5 15h55q6 0 14 -0.5t17 -3.5q16 -6 29 -22t13 -53v-136q0 -41 -16 -55t-35 -17q-5 -1 -11 -1h-11v0zM156 483v146q0 10 -6.5 15.5t-14.5 5.5h-2t-2 -1q-6 -1 -11 -6.5t-5 -13.5v-146q0 -8 5 -13.5t11 -6.5q1 -1 2 -1h2
q8 0 14.5 5.5t6.5 15.5v0z" />
    <glyph glyph-name="Y" 
 />
    <glyph glyph-name="X" 
 />
    <glyph glyph-name="asciicircum" 
 />
    <glyph glyph-name="semicolon" 
 />
    <glyph glyph-name="equal" 
 />
    <glyph glyph-name="question" unicode="&#xf9;" horiz-adv-x="441" 
d="M369 560v-500h37v-158h-73v98h-48v28q-6 -6 -12.5 -11t-13.5 -9q-13 -7 -24.5 -10t-19.5 -3h-4.5h-4.5q-15 2 -27.5 9t-16.5 23q-8 -7 -15 -12.5t-14 -9.5q-11 -5 -22 -7.5t-24 -2.5q-27 0 -37.5 16.5t-13.5 36.5q-1 8 -1 15v14v483h84v-476v-2t1 -2q1 -6 6.5 -11
t13.5 -5q2 0 3.5 0.5t3.5 0.5q5 2 9 6.5t4 12.5v476h84v-478q0 -6 3.5 -10.5t8.5 -6.5q1 0 3 -0.5t3 -0.5q2 0 4 0.5t4 1.5q5 2 10 6t5 10v478h84v0z" />
    <glyph glyph-name="question" unicode="&#x449;" horiz-adv-x="441" 
d="M369 560v-500h37v-158h-73v98h-48v28q-6 -6 -12.5 -11t-13.5 -9q-13 -7 -24.5 -10t-19.5 -3h-4.5h-4.5q-15 2 -27.5 9t-16.5 23q-8 -7 -15 -12.5t-14 -9.5q-11 -5 -22 -7.5t-24 -2.5q-27 0 -37.5 16.5t-13.5 36.5q-1 8 -1 15v14v483h84v-476v-2t1 -2q1 -6 6.5 -11
t13.5 -5q2 0 3.5 0.5t3.5 0.5q5 2 9 6.5t4 12.5v476h84v-478q0 -6 3.5 -10.5t8.5 -6.5q1 0 3 -0.5t3 -0.5q2 0 4 0.5t4 1.5q5 2 10 6t5 10v478h84v0z" />
    <glyph glyph-name="A" unicode="&#xfa;" horiz-adv-x="309" 
d="M76 0v500h-66v60h150v-210h47h0.5h0.5q7 0 15.5 -0.5t18.5 -3.5q16 -5 29 -21.5t13 -52.5v-199q0 -38 -15 -52.5t-33 -18.5q-8 -1 -15.5 -1.5t-13.5 -0.5h-131v0zM160 60h14q13 0 18.5 7t6.5 15q1 4 1 7v6v162v6.5t-1 6.5q-2 8 -7 14t-17 6h-15v-230v0z" />
    <glyph glyph-name="A" unicode="&#x44a;" horiz-adv-x="309" 
d="M76 0v500h-66v60h150v-210h47h0.5h0.5q7 0 15.5 -0.5t18.5 -3.5q16 -5 29 -21.5t13 -52.5v-199q0 -38 -15 -52.5t-33 -18.5q-8 -1 -15.5 -1.5t-13.5 -0.5h-131v0zM160 60h14q13 0 18.5 7t6.5 15q1 4 1 7v6v162v6.5t-1 6.5q-2 8 -7 14t-17 6h-15v-230v0z" />
    <glyph glyph-name="exclam" 
 />
    <glyph glyph-name="parenright" unicode="&#xd7;" horiz-adv-x="314" 
d="M174 0v264h-55q-45 0 -63 16t-23 35q-3 9 -3.5 18t-0.5 16v351h99v-334v-5.5t1 -5.5q1 -9 7.5 -16.5t23.5 -7.5h14v369h99v-700h-99v0z" />
    <glyph glyph-name="parenright" unicode="&#x427;" horiz-adv-x="314" 
d="M174 0v264h-55q-45 0 -63 16t-23 35q-3 9 -3.5 18t-0.5 16v351h99v-334v-5.5t1 -5.5q1 -9 7.5 -16.5t23.5 -7.5h14v369h99v-700h-99v0z" />
    <glyph glyph-name="zero" unicode="&#xd6;" horiz-adv-x="322" 
d="M41 0v700h99v-633h46v633h99v-633h25v-184h-99v117h-170v0z" />
    <glyph glyph-name="zero" unicode="&#x426;" horiz-adv-x="322" 
d="M41 0v700h99v-633h46v633h99v-633h25v-184h-99v117h-170v0z" />
    <glyph glyph-name="one" unicode="&#xb9;" horiz-adv-x="590" 
d="M49 -1v700h99l62 -397v397h99v-700h-99l-62 363v-363h-99v0zM352 115v84h209v-84h-209v0zM488 264h-55q-43 0 -56.5 15.5t-15.5 33.5q-1 5 -1 10v10v2v2v136q0 7 0.5 14.5t1.5 16.5q4 18 18.5 33t52.5 15h55q6 0 14 -0.5t17 -3.5q16 -6 29 -22t13 -53v-136q0 -41 -16 -55
t-35 -17q-5 -1 -11 -1h-11v0zM481 335v146q0 10 -6.5 15.5t-14.5 5.5h-2t-2 -1q-6 -1 -11 -6.5t-5 -13.5v-146q0 -8 5 -13.5t11 -6.5q1 -1 2 -1h2q8 0 14.5 5.5t6.5 15.5v0z" />
    <glyph glyph-name="quoteleft" unicode="&#xb8;" 
d="M159 196h84v-113q0 -39 -14 -56t-31 -23q-10 -3 -19.5 -3.5t-15.5 -0.5h-52q-6 0 -14.5 0.5t-17.5 3.5q-17 5 -30.5 22t-13.5 56v395q0 5 1 16t6 24q6 16 21.5 29.5t47.5 13.5h52q36 0 58 -22t22 -60v-226h-124v-175v-2.5t1 -2.5q2 -5 6 -8.5t11 -3.5h2h2q7 1 12.5 5.5
t5.5 11.5v119v0zM119 308h40v175q0 7 -5.5 11.5t-12.5 5.5h-2h-2q-7 0 -11 -3.5t-6 -8.5q-1 -1 -1 -2.5v-2.5v-175v0zM35 619v81h83v-81h-83v0zM159 619v81h84v-81h-84v0z" />
    <glyph glyph-name="five" 
 />
    <glyph glyph-name="Q" 
 />
    <glyph glyph-name="R" unicode="&#xbe;" horiz-adv-x="266" 
d="M29 196h84v-115q0 -9 6 -15t13 -6t12 4t7 10q1 2 1.5 3.5t0.5 3.5v101q0 19 -6.5 31.5t-16.5 22.5l-75 78q-11 11 -16.5 20t-7.5 17q-2 7 -2 14.5v15.5v5v5v90v0.5v0.5v12t1 12q2 20 17 37t59 17h47q45 0 61.5 -16.5t20.5 -35.5q1 -7 1.5 -13.5t0.5 -12.5v-104h-84v102
q0 8 -5.5 14t-13.5 6h-2.5t-3.5 -1q-5 -2 -10 -7t-5 -12v-82q0 -13 6 -21t14 -15q2 -1 3.5 -2.5l3.5 -3.5q3 -3 6.5 -6t6.5 -7l46 -59q6 -8 11.5 -13.5t9.5 -10.5q8 -10 12.5 -24t4.5 -48v-103q0 -7 -0.5 -16.5t-3.5 -19.5q-5 -18 -22 -33.5t-58 -15.5h-50q-38 0 -53 16
t-19 35q-1 9 -1.5 17.5t-0.5 15.5v0.5v0.5v111v0z" />
    <glyph glyph-name="quotedblright" 
 />
    <glyph glyph-name="hyphen" 
 />
    <glyph glyph-name="slash" unicode="&#xfb;" horiz-adv-x="395" 
d="M35 0v560h84v-210h47q40 0 55.5 -15t19.5 -33q1 -8 1.5 -16t0.5 -14v-199q0 -36 -14.5 -51t-31.5 -19q-8 -2 -16.5 -2.5t-14.5 -0.5h-131v0zM119 60h15q14 0 19 7t6 15v6v6v0.5v0.5v162v6.5t-1 6.5q-1 8 -6 14t-17 6h-16v-230v0zM276 0v560h84v-560h-84v0z" />
    <glyph glyph-name="slash" unicode="&#x44b;" horiz-adv-x="395" 
d="M35 0v560h84v-210h47q40 0 55.5 -15t19.5 -33q1 -8 1.5 -16t0.5 -14v-199q0 -36 -14.5 -51t-31.5 -19q-8 -2 -16.5 -2.5t-14.5 -0.5h-131v0zM119 60h15q14 0 19 7t6 15v6v6v0.5v0.5v162v6.5t-1 6.5q-1 8 -6 14t-17 6h-16v-230v0zM276 0v560h84v-560h-84v0z" />
    <glyph glyph-name="period" unicode="&#xfd;" 
d="M35 196h84v-117q0 -7 4 -11t8 -6q3 -1 5 -1.5t4 -0.5h3.5t3.5 1q5 1 8.5 5.5t3.5 12.5v187h-72v56h72v160q0 6 -3.5 10t-6.5 6q-3 1 -6 1.5t-4 0.5t-3 -0.5t-3 -0.5q-6 -2 -10 -6.5t-4 -10.5v-97h-84v82q0 48 16 67t35 23q7 2 13.5 2.5t12.5 0.5h57q5 0 11 -0.5t12 -1.5
q19 -4 35 -22.5t16 -66.5v-385q0 -54 -19 -68.5t-41 -15.5h-7.5h-6.5h-57h-9t-9 1q-22 1 -40.5 16.5t-18.5 65.5v113v0z" />
    <glyph glyph-name="period" unicode="&#x44d;" 
d="M35 196h84v-117q0 -7 4 -11t8 -6q3 -1 5 -1.5t4 -0.5h3.5t3.5 1q5 1 8.5 5.5t3.5 12.5v187h-72v56h72v160q0 6 -3.5 10t-6.5 6q-3 1 -6 1.5t-4 0.5t-3 -0.5t-3 -0.5q-6 -2 -10 -6.5t-4 -10.5v-97h-84v82q0 48 16 67t35 23q7 2 13.5 2.5t12.5 0.5h57q5 0 11 -0.5t12 -1.5
q19 -4 35 -22.5t16 -66.5v-385q0 -54 -19 -68.5t-41 -15.5h-7.5h-6.5h-57h-9t-9 1q-22 1 -40.5 16.5t-18.5 65.5v113v0z" />
    <glyph glyph-name="space" unicode="&#xff;" horiz-adv-x="256" 
d="M12 0l56 228q-22 3 -33.5 14.5t-16.5 24.5q-3 11 -4 20t-1 15v170v1.5v0.5v14.5t1 15.5q3 21 18 38.5t57 17.5h132v-560h-84v228h-3l-42 -228h-80v0zM137 272v228h-16q-11 0 -16 -6t-7 -14q-1 -4 -1 -8v-7v-158q0 -15 4.5 -22.5t9.5 -10.5q3 -1 5.5 -1.5t4.5 -0.5h16v0z
" />
    <glyph glyph-name="space" unicode="&#x44f;" horiz-adv-x="256" 
d="M12 0l56 228q-22 3 -33.5 14.5t-16.5 24.5q-3 11 -4 20t-1 15v170v1.5v0.5v14.5t1 15.5q3 21 18 38.5t57 17.5h132v-560h-84v228h-3l-42 -228h-80v0zM137 272v228h-16q-11 0 -16 -6t-7 -14q-1 -4 -1 -8v-7v-158q0 -15 4.5 -22.5t9.5 -10.5q3 -1 5.5 -1.5t4.5 -0.5h16v0z
" />
    <glyph glyph-name="Z" unicode="&#xa1;" horiz-adv-x="332" 
d="M314 700l-97 -593q-12 -73 -39.5 -90t-82.5 -17h-58v67h23h1.5h1.5h2h2q17 0 32.5 7t20.5 41l7 43l-109 542h107l50 -383l40 383h99v0zM70 826h71v-31q0 -2 0.5 -4.5t1.5 -5.5q3 -5 8.5 -10t14.5 -5q12 0 18 7t7 15v1.5v1.5v31h71v-28q0 -30 -18.5 -46.5t-50.5 -16.5h-55
q-30 0 -49 16.5t-19 46.5v28v0z" />
    <glyph glyph-name="K" unicode="&#xe1;" 
d="M243 700v-60h-83q-18 0 -28.5 -13.5t-12.5 -29.5v-2.5v-2.5v-70q23 30 42.5 37t30.5 7q28 0 38 -16t12 -35q1 -7 1 -13.5v-12.5v-404q0 -44 -16 -61t-35 -22q-7 -1 -14 -1.5t-13 -0.5h-55q-37 0 -52.5 15.5t-19.5 33.5q-2 9 -2.5 18t-0.5 16v0.5v0.5v506q0 9 1.5 21
t5.5 24q8 25 31.5 45t74.5 20h95v0zM119 476v-397q0 -6 5 -11t10 -7q2 0 3.5 -0.5t2.5 -0.5t3.5 0.5t5.5 1.5q4 2 7 6t3 11v397q0 8 -4 13t-10 6q-1 1 -2.5 1h-2.5q-6 0 -11.5 -4t-7.5 -9q-1 -2 -1.5 -3.5t-0.5 -3.5v0z" />
    <glyph glyph-name="K" unicode="&#x431;" 
d="M243 700v-60h-83q-18 0 -28.5 -13.5t-12.5 -29.5v-2.5v-2.5v-70q23 30 42.5 37t30.5 7q28 0 38 -16t12 -35q1 -7 1 -13.5v-12.5v-404q0 -44 -16 -61t-35 -22q-7 -1 -14 -1.5t-13 -0.5h-55q-37 0 -52.5 15.5t-19.5 33.5q-2 9 -2.5 18t-0.5 16v0.5v0.5v506q0 9 1.5 21
t5.5 24q8 25 31.5 45t74.5 20h95v0zM119 476v-397q0 -6 5 -11t10 -7q2 0 3.5 -0.5t2.5 -0.5t3.5 0.5t5.5 1.5q4 2 7 6t3 11v397q0 8 -4 13t-10 6q-1 1 -2.5 1h-2.5q-6 0 -11.5 -4t-7.5 -9q-1 -2 -1.5 -3.5t-0.5 -3.5v0z" />
    <glyph glyph-name="L" unicode="&#xe9;" 
d="M243 560v-560h-84v23q-20 -17 -39 -22.5t-37 -5.5q-25 0 -35 13.5t-12 30.5q-1 7 -1 14v12v1.5v0.5v493h84v-476v-2v-2q2 -6 6.5 -11t12.5 -5q2 0 3.5 0.5t3.5 0.5q6 2 10 6t4 13v476h84v0zM42 700h72v-45q0 -2 0.5 -4.5t1.5 -5.5q3 -5 8.5 -10t14.5 -5q12 0 18 7t7 15
v1.5v1.5v45h72v-42q0 -30 -18.5 -46.5t-50.5 -16.5h-57q-30 0 -49 16.5t-19 46.5v42v0z" />
    <glyph glyph-name="L" unicode="&#x439;" 
d="M243 560v-560h-84v23q-20 -17 -39 -22.5t-37 -5.5q-25 0 -35 13.5t-12 30.5q-1 7 -1 14v12v1.5v0.5v493h84v-476v-2v-2q2 -6 6.5 -11t12.5 -5q2 0 3.5 0.5t3.5 0.5q6 2 10 6t4 13v476h84v0zM42 700h72v-45q0 -2 0.5 -4.5t1.5 -5.5q3 -5 8.5 -10t14.5 -5q12 0 18 7t7 15
v1.5v1.5v45h72v-42q0 -30 -18.5 -46.5t-50.5 -16.5h-57q-30 0 -49 16.5t-19 46.5v42v0z" />
    <glyph glyph-name="exclam" unicode="&#xf0;" 
d="M35 -182v742h84v-22q8 8 17.5 14t20.5 10q6 2 12 3t12 1q4 0 8.5 -0.5t9.5 -1.5q16 -4 30 -21.5t14 -59.5v-407v-0.5v-0.5v-15t-2 -17q-3 -18 -15.5 -33t-44.5 -15q-11 0 -27 5.5t-35 22.5v-205h-84v0zM119 477v-394q0 -7 5 -12.5t12 -6.5h0.5h1.5q2 0 3.5 0.5t3.5 0.5
q6 2 10 6.5t4 11.5v394q0 8 -6 13.5t-15 5.5q-8 0 -12 -3.5t-6 -8.5q0 -2 -0.5 -3.5t-0.5 -3.5v0z" />
    <glyph glyph-name="exclam" unicode="&#x440;" 
d="M35 -182v742h84v-22q8 8 17.5 14t20.5 10q6 2 12 3t12 1q4 0 8.5 -0.5t9.5 -1.5q16 -4 30 -21.5t14 -59.5v-407v-0.5v-0.5v-15t-2 -17q-3 -18 -15.5 -33t-44.5 -15q-11 0 -27 5.5t-35 22.5v-205h-84v0zM119 477v-394q0 -7 5 -12.5t12 -6.5h0.5h1.5q2 0 3.5 0.5t3.5 0.5
q6 2 10 6.5t4 11.5v394q0 8 -6 13.5t-15 5.5q-8 0 -12 -3.5t-6 -8.5q0 -2 -0.5 -3.5t-0.5 -3.5v0z" />
    <glyph glyph-name="quotedblleft" unicode="&#xf1;" 
d="M159 196h84v-109v-3.5v-3.5v-9.5v-9.5q-1 -23 -15 -42t-63 -19h-54q-43 0 -57.5 17.5t-17.5 38.5q-1 7 -1 13.5v12.5v2v2v384v2.5v3.5v13t1 15q3 21 17.5 38.5t56.5 17.5h55q44 0 59 -17.5t18 -38.5q1 -7 1 -14v-14v-1v-2v-102h-84v109q0 9 -3.5 13t-8.5 6q-2 1 -4.5 1
h-4.5t-3.5 -0.5t-3.5 -1.5q-5 -2 -8.5 -6.5t-3.5 -11.5v-402q0 -6 3.5 -10t8.5 -6q2 -1 3.5 -1.5t3.5 -0.5t4.5 0.5t4.5 1.5q5 1 8.5 5t3.5 11v118v0z" />
    <glyph glyph-name="quotedblleft" unicode="&#x441;" 
d="M159 196h84v-109v-3.5v-3.5v-9.5v-9.5q-1 -23 -15 -42t-63 -19h-54q-43 0 -57.5 17.5t-17.5 38.5q-1 7 -1 13.5v12.5v2v2v384v2.5v3.5v13t1 15q3 21 17.5 38.5t56.5 17.5h55q44 0 59 -17.5t18 -38.5q1 -7 1 -14v-14v-1v-2v-102h-84v109q0 9 -3.5 13t-8.5 6q-2 1 -4.5 1
h-4.5t-3.5 -0.5t-3.5 -1.5q-5 -2 -8.5 -6.5t-3.5 -11.5v-402q0 -6 3.5 -10t8.5 -6q2 -1 3.5 -1.5t3.5 -0.5t4.5 0.5t4.5 1.5q5 1 8.5 5t3.5 11v118v0z" />
    <glyph glyph-name="four" unicode="&#x2018;" horiz-adv-x="169" 
d="M131 613v-96h-96v96v5.5v4.5q2 21 10 41t21 36h68l-6 -6t-5 -6q-10 -12 -18 -30t-9 -45h35v0z" />
    <glyph glyph-name="period" unicode="&#xf5;" horiz-adv-x="281" 
d="M18 0l53 294l-53 266h89l28 -251l28 251h86l-48 -266l62 -294h-90l-38 262l-30 -262h-87v0z" />
    <glyph glyph-name="period" unicode="&#x445;" horiz-adv-x="281" 
d="M18 0l53 294l-53 266h89l28 -251l28 251h86l-48 -266l62 -294h-90l-38 262l-30 -262h-87v0z" />
    <glyph glyph-name="at" unicode="&#xb1;" horiz-adv-x="480" 
d="M35 109v63h410v-63h-410v0zM35 389v63h174v173h63v-173h173v-63h-173v-153h-63v153h-174v0z" />
    <glyph glyph-name="P" unicode="&#xb2;" horiz-adv-x="181" 
d="M41 0v700h99v-700h-99v0z" />
    <glyph glyph-name="B" unicode="&#x201d;" horiz-adv-x="315" 
d="M38 604v96h96v-96q0 -7 -1 -14.5t-3 -15.5q-4 -15 -10.5 -29.5t-16.5 -27.5h-68q3 3 7 7.5t9 10.5q8 12 14.5 29t7.5 40h-35v0zM184 604v96h96v-96q0 -7 -1 -14.5t-3 -15.5q-4 -15 -10.5 -29.5t-16.5 -27.5h-68l6 6t5 6q10 12 18 30t9 45h-35v0z" />
    <glyph glyph-name="D" horiz-adv-x="321" 
d="M41 0v700h99v-301l50 301h98l-61 -331l71 -369h-95l-63 333v-333h-99v0z" />
    <glyph glyph-name="space" 
 />
    <glyph glyph-name="E" 
 />
    <glyph glyph-name="C" unicode="&#xef;" 
d="M35 0v560h84v-23q2 1 8 5.5t14 8.5q11 6 24.5 10.5t28.5 4.5q26 0 36 -15t12 -32q1 -7 1 -13.5v-12.5v-493h-84v476q0 7 -3 11t-6 6t-5.5 2.5t-3.5 0.5q-2 0 -3.5 -0.5t-3.5 -1.5q-4 -2 -8 -5.5t-6 -8.5q-1 -1 -1 -2v-2v-476h-84v0z" />
    <glyph glyph-name="C" unicode="&#x43f;" 
d="M35 0v560h84v-23q2 1 8 5.5t14 8.5q11 6 24.5 10.5t28.5 4.5q26 0 36 -15t12 -32q1 -7 1 -13.5v-12.5v-493h-84v476q0 7 -3 11t-6 6t-5.5 2.5t-3.5 0.5q-2 0 -3.5 -0.5t-3.5 -1.5q-4 -2 -8 -5.5t-6 -8.5q-1 -1 -1 -2v-2v-476h-84v0z" />
    <glyph glyph-name="percent" unicode="&#xee;" 
d="M164 0h-51q-40 0 -56 16.5t-20 35.5q-1 9 -1.5 17.5t-0.5 15.5v0.5v0.5v382v0v1q0 5 1 17.5t6 26.5q6 17 22 32t48 15h53q33 0 49 -15t22 -33q5 -14 6 -26t1 -18v-382q0 -7 -0.5 -16t-2.5 -18q-4 -19 -20 -35.5t-56 -16.5v0zM119 481v-402q0 -8 5 -12.5t11 -6.5h2h2
t4 0.5t6 1.5q3 2 6.5 6t3.5 11v402q0 7 -3.5 11t-6.5 6q-3 1 -6 1.5t-4 0.5h-2h-2q-6 -2 -11 -6.5t-5 -12.5v0z" />
    <glyph glyph-name="percent" unicode="&#x43e;" 
d="M164 0h-51q-40 0 -56 16.5t-20 35.5q-1 9 -1.5 17.5t-0.5 15.5v0.5v0.5v382v0v1q0 5 1 17.5t6 26.5q6 17 22 32t48 15h53q33 0 49 -15t22 -33q5 -14 6 -26t1 -18v-382q0 -7 -0.5 -16t-2.5 -18q-4 -19 -20 -35.5t-56 -16.5v0zM119 481v-402q0 -8 5 -12.5t11 -6.5h2h2
t4 0.5t6 1.5q3 2 6.5 6t3.5 11v402q0 7 -3.5 11t-6.5 6q-3 1 -6 1.5t-4 0.5h-2h-2q-6 -2 -11 -6.5t-5 -12.5v0z" />
    <glyph glyph-name="F" horiz-adv-x="365" 
d="M86 0v633h-74v67h283v-67h-110v-197h55q8 0 17.5 -0.5t19.5 -2.5q20 -5 36.5 -22.5t16.5 -59.5v-264v-3.5v-2.5v-9.5v-8.5q-1 -24 -14 -43.5t-60 -19.5h-50v67h5q8 0 14 4.5t6 25.5v237v5.5t-1 5.5q-1 9 -7.5 16.5t-23.5 7.5h-14v-369h-99v0z" />
    <glyph glyph-name="G" unicode="&#xba;" 
d="M243 196v-113q0 -50 -18.5 -65.5t-40.5 -16.5q-4 -1 -9 -1h-9h-57h-6.5h-7.5q-22 1 -41 15.5t-19 68.5v385q0 48 16 66.5t35 22.5q6 1 12 1.5t11 0.5h57q6 0 12.5 -0.5t13.5 -2.5q19 -4 35 -23t16 -67v-82h-84v97q0 6 -3.5 10t-6.5 6q-3 1 -6 1.5t-4 0.5t-3 -0.5t-3 -0.5
q-6 -2 -10 -6.5t-4 -10.5v-160h73v-56h-73v-187q0 -8 5 -12.5t11 -6.5h2h2t4 0.5t6 1.5q3 2 6.5 6t3.5 11v117h84v0z" />
    <glyph glyph-name="ampersand" unicode="&#xab;" horiz-adv-x="315" 
d="M78 77l-43 210l43 210h80l-44 -210l44 -210h-80v0zM200 77l-43 210l43 210h80l-44 -210l44 -210h-80v0z" />
    <glyph glyph-name="quotesingle" unicode="&#xac;" horiz-adv-x="480" 
d="M35 361v63h410v-189h-66v126h-344v0z" />
    <glyph glyph-name="asciitilde" horiz-adv-x="254" 
d="M41 0v700h201v-67h-102v-633h-99v0z" />
    <glyph glyph-name="parenleft" unicode="&#x201a;" horiz-adv-x="169" 
d="M38 0v96h96v-96q0 -6 -1 -13.5t-3 -15.5q-4 -15 -10.5 -30t-16.5 -27l-68 -1q3 4 7 8.5t9 10.5q8 12 14.5 29t7.5 39h-35v0z" />
    <glyph glyph-name="hyphen" unicode="&#xf4;" horiz-adv-x="402" 
d="M243 -182h-84v195q-1 -1 -2 -1.5t-3 -0.5q-12 -7 -29 -11.5t-36 -4.5q-28 0 -39 15.5t-14 34.5q-1 8 -1 15.5v13.5v412q0 7 0.5 14.5t1.5 15.5q3 19 15 34.5t41 15.5q6 0 13.5 -1t15.5 -3q10 -3 20 -8t17 -11v157h84v-157q7 6 17 11t20 8q8 2 15.5 3t13.5 1
q29 0 41 -15.5t15 -34.5q1 -8 1.5 -15.5t0.5 -14.5v-412q0 -6 -0.5 -13.5t-1.5 -15.5q-2 -19 -13 -34.5t-39 -15.5q-19 0 -36 4.5t-29 11.5q-2 0 -3 0.5t-2 1.5v-195v0zM159 82v396q0 7 -5 11.5t-11 6.5h-2h-2t-3 -0.5t-3 -0.5q-6 -2 -10 -6.5t-4 -10.5v-396q0 -1 0.5 -3
t0.5 -3q2 -5 6.5 -8.5t12.5 -3.5t12.5 3.5t6.5 8.5q0 1 0.5 3t0.5 3v0zM243 478v-396q0 -1 0.5 -3t0.5 -3q2 -5 6.5 -8.5t12.5 -3.5t12.5 3.5t6.5 8.5q0 1 0.5 3t0.5 3v396q0 7 -5 11.5t-11 6.5h-2h-2h-2h-2q-6 -2 -11 -6.5t-5 -11.5v0z" />
    <glyph glyph-name="hyphen" unicode="&#x444;" horiz-adv-x="402" 
d="M243 -182h-84v195q-1 -1 -2 -1.5t-3 -0.5q-12 -7 -29 -11.5t-36 -4.5q-28 0 -39 15.5t-14 34.5q-1 8 -1 15.5v13.5v412q0 7 0.5 14.5t1.5 15.5q3 19 15 34.5t41 15.5q6 0 13.5 -1t15.5 -3q10 -3 20 -8t17 -11v157h84v-157q7 6 17 11t20 8q8 2 15.5 3t13.5 1
q29 0 41 -15.5t15 -34.5q1 -8 1.5 -15.5t0.5 -14.5v-412q0 -6 -0.5 -13.5t-1.5 -15.5q-2 -19 -13 -34.5t-39 -15.5q-19 0 -36 4.5t-29 11.5q-2 0 -3 0.5t-2 1.5v-195v0zM159 82v396q0 7 -5 11.5t-11 6.5h-2h-2t-3 -0.5t-3 -0.5q-6 -2 -10 -6.5t-4 -10.5v-396q0 -1 0.5 -3
t0.5 -3q2 -5 6.5 -8.5t12.5 -3.5t12.5 3.5t6.5 8.5q0 1 0.5 3t0.5 3v0zM243 478v-396q0 -1 0.5 -3t0.5 -3q2 -5 6.5 -8.5t12.5 -3.5t12.5 3.5t6.5 8.5q0 1 0.5 3t0.5 3v396q0 7 -5 11.5t-11 6.5h-2h-2h-2h-2q-6 -2 -11 -6.5t-5 -11.5v0z" />
    <glyph glyph-name="N" horiz-adv-x="365" 
d="M86 0v633h-74v67h283v-67h-110v-197h55q8 0 17.5 -0.5t19.5 -2.5q20 -5 36.5 -22.5t16.5 -59.5v-351h-99v334v5.5t-1 5.5q-1 9 -7.5 16.5t-23.5 7.5h-14v-369h-99v0z" />
    <glyph glyph-name="M" 
 />
    <glyph glyph-name="greater" unicode="&#xa0;" 
 />
    <glyph glyph-name="zero" unicode="&#xb0;" horiz-adv-x="263" 
d="M159 476h-54q-37 0 -53.5 20.5t-16.5 59.5v64q0 39 16.5 59.5t53.5 20.5h55q33 0 47 -15t18 -34q2 -8 2.5 -16t0.5 -15v-64q0 -7 -0.5 -15t-2.5 -16q-4 -19 -18.5 -34t-47.5 -15v0zM110 607v-38v-0.5v-0.5v-6t1 -6q1 -7 5 -13t16 -6q10 0 14 6t6 12q1 4 1 7.5v6.5v38v6.5
t-1 7.5q-2 6 -6 12t-14 6q-12 0 -16 -6t-5 -13q-1 -3 -1 -6v-6v-0.5v-0.5v0z" />
    <glyph glyph-name="slash" unicode="&#xa2;" 
d="M243 560v-639q0 1 0 0.5v-1.5q0 -7 -0.5 -20t-4.5 -26q-5 -21 -21.5 -38t-52.5 -17l-50 -1q-36 1 -52.5 16t-21.5 33q-3 11 -4 21t-1 17v25h84v-45v-0.5v-0.5q1 -6 7 -10.5t15 -4.5t12.5 3t4.5 7q1 2 1 4v3v149q-6 -7 -12 -13t-12 -9q-12 -8 -23.5 -10.5t-21.5 -2.5
q-25 0 -36.5 16t-15.5 36q-2 9 -2.5 18.5t-0.5 16.5v473h84v-481q0 -7 4 -11t8 -6q3 -1 5 -1.5t4 -0.5h3.5t3.5 1q5 1 8.5 5.5t3.5 12.5v481h84v0zM42 700h72v-45q0 -2 0.5 -4.5t1.5 -5.5q3 -5 8.5 -10t14.5 -5q12 0 18 7t7 15v1.5v1.5v45h72v-42q0 -30 -18.5 -46.5
t-50.5 -16.5h-49q-33 0 -54.5 16t-21.5 47v42v0z" />
    <glyph glyph-name="quotedblleft" unicode="&#xa4;" horiz-adv-x="729" 
d="M58 47l99 98q-8 10 -14.5 21t-11.5 21q-12 28 -17 55t-5 50t5 50t19 56q5 10 11 20t13 20l-99 99l59 58l97 -98q21 15 43 25.5t44 16.5q16 4 32 6t31 2q13 0 25.5 -1.5t25.5 -3.5q26 -5 51 -16t48 -29l99 98l58 -58l-98 -99q4 -5 9.5 -14.5t11.5 -22.5q9 -19 17 -47
t8 -62q0 -35 -8 -62.5t-17 -47.5q-6 -13 -11.5 -22.5t-9.5 -14.5l98 -98l-58 -59l-99 99q-10 -8 -20.5 -14.5t-20.5 -11.5q-30 -15 -58.5 -19.5t-50.5 -4.5q-23 0 -53.5 5.5t-62.5 22.5q-9 4 -17.5 9.5t-16.5 12.5l-97 -99l-59 59v0zM175 292v-1.5v-1.5q1 -70 52.5 -128
t136.5 -58t135.5 56.5t53.5 124.5v4v4q0 86 -58 137t-128 52h-1.5h-1.5h-4h-4q-68 -3 -124.5 -53.5t-56.5 -135.5v0z" />
    <glyph glyph-name="equal" unicode="&#xe0;" 
d="M35 392v95q0 33 13.5 48t29.5 20q10 4 20 4.5t16 0.5h57q32 0 52 -20.5t20 -52.5v-487h-84v28l-6.5 -6.5t-10.5 -9.5q-10 -7 -23.5 -12t-31.5 -5q-31 0 -40.5 18.5t-11.5 41.5v8.5v8.5v156q0 19 10.5 42.5t60.5 48.5q3 2 6.5 3.5t7.5 3.5q14 8 26.5 21.5t12.5 35.5v99
q0 6 -3.5 10t-6.5 6q-3 1 -6 1.5t-4 0.5t-3 -0.5t-3 -0.5q-6 -2 -10 -6.5t-4 -10.5v-90h-84v0zM159 298q-13 -7 -21 -13t-12 -12q-5 -7 -6 -14.5t-1 -18.5v-1.5v-0.5v-152q0 -8 5 -14.5t12 -7.5h0.5h1.5q2 0 4 0.5t5 1.5q4 2 8 6.5t4 13.5v212v0z" />
    <glyph glyph-name="equal" unicode="&#x430;" 
d="M35 392v95q0 33 13.5 48t29.5 20q10 4 20 4.5t16 0.5h57q32 0 52 -20.5t20 -52.5v-487h-84v28l-6.5 -6.5t-10.5 -9.5q-10 -7 -23.5 -12t-31.5 -5q-31 0 -40.5 18.5t-11.5 41.5v8.5v8.5v156q0 19 10.5 42.5t60.5 48.5q3 2 6.5 3.5t7.5 3.5q14 8 26.5 21.5t12.5 35.5v99
q0 6 -3.5 10t-6.5 6q-3 1 -6 1.5t-4 0.5t-3 -0.5t-3 -0.5q-6 -2 -10 -6.5t-4 -10.5v-90h-84v0zM159 298q-13 -7 -21 -13t-12 -12q-5 -7 -6 -14.5t-1 -18.5v-1.5v-0.5v-152q0 -8 5 -14.5t12 -7.5h0.5h1.5q2 0 4 0.5t5 1.5q4 2 8 6.5t4 13.5v212v0z" />
    <glyph glyph-name="emdash" unicode="&#xa5;" horiz-adv-x="254" 
d="M41 0v700h117v84h84v-151h-102v-633h-99v0z" />
    <glyph glyph-name="endash" unicode="&#xa3;" horiz-adv-x="188" 
d="M12 0v67h11q11 0 18 4.5t7 25.5v603h99v-613q0 -53 -16 -69t-35 -18h-8.5h-9.5h-2.5h-2.5h-61v0z" />
    <glyph glyph-name="yright" unicode="&#xe5;" 
d="M159 196h84v-113q0 -39 -14 -56t-31 -23q-10 -3 -19.5 -3.5t-15.5 -0.5h-52q-6 0 -14.5 0.5t-17.5 3.5q-17 5 -30.5 22t-13.5 56v395q0 5 1 16t6 24q6 16 21.5 29.5t47.5 13.5h52q36 0 58 -22t22 -60v-226h-124v-175v-2.5t1 -2.5q2 -5 6 -8.5t11 -3.5h2h2q7 1 12.5 5.5
t5.5 11.5v119v0zM119 308h40v175q0 7 -5.5 11.5t-12.5 5.5h-2h-2q-7 0 -11 -3.5t-6 -8.5q-1 -1 -1 -2.5v-2.5v-175v0z" />
    <glyph glyph-name="yright" unicode="&#x435;" 
d="M159 196h84v-113q0 -39 -14 -56t-31 -23q-10 -3 -19.5 -3.5t-15.5 -0.5h-52q-6 0 -14.5 0.5t-17.5 3.5q-17 5 -30.5 22t-13.5 56v395q0 5 1 16t6 24q6 16 21.5 29.5t47.5 13.5h52q36 0 58 -22t22 -60v-226h-124v-175v-2.5t1 -2.5q2 -5 6 -8.5t11 -3.5h2h2q7 1 12.5 5.5
t5.5 11.5v119v0zM119 308h40v175q0 7 -5.5 11.5t-12.5 5.5h-2h-2q-7 0 -11 -3.5t-6 -8.5q-1 -1 -1 -2.5v-2.5v-175v0z" />
    <glyph glyph-name="circumflex" unicode="&#xa6;" horiz-adv-x="166" 
d="M35 0v96h96v-96h-96v0zM35 464v96h96v-96h-96v0z" />
    <glyph glyph-name="scaron" unicode="&#xa7;" horiz-adv-x="308" 
d="M273 540h-99v59v6t-1 6q-1 8 -5 15t-14 7t-14 -7t-5 -15q-1 -3 -1 -6v-6v-53q0 -25 10.5 -41t58.5 -30q5 -1 9.5 -2.5t9.5 -3.5q19 -8 35 -28t16 -63v-221q0 -6 -0.5 -13.5t-2.5 -14.5q-4 -14 -15 -26t-35 -14q20 -8 31 -21t16 -27q4 -12 5 -22.5t1 -18.5v-83
q0 -59 -25 -77t-54 -20q-5 -1 -10 -1h-10l-65 -1q-28 1 -51 12t-23 71v77h99v-59v-5t1 -6q1 -8 5 -15t14 -7t14 7t5 15q1 3 1 6v6v51q0 27 -10.5 43t-58.5 29q-4 1 -9 2.5t-10 3.5q-19 8 -35 28t-16 63v221v1.5v1.5q0 23 10 42t44 23q-20 8 -31 20.5t-16 26.5q-5 12 -6 23
t-1 19v83q0 8 0.5 17t1.5 18q4 24 24 44t73 20h65q34 0 54 -13t20 -69v-78v0zM174 109v256q0 19 -9 28.5t-20 13.5q-3 1 -5.5 1.5t-5.5 0.5v-256q0 -19 9 -28.5t20 -13.5q3 -1 5.5 -1.5t5.5 -0.5v0z" />
    <glyph glyph-name="guilsinglright" unicode="&#xe6;" horiz-adv-x="417" 
d="M167 0v252l-67 -252h-82l75 284l-58 276h87l45 -261v261h84v-261l45 261h87l-57 -276l73 -284h-81l-67 252v-252h-84v0z" />
    <glyph glyph-name="guilsinglright" unicode="&#x436;" horiz-adv-x="417" 
d="M167 0v252l-67 -252h-82l75 284l-58 276h87l45 -261v261h84v-261l45 261h87l-57 -276l73 -284h-81l-67 252v-252h-84v0z" />
    <glyph glyph-name="florin" unicode="&#xe7;" horiz-adv-x="266" 
d="M23 196h84v-113v-4.5t1 -5.5q2 -5 6.5 -9t14.5 -4q9 0 12.5 4.5t4.5 9.5q1 2 1 4.5v4.5v146v6.5t-1 6.5q-2 9 -10 16.5t-27 7.5h-28v56h28q19 0 26.5 7.5t9.5 16.5q2 5 2 10v8v0.5v0.5v116q0 8 -5 13.5t-13 5.5t-15 -4.5t-7 -12.5v-98h-84v92q0 7 0.5 15.5t2.5 18.5
q5 18 21 33.5t56 15.5h55q35 0 50 -14.5t20 -31.5q2 -9 2.5 -18t0.5 -16v-0.5v-0.5v-117v-0.5v-0.5q0 -5 -0.5 -12.5t-3.5 -15.5q-4 -12 -16 -22.5t-38 -12.5v-6q27 0 39 -11t16 -25q2 -8 2.5 -15.5t0.5 -12.5v-1.5v-0.5v-143v-12.5t-1 -13.5q-2 -21 -16.5 -39t-56.5 -18
h-54q-7 0 -14.5 0.5t-15.5 1.5q-19 5 -34.5 21.5t-15.5 59.5v113v0z" />
    <glyph glyph-name="florin" unicode="&#x437;" horiz-adv-x="266" 
d="M23 196h84v-113v-4.5t1 -5.5q2 -5 6.5 -9t14.5 -4q9 0 12.5 4.5t4.5 9.5q1 2 1 4.5v4.5v146v6.5t-1 6.5q-2 9 -10 16.5t-27 7.5h-28v56h28q19 0 26.5 7.5t9.5 16.5q2 5 2 10v8v0.5v0.5v116q0 8 -5 13.5t-13 5.5t-15 -4.5t-7 -12.5v-98h-84v92q0 7 0.5 15.5t2.5 18.5
q5 18 21 33.5t56 15.5h55q35 0 50 -14.5t20 -31.5q2 -9 2.5 -18t0.5 -16v-0.5v-0.5v-117v-0.5v-0.5q0 -5 -0.5 -12.5t-3.5 -15.5q-4 -12 -16 -22.5t-38 -12.5v-6q27 0 39 -11t16 -25q2 -8 2.5 -15.5t0.5 -12.5v-1.5v-0.5v-143v-12.5t-1 -13.5q-2 -21 -16.5 -39t-56.5 -18
h-54q-7 0 -14.5 0.5t-15.5 1.5q-19 5 -34.5 21.5t-15.5 59.5v113v0z" />
    <glyph glyph-name="quotedblleft" unicode="&#xdf;" horiz-adv-x="324" 
d="M18 0l80 270q-28 3 -40 18.5t-16 33.5q-2 9 -2.5 18.5t-0.5 16.5v245q0 51 18.5 71t40.5 24q8 2 16 2.5t15 0.5h154v-700h-99v267h-5l-58 -267h-103v0zM184 633h-18q-2 0 -4 -0.5t-4 -0.5q-7 -2 -13.5 -10t-6.5 -24v-239q0 -18 8.5 -26t18.5 -10h2.5h2.5h14v310v0z" />
    <glyph glyph-name="quotedblleft" unicode="&#x42f;" horiz-adv-x="324" 
d="M18 0l80 270q-28 3 -40 18.5t-16 33.5q-2 9 -2.5 18.5t-0.5 16.5v245q0 51 18.5 71t40.5 24q8 2 16 2.5t15 0.5h154v-700h-99v267h-5l-58 -267h-103v0zM184 633h-18q-2 0 -4 -0.5t-4 -0.5q-7 -2 -13.5 -10t-6.5 -24v-239q0 -18 8.5 -26t18.5 -10h2.5h2.5h14v310v0z" />
    <glyph glyph-name="plus" 
 />
    <glyph glyph-name="comma" unicode="&#xe8;" 
d="M243 560v-560h-84v23q-20 -17 -39 -22.5t-37 -5.5q-25 0 -35 13.5t-12 30.5q-1 7 -1 14v12v1.5v0.5v493h84v-476v-2v-2q2 -6 6.5 -11t12.5 -5q2 0 3.5 0.5t3.5 0.5q6 2 10 6t4 13v476h84v0z" />
    <glyph glyph-name="comma" unicode="&#x438;" 
d="M243 560v-560h-84v23q-20 -17 -39 -22.5t-37 -5.5q-25 0 -35 13.5t-12 30.5q-1 7 -1 14v12v1.5v0.5v493h84v-476v-2v-2q2 -6 6.5 -11t12.5 -5q2 0 3.5 0.5t3.5 0.5q6 2 10 6t4 13v476h84v0z" />
    <glyph glyph-name="ellipsis" unicode="&#xed;" 
d="M35 0v560h84v-238h40v238h84v-560h-84v262h-40v-262h-84v0z" />
    <glyph glyph-name="ellipsis" unicode="&#x43d;" 
d="M35 0v560h84v-238h40v238h84v-560h-84v262h-40v-262h-84v0z" />
    <glyph glyph-name="dagger" unicode="&#xae;" horiz-adv-x="566" 
d="M169 700h228q85 0 109.5 -29.5t24.5 -124.5v-392q0 -111 -29 -132.5t-73 -21.5h-292q-47 0 -74.5 24t-27.5 130v392q0 95 24.5 124.5t109.5 29.5v0zM188 63h190q51 0 62.5 20.5t11.5 75.5v382q0 55 -11.5 75.5t-62.5 20.5h-190q-53 0 -63.5 -20.5t-10.5 -75.5v-389
q0 -55 13 -72t61 -17v0zM184 131v443h129h10t10 -1q20 -2 36.5 -17t16.5 -64v-121v-8.5v-9.5q-1 -18 -8.5 -35.5t-30.5 -25.5l55 -161h-88l-43 150h-5v-150h-82v0zM266 333h11q12 0 19.5 10.5t7.5 25.5v121q0 14 -6 20.5t-13 7.5q-2 1 -3.5 1h-2.5h-13v-186v0z" />
    <glyph glyph-name="daggerdbl" unicode="&#xad;" horiz-adv-x="217" 
d="M35 266v84h147v-84h-147v0z" />
    <glyph glyph-name="tilde" 
d="M35 0v617h-35v49h35v34h84v-34h78v-49h-78v-79q18 13 33 19.5t30 7.5q3 1 6 1h6q26 0 36 -16t12 -35q1 -5 1 -10.5v-10.5v-494h-84v476q0 7 -3 11t-7 6q-3 2 -5.5 2.5t-3.5 0.5h-1.5h-1.5q-5 -1 -9.5 -5t-6.5 -8q-1 -2 -1.5 -3.5t-0.5 -3.5v-476h-84v0z" />
    <glyph glyph-name="guilsinglleft" 
d="M35 0v617h-35v49h35v34h84v-34h78v-49h-78v-79q18 13 33 19.5t30 7.5q3 1 6 1h6q26 0 36 -16t12 -35q1 -5 1 -10.5v-10.5v-588q0 -6 -0.5 -16.5t-4.5 -21.5q-7 -18 -28 -33.5t-69 -15.5l-42 -1v63h11q24 1 34 10t13 19q2 6 2 11v9v1.5v0.5v544q0 7 -3 11t-7 6
q-3 2 -5.5 2.5t-3.5 0.5h-1.5h-1.5q-5 -1 -9.5 -5t-6.5 -8q-1 -2 -1.5 -3.5t-0.5 -3.5v-476h-84v0z" />
    <glyph glyph-name="bullet" horiz-adv-x="326" 
d="M285 700v-700h-73v-140h-98v140h-73v700h99v-633h46v633h99v0z" />
    <glyph glyph-name="oe" unicode="&#x201c;" horiz-adv-x="315" 
d="M131 613v-96h-96v96v5.5v4.5q2 21 10 41t21 36h68l-6 -6t-5 -6q-10 -12 -18 -30t-9 -45h35v0zM277 613v-96h-96v96v5.5v4.5q2 21 10 41t21 36h68q-3 -3 -7.5 -8t-8.5 -12q-8 -12 -14.5 -28.5t-7.5 -38.5h35v0z" />
    <glyph glyph-name="O" horiz-adv-x="285" 
d="M35 0v560h84v-253l44 253h86l-57 -271l75 -289h-88l-60 260v-260h-84v0z" />
    <glyph glyph-name="numbersign" unicode="&#x2014;" horiz-adv-x="480" 
d="M35 280v56h410v-56h-410v0z" />
    <glyph glyph-name="dollar" unicode="&#x2013;" horiz-adv-x="480" 
d="M35 319v63h410v-63h-410v0z" />
    <glyph glyph-name="six" unicode="&#x2122;" horiz-adv-x="452" 
d="M79 350v318h-38v32h126v-32h-38v-318h-50v0zM193 350v350h72l37 -236l43 236h66v-350h-50v228l-39 -228h-40l-39 228v-228h-50v0z" />
    <glyph glyph-name="seven" unicode="&#x2dc;" 
 />
    <glyph glyph-name="eight" unicode="&#x161;" horiz-adv-x="407" 
d="M15 0v60q16 1 26 10.5t10 24.5v465h208v-210h46h0.5h0.5q7 0 15.5 -0.5t18.5 -3.5q16 -5 29 -21.5t13 -52.5v-199q0 -36 -14.5 -51t-31.5 -19q-8 -2 -16.5 -2.5t-14.5 -0.5h-130v500h-40v-417q0 -37 -16.5 -54.5t-35.5 -23.5q-10 -3 -20 -4t-17 -1h-31v0zM259 60h14
q14 0 19 7t6 15v6v6v0.5v0.5v162v6.5t-1 6.5q-2 8 -7 14t-17 6h-14v-230v0z" />
    <glyph glyph-name="less" unicode="&#x203a;" horiz-adv-x="193" 
d="M115 497l43 -210l-43 -210h-80l44 210l-44 210h80v0z" />
    <glyph glyph-name="greater" unicode="&#x192;" horiz-adv-x="267" 
d="M238 196v-111v-0.5v-0.5q0 -7 -0.5 -15.5t-1.5 -17.5q-4 -19 -19 -35t-53 -16h-60q-36 0 -51 15t-20 34q-3 10 -3.5 19.5t-0.5 16.5v103q0 27 3 41.5t11 26.5q4 6 10.5 12.5t14.5 15.5l57 59q19 20 24 33.5t5 21.5v82q0 8 -5 13t-10 6q-2 1 -3.5 1h-2.5q-2 0 -4 -0.5
t-4 -1.5q-4 -2 -8 -6.5t-4 -11.5v-102h-84v104q0 6 0.5 13t1.5 14q3 19 18 35t54 16h58q44 0 59 -17t17 -37q1 -6 1 -12v-12v-0.5v-0.5v-90v-4.5v-4.5v-16t-2 -13q-2 -9 -7.5 -18t-16.5 -21l-76 -78q-10 -10 -16.5 -23t-6.5 -31v-101v-1.5v-1.5q1 -6 6.5 -11.5t11.5 -6.5
h1.5h1.5h2t2 1q6 1 11 6.5t5 13.5v115h84v0z" />
    <glyph glyph-name="quotedblbase" unicode="&#x201e;" horiz-adv-x="315" 
d="M38 0v96h96v-96q0 -6 -1 -13.5t-3 -15.5q-4 -15 -10.5 -30t-16.5 -27l-68 -1q3 4 7 8.5t9 10.5q8 12 14.5 29t7.5 39h-35v0zM184 0v96h96v-96q0 -6 -1 -13.5t-3 -15.5q-4 -15 -10.5 -30t-16.5 -27l-68 -1q3 4 6 7t5 6q10 12 18 30t9 44h-35v0z" />
    <glyph glyph-name="edieresis" unicode="&#xeb;" horiz-adv-x="294" 
d="M15 0v60q16 1 26 10.5t10 24.5v465h208v-560h-84v500h-40v-417q0 -37 -16.5 -54.5t-35.5 -23.5q-10 -3 -20 -4t-17 -1h-31v0z" />
    <glyph glyph-name="edieresis" unicode="&#x43b;" horiz-adv-x="294" 
d="M15 0v60q16 1 26 10.5t10 24.5v465h208v-560h-84v500h-40v-417q0 -37 -16.5 -54.5t-35.5 -23.5q-10 -3 -20 -4t-17 -1h-31v0z" />
    <glyph glyph-name="igrave" unicode="&#xec;" horiz-adv-x="417" 
d="M208 184l79 376h95v-560h-84v328l-56 -328h-67l-56 328v-328h-84v560h95l78 -376v0z" />
    <glyph glyph-name="igrave" unicode="&#x43c;" horiz-adv-x="417" 
d="M208 184l79 376h95v-560h-84v328l-56 -328h-67l-56 328v-328h-84v560h95l78 -376v0z" />
    <glyph glyph-name="glyph229" 
 />
    <glyph glyph-name="glyph230" 
 />
    <glyph glyph-name="glyph231" 
 />
    <glyph glyph-name="glyph232" unicode="&#x2026;" horiz-adv-x="498" 
d="M35 0v96h96v-96h-96v0zM201 0v96h96v-96h-96v0zM367 0v96h96v-96h-96v0z" />
    <glyph glyph-name="glyph233" unicode="&#x2020;" horiz-adv-x="467" 
d="M187 -182v616h-152v94h152v172h93v-172h152v-94h-152v-616h-93v0z" />
    <glyph glyph-name="glyph234" 
 />
    <glyph glyph-name="glyph235" 
 />
    <glyph glyph-name="glyph236" unicode="&#x2021;" horiz-adv-x="324" 
d="M15 0v64h29v359h-29v64h29v102q0 9 0.5 22t4.5 26q5 24 23.5 43.5t60.5 19.5h85v-64h-41q-15 0 -22 -4t-10 -9q-1 -3 -1.5 -5.5t-0.5 -4.5v-126h75v-64h-75v-359h42q10 0 17.5 7t7.5 16v21h99v-19q0 -7 -1 -18t-5 -23q-7 -18 -25 -33t-58 -15h-205v0z" />
    <glyph glyph-name="glyph237" unicode="&#x2c6;" 
 />
    <glyph glyph-name="glyph238" 
 />
    <glyph glyph-name="glyph239" 
 />
    <glyph glyph-name="glyph240" 
 />
    <glyph glyph-name="glyph241" 
 />
    <glyph glyph-name="glyph242" 
 />
    <glyph glyph-name="glyph243" unicode="&#x2039;" horiz-adv-x="193" 
d="M78 77l-43 210l43 210h80l-44 -210l44 -210h-80v0z" />
    <glyph glyph-name="glyph244" 
 />
    <glyph glyph-name="glyph245" 
 />
    <glyph glyph-name="glyph246" 
 />
    <glyph glyph-name="glyph247" 
 />
    <glyph glyph-name="glyph248" 
 />
    <glyph glyph-name="glyph249" 
 />
    <glyph glyph-name="glyph250" 
 />
    <glyph glyph-name="glyph251" 
 />
    <glyph glyph-name="glyph252" 
 />
    <glyph glyph-name="glyph253" 
 />
    <glyph glyph-name="glyph254" 
 />
    <glyph glyph-name="glyph255" 
 />
    <glyph glyph-name="glyph256" 
 />
    <glyph glyph-name="glyph257" unicode="&#x2022;" horiz-adv-x="480" 
d="M156 350q0 32 22.5 58t61.5 26t61.5 -26t22.5 -58q0 -39 -26 -61.5t-58 -22.5q-31 0 -57.5 22.5t-26.5 61.5v0z" />
    <glyph glyph-name="glyph258" unicode="&#x153;" horiz-adv-x="392" 
d="M35 0v560h84v-210h40v210h84v-210h47q40 0 55.5 -15t19.5 -33q1 -8 1.5 -16t0.5 -14v-199q0 -39 -15.5 -53.5t-33.5 -17.5q-8 -1 -15 -1.5t-13 -0.5h-131v290h-40v-290h-84v0zM243 60h15q12 0 17.5 7t6.5 15q1 4 1 7v6v162q0 3 -0.5 6.5t-0.5 6.5q-2 8 -7 14t-17 6h-15
v-230v0z" />
    <glyph glyph-name="macron" unicode="&#xaf;" horiz-adv-x="241" 
d="M71 0v700h99v-700h-99v0zM14 735v91h91v-91h-91v0zM136 735v91h91v-91h-91v0z" />
    <glyph glyph-name="atilde" unicode="&#xe3;" horiz-adv-x="267" 
d="M238 196v-111v-0.5v-0.5q0 -7 -0.5 -15.5t-1.5 -17.5q-4 -19 -19 -35t-53 -16h-60q-36 0 -51 15t-20 34q-3 10 -3.5 19.5t-0.5 16.5v103q0 27 3 41.5t11 26.5q4 6 10.5 12.5t14.5 15.5l57 59q19 20 24 33.5t5 21.5v82q0 8 -5 13t-10 6q-2 1 -3.5 1h-2.5q-2 0 -4 -0.5
t-4 -1.5q-4 -2 -8 -6.5t-4 -11.5v-102h-84v104q0 6 0.5 13t1.5 14q3 19 18 35t54 16h58q44 0 59 -17t17 -37q1 -6 1 -12v-12v-0.5v-0.5v-90v-4.5v-4.5v-16t-2 -13q-2 -9 -7.5 -18t-16.5 -21l-76 -78q-10 -10 -16.5 -23t-6.5 -31v-101v-1.5v-1.5q1 -6 6.5 -11.5t11.5 -6.5
h1.5h1.5h2t2 1q6 1 11 6.5t5 13.5v115h84v0z" />
    <glyph glyph-name="atilde" unicode="&#x433;" horiz-adv-x="267" 
d="M238 196v-111v-0.5v-0.5q0 -7 -0.5 -15.5t-1.5 -17.5q-4 -19 -19 -35t-53 -16h-60q-36 0 -51 15t-20 34q-3 10 -3.5 19.5t-0.5 16.5v103q0 27 3 41.5t11 26.5q4 6 10.5 12.5t14.5 15.5l57 59q19 20 24 33.5t5 21.5v82q0 8 -5 13t-10 6q-2 1 -3.5 1h-2.5q-2 0 -4 -0.5
t-4 -1.5q-4 -2 -8 -6.5t-4 -11.5v-102h-84v104q0 6 0.5 13t1.5 14q3 19 18 35t54 16h58q44 0 59 -17t17 -37q1 -6 1 -12v-12v-0.5v-0.5v-90v-4.5v-4.5v-16t-2 -13q-2 -9 -7.5 -18t-16.5 -21l-76 -78q-10 -10 -16.5 -23t-6.5 -31v-101v-1.5v-1.5q1 -6 6.5 -11.5t11.5 -6.5
h1.5h1.5h2t2 1q6 1 11 6.5t5 13.5v115h84v0z" />
    <glyph glyph-name="adieresis" unicode="&#xe4;" 
d="M243 560v-639q0 1 0 0.5v-1.5q0 -7 -0.5 -20t-4.5 -26q-5 -21 -21.5 -38t-52.5 -17l-51 -1q-35 1 -51 16t-22 33q-3 11 -4 21t-1 17v25h84v-45v-0.5v-0.5q1 -6 7 -10.5t15 -4.5t12.5 3t4.5 7q1 2 1 4v3v149q-6 -7 -12 -13t-12 -9q-12 -8 -23.5 -10.5t-21.5 -2.5
q-25 0 -36.5 16t-15.5 36q-2 9 -2.5 18.5t-0.5 16.5v398q0 7 0.5 15t1.5 16q3 19 15 34.5t43 15.5q20 0 36.5 -9t27.5 -21v24h84v0zM119 477v-399q0 -6 4 -10.5t10 -6.5q2 0 3.5 -0.5t3.5 -0.5q1 0 3.5 0.5t5.5 2.5q4 1 7 5t3 10v399q0 8 -3.5 12.5t-8.5 5.5q-2 1 -3.5 1
h-3.5t-4 -0.5t-5 -1.5q-4 -2 -8 -6t-4 -11v0z" />
    <glyph glyph-name="adieresis" unicode="&#x434;" 
d="M243 560v-639q0 1 0 0.5v-1.5q0 -7 -0.5 -20t-4.5 -26q-5 -21 -21.5 -38t-52.5 -17l-51 -1q-35 1 -51 16t-22 33q-3 11 -4 21t-1 17v25h84v-45v-0.5v-0.5q1 -6 7 -10.5t15 -4.5t12.5 3t4.5 7q1 2 1 4v3v149q-6 -7 -12 -13t-12 -9q-12 -8 -23.5 -10.5t-21.5 -2.5
q-25 0 -36.5 16t-15.5 36q-2 9 -2.5 18.5t-0.5 16.5v398q0 7 0.5 15t1.5 16q3 19 15 34.5t43 15.5q20 0 36.5 -9t27.5 -21v24h84v0zM119 477v-399q0 -6 4 -10.5t10 -6.5q2 0 3.5 -0.5t3.5 -0.5q1 0 3.5 0.5t5.5 2.5q4 1 7 5t3 10v399q0 8 -3.5 12.5t-8.5 5.5q-2 1 -3.5 1
h-3.5t-4 -0.5t-5 -1.5q-4 -2 -8 -6t-4 -11v0z" />
    <glyph glyph-name="odieresis" unicode="&#xf6;" horiz-adv-x="291" 
d="M243 560v-500h38v-158h-73v98h-49v23q-20 -17 -39 -22.5t-37 -5.5q-25 0 -35 13.5t-12 30.5q-1 7 -1 14v12v1.5v0.5v493h84v-476q0 -7 6 -13.5t13 -6.5q2 0 4.5 0.5t4.5 1.5q5 2 8.5 6.5t3.5 11.5v476h84v0z" />
    <glyph glyph-name="odieresis" unicode="&#x446;" horiz-adv-x="291" 
d="M243 560v-500h38v-158h-73v98h-49v23q-20 -17 -39 -22.5t-37 -5.5q-25 0 -35 13.5t-12 30.5q-1 7 -1 14v12v1.5v0.5v493h84v-476q0 -7 6 -13.5t13 -6.5q2 0 4.5 0.5t4.5 1.5q5 2 8.5 6.5t3.5 11.5v476h84v0z" />
    <glyph glyph-name="divide" unicode="&#xf7;" horiz-adv-x="270" 
d="M151 0v252q-1 -1 -6.5 -6t-15.5 -11q-9 -6 -20.5 -11t-23.5 -6h-1.5h-1.5q-4 0 -10.5 1t-14.5 5q-11 5 -20 19.5t-9 44.5v272h84v-259q0 -1 0.5 -3t0.5 -3q2 -5 6.5 -8.5t11.5 -3.5q9 0 14.5 5.5t5.5 12.5v259h84v-560h-84v0z" />
    <glyph glyph-name="divide" unicode="&#x447;" horiz-adv-x="270" 
d="M151 0v252q-1 -1 -6.5 -6t-15.5 -11q-9 -6 -20.5 -11t-23.5 -6h-1.5h-1.5q-4 0 -10.5 1t-14.5 5q-11 5 -20 19.5t-9 44.5v272h84v-259q0 -1 0.5 -3t0.5 -3q2 -5 6.5 -8.5t11.5 -3.5q9 0 14.5 5.5t5.5 12.5v259h84v-560h-84v0z" />
    <glyph glyph-name="oslash" unicode="&#xf8;" horiz-adv-x="404" 
d="M369 560v-560h-84v28q-10 -10 -21 -17.5t-23 -11.5q-7 -2 -13.5 -3.5t-12.5 -1.5q-17 0 -32.5 7t-20.5 26q-8 -7 -15 -12.5t-14 -9.5q-11 -5 -22 -7.5t-24 -2.5q-27 0 -37.5 16.5t-13.5 36.5q-1 8 -1 15v14v483h84v-476v-2t1 -2q1 -6 6.5 -11t13.5 -5q2 0 3.5 0.5
t3.5 0.5q5 2 9 6.5t4 12.5v476h84v-477q0 -7 5.5 -13t12.5 -6t12.5 3.5t8.5 8.5q1 2 1.5 3.5t0.5 3.5v477h84v0z" />
    <glyph glyph-name="oslash" unicode="&#x448;" horiz-adv-x="404" 
d="M369 560v-560h-84v28q-10 -10 -21 -17.5t-23 -11.5q-7 -2 -13.5 -3.5t-12.5 -1.5q-17 0 -32.5 7t-20.5 26q-8 -7 -15 -12.5t-14 -9.5q-11 -5 -22 -7.5t-24 -2.5q-27 0 -37.5 16.5t-13.5 36.5q-1 8 -1 15v14v483h84v-476v-2t1 -2q1 -6 6.5 -11t13.5 -5q2 0 3.5 0.5
t3.5 0.5q5 2 9 6.5t4 12.5v476h84v-477q0 -7 5.5 -13t12.5 -6t12.5 3.5t8.5 8.5q1 2 1.5 3.5t0.5 3.5v477h84v0z" />
    <glyph glyph-name="udieresis" unicode="&#xfc;" horiz-adv-x="268" 
d="M35 0v560h84v-210h47q40 0 55.5 -15t19.5 -33q1 -8 1.5 -16t0.5 -14v-199q0 -36 -14.5 -51t-31.5 -19q-8 -2 -16.5 -2.5t-14.5 -0.5h-131v0zM119 60h15q14 0 19 7t6 15v6v6v0.5v0.5v162v6.5t-1 6.5q-2 8 -7 14t-17 6h-15v-230v0z" />
    <glyph glyph-name="udieresis" unicode="&#x44c;" horiz-adv-x="268" 
d="M35 0v560h84v-210h47q40 0 55.5 -15t19.5 -33q1 -8 1.5 -16t0.5 -14v-199q0 -36 -14.5 -51t-31.5 -19q-8 -2 -16.5 -2.5t-14.5 -0.5h-131v0zM119 60h15q14 0 19 7t6 15v6v6v0.5v0.5v162v6.5t-1 6.5q-2 8 -7 14t-17 6h-15v-230v0z" />
    <glyph glyph-name="thorn" unicode="&#xfe;" horiz-adv-x="403" 
d="M119 323h40v145q0 43 15 62.5t33 25.5q9 2 16.5 3t14.5 1h51q7 0 14.5 -1t16.5 -3q18 -6 33 -25.5t15 -62.5v-382v-0.5v-0.5q0 -7 -0.5 -15.5t-1.5 -17.5q-4 -19 -20 -35.5t-57 -16.5h-51q-40 0 -56 16.5t-20 35.5q-2 9 -2.5 18t-0.5 16v177h-40v-263h-84v560h84v-237v0z
M243 481v-402q0 -8 6 -13t12 -6h1.5h1.5h2h2q6 2 11 6.5t5 12.5v402q0 8 -5 12.5t-11 6.5h-2h-2h-1.5h-1.5q-6 -1 -12 -6t-6 -13v0z" />
    <glyph glyph-name="thorn" unicode="&#x44e;" horiz-adv-x="403" 
d="M119 323h40v145q0 43 15 62.5t33 25.5q9 2 16.5 3t14.5 1h51q7 0 14.5 -1t16.5 -3q18 -6 33 -25.5t15 -62.5v-382v-0.5v-0.5q0 -7 -0.5 -15.5t-1.5 -17.5q-4 -19 -20 -35.5t-57 -16.5h-51q-40 0 -56 16.5t-20 35.5q-2 9 -2.5 18t-0.5 16v177h-40v-263h-84v560h84v-237v0z
M243 481v-402q0 -8 6 -13t12 -6h1.5h1.5h2h2q6 2 11 6.5t5 12.5v402q0 8 -5 12.5t-11 6.5h-2h-2h-1.5h-1.5q-6 -1 -12 -6t-6 -13v0z" />
    <glyph glyph-name="glyph267" 
 />
    <glyph glyph-name="glyph268" 
 />
    <glyph glyph-name="glyph269" 
 />
    <glyph glyph-name="glyph270" 
 />
    <glyph glyph-name="glyph271" 
 />
    <glyph glyph-name="glyph272" 
 />
    <glyph glyph-name="glyph273" 
 />
    <glyph glyph-name="glyph274" 
 />
    <glyph glyph-name="glyph275" 
 />
    <glyph glyph-name="glyph276" 
 />
    <glyph glyph-name="glyph277" 
 />
    <glyph glyph-name="glyph278" 
 />
    <glyph glyph-name="glyph279" 
 />
    <glyph glyph-name="glyph280" 
 />
    <glyph glyph-name="glyph281" 
 />
    <glyph glyph-name="glyph282" 
 />
    <glyph glyph-name="glyph283" 
 />
    <glyph glyph-name="glyph284" 
 />
    <glyph glyph-name="glyph285" 
 />
    <glyph glyph-name="glyph286" 
 />
    <glyph glyph-name="glyph287" 
 />
    <glyph glyph-name="glyph288" 
 />
    <glyph glyph-name="glyph289" 
 />
    <glyph glyph-name="glyph290" 
 />
    <glyph glyph-name="glyph291" 
 />
    <glyph glyph-name="glyph292" 
 />
    <glyph glyph-name="glyph293" 
 />
    <glyph glyph-name="glyph294" 
 />
    <glyph glyph-name="glyph295" 
 />
    <glyph glyph-name="glyph296" 
 />
    <glyph glyph-name="glyph297" 
 />
    <glyph glyph-name="glyph298" 
 />
    <glyph glyph-name="glyph299" 
 />
    <glyph glyph-name="glyph300" 
 />
    <glyph glyph-name="glyph301" 
 />
    <glyph glyph-name="glyph302" 
 />
    <glyph glyph-name="glyph303" 
 />
    <glyph glyph-name="glyph304" 
 />
    <glyph glyph-name="glyph305" 
 />
    <glyph glyph-name="glyph306" 
 />
    <glyph glyph-name="glyph307" 
 />
    <glyph glyph-name="glyph308" 
 />
    <glyph glyph-name="glyph309" 
 />
    <glyph glyph-name="glyph310" 
 />
    <glyph glyph-name="glyph311" 
 />
    <glyph glyph-name="glyph312" 
 />
    <glyph glyph-name="glyph313" 
 />
    <glyph glyph-name="glyph314" 
 />
    <glyph glyph-name="glyph315" 
 />
    <glyph glyph-name="glyph316" 
 />
    <glyph glyph-name="glyph317" 
 />
    <glyph glyph-name="glyph318" 
 />
    <glyph glyph-name="glyph319" 
 />
    <glyph glyph-name="glyph320" 
 />
    <glyph glyph-name="glyph321" 
 />
    <glyph glyph-name="glyph322" 
 />
    <glyph glyph-name="glyph323" 
 />
    <glyph glyph-name="glyph324" 
 />
    <glyph glyph-name="glyph325" 
 />
    <glyph glyph-name="glyph326" 
 />
    <glyph glyph-name="glyph327" 
 />
    <glyph glyph-name="glyph328" 
 />
    <glyph glyph-name="glyph329" 
 />
    <glyph glyph-name="glyph330" 
 />
    <glyph glyph-name="glyph331" 
 />
    <glyph glyph-name="glyph332" 
 />
    <glyph glyph-name="glyph333" 
 />
    <glyph glyph-name="glyph334" 
 />
    <glyph glyph-name="glyph335" 
 />
    <glyph glyph-name="glyph336" 
 />
    <glyph glyph-name="glyph337" 
 />
    <glyph glyph-name="glyph338" 
 />
    <glyph glyph-name="glyph339" 
 />
    <glyph glyph-name="glyph340" 
 />
    <glyph glyph-name="glyph341" 
 />
    <glyph glyph-name="glyph342" 
 />
    <glyph glyph-name="glyph343" 
 />
    <glyph glyph-name="glyph344" 
 />
    <glyph glyph-name="glyph345" 
 />
    <glyph glyph-name="glyph346" 
 />
    <glyph glyph-name="glyph347" 
 />
    <glyph glyph-name="glyph348" 
 />
    <glyph glyph-name="glyph349" 
 />
    <glyph glyph-name="glyph350" 
 />
    <glyph glyph-name="glyph351" 
 />
    <glyph glyph-name="glyph352" 
 />
    <glyph glyph-name="glyph353" 
 />
    <glyph glyph-name="glyph354" 
 />
    <glyph glyph-name="glyph355" 
 />
    <glyph glyph-name="glyph356" 
 />
    <glyph glyph-name="glyph357" 
 />
    <glyph glyph-name="glyph358" 
 />
    <glyph glyph-name="glyph359" 
 />
    <glyph glyph-name="glyph360" 
 />
    <glyph glyph-name="glyph361" 
 />
    <glyph glyph-name="glyph362" 
 />
    <glyph glyph-name="glyph363" 
 />
    <glyph glyph-name="glyph364" 
 />
    <glyph glyph-name="glyph365" 
 />
    <glyph glyph-name="glyph366" 
 />
    <glyph glyph-name="glyph367" 
 />
    <glyph glyph-name="glyph368" 
 />
    <glyph glyph-name="glyph369" 
 />
    <glyph glyph-name="glyph370" 
 />
    <glyph glyph-name="glyph371" 
 />
    <glyph glyph-name="glyph372" 
 />
    <glyph glyph-name="glyph373" 
 />
    <glyph glyph-name="glyph374" 
 />
    <glyph glyph-name="glyph375" 
 />
    <glyph glyph-name="glyph376" 
 />
    <glyph glyph-name="glyph377" 
 />
    <glyph glyph-name="glyph378" 
 />
    <glyph glyph-name="glyph379" 
 />
    <glyph glyph-name="glyph380" 
 />
    <glyph glyph-name="glyph381" 
 />
    <glyph glyph-name="glyph382" 
 />
    <glyph glyph-name="glyph383" 
 />
    <glyph glyph-name="glyph384" 
 />
    <glyph glyph-name="glyph385" 
 />
    <glyph glyph-name="glyph386" 
 />
    <glyph glyph-name="glyph387" 
 />
    <glyph glyph-name="glyph388" 
 />
    <glyph glyph-name="glyph389" 
 />
    <glyph glyph-name="glyph390" 
 />
    <glyph glyph-name="glyph391" 
 />
    <glyph glyph-name="glyph392" 
 />
    <glyph glyph-name="glyph393" 
 />
    <glyph glyph-name="glyph394" 
 />
    <glyph glyph-name="glyph395" 
 />
    <glyph glyph-name="glyph396" 
 />
    <glyph glyph-name="glyph397" 
 />
    <glyph glyph-name="glyph398" 
 />
    <glyph glyph-name="glyph399" 
 />
    <glyph glyph-name="glyph400" 
 />
    <glyph glyph-name="glyph401" 
 />
    <glyph glyph-name="glyph402" 
 />
    <glyph glyph-name="glyph403" 
 />
    <glyph glyph-name="glyph404" 
 />
    <glyph glyph-name="glyph405" 
 />
    <glyph glyph-name="glyph406" 
 />
    <glyph glyph-name="glyph407" 
 />
    <glyph glyph-name="glyph408" 
 />
    <glyph glyph-name="glyph409" 
 />
    <glyph glyph-name="glyph410" 
 />
    <glyph glyph-name="glyph411" 
 />
    <glyph glyph-name="glyph412" 
 />
    <glyph glyph-name="glyph413" 
 />
    <glyph glyph-name="glyph414" 
 />
    <glyph glyph-name="glyph415" 
 />
    <glyph glyph-name="glyph416" 
 />
    <glyph glyph-name="glyph417" 
 />
    <glyph glyph-name="glyph418" 
 />
    <glyph glyph-name="glyph419" 
 />
    <glyph glyph-name="glyph420" 
 />
    <glyph glyph-name="glyph421" 
 />
    <glyph glyph-name="glyph422" 
 />
    <glyph glyph-name="glyph423" 
 />
    <glyph glyph-name="glyph424" 
 />
    <glyph glyph-name="glyph425" 
 />
    <glyph glyph-name="glyph426" 
 />
    <glyph glyph-name="glyph427" 
 />
    <glyph glyph-name="glyph428" 
 />
    <glyph glyph-name="glyph429" 
 />
    <glyph glyph-name="glyph430" 
 />
    <glyph glyph-name="glyph431" 
 />
    <glyph glyph-name="glyph432" 
 />
    <glyph glyph-name="glyph433" 
 />
    <glyph glyph-name="glyph434" 
 />
    <glyph glyph-name="glyph435" 
 />
    <glyph glyph-name="glyph436" 
 />
    <glyph glyph-name="glyph437" 
 />
    <glyph glyph-name="glyph438" 
 />
    <glyph glyph-name="glyph439" 
 />
    <glyph glyph-name="glyph440" 
 />
    <glyph glyph-name="glyph441" 
 />
    <glyph glyph-name="amacron" unicode="&#x101;" 
 />
    </font>
</defs>
</svg>
