<?xml version="1.0" standalone="no"?>
<!DOCTYPE svg PUBLIC "-//W3C//DTD SVG 1.1//EN" "http://www.w3.org/Graphics/SVG/1.1/DTD/svg11.dtd" >
<svg xmlns="http://www.w3.org/2000/svg" xmlns:xlink="http://www.w3.org/1999/xlink" version="1.1">
<metadata>
Created by FontForge 20190801 at Fri Jan  1 01:00:00 1904
 By Jimmy Wärting
AzBuki press 1991
</metadata>
<defs>
<font id="PrestigeNormal" horiz-adv-x="1135" >
  <font-face 
    font-family="Prestige"
    font-weight="400"
    font-stretch="normal"
    units-per-em="2048"
    panose-1="2 2 5 0 0 0 0 0 0 0"
    ascent="1638"
    descent="-410"
    x-height="887"
    cap-height="1255"
    bbox="-39 -594 1942 1681"
    underline-thickness="73"
    underline-position="-253"
    unicode-range="U+0020-2219"
  />
<missing-glyph horiz-adv-x="1536" 
d="M256 0v1280h1024v-1280h-1024zM1247 33v1214h-958v-1214h958z" />
    <glyph glyph-name=".notdef" horiz-adv-x="1536" 
d="M256 0v1280h1024v-1280h-1024zM1247 33v1214h-958v-1214h958z" />
    <glyph glyph-name=".null" horiz-adv-x="0" 
 />
    <glyph glyph-name="nonmarkingreturn" horiz-adv-x="0" 
 />
    <glyph glyph-name="space" unicode=" " horiz-adv-x="563" 
 />
    <glyph glyph-name="exclam" unicode="!" horiz-adv-x="852" 
d="M741 41q-14 -37 -53.5 -58.5t-83.5 -21.5q-61 0 -106 36.5t-45 98.5q0 68 45 105t106 37q11 0 17.5 -0.5t13.5 -1.5q47 -7 81 -48t34 -94q0 -12 -9 -53zM508 817q-5 39 -24 125.5t-27 131.5t-8 95q1 7 1.5 13.5t0.5 15.5q3 62 42 108t97 46h24q41 -7 67.5 -36t38 -68.5
t11.5 -84.5v-14q-4 -51 -19 -129.5t-27.5 -141t-14.5 -112.5q-4 -118 -4 -170q1 -39 1.5 -72.5t0.5 -89.5v-6q0 -28 -17.5 -54.5t-44.5 -29.5q-5 0 -7.5 -0.5t-4.5 -1.5q-32 0 -54 22t-24 54q0 11 -0.5 18.5t-1.5 16.5q0 23 2 69t2 70q0 151 -10 225z" />
    <glyph glyph-name="quotedbl" unicode="&#x22;" horiz-adv-x="1034" 
d="M885 1266q55 -30 55 -97v-18q-17 -95 -31 -173.5t-18 -150.5q0 -32 -1.5 -66.5t-8 -64t-25 -52.5t-51.5 -23q-3 0 -9 2t-10 2q-48 9 -62.5 52t-14.5 105q1 3 1.5 5.5t0.5 5.5v8q0 57 -7 105.5t-20.5 115t-21.5 119.5q0 6 -2.5 13t-2.5 11q0 39 20.5 66t52 40t69.5 13
q51 0 86 -18zM467 1266q53 -33 53 -97v-18q-2 -26 -4.5 -38.5t-7.5 -33.5t-8 -39q-24 -128 -29 -213q0 -6 -0.5 -11t-1.5 -11v-8q0 -49 -4.5 -84.5t-22.5 -62.5t-55 -27q-5 1 -9 1.5t-11 0.5q-34 7 -51 32t-21 54t-4 71v11q0 54 -7 109t-18.5 118t-21.5 121q0 4 -2 12t-2 12
q0 39 20.5 65.5t52 40t68.5 13.5q51 0 86 -18z" />
    <glyph glyph-name="numbersign" unicode="#" horiz-adv-x="1112" 
d="M379 -49q-16 -78 -70 -78h-6q-27 3 -40 19.5t-13 39.5q0 13 4 29l90 414q-15 0 -49.5 -3t-40.5 -3q-94 0 -94 53q1 3 1.5 5t0.5 5q5 62 106 62q29 0 60 -2.5t41 -2.5l53 246q-10 0 -16.5 -0.5t-18 -1.5t-26.5 -2t-29 -2q-92 0 -92 53v11q5 59 110 59q19 0 53 -2t43 -2
l105 469q7 33 27 51t43 18t39 -16.5t16 -42.5q0 -16 -2 -24zM512 -57l297 1355q17 76 65 76h19q23 -3 34 -18.5t11 -36.5q0 -13 -4 -33l-96 -438q18 1 33.5 1.5t48.5 0.5q102 0 102 -49q0 -11 -6 -29q-20 -43 -111 -43q-12 1 -28 2t-28 2t-19 1.5t-17 0.5l-53 -246
q19 1 44 2t42 1q40 0 69 -12t29 -38q0 -16 -6 -28q-17 -43 -117 -43q-20 0 -50 2t-36 2l-100 -445q-7 -34 -28 -52.5t-44 -18.5q-22 0 -38.5 16.5t-16.5 44.5q0 3 2 12t2 11z" />
    <glyph glyph-name="dollar" unicode="$" horiz-adv-x="1112" 
d="M547 16q-85 4 -150.5 13.5t-124.5 36.5q-49 25 -49 141q1 18 2 38.5t2 36t1.5 23.5t0.5 21q0 3 -0.5 5.5t-1.5 4.5q0 52 37 63q4 2 21 2q27 0 47 -18q12 -13 18 -64t13.5 -79.5t33 -59.5t80.5 -47q58 -14 105 -14q91 0 165 39.5t93 117.5q8 33 8 68q0 60 -33 97t-70.5 54
t-140.5 58q-64 26 -131.5 53.5t-116.5 62.5t-78 92.5t-30 145.5q0 136 80 214t219 114q0 10 -2 40t-2 46q0 96 67 98v-2q62 0 62 -90q0 -32 -0.5 -50t-1.5 -38q108 -2 188.5 -28t87.5 -107q2 -14 2 -45v-96q0 -51 -24 -68q-19 -12 -45 -12q-24 0 -39 12q-27 18 -27 80v41
q-8 123 -164 123q-95 0 -168 -52.5t-73 -144.5q0 -58 32.5 -100t84.5 -71t109 -49.5t116 -41.5q122 -41 190 -118.5t68 -186.5q0 -40 -15 -109q-20 -70 -69 -123t-115 -82.5t-139 -37.5v-199q0 -92 -62 -92q-31 0 -47 25t-16 55l1.5 3t0.5 3v198z" />
    <glyph glyph-name="percent" unicode="%" horiz-adv-x="1092" 
d="M590 1176q28 -54 28 -111q0 -55 -28.5 -104.5t-79.5 -78t-115 -28.5q-104 0 -162.5 66.5t-58.5 154.5t57.5 155.5t159.5 67.5q41 0 62 -4h198q68 0 68 -55v-16q-5 -47 -80 -47h-49zM803 281q-6 1 -11 1.5t-12 0.5q-41 0 -74.5 -29.5t-33.5 -81.5q0 -45 36 -77t78 -32
q29 0 56 18t39 48q6 15 6 37q0 39 -25 74t-59 41zM424 1176q-5 1 -10 1.5t-13 0.5q-42 0 -76 -27.5t-34 -75.5q2 0 2 -6q3 -50 36.5 -77t76.5 -27q30 0 58 16t38 43q8 28 8 43q0 25 -12.5 50.5t-31.5 40.5t-42 18zM217 51l643 1180q29 57 74 57q18 0 30.5 -14.5t12.5 -36.5
q0 -29 -14 -57l-644 -1180q-15 -29 -36 -43t-39 -14q-17 0 -30 15t-13 38t16 55zM995 127q-16 -83 -78 -128.5t-139 -45.5q-87 0 -154 57.5t-67 155.5v4q0 91 65 156t154 65q31 0 45 -2q48 -10 90 -43t65 -79t23 -97q0 -19 -4 -43z" />
    <glyph glyph-name="ampersand" unicode="&#x26;" horiz-adv-x="1112" 
d="M461 559q-64 -25 -94.5 -64t-36.5 -108q0 -9 -0.5 -15t-1.5 -14q0 -50 18.5 -102.5t54.5 -91.5q57 -49 109 -49q17 0 49 12q33 16 50 43t36 76zM727 111q-41 -65 -91.5 -101.5t-119.5 -40.5h-22q-71 0 -131.5 27.5t-102.5 83.5q-96 118 -96 256q0 102 56.5 194t160.5 150
l-98 172q-58 100 -58 172q0 46 31 117q36 70 102.5 103.5t151.5 33.5q67 0 123 -23t88.5 -57.5t32.5 -64.5q0 -44 -58 -58q-3 0 -6.5 -0.5t-7.5 -1.5q-20 0 -64 28t-63 38t-53 10q-15 0 -35 -4q-86 -29 -86 -125q0 -35 12 -65.5t27.5 -56.5t44.5 -71l258 -440q25 82 33 156
q5 54 18 71q18 17 49 17h72q46 0 72 -10q12 -6 19 -21t7 -33q0 -17 -8 -34t-22 -23q-22 -4 -39 -4q-11 1 -21 1.5t-26 0.5q-31 -154 -80 -272q6 -11 22.5 -41t36.5 -52t39 -22t35 22q14 21 35 21q20 0 38.5 -21t18.5 -45v-4q0 -30 -21 -60.5t-54 -51.5t-64 -21h-9
q-23 1 -44 16t-40.5 40t-36 52t-26.5 42z" />
    <glyph glyph-name="quotesingle" unicode="'" horiz-adv-x="610" 
d="M467 1266q53 -33 53 -97v-18q-2 -26 -4.5 -38.5t-7.5 -33.5t-8 -39q-24 -128 -29 -213q0 -6 -0.5 -11t-1.5 -11v-8q0 -49 -4.5 -84.5t-22.5 -62.5t-55 -27q-5 1 -9 1.5t-11 0.5q-34 7 -51 32t-21 54t-4 71v11q0 54 -7 109t-18.5 118t-21.5 121q0 4 -2 12t-2 12
q0 39 20.5 65.5t52 40t68.5 13.5q51 0 86 -18z" />
    <glyph glyph-name="parenleft" unicode="(" horiz-adv-x="973" 
d="M825 1139q-113 -146 -172 -305.5t-59 -317.5q0 -221 113 -440q53 -106 137 -205q22 -22 22 -47v-10q-3 -22 -25 -38t-44 -16q-21 0 -29 7q-29 16 -51.5 35.5t-34.5 32.5t-37 44.5t-49 63.5q-147 201 -178 395q-19 108 -19 176q0 113 27 219.5t80 207.5t125 189
q39 53 82.5 96.5t85.5 43.5q20 0 39 -13q26 -17 26 -45t-39 -73z" />
    <glyph glyph-name="parenright" unicode=")" horiz-adv-x="872" 
d="M354 1139q-5 7 -15.5 21t-17 28.5t-6.5 23.5q0 26 29 45q17 13 37 13t39.5 -10.5t32 -21t33.5 -32t32 -32.5q128 -148 195 -313t67 -347q0 -28 -4 -90q-10 -115 -52 -230t-112 -218.5t-157 -180.5q-41 -35 -78 -35q-34 0 -53 33q-9 14 -9 29q0 21 13.5 39.5t39.5 48
t27 31.5q96 138 144.5 280t48.5 289q0 161 -59 321t-175 308z" />
    <glyph glyph-name="asterisk" unicode="*" 
d="M494 1210q5 72 98 72q89 0 100 -72q-39 -126 -39 -219q0 -44 -9.5 -69.5t-41.5 -28.5q-4 0 -7 -0.5t-7 -1.5q-39 0 -49.5 33.5t-10.5 87.5q-2 68 -34 198zM868 430q-39 -27 -69 -27q-25 0 -54 27q-45 125 -110 215q-21 30 -21 55q0 35 33 52q15 6 27 6q18 0 35 -13.5
t36 -39.5t27 -35q33 -37 133 -123q13 -19 13 -41q0 -40 -50 -76zM762 932q71 30 178 96q5 1 8.5 1.5t9.5 0.5q30 0 50.5 -20.5t29.5 -53.5q9 -21 9 -47q0 -49 -48 -69q-132 -7 -237 -39q-24 -4 -37 -4q-46 0 -57 41q-4 12 -4 18q0 47 98 76zM182 842q-47 18 -47 67
q0 19 8 47q26 74 82 74h17q91 -59 237 -117q16 -7 27.5 -24t11.5 -35q0 -12 -6 -29q-16 -30 -51 -30q-8 0 -23.5 3t-30.5 8.5t-26 8.5q-82 20 -199 27zM436 432q-26 -29 -55 -29q-28 0 -66 29q-51 36 -51 74q0 23 12 41q53 44 92 84t93 104q15 23 49 23q16 0 32 -9.5
t23 -23.5q4 -8 4 -25q0 -19 -11 -41t-28.5 -46t-31.5 -44q-17 -31 -62 -137z" />
    <glyph glyph-name="plus" unicode="+" horiz-adv-x="1153" 
d="M510 709v290q0 6 -0.5 11t-1.5 10q0 41 20 59q20 23 62 23q26 0 45 -8q37 -20 37 -90v-295h284q105 0 105 -74q0 -19 -2 -29q-8 -34 -32 -44.5t-66 -10.5h-289v-291q0 -49 -16.5 -77t-63.5 -29q-47 1 -64.5 27.5t-17.5 72.5v297h-285q-3 0 -5.5 -0.5t-4.5 -1.5
q-96 0 -96 80q1 47 27 63.5t73 16.5h291z" />
    <glyph glyph-name="comma" unicode="," horiz-adv-x="872" 
d="M391 197v4q0 76 53.5 122t124.5 46q84 0 147.5 -62.5t63.5 -183.5q0 -156 -112 -293q-104 -123 -181 -125h-6q-24 0 -39.5 14.5t-15.5 36.5q1 2 1.5 4t0.5 4q4 22 21.5 43t52 57t43.5 50q24 36 24 66q0 25 -16.5 37.5t-64 39.5t-71 57.5t-26.5 82.5z" />
    <glyph glyph-name="hyphen" unicode="-" horiz-adv-x="1073" 
d="M852 551q56 0 85.5 -26.5t29.5 -63.5q0 -38 -33 -68.5t-88 -30.5l-512 -2q-56 0 -87.5 27.5t-31.5 65.5q0 39 31.5 67.5t87.5 28.5z" />
    <glyph glyph-name="period" unicode="." horiz-adv-x="911" 
d="M799 178q12 -30 12 -65q0 -61 -38 -108t-93 -56q-10 -2 -35 -2q-71 0 -122.5 44t-51.5 124q0 71 53.5 113t120.5 42q52 0 94.5 -24t59.5 -68z" />
    <glyph glyph-name="slash" unicode="/" horiz-adv-x="952" 
d="M492 -88q-13 -58 -33.5 -94.5t-65.5 -36.5h-16q-60 11 -60 76q0 11 2.5 22t6.5 25.5t6 25.5l360 1409q10 51 18 75.5t31 39.5q21 16 45 16q22 0 48 -12q28 -15 28 -57q0 -12 -3 -26.5t-6.5 -30t-4.5 -21.5z" />
    <glyph glyph-name="zero" unicode="0" 
d="M987 285q-52 -152 -154.5 -245t-238.5 -93q-54 0 -119 18q-171 55 -250.5 240t-79.5 413q0 128 31 283q32 141 106.5 248.5t192.5 144.5q57 17 115 17q77 0 149 -30t123 -85q58 -62 96.5 -157t57 -204t18.5 -219q0 -195 -47 -331zM629 78q142 28 194 244q11 44 16.5 83
t9 98.5t3.5 117.5q0 141 -22 273t-66 198q-29 42 -77 66t-99 24q-39 0 -72 -13q-78 -33 -117 -110.5t-55 -184.5q-16 -123 -16 -245q0 -116 16 -244q17 -106 54.5 -183.5t117.5 -113.5q40 -14 74 -14q17 0 39 4z" />
    <glyph glyph-name="one" unicode="1" horiz-adv-x="1053" 
d="M893 119q28 0 43.5 -16.5t15.5 -39.5q0 -26 -17.5 -44.5t-51.5 -18.5h-496q-30 0 -51 14t-21 39q0 18 7 35q11 30 45 33h41q40 0 66 -0.5t56 -1.5v1032h-45q-112 0 -129 31q-10 20 -10 24q0 21 16.5 39t38.5 25q55 10 138.5 24.5t95.5 16.5h10q57 0 57 -72v-1120h191z
" />
    <glyph glyph-name="two" unicode="2" horiz-adv-x="1092" 
d="M377 1100v-25q0 -97 -35 -127q-24 -24 -53 -24q-8 0 -33 10q-41 20 -41 67q0 52 40 125t71 101q52 46 118.5 69t135.5 23q92 0 175 -40.5t133 -120t50 -185.5q0 -165 -123 -307q-61 -75 -186 -215t-142 -160l-135 -154h520q14 38 37 58t45 20q19 0 32 -16.5t13 -46.5v-11
q-5 -64 -16 -92.5t-38.5 -37.5t-86.5 -9l-614 -2q-56 0 -64 53q0 5 -0.5 7.5t-1.5 5.5q0 28 14 53.5t37.5 54.5t38.5 47l279 332q49 58 77 91t57 75.5t52 90t31 93.5q6 34 6 70q0 55 -18.5 103t-55.5 77q-57 45 -125 45q-54 0 -104.5 -26.5t-89.5 -71.5z" />
    <glyph glyph-name="three" unicode="3" horiz-adv-x="1092" 
d="M764 721q181 -103 213 -260q8 -39 8 -90q0 -73 -23.5 -145t-68.5 -126q-66 -77 -167 -116t-216 -39q-67 0 -137 15t-133 46q-80 40 -80 92q0 24 18 42t45 18q25 0 47 -11q28 -10 73 -32t77.5 -32t85.5 -11q4 0 6.5 -0.5t5.5 -1.5q79 0 152.5 38.5t109.5 106.5
q37 67 37 152q0 72 -30 140t-85.5 110t-126.5 42h-8q-12 0 -31 -3t-20 -3q-38 0 -53 27q-10 25 -10 27q0 21 20 39t45 20q79 6 136 28.5t87 82.5q23 57 23 114q0 61 -19 103q-21 50 -68.5 79t-103.5 29h-4q-77 -2 -151 -76q1 -10 1.5 -18.5t0.5 -22.5q0 -44 -28 -72t-79 -28
q-28 0 -48 21t-25 47q0 7 -0.5 11t-1.5 9q0 70 75 135q54 48 129 73.5t152 25.5q96 0 177 -39t122 -115q33 -64 33 -147q0 -78 -29 -144q-37 -73 -133 -141z" />
    <glyph glyph-name="four" unicode="4" horiz-adv-x="1112" 
d="M872 35q0 -39 -18 -56.5t-57 -17.5q-44 0 -62 17.5t-18 56.5v246h-484q-37 0 -51 13.5t-14 45.5q1 5 1.5 9.5t0.5 12.5q0 23 -0.5 38t-1.5 32q0 42 12 80q13 33 42.5 83t35.5 62q28 54 104 220q113 256 154 356q29 78 49 108q15 25 53 25q32 0 59.5 -20t27.5 -54v-8
q-4 -45 -79 -201.5t-165 -328.5t-146 -273v-65h402v338q0 38 21 57.5t57 19.5q15 0 45 -8q32 -7 32 -63v-344h46q100 0 102 -70v-4q0 -63 -96 -63q-14 1 -25 1.5t-27 0.5v-246z" />
    <glyph glyph-name="five" unicode="5" horiz-adv-x="1073" 
d="M289 1174q2 47 31.5 81.5t74.5 34.5h338q13 0 46 4t48 4q64 0 74 -45q1 -4 1.5 -7.5t0.5 -10.5q0 -32 -20 -55q-23 -23 -72 -23q-3 1 -5.5 1.5t-6.5 0.5l-371 -2l-29 -315q119 26 191 26q183 0 282 -123q103 -113 103 -290q0 -60 -13 -117.5t-37.5 -109.5t-59 -96
t-81.5 -79q-78 -57 -175 -86.5t-195 -29.5h-27q-128 0 -188 26q-31 15 -51.5 42.5t-20.5 53.5q0 24 17.5 40t48.5 16h16q19 -3 72.5 -14.5t76.5 -16.5t54 -8q7 0 12.5 -0.5t11.5 -1.5q65 0 132 23.5t114 66.5q37 33 65.5 80t43 98t14.5 104q0 67 -23 126.5t-69 101.5
q-78 69 -176 69q-45 0 -118 -16t-93 -16q-58 0 -58 73q1 3 1.5 6t0.5 7z" />
    <glyph glyph-name="six" unicode="6" horiz-adv-x="1073" 
d="M360 377q1 -141 65.5 -219t152.5 -78q57 0 107.5 35.5t82 104t31.5 165.5v6q0 113 -48 199t-149 86q-111 0 -176.5 -91t-65.5 -208zM879 1282q-6 -24 -97.5 -60.5t-161 -77.5t-148.5 -146t-120 -285q65 49 135.5 73.5t135.5 24.5q71 0 137.5 -29t115 -81t76 -126.5
t27.5 -164.5q0 -19 -0.5 -31t-1.5 -27q-6 -82 -39.5 -156.5t-87 -129t-124.5 -86t-151 -31.5q-48 0 -104 12q-109 28 -175.5 110.5t-94 194.5t-27.5 236q0 43 5 94t9 84q29 242 170 424.5t365 253.5q24 8 63 8q95 0 95 -63q0 -13 -2 -21z" />
    <glyph glyph-name="seven" unicode="7" horiz-adv-x="1073" 
d="M530 8q-26 -71 -77 -71q-17 0 -50 14q-47 21 -47 63q0 12 5 27t8 27l434 1062h-543q-27 0 -43 22.5t-16 51.5q0 31 16 54.5t43 23.5h637q88 0 88 -78q0 -34 -18 -86z" />
    <glyph glyph-name="eight" unicode="8" horiz-adv-x="1112" 
d="M442 664q-239 99 -239 307q0 17 4 53q10 74 46 128.5t90.5 90t121 54t135.5 18.5q78 0 144.5 -22t118.5 -64.5t80 -103.5t28 -140q0 -107 -58 -171.5t-168 -117.5q89 -41 148.5 -85.5t92 -109t32.5 -159.5q0 -118 -58.5 -207.5t-155.5 -138t-216 -51.5
q-105 0 -197.5 36.5t-154.5 108.5t-78 176q-2 19 -4 32.5t-2 20.5q0 121 79.5 206.5t210.5 138.5zM647 1190q-32 4 -55 4q-95 0 -163.5 -53.5t-68.5 -147.5q0 -101 67.5 -155.5t184.5 -94.5q78 41 107.5 60t56.5 56t31 93v23q0 80 -41.5 141t-118.5 74zM328 326
q0 -114 74.5 -187t183.5 -73q8 1 15 1.5t17 0.5q111 12 171.5 83.5t60.5 180.5v24q-5 74 -45 121.5t-90 72t-144 60.5q-89 -37 -136 -67t-77 -83t-30 -134z" />
    <glyph glyph-name="nine" unicode="9" horiz-adv-x="1073" 
d="M801 547q-134 -105 -279 -105q-97 0 -179 51.5t-129.5 145t-47.5 209.5q0 19 4 55q19 187 137.5 298.5t265.5 111.5q106 0 199.5 -61.5t151 -192.5t57.5 -318q0 -49 -8 -159q-21 -173 -97.5 -317.5t-207 -236.5t-306.5 -112q-8 0 -13 -0.5t-11 -1.5q-42 0 -72 23.5
t-30 50.5q0 18 18 35q15 13 80 30t115.5 34t99.5 48q183 111 252 412zM786 874q0 69 -19 127.5t-50 95.5t-69 55.5t-79 18.5q-43 0 -81.5 -19.5t-70 -57.5t-51 -97t-20.5 -135q0 -3 -0.5 -5t-1.5 -5q0 -76 20 -138.5t65.5 -100.5t113.5 -38q74 0 129.5 43t84.5 112t29 144z
" />
    <glyph glyph-name="colon" unicode=":" horiz-adv-x="872" 
d="M428 707q0 80 51 122.5t121 42.5h37q55 -9 93 -56.5t38 -108.5q0 -32 -12 -64q-17 -44 -60.5 -70t-93.5 -26q-68 0 -121 44.5t-53 115.5zM418 117q0 80 50.5 124t121.5 44q24 0 35 -2q54 -9 92.5 -57.5t38.5 -108.5q0 -31 -11 -64q-17 -44 -60 -68t-93 -24
q-69 0 -121.5 42t-52.5 114z" />
    <glyph glyph-name="semicolon" unicode=";" horiz-adv-x="872" 
d="M401 180q0 2 -0.5 3.5t-1.5 2.5q0 70 52 114t118 44q82 0 141.5 -59.5t59.5 -171.5q-3 -170 -129 -306q-87 -96 -154 -96q-21 0 -37 15t-16 34q1 3 1.5 5.5t0.5 5.5q3 20 19.5 40.5t52.5 59.5t39 43q22 28 22 59q0 28 -55.5 61.5t-82.5 59.5t-30 86zM637 872
q55 -9 93 -56.5t38 -108.5q0 -32 -12 -64q-17 -44 -60.5 -70t-93.5 -26q-68 0 -121 44.5t-53 115.5q0 80 51 122.5t121 42.5h37z" />
    <glyph glyph-name="less" unicode="&#x3c;" horiz-adv-x="1153" 
d="M180 721l735 338q50 20 76 20q46 0 58 -53v-25q0 -54 -76 -86l-645 -284l645 -287q76 -30 76 -88v-23q-12 -55 -60 -55q-22 0 -74 23l-735 342q-10 5 -30 14.5t-34 20t-22 22.5t-8 33q0 19 9 33t19.5 21.5t33 18t32.5 15.5z" />
    <glyph glyph-name="equal" unicode="=" horiz-adv-x="1153" 
d="M225 393q-52 0 -79 15.5t-27 64.5q1 49 26 63.5t74 14.5h748q64 0 82 -35q10 -15 10 -47v-18q-7 -36 -31 -47t-67 -11h-736zM961 707h-736q-50 0 -77.5 15.5t-28.5 63.5q1 48 26 63t74 15h737q105 0 105 -73q0 -19 -2 -29q-7 -34 -31 -44.5t-67 -10.5z" />
    <glyph glyph-name="greater" unicode="&#x3e;" horiz-adv-x="1153" 
d="M952 721q54 -25 75.5 -39.5t21.5 -48.5q0 -36 -21.5 -50.5t-75.5 -39.5l-735 -342q-50 -23 -76 -23q-47 0 -55 55q0 3 -2 11t-2 10q0 59 80 90l643 287l-643 284q-80 34 -80 86q0 3 2 13t2 12q8 53 53 53q30 0 78 -20z" />
    <glyph glyph-name="question" unicode="?" horiz-adv-x="1012" 
d="M399 111q0 51 24.5 86t62 52t81.5 17h33q53 -9 90 -54t37 -101q0 -27 -10 -62q-16 -41 -58 -64.5t-90 -23.5q-68 0 -119 40.5t-51 109.5zM313 1145q40 69 115 105t164 36q75 0 146 -28.5t117.5 -82.5t55.5 -128q2 -17 2 -48q0 -73 -32 -130t-80.5 -106.5t-98 -101.5
t-69.5 -102q-10 -25 -11.5 -85t-12 -89.5t-52.5 -30.5l-6 -2q-29 0 -51.5 21.5t-28.5 50.5q-6 24 -6 47q0 90 70 186q7 10 53 68.5t76 101.5t50.5 89t20.5 92q0 56 -37 108q-17 25 -49 39t-69 14q-44 0 -77.5 -20.5t-43.5 -58.5q-3 -13 -4.5 -20t-1.5 -13q0 -8 5 -41.5
t5 -50.5q0 -53 -55 -70q-28 -10 -52 -10q-42 0 -62 32.5t-20 79.5q0 82 39 148z" />
    <glyph glyph-name="at" unicode="@" horiz-adv-x="1153" 
d="M848 760q-55 47 -117 47q-52 0 -90 -35q-32 -30 -52 -93t-20 -128q0 -50 12 -92.5t35 -69.5q37 -39 80 -39q33 0 65.5 20.5t49.5 53.5q18 40 18 98v72q0 3 -0.5 6t-1.5 6q0 25 21 154zM854 889v39q0 83 -15 143t-61 105q-64 59 -147 59t-142 -53q-94 -80 -146 -243
t-52 -353q0 -215 70 -393.5t200 -239.5q67 -33 144 -33q54 0 143 21.5t110 21.5q50 0 50 -57v-2q0 -50 -45 -68t-123 -29q-62 -10 -115 -10q-145 0 -256 64q-100 57 -170.5 170.5t-107.5 260.5t-37 304q0 115 21 229t61.5 209t102 168t138.5 111q83 39 166 39
q93 0 173.5 -44t125.5 -124q47 -86 47 -217q0 -32 -3.5 -82t-11.5 -109.5t-11 -87.5q-2 -14 -6 -40.5t-6.5 -50.5t-2.5 -46q0 -24 8 -66q6 -28 30 -48.5t49.5 -39.5t27.5 -39v-16q0 -20 -14 -31.5t-33 -11.5q-60 0 -125 59q-45 -56 -97.5 -86t-103.5 -30q-60 0 -114.5 37.5
t-88 107t-36.5 156.5q0 3 -0.5 5.5t-1.5 4.5q0 85 36.5 172t101 144t140.5 57q66 0 127 -37z" />
    <glyph glyph-name="A" unicode="A" horiz-adv-x="1274" 
d="M371 514h356l-188 502zM774 391h-444l-64 -201q0 -3 -2 -11t-2 -11q0 -53 150 -53q36 0 54.5 -18t18.5 -42q0 -22 -15.5 -38.5t-41.5 -16.5h-365q-25 0 -42 19.5t-17 41.5q0 32 27 43q54 30 72.5 47t33.5 64l332 995q12 35 34.5 54.5t47.5 19.5t47 -16.5t33 -48.5
l387 -1037q16 -41 34.5 -49.5t56 -15.5t52.5 -27q10 -13 10 -33q0 -22 -15.5 -39.5t-41.5 -17.5h-405q-24 0 -42 16t-18 39q0 26 24.5 45t67.5 19h15q31 0 63.5 11.5t32.5 35.5q0 5 -0.5 8.5t-1.5 7.5z" />
    <glyph glyph-name="B" unicode="B" 
d="M436 1128v-380q6 0 15.5 -1t17.5 -2q136 0 209 46q45 25 68.5 68t23.5 95v9q0 172 -223 172q-18 0 -37.5 -1t-41 -3t-32.5 -3zM797 522q-87 94 -279 94h-82v-487q18 0 30.5 -0.5t27.5 -1.5q138 0 236.5 38.5t121.5 147.5q4 30 4 49q0 43 -15.5 87t-43.5 73zM1006 516
q34 -76 34 -160q0 -137 -88 -239q-62 -70 -149 -94.5t-203 -24.5q-27 1 -50 1.5t-58 0.5h-318q-31 0 -52.5 18t-21.5 45q0 9 6 27q16 41 93 41q27 0 41 -0.5t30 -1.5v999q-3 0 -5 -0.5t-5 -1.5h-47q-91 0 -107 43q-6 21 -6 25q0 24 22.5 41.5t51.5 17.5h375q157 0 259 -38
t136 -164q8 -50 8 -78q0 -73 -32 -133q-28 -52 -72.5 -84t-112.5 -60q95 -18 163.5 -59t107.5 -121z" />
    <glyph glyph-name="C" unicode="C" 
d="M1030 188q0 -55 -42 -87t-120 -70q-112 -58 -254 -58q-49 0 -92 7q-102 17 -178.5 78t-126.5 153t-73 197t-23 219q0 86 13.5 166.5t39.5 152.5q35 92 90.5 162t131 115t167.5 55q42 4 64 4q42 0 75 -6q17 -2 49 -11t52.5 -15.5t44.5 -10.5q1 0 2 -0.5t2 -1.5
q14 0 50.5 9t53.5 9q61 0 66 -110l6 -197v-4q0 -36 -18.5 -61t-55.5 -25q-37 1 -50 31.5t-21.5 89t-18.5 76.5q-28 50 -86 75t-123 25q-83 0 -137 -29q-213 -103 -213 -503q0 -383 197 -496q68 -35 129 -35q49 0 99 20.5t83 55.5q30 32 53 91.5t40.5 104t39.5 52.5q8 2 27 2
q61 0 61 -129q0 -24 -2 -60t-2 -41z" />
    <glyph glyph-name="D" unicode="D" horiz-adv-x="1174" 
d="M371 1141v-1024q20 0 32.5 -0.5t26.5 -1.5q154 0 242 45q117 59 164 186t47 281q0 94 -14.5 176.5t-54.5 157t-109 118.5q-62 40 -130.5 51t-166.5 11h-37zM63 82q16 37 84 37q21 0 33.5 -0.5t26.5 -1.5v1024q-8 0 -30 -2t-34 -2q-64 0 -80 39q-6 18 -6 22
q0 24 20.5 40.5t49.5 16.5h244q123 0 206 -7.5t166.5 -37t149.5 -90.5q90 -85 132 -214.5t42 -274.5q0 -91 -17 -181.5t-56 -171t-101 -139.5q-67 -62 -151 -92.5t-171.5 -38.5t-199.5 -8h-244q-28 0 -49 17t-21 40q0 1 6 25z" />
    <glyph glyph-name="E" unicode="E" 
d="M252 1137q-7 0 -31 -2t-37 -2q-72 0 -88 41q-6 18 -6 24q0 25 23 41t53 16h498q20 0 112.5 5.5t132.5 5.5h25q46 0 62 -21t16 -63v-35l-11 -195q-1 -33 -17 -51t-36 -18q-23 0 -42 24t-19 64q-1 105 -47 135.5t-146 30.5h-278v-410q8 0 39 -2t49 -2q89 0 119 27
q14 14 16.5 25.5t5.5 51.5q0 38 18.5 57t43.5 19q22 0 39.5 -15t17.5 -40v-389q0 -26 -19.5 -43t-44.5 -17q-8 0 -30 11q-29 14 -29 110q0 22 2 57t2 41h-229v-503h235q140 0 201.5 37t69.5 163q1 38 18.5 59t40.5 21q22 0 38.5 -20.5t16.5 -55.5v-268q0 -65 -84 -65
q-16 1 -29.5 1.5t-33.5 0.5q-98 6 -162.5 8t-129 3t-165.5 1h-129q-26 0 -47 -0.5t-47 -1.5q-110 0 -117 47q0 5 -0.5 8t-1.5 6q0 58 105 58h57v1020z" />
    <glyph glyph-name="F" unicode="F" horiz-adv-x="1153" 
d="M303 1137q-8 0 -39 -2t-49 -2q-96 0 -115 41q-6 18 -6 22q0 23 21 41t49 18h553q25 0 90.5 4t83 5.5t57.5 1.5q55 0 76 -6q41 -9 41 -68q0 -16 -0.5 -25t-1.5 -20l-10 -219q-1 -31 -19.5 -50.5t-40.5 -19.5q-16 0 -31.5 14.5t-19.5 40.5q-4 42 -7 71t-13 55.5t-33 45.5
q-64 52 -211 52h-211v-416q23 0 42.5 -0.5t43.5 -1.5q96 0 123 26q20 25 20 76q1 40 19.5 59t42.5 19q22 0 39.5 -15.5t17.5 -41.5v-389q0 -24 -19 -42t-42 -18q-14 0 -33 13q-29 18 -29 118q0 22 2 53t2 37h-229v-497h213q25 0 40 -17t15 -43q0 -15 -6.5 -28t-19 -21
t-29.5 -8h-485q-25 0 -46.5 15.5t-21.5 39.5q0 11 8 27q12 37 103 37q25 0 38 -0.5t27 -1.5v1020z" />
    <glyph glyph-name="G" unicode="G" horiz-adv-x="1212" 
d="M1010 170q0 -2 -0.5 -3.5t-1.5 -2.5q0 -96 -35 -96q-3 0 -21 5t-30 5q-13 0 -17 -2q-11 -5 -57 -30t-78 -38q-110 -35 -197 -35h-4q-94 0 -178.5 42t-145.5 115t-95 165q-54 145 -54 315q0 120 28.5 236.5t80.5 202.5q45 73 108 123.5t142.5 79t160.5 28.5q51 0 109 -10
q10 -2 37 -12t50 -15.5t36 -5.5q3 0 12 2t12 2q54 14 68 14h12q35 -3 47.5 -32.5t14.5 -75.5l8 -240v-8q0 -34 -22.5 -59t-49.5 -25q-38 0 -53 49q-5 25 -7.5 84.5t-18 98t-64.5 75.5q-61 43 -154 43q-81 0 -147 -32q-59 -29 -102.5 -81t-71 -121t-39.5 -145.5t-12 -156.5
q0 -85 12.5 -164.5t36.5 -149.5q35 -109 113 -165t175 -56q117 0 226 76v238q-32 0 -53 -0.5t-46 -1.5q-27 0 -67 4q-32 3 -41 30q-6 18 -6 23q0 24 16 42.5t43 18.5h373q28 0 42.5 -17.5t14.5 -43.5v-12q-5 -45 -76 -45q-9 1 -16 1.5t-18 0.5v-238z" />
    <glyph glyph-name="H" unicode="H" horiz-adv-x="1212" 
d="M207 115v1026q-8 0 -30 -2t-34 -2q-64 0 -80 39q-6 18 -6 22q0 24 22 40.5t50 16.5h344q27 0 48.5 -16.5t21.5 -40.5q0 -10 -4 -22q-17 -41 -90 -41q-11 1 -23 2t-22.5 2t-16 1.5t-16.5 0.5v-418h440v418q-10 0 -16 -0.5t-16 -1.5t-23 -2t-25 -2q-73 0 -86 41
q-6 18 -6 22q0 25 22.5 41t51.5 16h338q27 0 50 -18t23 -41q0 -24 -18 -39q-20 -20 -72 -20q-10 0 -32 2t-29 2v-1026h57q94 0 94 -56q0 -30 -21.5 -44.5t-51.5 -14.5h-338q-29 0 -51.5 16t-22.5 41q0 1 6 25q12 37 86 37q16 0 44 -2t36 -2v475h-440v-475q8 0 35 2t43 2
q74 0 90 -37q4 -16 4 -25q0 -24 -21.5 -40.5t-48.5 -16.5h-344q-28 0 -50 17.5t-22 39.5q0 1 6 25q15 35 80 35q23 0 36 -0.5t28 -1.5z" />
    <glyph glyph-name="I" unicode="I" horiz-adv-x="1112" 
d="M236 1141h-5q-32 0 -50.5 17.5t-18.5 39.5q0 24 19.5 40.5t54.5 16.5h628q32 0 48 -17.5t16 -41.5t-16 -40.5t-46 -16.5l-2 2h-207v-1022h291v-2q35 0 54.5 -16.5t19.5 -39.5t-19.5 -42t-54.5 -19h-661q-32 0 -52 17.5t-20 41.5t20 42t52 18h198v1022h-249z" />
    <glyph glyph-name="J" unicode="J" horiz-adv-x="1192" 
d="M897 342q0 -71 -8 -124t-34 -101t-73 -80q-93 -66 -245 -66q-57 0 -131 13q-91 13 -160 37.5t-103 78.5q-20 32 -20 125q0 22 8 78q6 22 27.5 37.5t44.5 15.5q32 0 47 -24q19 -35 26 -82.5t24.5 -74.5t80.5 -56q71 -31 135 -31q99 0 154 64q65 77 65 256q0 42 -0.5 67.5
t-1.5 54.5v611q-20 0 -64 -2t-65 -2q-11 0 -32 2t-29 2q-41 4 -51 33q-7 19 -7 24q0 26 22 41.5t54 15.5h463q30 0 50 -15t20 -42v-14q-5 -47 -109 -47q-19 0 -49 2t-39 2v-799z" />
    <glyph glyph-name="K" unicode="K" horiz-adv-x="1274" 
d="M195 1141q-8 0 -32 -2t-38 -2q-67 0 -82 39q-4 6 -4 22q0 24 21.5 40.5t48.5 16.5h317q30 0 53 -18t23 -41q0 -21 -19 -39q-21 -18 -71 -18q-14 1 -26 1.5t-26 0.5v-488q119 81 189 172l194 258q9 20 9 25q0 15 -22 21.5t-51.5 8.5t-49.5 3q-23 4 -36 19.5t-13 33.5
q0 25 19 43t54 18h326q33 0 55.5 -17.5t22.5 -41.5q0 -26 -27 -43q-27 -15 -59.5 -25t-54.5 -26.5t-64 -71.5l-178 -233q-11 -15 -29 -36t-36.5 -41.5t-43.5 -47.5l371 -457q41 -50 74 -70t92 -26q74 -8 74 -60q0 -59 -99 -59h-106q-40 0 -62.5 11.5t-56.5 51.5l-399 515
q-46 -31 -93 -60v-401h89q69 0 88 -4q31 -12 34 -43q1 -5 1.5 -8.5t0.5 -8.5q0 -27 -20 -40t-51 -13h-359q-25 0 -47 17.5t-22 39.5q0 1 6 25q8 22 28 28.5t54 6.5h33v1024z" />
    <glyph glyph-name="L" unicode="L" horiz-adv-x="1174" 
d="M274 1130q-35 0 -58.5 -0.5t-51.5 -1.5q-13 1 -24.5 1.5t-28.5 0.5q-41 9 -54 37q-1 8 -3.5 16t-2.5 11q0 28 23 44.5t55 16.5h446q33 0 55.5 -19.5t22.5 -43.5q0 -23 -18 -41q-24 -25 -105 -25q-20 0 -52 2t-38 2v-1011h269q21 0 35.5 -0.5t31.5 -1.5q105 0 150 43
q18 16 24 38.5t8.5 55.5t4.5 49q5 105 61 105h16q24 -3 34.5 -23.5t10.5 -50.5v-12l-20 -271q-1 -38 -17 -50.5t-53 -12.5h-24q-76 2 -125 4t-97 4t-124 4h-324q-6 0 -35 -2t-49 -2q-108 0 -108 55q0 2 2 9t2 10q7 49 94 49q25 0 38.5 -0.5t28.5 -1.5v1013z" />
    <glyph glyph-name="M" unicode="M" horiz-adv-x="1313" 
d="M899 1008l-223 -500q-15 -38 -39 -60t-45 -22q-44 0 -76 68l-235 489v-692q0 -90 9 -120t35.5 -37.5t118.5 -18.5q31 -3 48.5 -21t17.5 -41q0 -20 -16.5 -36.5t-42.5 -16.5h-361q-20 0 -34.5 18.5t-14.5 38.5q0 19 14 37.5t39 22.5t35.5 13.5t13.5 33.5q7 45 7 84v893
q-15 0 -26.5 -0.5t-25.5 -1.5q-47 0 -65 18q-19 19 -19 41t19 41q21 18 104 18q41 0 61.5 -0.5t43.5 -1.5q32 0 48.5 -11t28.5 -40l275 -579l244 555q26 75 88 75h198q23 0 38.5 -18t15.5 -41v-10q-5 -47 -80 -47q-13 1 -24 1.5t-25 0.5v-1024q13 1 24.5 1.5t34.5 0.5
q100 0 100 -60q0 -59 -71 -59h-344q-29 0 -51.5 16t-22.5 41q0 9 4 25q14 37 106 37q28 0 41.5 -0.5t28.5 -1.5v891z" />
    <glyph glyph-name="N" unicode="N" horiz-adv-x="1212" 
d="M344 983l12 -682q1 -38 2 -77.5t12.5 -58.5t41 -28.5t82.5 -15.5q29 -3 46 -21t17 -43q0 -22 -15 -39.5t-42 -17.5h-332q-23 0 -40 21t-17 45q0 39 28 51q21 10 46 16.5t28.5 23t5.5 81.5v892q-8 0 -33 -2t-41 -2q-71 0 -88 41q-6 21 -6 23q0 26 17 45.5t43 19.5h217
q32 0 47.5 -12.5t30.5 -42.5l466 -870l-12 624v62q0 56 -19 83t-83 31q-51 6 -76 23.5t-25 40.5q0 24 19.5 42.5t42.5 18.5h330q26 0 40.5 -19.5t14.5 -43.5q0 -46 -37 -57q-37 -10 -48 -16.5t-15 -35.5q-7 -42 -7 -94q1 -11 1.5 -21t0.5 -24v-876q0 -38 -17 -58t-44 -20
q-23 0 -46.5 15.5t-41.5 45.5z" />
    <glyph glyph-name="O" unicode="O" horiz-adv-x="1192" 
d="M160 981q36 83 92 148.5t126.5 105.5t149.5 49q19 2 58 2q51 0 103 -11.5t102.5 -36.5t87.5 -58q70 -63 118 -150t72.5 -192t24.5 -213q0 -193 -72 -351q-47 -98 -113.5 -166t-147.5 -104.5t-171 -36.5q-86 0 -174 37q-78 35 -140 99t-104.5 150.5t-63 183.5t-20.5 194
q0 90 19.5 181.5t52.5 168.5zM657 119q99 24 156 106t77.5 186t20.5 218q0 123 -27.5 238.5t-99 196.5t-192.5 81q-178 0 -250 -157t-72 -365q1 -14 1.5 -26t0.5 -30q3 -105 28 -197.5t83 -160.5q38 -46 93.5 -72t115.5 -26q25 0 65 8z" />
    <glyph glyph-name="P" unicode="P" horiz-adv-x="1174" 
d="M479 668q80 -23 148 -23q82 0 148 32t99 103q25 51 25 119q0 63 -18 113q-45 114 -211 118h-191v-462zM315 1130q-8 0 -37 -2t-47 -2q-89 0 -108 43q-8 18 -8 29q0 29 29.5 43t66.5 14h436q132 0 219 -21.5t144 -98.5q73 -98 73 -238q0 -32 -8 -90q-16 -75 -57.5 -130.5
t-101.5 -90t-130 -50.5t-143 -16q-76 0 -164 19v-422q10 0 50 2t65 2q133 0 133 -62q0 -29 -22 -44t-54 -15h-440q-29 0 -54.5 15t-25.5 40q0 15 6 27q11 37 103 37q27 0 42.5 -0.5t32.5 -1.5v1013z" />
    <glyph glyph-name="Q" unicode="Q" horiz-adv-x="1253" 
d="M592 1145q-123 0 -195 -80.5t-99.5 -197t-27.5 -246.5q1 -14 1.5 -25.5t0.5 -28.5q7 -178 82.5 -318t225.5 -140q12 0 77 10q99 24 156 106t77.5 186t20.5 218q0 123 -27.5 238.5t-99 196.5t-192.5 81zM866 -352q-77 132 -168 233q-38 46 -74.5 66.5t-93.5 23.5
q-101 9 -190 71.5t-145 154.5q-54 94 -81.5 205.5t-27.5 228.5q0 129 33 258q37 128 109.5 216t169 133.5t196.5 45.5q83 0 162.5 -30.5t146.5 -93t109 -152.5q26 -54 45 -117.5t28 -129.5t9 -132q0 -172 -58 -322q-73 -200 -260 -303q114 -95 211 -225q18 -29 43 -29
q7 0 37 10q16 11 33 11q24 0 38.5 -17.5t14.5 -40.5q0 -36 -29 -49l-176 -84q-8 -4 -18 -4q-13 0 -26 12t-22.5 30t-15.5 30z" />
    <glyph glyph-name="R" unicode="R" horiz-adv-x="1253" 
d="M399 688q11 0 36 -2t38 -2q121 0 210.5 40.5t107.5 139.5q4 38 4 60q0 46 -15.5 92t-48.5 74q-56 47 -196 47q-48 0 -75.5 -0.5t-60.5 -1.5v-447zM399 569v-452h76q53 0 78 -2q40 0 51 -31q6 -15 6 -29q0 -26 -23.5 -40.5t-56.5 -14.5h-362q-28 0 -51 16.5t-23 40.5
q0 1 6 25q17 35 84 35h52v1018q-13 0 -35 -2.5t-37 -2.5q-90 0 -105 44q-6 18 -6 24q0 25 23 41t53 16h440q109 0 182.5 -16t129.5 -72q89 -89 92 -229v-12q0 -243 -311 -332q84 -50 139 -115.5t90 -133.5t65.5 -125.5t65.5 -80.5q15 -7 30.5 -8t32 -1.5t30.5 -5t24 -18.5
q12 -18 12 -38q0 -34 -35 -48q-16 -4 -81 -13t-87 -9h-8q-22 0 -40.5 13.5t-32 31.5t-30 50.5t-22.5 43.5q-36 72 -68.5 136.5t-68 122t-74.5 96.5q-76 74 -205 77z" />
    <glyph glyph-name="S" unicode="S" horiz-adv-x="1112" 
d="M184 90l-2 213q0 27 8 53t24 43t38 17q20 0 37 -8q19 -9 32.5 -70t31 -105.5t65.5 -80.5q77 -58 166 -58q56 0 111 24t93 69.5t46 103.5q1 9 1.5 16t0.5 17q0 87 -68 146.5t-166 86.5q-144 45 -190 61.5t-109 56t-102 102.5t-39 151q1 150 114.5 248t266.5 106h39
q44 0 73 -4.5t86.5 -18.5t79.5 -18q1 0 2.5 -0.5t3.5 -1.5q19 0 39 12q16 6 35 6q40 0 51 -22q6 -8 6 -31v-28l-10 -244q-1 -25 -21 -41.5t-42 -16.5q-28 0 -51 27q-15 21 -20 70t-10.5 77t-34 58t-91.5 45q-48 10 -86 10q-75 0 -134 -29.5t-93.5 -77.5t-34.5 -102
q0 -58 42.5 -106.5t131.5 -79.5q101 -33 171.5 -55t140 -56.5t120.5 -93t65 -143.5q7 -29 7 -68q0 -133 -89.5 -236t-222.5 -128q-42 -9 -88 -9q-50 0 -142 17.5t-118 17.5q-7 0 -12 -0.5t-12 -1.5q-12 -3 -34.5 -10.5t-37.5 -7.5h-10q-58 9 -58 98z" />
    <glyph glyph-name="T" unicode="T" horiz-adv-x="1174" 
d="M670 117h106q86 0 101 -4q28 -11 34 -43v-13q0 -22 -17.5 -39.5t-41.5 -17.5h-524q-24 0 -42 17t-18 40q0 3 6 27q12 28 41 31q50 4 76 4q38 0 62.5 -0.5t52.5 -1.5v1011q-31 1 -57.5 1.5t-67.5 0.5q-26 0 -80 -4q-31 -3 -51 -30q-17 -36 -17 -66q0 -10 2 -32.5t3.5 -40
t1.5 -27.5q0 -33 -7 -49q-9 -17 -30 -27t-39 -10q-27 0 -46.5 15t-19.5 42v268q0 38 22 65.5t58 27.5h4q34 -2 55 -4t42 -4.5t55 -4.5q55 -2 119.5 -6t101.5 -4q9 1 17 1.5t20 0.5q11 0 18 -0.5t15 -1.5q36 0 102.5 4t120.5 6q34 2 55 4.5t41.5 4.5t54.5 4h2q38 0 60 -27
t22 -66v-268q0 -27 -21.5 -42t-49.5 -15q-39 0 -58 26q-14 26 -14 64q0 15 2 47t2 47q0 100 -80 100h-194v-1011z" />
    <glyph glyph-name="U" unicode="U" horiz-adv-x="1212" 
d="M207 1133q-14 0 -32.5 -2.5t-27.5 -2.5q-69 0 -84 43q-6 21 -6 25q0 23 22 41t52 18h303q30 0 53 -17.5t23 -41.5q0 -11 -4 -25q-15 -41 -86 -41q-13 1 -27.5 2t-21.5 1v-736q0 -12 -0.5 -20.5t-1.5 -18.5q0 -57 11 -98t44 -78q61 -61 162 -61q31 0 71 8q81 17 119 59.5
t48 100.5t10 145v699q-11 0 -30.5 -2.5t-31.5 -2.5q-70 0 -84 41q-6 21 -6 25q0 25 20.5 43t49.5 18h299q32 0 52.5 -16.5t20.5 -44.5v-12q-7 -52 -94 -52q-12 1 -26 2t-19 1v-723q0 -103 -15.5 -180t-66.5 -136q-108 -119 -309 -119q-98 0 -187.5 37t-140.5 111
q-61 92 -61 268q1 14 1.5 25t0.5 26v691z" />
    <glyph glyph-name="V" unicode="V" horiz-adv-x="1212" 
d="M160 1141q-9 0 -14.5 -0.5t-12.5 -1.5q-54 0 -70 35q0 3 -2 12t-2 12q0 24 17.5 40.5t42.5 16.5h352q27 0 43 -17t16 -42v-10q-6 -38 -45 -45q-36 -4 -53 -4q-18 0 -52 2t-50 2l288 -897l252 897q-6 0 -34 -2t-45 -2q-79 0 -91 34q-4 14 -4 27q0 23 16 40t42 17h309
q28 0 42.5 -16t14.5 -41v-14q-7 -45 -73 -45q-7 1 -13.5 1.5t-13.5 0.5l-313 -1084q-12 -42 -34.5 -66t-64.5 -24q-41 0 -62 24.5t-34 69.5z" />
    <glyph glyph-name="W" unicode="W" horiz-adv-x="1333" 
d="M424 225l151 492q19 48 31 64.5t45 17.5q34 0 49 -21t27 -61l160 -492l96 908q-15 0 -41 -1t-49 -2q-13 0 -66 5q-31 7 -41 30q-2 10 -4 18t-2 11q0 27 20 44t52 17h324q31 0 50 -16.5t19 -44.5v-14q-7 -50 -90 -50q-3 1 -7 2t-7 1l-146 -1108q-3 -29 -27.5 -48.5
t-56.5 -19.5h-4q-33 1 -52 14.5t-29 32t-25 59.5l-156 490l-149 -492q-13 -48 -34.5 -75.5t-64.5 -28.5h-6q-80 0 -92 106l-160 1070q-5 0 -19 -1t-26 -2q-58 0 -71 35q-7 15 -7 31q0 28 23 43.5t57 15.5h322q32 0 53 -14.5t21 -42.5q0 -3 -1 -8l-2 -10q-3 -19 -16.5 -30.5
t-30.5 -14.5q-45 -5 -59 -5q-20 1 -43.5 2t-36.5 1z" />
    <glyph glyph-name="X" unicode="X" horiz-adv-x="1235" 
d="M215 1067q-22 33 -33.5 45t-23.5 18t-37 11t-47 12q-31 10 -31 41q0 24 21 42.5t51 18.5h350q29 0 40.5 -7.5t15 -19.5t9.5 -28q0 -63 -104 -63q-12 1 -26 2t-24.5 2t-16.5 1.5t-17 0.5l252 -379l205 379q-6 0 -31 -2t-41 -2q-81 0 -96 37q-8 16 -8 24q0 23 22 39t51 16
h326q23 0 41 -17t18 -38q0 -13 -8 -31q-12 -18 -53.5 -29.5t-60.5 -19.5t-41 -45l-250 -418l315 -475q22 -34 41.5 -42.5t54.5 -19.5t47 -30q11 -13 11 -31q0 -24 -20 -41.5t-46 -17.5h-313q-25 0 -46.5 17.5t-21.5 41.5q0 2 1.5 7.5t4.5 15.5q16 37 84 37q21 0 33.5 -0.5
t26.5 -1.5l-269 401l-215 -401q17 1 31.5 1.5t40.5 0.5q89 0 94 -47v-13q0 -25 -16 -42t-41 -17h-356q-27 0 -45.5 19.5t-18.5 41.5q0 34 33 48q21 8 59.5 17t56 25t54.5 74l250 404z" />
    <glyph glyph-name="Y" unicode="Y" horiz-adv-x="1192" 
d="M885 121q37 0 59.5 -17.5t22.5 -40.5t-22.5 -41t-59.5 -18h-492q-31 0 -54.5 15.5t-23.5 41.5q0 11 4 27q13 35 119 35q36 0 54 -0.5t38 -1.5v420l-358 549q-32 47 -61 47h-17q-15 0 -33 14q-22 19 -22 43q0 25 21.5 43t60.5 18h338q32 0 54 -15.5t22 -43.5v-16
q-10 -40 -58 -47q-33 -5 -67 -5q-22 1 -40.5 1.5t-47.5 0.5l286 -475l121 248q20 43 121 227q-6 0 -33 -2t-43 -2q-95 0 -108 39q-1 4 -2.5 9.5t-3 9.5t-1.5 8q0 27 22 45t54 18h271q35 0 62.5 -18t27.5 -43q0 -21 -15 -37q-11 -13 -23.5 -16t-28 -6t-35.5 -24.5t-44 -66.5
l-256 -491v-432h191z" />
    <glyph glyph-name="Z" unicode="Z" 
d="M719 129q65 0 101.5 19t51 49t26.5 74t26 69q22 25 47 25q23 0 41 -20t18 -46v-6l-22 -248q-5 -55 -84 -55q-14 1 -26 1.5t-28 0.5q-131 8 -295 8h-284q-65 0 -102 15.5t-44 72.5q0 6 -0.5 10t-1.5 8q0 42 16.5 72.5t61.5 100.5l565 851h-299q-95 0 -130 -36.5t-51 -101
t-34 -81.5q-15 -18 -41 -18q-24 0 -41.5 18.5t-17.5 44.5q1 3 1.5 5.5t0.5 5.5l23 245q5 58 82 58h34q53 -2 149 -7.5t167 -5.5h241q113 0 113 -67q0 -40 -35 -90l-647 -971h418z" />
    <glyph glyph-name="bracketleft" unicode="[" horiz-adv-x="932" 
d="M455 1116q0 63 19 101t77 38h227q30 0 47 -19t17 -44q0 -27 -15 -43q-18 -27 -110 -27q-24 0 -59 2t-40 2v-1259q22 1 41 1.5t54 0.5q59 0 88 -6q15 -3 26.5 -16.5t12.5 -28.5q1 -5 1.5 -9t0.5 -10q0 -27 -17 -44t-47 -17h-227q-58 0 -77 38.5t-19 102.5v1237z" />
    <glyph glyph-name="backslash" unicode="\" horiz-adv-x="952" 
d="M690 -88l-356 1411q-4 12 -8 24.5t-7.5 25.5t-3.5 28q0 39 33 57q21 12 43 12q34 0 58 -22q17 -18 23.5 -38.5t19.5 -70.5l356 -1409q12 -44 12 -75q0 -64 -55 -74h-19q-29 0 -48 19.5t-29.5 48.5t-18.5 63z" />
    <glyph glyph-name="bracketright" unicode="]" horiz-adv-x="831" 
d="M725 1116v-1237q0 -68 -17 -104.5t-77 -36.5h-228q-28 0 -46.5 18.5t-18.5 44.5q0 11 8 35q14 29 49 29q54 4 84 4q28 0 45.5 -0.5t38.5 -1.5v1259q-27 0 -45 -0.5t-39 -1.5q-30 0 -84 4q-33 0 -49 31q-6 18 -6 33q0 26 17.5 44.5t45.5 18.5h228q61 0 77.5 -35.5
t16.5 -103.5z" />
    <glyph glyph-name="asciicircum" unicode="^" horiz-adv-x="1012" 
d="M653 1257l256 -325q9 -12 9 -31q0 -21 -14 -37t-32 -16q-12 0 -24 12l-256 258l-258 -258q-12 -12 -27 -12q-16 0 -30.5 18t-14.5 35q0 18 10 31l258 325q18 23 62 23q45 0 61 -23z" />
    <glyph glyph-name="underscore" unicode="_" horiz-adv-x="127" 
d="M1161 -444q27 0 44.5 -23t17.5 -51t-17.5 -52t-44.5 -24h-1141q-27 0 -43 23t-16 53q0 29 16 51.5t43 22.5h1141z" />
    <glyph glyph-name="grave" unicode="`" horiz-adv-x="872" 
d="M774 795l-2 -4q0 -78 -53 -125.5t-123 -47.5q-49 0 -93.5 23.5t-75 71.5t-36.5 116v33q0 161 111 295q99 123 178 125l4 -2q23 0 39 -13.5t16 -35.5v-8q-4 -23 -23 -46t-50 -53.5t-45 -50.5q-27 -38 -27 -63q0 -30 63 -68.5t89.5 -62.5t27.5 -84z" />
    <glyph glyph-name="a" unicode="a" horiz-adv-x="1192" 
d="M784 106q-150 -117 -329 -126h-13q-104 0 -187 46.5t-101 137.5q-9 45 -9 57q0 120 106 187.5t242 91t279 30.5v91q0 61 -15.5 101t-62.5 58q-39 13 -80 13q-53 0 -114 -21q-63 -18 -73.5 -41t-13 -69.5t-32.5 -65.5q-34 -16 -57 -16q-38 0 -61 32.5t-23 75.5
q0 37 18 72.5t49 54.5q62 39 160.5 64.5t183.5 25.5q45 0 78 -6q51 -9 94.5 -35t69.5 -69q21 -34 28 -75t7 -102v-491q21 8 41 15.5t41 13.5t39 6q48 0 53 -37q2 -6 2 -19q0 -23 -18.5 -39.5t-45.5 -19.5q-18 -5 -86 -28t-92 -23q-69 0 -78 110zM772 227v181
q-82 -3 -153.5 -10.5t-139.5 -24.5q-61 -14 -112.5 -54.5t-51.5 -93.5q0 -31 21 -61q41 -66 131 -66q75 0 166 40.5t139 88.5z" />
    <glyph glyph-name="b" unicode="b" 
d="M225 1192q-14 -1 -50.5 -9.5t-59.5 -8.5q-50 0 -64 30q-8 16 -8 25q0 22 18 41.5t43 27.5q11 3 112 28.5t112 25.5h2q32 -1 42.5 -20t10.5 -56v-488q66 47 136.5 72t133.5 25q77 0 145 -32t118.5 -89.5t79 -136t28.5 -166.5q0 -77 -16 -146q-41 -155 -159 -241t-265 -86
q-114 0 -230 55q-12 -26 -36 -41.5t-46 -15.5q-34 0 -59 28q-12 18 -12 25q0 6 5.5 22t8.5 27q10 31 10 105v999zM383 190q48 -43 98.5 -65.5t100.5 -22.5q72 0 135.5 44t101 120t37.5 168v21q-5 71 -34 135.5t-82 108t-124 55.5q-8 1 -14.5 1.5t-17.5 0.5q-79 0 -201 -74
v-492z" />
    <glyph glyph-name="c" unicode="c" horiz-adv-x="1153" 
d="M772 696q-4 47 -39.5 71t-87.5 24q-57 0 -118.5 -27t-102.5 -72q-84 -96 -84 -239q0 -82 33 -158t97.5 -126t150.5 -56q8 0 13 -0.5t11 -1.5q57 0 102 14.5t136 48t118 33.5q33 0 48 -21q6 -15 6 -30q0 -56 -97.5 -97.5t-177.5 -60.5q-96 -21 -172 -21q-135 0 -231 54
q-104 61 -159.5 165t-55.5 224q0 30 4 76q15 99 68.5 182.5t135.5 140.5t181 78q90 16 154 16q94 0 159 -32q88 -49 88 -121v-10q-1 -28 -2 -62.5t-5 -65t-13 -44.5q-10 -16 -28 -24.5t-40 -8.5q-30 0 -55 18q-17 14 -24 35.5t-9.5 52t-3.5 45.5z" />
    <glyph glyph-name="d" unicode="d" horiz-adv-x="1174" 
d="M774 45q-114 -68 -211 -68q-15 0 -76 9q-105 20 -183 86t-118.5 162.5t-40.5 203.5q0 99 31.5 185t87.5 147.5t131 94t160 32.5q103 0 217 -51v346q-14 -1 -52.5 -9.5t-60.5 -8.5q-49 0 -63 30q-6 24 -6 25q0 22 17 41.5t42 27.5q205 54 223 54h2q33 -1 43.5 -20
t10.5 -56v-1129q22 5 35.5 8.5t32.5 7t28 3.5q26 0 41 -10q16 -14 16 -39q0 -29 -22 -45q-9 -5 -90 -32.5t-90 -31.5q-18 -8 -31 -8q-42 0 -74 45zM772 705q-83 65 -170 65q-73 0 -139.5 -46t-106.5 -124t-41 -170q0 -4 -0.5 -6.5t-1.5 -5.5q0 -90 36.5 -162t99 -111
t137.5 -39q92 0 186 60v539z" />
    <glyph glyph-name="e" unicode="e" 
d="M311 522l529 21q-15 62 -45 116.5t-77 89.5t-106 35h-20q-108 -11 -170.5 -67.5t-87.5 -116t-25 -78.5h2zM311 418q9 -149 89 -227t229 -78l4 -2q59 0 118.5 17.5t141.5 49t98 31.5h8q19 -4 30 -18t11 -31q0 -34 -32 -64q-63 -54 -192 -87.5t-230 -33.5h-17
q-130 4 -229.5 64t-152 160t-52.5 221q0 82 21 151q39 153 166.5 246.5t281.5 93.5q74 0 141 -20q76 -25 136.5 -87.5t94.5 -144.5t34 -163v-15q0 -63 -109 -63h-590z" />
    <glyph glyph-name="f" unicode="f" horiz-adv-x="1153" 
d="M879 117q34 0 53.5 -17.5t19.5 -42.5q0 -22 -19 -39.5t-54 -17.5h-598q-32 0 -54 19.5t-22 43.5q0 14 11 29t30 21q10 2 37 2q23 0 38 -0.5t33 -1.5q72 0 72 59v592q-10 0 -16.5 -0.5t-20 -1.5t-30 -2.5t-31.5 -1.5q-123 0 -123 65q0 68 125 68q21 0 55 -2t41 -2
q0 21 -0.5 35.5t-1.5 31.5q0 70 10 126.5t37 105.5q43 74 117 108.5t166 36.5q64 0 142 -11t122 -34q31 -13 31 -61v-25q-11 -53 -58 -53q-1 1 -2.5 1.5t-3.5 0.5q-40 4 -115.5 24.5t-119.5 24.5h-29q-86 0 -114.5 -54.5t-28.5 -150.5q1 -27 1.5 -49.5t0.5 -56.5h299
q39 0 64.5 -14t25.5 -48q0 -57 -90 -61h-295v-584q0 -34 10 -48.5t43 -14.5h242z" />
    <glyph glyph-name="g" unicode="g" horiz-adv-x="1174" 
d="M719 498q20 47 20 98q0 95 -51 152q-56 61 -149 61q-53 0 -99.5 -22t-72.5 -60q-35 -50 -35 -127q0 -47 18 -91t53 -73q56 -45 127 -45q59 0 112.5 29.5t76.5 77.5zM709 31l-328 -6q-92 -80 -92 -156q0 -34 14 -59q50 -101 227 -101q79 0 207 25q47 12 95.5 36t81 60
t32.5 80q0 24 -12 51q-35 70 -180 70h-45zM500 274q-86 -42 -86 -92q0 -18 19.5 -30.5t49.5 -12.5l287 4h8q237 0 291 -161q10 -45 10 -76q0 -71 -40.5 -130t-107 -100.5t-140.5 -60.5q-153 -33 -269 -33q-77 0 -145 15t-124 50t-89 93q-29 53 -29 100q0 110 146 236
q-50 26 -50 67q0 42 34 81.5t100 101.5q-91 48 -137 118t-46 150q0 61 25.5 120t74 107.5t110.5 75.5t134 27q129 0 254 -86h195q33 0 54.5 -20t21.5 -52v-12q-3 -52 -107 -52q-18 0 -43.5 2.5t-42.5 2.5q25 -80 25 -138q0 -99 -58 -172q-31 -38 -65.5 -58t-66.5 -29
t-98 -19t-95 -17z" />
    <glyph glyph-name="h" unicode="h" horiz-adv-x="1253" 
d="M776 0q-27 0 -46 17t-19 42q0 3 6 27q9 33 78 33h18q1 57 4.5 158.5t3.5 187.5v82q-4 144 -73 192q-44 31 -113 31q-59 0 -118.5 -21.5t-133.5 -56.5v-573q17 1 33 1.5t47 0.5q92 0 106 -37q1 -7 1.5 -13t0.5 -14q0 -27 -21 -42t-52 -15h-314q-28 0 -48.5 18t-20.5 43
q0 1 6 25q16 33 78 33h28v1073q-13 -1 -51.5 -9.5t-60.5 -8.5q-48 0 -62 30q-8 16 -8 27q0 23 17 41t42 26q22 6 117 30t109 24h2q30 -1 40.5 -20t10.5 -56v-479q181 110 313 110q40 0 76 -8q116 -25 159.5 -112t43.5 -218v-450q17 1 32 1.5t42 0.5q78 0 94 -37q4 -16 4 -25
q0 -26 -20.5 -42.5t-51.5 -16.5h-299z" />
    <glyph glyph-name="i" unicode="i" horiz-adv-x="1174" 
d="M745 1079q-18 -40 -56.5 -61t-84.5 -21q-63 0 -112.5 39.5t-49.5 102.5q0 70 47 108.5t111 38.5q11 0 18.5 -0.5t16.5 -1.5q48 -6 83.5 -49.5t35.5 -97.5q0 -31 -9 -58zM262 735q-2 0 -4 -0.5t-4 -1.5q-28 0 -49 14t-21 39l2 7q4 35 37 49.5t77 16.5t79 3q101 6 188 35
q6 1 17.5 4.5t22.5 6.5t22 3h12q29 -3 40 -21.5t11 -51.5v-652q0 -71 51 -71l2 2h263q36 0 55.5 -17t19.5 -41q0 -23 -20 -41t-55 -18h-723q-38 0 -59 17t-21 40t21 40.5t59 17.5h192q36 0 47 19t11 56v564z" />
    <glyph glyph-name="j" unicode="j" horiz-adv-x="891" 
d="M633 754l-266 -19h-11q-75 0 -75 49q1 2 1.5 4t0.5 5q4 36 36.5 50t76.5 16t79 3q100 6 189 35q8 1 19 5t21 6.5t21 2.5h12q29 -3 40 -21.5t11 -51.5v-887q0 -140 -32 -217q-33 -79 -119.5 -115.5t-187.5 -36.5q-90 0 -215 37t-125 107q0 6 4 18q6 25 23 39t42 14
q15 0 35 -8q31 -11 74 -32t72.5 -32.5t76.5 -15.5h19q106 0 142 76.5t36 202.5q0 41 -0.5 64.5t-1.5 51.5q1 4 1.5 7t0.5 6v637zM637 1284q48 -6 83.5 -49.5t35.5 -97.5q0 -32 -11 -58q-16 -39 -54.5 -60.5t-84.5 -21.5q-64 0 -114 39.5t-50 102.5q0 71 47.5 109t112.5 38
q11 0 18.5 -0.5t16.5 -1.5z" />
    <glyph glyph-name="k" unicode="k" horiz-adv-x="1253" 
d="M227 1192q-13 -1 -51.5 -9.5t-60.5 -8.5q-48 0 -62 30q-8 16 -8 27q0 23 18 41t43 26q9 3 111 28.5t113 25.5h2q30 -1 40.5 -20t10.5 -56v-813q37 35 102.5 95.5t131.5 120.5t104 95q-10 2 -31 5t-33 7t-22.5 13.5t-13.5 25.5q0 2 -1 5.5t-2 5.5q0 51 91 51h284
q26 0 42 -15t16 -36q0 -19 -16.5 -36t-45.5 -20q-51 -6 -99.5 -27t-91 -52t-96 -80t-79.5 -72q24 -34 65.5 -92.5t106.5 -141t117 -131.5t83 -49l4 2q8 1 48.5 16t62.5 15q40 0 43 -49q0 -29 -24.5 -48t-63.5 -36q-18 -8 -40.5 -20.5t-40.5 -19.5t-38 -7h-4q-36 1 -70.5 28
t-67 67t-56.5 71q-144 177 -230 297l-133 -125q0 -56 -0.5 -80t-1.5 -51q0 -35 4 -49.5t15.5 -19.5t40.5 -6t65 -5q22 -1 33.5 -17.5t11.5 -38.5q0 -25 -15 -42t-40 -17h-305q-28 0 -52 15t-24 42q0 1 6 25q15 35 86 35h18v1075z" />
    <glyph glyph-name="l" unicode="l" horiz-adv-x="1174" 
d="M535 1198l-244 -20q-2 0 -4.5 -0.5t-5.5 -1.5q-28 0 -45 15.5t-17 35.5q0 26 30.5 48.5t84.5 22.5q130 11 184 23q16 2 53.5 15.5t59.5 15.5h8q28 0 40.5 -21t12.5 -53v-1092q0 -71 51 -71l2 2h263q36 0 55.5 -17t19.5 -41q0 -23 -20 -41t-55 -18h-756q-31 0 -49.5 17.5
t-18.5 39.5q0 23 18.5 40.5t49.5 17.5h231q32 0 42 19.5t10 55.5v1008z" />
    <glyph glyph-name="m" unicode="m" horiz-adv-x="1313" 
d="M639 803q140 90 233 90q37 0 62 -8q67 -18 104 -68t48.5 -113.5t11.5 -140.5v-446h30q65 0 78 -31q6 -12 6 -29q0 -24 -17.5 -40.5t-43.5 -16.5h-217q-27 0 -44.5 17.5t-17.5 39.5q0 24 22.5 42t63.5 18v452q0 80 -16.5 130t-77.5 55h-16q-66 0 -158 -58q6 -76 6 -145
v-434h25q42 0 66 -10.5t24 -47.5q0 -59 -66 -59q-35 0 -62 -0.5t-60 -1.5q-60 0 -93 8q-30 8 -34 53q0 56 61 56v458q0 83 -19.5 132.5t-86.5 56.5h-19q-53 0 -129 -35v-610h39q78 0 82 -45v-17q0 -55 -70 -55h-204q-30 0 -49 16.5t-19 42.5q0 5 6 29q9 29 62 29h10v631
q-7 -1 -40.5 -8t-51.5 -7q-32 0 -48 19q-10 17 -10 28q0 17 12.5 33.5t30.5 24.5q7 2 93 25.5t96 23.5q27 0 35 -15t8 -45v-6q36 38 82 57t94 19q51 0 99 -24t79 -70z" />
    <glyph glyph-name="n" unicode="n" horiz-adv-x="1253" 
d="M772 0q-27 0 -44 17t-17 42q0 3 6 27q11 33 71 33h25q1 57 4.5 158.5t3.5 187.5v82q-4 144 -73 192q-44 31 -113 31q-59 0 -118.5 -21.5t-133.5 -56.5v-573q18 1 34.5 1.5t47.5 0.5q99 0 106 -49v-15q0 -27 -19.5 -42t-49.5 -15h-322q-26 0 -45.5 19.5t-19.5 41.5
q0 1 6 25q16 33 74 33h32v626q-13 0 -56 -7t-58 -7q-43 0 -56 19q-16 24 -16 38q0 17 12.5 33.5t32.5 24.5q24 5 68 15t96.5 21t62.5 11h2q52 0 52 -80v-20q190 116 329 116q28 0 76 -8q117 -25 160 -111t43 -219v-452q17 1 32 1.5t42 0.5q78 0 94 -37q4 -16 4 -25
q0 -26 -20.5 -42.5t-51.5 -16.5h-303z" />
    <glyph glyph-name="o" unicode="o" 
d="M354 645q-63 -81 -63 -196q0 -74 32 -144.5t91 -114.5q78 -57 170 -57q79 0 152 41t110 111q41 77 41 161q0 64 -23.5 126.5t-66.5 105.5q-38 39 -94.5 60.5t-112.5 21.5q-69 0 -132.5 -29.5t-103.5 -85.5zM897 801q49 -44 83 -102t51.5 -127.5t17.5 -135.5t-18 -135.5
t-52 -122.5q-44 -68 -104 -110t-132.5 -62t-148.5 -20q-74 0 -125 10q-152 28 -245 157t-93 293q0 139 70 263q61 100 165.5 153t223.5 53q87 0 167.5 -29t139.5 -85z" />
    <glyph glyph-name="p" unicode="p" 
d="M412 -297q15 1 28 1.5t37 0.5q43 0 66 -6q28 -5 37 -41v-18q0 -58 -74 -58h-283q-47 0 -63 19q-17 21 -17 41q0 14 9 28q14 35 75 35q9 0 15 -0.5t12 -1.5v1053q-18 -3 -35 -6t-37 -6t-41 -3q-45 0 -59 23q-14 14 -14 33q0 18 13.5 35.5t33.5 25.5v-2q-2 0 86 19t145 32
h4q40 0 51 -22t11 -66q131 82 262 82q79 0 146 -29.5t118 -86.5t78.5 -135t27.5 -175v-24q-3 -74 -27.5 -149t-69 -136t-106.5 -101.5t-139 -56.5q-43 -8 -102 -8q-84 0 -188 29v-326zM412 682v-489q97 -78 202 -78q73 0 133 39.5t95 113t35 164.5v29q-3 71 -30.5 137.5
t-79 113.5t-122.5 60h-35q-97 0 -198 -90z" />
    <glyph glyph-name="q" unicode="q" horiz-adv-x="1192" 
d="M836 823q30 41 46 59t42 25q3 1 6 1.5t8 0.5q22 0 41 -14t22 -37v-12q0 -20 -4.5 -35t-13.5 -42.5t-12 -39.5q-12 -48 -16.5 -112t-4.5 -113q1 -12 1.5 -22t0.5 -23v-762q13 1 24 1.5t30 0.5q94 0 94 -61q0 -56 -76 -56h-303q-43 0 -53 17q-15 17 -15 39q0 6 6 24
q14 39 78 39q9 0 30 -2t30 -2v334q-120 -43 -209 -43q-109 0 -200.5 50t-149.5 139t-70 194q-4 48 -4 73q0 133 54.5 237t148 161t206.5 57q68 0 133.5 -18.5t129.5 -57.5zM340 436q0 -84 51 -167t131 -115q55 -21 113 -21t101.5 15.5t60.5 25.5v533q-43 30 -89.5 45.5
t-89.5 15.5q-74 0 -138 -43.5t-101.5 -120t-38.5 -168.5z" />
    <glyph glyph-name="r" unicode="r" horiz-adv-x="1174" 
d="M543 702q52 64 106.5 110.5t119.5 72t146 28.5l5 -2q65 0 113 -30t48 -84q0 -18 -6 -39q-17 -51 -88 -51q-20 0 -70.5 9t-68.5 9h-14q-154 0 -291 -180v-430h266q42 0 64 -17t22 -41q0 -22 -19.5 -39.5t-52.5 -17.5h-510q-31 0 -53 15t-22 42q0 9 4 25q14 35 84 35
q21 0 34 -0.5t27 -1.5v651q-28 -2 -83.5 -11.5t-88.5 -9.5q-4 1 -9 2t-9 1q-34 3 -41 40q0 4 -2 10t-2 7q0 38 40.5 55t88.5 19q56 3 128 16.5t85 13.5q23 0 33.5 -16.5t13 -52t2.5 -125.5v-13z" />
    <glyph glyph-name="s" unicode="s" horiz-adv-x="1092" 
d="M209 80q-3 37 -5.5 58t-5.5 48.5t-3 55.5q0 19 4 45q12 39 55 45h12q34 0 48.5 -26t29 -78.5t27.5 -67.5q36 -38 92.5 -59t122.5 -21q55 0 106.5 14.5t85.5 42.5q45 38 45 94q0 10 -0.5 16.5t-1.5 14.5q-23 70 -137 90q-23 5 -114.5 20.5t-151 35t-107 57t-67.5 98.5
q-13 54 -13 72q0 72 44 132t116 97.5t144 44.5q20 2 59 2q42 0 72.5 -5.5t65 -14.5t58.5 -14t39 -5q4 1 7.5 1.5t7.5 0.5h28q39 0 56 -16t20 -61q2 -23 5.5 -47.5t6.5 -49.5t3 -49v-22q0 -21 -19 -33t-39 -14q-3 0 -5 -0.5t-5 -1.5q-37 0 -50 25t-31 81t-42.5 74t-71 29.5
t-90.5 11.5q-52 0 -102.5 -14t-81.5 -39q-41 -38 -41 -91q0 -5 2 -12.5t4 -17.5q12 -40 42 -59.5t75 -32.5q28 -7 111.5 -20t146 -27.5t115 -44t77.5 -76.5q31 -52 31 -111q0 -80 -54.5 -149.5t-137.5 -100.5q-93 -31 -197 -31q-56 0 -104 7q-22 3 -79.5 19.5t-82.5 16.5
q-11 0 -34 -2t-34 -2q-55 0 -57 66z" />
    <glyph glyph-name="t" unicode="t" 
d="M319 735q-8 0 -39 -4t-49 -4q-74 0 -86 45q0 3 -0.5 6t-1.5 5t-1.5 4.5t-0.5 5.5q0 25 20 39t50.5 19.5t55 6t52.5 0.5q0 9 -2 40t-2 48q0 137 84 137h13q69 -5 69 -112q0 -19 -0.5 -28.5t-1.5 -24.5t-2.5 -29t-1.5 -25l422 23h2q25 0 42 -19t17 -45q0 -22 -14.5 -39
t-40.5 -18l-426 -23v-477q0 -151 125 -151q14 0 43 4t56.5 10t48.5 10q33 6 114 28.5t113 22.5q22 0 39.5 -14.5t17.5 -36.5q0 -56 -86 -89.5t-188.5 -48t-167.5 -17.5h-31q-147 0 -194.5 81.5t-47.5 249.5v420z" />
    <glyph glyph-name="u" unicode="u" horiz-adv-x="1235" 
d="M963 137q5 0 45.5 6.5t62.5 6.5q51 0 66 -25q6 -12 6 -23q0 -19 -18.5 -34.5t-39.5 -20.5q-32 -9 -117.5 -28t-95.5 -19q-47 5 -47 68q1 12 1.5 22t0.5 25q-95 -57 -177 -90t-161 -33q-55 0 -108 20q-89 31 -129.5 110.5t-40.5 182.5q1 4 1.5 7.5t0.5 9.5l12 407
q-17 -6 -40 -15t-45.5 -15.5t-41.5 -6.5q-28 0 -41 19q-16 20 -16 34q0 38 35 56q1 0 40 14.5t82.5 30.5t73.5 27t31 12q4 1 7.5 1.5t6.5 0.5q22 0 37 -14t15 -37q1 -18 1.5 -33.5t0.5 -42.5q0 -71 -4.5 -183.5t-4.5 -170.5q0 -105 15 -164q17 -62 60.5 -92.5t99.5 -30.5
q64 0 136 29.5t138 70.5v510q-6 -2 -48 -19.5t-67 -17.5q-23 0 -39 19q-14 17 -14 34q0 15 9 31t24 25q56 21 140.5 52.5t86.5 31.5h8q26 0 39 -20.5t13 -49.5v-678z" />
    <glyph glyph-name="v" unicode="v" horiz-adv-x="1194" 
d="M172 762q-7 0 -33 -2t-41 -2q-76 0 -86 39q-6 18 -6 24q0 25 19.5 45.5t46.5 20.5h331q28 0 47 -18t19 -46v-14q-7 -49 -82 -49q-10 1 -18.5 1.5t-20.5 0.5q55 -171 117 -323t137 -283q136 304 213 606q-7 0 -37 -2t-47 -2q-88 0 -106 39q-2 8 -4.5 14.5t-2.5 11.5
q0 28 23.5 46t54.5 18h340q29 0 48.5 -17.5t19.5 -44.5q0 -4 -0.5 -7.5t-1.5 -8.5q-7 -49 -84 -49q-12 1 -22 1.5t-23 0.5q-32 -100 -51 -157.5t-52 -153t-49 -136.5q-18 -49 -44 -118t-55.5 -124t-62.5 -79q-29 -22 -63 -25h-6q-48 0 -93.5 62t-82 148.5t-52.5 123.5
q-81 183 -190 459z" />
    <glyph glyph-name="w" unicode="w" horiz-adv-x="1356" 
d="M115 762q-8 0 -14 -0.5t-13 -1.5q-51 0 -63 35q-9 18 -9 30q0 30 24.5 46t61.5 16h359q30 0 48.5 -14.5t18.5 -41.5q0 -14 -2 -22q-8 -40 -55 -47q-9 0 -32 -2t-33 -2q-23 0 -67 2t-65 2l168 -633l138 422q25 82 75 82q34 0 49 -21t25 -63l127 -420l162 633q-20 0 -64 -2
t-65 -2q-18 0 -64 4q-37 7 -47 35q-3 10 -4.5 15.5t-1.5 8.5q0 28 23 47t53 19h334q22 0 40 -10.5t28 -25t10 -30.5q0 -25 -23.5 -42t-67.5 -17l-182 -658q-18 -64 -54 -102.5t-75 -38.5q-32 0 -61.5 31t-46.5 90l-103 342l-117 -373q-10 -35 -36.5 -61.5t-63.5 -26.5h-2
q-49 3 -74 37.5t-47 97.5z" />
    <glyph glyph-name="x" unicode="x" horiz-adv-x="1253" 
d="M295 670q-51 55 -69.5 65.5t-51.5 13t-82 21.5q-35 10 -35 51q0 24 22 45t58 21h316q31 0 51 -17t20 -47v-14q-7 -49 -84 -49q-9 1 -16 1.5t-18 0.5l188 -207l172 207q-16 0 -27.5 -0.5t-25.5 -1.5q-62 0 -74 35q-8 16 -8 26q0 27 21.5 46.5t47.5 19.5h306q38 0 57.5 -19
t19.5 -45q0 -19 -12 -36t-33 -23q-33 -10 -53 -10q-4 1 -7.5 1.5t-8.5 0.5q-21 0 -42 -15t-67 -71l-178 -209l236 -250q49 -53 80 -68.5t61 -15.5h10q39 0 66 -14q26 -21 26 -47q0 -23 -21.5 -44.5t-47.5 -21.5h-320q-82 0 -82 59q0 5 2 13t4 18q12 35 76 35h35l-219 231
l-213 -231q15 1 27.5 1.5t35.5 0.5q70 0 84 -39q4 -16 4 -29q0 -28 -21 -43.5t-54 -15.5h-301q-36 0 -57 18.5t-21 42.5q0 17 10.5 32.5t26.5 21.5q32 17 62.5 20.5t48 14t65.5 63.5l213 240z" />
    <glyph glyph-name="y" unicode="y" horiz-adv-x="1192" 
d="M195 762q-13 0 -23 -0.5t-22 -1.5q-60 0 -72 35q-6 12 -6 28q0 29 20 46.5t51 17.5h308q32 0 50.5 -17.5t18.5 -46.5q0 -23 -12 -41q-19 -24 -78 -24q-14 0 -37 2t-28 2l256 -496l217 496q-6 0 -39 -2t-54 -2q-96 0 -106 37q-3 10 -4.5 16.5t-1.5 9.5q0 27 22 46.5
t50 19.5h319q32 0 53 -17t21 -45q0 -4 -0.5 -7.5t-1.5 -8.5q-7 -49 -86 -49q-4 1 -7 1.5t-8 0.5l-415 -877q-42 -91 -82 -154.5t-101.5 -107t-144.5 -43.5h-16q-35 2 -64 18.5t-48.5 44.5t-19.5 60q0 6 2.5 14.5t4.5 16.5q7 26 33.5 46.5t52.5 20.5q5 0 8.5 -0.5t7.5 -1.5
q16 -4 46 -29t48 -28h12q22 0 40.5 15t32.5 37t24.5 46.5t17.5 42.5l109 217z" />
    <glyph glyph-name="z" unicode="z" horiz-adv-x="1073" 
d="M895 887q38 0 59 -22t21 -52q0 -51 -43 -94l-561 -598h311q59 0 93 12t53.5 41.5t33.5 85.5q6 26 23.5 45t38.5 19q16 0 34 -11q21 -17 21 -65q0 -35 -14 -90t-15 -62q-5 -48 -24.5 -72t-65.5 -24h-563q-35 0 -56 6.5t-30.5 22.5t-9.5 45q1 7 1.5 12.5t0.5 15.5
q4 47 14 67.5t39.5 47.5t44.5 43l483 504h-315l-2 -2q-79 0 -99 -31t-42 -99.5t-58 -68.5q-1 1 -2.5 1.5t-5.5 0.5q-47 5 -47 74q1 10 2 21t2 20.5t1.5 15t0.5 13.5q3 30 5.5 61.5t11 57t27.5 42.5t52 17h580z" />
    <glyph glyph-name="braceleft" unicode="{" horiz-adv-x="1012" 
d="M696 918v-111q0 -76 -11.5 -133.5t-48 -102.5t-108.5 -71q71 -25 108 -73.5t48.5 -109t11.5 -139.5v-151q1 -66 29 -92t81.5 -36t76 -21t22.5 -56l-2 -2q0 -29 -19.5 -51.5t-47.5 -22.5h-2q-210 0 -265 145q-28 74 -28 179q1 26 1.5 47t0.5 55q0 70 -8 119
q-8 40 -25.5 65t-41.5 36.5t-46 15.5t-80 16q-23 6 -37 27t-14 43q0 23 14 46.5t37 30.5q12 4 75.5 20.5t87.5 43t32 92.5q2 29 2 92v92q0 147 43 226q29 54 96 85t131 31q43 0 70.5 -16t27.5 -49q0 -21 -8 -37q-11 -32 -44 -38t-72.5 -13t-63 -47t-23.5 -135z" />
    <glyph glyph-name="bar" unicode="|" horiz-adv-x="772" 
d="M670 -444q-6 -22 -30 -36t-50 -14t-49.5 14t-26.5 36v1892q3 22 25.5 34.5t50.5 12.5t51.5 -13t28.5 -34v-1892z" />
    <glyph glyph-name="braceright" unicode="}" horiz-adv-x="1012" 
d="M502 918q0 79 -16 123t-76 59q-14 4 -45 9t-47.5 14.5t-22.5 35.5q-4 20 -4 27q0 35 25 53t65 18q62 0 136.5 -36t100.5 -84q37 -72 37 -215v-111q0 -21 7 -84q6 -53 21 -78t39 -37t68.5 -22t67.5 -19q22 -6 35.5 -30t13.5 -49q0 -43 -30 -58q-25 -15 -74 -23t-76 -20
t-47 -53q-27 -55 -27 -172q1 -29 1.5 -54t0.5 -63q0 -32 -4 -78q-17 -115 -81.5 -166t-182.5 -59h-10q-29 0 -54.5 13.5t-29.5 43.5q0 7 -0.5 11.5t-1.5 9.5q0 39 23 52.5t70 22.5t75.5 27t36.5 62q8 37 8 100q0 47 -0.5 77.5t-1.5 65.5q0 98 34.5 166.5t133.5 102.5
q-102 36 -136 115t-34 198q1 27 1.5 48.5t0.5 56.5z" />
    <glyph glyph-name="asciitilde" unicode="~" 
d="M385 692h18q53 0 122 -20.5t137 -41t122 -20.5q4 1 7 1.5t6 0.5q40 1 70.5 15.5t61 31t56.5 19.5h6q21 0 34 -16t13 -37q0 -15 -6 -27q-21 -51 -96.5 -86t-138.5 -39q-4 0 -8 -0.5t-9 -1.5q-54 0 -122.5 20.5l-137 41t-123.5 20.5h-14q-39 -3 -61 -12t-63 -30t-64 -24
q-3 0 -5 -0.5t-4 -1.5q-18 0 -31.5 18.5t-13.5 37.5q0 2 6 26q28 55 97.5 87.5t140.5 37.5z" />
    <glyph glyph-name="bullet" horiz-adv-x="551" 
d="M203 494q3 52 35 82t73 30h11q52 0 87.5 -31.5t39.5 -85.5v-14q0 -59 -36 -92t-85 -33q-52 0 -89.5 35.5t-37.5 99.5q1 3 1.5 5t0.5 4z" />
    <glyph glyph-name="quotesinglbase" unicode="&#x201a;" horiz-adv-x="563" 
 />
    <glyph glyph-name="florin" unicode="&#x192;" horiz-adv-x="563" 
 />
    <glyph glyph-name="quotedblbase" unicode="&#x201e;" horiz-adv-x="563" 
 />
    <glyph glyph-name="ellipsis" unicode="&#x2026;" horiz-adv-x="563" 
 />
    <glyph glyph-name="dagger" unicode="&#x2020;" horiz-adv-x="563" 
 />
    <glyph glyph-name="daggerdbl" unicode="&#x2021;" horiz-adv-x="563" 
 />
    <glyph glyph-name="perthousand" unicode="&#x2030;" horiz-adv-x="563" 
 />
    <glyph glyph-name="Scaron" unicode="&#x160;" horiz-adv-x="563" 
 />
    <glyph glyph-name="guilsinglleft" unicode="&#x2039;" horiz-adv-x="1153" 
d="M180 721l735 338q50 20 76 20q46 0 58 -53v-25q0 -54 -76 -86l-645 -284l645 -287q76 -30 76 -88v-23q-12 -55 -60 -55q-22 0 -74 23l-735 342q-10 5 -30 14.5t-34 20t-22 22.5t-8 33q0 19 9 33t19.5 21.5t33 18t32.5 15.5z" />
    <glyph glyph-name="OE" unicode="&#x152;" horiz-adv-x="563" 
 />
    <glyph glyph-name="quoteleft" unicode="&#x2018;" horiz-adv-x="610" 
d="M516 877v-5q0 -77 -53 -122t-125 -45q-52 0 -99 26.5t-76.5 81.5t-29.5 133v2q0 86 36 169.5t97 152.5q89 98 160 98q24 0 38.5 -13t14.5 -36v-12q-4 -22 -21 -42.5t-49.5 -55t-43.5 -52.5q-27 -38 -27 -63q0 -30 58 -63.5t88.5 -61t31.5 -92.5z" />
    <glyph glyph-name="quoteright" unicode="&#x2019;" horiz-adv-x="651" 
d="M168 1110l-2 4q0 76 52.5 121t123.5 45q52 0 100 -26.5t77.5 -81.5t29.5 -132l2 -2q0 -84 -36.5 -168.5t-96.5 -150.5q-88 -101 -160 -101q-23 0 -39 14t-16 36q1 3 1.5 5.5t0.5 6.5q4 27 54.5 81.5t59.5 67.5q25 36 25 64q0 30 -58.5 64t-87.5 60.5t-30 92.5z" />
    <glyph glyph-name="quotedblleft" unicode="&#x201c;" horiz-adv-x="1073" 
d="M981 877v-5q0 -76 -52.5 -121.5t-125.5 -45.5q-81 0 -143 62.5t-62 178.5v2q0 173 135 322q89 98 160 98q24 0 38.5 -13t14.5 -36v-12q-4 -22 -22.5 -44.5t-51.5 -57t-43 -48.5q-26 -44 -26 -63q0 -30 58 -63.5t88.5 -61t31.5 -92.5zM516 877v-5q0 -77 -53 -122t-125 -45
q-52 0 -99 26.5t-76.5 81.5t-29.5 133v2q0 86 36 169.5t97 152.5q89 98 160 98q24 0 38.5 -13t14.5 -36v-12q-4 -22 -21 -42.5t-49.5 -55t-43.5 -52.5q-27 -38 -27 -63q0 -30 58 -63.5t88.5 -61t31.5 -92.5z" />
    <glyph glyph-name="quotedblright" unicode="&#x201d;" horiz-adv-x="1092" 
d="M618 1110v4q0 77 51.5 121.5t125.5 44.5q52 0 98 -26t76 -81.5t30 -132.5l2 -2q0 -87 -35.5 -170t-97.5 -149q-88 -101 -159 -101q-23 0 -39.5 14t-16.5 36q1 3 1.5 5.5t0.5 6.5q4 21 23 44t51.5 57t42.5 48q25 42 25 64q0 30 -60 64.5t-88 60.5t-31 92zM168 1110l-2 4
q0 76 52.5 121t123.5 45q52 0 100 -26.5t77.5 -81.5t29.5 -132l2 -2q0 -84 -36.5 -168.5t-96.5 -150.5q-88 -101 -160 -101q-23 0 -39 14t-16 36q1 3 1.5 5.5t0.5 6.5q4 27 54.5 81.5t59.5 67.5q25 36 25 64q0 30 -58.5 64t-87.5 60.5t-30 92.5z" />
    <glyph glyph-name="emdash" unicode="&#x2013;" horiz-adv-x="1012" 
d="M162 543h712q22 0 35 -24.5t13 -59.5q0 -34 -12.5 -60t-35.5 -26h-712q-27 0 -40 24t-13 56q0 35 14.5 62.5t38.5 27.5z" />
    <glyph glyph-name="endash" unicode="&#x2014;" horiz-adv-x="2038" 
d="M326 543h1562q26 0 40 -24.5t14 -59.5t-14 -60.5t-40 -25.5h-1562q-55 0 -85 24.5t-30 55.5q0 34 32 62t83 28z" />
    <glyph glyph-name="trademark" unicode="&#x2122;" horiz-adv-x="563" 
 />
    <glyph glyph-name="scaron" unicode="&#x161;" horiz-adv-x="563" 
 />
    <glyph glyph-name="guilsinglright" unicode="&#x203a;" horiz-adv-x="1153" 
d="M952 721q54 -25 75.5 -39.5t21.5 -48.5q0 -36 -21.5 -50.5t-75.5 -39.5l-735 -342q-50 -23 -76 -23q-47 0 -55 55q0 3 -2 11t-2 10q0 59 80 90l643 287l-643 284q-80 34 -80 86q0 3 2 13t2 12q8 53 53 53q30 0 78 -20z" />
    <glyph glyph-name="oe" unicode="&#x153;" horiz-adv-x="563" 
 />
    <glyph glyph-name="Ydieresis" unicode="&#x178;" horiz-adv-x="1053" 
d="M657 -2q-24 1 -45 1.5t-39 0.5q-55 0 -55 59q0 60 115 60q25 0 37.5 -0.5t25.5 -1.5v272q0 4 -5 7t-17 3q-25 0 -56 -17t-59 -52l-194 -238q-49 -57 -73 -75.5t-69 -18.5q-8 0 -13.5 -0.5t-17 -1.5t-25.5 -2.5t-26 -1.5q-21 0 -35 6q-28 15 -28 63q1 3 1.5 5.5t0.5 5.5
q1 40 48 52.5t87 12.5h6l164 193q33 38 33 61q0 19 -25 19q-60 1 -105 29.5t-70 78t-28 105.5q0 5 -0.5 8t-1.5 6q0 54 28.5 106t72.5 84q55 38 100 49t121 11h383q29 0 46 -19t17 -47q0 -17 -10 -39q-12 -16 -98 -16v-645h6q49 0 74.5 -12t25.5 -56q0 -33 -22.5 -44
t-59.5 -11h-215zM696 762h-153q-71 0 -112 -8t-65 -36t-24 -83q0 -61 41 -91t137 -30h176v248z" />
    <glyph glyph-name="exclamdown" unicode="&#xa1;" horiz-adv-x="1235" 
d="M618 166q-68 -178 -200 -178q-110 0 -156 121q-14 37 -14 77q0 41 15.5 75t45.5 40h15q28 0 40 -19.5t20 -62.5t12.5 -57.5t25.5 -22.5q3 0 6 -0.5t6 -1.5q43 0 72 78l41 100l-336 779q-7 19 -28 26.5t-61 15.5t-59.5 20.5t-19.5 37.5q1 2 1.5 3.5t0.5 2.5q0 26 20 40.5
t76 14.5h303q43 0 58 -13.5t28 -41.5q0 -63 -108 -63q-17 0 -45 2t-35 2l274 -672l252 676h-4q-2 0 -36 -2t-56 -2q-42 0 -65 10q-39 16 -39 49q0 22 23.5 37.5t64.5 15.5l4 2h282q41 0 64.5 -9.5t23.5 -41.5v-4q-3 -33 -39.5 -49.5t-82.5 -20.5zM430 1501q58 -67 154 -67
q58 0 120.5 19t81.5 56q13 27 33 27q19 0 19 -29q0 -16 -2 -26q-42 -154 -242 -154q-62 0 -111 26t-77 65t-33 73q-2 10 -4 16.5t-2 10.5q0 22 16 22q11 0 25.5 -12t21.5 -27z" />
    <glyph glyph-name="exclamdown" unicode="&#x40e;" horiz-adv-x="1235" 
d="M618 166q-68 -178 -200 -178q-110 0 -156 121q-14 37 -14 77q0 41 15.5 75t45.5 40h15q28 0 40 -19.5t20 -62.5t12.5 -57.5t25.5 -22.5q3 0 6 -0.5t6 -1.5q43 0 72 78l41 100l-336 779q-7 19 -28 26.5t-61 15.5t-59.5 20.5t-19.5 37.5q1 2 1.5 3.5t0.5 2.5q0 26 20 40.5
t76 14.5h303q43 0 58 -13.5t28 -41.5q0 -63 -108 -63q-17 0 -45 2t-35 2l274 -672l252 676h-4q-2 0 -36 -2t-56 -2q-42 0 -65 10q-39 16 -39 49q0 22 23.5 37.5t64.5 15.5l4 2h282q41 0 64.5 -9.5t23.5 -41.5v-4q-3 -33 -39.5 -49.5t-82.5 -20.5zM430 1501q58 -67 154 -67
q58 0 120.5 19t81.5 56q13 27 33 27q19 0 19 -29q0 -16 -2 -26q-42 -154 -242 -154q-62 0 -111 26t-77 65t-33 73q-2 10 -4 16.5t-2 10.5q0 22 16 22q11 0 25.5 -12t21.5 -27z" />
    <glyph glyph-name="cent" unicode="&#xa2;" horiz-adv-x="1192" 
d="M195 762q-13 0 -23 -0.5t-22 -1.5q-60 0 -72 35q-6 12 -6 28q0 29 20 46.5t51 17.5h308q32 0 50.5 -17.5t18.5 -46.5q0 -23 -12 -41q-19 -24 -78 -24q-14 0 -37 2t-28 2l256 -496l217 496q-6 0 -39 -2t-54 -2q-96 0 -106 37q-3 10 -4.5 16.5t-1.5 9.5q0 27 22 46.5
t50 19.5h319q32 0 53 -17t21 -45q0 -4 -0.5 -7.5t-1.5 -8.5q-7 -49 -86 -49q-4 1 -7 1.5t-8 0.5l-415 -877q-42 -91 -82 -154.5t-101.5 -107t-144.5 -43.5h-16q-35 2 -64 18.5t-48.5 44.5t-19.5 60q0 6 2.5 14.5t4.5 16.5q7 26 33.5 46.5t52.5 20.5q5 0 8.5 -0.5t7.5 -1.5
q16 -4 46 -29t48 -28h12q22 0 40.5 15t32.5 37t24.5 46.5t17.5 42.5l109 217zM442 1186q57 -66 152 -66q59 0 122.5 19t80.5 57q13 27 32 27t19 -29v-27q-26 -93 -97.5 -123t-144.5 -30q-62 0 -111.5 25t-77 63.5t-32.5 73.5q-2 12 -4 18.5t-2 7.5q0 25 14 25q12 0 26.5 -13
t22.5 -28z" />
    <glyph glyph-name="cent" unicode="&#x45e;" horiz-adv-x="1192" 
d="M195 762q-13 0 -23 -0.5t-22 -1.5q-60 0 -72 35q-6 12 -6 28q0 29 20 46.5t51 17.5h308q32 0 50.5 -17.5t18.5 -46.5q0 -23 -12 -41q-19 -24 -78 -24q-14 0 -37 2t-28 2l256 -496l217 496q-6 0 -39 -2t-54 -2q-96 0 -106 37q-3 10 -4.5 16.5t-1.5 9.5q0 27 22 46.5
t50 19.5h319q32 0 53 -17t21 -45q0 -4 -0.5 -7.5t-1.5 -8.5q-7 -49 -86 -49q-4 1 -7 1.5t-8 0.5l-415 -877q-42 -91 -82 -154.5t-101.5 -107t-144.5 -43.5h-16q-35 2 -64 18.5t-48.5 44.5t-19.5 60q0 6 2.5 14.5t4.5 16.5q7 26 33.5 46.5t52.5 20.5q5 0 8.5 -0.5t7.5 -1.5
q16 -4 46 -29t48 -28h12q22 0 40.5 15t32.5 37t24.5 46.5t17.5 42.5l109 217zM442 1186q57 -66 152 -66q59 0 122.5 19t80.5 57q13 27 32 27t19 -29v-27q-26 -93 -97.5 -123t-144.5 -30q-62 0 -111.5 25t-77 63.5t-32.5 73.5q-2 12 -4 18.5t-2 7.5q0 25 14 25q12 0 26.5 -13
t22.5 -28z" />
    <glyph glyph-name="sterling" unicode="&#xa3;" horiz-adv-x="1012" 
d="M424 233q1 30 15 52.5t35 34.5t44 12h10q45 0 77.5 -27.5t35.5 -75.5v-12q0 -51 -31.5 -79.5t-74.5 -28.5q-44 0 -78.5 32t-34.5 84q1 2 1.5 4t0.5 4zM424 891q1 45 31 71.5t65 26.5h8q45 0 77.5 -27.5t35.5 -74.5v-13q0 -50 -31.5 -79t-74.5 -29q-44 0 -78.5 32
t-34.5 85q1 2 1.5 4t0.5 4zM209 600h655q20 0 31.5 -17t11.5 -42q0 -26 -11.5 -44t-31.5 -18h-655q-23 0 -36 16.5t-13 39.5t13.5 44t35.5 21z" />
    <glyph glyph-name="sterling" unicode="&#x408;" horiz-adv-x="1012" 
d="M424 233q1 30 15 52.5t35 34.5t44 12h10q45 0 77.5 -27.5t35.5 -75.5v-12q0 -51 -31.5 -79.5t-74.5 -28.5q-44 0 -78.5 32t-34.5 84q1 2 1.5 4t0.5 4zM424 891q1 45 31 71.5t65 26.5h8q45 0 77.5 -27.5t35.5 -74.5v-13q0 -50 -31.5 -79t-74.5 -29q-44 0 -78.5 32
t-34.5 85q1 2 1.5 4t0.5 4zM209 600h655q20 0 31.5 -17t11.5 -42q0 -26 -11.5 -44t-31.5 -18h-655q-23 0 -36 16.5t-13 39.5t13.5 44t35.5 21z" />
    <glyph glyph-name="currency" unicode="&#xa4;" horiz-adv-x="973" 
d="M104 725l84 86l80 -86q34 38 94 59t127 21q64 0 121.5 -20t91.5 -60l86 86l82 -86l-82 -80q40 -40 60 -97t20 -118q0 -63 -18.5 -119.5t-50.5 -91.5l82 -80l-82 -82l-84 82q-37 -39 -103.5 -64.5t-132.5 -25.5q-128 0 -211 90l-80 -82l-84 82l84 80q-73 102 -73 223
q0 116 73 203zM494 678q-119 -7 -183.5 -81t-64.5 -175q0 -96 65 -166t183 -70q114 0 177.5 70.5t63.5 167.5q0 62 -28 119.5t-82.5 94.5t-130.5 40z" />
    <glyph glyph-name="yen" unicode="&#xa5;" horiz-adv-x="551" 
d="M203 494q3 52 35 82t73 30h11q52 0 87.5 -31.5t39.5 -85.5v-14q0 -59 -36 -92t-85 -33q-52 0 -89.5 35.5t-37.5 99.5q1 3 1.5 5t0.5 4z" />
    <glyph glyph-name="yen" unicode="&#x490;" horiz-adv-x="551" 
d="M203 494q3 52 35 82t73 30h11q52 0 87.5 -31.5t39.5 -85.5v-14q0 -59 -36 -92t-85 -33q-52 0 -89.5 35.5t-37.5 99.5q1 3 1.5 5t0.5 4z" />
    <glyph glyph-name="brokenbar" unicode="&#xa6;" horiz-adv-x="551" 
d="M344 1303h115v-1301h-115v1301z" />
    <glyph glyph-name="section" unicode="&#xa7;" horiz-adv-x="1073" 
d="M459 774q-6 -18 -33 -62t-39 -69t-12 -51q0 -58 69 -103q42 -27 130 -72.5t137 -74.5q22 11 44.5 36.5t38 59.5t15.5 70q0 42 -25 82q-18 24 -61 46.5t-141.5 71t-122.5 66.5zM369 846q-49 32 -77 86t-28 112q0 69 39 132.5t121.5 104t202.5 40.5h26q29 0 77 -12.5
t101 -40t89 -71.5t36 -105q0 -77 -39 -110.5t-92 -33.5q-25 0 -59.5 25.5t-34.5 60.5q0 52 66 101q-93 55 -183 55q-53 0 -94 -20t-63.5 -53.5t-22.5 -67.5q0 -49 37 -82q20 -19 140 -84.5t181 -100.5t91 -65q90 -68 90 -168q0 -54 -28 -111t-70 -101.5t-78 -64.5
q66 -31 101.5 -90t35.5 -125q0 -75 -41.5 -142.5t-120.5 -110t-180 -42.5h-35q-127 11 -207.5 54t-115.5 102t-35 121q0 50 26 102q30 52 90 52q46 0 84.5 -31.5t38.5 -71.5q0 -65 -96 -113q116 -86 229 -86q84 0 138.5 45t54.5 105q0 37 -20 72t-60 59q-42 29 -119 65.5
t-142.5 68.5t-109.5 65q-108 96 -108 198q0 72 45.5 144t118.5 133z" />
    <glyph glyph-name="dieresis" unicode="&#xa8;" 
d="M252 1137q-7 0 -31 -2t-37 -2q-72 0 -88 41q-6 18 -6 24q0 25 23 41t53 16h498q20 0 112.5 5.5t132.5 5.5h25q46 0 62 -21t16 -63v-35l-11 -195q-1 -33 -17 -51t-36 -18q-23 0 -42 24t-19 64q-1 105 -47 135.5t-146 30.5h-278v-410q8 0 39 -2t49 -2q89 0 119 27
q14 14 16.5 25.5t5.5 51.5q0 38 18.5 57t43.5 19q22 0 39.5 -15t17.5 -40v-389q0 -26 -19.5 -43t-44.5 -17q-8 0 -30 11q-29 14 -29 110q0 22 2 57t2 41h-229v-503h235q140 0 201.5 37t69.5 163q1 38 18.5 59t40.5 21q22 0 38.5 -20.5t16.5 -55.5v-268q0 -65 -84 -65
q-16 1 -29.5 1.5t-33.5 0.5q-98 6 -162.5 8t-129 3t-165.5 1h-129q-26 0 -47 -0.5t-47 -1.5q-110 0 -117 47q0 5 -0.5 8t-1.5 6q0 58 105 58h57v1020zM621 1456q0 47 29 69.5t73 22.5q45 0 77 -23t42 -69v-12q0 -49 -36 -80t-79 -31t-74.5 32t-31.5 91zM289 1456
q0 47 29 69.5t73 22.5q43 0 75 -22.5t42 -69.5v-12q0 -49 -35 -80t-80 -31q-41 0 -72.5 32t-31.5 91z" />
    <glyph glyph-name="dieresis" unicode="&#x401;" 
d="M252 1137q-7 0 -31 -2t-37 -2q-72 0 -88 41q-6 18 -6 24q0 25 23 41t53 16h498q20 0 112.5 5.5t132.5 5.5h25q46 0 62 -21t16 -63v-35l-11 -195q-1 -33 -17 -51t-36 -18q-23 0 -42 24t-19 64q-1 105 -47 135.5t-146 30.5h-278v-410q8 0 39 -2t49 -2q89 0 119 27
q14 14 16.5 25.5t5.5 51.5q0 38 18.5 57t43.5 19q22 0 39.5 -15t17.5 -40v-389q0 -26 -19.5 -43t-44.5 -17q-8 0 -30 11q-29 14 -29 110q0 22 2 57t2 41h-229v-503h235q140 0 201.5 37t69.5 163q1 38 18.5 59t40.5 21q22 0 38.5 -20.5t16.5 -55.5v-268q0 -65 -84 -65
q-16 1 -29.5 1.5t-33.5 0.5q-98 6 -162.5 8t-129 3t-165.5 1h-129q-26 0 -47 -0.5t-47 -1.5q-110 0 -117 47q0 5 -0.5 8t-1.5 6q0 58 105 58h57v1020zM621 1456q0 47 29 69.5t73 22.5q45 0 77 -23t42 -69v-12q0 -49 -36 -80t-79 -31t-74.5 32t-31.5 91zM289 1456
q0 47 29 69.5t73 22.5q43 0 75 -22.5t42 -69.5v-12q0 -49 -35 -80t-80 -31q-41 0 -72.5 32t-31.5 91z" />
    <glyph glyph-name="copyright" unicode="&#xa9;" horiz-adv-x="1495" 
d="M741 1286h21q110 0 223.5 -45t209 -130.5t152 -206.5t56.5 -269v-21q0 -145 -61 -266t-161 -204.5t-216.5 -127t-223.5 -43.5q-105 0 -221.5 41t-217.5 122t-163.5 198.5t-68.5 263.5q0 9 -0.5 14t-1.5 11q0 144 53 268t146 212.5t215.5 135.5t258.5 47zM741 1202
q-114 0 -222.5 -45t-189.5 -122.5t-129 -182t-48 -217.5q1 -5 1.5 -10t0.5 -11q4 -125 59.5 -230.5t144 -179.5t193 -112.5t203.5 -38.5q132 0 260 76t212 205.5t93 279.5v23q0 112 -43 211t-121.5 178t-185 125.5t-228.5 50.5zM1008 473l41 -31q-15 -58 -60 -103
t-109.5 -71t-136.5 -26q-87 0 -169 43t-138 131q-59 82 -59 200q0 53 14.5 108t40.5 103t62 82q94 95 264 95q83 0 160 -19t104 -35v-198h-55q0 80 -33 124t-77.5 59t-88.5 15q-102 0 -178 -79.5t-76 -225.5q0 -66 18 -143q12 -52 49.5 -96.5t92 -71.5t110.5 -27
q68 0 127 41t97 125z" />
    <glyph glyph-name="ordfeminine" unicode="&#xaa;" horiz-adv-x="1112" 
d="M803 170q22 23 37 54.5t37.5 90.5t32 78t26.5 25q7 1 12.5 1.5t14.5 0.5q61 0 61 -129q0 -42 -0.5 -61t-1.5 -40q0 -55 -43.5 -88t-120.5 -69q-113 -58 -254 -58q-49 0 -90 7q-103 17 -180.5 78.5t-125 150t-71.5 197.5t-24 221q0 174 51 319q35 91 90 161t132 115.5
t167 55.5q40 4 65 4q40 0 76 -6q28 -3 76 -18.5t68 -18.5q2 0 3.5 -0.5t2.5 -1.5q13 0 49.5 9t54.5 9q59 0 64 -110l8 -197v-4q0 -37 -19 -61.5t-55 -24.5q-38 1 -51 30.5t-22 89t-19 77.5q-27 50 -85 75t-124 25q-84 0 -135 -29q-173 -84 -205 -364q-1 -9 -1.5 -15
t-2.5 -18l4 -8h418q30 0 50 -21.5t20 -48.5q0 -26 -24 -44.5t-71 -18.5h-401q10 -121 13.5 -160t21 -104t57.5 -117.5t105 -79.5q69 -27 131 -27q113 0 178 68z" />
    <glyph glyph-name="ordfeminine" unicode="&#x404;" horiz-adv-x="1112" 
d="M803 170q22 23 37 54.5t37.5 90.5t32 78t26.5 25q7 1 12.5 1.5t14.5 0.5q61 0 61 -129q0 -42 -0.5 -61t-1.5 -40q0 -55 -43.5 -88t-120.5 -69q-113 -58 -254 -58q-49 0 -90 7q-103 17 -180.5 78.5t-125 150t-71.5 197.5t-24 221q0 174 51 319q35 91 90 161t132 115.5
t167 55.5q40 4 65 4q40 0 76 -6q28 -3 76 -18.5t68 -18.5q2 0 3.5 -0.5t2.5 -1.5q13 0 49.5 9t54.5 9q59 0 64 -110l8 -197v-4q0 -37 -19 -61.5t-55 -24.5q-38 1 -51 30.5t-22 89t-19 77.5q-27 50 -85 75t-124 25q-84 0 -135 -29q-173 -84 -205 -364q-1 -9 -1.5 -15
t-2.5 -18l4 -8h418q30 0 50 -21.5t20 -48.5q0 -26 -24 -44.5t-71 -18.5h-401q10 -121 13.5 -160t21 -104t57.5 -117.5t105 -79.5q69 -27 131 -27q113 0 178 68z" />
    <glyph glyph-name="guillemotleft" unicode="&#xab;" horiz-adv-x="772" 
d="M557 459l117 -330q6 -18 6 -35q0 -28 -27 -28q-16 0 -37 15t-26 34l-209 344l209 354q4 10 20 18.5t31 8.5q13 0 23 -9.5t10 -29.5v-19zM301 459l113 -330q4 -14 4 -35q0 -28 -25 -28q-16 0 -34.5 15t-24.5 34l-211 344l211 354q15 27 47 27q13 0 23 -9.5t10 -29.5v-19z
" />
    <glyph glyph-name="logicalnot" unicode="&#xac;" horiz-adv-x="1112" 
d="M866 442h-800v150h952v-529h-152v379z" />
    <glyph glyph-name="minus" unicode="&#xad;" horiz-adv-x="1073" 
d="M852 551q56 0 85.5 -26.5t29.5 -63.5q0 -38 -33 -68.5t-88 -30.5l-512 -2q-56 0 -87.5 27.5t-31.5 65.5q0 39 31.5 67.5t87.5 28.5z" />
    <glyph glyph-name="registered" unicode="&#xae;" horiz-adv-x="1454" 
d="M702 1174q-175 -9 -298.5 -92.5t-184.5 -213t-61 -274.5q0 -144 60.5 -269.5t181 -202.5t290.5 -77q4 0 6 -0.5t4 -1.5q174 0 302.5 81t194 211.5t65.5 278.5q0 106 -35 203.5t-104 176.5t-175.5 127.5t-245.5 52.5zM690 1253q217 -13 365.5 -105t222.5 -234t74 -302v-32
q-4 -118 -51.5 -232t-132 -203t-203.5 -140.5t-263 -51.5q-191 0 -336 94.5t-220.5 247t-75.5 321.5q0 117 38.5 226.5t115 198t195.5 145.5t271 67zM596 637q20 -2 36 -4t25 -2q84 0 141.5 39.5t57.5 128.5q0 56 -40 98.5t-97 42.5q-71 0 -97 -4.5t-26 -24.5v-274zM406 981
h313q123 0 185.5 -52.5t62.5 -127.5q0 -68 -53.5 -125.5t-141.5 -67.5q50 -8 79.5 -51t58.5 -115t51.5 -105.5t64.5 -33.5q6 1 10.5 1.5t12.5 0.5v-41h-109q-52 0 -78.5 39.5t-60 123t-67.5 127.5t-95 44q-11 0 -43 -4v-223q0 -37 4 -48.5t21 -14.5t69 -3v-41h-284v41
q46 0 61 3t18.5 14.5t3.5 48.5v516q0 32 -13 42.5t-70 10.5v41z" />
    <glyph glyph-name="macron" unicode="&#xaf;" horiz-adv-x="1112" 
d="M236 1141h-5q-32 0 -50.5 17.5t-18.5 39.5q0 24 19.5 40.5t54.5 16.5h628q32 0 48 -17.5t16 -41.5t-16 -40.5t-46 -16.5l-2 2h-207v-1022h291v-2q35 0 54.5 -16.5t19.5 -39.5t-19.5 -42t-54.5 -19h-661q-32 0 -52 17.5t-20 41.5t20 42t52 18h198v1022h-249zM621 1456
q0 47 29 69.5t73 22.5q45 0 77 -23t42 -69v-12q0 -49 -36 -80t-79 -31t-74.5 32t-31.5 91zM289 1456q0 47 29 69.5t73 22.5q43 0 75 -22.5t42 -69.5v-12q0 -49 -35 -80t-80 -31q-41 0 -72.5 32t-31.5 91z" />
    <glyph glyph-name="macron" unicode="&#x407;" horiz-adv-x="1112" 
d="M236 1141h-5q-32 0 -50.5 17.5t-18.5 39.5q0 24 19.5 40.5t54.5 16.5h628q32 0 48 -17.5t16 -41.5t-16 -40.5t-46 -16.5l-2 2h-207v-1022h291v-2q35 0 54.5 -16.5t19.5 -39.5t-19.5 -42t-54.5 -19h-661q-32 0 -52 17.5t-20 41.5t20 42t52 18h198v1022h-249zM621 1456
q0 47 29 69.5t73 22.5q45 0 77 -23t42 -69v-12q0 -49 -36 -80t-79 -31t-74.5 32t-31.5 91zM289 1456q0 47 29 69.5t73 22.5q43 0 75 -22.5t42 -69.5v-12q0 -49 -35 -80t-80 -31q-41 0 -72.5 32t-31.5 91z" />
    <glyph glyph-name="degree" unicode="&#xb0;" horiz-adv-x="629" 
d="M217 1214q0 63 40.5 99.5t92.5 36.5q9 0 14.5 -0.5t12.5 -1.5q36 0 74 -19t63 -53.5t25 -75.5q-6 -70 -52.5 -108.5t-107.5 -38.5q-64 0 -113 44.5t-49 116.5zM307 1214q0 -88 70 -88q27 0 49.5 24t22.5 64q0 32 -19 48t-47 16t-50 -16.5t-26 -47.5z" />
    <glyph glyph-name="plusminus" unicode="&#xb1;" horiz-adv-x="1212" 
d="M1040 754q23 0 40 -9.5t25.5 -27t8.5 -33.5q0 -27 -18.5 -47.5t-55.5 -20.5h-348v-362q0 -34 -23 -55t-51 -21q-25 0 -47 21t-22 55v362h-348q-35 0 -55.5 20.5t-20.5 47.5q0 28 21 49t55 21h348v364q0 34 21.5 53t47.5 19q29 0 51.5 -19.5t22.5 -52.5v-364h348zM199 109
h868q27 0 42 -19t15 -43q0 -23 -15.5 -41t-41.5 -18h-868q-28 0 -46 16t-18 39q0 25 19 45.5t45 20.5z" />
    <glyph glyph-name="twosuperior" unicode="&#xb2;" horiz-adv-x="1112" 
d="M236 1141h-5q-32 0 -50.5 17.5t-18.5 39.5q0 24 19.5 40.5t54.5 16.5h628q32 0 48 -17.5t16 -41.5t-16 -40.5t-46 -16.5l-2 2h-207v-1022h291v-2q35 0 54.5 -16.5t19.5 -39.5t-19.5 -42t-54.5 -19h-661q-32 0 -52 17.5t-20 41.5t20 42t52 18h198v1022h-249zM467 1456
q0 47 29 69.5t73 22.5t75.5 -22.5t41.5 -69.5v-12q0 -49 -35 -80t-80 -31q-42 0 -73 32.5t-31 90.5z" />
    <glyph glyph-name="twosuperior" unicode="&#x406;" horiz-adv-x="1112" 
d="M236 1141h-5q-32 0 -50.5 17.5t-18.5 39.5q0 24 19.5 40.5t54.5 16.5h628q32 0 48 -17.5t16 -41.5t-16 -40.5t-46 -16.5l-2 2h-207v-1022h291v-2q35 0 54.5 -16.5t19.5 -39.5t-19.5 -42t-54.5 -19h-661q-32 0 -52 17.5t-20 41.5t20 42t52 18h198v1022h-249zM467 1456
q0 47 29 69.5t73 22.5t75.5 -22.5t41.5 -69.5v-12q0 -49 -35 -80t-80 -31q-42 0 -73 32.5t-31 90.5z" />
    <glyph glyph-name="threesuperior" unicode="&#xb3;" horiz-adv-x="1174" 
d="M745 1079q-18 -40 -56.5 -61t-84.5 -21q-63 0 -112.5 39.5t-49.5 102.5q0 70 47 108.5t111 38.5q11 0 18.5 -0.5t16.5 -1.5q48 -6 83.5 -49.5t35.5 -97.5q0 -31 -9 -58zM262 735q-2 0 -4 -0.5t-4 -1.5q-28 0 -49 14t-21 39l2 7q4 35 37 49.5t77 16.5t79 3q101 6 188 35
q6 1 17.5 4.5t22.5 6.5t22 3h12q29 -3 40 -21.5t11 -51.5v-652q0 -71 51 -71l2 2h263q36 0 55.5 -17t19.5 -41q0 -23 -20 -41t-55 -18h-723q-38 0 -59 17t-21 40t21 40.5t59 17.5h192q36 0 47 19t11 56v564z" />
    <glyph glyph-name="threesuperior" unicode="&#x456;" horiz-adv-x="1174" 
d="M745 1079q-18 -40 -56.5 -61t-84.5 -21q-63 0 -112.5 39.5t-49.5 102.5q0 70 47 108.5t111 38.5q11 0 18.5 -0.5t16.5 -1.5q48 -6 83.5 -49.5t35.5 -97.5q0 -31 -9 -58zM262 735q-2 0 -4 -0.5t-4 -1.5q-28 0 -49 14t-21 39l2 7q4 35 37 49.5t77 16.5t79 3q101 6 188 35
q6 1 17.5 4.5t22.5 6.5t22 3h12q29 -3 40 -21.5t11 -51.5v-652q0 -71 51 -71l2 2h263q36 0 55.5 -17t19.5 -41q0 -23 -20 -41t-55 -18h-723q-38 0 -59 17t-21 40t21 40.5t59 17.5h192q36 0 47 19t11 56v564z" />
    <glyph glyph-name="acute" unicode="&#xb4;" horiz-adv-x="791" 
d="M340 1100l215 190q22 21 53 21q23 0 43.5 -15.5t32.5 -38.5t12 -45q0 -35 -28 -45l-275 -110q-29 -13 -47 -13q-27 0 -27 19q0 14 21 37z" />
    <glyph glyph-name="acute" unicode="&#x491;" horiz-adv-x="791" 
d="M340 1100l215 190q22 21 53 21q23 0 43.5 -15.5t32.5 -38.5t12 -45q0 -35 -28 -45l-275 -110q-29 -13 -47 -13q-27 0 -27 19q0 14 21 37z" />
    <glyph glyph-name="mu" unicode="&#xb5;" horiz-adv-x="1192" 
d="M967 926v-709q0 -58 14 -95.5t57 -37.5q26 0 64 20v-32l-180 -90q-4 -5 -17 -5q-27 0 -46 17.5t-29 44t-13 41.5t-10 59q-91 -85 -155 -127.5t-142 -42.5q-173 0 -225 174q0 -33 3.5 -82t11 -111t15.5 -121.5t11 -94.5q0 -51 -20 -87t-66 -36q-40 0 -63 33t-23 77
q0 29 14 115q57 313 57 713v377h172v-584q0 -274 170 -274q122 0 228 153v705h172z" />
    <glyph glyph-name="paragraph" unicode="&#xb6;" horiz-adv-x="1192" 
d="M932 1049v-1319q0 -25 -20 -39.5t-46 -14.5t-45.5 14t-19.5 40v1335q0 28 -12.5 43.5t-28.5 15.5q-18 0 -31.5 -20t-13.5 -55v-1319q0 -22 -24.5 -35.5t-51.5 -13.5q-49 0 -49 34v793q-36 -2 -61.5 -4t-39.5 -2q-209 0 -311 91.5t-102 297.5q0 148 52.5 230t136 111.5
t192.5 29.5q51 0 147.5 -7.5t112.5 -7.5q6 1 11.5 1.5t14.5 0.5q40 0 118.5 6.5t121.5 6.5q119 0 119 -70v-16q0 -48 -35 -48q-5 0 -37.5 5.5t-44.5 5.5q-53 0 -53 -90zM590 1036q0 88 -105 88q-22 0 -32.5 -0.5t-22.5 -1.5h-20q-80 0 -143.5 -70t-63.5 -161q0 -5 -0.5 -9.5
t-1.5 -9.5q0 -124 75 -186.5t170 -62.5q57 0 100.5 24t43.5 60v329z" />
    <glyph glyph-name="periodcentered" unicode="&#x2219;" horiz-adv-x="551" 
d="M203 494q3 52 35 82t73 30h11q52 0 87.5 -31.5t39.5 -85.5v-14q0 -59 -36 -92t-85 -33q-52 0 -89.5 35.5t-37.5 99.5q1 3 1.5 5t0.5 4z" />
    <glyph glyph-name="cedilla" unicode="&#xb8;" 
d="M311 522l529 21q-15 62 -45 116.5t-77 89.5t-106 35h-20q-108 -11 -170.5 -67.5t-87.5 -116t-25 -78.5h2zM850 418h-539q9 -149 89 -227t229 -78h4q59 0 120.5 18t141.5 48t96 30h8q19 -4 30 -18t11 -31q0 -34 -32 -64q-63 -54 -192 -87.5t-230 -33.5h-17
q-130 4 -229.5 64t-152 160t-52.5 221q0 82 21 151q39 153 166.5 246.5t281.5 93.5q74 0 141 -20q76 -25 136.5 -87.5t94.5 -144.5t34 -163v-15q0 -63 -109 -63h-51zM963 1079q-16 -39 -55.5 -60.5t-86.5 -21.5q-62 0 -112 39.5t-50 102.5q0 71 47.5 109t112.5 38
q10 0 17.5 -0.5t15.5 -1.5q50 -6 85.5 -49.5t35.5 -97.5q0 -32 -10 -58zM559 1079q-16 -40 -55.5 -61t-85.5 -21q-62 0 -112 39.5t-50 102.5q0 71 47.5 109t112.5 38q10 0 17.5 -0.5t15.5 -1.5q51 -6 85.5 -49.5t34.5 -97.5q0 -32 -10 -58z" />
    <glyph glyph-name="cedilla" unicode="&#x451;" 
d="M311 522l529 21q-15 62 -45 116.5t-77 89.5t-106 35h-20q-108 -11 -170.5 -67.5t-87.5 -116t-25 -78.5h2zM850 418h-539q9 -149 89 -227t229 -78h4q59 0 120.5 18t141.5 48t96 30h8q19 -4 30 -18t11 -31q0 -34 -32 -64q-63 -54 -192 -87.5t-230 -33.5h-17
q-130 4 -229.5 64t-152 160t-52.5 221q0 82 21 151q39 153 166.5 246.5t281.5 93.5q74 0 141 -20q76 -25 136.5 -87.5t94.5 -144.5t34 -163v-15q0 -63 -109 -63h-51zM963 1079q-16 -39 -55.5 -60.5t-86.5 -21.5q-62 0 -112 39.5t-50 102.5q0 71 47.5 109t112.5 38
q10 0 17.5 -0.5t15.5 -1.5q50 -6 85.5 -49.5t35.5 -97.5q0 -32 -10 -58zM559 1079q-16 -40 -55.5 -61t-85.5 -21q-62 0 -112 39.5t-50 102.5q0 71 47.5 109t112.5 38q10 0 17.5 -0.5t15.5 -1.5q51 -6 85.5 -49.5t34.5 -97.5q0 -32 -10 -58z" />
    <glyph glyph-name="onesuperior" unicode="&#xb9;" horiz-adv-x="1212" 
d="M344 983l12 -682q1 -38 2 -77.5t12.5 -58.5t41 -28.5t82.5 -15.5q29 -3 46 -21t17 -43q0 -22 -15 -39.5t-42 -17.5h-332q-23 0 -40 21t-17 45q0 39 28 51q21 10 46 16.5t28.5 23t5.5 81.5v892q-8 0 -33 -2t-41 -2q-71 0 -88 41q-6 21 -6 23q0 26 17 45.5t43 19.5h217
q32 0 47.5 -12.5t30.5 -42.5l466 -870l-12 624v62q0 56 -19 83t-83 31q-51 6 -76 23.5t-25 40.5q0 24 19.5 42.5t42.5 18.5h330q26 0 40.5 -19.5t14.5 -43.5q0 -46 -37 -57q-37 -10 -48 -16.5t-15 -35.5q-7 -42 -7 -94q1 -11 1.5 -21t0.5 -24v-876q0 -38 -17 -58t-44 -20
q-23 0 -46.5 15.5t-41.5 45.5z" />
    <glyph glyph-name="onesuperior" unicode="&#x2116;" horiz-adv-x="1212" 
d="M344 983l12 -682q1 -38 2 -77.5t12.5 -58.5t41 -28.5t82.5 -15.5q29 -3 46 -21t17 -43q0 -22 -15 -39.5t-42 -17.5h-332q-23 0 -40 21t-17 45q0 39 28 51q21 10 46 16.5t28.5 23t5.5 81.5v892q-8 0 -33 -2t-41 -2q-71 0 -88 41q-6 21 -6 23q0 26 17 45.5t43 19.5h217
q32 0 47.5 -12.5t30.5 -42.5l466 -870l-12 624v62q0 56 -19 83t-83 31q-51 6 -76 23.5t-25 40.5q0 24 19.5 42.5t42.5 18.5h330q26 0 40.5 -19.5t14.5 -43.5q0 -46 -37 -57q-37 -10 -48 -16.5t-15 -35.5q-7 -42 -7 -94q1 -11 1.5 -21t0.5 -24v-876q0 -38 -17 -58t-44 -20
q-23 0 -46.5 15.5t-41.5 45.5z" />
    <glyph glyph-name="ordmasculine" unicode="&#xba;" horiz-adv-x="1073" 
d="M350 692q-12 -20 -18.5 -29.5t-18.5 -29.5q-40 -70 -47 -113h346q21 0 34 -17.5t13 -41.5q0 -26 -16 -47t-45 -21h-328q22 -110 78 -180q37 -43 88.5 -70t110.5 -30q8 0 12.5 -0.5t9.5 -1.5q59 0 102.5 13.5t136 49t120.5 35.5q33 0 45 -23q8 -13 8 -30q0 -56 -97 -97.5
t-177 -60.5q-98 -21 -172 -21q-135 0 -232 54q-104 61 -159.5 165t-55.5 224q0 30 4 76q15 99 68.5 182.5t137 140.5t179.5 78q90 16 154 16q93 0 160 -32q88 -49 88 -121v-10q-1 -28 -2 -61t-5.5 -65t-13.5 -46q-10 -16 -28 -24.5t-39 -8.5q-29 0 -56 18q-17 14 -24 35.5
t-9.5 52t-3.5 45.5q-4 47 -39.5 71t-89.5 24q-56 0 -117.5 -27t-101.5 -72z" />
    <glyph glyph-name="ordmasculine" unicode="&#x454;" horiz-adv-x="1073" 
d="M350 692q-12 -20 -18.5 -29.5t-18.5 -29.5q-40 -70 -47 -113h346q21 0 34 -17.5t13 -41.5q0 -26 -16 -47t-45 -21h-328q22 -110 78 -180q37 -43 88.5 -70t110.5 -30q8 0 12.5 -0.5t9.5 -1.5q59 0 102.5 13.5t136 49t120.5 35.5q33 0 45 -23q8 -13 8 -30q0 -56 -97 -97.5
t-177 -60.5q-98 -21 -172 -21q-135 0 -232 54q-104 61 -159.5 165t-55.5 224q0 30 4 76q15 99 68.5 182.5t137 140.5t179.5 78q90 16 154 16q93 0 160 -32q88 -49 88 -121v-10q-1 -28 -2 -61t-5.5 -65t-13.5 -46q-10 -16 -28 -24.5t-39 -8.5q-29 0 -56 18q-17 14 -24 35.5
t-9.5 52t-3.5 45.5q-4 47 -39.5 71t-89.5 24q-56 0 -117.5 -27t-101.5 -72z" />
    <glyph glyph-name="guillemotright" unicode="&#xbb;" horiz-adv-x="772" 
d="M244 459l-117 323q0 7 -0.5 11t-1.5 8q0 39 35 39q14 0 30.5 -8t22.5 -19l207 -354l-207 -344q-6 -19 -28 -34t-40 -15q-26 0 -26 28q0 11 8 35zM500 459l-111 323q0 7 -0.5 11t-1.5 8q0 39 31 39q16 0 30 -8t19 -19l211 -354l-211 -344q-5 -19 -25.5 -34t-38.5 -15
q-22 0 -22 28q0 7 8 35z" />
    <glyph glyph-name="onequarter" unicode="&#xbc;" horiz-adv-x="1053" 
d="M823 815q31 23 54 23q28 0 50.5 -23.5t22.5 -50.5q0 -31 -22 -53l-258 -258l268 -267q25 -28 25 -57q0 -30 -23 -53t-53 -23q-29 0 -56 27l-266 266l-252 -258q-28 -25 -57 -25q-31 0 -52.5 22.5t-21.5 53.5q0 29 25 54l258 256l-270 268q-25 24 -25 55q0 30 23 53t51 23
q34 0 57 -27l268 -264z" />
    <glyph glyph-name="onequarter" unicode="&#x458;" horiz-adv-x="1053" 
d="M823 815q31 23 54 23q28 0 50.5 -23.5t22.5 -50.5q0 -31 -22 -53l-258 -258l268 -267q25 -28 25 -57q0 -30 -23 -53t-53 -23q-29 0 -56 27l-266 266l-252 -258q-28 -25 -57 -25q-31 0 -52.5 22.5t-21.5 53.5q0 29 25 54l258 256l-270 268q-25 24 -25 55q0 30 23 53t51 23
q34 0 57 -27l268 -264z" />
    <glyph glyph-name="onehalf" unicode="&#xbd;" horiz-adv-x="1313" 
d="M475 948q-31 1 -57.5 1.5t-69.5 0.5q-49 0 -72 -2q-26 -6 -43.5 -32t-23.5 -60q-4 -17 -22.5 -28t-39.5 -11q-25 0 -49 17.5t-24 42.5v112q0 38 21 65t59 27h4q34 -2 55 -4t41.5 -4t54.5 -4q50 -4 166 -8v69h-10q-15 0 -25.5 -0.5t-23.5 -1.5q-89 0 -105 43q-6 21 -6 25
q0 24 22.5 41.5t51.5 17.5h383q30 0 51 -18t21 -41q0 -7 -5 -25q-15 -43 -124 -43h-56q-2 1 -3.5 1.5t-4.5 0.5v-69q60 0 182 8q34 2 55 4l42 4t55 4h2q37 0 59.5 -27.5t22.5 -64.5v-112q0 -27 -21 -42.5t-51 -15.5q-40 0 -57 27q-15 21 -15 41q0 6 2.5 16.5t2.5 18.5
q0 26 -80 26h-199v-198h29q207 0 314.5 -36.5t178.5 -115.5q30 -32 46 -85.5t16 -115.5q0 -74 -22.5 -146t-57.5 -110q-72 -72 -169.5 -105.5t-279.5 -33.5h-317q-31 0 -52.5 19t-21.5 45q0 8 6 26q16 41 92 41q28 0 42 -0.5t30 -1.5v817zM1032 252q35 45 35 133
q0 48 -14 93t-39 67q-78 73 -293 73h-80v-487q15 0 44 -2t40 -2q92 0 146.5 13t90 39.5t70.5 72.5z" />
    <glyph glyph-name="onehalf" unicode="&#x405;" horiz-adv-x="1313" 
d="M475 948q-31 1 -57.5 1.5t-69.5 0.5q-49 0 -72 -2q-26 -6 -43.5 -32t-23.5 -60q-4 -17 -22.5 -28t-39.5 -11q-25 0 -49 17.5t-24 42.5v112q0 38 21 65t59 27h4q34 -2 55 -4t41.5 -4t54.5 -4q50 -4 166 -8v69h-10q-15 0 -25.5 -0.5t-23.5 -1.5q-89 0 -105 43q-6 21 -6 25
q0 24 22.5 41.5t51.5 17.5h383q30 0 51 -18t21 -41q0 -7 -5 -25q-15 -43 -124 -43h-56q-2 1 -3.5 1.5t-4.5 0.5v-69q60 0 182 8q34 2 55 4l42 4t55 4h2q37 0 59.5 -27.5t22.5 -64.5v-112q0 -27 -21 -42.5t-51 -15.5q-40 0 -57 27q-15 21 -15 41q0 6 2.5 16.5t2.5 18.5
q0 26 -80 26h-199v-198h29q207 0 314.5 -36.5t178.5 -115.5q30 -32 46 -85.5t16 -115.5q0 -74 -22.5 -146t-57.5 -110q-72 -72 -169.5 -105.5t-279.5 -33.5h-317q-31 0 -52.5 19t-21.5 45q0 8 6 26q16 41 92 41q28 0 42 -0.5t30 -1.5v817zM1032 252q35 45 35 133
q0 48 -14 93t-39 67q-78 73 -293 73h-80v-487q15 0 44 -2t40 -2q92 0 146.5 13t90 39.5t70.5 72.5z" />
    <glyph glyph-name="threequarters" unicode="&#xbe;" horiz-adv-x="1112" 
d="M336 741q-16 0 -56 -5t-51 -5q-72 0 -84 41q0 3 -0.5 6t-1.5 5t-1.5 4.5t-0.5 5.5q0 25 20 39t50.5 19.5t55 6t52.5 0.5q0 9 -2 40t-2 48q0 137 86 137h11q69 -5 69 -112q0 -19 -0.5 -28.5t-1.5 -24.5t-2.5 -29t-1.5 -25l422 23h2q27 0 43 -19t16 -45q0 -23 -15 -40
t-40 -17l-426 -23l2 -231h191q188 0 269 -65.5t81 -202.5q0 -59 -40 -116.5t-106 -92.5t-137 -35h-465q-17 0 -33 17t-16 36q0 23 17 35q14 21 67 21h29v632zM866 240v24q0 74 -62 106.5t-194 32.5h-131v-294h123q139 0 198 34.5t66 96.5z" />
    <glyph glyph-name="threequarters" unicode="&#x455;" horiz-adv-x="1112" 
d="M336 741q-16 0 -56 -5t-51 -5q-72 0 -84 41q0 3 -0.5 6t-1.5 5t-1.5 4.5t-0.5 5.5q0 25 20 39t50.5 19.5t55 6t52.5 0.5q0 9 -2 40t-2 48q0 137 86 137h11q69 -5 69 -112q0 -19 -0.5 -28.5t-1.5 -24.5t-2.5 -29t-1.5 -25l422 23h2q27 0 43 -19t16 -45q0 -23 -15 -40
t-40 -17l-426 -23l2 -231h191q188 0 269 -65.5t81 -202.5q0 -59 -40 -116.5t-106 -92.5t-137 -35h-465q-17 0 -33 17t-16 36q0 23 17 35q14 21 67 21h29v632zM866 240v24q0 74 -62 106.5t-194 32.5h-131v-294h123q139 0 198 34.5t66 96.5z" />
    <glyph glyph-name="questiondown" unicode="&#xbf;" horiz-adv-x="1174" 
d="M262 735q-2 0 -4 -0.5t-4 -1.5q-28 0 -49 14t-21 39l2 7q4 35 37 49.5t77 16.5t79 3q101 6 188 35q6 1 17.5 4.5t22.5 6.5t22 3h12q29 -3 40 -21.5t11 -51.5v-652q0 -71 51 -71l2 2h263q36 0 55.5 -17t19.5 -41q0 -23 -20 -41t-55 -18h-723q-38 0 -59 17t-21 40t21 40.5
t59 17.5h192q36 0 47 19t11 56v564zM963 1079q-16 -39 -55.5 -60.5t-86.5 -21.5q-62 0 -112 39.5t-50 102.5q0 71 47.5 109t112.5 38q10 0 17.5 -0.5t15.5 -1.5q50 -6 85.5 -49.5t35.5 -97.5q0 -32 -10 -58zM559 1079q-16 -40 -55.5 -61t-85.5 -21q-62 0 -112 39.5
t-50 102.5q0 71 47.5 109t112.5 38q10 0 17.5 -0.5t15.5 -1.5q51 -6 85.5 -49.5t34.5 -97.5q0 -32 -10 -58z" />
    <glyph glyph-name="questiondown" unicode="&#x457;" horiz-adv-x="1174" 
d="M262 735q-2 0 -4 -0.5t-4 -1.5q-28 0 -49 14t-21 39l2 7q4 35 37 49.5t77 16.5t79 3q101 6 188 35q6 1 17.5 4.5t22.5 6.5t22 3h12q29 -3 40 -21.5t11 -51.5v-652q0 -71 51 -71l2 2h263q36 0 55.5 -17t19.5 -41q0 -23 -20 -41t-55 -18h-723q-38 0 -59 17t-21 40t21 40.5
t59 17.5h192q36 0 47 19t11 56v564zM963 1079q-16 -39 -55.5 -60.5t-86.5 -21.5q-62 0 -112 39.5t-50 102.5q0 71 47.5 109t112.5 38q10 0 17.5 -0.5t15.5 -1.5q50 -6 85.5 -49.5t35.5 -97.5q0 -32 -10 -58zM559 1079q-16 -40 -55.5 -61t-85.5 -21q-62 0 -112 39.5
t-50 102.5q0 71 47.5 109t112.5 38q10 0 17.5 -0.5t15.5 -1.5q51 -6 85.5 -49.5t34.5 -97.5q0 -32 -10 -58z" />
    <glyph glyph-name="Agrave" unicode="&#xc0;" horiz-adv-x="1274" 
d="M371 514h356l-188 502zM774 391h-444l-64 -201q0 -3 -2 -11t-2 -11q0 -53 150 -53q36 0 54.5 -18t18.5 -42q0 -22 -15.5 -38.5t-41.5 -16.5h-365q-25 0 -42 19.5t-17 41.5q0 32 27 43q54 30 72.5 47t33.5 64l332 995q12 35 34.5 54.5t47.5 19.5t47 -16.5t33 -48.5
l387 -1037q16 -41 34.5 -49.5t56 -15.5t52.5 -27q10 -13 10 -33q0 -22 -15.5 -39.5t-41.5 -17.5h-405q-24 0 -42 16t-18 39q0 26 24.5 45t67.5 19h15q31 0 63.5 11.5t32.5 35.5q0 5 -0.5 8.5t-1.5 7.5z" />
    <glyph glyph-name="Agrave" unicode="&#x410;" horiz-adv-x="1274" 
d="M371 514h356l-188 502zM774 391h-444l-64 -201q0 -3 -2 -11t-2 -11q0 -53 150 -53q36 0 54.5 -18t18.5 -42q0 -22 -15.5 -38.5t-41.5 -16.5h-365q-25 0 -42 19.5t-17 41.5q0 32 27 43q54 30 72.5 47t33.5 64l332 995q12 35 34.5 54.5t47.5 19.5t47 -16.5t33 -48.5
l387 -1037q16 -41 34.5 -49.5t56 -15.5t52.5 -27q10 -13 10 -33q0 -22 -15.5 -39.5t-41.5 -17.5h-405q-24 0 -42 16t-18 39q0 26 24.5 45t67.5 19h15q31 0 63.5 11.5t32.5 35.5q0 5 -0.5 8.5t-1.5 7.5z" />
    <glyph glyph-name="Aacute" unicode="&#xc1;" 
d="M797 522q-87 94 -279 94h-82v-487q18 0 30.5 -0.5t27.5 -1.5q138 0 236.5 38.5t121.5 147.5q4 30 4 49q0 43 -15.5 87t-43.5 73zM891 1266q46 0 62 -21t16 -63v-35l-11 -195q-2 -34 -18 -51.5t-37 -17.5q-23 0 -41 24.5t-18 63.5q-1 104 -55 135t-162 31h-68l-121 -2
v-402q7 1 20 1.5t54 0.5q74 0 154 -8q76 -8 140.5 -30.5t116.5 -66.5t85 -112q15 -33 22.5 -72.5t7.5 -78.5q0 -67 -21.5 -133.5t-64.5 -116.5q-62 -70 -149 -94.5t-203 -24.5q-27 1 -50 1.5t-58 0.5h-318q-31 0 -52.5 18t-21.5 45q0 9 6 27q16 41 93 41q27 0 41 -0.5
t30 -1.5v999h-10q-15 0 -25.5 -0.5t-23.5 -1.5q-89 0 -105 43q-6 21 -6 25q0 24 22.5 41.5t51.5 17.5h262l160 2q18 0 122.5 5.5t145.5 5.5h27z" />
    <glyph glyph-name="Aacute" unicode="&#x411;" 
d="M797 522q-87 94 -279 94h-82v-487q18 0 30.5 -0.5t27.5 -1.5q138 0 236.5 38.5t121.5 147.5q4 30 4 49q0 43 -15.5 87t-43.5 73zM891 1266q46 0 62 -21t16 -63v-35l-11 -195q-2 -34 -18 -51.5t-37 -17.5q-23 0 -41 24.5t-18 63.5q-1 104 -55 135t-162 31h-68l-121 -2
v-402q7 1 20 1.5t54 0.5q74 0 154 -8q76 -8 140.5 -30.5t116.5 -66.5t85 -112q15 -33 22.5 -72.5t7.5 -78.5q0 -67 -21.5 -133.5t-64.5 -116.5q-62 -70 -149 -94.5t-203 -24.5q-27 1 -50 1.5t-58 0.5h-318q-31 0 -52.5 18t-21.5 45q0 9 6 27q16 41 93 41q27 0 41 -0.5
t30 -1.5v999h-10q-15 0 -25.5 -0.5t-23.5 -1.5q-89 0 -105 43q-6 21 -6 25q0 24 22.5 41.5t51.5 17.5h262l160 2q18 0 122.5 5.5t145.5 5.5h27z" />
    <glyph glyph-name="Acircumflex" unicode="&#xc2;" 
d="M436 1128v-380q6 0 15.5 -1t17.5 -2q136 0 209 46q45 25 68.5 68t23.5 95v9q0 172 -223 172q-18 0 -37.5 -1t-41 -3t-32.5 -3zM1006 516q34 -76 34 -160q0 -137 -88 -239q-62 -70 -149 -94.5t-203 -24.5q-27 1 -50 1.5t-58 0.5h-318q-31 0 -52.5 18t-21.5 45q0 9 6 27
q16 41 93 41q27 0 41 -0.5t30 -1.5v999h-10q-15 0 -25.5 -0.5t-23.5 -1.5q-89 0 -105 43q-6 21 -6 25q0 24 22.5 41.5t51.5 17.5h262q6 0 9.5 -0.5t7.5 -1.5h96q161 0 262 -38t133 -162q8 -50 8 -78q0 -73 -32 -133q-28 -52 -72.5 -84t-112.5 -60q95 -18 163.5 -59
t107.5 -121zM518 616h-82v-487q18 0 30.5 -0.5t27.5 -1.5q138 0 236.5 38.5t121.5 147.5q4 30 4 49q0 43 -15.5 87t-43.5 73q-87 94 -279 94z" />
    <glyph glyph-name="Acircumflex" unicode="&#x412;" 
d="M436 1128v-380q6 0 15.5 -1t17.5 -2q136 0 209 46q45 25 68.5 68t23.5 95v9q0 172 -223 172q-18 0 -37.5 -1t-41 -3t-32.5 -3zM1006 516q34 -76 34 -160q0 -137 -88 -239q-62 -70 -149 -94.5t-203 -24.5q-27 1 -50 1.5t-58 0.5h-318q-31 0 -52.5 18t-21.5 45q0 9 6 27
q16 41 93 41q27 0 41 -0.5t30 -1.5v999h-10q-15 0 -25.5 -0.5t-23.5 -1.5q-89 0 -105 43q-6 21 -6 25q0 24 22.5 41.5t51.5 17.5h262q6 0 9.5 -0.5t7.5 -1.5h96q161 0 262 -38t133 -162q8 -50 8 -78q0 -73 -32 -133q-28 -52 -72.5 -84t-112.5 -60q95 -18 163.5 -59
t107.5 -121zM518 616h-82v-487q18 0 30.5 -0.5t27.5 -1.5q138 0 236.5 38.5t121.5 147.5q4 30 4 49q0 43 -15.5 87t-43.5 73q-87 94 -279 94z" />
    <glyph glyph-name="Atilde" unicode="&#xc3;" horiz-adv-x="1034" 
d="M303 1137q-8 0 -39 -2t-49 -2q-96 0 -115 41q-6 18 -6 22q0 23 21 41t49 18h430q20 0 113.5 5.5t132.5 5.5h24q47 0 62.5 -20.5t15.5 -63.5v-35l-10 -195q-1 -32 -18 -50.5t-37 -18.5q-23 0 -41.5 24.5t-18.5 63.5q-1 105 -47 135.5t-147 30.5h-156v-1020h213
q25 0 40 -17t15 -43q0 -15 -6.5 -28t-19 -21t-29.5 -8h-485q-25 0 -46.5 15.5t-21.5 39.5q0 11 8 27q12 37 103 37q25 0 38 -0.5t27 -1.5v1020z" />
    <glyph glyph-name="Atilde" unicode="&#x413;" horiz-adv-x="1034" 
d="M303 1137q-8 0 -39 -2t-49 -2q-96 0 -115 41q-6 18 -6 22q0 23 21 41t49 18h430q20 0 113.5 5.5t132.5 5.5h24q47 0 62.5 -20.5t15.5 -63.5v-35l-10 -195q-1 -32 -18 -50.5t-37 -18.5q-23 0 -41.5 24.5t-18.5 63.5q-1 105 -47 135.5t-147 30.5h-156v-1020h213
q25 0 40 -17t15 -43q0 -15 -6.5 -28t-19 -21t-29.5 -8h-485q-25 0 -46.5 15.5t-21.5 39.5q0 11 8 27q12 37 103 37q25 0 38 -0.5t27 -1.5v1020z" />
    <glyph glyph-name="Adieresis" unicode="&#xc4;" horiz-adv-x="1174" 
d="M756 1141h-246q-2 -118 -7 -251.5t-10 -220.5t-14 -179t-18 -132q-34 -145 -82 -243h377v1026zM485 0q-92 0 -147 -12t-86 -55t-37 -130q0 -38 -18 -58.5t-41 -20.5t-40.5 20t-17.5 57v244q0 31 20.5 47t46 21t32.5 6q33 12 66 83t54 181q16 81 25.5 190t14.5 234t5 201
q0 92 -4 116q-7 13 -47.5 17t-61 8.5t-30.5 26.5q-6 12 -6 28q0 23 16.5 37t40.5 14h709q28 0 51 -18t23 -41q0 -24 -19 -39q-20 -20 -61 -20q-10 0 -28 2t-25 2v-1012q5 -14 20 -14h59q36 0 54 -9.5t18 -39.5v-269q0 -35 -16.5 -55.5t-38.5 -20.5t-40.5 22t-21.5 60
q-4 88 -29 130.5t-72.5 54.5t-137.5 12h-230z" />
    <glyph glyph-name="Adieresis" unicode="&#x414;" horiz-adv-x="1174" 
d="M756 1141h-246q-2 -118 -7 -251.5t-10 -220.5t-14 -179t-18 -132q-34 -145 -82 -243h377v1026zM485 0q-92 0 -147 -12t-86 -55t-37 -130q0 -38 -18 -58.5t-41 -20.5t-40.5 20t-17.5 57v244q0 31 20.5 47t46 21t32.5 6q33 12 66 83t54 181q16 81 25.5 190t14.5 234t5 201
q0 92 -4 116q-7 13 -47.5 17t-61 8.5t-30.5 26.5q-6 12 -6 28q0 23 16.5 37t40.5 14h709q28 0 51 -18t23 -41q0 -24 -19 -39q-20 -20 -61 -20q-10 0 -28 2t-25 2v-1012q5 -14 20 -14h59q36 0 54 -9.5t18 -39.5v-269q0 -35 -16.5 -55.5t-38.5 -20.5t-40.5 22t-21.5 60
q-4 88 -29 130.5t-72.5 54.5t-137.5 12h-230z" />
    <glyph glyph-name="Aring" unicode="&#xc5;" 
d="M252 1137q-7 0 -31 -2t-37 -2q-72 0 -88 41q-6 18 -6 24q0 25 23 41t53 16h498q20 0 112.5 5.5t132.5 5.5h25q46 0 62 -21t16 -63v-35l-11 -195q-1 -33 -17 -51t-36 -18q-23 0 -42 24t-19 64q-1 105 -47 135.5t-146 30.5h-278v-410q8 0 39 -2t49 -2q89 0 119 27
q14 14 16.5 25.5t5.5 51.5q0 38 18.5 57t43.5 19q22 0 39.5 -15t17.5 -40v-389q0 -26 -19.5 -43t-44.5 -17q-8 0 -30 11q-29 14 -29 110q0 22 2 57t2 41h-229v-503h235q140 0 201.5 37t69.5 163q1 38 18.5 59t40.5 21q22 0 38.5 -20.5t16.5 -55.5v-268q0 -65 -84 -65
q-16 1 -29.5 1.5t-33.5 0.5q-98 6 -162.5 8t-129 3t-165.5 1h-129q-26 0 -47 -0.5t-47 -1.5q-110 0 -117 47q0 5 -0.5 8t-1.5 6q0 58 105 58h57v1020z" />
    <glyph glyph-name="Aring" unicode="&#x415;" 
d="M252 1137q-7 0 -31 -2t-37 -2q-72 0 -88 41q-6 18 -6 24q0 25 23 41t53 16h498q20 0 112.5 5.5t132.5 5.5h25q46 0 62 -21t16 -63v-35l-11 -195q-1 -33 -17 -51t-36 -18q-23 0 -42 24t-19 64q-1 105 -47 135.5t-146 30.5h-278v-410q8 0 39 -2t49 -2q89 0 119 27
q14 14 16.5 25.5t5.5 51.5q0 38 18.5 57t43.5 19q22 0 39.5 -15t17.5 -40v-389q0 -26 -19.5 -43t-44.5 -17q-8 0 -30 11q-29 14 -29 110q0 22 2 57t2 41h-229v-503h235q140 0 201.5 37t69.5 163q1 38 18.5 59t40.5 21q22 0 38.5 -20.5t16.5 -55.5v-268q0 -65 -84 -65
q-16 1 -29.5 1.5t-33.5 0.5q-98 6 -162.5 8t-129 3t-165.5 1h-129q-26 0 -47 -0.5t-47 -1.5q-110 0 -117 47q0 5 -0.5 8t-1.5 6q0 58 105 58h57v1020z" />
    <glyph glyph-name="AE" unicode="&#xc6;" horiz-adv-x="1235" 
d="M453 1255h258q23 0 39 -18.5t16 -42.5q0 -19 -12 -37q-16 -20 -58 -20q-7 0 -24 2t-23 2v-488q65 65 119 178l113 256q10 25 10 35q0 9 -7 13.5t-16.5 5.5t-17.5 2q-13 4 -21 20.5t-8 32.5q0 24 12 42.5t31 18.5h195q19 0 32 -18t13 -39q0 -29 -17 -45q-72 -40 -104 -123
l-109 -235q-12 -32 -63 -123l205 -461q15 -33 25.5 -51.5t23 -29.5t25.5 -17q47 -5 47 -56l-2 -4q0 -55 -70 -55h-35q-62 0 -90 59l-225 523q-14 -16 -35.5 -35.5t-30.5 -28.5v-401h60q41 0 59 -4q29 -13 29 -43v-17q0 -27 -16 -40t-44 -13h-315q-26 0 -44 13.5t-18 39.5
q1 4 1.5 7t0.5 10q5 32 29 43q19 4 58 4h61v401q-5 6 -24.5 24t-41.5 40l-225 -523q-28 -59 -92 -59h-35q-72 0 -72 55l3 4q0 52 47 56q24 12 38.5 31t34.5 67l205 461q-56 105 -63 123l-109 235q-31 86 -104 123q-19 21 -19 45q0 22 13.5 39.5t33.5 17.5h195q19 0 31 -18.5
t12 -42.5q0 -19 -8 -34t-21 -19q-5 0 -10.5 -0.5t-14.5 -2.5t-13.5 -6.5t-4.5 -11.5t13 -35l112 -256q54 -113 119 -178v488q-5 0 -23 -2t-26 -2q-38 0 -55 20q-15 17 -15 35q0 23 19 43t43 20z" />
    <glyph glyph-name="AE" unicode="&#x416;" horiz-adv-x="1235" 
d="M453 1255h258q23 0 39 -18.5t16 -42.5q0 -19 -12 -37q-16 -20 -58 -20q-7 0 -24 2t-23 2v-488q65 65 119 178l113 256q10 25 10 35q0 9 -7 13.5t-16.5 5.5t-17.5 2q-13 4 -21 20.5t-8 32.5q0 24 12 42.5t31 18.5h195q19 0 32 -18t13 -39q0 -29 -17 -45q-72 -40 -104 -123
l-109 -235q-12 -32 -63 -123l205 -461q15 -33 25.5 -51.5t23 -29.5t25.5 -17q47 -5 47 -56l-2 -4q0 -55 -70 -55h-35q-62 0 -90 59l-225 523q-14 -16 -35.5 -35.5t-30.5 -28.5v-401h60q41 0 59 -4q29 -13 29 -43v-17q0 -27 -16 -40t-44 -13h-315q-26 0 -44 13.5t-18 39.5
q1 4 1.5 7t0.5 10q5 32 29 43q19 4 58 4h61v401q-5 6 -24.5 24t-41.5 40l-225 -523q-28 -59 -92 -59h-35q-72 0 -72 55l3 4q0 52 47 56q24 12 38.5 31t34.5 67l205 461q-56 105 -63 123l-109 235q-31 86 -104 123q-19 21 -19 45q0 22 13.5 39.5t33.5 17.5h195q19 0 31 -18.5
t12 -42.5q0 -19 -8 -34t-21 -19q-5 0 -10.5 -0.5t-14.5 -2.5t-13.5 -6.5t-4.5 -11.5t13 -35l112 -256q54 -113 119 -178v488q-5 0 -23 -2t-26 -2q-38 0 -55 20q-15 17 -15 35q0 23 19 43t43 20z" />
    <glyph glyph-name="Ccedilla" unicode="&#xc7;" horiz-adv-x="1112" 
d="M639 1284q99 -3 182 -60t117 -149q10 -25 10 -78q0 -91 -33 -147q-54 -91 -190 -125q93 -17 163 -71t99 -138q19 -65 19 -125q0 -70 -23.5 -143.5t-58.5 -120.5q-31 -41 -99 -87.5t-127 -53.5q-113 -11 -131 -11q-126 0 -225 56q-57 29 -107.5 71t-56.5 86q-8 68 -8 99
q0 131 66 131q18 0 28 -2q20 -7 36 -56t36 -109t49 -91q34 -27 86.5 -43.5t103.5 -16.5q67 0 121 27q56 29 91 79.5t49 108.5q6 25 6 60q0 48 -13 100.5t-34 77.5q-42 49 -83 66.5t-102 17.5h-43q-5 0 -8 -0.5t-6 -1.5q-40 0 -66 19.5t-26 45.5t16 45q21 23 55 23q8 0 28 -2
t32 -2q34 0 72 20q46 29 77 78.5t31 93.5v9q0 57 -20.5 106.5t-59.5 75.5q-55 33 -129 33q-58 0 -115 -25.5t-94 -75.5q-9 -16 -19 -71.5t-14.5 -77.5t-20.5 -46.5t-46 -25.5q-35 0 -55.5 25.5t-20.5 60.5l2 4l8 197q2 110 62 110q18 0 54.5 -9t49.5 -9q2 1 4 1.5t4 0.5
q10 0 102 22.5t159 22.5h16z" />
    <glyph glyph-name="Ccedilla" unicode="&#x417;" horiz-adv-x="1112" 
d="M639 1284q99 -3 182 -60t117 -149q10 -25 10 -78q0 -91 -33 -147q-54 -91 -190 -125q93 -17 163 -71t99 -138q19 -65 19 -125q0 -70 -23.5 -143.5t-58.5 -120.5q-31 -41 -99 -87.5t-127 -53.5q-113 -11 -131 -11q-126 0 -225 56q-57 29 -107.5 71t-56.5 86q-8 68 -8 99
q0 131 66 131q18 0 28 -2q20 -7 36 -56t36 -109t49 -91q34 -27 86.5 -43.5t103.5 -16.5q67 0 121 27q56 29 91 79.5t49 108.5q6 25 6 60q0 48 -13 100.5t-34 77.5q-42 49 -83 66.5t-102 17.5h-43q-5 0 -8 -0.5t-6 -1.5q-40 0 -66 19.5t-26 45.5t16 45q21 23 55 23q8 0 28 -2
t32 -2q34 0 72 20q46 29 77 78.5t31 93.5v9q0 57 -20.5 106.5t-59.5 75.5q-55 33 -129 33q-58 0 -115 -25.5t-94 -75.5q-9 -16 -19 -71.5t-14.5 -77.5t-20.5 -46.5t-46 -25.5q-35 0 -55.5 25.5t-20.5 60.5l2 4l8 197q2 110 62 110q18 0 54.5 -9t49.5 -9q2 1 4 1.5t4 0.5
q10 0 102 22.5t159 22.5h16z" />
    <glyph glyph-name="Egrave" unicode="&#xc8;" horiz-adv-x="1212" 
d="M207 1141q-8 0 -30 -2t-34 -2q-64 0 -80 39q-6 18 -6 22q0 24 22 40.5t50 16.5h344q27 0 48.5 -16.5t21.5 -40.5q0 -10 -4 -22q-17 -41 -90 -41q-11 1 -23 2t-22.5 2t-16 1.5t-16.5 0.5v-738l440 687v51q-10 0 -16 -0.5t-16 -1.5t-23 -2t-25 -2q-73 0 -86 41q-6 18 -6 22
q0 25 22.5 41t51.5 16h338q27 0 50 -18t23 -41q0 -24 -18 -39q-20 -20 -72 -20q-10 0 -32 2t-29 2v-1026h57q94 0 94 -56q0 -30 -21.5 -44.5t-51.5 -14.5h-338q-29 0 -51.5 16t-22.5 41q0 1 6 25q12 37 86 37q16 0 44 -2t36 -2v745l-438 -678v-69q20 1 37 1.5t49 0.5
q65 0 80 -33q4 -16 4 -25q0 -24 -21.5 -40.5t-48.5 -16.5h-344q-28 0 -50 17.5t-22 39.5q0 1 6 25q15 35 80 35q23 0 36 -0.5t28 -1.5v1026z" />
    <glyph glyph-name="Egrave" unicode="&#x418;" horiz-adv-x="1212" 
d="M207 1141q-8 0 -30 -2t-34 -2q-64 0 -80 39q-6 18 -6 22q0 24 22 40.5t50 16.5h344q27 0 48.5 -16.5t21.5 -40.5q0 -10 -4 -22q-17 -41 -90 -41q-11 1 -23 2t-22.5 2t-16 1.5t-16.5 0.5v-738l440 687v51q-10 0 -16 -0.5t-16 -1.5t-23 -2t-25 -2q-73 0 -86 41q-6 18 -6 22
q0 25 22.5 41t51.5 16h338q27 0 50 -18t23 -41q0 -24 -18 -39q-20 -20 -72 -20q-10 0 -32 2t-29 2v-1026h57q94 0 94 -56q0 -30 -21.5 -44.5t-51.5 -14.5h-338q-29 0 -51.5 16t-22.5 41q0 1 6 25q12 37 86 37q16 0 44 -2t36 -2v745l-438 -678v-69q20 1 37 1.5t49 0.5
q65 0 80 -33q4 -16 4 -25q0 -24 -21.5 -40.5t-48.5 -16.5h-344q-28 0 -50 17.5t-22 39.5q0 1 6 25q15 35 80 35q23 0 36 -0.5t28 -1.5v1026z" />
    <glyph glyph-name="Eacute" unicode="&#xc9;" horiz-adv-x="1212" 
d="M475 1606q7 -27 36.5 -52.5t80.5 -25.5q54 0 80.5 20t36.5 58q8 35 33.5 55t54.5 20q32 0 56 -21.5t24 -53.5q0 -17 -3 -25q-16 -72 -99.5 -122t-180.5 -50q-105 0 -188 47t-93 125q0 3 -0.5 6t-1.5 6q0 37 25.5 62.5t54.5 25.5q27 0 51.5 -20.5t32.5 -54.5zM63 1176
q-6 18 -6 22q0 24 22 40.5t50 16.5h344q27 0 48.5 -16.5t21.5 -40.5q0 -10 -4 -22q-17 -41 -90 -41q-11 1 -23 2t-22.5 2t-16 1.5t-16.5 0.5v-742l440 691v51q-10 0 -16 -0.5t-16 -1.5t-23 -2t-25 -2q-73 0 -86 41q-6 18 -6 22q0 25 22.5 41t51.5 16h338q27 0 50 -18t23 -41
q0 -24 -18 -39q-20 -20 -72 -20q-10 0 -32 2t-29 2v-1026h57q94 0 94 -56q0 -30 -21.5 -44.5t-51.5 -14.5h-338q-29 0 -51.5 16t-22.5 41q0 1 6 25q12 37 86 37q16 0 44 -2t36 -2v745l-438 -678v-69q20 1 37 1.5t49 0.5q65 0 80 -33q4 -16 4 -25q0 -24 -21.5 -40.5
t-48.5 -16.5h-344q-28 0 -50 17.5t-22 39.5q0 1 6 25q15 35 80 35q23 0 36 -0.5t28 -1.5v1026q-8 0 -30 -2t-34 -2q-64 0 -80 39z" />
    <glyph glyph-name="Eacute" unicode="&#x419;" horiz-adv-x="1212" 
d="M475 1606q7 -27 36.5 -52.5t80.5 -25.5q54 0 80.5 20t36.5 58q8 35 33.5 55t54.5 20q32 0 56 -21.5t24 -53.5q0 -17 -3 -25q-16 -72 -99.5 -122t-180.5 -50q-105 0 -188 47t-93 125q0 3 -0.5 6t-1.5 6q0 37 25.5 62.5t54.5 25.5q27 0 51.5 -20.5t32.5 -54.5zM63 1176
q-6 18 -6 22q0 24 22 40.5t50 16.5h344q27 0 48.5 -16.5t21.5 -40.5q0 -10 -4 -22q-17 -41 -90 -41q-11 1 -23 2t-22.5 2t-16 1.5t-16.5 0.5v-742l440 691v51q-10 0 -16 -0.5t-16 -1.5t-23 -2t-25 -2q-73 0 -86 41q-6 18 -6 22q0 25 22.5 41t51.5 16h338q27 0 50 -18t23 -41
q0 -24 -18 -39q-20 -20 -72 -20q-10 0 -32 2t-29 2v-1026h57q94 0 94 -56q0 -30 -21.5 -44.5t-51.5 -14.5h-338q-29 0 -51.5 16t-22.5 41q0 1 6 25q12 37 86 37q16 0 44 -2t36 -2v745l-438 -678v-69q20 1 37 1.5t49 0.5q65 0 80 -33q4 -16 4 -25q0 -24 -21.5 -40.5
t-48.5 -16.5h-344q-28 0 -50 17.5t-22 39.5q0 1 6 25q15 35 80 35q23 0 36 -0.5t28 -1.5v1026q-8 0 -30 -2t-34 -2q-64 0 -80 39z" />
    <glyph glyph-name="Ecircumflex" unicode="&#xca;" horiz-adv-x="1274" 
d="M195 1141q-8 0 -32 -2t-38 -2q-67 0 -82 39q-4 6 -4 22q0 24 21.5 40.5t48.5 16.5h317q30 0 53 -18t23 -41q0 -21 -19 -39q-21 -18 -71 -18q-14 1 -26 1.5t-26 0.5v-488q119 81 189 172l194 258q9 20 9 25q0 15 -22 21.5t-51.5 8.5t-49.5 3q-23 4 -36 19.5t-13 33.5
q0 25 19 43t54 18h326q33 0 55.5 -17.5t22.5 -41.5q0 -26 -27 -43q-27 -15 -59.5 -25t-54.5 -26.5t-64 -71.5l-178 -233q-11 -15 -29 -36t-36.5 -41.5t-43.5 -47.5l371 -457q41 -50 74 -70t92 -26q74 -8 74 -60q0 -59 -99 -59h-106q-40 0 -62.5 11.5t-56.5 51.5l-399 515
q-46 -31 -93 -60v-401h89q69 0 88 -4q31 -12 34 -43q1 -5 1.5 -8.5t0.5 -8.5q0 -27 -20 -40t-51 -13h-359q-25 0 -47 17.5t-22 39.5q0 1 6 25q8 22 28 28.5t54 6.5h33v1024z" />
    <glyph glyph-name="Ecircumflex" unicode="&#x41a;" horiz-adv-x="1274" 
d="M195 1141q-8 0 -32 -2t-38 -2q-67 0 -82 39q-4 6 -4 22q0 24 21.5 40.5t48.5 16.5h317q30 0 53 -18t23 -41q0 -21 -19 -39q-21 -18 -71 -18q-14 1 -26 1.5t-26 0.5v-488q119 81 189 172l194 258q9 20 9 25q0 15 -22 21.5t-51.5 8.5t-49.5 3q-23 4 -36 19.5t-13 33.5
q0 25 19 43t54 18h326q33 0 55.5 -17.5t22.5 -41.5q0 -26 -27 -43q-27 -15 -59.5 -25t-54.5 -26.5t-64 -71.5l-178 -233q-11 -15 -29 -36t-36.5 -41.5t-43.5 -47.5l371 -457q41 -50 74 -70t92 -26q74 -8 74 -60q0 -59 -99 -59h-106q-40 0 -62.5 11.5t-56.5 51.5l-399 515
q-46 -31 -93 -60v-401h89q69 0 88 -4q31 -12 34 -43q1 -5 1.5 -8.5t0.5 -8.5q0 -27 -20 -40t-51 -13h-359q-25 0 -47 17.5t-22 39.5q0 1 6 25q8 22 28 28.5t54 6.5h33v1024z" />
    <glyph glyph-name="Edieresis" unicode="&#xcb;" horiz-adv-x="1174" 
d="M322 272q11 45 17 167.5t8 230.5t4 251.5t3 211.5q-3 -1 -10.5 -1.5t-17.5 -1.5q-121 0 -140 46q-6 18 -6 22q0 24 22 40.5t50 16.5h754q27 0 50 -18t23 -41q0 -24 -18 -39q-20 -20 -72 -20q-10 0 -32 2t-29 2v-1026h57q92 0 92 -56q0 -59 -71 -59h-338q-29 0 -51.5 16
t-22.5 41q0 9 4 25q14 37 88 37q15 0 43 -2t37 -2v1026h-268q0 -89 -3.5 -279.5t-13.5 -394t-28 -252.5q-41 -118 -95 -174.5t-135 -56.5q-99 0 -153 52t-54 114q0 35 17 59t45 24q49 0 60.5 -11.5t31.5 -45t49 -33.5q73 0 103 129z" />
    <glyph glyph-name="Edieresis" unicode="&#x41b;" horiz-adv-x="1174" 
d="M322 272q11 45 17 167.5t8 230.5t4 251.5t3 211.5q-3 -1 -10.5 -1.5t-17.5 -1.5q-121 0 -140 46q-6 18 -6 22q0 24 22 40.5t50 16.5h754q27 0 50 -18t23 -41q0 -24 -18 -39q-20 -20 -72 -20q-10 0 -32 2t-29 2v-1026h57q92 0 92 -56q0 -59 -71 -59h-338q-29 0 -51.5 16
t-22.5 41q0 9 4 25q14 37 88 37q15 0 43 -2t37 -2v1026h-268q0 -89 -3.5 -279.5t-13.5 -394t-28 -252.5q-41 -118 -95 -174.5t-135 -56.5q-99 0 -153 52t-54 114q0 35 17 59t45 24q49 0 60.5 -11.5t31.5 -45t49 -33.5q73 0 103 129z" />
    <glyph glyph-name="Igrave" unicode="&#xcc;" horiz-adv-x="1313" 
d="M899 1008l-223 -500q-15 -38 -39 -60t-45 -22q-44 0 -76 68l-235 489v-692q0 -90 9 -120t35.5 -37.5t118.5 -18.5q31 -3 48.5 -21t17.5 -41q0 -20 -16.5 -36.5t-42.5 -16.5h-361q-20 0 -34.5 18.5t-14.5 38.5q0 19 14 37.5t39 22.5t35.5 13.5t13.5 33.5q7 45 7 84v893
q-15 0 -26.5 -0.5t-25.5 -1.5q-47 0 -65 18q-19 19 -19 41t19 41q21 18 104 18q41 0 61.5 -0.5t43.5 -1.5q32 0 48.5 -11t28.5 -40l275 -579l244 555q26 75 88 75h198q23 0 38.5 -18t15.5 -41v-10q-5 -47 -80 -47q-13 1 -24 1.5t-25 0.5v-1024q13 1 24.5 1.5t34.5 0.5
q100 0 100 -60q0 -59 -71 -59h-344q-29 0 -51.5 16t-22.5 41q0 9 4 25q14 37 106 37q28 0 41.5 -0.5t28.5 -1.5v891z" />
    <glyph glyph-name="Igrave" unicode="&#x41c;" horiz-adv-x="1313" 
d="M899 1008l-223 -500q-15 -38 -39 -60t-45 -22q-44 0 -76 68l-235 489v-692q0 -90 9 -120t35.5 -37.5t118.5 -18.5q31 -3 48.5 -21t17.5 -41q0 -20 -16.5 -36.5t-42.5 -16.5h-361q-20 0 -34.5 18.5t-14.5 38.5q0 19 14 37.5t39 22.5t35.5 13.5t13.5 33.5q7 45 7 84v893
q-15 0 -26.5 -0.5t-25.5 -1.5q-47 0 -65 18q-19 19 -19 41t19 41q21 18 104 18q41 0 61.5 -0.5t43.5 -1.5q32 0 48.5 -11t28.5 -40l275 -579l244 555q26 75 88 75h198q23 0 38.5 -18t15.5 -41v-10q-5 -47 -80 -47q-13 1 -24 1.5t-25 0.5v-1024q13 1 24.5 1.5t34.5 0.5
q100 0 100 -60q0 -59 -71 -59h-344q-29 0 -51.5 16t-22.5 41q0 9 4 25q14 37 106 37q28 0 41.5 -0.5t28.5 -1.5v891z" />
    <glyph glyph-name="Iacute" unicode="&#xcd;" horiz-adv-x="1212" 
d="M207 115v1026q-8 0 -30 -2t-34 -2q-64 0 -80 39q-6 18 -6 22q0 24 22 40.5t50 16.5h344q27 0 48.5 -16.5t21.5 -40.5q0 -10 -4 -22q-17 -41 -90 -41q-11 1 -23 2t-22.5 2t-16 1.5t-16.5 0.5v-418h440v418q-10 0 -16 -0.5t-16 -1.5t-23 -2t-25 -2q-73 0 -86 41
q-6 18 -6 22q0 25 22.5 41t51.5 16h338q27 0 50 -18t23 -41q0 -24 -18 -39q-20 -20 -72 -20q-10 0 -32 2t-29 2v-1026h57q94 0 94 -56q0 -30 -21.5 -44.5t-51.5 -14.5h-338q-29 0 -51.5 16t-22.5 41q0 1 6 25q12 37 86 37q16 0 44 -2t36 -2v475h-440v-475q8 0 35 2t43 2
q74 0 90 -37q4 -16 4 -25q0 -24 -21.5 -40.5t-48.5 -16.5h-344q-28 0 -50 17.5t-22 39.5q0 1 6 25q15 35 80 35q23 0 36 -0.5t28 -1.5z" />
    <glyph glyph-name="Iacute" unicode="&#x41d;" horiz-adv-x="1212" 
d="M207 115v1026q-8 0 -30 -2t-34 -2q-64 0 -80 39q-6 18 -6 22q0 24 22 40.5t50 16.5h344q27 0 48.5 -16.5t21.5 -40.5q0 -10 -4 -22q-17 -41 -90 -41q-11 1 -23 2t-22.5 2t-16 1.5t-16.5 0.5v-418h440v418q-10 0 -16 -0.5t-16 -1.5t-23 -2t-25 -2q-73 0 -86 41
q-6 18 -6 22q0 25 22.5 41t51.5 16h338q27 0 50 -18t23 -41q0 -24 -18 -39q-20 -20 -72 -20q-10 0 -32 2t-29 2v-1026h57q94 0 94 -56q0 -30 -21.5 -44.5t-51.5 -14.5h-338q-29 0 -51.5 16t-22.5 41q0 1 6 25q12 37 86 37q16 0 44 -2t36 -2v475h-440v-475q8 0 35 2t43 2
q74 0 90 -37q4 -16 4 -25q0 -24 -21.5 -40.5t-48.5 -16.5h-344q-28 0 -50 17.5t-22 39.5q0 1 6 25q15 35 80 35q23 0 36 -0.5t28 -1.5z" />
    <glyph glyph-name="Icircumflex" unicode="&#xce;" horiz-adv-x="1192" 
d="M160 981q36 83 92 148.5t126.5 105.5t149.5 49q19 2 58 2q51 0 103 -11.5t102.5 -36.5t87.5 -58q70 -63 118 -150t72.5 -192t24.5 -213q0 -193 -72 -351q-47 -98 -113.5 -166t-147.5 -104.5t-171 -36.5q-86 0 -174 37q-78 35 -140 99t-104.5 150.5t-63 183.5t-20.5 194
q0 90 19.5 181.5t52.5 168.5zM657 119q99 24 156 106t77.5 186t20.5 218q0 123 -27.5 238.5t-99 196.5t-192.5 81q-178 0 -250 -157t-72 -365q1 -14 1.5 -26t0.5 -30q3 -105 28 -197.5t83 -160.5q38 -46 93.5 -72t115.5 -26q25 0 65 8z" />
    <glyph glyph-name="Icircumflex" unicode="&#x41e;" horiz-adv-x="1192" 
d="M160 981q36 83 92 148.5t126.5 105.5t149.5 49q19 2 58 2q51 0 103 -11.5t102.5 -36.5t87.5 -58q70 -63 118 -150t72.5 -192t24.5 -213q0 -193 -72 -351q-47 -98 -113.5 -166t-147.5 -104.5t-171 -36.5q-86 0 -174 37q-78 35 -140 99t-104.5 150.5t-63 183.5t-20.5 194
q0 90 19.5 181.5t52.5 168.5zM657 119q99 24 156 106t77.5 186t20.5 218q0 123 -27.5 238.5t-99 196.5t-192.5 81q-178 0 -250 -157t-72 -365q1 -14 1.5 -26t0.5 -30q3 -105 28 -197.5t83 -160.5q38 -46 93.5 -72t115.5 -26q25 0 65 8z" />
    <glyph glyph-name="Idieresis" unicode="&#xcf;" horiz-adv-x="1212" 
d="M207 115v1026q-8 0 -30 -2t-34 -2q-64 0 -80 39q-6 18 -6 22q0 24 22 40.5t50 16.5h922q27 0 50 -18t23 -41q0 -24 -18 -39q-20 -20 -72 -20q-10 0 -32 2t-29 2v-1026h57q94 0 94 -56q0 -30 -21.5 -44.5t-51.5 -14.5h-338q-29 0 -51.5 16t-22.5 41q0 1 6 25q12 37 86 37
q16 0 44 -2t36 -2v1026h-440v-1026q8 0 35 2t43 2q74 0 90 -37q4 -16 4 -25q0 -24 -21.5 -40.5t-48.5 -16.5h-344q-28 0 -50 17.5t-22 39.5q0 1 6 25q15 35 80 35q23 0 36 -0.5t28 -1.5z" />
    <glyph glyph-name="Idieresis" unicode="&#x41f;" horiz-adv-x="1212" 
d="M207 115v1026q-8 0 -30 -2t-34 -2q-64 0 -80 39q-6 18 -6 22q0 24 22 40.5t50 16.5h922q27 0 50 -18t23 -41q0 -24 -18 -39q-20 -20 -72 -20q-10 0 -32 2t-29 2v-1026h57q94 0 94 -56q0 -30 -21.5 -44.5t-51.5 -14.5h-338q-29 0 -51.5 16t-22.5 41q0 1 6 25q12 37 86 37
q16 0 44 -2t36 -2v1026h-440v-1026q8 0 35 2t43 2q74 0 90 -37q4 -16 4 -25q0 -24 -21.5 -40.5t-48.5 -16.5h-344q-28 0 -50 17.5t-22 39.5q0 1 6 25q15 35 80 35q23 0 36 -0.5t28 -1.5z" />
    <glyph glyph-name="Eth" unicode="&#xd0;" horiz-adv-x="1174" 
d="M479 668q69 -23 148 -23q82 0 148 32t99 103q25 51 25 119q0 63 -18 113q-45 114 -211 118h-191v-462zM315 117v1013q-8 0 -37 -2t-47 -2q-89 0 -108 43q-8 18 -8 29q0 29 29.5 43t66.5 14h436q132 0 219 -21.5t144 -98.5q73 -98 73 -238q0 -32 -8 -90
q-16 -75 -57.5 -130.5t-101.5 -90t-130 -50.5t-143 -16q-76 0 -164 19v-422q10 0 50 2t65 2q133 0 133 -62q0 -29 -22 -44t-54 -15h-440q-29 0 -54.5 15t-25.5 40q0 15 6 27q11 37 103 37q27 0 42.5 -0.5t32.5 -1.5z" />
    <glyph glyph-name="Eth" unicode="&#x420;" horiz-adv-x="1174" 
d="M479 668q69 -23 148 -23q82 0 148 32t99 103q25 51 25 119q0 63 -18 113q-45 114 -211 118h-191v-462zM315 117v1013q-8 0 -37 -2t-47 -2q-89 0 -108 43q-8 18 -8 29q0 29 29.5 43t66.5 14h436q132 0 219 -21.5t144 -98.5q73 -98 73 -238q0 -32 -8 -90
q-16 -75 -57.5 -130.5t-101.5 -90t-130 -50.5t-143 -16q-76 0 -164 19v-422q10 0 50 2t65 2q133 0 133 -62q0 -29 -22 -44t-54 -15h-440q-29 0 -54.5 15t-25.5 40q0 15 6 27q11 37 103 37q27 0 42.5 -0.5t32.5 -1.5z" />
    <glyph glyph-name="Ntilde" unicode="&#xd1;" 
d="M1030 188q0 -55 -42 -87t-120 -70q-112 -58 -254 -58q-49 0 -92 7q-102 17 -178.5 78t-126.5 153t-73 197t-23 219q0 86 13.5 166.5t39.5 152.5q35 92 90.5 162t131 115t167.5 55q42 4 64 4q42 0 75 -6q17 -2 49 -11t52.5 -15.5t44.5 -10.5q1 0 2 -0.5t2 -1.5q18 0 54 8
t50 8q64 0 66 -108l6 -197v-4q0 -36 -18.5 -61t-55.5 -25q-37 1 -50 31.5t-21.5 89t-18.5 76.5q-28 50 -86 75t-123 25q-83 0 -137 -29q-213 -103 -213 -503q0 -383 197 -496q68 -35 129 -35q49 0 99 20.5t83 55.5q30 32 53 91.5t40.5 104t39.5 52.5q8 2 27 2q61 0 61 -131
q0 -25 -2 -59t-2 -40z" />
    <glyph glyph-name="Ntilde" unicode="&#x421;" 
d="M1030 188q0 -55 -42 -87t-120 -70q-112 -58 -254 -58q-49 0 -92 7q-102 17 -178.5 78t-126.5 153t-73 197t-23 219q0 86 13.5 166.5t39.5 152.5q35 92 90.5 162t131 115t167.5 55q42 4 64 4q42 0 75 -6q17 -2 49 -11t52.5 -15.5t44.5 -10.5q1 0 2 -0.5t2 -1.5q18 0 54 8
t50 8q64 0 66 -108l6 -197v-4q0 -36 -18.5 -61t-55.5 -25q-37 1 -50 31.5t-21.5 89t-18.5 76.5q-28 50 -86 75t-123 25q-83 0 -137 -29q-213 -103 -213 -503q0 -383 197 -496q68 -35 129 -35q49 0 99 20.5t83 55.5q30 32 53 91.5t40.5 104t39.5 52.5q8 2 27 2q61 0 61 -131
q0 -25 -2 -59t-2 -40z" />
    <glyph glyph-name="Ograve" unicode="&#xd2;" horiz-adv-x="1174" 
d="M670 117h106q86 0 101 -4q28 -11 34 -43v-13q0 -22 -17.5 -39.5t-41.5 -17.5h-524q-24 0 -42 17t-18 40q0 3 6 27q12 28 41 31q50 4 76 4q38 0 62.5 -0.5t52.5 -1.5v1011q-31 1 -57.5 1.5t-67.5 0.5q-26 0 -80 -4q-31 -3 -51 -30q-17 -36 -17 -66q0 -10 2 -32.5t3.5 -40
t1.5 -27.5q0 -35 -7 -49q-9 -17 -30 -27t-39 -10q-27 0 -46.5 15t-19.5 42v268q0 38 22 65.5t58 27.5h4q34 -2 55 -4t42 -4.5t55 -4.5q55 -2 119.5 -6t101.5 -4q9 1 17 1.5t20 0.5q11 0 18 -0.5t15 -1.5q36 0 102.5 4t120.5 6q34 2 55 4.5t41.5 4.5t54.5 4h2q38 0 60 -27
t22 -66v-268q0 -27 -21.5 -42t-49.5 -15q-39 0 -58 26q-14 21 -14 64q0 14 2 46t2 46q0 102 -80 102h-194v-1011z" />
    <glyph glyph-name="Ograve" unicode="&#x422;" horiz-adv-x="1174" 
d="M670 117h106q86 0 101 -4q28 -11 34 -43v-13q0 -22 -17.5 -39.5t-41.5 -17.5h-524q-24 0 -42 17t-18 40q0 3 6 27q12 28 41 31q50 4 76 4q38 0 62.5 -0.5t52.5 -1.5v1011q-31 1 -57.5 1.5t-67.5 0.5q-26 0 -80 -4q-31 -3 -51 -30q-17 -36 -17 -66q0 -10 2 -32.5t3.5 -40
t1.5 -27.5q0 -35 -7 -49q-9 -17 -30 -27t-39 -10q-27 0 -46.5 15t-19.5 42v268q0 38 22 65.5t58 27.5h4q34 -2 55 -4t42 -4.5t55 -4.5q55 -2 119.5 -6t101.5 -4q9 1 17 1.5t20 0.5q11 0 18 -0.5t15 -1.5q36 0 102.5 4t120.5 6q34 2 55 4.5t41.5 4.5t54.5 4h2q38 0 60 -27
t22 -66v-268q0 -27 -21.5 -42t-49.5 -15q-39 0 -58 26q-14 21 -14 64q0 14 2 46t2 46q0 102 -80 102h-194v-1011z" />
    <glyph glyph-name="Oacute" unicode="&#xd3;" horiz-adv-x="1235" 
d="M618 166q-68 -178 -200 -178q-110 0 -156 121q-14 37 -14 77q0 41 15.5 75t45.5 40h15q28 0 40 -19.5t20 -62.5t12.5 -57.5t25.5 -22.5q3 0 6 -0.5t6 -1.5q43 0 72 78l41 100l-336 779q-7 19 -28 26.5t-61 15.5t-59.5 20.5t-19.5 37.5q1 2 1.5 3.5t0.5 2.5q0 26 20 40.5
t76 14.5h303q43 0 58 -13.5t28 -41.5q0 -63 -108 -63q-17 0 -45 2t-35 2l274 -672l252 676h-4q-2 0 -36 -2t-56 -2q-42 0 -65 10q-39 16 -39 49q0 22 23.5 37.5t64.5 15.5l4 2h282q41 0 64.5 -9.5t23.5 -41.5v-4q-3 -33 -39.5 -49.5t-82.5 -20.5z" />
    <glyph glyph-name="Oacute" unicode="&#x423;" horiz-adv-x="1235" 
d="M618 166q-68 -178 -200 -178q-110 0 -156 121q-14 37 -14 77q0 41 15.5 75t45.5 40h15q28 0 40 -19.5t20 -62.5t12.5 -57.5t25.5 -22.5q3 0 6 -0.5t6 -1.5q43 0 72 78l41 100l-336 779q-7 19 -28 26.5t-61 15.5t-59.5 20.5t-19.5 37.5q1 2 1.5 3.5t0.5 2.5q0 26 20 40.5
t76 14.5h303q43 0 58 -13.5t28 -41.5q0 -63 -108 -63q-17 0 -45 2t-35 2l274 -672l252 676h-4q-2 0 -36 -2t-56 -2q-42 0 -65 10q-39 16 -39 49q0 22 23.5 37.5t64.5 15.5l4 2h282q41 0 64.5 -9.5t23.5 -41.5v-4q-3 -33 -39.5 -49.5t-82.5 -20.5z" />
    <glyph glyph-name="Ocircumflex" unicode="&#xd4;" horiz-adv-x="1192" 
d="M326 1251h505q28 0 49 -16t21 -41q0 -10 -4 -18q-3 -15 -16.5 -24.5t-28.5 -12.5q-27 -2 -45 -4t-31 -2q-18 0 -58 2t-56 2v-105q277 0 387 -184q19 -34 32 -93t13 -118t-12.5 -114.5t-32.5 -94.5q-48 -87 -144 -133.5t-229 -46.5q-3 1 -6 1.5t-8 0.5v-135q21 0 63 2
t63 2q33 0 52 -2q13 -1 31 -13t22 -22q4 -16 4 -27q0 -23 -17 -40t-40 -17h-523q-22 0 -39.5 17.5t-17.5 39.5q0 3 6 27q3 11 20 22t31 13q19 2 50 2q21 0 64 -2t65 -2v135q-4 0 -8 -0.5t-9 -1.5q-273 0 -370 180q-46 84 -46 209q0 131 46 211q54 91 151 137.5t236 46.5v105
q-17 0 -57 -2t-60 -2q-12 0 -31 2t-43 4q-36 8 -45 37q-6 12 -6 18q0 25 22.5 41t49.5 16zM315 866q-43 -34 -70.5 -97.5t-27.5 -133.5q0 -20 8 -62q40 -202 264 -202q3 1 5 1.5t4 0.5v536q-56 0 -103 -9t-80 -34zM844 866q-56 43 -185 43v-536q3 0 5 -0.5t4 -1.5
q224 0 264 202q6 31 6 62q0 67 -27 133.5t-67 97.5z" />
    <glyph glyph-name="Ocircumflex" unicode="&#x424;" horiz-adv-x="1192" 
d="M326 1251h505q28 0 49 -16t21 -41q0 -10 -4 -18q-3 -15 -16.5 -24.5t-28.5 -12.5q-27 -2 -45 -4t-31 -2q-18 0 -58 2t-56 2v-105q277 0 387 -184q19 -34 32 -93t13 -118t-12.5 -114.5t-32.5 -94.5q-48 -87 -144 -133.5t-229 -46.5q-3 1 -6 1.5t-8 0.5v-135q21 0 63 2
t63 2q33 0 52 -2q13 -1 31 -13t22 -22q4 -16 4 -27q0 -23 -17 -40t-40 -17h-523q-22 0 -39.5 17.5t-17.5 39.5q0 3 6 27q3 11 20 22t31 13q19 2 50 2q21 0 64 -2t65 -2v135q-4 0 -8 -0.5t-9 -1.5q-273 0 -370 180q-46 84 -46 209q0 131 46 211q54 91 151 137.5t236 46.5v105
q-17 0 -57 -2t-60 -2q-12 0 -31 2t-43 4q-36 8 -45 37q-6 12 -6 18q0 25 22.5 41t49.5 16zM315 866q-43 -34 -70.5 -97.5t-27.5 -133.5q0 -20 8 -62q40 -202 264 -202q3 1 5 1.5t4 0.5v536q-56 0 -103 -9t-80 -34zM844 866q-56 43 -185 43v-536q3 0 5 -0.5t4 -1.5
q224 0 264 202q6 31 6 62q0 67 -27 133.5t-67 97.5z" />
    <glyph glyph-name="Otilde" unicode="&#xd5;" horiz-adv-x="1235" 
d="M215 1067q-22 33 -33.5 45t-23.5 18t-37 11t-47 12q-31 10 -31 41q0 24 21 42.5t51 18.5h350q29 0 40.5 -7.5t15 -19.5t9.5 -28q0 -63 -104 -63q-12 1 -26 2t-24.5 2t-16.5 1.5t-17 0.5l252 -379l205 379q-6 0 -31 -2t-41 -2q-81 0 -96 37q-8 16 -8 24q0 23 22 39t51 16
h326q23 0 41 -17t18 -38q0 -13 -8 -31q-12 -18 -53.5 -29.5t-60.5 -19.5t-41 -45l-250 -418l315 -475q22 -34 41.5 -42.5t54.5 -19.5t47 -30q11 -13 11 -31q0 -24 -20 -41.5t-46 -17.5h-313q-25 0 -46.5 17.5t-21.5 41.5q0 2 1.5 7.5t4.5 15.5q16 37 84 37q21 0 33.5 -0.5
t26.5 -1.5l-269 401l-215 -401q17 1 31.5 1.5t40.5 0.5q89 0 94 -47v-13q0 -25 -16 -42t-41 -17h-356q-27 0 -45.5 19.5t-18.5 41.5q0 34 33 48q21 8 59.5 17t56 25t54.5 74l250 404z" />
    <glyph glyph-name="Otilde" unicode="&#x425;" horiz-adv-x="1235" 
d="M215 1067q-22 33 -33.5 45t-23.5 18t-37 11t-47 12q-31 10 -31 41q0 24 21 42.5t51 18.5h350q29 0 40.5 -7.5t15 -19.5t9.5 -28q0 -63 -104 -63q-12 1 -26 2t-24.5 2t-16.5 1.5t-17 0.5l252 -379l205 379q-6 0 -31 -2t-41 -2q-81 0 -96 37q-8 16 -8 24q0 23 22 39t51 16
h326q23 0 41 -17t18 -38q0 -13 -8 -31q-12 -18 -53.5 -29.5t-60.5 -19.5t-41 -45l-250 -418l315 -475q22 -34 41.5 -42.5t54.5 -19.5t47 -30q11 -13 11 -31q0 -24 -20 -41.5t-46 -17.5h-313q-25 0 -46.5 17.5t-21.5 41.5q0 2 1.5 7.5t4.5 15.5q16 37 84 37q21 0 33.5 -0.5
t26.5 -1.5l-269 401l-215 -401q17 1 31.5 1.5t40.5 0.5q89 0 94 -47v-13q0 -25 -16 -42t-41 -17h-356q-27 0 -45.5 19.5t-18.5 41.5q0 34 33 48q21 8 59.5 17t56 25t54.5 74l250 404z" />
    <glyph glyph-name="Odieresis" unicode="&#xd6;" horiz-adv-x="1253" 
d="M973 115h82q110 0 110 -76v-242q0 -34 -17 -55t-38 -21q-22 0 -40 22t-21 60q-6 89 -36 131t-84 54t-147 12h-653q-28 0 -50 17.5t-22 39.5q0 1 6 25q15 35 80 35q23 0 36 -0.5t28 -1.5v1026q-8 0 -30 -2t-34 -2q-64 0 -80 39q-6 18 -6 22q0 24 22 40.5t50 16.5h344
q27 0 48.5 -16.5t21.5 -40.5q0 -10 -4 -22q-17 -41 -90 -41q-11 1 -23 2t-22.5 2t-16 1.5t-16.5 0.5v-1026h440v1026q-10 0 -16 -0.5t-16 -1.5t-23 -2t-25 -2q-73 0 -86 41q-6 18 -6 22q0 25 22.5 41t51.5 16h338q27 0 50 -18t23 -41q0 -24 -18 -39q-20 -20 -72 -20
q-10 0 -32 2t-29 2v-1026z" />
    <glyph glyph-name="Odieresis" unicode="&#x426;" horiz-adv-x="1253" 
d="M973 115h82q110 0 110 -76v-242q0 -34 -17 -55t-38 -21q-22 0 -40 22t-21 60q-6 89 -36 131t-84 54t-147 12h-653q-28 0 -50 17.5t-22 39.5q0 1 6 25q15 35 80 35q23 0 36 -0.5t28 -1.5v1026q-8 0 -30 -2t-34 -2q-64 0 -80 39q-6 18 -6 22q0 24 22 40.5t50 16.5h344
q27 0 48.5 -16.5t21.5 -40.5q0 -10 -4 -22q-17 -41 -90 -41q-11 1 -23 2t-22.5 2t-16 1.5t-16.5 0.5v-1026h440v1026q-10 0 -16 -0.5t-16 -1.5t-23 -2t-25 -2q-73 0 -86 41q-6 18 -6 22q0 25 22.5 41t51.5 16h338q27 0 50 -18t23 -41q0 -24 -18 -39q-20 -20 -72 -20
q-10 0 -32 2t-29 2v-1026z" />
    <glyph glyph-name="multiply" unicode="&#xd7;" horiz-adv-x="1212" 
d="M207 788v353q-8 0 -30 -2t-34 -2q-64 0 -80 39q-6 18 -6 22q0 24 22 40.5t50 16.5h344q27 0 48.5 -16.5t21.5 -40.5q0 -10 -4 -22q-17 -41 -90 -41q-11 1 -23 2t-22.5 2t-16 1.5t-16.5 0.5v-307q0 -49 13.5 -88t33.5 -56q71 -51 157 -51q120 0 236 80v422q-10 0 -16 -0.5
t-16 -1.5t-23 -2t-25 -2q-73 0 -86 41q-6 18 -6 22q0 25 22.5 41t51.5 16h338q27 0 50 -18t23 -41q0 -24 -18 -39q-20 -20 -72 -20q-10 0 -32 2t-29 2v-1026h57q94 0 94 -56q0 -30 -21.5 -44.5t-51.5 -14.5h-338q-29 0 -51.5 16t-22.5 41q0 1 6 25q12 37 86 37q16 0 44 -2
t36 -2v497q-135 -94 -289 -94q-139 0 -239 88q-76 66 -76 182z" />
    <glyph glyph-name="multiply" unicode="&#x427;" horiz-adv-x="1212" 
d="M207 788v353q-8 0 -30 -2t-34 -2q-64 0 -80 39q-6 18 -6 22q0 24 22 40.5t50 16.5h344q27 0 48.5 -16.5t21.5 -40.5q0 -10 -4 -22q-17 -41 -90 -41q-11 1 -23 2t-22.5 2t-16 1.5t-16.5 0.5v-307q0 -49 13.5 -88t33.5 -56q71 -51 157 -51q120 0 236 80v422q-10 0 -16 -0.5
t-16 -1.5t-23 -2t-25 -2q-73 0 -86 41q-6 18 -6 22q0 25 22.5 41t51.5 16h338q27 0 50 -18t23 -41q0 -24 -18 -39q-20 -20 -72 -20q-10 0 -32 2t-29 2v-1026h57q94 0 94 -56q0 -30 -21.5 -44.5t-51.5 -14.5h-338q-29 0 -51.5 16t-22.5 41q0 1 6 25q12 37 86 37q16 0 44 -2
t36 -2v497q-135 -94 -289 -94q-139 0 -239 88q-76 66 -76 182z" />
    <glyph glyph-name="Oslash" unicode="&#xd8;" horiz-adv-x="1253" 
d="M887 117v1026q-38 0 -57.5 4t-32.5 17.5t-13 27.5q0 24 17 44.5t41 20.5h258q23 0 37 -16t14 -41q0 -24 -4 -35q-15 -32 -49 -32q-6 0 -31 5t-39 5v-1026h39q39 0 55 -37q2 -8 2 -27q0 -23 -17 -38t-44 -15h-975q-28 0 -46.5 15.5t-18.5 37.5q0 15 6 27q12 28 28 37.5
t43 9.5h17v1014q-10 0 -33 -4t-33 -4q-36 0 -47 32q-6 16 -6 35q0 23 14 40t37 17h254q25 0 39 -18t14 -43q0 -16 -8 -31q-16 -24 -57 -24q-7 1 -13.5 1.5t-17.5 0.5v-1026h242v1026q-36 0 -54.5 4t-33.5 18q-13 13 -13 27q0 24 17 44.5t41 20.5h225q24 0 38.5 -20t14.5 -43
q0 -17 -8 -29q-10 -14 -28 -18t-56 -4v-1026h242z" />
    <glyph glyph-name="Oslash" unicode="&#x428;" horiz-adv-x="1253" 
d="M887 117v1026q-38 0 -57.5 4t-32.5 17.5t-13 27.5q0 24 17 44.5t41 20.5h258q23 0 37 -16t14 -41q0 -24 -4 -35q-15 -32 -49 -32q-6 0 -31 5t-39 5v-1026h39q39 0 55 -37q2 -8 2 -27q0 -23 -17 -38t-44 -15h-975q-28 0 -46.5 15.5t-18.5 37.5q0 15 6 27q12 28 28 37.5
t43 9.5h17v1014q-10 0 -33 -4t-33 -4q-36 0 -47 32q-6 16 -6 35q0 23 14 40t37 17h254q25 0 39 -18t14 -43q0 -16 -8 -31q-16 -24 -57 -24q-7 1 -13.5 1.5t-17.5 0.5v-1026h242v1026q-36 0 -54.5 4t-33.5 18q-13 13 -13 27q0 24 17 44.5t41 20.5h225q24 0 38.5 -20t14.5 -43
q0 -17 -8 -29q-10 -14 -28 -18t-56 -4v-1026h242z" />
    <glyph glyph-name="Ugrave" unicode="&#xd9;" horiz-adv-x="1274" 
d="M803 0h-711q-25 0 -46 16t-21 39q0 1 6 25q16 41 57 41h29v1020q-11 0 -33 -4t-31 -4q-36 0 -47 32q-6 16 -6 35q0 23 14 40t37 17h254q24 0 38.5 -20t14.5 -43q0 -11 -8 -29q-16 -24 -49 -24q-9 1 -17.5 1.5t-23.5 0.5v-1026h242v1026q-9 0 -25 -2t-20 -2q-25 0 -41 26
q-10 23 -10 29q0 22 15.5 42.5t39.5 20.5h225q25 0 39 -18t14 -41q0 -11 -8 -33q-8 -14 -27.5 -18t-58.5 -4v-1026h242v1026q-39 0 -59.5 4t-30.5 18q-11 30 -11 33q0 23 16.5 41t41.5 18h258q23 0 37 -16t14 -41q0 -13 -4 -35q-15 -32 -49 -32q-4 0 -30.5 5t-41.5 5v-1026
h47q111 0 111 -78v-240q0 -35 -17 -55t-39 -20q-21 0 -38.5 20.5t-20.5 60.5q-6 87 -36.5 129t-82 54t-149.5 12z" />
    <glyph glyph-name="Ugrave" unicode="&#x429;" horiz-adv-x="1274" 
d="M803 0h-711q-25 0 -46 16t-21 39q0 1 6 25q16 41 57 41h29v1020q-11 0 -33 -4t-31 -4q-36 0 -47 32q-6 16 -6 35q0 23 14 40t37 17h254q24 0 38.5 -20t14.5 -43q0 -11 -8 -29q-16 -24 -49 -24q-9 1 -17.5 1.5t-23.5 0.5v-1026h242v1026q-9 0 -25 -2t-20 -2q-25 0 -41 26
q-10 23 -10 29q0 22 15.5 42.5t39.5 20.5h225q25 0 39 -18t14 -41q0 -11 -8 -33q-8 -14 -27.5 -18t-58.5 -4v-1026h242v1026q-39 0 -59.5 4t-30.5 18q-11 30 -11 33q0 23 16.5 41t41.5 18h258q23 0 37 -16t14 -41q0 -13 -4 -35q-15 -32 -49 -32q-4 0 -30.5 5t-41.5 5v-1026
h47q111 0 111 -78v-240q0 -35 -17 -55t-39 -20q-21 0 -38.5 20.5t-20.5 60.5q-6 87 -36.5 129t-82 54t-149.5 12z" />
    <glyph glyph-name="Uacute" unicode="&#xda;" horiz-adv-x="1292" 
d="M713 616h-117v-487q26 0 45 -0.5t41 -1.5q61 0 120.5 8.5t108.5 33t79.5 71.5t33.5 120v17q0 239 -311 239zM6 1169q0 38 22 65.5t58 27.5h2q45 -1 97.5 -2t106 -2.5t97.5 -2.5l41 -2h262q30 0 51 -18t21 -41q0 -11 -4 -25q-19 -43 -107 -43h-47q-2 1 -4.5 1.5t-5.5 0.5
v-380q66 4 100 4q113 0 183 -17q163 -40 240 -140t77 -224q0 -70 -25 -136.5t-65 -109.5q-45 -47 -97.5 -74t-112.5 -39t-134 -12h-426q-32 0 -53 18.5t-21 44.5q0 5 2 15t2 12q19 41 94 41q28 0 42 -0.5t30 -1.5v999l-6 9q-138 0 -217 -11q-34 -3 -51 -30q-19 -31 -19 -66
q0 -15 4 -49t4 -51q0 -30 -8 -49q-8 -18 -28 -27.5t-39 -9.5q-27 0 -46.5 15t-19.5 42v268z" />
    <glyph glyph-name="Uacute" unicode="&#x42a;" horiz-adv-x="1292" 
d="M713 616h-117v-487q26 0 45 -0.5t41 -1.5q61 0 120.5 8.5t108.5 33t79.5 71.5t33.5 120v17q0 239 -311 239zM6 1169q0 38 22 65.5t58 27.5h2q45 -1 97.5 -2t106 -2.5t97.5 -2.5l41 -2h262q30 0 51 -18t21 -41q0 -11 -4 -25q-19 -43 -107 -43h-47q-2 1 -4.5 1.5t-5.5 0.5
v-380q66 4 100 4q113 0 183 -17q163 -40 240 -140t77 -224q0 -70 -25 -136.5t-65 -109.5q-45 -47 -97.5 -74t-112.5 -39t-134 -12h-426q-32 0 -53 18.5t-21 44.5q0 5 2 15t2 12q19 41 94 41q28 0 42 -0.5t30 -1.5v999l-6 9q-138 0 -217 -11q-34 -3 -51 -30q-19 -31 -19 -66
q0 -15 4 -49t4 -51q0 -30 -8 -49q-8 -18 -28 -27.5t-39 -9.5q-27 0 -46.5 15t-19.5 42v268z" />
    <glyph glyph-name="Ucircumflex" unicode="&#xdb;" horiz-adv-x="1294" 
d="M139 0q-9 0 -15 -0.5t-13 -1.5q-68 0 -68 57q1 5 1.5 9.5t0.5 11.5q10 28 39 39t41.5 24.5t13.5 71.5v928q-13 0 -21 -0.5t-18 -1.5q-67 0 -80 39q-4 12 -4 22q0 23 16 40t40 17h329q31 0 51.5 -17.5t20.5 -43.5q0 -11 -4 -25q-13 -39 -102 -39q-22 1 -47 2t-33 1
q-1 1 -2.5 1.5t-3.5 0.5v-387h86q113 0 205.5 -36t158.5 -147q20 -31 30.5 -76.5t10.5 -97.5q0 -77 -26 -150.5t-78 -125.5q-119 -115 -328 -115h-201zM563 551q-61 65 -221 65h-61v-487q15 0 45 -2t41 -2q78 0 128.5 26.5t100.5 110.5q22 34 22 107q0 121 -55 182z
M1049 115q11 0 36 2t35 2q66 0 80 -35q2 -10 2 -29q0 -52 -53 -55h-268q-22 0 -34 -0.5t-26 -1.5q-52 0 -74 13.5t-22 43.5q1 3 1.5 5t0.5 3q4 56 119 56h61v1005h-41q-109 0 -125 45q-4 14 -4 23q0 33 26 47t62 14h308q15 0 30 -16.5t15 -38.5q0 -8 -0.5 -14t-1.5 -13
q-20 -32 -84 -32q-10 1 -18.5 1.5t-24.5 0.5v-1026z" />
    <glyph glyph-name="Ucircumflex" unicode="&#x42b;" horiz-adv-x="1294" 
d="M139 0q-9 0 -15 -0.5t-13 -1.5q-68 0 -68 57q1 5 1.5 9.5t0.5 11.5q10 28 39 39t41.5 24.5t13.5 71.5v928q-13 0 -21 -0.5t-18 -1.5q-67 0 -80 39q-4 12 -4 22q0 23 16 40t40 17h329q31 0 51.5 -17.5t20.5 -43.5q0 -11 -4 -25q-13 -39 -102 -39q-22 1 -47 2t-33 1
q-1 1 -2.5 1.5t-3.5 0.5v-387h86q113 0 205.5 -36t158.5 -147q20 -31 30.5 -76.5t10.5 -97.5q0 -77 -26 -150.5t-78 -125.5q-119 -115 -328 -115h-201zM563 551q-61 65 -221 65h-61v-487q15 0 45 -2t41 -2q78 0 128.5 26.5t100.5 110.5q22 34 22 107q0 121 -55 182z
M1049 115q11 0 36 2t35 2q66 0 80 -35q2 -10 2 -29q0 -52 -53 -55h-268q-22 0 -34 -0.5t-26 -1.5q-52 0 -74 13.5t-22 43.5q1 3 1.5 5t0.5 3q4 56 119 56h61v1005h-41q-109 0 -125 45q-4 14 -4 23q0 33 26 47t62 14h308q15 0 30 -16.5t15 -38.5q0 -8 -0.5 -14t-1.5 -13
q-20 -32 -84 -32q-10 1 -18.5 1.5t-24.5 0.5v-1026z" />
    <glyph glyph-name="Udieresis" unicode="&#xdc;" horiz-adv-x="1112" 
d="M963 598q30 -32 45.5 -86.5t15.5 -114.5q0 -74 -22.5 -146t-57.5 -110q-73 -73 -169 -106t-281 -33h-316q-31 0 -52.5 19t-21.5 45q0 5 7 26q15 41 92 41q27 0 41 -0.5t30 -1.5v999h-10q-15 0 -25.5 -0.5t-23.5 -1.5q-89 0 -104 43q-2 6 -4.5 12.5t-2.5 12.5q0 23 22 41
t52 18h383q30 0 51 -18t21 -41q0 -11 -4 -25q-16 -43 -125 -43h-55q-2 1 -4 1.5t-5 0.5v-380h29q139 0 233.5 -17t154 -50.5t106.5 -84.5zM831 252q35 45 35 133q0 48 -14 93t-39 67q-47 45 -120.5 59t-172.5 14h-80v-487q16 0 44 -2t40 -2q92 0 146.5 13t90 39.5t70.5 72.5
z" />
    <glyph glyph-name="Udieresis" unicode="&#x42c;" horiz-adv-x="1112" 
d="M963 598q30 -32 45.5 -86.5t15.5 -114.5q0 -74 -22.5 -146t-57.5 -110q-73 -73 -169 -106t-281 -33h-316q-31 0 -52.5 19t-21.5 45q0 5 7 26q15 41 92 41q27 0 41 -0.5t30 -1.5v999h-10q-15 0 -25.5 -0.5t-23.5 -1.5q-89 0 -104 43q-2 6 -4.5 12.5t-2.5 12.5q0 23 22 41
t52 18h383q30 0 51 -18t21 -41q0 -11 -4 -25q-16 -43 -125 -43h-55q-2 1 -4 1.5t-5 0.5v-380h29q139 0 233.5 -17t154 -50.5t106.5 -84.5zM831 252q35 45 35 133q0 48 -14 93t-39 67q-47 45 -120.5 59t-172.5 14h-80v-487q16 0 44 -2t40 -2q92 0 146.5 13t90 39.5t70.5 72.5
z" />
    <glyph glyph-name="Yacute" unicode="&#xdd;" 
d="M344 170q68 -68 176 -68q64 0 135 27q84 34 125.5 109.5t51.5 148t18 203.5h-401q-46 0 -70.5 18t-24.5 45q0 25 20.5 47.5t49.5 22.5h420l4 8q-1 8 -1.5 13.5t-2.5 19.5q-15 124 -64 221.5t-141 142.5q-54 29 -139 29q-63 0 -120 -25t-87 -75q-9 -15 -17.5 -75
t-21.5 -90.5t-51 -31.5q-35 0 -55.5 25.5t-20.5 60.5l2 4l8 197q2 110 62 110q17 0 54.5 -9t49.5 -9q2 1 4 1.5t4 0.5q15 2 65 17.5t79 19.5q33 6 73 6q24 0 66 -4q138 -15 239 -106t150 -226q51 -136 51 -319q0 -154 -42 -293t-132 -236t-225 -118q-43 -7 -92 -7
q-139 0 -252 58q-57 27 -85.5 43.5t-53.5 46t-25 67.5q0 10 -0.5 16.5t-1.5 20t-2.5 31.5t-1.5 33q0 129 63 129q8 0 14.5 -0.5t14.5 -1.5q20 -7 38 -52.5t40.5 -104.5t52.5 -91z" />
    <glyph glyph-name="Yacute" unicode="&#x42d;" 
d="M344 170q68 -68 176 -68q64 0 135 27q84 34 125.5 109.5t51.5 148t18 203.5h-401q-46 0 -70.5 18t-24.5 45q0 25 20.5 47.5t49.5 22.5h420l4 8q-1 8 -1.5 13.5t-2.5 19.5q-15 124 -64 221.5t-141 142.5q-54 29 -139 29q-63 0 -120 -25t-87 -75q-9 -15 -17.5 -75
t-21.5 -90.5t-51 -31.5q-35 0 -55.5 25.5t-20.5 60.5l2 4l8 197q2 110 62 110q17 0 54.5 -9t49.5 -9q2 1 4 1.5t4 0.5q15 2 65 17.5t79 19.5q33 6 73 6q24 0 66 -4q138 -15 239 -106t150 -226q51 -136 51 -319q0 -154 -42 -293t-132 -236t-225 -118q-43 -7 -92 -7
q-139 0 -252 58q-57 27 -85.5 43.5t-53.5 46t-25 67.5q0 10 -0.5 16.5t-1.5 20t-2.5 31.5t-1.5 33q0 129 63 129q8 0 14.5 -0.5t14.5 -1.5q20 -7 38 -52.5t40.5 -104.5t52.5 -91z" />
    <glyph glyph-name="Thorn" unicode="&#xde;" horiz-adv-x="1294" 
d="M418 492q-6 30 -6 106h-131v-477h61q90 0 104 -41q5 -10 5 -23q0 -26 -25.5 -42.5t-58.5 -16.5l-277 2q-19 0 -35 20t-16 41q0 41 47 54q9 2 25.5 5t27.5 3v1018q-15 0 -25.5 -0.5t-23.5 -1.5q-39 0 -57 18q-19 19 -19 41t19 41q21 18 104 18q41 0 61.5 -0.5t43.5 -1.5
l172 2q29 0 50 -17t21 -42q0 -12 -4 -24q-7 -19 -31 -28.5t-50.5 -13t-66.5 -4.5t-52 -2v-421h131q0 46 6 67q12 117 47 215q47 129 124.5 210.5t170.5 94.5q14 2 47 2q136 0 233 -104q55 -61 93 -149t57.5 -191.5t19.5 -214.5q0 -201 -57 -350q-54 -147 -146 -226t-202 -79
q-70 0 -135 32q-102 47 -167.5 180t-84.5 300zM557 573q4 -232 88 -358q31 -45 77 -70.5t91 -25.5q21 0 49 8q101 31 149 186.5t48 325.5q0 204 -53 358t-195 154h-2q-141 0 -197.5 -155.5t-56.5 -364.5q1 -14 1.5 -26.5t0.5 -31.5z" />
    <glyph glyph-name="Thorn" unicode="&#x42e;" horiz-adv-x="1294" 
d="M418 492q-6 30 -6 106h-131v-477h61q90 0 104 -41q5 -10 5 -23q0 -26 -25.5 -42.5t-58.5 -16.5l-277 2q-19 0 -35 20t-16 41q0 41 47 54q9 2 25.5 5t27.5 3v1018q-15 0 -25.5 -0.5t-23.5 -1.5q-39 0 -57 18q-19 19 -19 41t19 41q21 18 104 18q41 0 61.5 -0.5t43.5 -1.5
l172 2q29 0 50 -17t21 -42q0 -12 -4 -24q-7 -19 -31 -28.5t-50.5 -13t-66.5 -4.5t-52 -2v-421h131q0 46 6 67q12 117 47 215q47 129 124.5 210.5t170.5 94.5q14 2 47 2q136 0 233 -104q55 -61 93 -149t57.5 -191.5t19.5 -214.5q0 -201 -57 -350q-54 -147 -146 -226t-202 -79
q-70 0 -135 32q-102 47 -167.5 180t-84.5 300zM557 573q4 -232 88 -358q31 -45 77 -70.5t91 -25.5q21 0 49 8q101 31 149 186.5t48 325.5q0 204 -53 358t-195 154h-2q-141 0 -197.5 -155.5t-56.5 -364.5q1 -14 1.5 -26.5t0.5 -31.5z" />
    <glyph glyph-name="germandbls" unicode="&#xdf;" horiz-adv-x="1235" 
d="M586 494q-32 -32 -60.5 -74.5t-50.5 -84t-50 -99t-50 -97.5q-29 -61 -56.5 -100t-70.5 -39h-8q-29 0 -86.5 8t-79.5 15q-18 6 -27.5 20t-9.5 27q0 16 14 39q19 22 72 22q31 0 45 8q34 23 65.5 82.5t67 127.5t88 130.5t139.5 114.5q-143 43 -228 122t-85 212q1 3 1.5 5.5
t0.5 6.5q3 140 92 229q56 56 130 72t182 16h440q30 0 52 -15.5t22 -41.5q0 -14 -5 -24q-13 -43 -106 -43q-14 0 -38 2t-32 2v-1018h50q69 0 86 -35q4 -16 4 -25q0 -25 -22 -41t-50 -16h-363q-33 0 -57 14.5t-24 40.5q0 9 8 29q9 27 51 31q25 2 76 2h78v450q-127 0 -205 -75z
M399 866q19 -100 106.5 -140t209.5 -40q12 0 39 2t37 2v447q-33 1 -61.5 1.5t-76.5 0.5q-138 0 -194 -47q-66 -60 -66 -168q0 -9 2 -24.5t4 -33.5z" />
    <glyph glyph-name="germandbls" unicode="&#x42f;" horiz-adv-x="1235" 
d="M586 494q-32 -32 -60.5 -74.5t-50.5 -84t-50 -99t-50 -97.5q-29 -61 -56.5 -100t-70.5 -39h-8q-29 0 -86.5 8t-79.5 15q-18 6 -27.5 20t-9.5 27q0 16 14 39q19 22 72 22q31 0 45 8q34 23 65.5 82.5t67 127.5t88 130.5t139.5 114.5q-143 43 -228 122t-85 212q1 3 1.5 5.5
t0.5 6.5q3 140 92 229q56 56 130 72t182 16h440q30 0 52 -15.5t22 -41.5q0 -14 -5 -24q-13 -43 -106 -43q-14 0 -38 2t-32 2v-1018h50q69 0 86 -35q4 -16 4 -25q0 -25 -22 -41t-50 -16h-363q-33 0 -57 14.5t-24 40.5q0 9 8 29q9 27 51 31q25 2 76 2h78v450q-127 0 -205 -75z
M399 866q19 -100 106.5 -140t209.5 -40q12 0 39 2t37 2v447q-33 1 -61.5 1.5t-76.5 0.5q-138 0 -194 -47q-66 -60 -66 -168q0 -9 2 -24.5t4 -33.5z" />
    <glyph glyph-name="agrave" unicode="&#xe0;" horiz-adv-x="1192" 
d="M784 106q-150 -117 -329 -126h-13q-104 0 -187 46.5t-101 137.5q-9 45 -9 57q0 120 106 187.5t242 91t279 30.5v91q0 61 -15.5 101t-62.5 58q-39 13 -80 13q-53 0 -114 -21q-63 -18 -73.5 -41t-13 -69.5t-32.5 -65.5q-38 -18 -57 -18q-37 0 -59.5 32.5t-22.5 77.5
q0 36 16.5 71.5t48.5 55.5q62 39 160.5 64.5t183.5 25.5q45 0 78 -6q51 -9 94.5 -35t69.5 -69q21 -34 28 -75t7 -102v-491q21 8 41 15.5t41 13.5t39 6q48 0 53 -37q2 -6 2 -19q0 -23 -18.5 -39.5t-45.5 -19.5q-18 -5 -86 -28t-92 -23q-69 0 -78 110zM772 408
q-82 -3 -153.5 -10.5t-139.5 -24.5q-61 -14 -112.5 -54.5t-51.5 -93.5q0 -31 21 -61q41 -66 131 -66q75 0 166 40.5t139 88.5v181z" />
    <glyph glyph-name="agrave" unicode="&#x430;" horiz-adv-x="1192" 
d="M784 106q-150 -117 -329 -126h-13q-104 0 -187 46.5t-101 137.5q-9 45 -9 57q0 120 106 187.5t242 91t279 30.5v91q0 61 -15.5 101t-62.5 58q-39 13 -80 13q-53 0 -114 -21q-63 -18 -73.5 -41t-13 -69.5t-32.5 -65.5q-38 -18 -57 -18q-37 0 -59.5 32.5t-22.5 77.5
q0 36 16.5 71.5t48.5 55.5q62 39 160.5 64.5t183.5 25.5q45 0 78 -6q51 -9 94.5 -35t69.5 -69q21 -34 28 -75t7 -102v-491q21 8 41 15.5t41 13.5t39 6q48 0 53 -37q2 -6 2 -19q0 -23 -18.5 -39.5t-45.5 -19.5q-18 -5 -86 -28t-92 -23q-69 0 -78 110zM772 408
q-82 -3 -153.5 -10.5t-139.5 -24.5q-61 -14 -112.5 -54.5t-51.5 -93.5q0 -31 21 -61q41 -66 131 -66q75 0 166 40.5t139 88.5v181z" />
    <glyph glyph-name="aacute" unicode="&#xe1;" 
d="M354 645q-63 -81 -63 -196q0 -74 32 -144.5t91 -114.5q38 -28 86.5 -44.5t93.5 -16.5q77 0 147 38.5t105 106.5q41 79 41 168q0 65 -23.5 129t-66.5 107q-38 39 -94.5 60.5t-112.5 21.5q-69 0 -132.5 -29.5t-103.5 -85.5zM391 1169q41 20 96 32t119 18.5t113 13.5t84 20
q33 15 67 15q28 0 45 -14.5t17 -34.5q0 -35 -33 -62q-43 -39 -103.5 -51.5t-177.5 -25t-155 -29.5q-40 -15 -76 -56t-59.5 -99.5t-28.5 -123.5q63 63 86 76q98 59 217 59q168 0 295 -116q68 -65 106.5 -161.5t38.5 -197.5q0 -147 -77 -262q-65 -94 -168.5 -143.5
t-216.5 -49.5q-45 0 -109 11q-84 17 -155.5 77t-115.5 140t-57 157q-14 115 -14 193q0 224 74 393t188 221z" />
    <glyph glyph-name="aacute" unicode="&#x431;" 
d="M354 645q-63 -81 -63 -196q0 -74 32 -144.5t91 -114.5q38 -28 86.5 -44.5t93.5 -16.5q77 0 147 38.5t105 106.5q41 79 41 168q0 65 -23.5 129t-66.5 107q-38 39 -94.5 60.5t-112.5 21.5q-69 0 -132.5 -29.5t-103.5 -85.5zM391 1169q41 20 96 32t119 18.5t113 13.5t84 20
q33 15 67 15q28 0 45 -14.5t17 -34.5q0 -35 -33 -62q-43 -39 -103.5 -51.5t-177.5 -25t-155 -29.5q-40 -15 -76 -56t-59.5 -99.5t-28.5 -123.5q63 63 86 76q98 59 217 59q168 0 295 -116q68 -65 106.5 -161.5t38.5 -197.5q0 -147 -77 -262q-65 -94 -168.5 -143.5
t-216.5 -49.5q-45 0 -109 11q-84 17 -155.5 77t-115.5 140t-57 157q-14 115 -14 193q0 224 74 393t188 221z" />
    <glyph glyph-name="acircumflex" unicode="&#xe2;" horiz-adv-x="1092" 
d="M434 406v-287h141q21 0 34 -0.5t28 -1.5q51 0 86 7.5t62.5 31t43.5 67.5q7 14 7 39q0 51 -31 96q-63 48 -211 48h-160zM279 119v651q-14 0 -22 -0.5t-17 -1.5q-24 0 -50 12q-20 16 -20 41q0 24 17 45t46 21h318q175 0 271.5 -36.5t117.5 -154.5q2 -12 2 -37
q0 -62 -36 -113.5t-85 -76.5q100 -31 152 -117q24 -39 24 -96q0 -62 -32 -117q-53 -86 -152.5 -112.5t-263.5 -26.5h-318q-29 0 -45 19t-16 44q0 28 20 46q21 10 50 10h39zM434 514h125q219 0 219 129q0 54 -50.5 83.5t-133.5 29.5h-160v-242z" />
    <glyph glyph-name="acircumflex" unicode="&#x432;" horiz-adv-x="1092" 
d="M434 406v-287h141q21 0 34 -0.5t28 -1.5q51 0 86 7.5t62.5 31t43.5 67.5q7 14 7 39q0 51 -31 96q-63 48 -211 48h-160zM279 119v651q-14 0 -22 -0.5t-17 -1.5q-24 0 -50 12q-20 16 -20 41q0 24 17 45t46 21h318q175 0 271.5 -36.5t117.5 -154.5q2 -12 2 -37
q0 -62 -36 -113.5t-85 -76.5q100 -31 152 -117q24 -39 24 -96q0 -62 -32 -117q-53 -86 -152.5 -112.5t-263.5 -26.5h-318q-29 0 -45 19t-16 44q0 28 20 46q21 10 50 10h39zM434 514h125q219 0 219 129q0 54 -50.5 83.5t-133.5 29.5h-160v-242z" />
    <glyph glyph-name="atilde" unicode="&#xe3;" horiz-adv-x="991" 
d="M221 88q13 29 68 29h39v653q-14 0 -22 -0.5t-17 -1.5q-27 0 -49 14q-21 15 -21 37q0 24 22 46t50 22h512q54 0 77 -26t23 -77v-182q0 -21 -21 -33t-51 -12q-28 0 -51 14q-24 25 -24 97q1 14 2 29t2 27l1.5 18t0.5 14h-279v-615q0 -13 13.5 -18.5t60.5 -5.5q10 1 18.5 1.5
t22.5 0.5h2q22 0 33.5 -17t11.5 -43q0 -25 -12.5 -42t-34.5 -17h-305q-29 0 -53.5 18t-24.5 45q0 1 6 25z" />
    <glyph glyph-name="atilde" unicode="&#x433;" horiz-adv-x="991" 
d="M221 88q13 29 68 29h39v653q-14 0 -22 -0.5t-17 -1.5q-27 0 -49 14q-21 15 -21 37q0 24 22 46t50 22h512q54 0 77 -26t23 -77v-182q0 -21 -21 -33t-51 -12q-28 0 -51 14q-24 25 -24 97q1 14 2 29t2 27l1.5 18t0.5 14h-279v-615q0 -13 13.5 -18.5t60.5 -5.5q10 1 18.5 1.5
t22.5 0.5h2q22 0 33.5 -17t11.5 -43q0 -25 -12.5 -42t-34.5 -17h-305q-29 0 -53.5 18t-24.5 45q0 1 6 25z" />
    <glyph glyph-name="adieresis" unicode="&#xe4;" horiz-adv-x="1073" 
d="M694 768h-231q-2 -73 -4 -201t-6.5 -199t-20.5 -139q-21 -73 -57 -112h319v651zM858 -184q-22 22 -22 100q0 23 2 52t2 32h-590q1 -17 1.5 -33.5t0.5 -54.5q0 -76 -19 -96q-14 -13 -47 -13q-24 0 -44.5 11.5t-20.5 31.5v183q0 92 76 92q25 9 51 42t39 70q43 101 43 371
q0 101 -2 160q-13 0 -20 -0.5t-15 -1.5q-46 0 -68 12.5t-22 52.5q0 36 27 48t106 12h508q33 0 63.5 -13.5t30.5 -42.5q0 -63 -90 -63v-647l49 2q76 0 76 -94v-183q0 -20 -21.5 -31.5t-48.5 -11.5q-31 0 -45 13z" />
    <glyph glyph-name="adieresis" unicode="&#x434;" horiz-adv-x="1073" 
d="M694 768h-231q-2 -73 -4 -201t-6.5 -199t-20.5 -139q-21 -73 -57 -112h319v651zM858 -184q-22 22 -22 100q0 23 2 52t2 32h-590q1 -17 1.5 -33.5t0.5 -54.5q0 -76 -19 -96q-14 -13 -47 -13q-24 0 -44.5 11.5t-20.5 31.5v183q0 92 76 92q25 9 51 42t39 70q43 101 43 371
q0 101 -2 160q-13 0 -20 -0.5t-15 -1.5q-46 0 -68 12.5t-22 52.5q0 36 27 48t106 12h508q33 0 63.5 -13.5t30.5 -42.5q0 -63 -90 -63v-647l49 2q76 0 76 -94v-183q0 -20 -21.5 -31.5t-48.5 -11.5q-31 0 -45 13z" />
    <glyph glyph-name="aring" unicode="&#xe5;" 
d="M311 522l529 21q-15 62 -45 116.5t-77 89.5t-106 35h-20q-108 -11 -170.5 -67.5t-87.5 -116t-25 -78.5h2zM850 418h-539q9 -149 89 -227t229 -78h4q59 0 120.5 18t141.5 48t96 30h8q19 -4 30 -18t11 -31q0 -34 -32 -64q-63 -54 -192 -87.5t-230 -33.5h-17
q-130 4 -229.5 64t-152 160t-52.5 221q0 82 21 151q39 153 166.5 246.5t281.5 93.5q74 0 141 -20q76 -25 136.5 -87.5t94.5 -144.5t34 -163v-15q0 -63 -109 -63h-51z" />
    <glyph glyph-name="aring" unicode="&#x435;" 
d="M311 522l529 21q-15 62 -45 116.5t-77 89.5t-106 35h-20q-108 -11 -170.5 -67.5t-87.5 -116t-25 -78.5h2zM850 418h-539q9 -149 89 -227t229 -78h4q59 0 120.5 18t141.5 48t96 30h8q19 -4 30 -18t11 -31q0 -34 -32 -64q-63 -54 -192 -87.5t-230 -33.5h-17
q-130 4 -229.5 64t-152 160t-52.5 221q0 82 21 151q39 153 166.5 246.5t281.5 93.5q74 0 141 -20q76 -25 136.5 -87.5t94.5 -144.5t34 -163v-15q0 -63 -109 -63h-51z" />
    <glyph glyph-name="ae" unicode="&#xe6;" horiz-adv-x="1274" 
d="M719 887q17 0 27 -17t10 -41q0 -20 -9.5 -38t-23.5 -19q-14 0 -30 -0.5t-34 -1.5v-278q29 38 54.5 75.5t51.5 77.5t47 69t44 58q-32 7 -46 16t-15 37q0 4 -0.5 7t-1.5 6q0 49 63 49h203q18 0 29.5 -15.5t11.5 -35.5q0 -19 -11 -36t-32 -20q-48 -8 -88 -42t-99.5 -115
t-62.5 -84q26 -52 51.5 -103.5t67 -128.5t76.5 -124.5t57 -47.5l4 2q8 1 32 15t35 14q29 0 39 -47v-6q0 -20 -19.5 -43.5t-39.5 -34.5q-9 -6 -26.5 -19.5t-31 -20.5t-28.5 -7h-2q-36 3 -68.5 44.5t-76.5 114.5q-41 74 -86.5 166.5t-65.5 130.5l-70 -92q0 -48 -0.5 -72
t-1.5 -51q0 -41 3.5 -63.5t14.5 -31t32.5 -12t50.5 -7.5q16 -1 26.5 -18t10.5 -38q0 -23 -13 -41t-33 -18h-296q-20 0 -33 17.5t-13 41.5q0 19 11 37t28 19q29 4 51 7.5t31.5 12t13 30.5t3.5 64v123l-72 92q-62 -125 -87 -176.5t-65 -120.5q-85 -155 -143 -159h-4
q-16 0 -28.5 7t-27.5 19t-28 21q-23 14 -42 35.5t-19 40.5q1 2 1.5 4t0.5 4q13 45 36 45q15 0 39.5 -13t30.5 -14l2 -2q26 0 75.5 75.5t97 168t81.5 160.5q-3 3 -63 83.5t-100 115t-87 42.5q-22 3 -34.5 20t-12.5 36t13.5 35t31.5 16h203q61 0 61 -49v-13q-3 -30 -17 -38
t-44 -15q35 -44 62 -84.5t72 -106.5t63 -89v278q-18 1 -34.5 1.5t-31.5 0.5q-13 1 -23 18t-10 39t10.5 40t28.5 18h242z" />
    <glyph glyph-name="ae" unicode="&#x436;" horiz-adv-x="1274" 
d="M719 887q17 0 27 -17t10 -41q0 -20 -9.5 -38t-23.5 -19q-14 0 -30 -0.5t-34 -1.5v-278q29 38 54.5 75.5t51.5 77.5t47 69t44 58q-32 7 -46 16t-15 37q0 4 -0.5 7t-1.5 6q0 49 63 49h203q18 0 29.5 -15.5t11.5 -35.5q0 -19 -11 -36t-32 -20q-48 -8 -88 -42t-99.5 -115
t-62.5 -84q26 -52 51.5 -103.5t67 -128.5t76.5 -124.5t57 -47.5l4 2q8 1 32 15t35 14q29 0 39 -47v-6q0 -20 -19.5 -43.5t-39.5 -34.5q-9 -6 -26.5 -19.5t-31 -20.5t-28.5 -7h-2q-36 3 -68.5 44.5t-76.5 114.5q-41 74 -86.5 166.5t-65.5 130.5l-70 -92q0 -48 -0.5 -72
t-1.5 -51q0 -41 3.5 -63.5t14.5 -31t32.5 -12t50.5 -7.5q16 -1 26.5 -18t10.5 -38q0 -23 -13 -41t-33 -18h-296q-20 0 -33 17.5t-13 41.5q0 19 11 37t28 19q29 4 51 7.5t31.5 12t13 30.5t3.5 64v123l-72 92q-62 -125 -87 -176.5t-65 -120.5q-85 -155 -143 -159h-4
q-16 0 -28.5 7t-27.5 19t-28 21q-23 14 -42 35.5t-19 40.5q1 2 1.5 4t0.5 4q13 45 36 45q15 0 39.5 -13t30.5 -14l2 -2q26 0 75.5 75.5t97 168t81.5 160.5q-3 3 -63 83.5t-100 115t-87 42.5q-22 3 -34.5 20t-12.5 36t13.5 35t31.5 16h203q61 0 61 -49v-13q-3 -30 -17 -38
t-44 -15q35 -44 62 -84.5t72 -106.5t63 -89v278q-18 1 -34.5 1.5t-31.5 0.5q-13 1 -23 18t-10 39t10.5 40t28.5 18h242z" />
    <glyph glyph-name="ccedilla" unicode="&#xe7;" horiz-adv-x="1012" 
d="M731 612q8 20 8 47q0 62 -43 95q-68 59 -168 59q-67 0 -114.5 -29t-53.5 -79q0 -3 -0.5 -5t-1.5 -4q0 -13 6.5 -46.5t6.5 -53.5q0 -24 -11 -33q-22 -16 -49 -16q-43 0 -71 33q-19 22 -19 153q0 43 28.5 82.5t69.5 61.5q71 34 185 34q36 0 114 -6q104 -13 180 -65.5
t91 -139.5v-16q0 -139 -119 -195q25 -7 46 -19t35 -27t27.5 -37.5t22.5 -45.5q12 -27 12 -75q0 -41 -9 -80t-25 -66q-49 -77 -99 -104q-103 -58 -233 -58q-65 0 -158 21q-58 15 -140.5 60t-82.5 96q0 12 12 36q13 21 35 21t86 -37t113.5 -59.5t111.5 -22.5q5 1 9 1.5t10 0.5
q87 6 136.5 41.5t78.5 114.5q4 20 4 35q0 29 -12.5 58.5t-34.5 43.5q-61 35 -121 35q-30 0 -82 -10q-5 0 -8 -0.5t-6 -1.5q-20 0 -36 19t-16 42q0 19 13.5 35t34.5 20q31 7 94.5 8.5t93.5 15t49 62.5z" />
    <glyph glyph-name="ccedilla" unicode="&#x437;" horiz-adv-x="1012" 
d="M731 612q8 20 8 47q0 62 -43 95q-68 59 -168 59q-67 0 -114.5 -29t-53.5 -79q0 -3 -0.5 -5t-1.5 -4q0 -13 6.5 -46.5t6.5 -53.5q0 -24 -11 -33q-22 -16 -49 -16q-43 0 -71 33q-19 22 -19 153q0 43 28.5 82.5t69.5 61.5q71 34 185 34q36 0 114 -6q104 -13 180 -65.5
t91 -139.5v-16q0 -139 -119 -195q25 -7 46 -19t35 -27t27.5 -37.5t22.5 -45.5q12 -27 12 -75q0 -41 -9 -80t-25 -66q-49 -77 -99 -104q-103 -58 -233 -58q-65 0 -158 21q-58 15 -140.5 60t-82.5 96q0 12 12 36q13 21 35 21t86 -37t113.5 -59.5t111.5 -22.5q5 1 9 1.5t10 0.5
q87 6 136.5 41.5t78.5 114.5q4 20 4 35q0 29 -12.5 58.5t-34.5 43.5q-61 35 -121 35q-30 0 -82 -10q-5 0 -8 -0.5t-6 -1.5q-20 0 -36 19t-16 42q0 19 13.5 35t34.5 20q31 7 94.5 8.5t93.5 15t49 62.5z" />
    <glyph glyph-name="egrave" unicode="&#xe8;" horiz-adv-x="1192" 
d="M457 887q19 0 49 -5t22 -5q27 -12 27 -48q0 -8 -1.5 -17t-2.5 -13q-16 -33 -92 -33q-16 0 -42 2t-28 2h-6v-559l446 643q24 33 48 33h110q100 0 100 -58q0 -40 -17 -52.5t-46 -12.5q-11 1 -21 1.5t-26 0.5v-649l0.5 -0.5l1.5 -1.5q7 1 14 1.5t23 0.5q67 0 67 -58
q1 -1 1.5 -2.5t0.5 -3.5q-3 -34 -28 -43.5t-70 -9.5h-237q-14 0 -45 4t-29 4q-29 11 -29 45q0 4 2.5 16.5t3.5 16.5q17 31 92 31q18 0 45 -2t29 -2l2 2v540l-436 -618q-27 -37 -80 -37h-88q-100 0 -100 55q0 39 15.5 51.5t47.5 12.5h47v649h-4q-8 0 -17 -0.5t-20 -1.5
q-69 0 -69 55q1 3 1.5 5t0.5 5q3 35 27.5 46.5t68.5 11.5z" />
    <glyph glyph-name="egrave" unicode="&#x438;" horiz-adv-x="1192" 
d="M457 887q19 0 49 -5t22 -5q27 -12 27 -48q0 -8 -1.5 -17t-2.5 -13q-16 -33 -92 -33q-16 0 -42 2t-28 2h-6v-559l446 643q24 33 48 33h110q100 0 100 -58q0 -40 -17 -52.5t-46 -12.5q-11 1 -21 1.5t-26 0.5v-649l0.5 -0.5l1.5 -1.5q7 1 14 1.5t23 0.5q67 0 67 -58
q1 -1 1.5 -2.5t0.5 -3.5q-3 -34 -28 -43.5t-70 -9.5h-237q-14 0 -45 4t-29 4q-29 11 -29 45q0 4 2.5 16.5t3.5 16.5q17 31 92 31q18 0 45 -2t29 -2l2 2v540l-436 -618q-27 -37 -80 -37h-88q-100 0 -100 55q0 39 15.5 51.5t47.5 12.5h47v649h-4q-8 0 -17 -0.5t-20 -1.5
q-69 0 -69 55q1 3 1.5 5t0.5 5q3 35 27.5 46.5t68.5 11.5z" />
    <glyph glyph-name="eacute" unicode="&#xe9;" horiz-adv-x="1192" 
d="M596 1047q40 0 63 39.5t29 70.5q5 29 22 45.5t35 16.5q25 0 45.5 -23t20.5 -55v-15q-8 -70 -72.5 -123t-144.5 -53q-79 0 -141 53t-68 123q0 4 -0.5 7t-1.5 6q0 32 20.5 56t42.5 24q19 0 37 -16.5t25 -45.5q7 -33 29.5 -71.5t58.5 -38.5zM528 877q27 -12 27 -48
q0 -8 -1.5 -17t-2.5 -13q-16 -33 -92 -33q-16 0 -42 2t-28 2h-6v-559l446 643q24 33 48 33h110q100 0 100 -58q0 -40 -17 -52.5t-46 -12.5q-11 1 -21 1.5t-26 0.5v-649l0.5 -0.5l1.5 -1.5q7 1 14 1.5t23 0.5q67 0 67 -58q1 -1 1.5 -2.5t0.5 -3.5q-3 -34 -28 -43.5t-70 -9.5
h-237q-14 0 -45 4t-29 4q-29 11 -29 45q0 4 2.5 16.5t3.5 16.5q17 31 92 31q18 0 45 -2t29 -2l2 2v540l-436 -618q-27 -37 -80 -37h-88q-100 0 -100 55q0 39 15.5 51.5t47.5 12.5h47v649h-4q-8 0 -17 -0.5t-20 -1.5q-69 0 -69 55q1 3 1.5 5t0.5 5q3 35 27.5 46.5t68.5 11.5
l242 -2q19 0 49 -5t22 -5z" />
    <glyph glyph-name="eacute" unicode="&#x439;" horiz-adv-x="1192" 
d="M596 1047q40 0 63 39.5t29 70.5q5 29 22 45.5t35 16.5q25 0 45.5 -23t20.5 -55v-15q-8 -70 -72.5 -123t-144.5 -53q-79 0 -141 53t-68 123q0 4 -0.5 7t-1.5 6q0 32 20.5 56t42.5 24q19 0 37 -16.5t25 -45.5q7 -33 29.5 -71.5t58.5 -38.5zM528 877q27 -12 27 -48
q0 -8 -1.5 -17t-2.5 -13q-16 -33 -92 -33q-16 0 -42 2t-28 2h-6v-559l446 643q24 33 48 33h110q100 0 100 -58q0 -40 -17 -52.5t-46 -12.5q-11 1 -21 1.5t-26 0.5v-649l0.5 -0.5l1.5 -1.5q7 1 14 1.5t23 0.5q67 0 67 -58q1 -1 1.5 -2.5t0.5 -3.5q-3 -34 -28 -43.5t-70 -9.5
h-237q-14 0 -45 4t-29 4q-29 11 -29 45q0 4 2.5 16.5t3.5 16.5q17 31 92 31q18 0 45 -2t29 -2l2 2v540l-436 -618q-27 -37 -80 -37h-88q-100 0 -100 55q0 39 15.5 51.5t47.5 12.5h47v649h-4q-8 0 -17 -0.5t-20 -1.5q-69 0 -69 55q1 3 1.5 5t0.5 5q3 35 27.5 46.5t68.5 11.5
l242 -2q19 0 49 -5t22 -5z" />
    <glyph glyph-name="ecircumflex" unicode="&#xea;" horiz-adv-x="1253" 
d="M385 770v-303q29 27 69 63.5t81 74.5t98 89t88 80q-10 2 -31 5t-33 7t-22.5 13.5t-13.5 25.5q0 2 -1 5.5t-2 5.5q0 51 91 51h284q26 0 42 -15t16 -36q0 -19 -16.5 -36t-45.5 -20q-51 -6 -99.5 -27t-91 -52t-96 -80t-79.5 -72q24 -34 65.5 -92.5t106.5 -141t117 -131.5
t83 -49l4 2q8 1 48.5 16t62.5 15q40 0 43 -49q0 -29 -24.5 -48t-63.5 -36q-18 -8 -40.5 -20.5t-40.5 -19.5t-38 -7h-4q-36 1 -70.5 28t-67 67t-56.5 71q-144 177 -230 297l-133 -125q0 -56 -0.5 -80t-1.5 -51q0 -35 4 -49.5t15.5 -19.5t40.5 -6t65 -5q22 -1 33.5 -17.5
t11.5 -38.5q0 -25 -15 -42t-40 -17h-305q-28 0 -52 15t-24 42q0 1 6 25q15 35 86 35h18v653q-6 0 -9.5 -0.5t-8.5 -1.5q-70 0 -86 37q-2 8 -4 14t-2 8q0 27 24.5 43.5t51.5 16.5h268q23 0 37 -17t14 -41q0 -21 -12.5 -38.5t-30.5 -18.5q-20 0 -40.5 -0.5t-43.5 -1.5z" />
    <glyph glyph-name="ecircumflex" unicode="&#x43a;" horiz-adv-x="1253" 
d="M385 770v-303q29 27 69 63.5t81 74.5t98 89t88 80q-10 2 -31 5t-33 7t-22.5 13.5t-13.5 25.5q0 2 -1 5.5t-2 5.5q0 51 91 51h284q26 0 42 -15t16 -36q0 -19 -16.5 -36t-45.5 -20q-51 -6 -99.5 -27t-91 -52t-96 -80t-79.5 -72q24 -34 65.5 -92.5t106.5 -141t117 -131.5
t83 -49l4 2q8 1 48.5 16t62.5 15q40 0 43 -49q0 -29 -24.5 -48t-63.5 -36q-18 -8 -40.5 -20.5t-40.5 -19.5t-38 -7h-4q-36 1 -70.5 28t-67 67t-56.5 71q-144 177 -230 297l-133 -125q0 -56 -0.5 -80t-1.5 -51q0 -35 4 -49.5t15.5 -19.5t40.5 -6t65 -5q22 -1 33.5 -17.5
t11.5 -38.5q0 -25 -15 -42t-40 -17h-305q-28 0 -52 15t-24 42q0 1 6 25q15 35 86 35h18v653q-6 0 -9.5 -0.5t-8.5 -1.5q-70 0 -86 37q-2 8 -4 14t-2 8q0 27 24.5 43.5t51.5 16.5h268q23 0 37 -17t14 -41q0 -21 -12.5 -38.5t-30.5 -18.5q-20 0 -40.5 -0.5t-43.5 -1.5z" />
    <glyph glyph-name="edieresis" unicode="&#xeb;" horiz-adv-x="1174" 
d="M578 770q-4 -335 -6 -411.5t-17 -143.5q-56 -229 -227 -229q-65 0 -104.5 14.5t-90.5 52.5q-41 32 -41 64q0 20 17.5 34.5t46.5 14.5q31 0 59 -10q63 -29 123 -29q20 0 38 30t27 68q25 102 25 459v80q-4 0 -17 -2t-20 -2q-46 0 -86.5 17t-40.5 50q0 35 26 47.5t46 12.5
h627q30 0 54.5 -14t24.5 -39q0 -37 -24.5 -48.5t-69.5 -11.5v-653h39q88 0 88 -49v-6q-5 -66 -96 -66h-209q-68 0 -90 16q-29 27 -29 50q0 2 6 26q11 39 58 39q19 0 48 -5t32 -5v649h-217z" />
    <glyph glyph-name="edieresis" unicode="&#x43b;" horiz-adv-x="1174" 
d="M578 770q-4 -335 -6 -411.5t-17 -143.5q-56 -229 -227 -229q-65 0 -104.5 14.5t-90.5 52.5q-41 32 -41 64q0 20 17.5 34.5t46.5 14.5q31 0 59 -10q63 -29 123 -29q20 0 38 30t27 68q25 102 25 459v80q-4 0 -17 -2t-20 -2q-46 0 -86.5 17t-40.5 50q0 35 26 47.5t46 12.5
h627q30 0 54.5 -14t24.5 -39q0 -37 -24.5 -48.5t-69.5 -11.5v-653h39q88 0 88 -49v-6q-5 -66 -96 -66h-209q-68 0 -90 16q-29 27 -29 50q0 2 6 26q11 39 58 39q19 0 48 -5t32 -5v649h-217z" />
    <glyph glyph-name="igrave" unicode="&#xec;" horiz-adv-x="1274" 
d="M479 334l-180 295v-396q0 -73 24 -97.5t101 -24.5q33 0 51.5 -19.5t18.5 -42.5q0 -18 -14 -33.5t-36 -15.5h-340q-20 0 -35.5 19.5t-15.5 43.5q0 19 12 34t33 18q26 3 37.5 10t11.5 25q0 14 -0.5 27t-1.5 30v561q-28 0 -67 5t-43 9q-21 16 -21 39q0 15 7 29t16 20
q16 15 108 15h95q30 0 46.5 -8t30.5 -29l252 -414l246 404q27 49 70 49h207q22 0 36.5 -15.5t14.5 -31.5q0 -74 -131 -74v-645q67 0 114.5 -13.5t47.5 -62.5q0 -21 -29.5 -33t-59.5 -12h-335q-37 0 -58.5 16t-21.5 41h-2q0 35 68 49.5t128 14.5v538l-200 -317
q-18 -31 -45.5 -49.5t-53.5 -18.5q-54 0 -86 60z" />
    <glyph glyph-name="igrave" unicode="&#x43c;" horiz-adv-x="1274" 
d="M479 334l-180 295v-396q0 -73 24 -97.5t101 -24.5q33 0 51.5 -19.5t18.5 -42.5q0 -18 -14 -33.5t-36 -15.5h-340q-20 0 -35.5 19.5t-15.5 43.5q0 19 12 34t33 18q26 3 37.5 10t11.5 25q0 14 -0.5 27t-1.5 30v561q-28 0 -67 5t-43 9q-21 16 -21 39q0 15 7 29t16 20
q16 15 108 15h95q30 0 46.5 -8t30.5 -29l252 -414l246 404q27 49 70 49h207q22 0 36.5 -15.5t14.5 -31.5q0 -74 -131 -74v-645q67 0 114.5 -13.5t47.5 -62.5q0 -21 -29.5 -33t-59.5 -12h-335q-37 0 -58.5 16t-21.5 41h-2q0 35 68 49.5t128 14.5v538l-200 -317
q-18 -31 -45.5 -49.5t-53.5 -18.5q-54 0 -86 60z" />
    <glyph glyph-name="iacute" unicode="&#xed;" horiz-adv-x="1192" 
d="M383 391v-272q15 1 28 1.5t38 0.5q75 0 88 -43v-12q0 -42 -15 -54t-104 -12h-197q-106 0 -106 57v15q6 28 25 37.5t50 9.5h37v647q-13 0 -21 -0.5t-18 -1.5q-66 0 -73 55v8q0 60 104 60h244q15 0 36.5 -5.5t32.5 -9.5q25 -16 25 -47q0 -14 -6 -27.5t-12 -15.5
q-39 -20 -78 -20q-15 0 -41 4t-37 4v-256h438v252q-13 0 -43 -5t-39 -5q-66 0 -71 67l-2 2q0 18 13.5 38t35.5 20q29 0 45 2t24 2h191q53 0 82.5 -11t29.5 -53q0 -55 -61 -55q-12 1 -22 1.5t-27 0.5v-651h22q41 0 63.5 -12t22.5 -52q0 -33 -22.5 -44t-58.5 -11h-216
q-24 1 -45 1.5t-38 0.5q-58 0 -58 59q0 60 111 60q24 0 36.5 -0.5t26.5 -1.5v272h-438z" />
    <glyph glyph-name="iacute" unicode="&#x43d;" horiz-adv-x="1192" 
d="M383 391v-272q15 1 28 1.5t38 0.5q75 0 88 -43v-12q0 -42 -15 -54t-104 -12h-197q-106 0 -106 57v15q6 28 25 37.5t50 9.5h37v647q-13 0 -21 -0.5t-18 -1.5q-66 0 -73 55v8q0 60 104 60h244q15 0 36.5 -5.5t32.5 -9.5q25 -16 25 -47q0 -14 -6 -27.5t-12 -15.5
q-39 -20 -78 -20q-15 0 -41 4t-37 4v-256h438v252q-13 0 -43 -5t-39 -5q-66 0 -71 67l-2 2q0 18 13.5 38t35.5 20q29 0 45 2t24 2h191q53 0 82.5 -11t29.5 -53q0 -55 -61 -55q-12 1 -22 1.5t-27 0.5v-651h22q41 0 63.5 -12t22.5 -52q0 -33 -22.5 -44t-58.5 -11h-216
q-24 1 -45 1.5t-38 0.5q-58 0 -58 59q0 60 111 60q24 0 36.5 -0.5t26.5 -1.5v272h-438z" />
    <glyph glyph-name="icircumflex" unicode="&#xee;" 
d="M354 645q-63 -81 -63 -196q0 -74 32 -144.5t91 -114.5q78 -57 170 -57q79 0 152 41t110 111q41 77 41 161q0 64 -23.5 126.5t-66.5 105.5q-38 39 -94.5 60.5t-112.5 21.5q-69 0 -132.5 -29.5t-103.5 -85.5zM897 801q49 -44 83 -102t51.5 -127.5t17.5 -135.5t-18 -135.5
t-52 -122.5q-44 -68 -104 -110t-132.5 -62t-148.5 -20q-74 0 -125 10q-152 28 -245 157t-93 293q0 139 70 263q61 100 165.5 153t223.5 53q87 0 167.5 -29t139.5 -85z" />
    <glyph glyph-name="icircumflex" unicode="&#x43e;" 
d="M354 645q-63 -81 -63 -196q0 -74 32 -144.5t91 -114.5q78 -57 170 -57q79 0 152 41t110 111q41 77 41 161q0 64 -23.5 126.5t-66.5 105.5q-38 39 -94.5 60.5t-112.5 21.5q-69 0 -132.5 -29.5t-103.5 -85.5zM897 801q49 -44 83 -102t51.5 -127.5t17.5 -135.5t-18 -135.5
t-52 -122.5q-44 -68 -104 -110t-132.5 -62t-148.5 -20q-74 0 -125 10q-152 28 -245 157t-93 293q0 139 70 263q61 100 165.5 153t223.5 53q87 0 167.5 -29t139.5 -85z" />
    <glyph glyph-name="idieresis" unicode="&#xef;" horiz-adv-x="1192" 
d="M596 883l367 4h24q100 0 100 -58q0 -40 -17 -52.5t-46 -12.5q-11 1 -21 1.5t-26 0.5v-649l0.5 -0.5l1.5 -1.5q7 1 14 1.5t23 0.5q67 0 67 -58q1 -1 1.5 -2.5t0.5 -3.5q-3 -34 -28 -43.5t-70 -9.5h-237q-14 0 -45 4t-29 4q-29 11 -29 45q0 4 2.5 16.5t3.5 16.5
q17 31 92 31q18 0 45 -2t29 -2l2 2v653l-217 4l-221 -6v-647q7 0 34 2t42 2q69 0 78 -39v-21q0 -32 -13 -45q-10 -10 -23.5 -14t-31.5 -4h-252q-100 0 -100 55q0 39 15.5 51.5t47.5 12.5h47v649h-4q-8 0 -17 -0.5t-20 -1.5q-69 0 -69 55q1 3 1.5 5t0.5 5q3 34 27 45t69 11z
" />
    <glyph glyph-name="idieresis" unicode="&#x43f;" horiz-adv-x="1192" 
d="M596 883l367 4h24q100 0 100 -58q0 -40 -17 -52.5t-46 -12.5q-11 1 -21 1.5t-26 0.5v-649l0.5 -0.5l1.5 -1.5q7 1 14 1.5t23 0.5q67 0 67 -58q1 -1 1.5 -2.5t0.5 -3.5q-3 -34 -28 -43.5t-70 -9.5h-237q-14 0 -45 4t-29 4q-29 11 -29 45q0 4 2.5 16.5t3.5 16.5
q17 31 92 31q18 0 45 -2t29 -2l2 2v653l-217 4l-221 -6v-647q7 0 34 2t42 2q69 0 78 -39v-21q0 -32 -13 -45q-10 -10 -23.5 -14t-31.5 -4h-252q-100 0 -100 55q0 39 15.5 51.5t47.5 12.5h47v649h-4q-8 0 -17 -0.5t-20 -1.5q-69 0 -69 55q1 3 1.5 5t0.5 5q3 34 27 45t69 11z
" />
    <glyph glyph-name="eth" unicode="&#xf0;" 
d="M412 -297q15 1 28 1.5t37 0.5q43 0 66 -6q28 -5 37 -41v-18q0 -58 -74 -58h-283q-47 0 -63 19q-17 21 -17 41q0 14 9 28q14 35 75 35q9 0 15 -0.5t12 -1.5v1053q-18 -3 -35 -6t-37 -6t-41 -3q-45 0 -59 23q-14 14 -14 33q0 18 13.5 35.5t33.5 25.5l-2 -2q-3 0 86.5 19
t146.5 32h4q40 0 51 -22t11 -66q134 84 262 84q78 0 145 -30t118 -86t79 -136t28 -176v-24q-3 -74 -27.5 -149t-69 -136t-106.5 -101.5t-139 -56.5q-43 -8 -102 -8q-84 0 -188 29v-326zM412 193q99 -80 202 -80q73 0 133 40t95 114t35 165v29q-3 71 -30.5 137.5t-79 113.5
t-122.5 60h-35q-97 0 -198 -90v-489z" />
    <glyph glyph-name="eth" unicode="&#x440;" 
d="M412 -297q15 1 28 1.5t37 0.5q43 0 66 -6q28 -5 37 -41v-18q0 -58 -74 -58h-283q-47 0 -63 19q-17 21 -17 41q0 14 9 28q14 35 75 35q9 0 15 -0.5t12 -1.5v1053q-18 -3 -35 -6t-37 -6t-41 -3q-45 0 -59 23q-14 14 -14 33q0 18 13.5 35.5t33.5 25.5l-2 -2q-3 0 86.5 19
t146.5 32h4q40 0 51 -22t11 -66q134 84 262 84q78 0 145 -30t118 -86t79 -136t28 -176v-24q-3 -74 -27.5 -149t-69 -136t-106.5 -101.5t-139 -56.5q-43 -8 -102 -8q-84 0 -188 29v-326zM412 193q99 -80 202 -80q73 0 133 40t95 114t35 165v29q-3 71 -30.5 137.5t-79 113.5
t-122.5 60h-35q-97 0 -198 -90v-489z" />
    <glyph glyph-name="ntilde" unicode="&#xf1;" horiz-adv-x="1153" 
d="M772 696q-4 47 -39.5 71t-87.5 24q-57 0 -118.5 -27t-102.5 -72q-84 -96 -84 -239q0 -82 33 -158t97.5 -126t150.5 -56q8 0 13 -0.5t11 -1.5q57 0 102 14.5t136 48t118 33.5q33 0 48 -21q6 -15 6 -30q0 -56 -97.5 -97.5t-177.5 -60.5q-96 -21 -172 -21q-135 0 -231 54
q-104 61 -159.5 165t-55.5 224q0 30 4 76q15 99 68.5 182.5t135.5 140.5t181 78q90 16 154 16q94 0 159 -32q88 -49 88 -121v-10q-1 -28 -2 -62.5t-5 -65t-13 -44.5q-10 -16 -28 -24.5t-40 -8.5q-30 0 -55 18q-17 14 -24 35.5t-9.5 52t-3.5 45.5z" />
    <glyph glyph-name="ntilde" unicode="&#x441;" horiz-adv-x="1153" 
d="M772 696q-4 47 -39.5 71t-87.5 24q-57 0 -118.5 -27t-102.5 -72q-84 -96 -84 -239q0 -82 33 -158t97.5 -126t150.5 -56q8 0 13 -0.5t11 -1.5q57 0 102 14.5t136 48t118 33.5q33 0 48 -21q6 -15 6 -30q0 -56 -97.5 -97.5t-177.5 -60.5q-96 -21 -172 -21q-135 0 -231 54
q-104 61 -159.5 165t-55.5 224q0 30 4 76q15 99 68.5 182.5t135.5 140.5t181 78q90 16 154 16q94 0 159 -32q88 -49 88 -121v-10q-1 -28 -2 -62.5t-5 -65t-13 -44.5q-10 -16 -28 -24.5t-40 -8.5q-30 0 -55 18q-17 14 -24 35.5t-9.5 52t-3.5 45.5z" />
    <glyph glyph-name="ograve" unicode="&#xf2;" horiz-adv-x="1112" 
d="M252 578q-20 -15 -51 -15q-26 0 -47 13t-21 32v183q0 32 19.5 64t66.5 32h703q49 0 67.5 -31t18.5 -65v-183q0 -20 -21 -32.5t-49 -12.5q-34 0 -47 15q-23 19 -23 96q0 20 2 51t2 35h-225v-434q0 -54 -0.5 -77.5t-1.5 -49.5q0 -36 4 -50.5t13.5 -19t39.5 -5.5t66 -5
q21 -3 31 -18.5t10 -37.5q0 -24 -16 -43.5t-41 -19.5h-361q-26 0 -43.5 20t-17.5 43q0 20 11.5 36.5t31.5 19.5q36 4 65.5 5t39 5t13 19t3.5 51v561h-226q0 -5 2 -37t2 -53q0 -72 -20 -92z" />
    <glyph glyph-name="ograve" unicode="&#x442;" horiz-adv-x="1112" 
d="M252 578q-20 -15 -51 -15q-26 0 -47 13t-21 32v183q0 32 19.5 64t66.5 32h703q49 0 67.5 -31t18.5 -65v-183q0 -20 -21 -32.5t-49 -12.5q-34 0 -47 15q-23 19 -23 96q0 20 2 51t2 35h-225v-434q0 -54 -0.5 -77.5t-1.5 -49.5q0 -36 4 -50.5t13.5 -19t39.5 -5.5t66 -5
q21 -3 31 -18.5t10 -37.5q0 -24 -16 -43.5t-41 -19.5h-361q-26 0 -43.5 20t-17.5 43q0 20 11.5 36.5t31.5 19.5q36 4 65.5 5t39 5t13 19t3.5 51v561h-226q0 -5 2 -37t2 -53q0 -72 -20 -92z" />
    <glyph glyph-name="oacute" unicode="&#xf3;" horiz-adv-x="1192" 
d="M195 762q-13 0 -23 -0.5t-22 -1.5q-60 0 -72 35q-6 12 -6 28q0 29 20 46.5t51 17.5h308q32 0 50.5 -17.5t18.5 -46.5q0 -23 -12 -41q-19 -24 -78 -24q-14 0 -37 2t-28 2l256 -496l217 496q-6 0 -39 -2t-54 -2q-96 0 -106 37q-3 10 -4.5 16.5t-1.5 9.5q0 27 22 46.5
t50 19.5h319q32 0 53 -17t21 -45q0 -4 -0.5 -7.5t-1.5 -8.5q-7 -49 -86 -49q-4 1 -7 1.5t-8 0.5l-415 -877q-42 -91 -82 -154.5t-101.5 -107t-144.5 -43.5h-16q-35 2 -64 18.5t-48.5 44.5t-19.5 60q0 6 2.5 14.5t4.5 16.5q7 26 33.5 46.5t52.5 20.5q5 0 8.5 -0.5t7.5 -1.5
q16 -4 46 -29t48 -28h12q22 0 40.5 15t32.5 37t24.5 46.5t17.5 42.5l109 217z" />
    <glyph glyph-name="oacute" unicode="&#x443;" horiz-adv-x="1192" 
d="M195 762q-13 0 -23 -0.5t-22 -1.5q-60 0 -72 35q-6 12 -6 28q0 29 20 46.5t51 17.5h308q32 0 50.5 -17.5t18.5 -46.5q0 -23 -12 -41q-19 -24 -78 -24q-14 0 -37 2t-28 2l256 -496l217 496q-6 0 -39 -2t-54 -2q-96 0 -106 37q-3 10 -4.5 16.5t-1.5 9.5q0 27 22 46.5
t50 19.5h319q32 0 53 -17t21 -45q0 -4 -0.5 -7.5t-1.5 -8.5q-7 -49 -86 -49q-4 1 -7 1.5t-8 0.5l-415 -877q-42 -91 -82 -154.5t-101.5 -107t-144.5 -43.5h-16q-35 2 -64 18.5t-48.5 44.5t-19.5 60q0 6 2.5 14.5t4.5 16.5q7 26 33.5 46.5t52.5 20.5q5 0 8.5 -0.5t7.5 -1.5
q16 -4 46 -29t48 -28h12q22 0 40.5 15t32.5 37t24.5 46.5t17.5 42.5l109 217z" />
    <glyph glyph-name="ocircumflex" unicode="&#xf4;" horiz-adv-x="1253" 
d="M666 674v-516q9 -18 39.5 -31.5t68.5 -13.5q86 0 153 76.5t77 254.5v33q0 121 -48.5 194.5t-128.5 73.5q-78 0 -161 -71zM377 -401q-12 15 -12 39q0 12 4 24q15 39 77 39q11 0 32 -2t28 -2v326q-56 -41 -148 -41q-11 1 -20.5 1.5t-22.5 0.5q-147 19 -227 150.5t-80 303.5
q0 136 37.5 241t107 161.5t162.5 56.5q86 0 191 -51v346q-13 -1 -51.5 -9.5t-61.5 -8.5q-47 0 -61 30q-8 16 -8 25q0 22 17 41t44 28q8 3 110 28.5t113 25.5h2q56 -2 56 -76v-428q99 49 188 49q92 0 162.5 -56t108.5 -159.5t38 -241.5q0 -177 -75.5 -302t-233.5 -152
q-10 0 -17 -0.5t-16 -1.5q-48 0 -91.5 15.5t-63.5 25.5v-322q9 1 16 1.5t20 0.5q107 0 107 -67q0 -56 -74 -56h-303q-43 0 -55 17zM506 152v520q-40 36 -83.5 54.5t-80.5 18.5q-78 0 -128 -74t-50 -192v-39q15 -187 73 -265.5t134 -78.5q38 0 76 17.5t59 38.5z" />
    <glyph glyph-name="ocircumflex" unicode="&#x444;" horiz-adv-x="1253" 
d="M666 674v-516q9 -18 39.5 -31.5t68.5 -13.5q86 0 153 76.5t77 254.5v33q0 121 -48.5 194.5t-128.5 73.5q-78 0 -161 -71zM377 -401q-12 15 -12 39q0 12 4 24q15 39 77 39q11 0 32 -2t28 -2v326q-56 -41 -148 -41q-11 1 -20.5 1.5t-22.5 0.5q-147 19 -227 150.5t-80 303.5
q0 136 37.5 241t107 161.5t162.5 56.5q86 0 191 -51v346q-13 -1 -51.5 -9.5t-61.5 -8.5q-47 0 -61 30q-8 16 -8 25q0 22 17 41t44 28q8 3 110 28.5t113 25.5h2q56 -2 56 -76v-428q99 49 188 49q92 0 162.5 -56t108.5 -159.5t38 -241.5q0 -177 -75.5 -302t-233.5 -152
q-10 0 -17 -0.5t-16 -1.5q-48 0 -91.5 15.5t-63.5 25.5v-322q9 1 16 1.5t20 0.5q107 0 107 -67q0 -56 -74 -56h-303q-43 0 -55 17zM506 152v520q-40 36 -83.5 54.5t-80.5 18.5q-78 0 -128 -74t-50 -192v-39q15 -187 73 -265.5t134 -78.5q38 0 76 17.5t59 38.5z" />
    <glyph glyph-name="otilde" unicode="&#xf5;" horiz-adv-x="1253" 
d="M295 670q-51 55 -69.5 65.5t-51.5 13t-82 21.5q-35 10 -35 51q0 24 22 45t58 21h316q31 0 51 -17t20 -47v-14q-7 -49 -84 -49q-9 1 -16 1.5t-18 0.5l188 -207l172 207q-16 0 -27.5 -0.5t-25.5 -1.5q-62 0 -74 35q-8 16 -8 26q0 27 21.5 46.5t47.5 19.5h306q38 0 57.5 -19
t19.5 -45q0 -19 -12 -36t-33 -23q-33 -10 -53 -10q-4 1 -7.5 1.5t-8.5 0.5q-21 0 -42 -15t-67 -71l-178 -209l236 -250q49 -53 80 -68.5t61 -15.5h10q39 0 66 -14q26 -21 26 -47q0 -23 -21.5 -44.5t-47.5 -21.5h-320q-82 0 -82 59q0 5 2 13t4 18q12 35 76 35h35l-219 231
l-213 -231q15 1 27.5 1.5t35.5 0.5q70 0 84 -39q4 -16 4 -29q0 -28 -21 -43.5t-54 -15.5h-301q-36 0 -57 18.5t-21 42.5q0 17 10.5 32.5t26.5 21.5q32 17 62.5 20.5t48 14t65.5 63.5l213 240z" />
    <glyph glyph-name="otilde" unicode="&#x445;" horiz-adv-x="1253" 
d="M295 670q-51 55 -69.5 65.5t-51.5 13t-82 21.5q-35 10 -35 51q0 24 22 45t58 21h316q31 0 51 -17t20 -47v-14q-7 -49 -84 -49q-9 1 -16 1.5t-18 0.5l188 -207l172 207q-16 0 -27.5 -0.5t-25.5 -1.5q-62 0 -74 35q-8 16 -8 26q0 27 21.5 46.5t47.5 19.5h306q38 0 57.5 -19
t19.5 -45q0 -19 -12 -36t-33 -23q-33 -10 -53 -10q-4 1 -7.5 1.5t-8.5 0.5q-21 0 -42 -15t-67 -71l-178 -209l236 -250q49 -53 80 -68.5t61 -15.5h10q39 0 66 -14q26 -21 26 -47q0 -23 -21.5 -44.5t-47.5 -21.5h-320q-82 0 -82 59q0 5 2 13t4 18q12 35 76 35h35l-219 231
l-213 -231q15 1 27.5 1.5t35.5 0.5q70 0 84 -39q4 -16 4 -29q0 -28 -21 -43.5t-54 -15.5h-301q-36 0 -57 18.5t-21 42.5q0 17 10.5 32.5t26.5 21.5q32 17 62.5 20.5t48 14t65.5 63.5l213 240z" />
    <glyph glyph-name="odieresis" unicode="&#xf6;" horiz-adv-x="1235" 
d="M977 117l90 6q76 0 76 -94v-183q0 -20 -21 -31.5t-47 -11.5q-33 0 -47 13q-22 22 -22 100q0 23 2 52t2 32h-793q-100 0 -100 55q0 39 15.5 51.5t47.5 12.5h47v649q-7 0 -13 -0.5t-13 -1.5q-84 0 -84 55q2 0 2 10q3 35 28 44.5t70 9.5l240 2q19 0 49 -5t22 -5
q27 -12 27 -48q0 -8 -1.5 -17t-2.5 -13q-20 -39 -88 -39q-15 0 -39 4t-41 6v-606l2 -49l221 -4l215 4v653q-8 0 -37 -4t-45 -4q-64 0 -69 41q0 4 -0.5 8.5t-1.5 9.5q0 35 12 47q14 15 26 18t39 3h242q100 0 100 -58q0 -40 -17 -52.5t-46 -12.5q-11 1 -21 1.5t-26 0.5v-649z
" />
    <glyph glyph-name="odieresis" unicode="&#x446;" horiz-adv-x="1235" 
d="M977 117l90 6q76 0 76 -94v-183q0 -20 -21 -31.5t-47 -11.5q-33 0 -47 13q-22 22 -22 100q0 23 2 52t2 32h-793q-100 0 -100 55q0 39 15.5 51.5t47.5 12.5h47v649q-7 0 -13 -0.5t-13 -1.5q-84 0 -84 55q2 0 2 10q3 35 28 44.5t70 9.5l240 2q19 0 49 -5t22 -5
q27 -12 27 -48q0 -8 -1.5 -17t-2.5 -13q-20 -39 -88 -39q-15 0 -39 4t-41 6v-606l2 -49l221 -4l215 4v653q-8 0 -37 -4t-45 -4q-64 0 -69 41q0 4 -0.5 8.5t-1.5 9.5q0 35 12 47q14 15 26 18t39 3h242q100 0 100 -58q0 -40 -17 -52.5t-46 -12.5q-11 1 -21 1.5t-26 0.5v-649z
" />
    <glyph glyph-name="divide" unicode="&#xf7;" horiz-adv-x="1092" 
d="M727 764q-7 0 -29 -2t-32 -2q-62 0 -72 49v12q0 39 24 51q37 15 78 15h199q47 0 73.5 -12t26.5 -52v-2q0 -53 -75 -53q-9 1 -16 1.5t-19 0.5v-653h33q36 0 55.5 -11t19.5 -49q0 -36 -22.5 -46.5t-63.5 -10.5h-282q-30 0 -43 10q-7 3 -18 13.5t-11 35.5l2 4q0 58 121 58
h51v270q-24 -16 -84.5 -40.5t-138.5 -24.5q-109 0 -197 65q-35 25 -57.5 70.5t-22.5 97.5v203q-50 0 -80.5 11t-31.5 52v2q0 60 90 60h223q39 0 66 -13q5 -3 12.5 -14t7.5 -29v-6q-6 -57 -115 -57q-3 1 -6 1.5t-8 0.5v-201q0 -78 57 -110q52 -27 97 -27q83 0 188 78v254z
" />
    <glyph glyph-name="divide" unicode="&#x447;" horiz-adv-x="1092" 
d="M727 764q-7 0 -29 -2t-32 -2q-62 0 -72 49v12q0 39 24 51q37 15 78 15h199q47 0 73.5 -12t26.5 -52v-2q0 -53 -75 -53q-9 1 -16 1.5t-19 0.5v-653h33q36 0 55.5 -11t19.5 -49q0 -36 -22.5 -46.5t-63.5 -10.5h-282q-30 0 -43 10q-7 3 -18 13.5t-11 35.5l2 4q0 58 121 58
h51v270q-24 -16 -84.5 -40.5t-138.5 -24.5q-109 0 -197 65q-35 25 -57.5 70.5t-22.5 97.5v203q-50 0 -80.5 11t-31.5 52v2q0 60 90 60h223q39 0 66 -13q5 -3 12.5 -14t7.5 -29v-6q-6 -57 -115 -57q-3 1 -6 1.5t-8 0.5v-201q0 -78 57 -110q52 -27 97 -27q83 0 188 78v254z
" />
    <glyph glyph-name="oslash" unicode="&#xf8;" horiz-adv-x="1274" 
d="M1096 0h-981q-13 0 -33.5 4t-28.5 6q-28 9 -28 43l2 6q2 60 73 60h39v647q-11 0 -19 -0.5t-18 -1.5q-65 0 -75 49q0 3 -0.5 4.5t-1.5 3.5q0 38 26 51q5 4 21 9.5t39 5.5h204q68 0 68 -60v-6q-1 -31 -29.5 -41t-77.5 -10v-649h261v649q-12 0 -19 -0.5t-16 -1.5
q-27 0 -44.5 9.5t-23.5 39.5q0 2 -0.5 4t-1.5 4q0 11 7 27.5t18 21.5q7 3 20.5 8t30.5 5h194q17 0 31 -5t21 -8q12 -4 17 -18t5 -31v-8q-9 -53 -80 -53q-5 1 -10 1.5t-12 0.5v-645h260v649q-49 0 -77.5 10t-29.5 41q0 3 -0.5 4t-1.5 2q0 60 70 60h205q24 0 39 -5.5t20 -9.5
q25 -12 25 -51v-8q-10 -49 -78 -49q-8 1 -15.5 1.5t-17.5 0.5v-647h35q74 0 76 -60v-10q0 -30 -25 -37q-8 -3 -26 -7.5t-37 -4.5z" />
    <glyph glyph-name="oslash" unicode="&#x448;" horiz-adv-x="1274" 
d="M1096 0h-981q-13 0 -33.5 4t-28.5 6q-28 9 -28 43l2 6q2 60 73 60h39v647q-11 0 -19 -0.5t-18 -1.5q-65 0 -75 49q0 3 -0.5 4.5t-1.5 3.5q0 38 26 51q5 4 21 9.5t39 5.5h204q68 0 68 -60v-6q-1 -31 -29.5 -41t-77.5 -10v-649h261v649q-12 0 -19 -0.5t-16 -1.5
q-27 0 -44.5 9.5t-23.5 39.5q0 2 -0.5 4t-1.5 4q0 11 7 27.5t18 21.5q7 3 20.5 8t30.5 5h194q17 0 31 -5t21 -8q12 -4 17 -18t5 -31v-8q-9 -53 -80 -53q-5 1 -10 1.5t-12 0.5v-645h260v649q-49 0 -77.5 10t-29.5 41q0 3 -0.5 4t-1.5 2q0 60 70 60h205q24 0 39 -5.5t20 -9.5
q25 -12 25 -51v-8q-10 -49 -78 -49q-8 1 -15.5 1.5t-17.5 0.5v-647h35q74 0 76 -60v-10q0 -30 -25 -37q-8 -3 -26 -7.5t-37 -4.5z" />
    <glyph glyph-name="ugrave" unicode="&#xf9;" horiz-adv-x="1274" 
d="M1055 0h-940q-13 0 -33.5 4t-28.5 6q-28 9 -28 43l2 6q2 60 73 60h39v647q-11 0 -19 -0.5t-18 -1.5q-65 0 -75 49q0 3 -0.5 4.5t-1.5 3.5q0 38 26 51q5 4 21 9.5t39 5.5h204q68 0 68 -60v-6q-1 -31 -29.5 -41t-77.5 -10v-649h261v649q-12 0 -19 -0.5t-16 -1.5
q-27 0 -44.5 9.5t-23.5 39.5q0 2 -0.5 4t-1.5 4q0 11 7 27.5t18 21.5q7 3 20.5 8t30.5 5h194q17 0 31 -5t21 -8q12 -4 17 -18t5 -31v-8q-9 -53 -80 -53q-5 1 -10 1.5t-12 0.5v-645h260v649q-49 0 -77.5 10t-29.5 41q0 3 -0.5 4t-1.5 2q0 60 70 60h205q24 0 39 -5.5t20 -9.5
q25 -12 25 -51v-8q-10 -49 -78 -49q-8 1 -15.5 1.5t-17.5 0.5v-647h6q48 0 76.5 -11t28.5 -49v-213q0 -20 -20.5 -31.5t-47.5 -11.5q-33 0 -45 13q-22 19 -22 88q0 7 3 46t3 50z" />
    <glyph glyph-name="ugrave" unicode="&#x449;" horiz-adv-x="1274" 
d="M1055 0h-940q-13 0 -33.5 4t-28.5 6q-28 9 -28 43l2 6q2 60 73 60h39v647q-11 0 -19 -0.5t-18 -1.5q-65 0 -75 49q0 3 -0.5 4.5t-1.5 3.5q0 38 26 51q5 4 21 9.5t39 5.5h204q68 0 68 -60v-6q-1 -31 -29.5 -41t-77.5 -10v-649h261v649q-12 0 -19 -0.5t-16 -1.5
q-27 0 -44.5 9.5t-23.5 39.5q0 2 -0.5 4t-1.5 4q0 11 7 27.5t18 21.5q7 3 20.5 8t30.5 5h194q17 0 31 -5t21 -8q12 -4 17 -18t5 -31v-8q-9 -53 -80 -53q-5 1 -10 1.5t-12 0.5v-645h260v649q-49 0 -77.5 10t-29.5 41q0 3 -0.5 4t-1.5 2q0 60 70 60h205q24 0 39 -5.5t20 -9.5
q25 -12 25 -51v-8q-10 -49 -78 -49q-8 1 -15.5 1.5t-17.5 0.5v-647h6q48 0 76.5 -11t28.5 -49v-213q0 -20 -20.5 -31.5t-47.5 -11.5q-33 0 -45 13q-22 19 -22 88q0 7 3 46t3 50z" />
    <glyph glyph-name="uacute" unicode="&#xfa;" horiz-adv-x="1235" 
d="M432 111v659h-219q1 -19 1.5 -36.5t0.5 -57.5q0 -78 -22 -98q-18 -15 -54 -15q-27 0 -48 13t-21 32v183q0 33 20.5 64.5t71.5 31.5h479q28 0 44.5 -18.5t16.5 -45.5q0 -33 -22 -47q-20 -14 -59 -14q-11 1 -21 1.5t-25 0.5v-250h193q106 0 191 -30.5t131.5 -86.5
t46.5 -131v-16q-8 -121 -101 -185.5t-278 -64.5h-393q-18 0 -32 16t-14 35q0 22 17 39q13 21 67 21h29zM698 111q264 0 277 127v26q0 79 -63.5 110.5t-204.5 31.5h-132v-295h123z" />
    <glyph glyph-name="uacute" unicode="&#x44a;" horiz-adv-x="1235" 
d="M432 111v659h-219q1 -19 1.5 -36.5t0.5 -57.5q0 -78 -22 -98q-18 -15 -54 -15q-27 0 -48 13t-21 32v183q0 33 20.5 64.5t71.5 31.5h479q28 0 44.5 -18.5t16.5 -45.5q0 -33 -22 -47q-20 -14 -59 -14q-11 1 -21 1.5t-25 0.5v-250h193q106 0 191 -30.5t131.5 -86.5
t46.5 -131v-16q-8 -121 -101 -185.5t-278 -64.5h-393q-18 0 -32 16t-14 35q0 22 17 39q13 21 67 21h29zM698 111q264 0 277 127v26q0 79 -63.5 110.5t-204.5 31.5h-132v-295h123z" />
    <glyph glyph-name="ucircumflex" unicode="&#xfb;" horiz-adv-x="1274" 
d="M412 401h-133v-295h116q60 0 102 13.5t67.5 46t29.5 82.5v20q0 133 -182 133zM66 887h321q18 0 30.5 -14t12.5 -35q0 -20 -8 -33q-19 -33 -141 -33v-260h159q133 0 216 -61t83 -177v-22q-8 -114 -86.5 -183t-242.5 -69h-336q-19 0 -34 17t-15 36q0 17 13.5 35t67.5 18h29
v666q-98 0 -119 25q-10 10 -10 24q0 23 20.5 44.5t39.5 21.5zM885 764h-66q-29 0 -49 16t-20 41q0 28 27 47t61 19h256q29 0 50 -20t21 -48v-10q-3 -29 -17 -37t-46 -8h-72v-641h68q31 0 52 -16t21 -48q0 -59 -81 -59h-261q-37 0 -54.5 13t-20.5 46l-2 2q0 26 20.5 41
t48.5 15h64v647z" />
    <glyph glyph-name="ucircumflex" unicode="&#x44b;" horiz-adv-x="1274" 
d="M412 401h-133v-295h116q60 0 102 13.5t67.5 46t29.5 82.5v20q0 133 -182 133zM66 887h321q18 0 30.5 -14t12.5 -35q0 -20 -8 -33q-19 -33 -141 -33v-260h159q133 0 216 -61t83 -177v-22q-8 -114 -86.5 -183t-242.5 -69h-336q-19 0 -34 17t-15 36q0 17 13.5 35t67.5 18h29
v666q-98 0 -119 25q-10 10 -10 24q0 23 20.5 44.5t39.5 21.5zM885 764h-66q-29 0 -49 16t-20 41q0 28 27 47t61 19h256q29 0 50 -20t21 -48v-10q-3 -29 -17 -37t-46 -8h-72v-641h68q31 0 52 -16t21 -48q0 -59 -81 -59h-261q-37 0 -54.5 13t-20.5 46l-2 2q0 26 20.5 41
t48.5 15h64v647z" />
    <glyph glyph-name="udieresis" unicode="&#xfc;" horiz-adv-x="1073" 
d="M821 240v24q0 74 -62 106.5t-194 32.5h-131v-294h123q250 0 264 131zM182 803q-10 20 -10 26q0 21 15 38.5t34 17.5h297q36 0 57 -16t21 -38q0 -25 -18 -40q-19 -19 -144 -19v-260h191q124 0 201 -29.5t112 -89t35 -149.5q0 -61 -39.5 -117.5t-104.5 -91.5t-137 -35h-465
q-17 0 -33 17t-16 36q0 22 15 35q16 21 69 21h29v665q-27 0 -63.5 8t-45.5 21z" />
    <glyph glyph-name="udieresis" unicode="&#x44c;" horiz-adv-x="1073" 
d="M821 240v24q0 74 -62 106.5t-194 32.5h-131v-294h123q250 0 264 131zM182 803q-10 20 -10 26q0 21 15 38.5t34 17.5h297q36 0 57 -16t21 -38q0 -25 -18 -40q-19 -19 -144 -19v-260h191q124 0 201 -29.5t112 -89t35 -149.5q0 -61 -39.5 -117.5t-104.5 -91.5t-137 -35h-465
q-17 0 -33 17t-16 36q0 22 15 35q16 21 69 21h29v665q-27 0 -63.5 8t-45.5 21z" />
    <glyph glyph-name="yacute" unicode="&#xfd;" horiz-adv-x="1092" 
d="M735 692q-38 44 -101 71.5t-120 27.5q-53 0 -88 -24t-39 -71q-1 -15 -3.5 -45.5t-9.5 -52t-24 -35.5q-25 -18 -57 -18q-46 0 -66 33q-9 14 -13 44.5t-5 65t-2 62.5q0 3 -0.5 5.5t-1.5 4.5q0 71 90 121q68 32 158 32q65 0 155 -16q150 -32 257 -141.5t128 -259.5
q4 -46 4 -76q0 -79 -24 -152t-72.5 -135t-118.5 -102q-96 -54 -233 -54q-74 0 -170 21q-87 22 -182 62.5t-95 95.5q0 14 11 30q12 23 43 23q28 0 118.5 -34.5t136 -49t103.5 -14.5q6 1 11 1.5t14 0.5q59 3 110.5 30t87.5 70q58 73 78 180h-328q-28 0 -45.5 21.5t-17.5 46.5
q0 22 13.5 40.5t35.5 18.5h348q-11 49 -49 113q-4 9 -37 59z" />
    <glyph glyph-name="yacute" unicode="&#x44d;" horiz-adv-x="1092" 
d="M735 692q-38 44 -101 71.5t-120 27.5q-53 0 -88 -24t-39 -71q-1 -15 -3.5 -45.5t-9.5 -52t-24 -35.5q-25 -18 -57 -18q-46 0 -66 33q-9 14 -13 44.5t-5 65t-2 62.5q0 3 -0.5 5.5t-1.5 4.5q0 71 90 121q68 32 158 32q65 0 155 -16q150 -32 257 -141.5t128 -259.5
q4 -46 4 -76q0 -79 -24 -152t-72.5 -135t-118.5 -102q-96 -54 -233 -54q-74 0 -170 21q-87 22 -182 62.5t-95 95.5q0 14 11 30q12 23 43 23q28 0 118.5 -34.5t136 -49t103.5 -14.5q6 1 11 1.5t14 0.5q59 3 110.5 30t87.5 70q58 73 78 180h-328q-28 0 -45.5 21.5t-17.5 46.5
q0 22 13.5 40.5t35.5 18.5h348q-11 49 -49 113q-4 9 -37 59z" />
    <glyph glyph-name="thorn" unicode="&#xfe;" horiz-adv-x="1253" 
d="M299 117h61q26 0 46 -14.5t20 -41.5v-2q-3 -34 -20.5 -46.5t-53.5 -12.5h-248q-77 0 -77 59q0 32 19 48t50 16h64v641h-70q-28 0 -41 8t-16 37q0 3 -0.5 5.5t-1.5 4.5q0 27 20.5 47.5t48.5 20.5h244q35 0 60.5 -19t25.5 -47q0 -25 -20 -41t-45 -16h-66v-250h121
q3 42 12 78q16 63 41 117q51 100 138 153t184 53q71 0 136 -28.5t116 -85.5q56 -62 84 -151.5t28 -190.5q0 -158 -63 -287q-52 -94 -130 -141t-167 -47q-53 0 -103 12q-100 21 -168 99.5t-98 195.5q-12 66 -12 100h-119v-274zM956 678q-73 96 -170 96q-56 0 -104.5 -35.5
t-79.5 -95.5q-41 -84 -41 -199q0 -74 22.5 -142.5t61.5 -111.5q59 -61 133 -61q61 0 115.5 39.5t85.5 110.5q15 35 24 83t9 93q0 69 -14.5 130.5t-41.5 92.5z" />
    <glyph glyph-name="thorn" unicode="&#x44e;" horiz-adv-x="1253" 
d="M299 117h61q26 0 46 -14.5t20 -41.5v-2q-3 -34 -20.5 -46.5t-53.5 -12.5h-248q-77 0 -77 59q0 32 19 48t50 16h64v641h-70q-28 0 -41 8t-16 37q0 3 -0.5 5.5t-1.5 4.5q0 27 20.5 47.5t48.5 20.5h244q35 0 60.5 -19t25.5 -47q0 -25 -20 -41t-45 -16h-66v-250h121
q3 42 12 78q16 63 41 117q51 100 138 153t184 53q71 0 136 -28.5t116 -85.5q56 -62 84 -151.5t28 -190.5q0 -158 -63 -287q-52 -94 -130 -141t-167 -47q-53 0 -103 12q-100 21 -168 99.5t-98 195.5q-12 66 -12 100h-119v-274zM956 678q-73 96 -170 96q-56 0 -104.5 -35.5
t-79.5 -95.5q-41 -84 -41 -199q0 -74 22.5 -142.5t61.5 -111.5q59 -61 133 -61q61 0 115.5 39.5t85.5 110.5q15 35 24 83t9 93q0 69 -14.5 130.5t-41.5 92.5z" />
    <glyph glyph-name="ydieresis" unicode="&#xff;" horiz-adv-x="1053" 
d="M657 -2q-24 1 -45 1.5t-39 0.5q-55 0 -55 59q0 60 115 60q25 0 37.5 -0.5t25.5 -1.5v272q0 4 -5 7t-17 3q-25 0 -56 -17t-59 -52l-194 -238q-49 -57 -73 -75.5t-69 -18.5q-8 0 -13.5 -0.5t-17 -1.5t-25.5 -2.5t-26 -1.5q-21 0 -35 6q-28 15 -28 63q1 3 1.5 5.5t0.5 5.5
q1 40 48 52.5t87 12.5h6l164 193q33 38 33 61q0 19 -25 19q-60 1 -105 29.5t-70 78t-28 105.5q0 5 -0.5 8t-1.5 6q0 54 28.5 106t72.5 84q55 38 100 49t121 11h383q29 0 46 -19t17 -47q0 -17 -10 -39q-12 -16 -98 -16v-645h6q49 0 74.5 -12t25.5 -56q0 -33 -22.5 -44
t-59.5 -11h-215zM696 762h-153q-71 0 -112 -8t-65 -36t-24 -83q0 -61 41 -91t137 -30h176v248z" />
    <glyph glyph-name="ydieresis" unicode="&#x44f;" horiz-adv-x="1053" 
d="M657 -2q-24 1 -45 1.5t-39 0.5q-55 0 -55 59q0 60 115 60q25 0 37.5 -0.5t25.5 -1.5v272q0 4 -5 7t-17 3q-25 0 -56 -17t-59 -52l-194 -238q-49 -57 -73 -75.5t-69 -18.5q-8 0 -13.5 -0.5t-17 -1.5t-25.5 -2.5t-26 -1.5q-21 0 -35 6q-28 15 -28 63q1 3 1.5 5.5t0.5 5.5
q1 40 48 52.5t87 12.5h6l164 193q33 38 33 61q0 19 -25 19q-60 1 -105 29.5t-70 78t-28 105.5q0 5 -0.5 8t-1.5 6q0 54 28.5 106t72.5 84q55 38 100 49t121 11h383q29 0 46 -19t17 -47q0 -17 -10 -39q-12 -16 -98 -16v-645h6q49 0 74.5 -12t25.5 -56q0 -33 -22.5 -44
t-59.5 -11h-215zM696 762h-153q-71 0 -112 -8t-65 -36t-24 -83q0 -61 41 -91t137 -30h176v248z" />
    <glyph glyph-name="nonbreakingspace" unicode="&#xa0;" horiz-adv-x="563" 
 />
  </font>
</defs>
</svg>
