<svg xmlns="http://www.w3.org/2000/svg">
    <symbol id="whatsapp" height="20" width="20" viewBox="0 0 308 308" xmlns="http://www.w3.org/2000/svg">
        <path d="M227.904,176.981c-0.6-0.288-23.054-11.345-27.044-12.781c-1.629-0.585-3.374-1.156-5.23-1.156 c-3.032,0-5.579,1.511-7.563,4.479c-2.243,3.334-9.033,11.271-11.131,13.642c-0.274,0.313-0.648,0.687-0.872,0.687 c-0.201,0-3.676-1.431-4.728-1.888c-24.087-10.463-42.37-35.624-44.877-39.867c-0.358-0.61-0.373-0.887-0.376-0.887 c0.088-0.323,0.898-1.135,1.316-1.554c1.223-1.21,2.548-2.805,3.83-4.348c0.607-0.731,1.215-1.463,1.812-2.153 c1.86-2.164,2.688-3.844,3.648-5.79l0.503-1.011c2.344-4.657,0.342-8.587-0.305-9.856c-0.531-1.062-10.012-23.944-11.02-26.348 c-2.424-5.801-5.627-8.502-10.078-8.502c-0.413,0,0,0-1.732,0.073c-2.109,0.089-13.594,1.601-18.672,4.802 c-5.385,3.395-14.495,14.217-14.495,33.249c0,17.129,10.87,33.302,15.537,39.453c0.116,0.155,0.329,0.47,0.638,0.922 c17.873,26.102,40.154,45.446,62.741,54.469c21.745,8.686,32.042,9.69,37.896,9.69c0.001,0,0.001,0,0.001,0 c2.46,0,4.429-0.193,6.166-0.364l1.102-0.105c7.512-0.666,24.02-9.22,27.775-19.655c2.958-8.219,3.738-17.199,1.77-20.458 C233.168,179.508,230.845,178.393,227.904,176.981z"/>
        <path d="M156.734,0C73.318,0,5.454,67.354,5.454,150.143c0,26.777,7.166,52.988,20.741,75.928L0.212,302.716 c-0.484,1.429-0.124,3.009,0.933,4.085C1.908,307.58,2.943,308,4,308c0.405,0,0.813-0.061,1.211-0.188l79.92-25.396 c21.87,11.685,46.588,17.853,71.604,17.853C240.143,300.27,308,232.923,308,150.143C308,67.354,240.143,0,156.734,0z M156.734,268.994c-23.539,0-46.338-6.797-65.936-19.657c-0.659-0.433-1.424-0.655-2.194-0.655c-0.407,0-0.815,0.062-1.212,0.188 l-40.035,12.726l12.924-38.129c0.418-1.234,0.209-2.595-0.561-3.647c-14.924-20.392-22.813-44.485-22.813-69.677 c0-65.543,53.754-118.867,119.826-118.867c66.064,0,119.812,53.324,119.812,118.867 C276.546,215.678,222.799,268.994,156.734,268.994z"/>
    </symbol>
    
    <symbol id="telegram" enable-background="new 0 0 24 24" height="20" viewBox="0 0 24 24" width="20" xmlns="http://www.w3.org/2000/svg">
        <path d="m9.417 15.181-.397 5.584c.568 0 .814-.244 1.109-.537l2.663-2.545 5.518 4.041c1.012.564 1.725.267 1.998-.931l3.622-16.972.001-.001c.321-1.496-.541-2.081-1.527-1.714l-21.29 8.151c-1.453.564-1.431 1.374-.247 1.741l5.443 1.693 12.643-7.911c.595-.394 1.136-.176.691.218z"/>
    </symbol>
    
    <symbol id="viber" height="20" viewBox="-21 0 511 512" width="20" xmlns="http://www.w3.org/2000/svg">
        <path d="m251.90625 289.269531c-5.855469 5.859375-15.351562 5.859375-21.210938 0l-68.164062-68.164062c-2.8125-2.8125-4.394531-6.628907-4.394531-10.605469 0-3.980469 1.582031-7.792969 4.394531-10.609375l12.117188-12.113281-35.589844-35.589844-29.15625 29.15625c-9.8125 9.8125-9.808594 25.777344 0 35.589844l124.964844 124.972656c4.722656 4.722656 11.042968 7.320312 17.796874 7.320312 6.753907 0 13.074219-2.601562 17.796876-7.324218l29.15625-29.152344-35.589844-35.59375zm0 0"/>
        <path d="m468.984375 180.710938c0-48.089844-18.84375-93.417969-53.070313-127.640626-34.222656-34.222656-79.550781-53.070312-127.636718-53.070312h-107.074219s0 0-.003906 0c-48.082031 0-93.410157 18.847656-127.628907 53.066406-34.222656 34.222656-53.070312 79.554688-53.070312 127.640625v84.164063c0 37.238281 11.359375 73.0625 32.851562 103.597656 18.960938 26.9375 44.460938 47.976562 74.191407 61.320312v48.34375c0 24.996094 13.996093 33.863282 25.980469 33.867188 8.5625 0 17.128906-4.226562 25.464843-12.558594l53.855469-53.863281h75.4375c48.085938 0 93.414062-18.847656 127.636719-53.070313 34.222656-34.222656 53.070312-79.550781 53.070312-127.636718zm-137.546875 142.644531-39.765625 39.761719c-10.390625 10.390624-24.242187 16.105468-39.007813 16.105468-14.765624 0-28.617187-5.71875-39.007812-16.105468l-124.96875-124.972657c-21.503906-21.511719-21.503906-56.507812 0-78.015625l39.765625-39.761718c2.8125-2.816407 6.625-4.394532 10.605469-4.394532 3.976562 0 7.792968 1.578125 10.605468 4.394532l56.804688 56.804687c2.8125 2.8125 4.390625 6.628906 4.390625 10.605469 0 3.976562-1.578125 7.792968-4.394531 10.605468l-12.113282 12.113282 46.953126 46.953125 12.117187-12.117188c5.859375-5.855469 15.355469-5.855469 21.210937.003907l56.804688 56.804687c2.816406 2.8125 4.394531 6.628906 4.394531 10.605469 0 3.980468-1.578125 7.796875-4.394531 10.609375zm-108.054688-177.734375c0-8.28125 6.714844-15 15-15 51.972657 0 94.257813 42.28125 94.257813 94.25 0 8.285156-6.714844 15-15 15-8.28125 0-15-6.714844-15-15 0-35.425782-28.824219-64.25-64.257813-64.25-8.285156 0-15-6.714844-15-15zm158.519532 94.257812c-8.285156 0-15-6.71875-15-15 .003906-34.332031-13.367188-66.605468-37.640625-90.882812-24.277344-24.273438-56.550781-37.644532-90.882813-37.644532-8.28125 0-15-6.714843-15-15 0-8.28125 6.71875-15 15-15 42.34375 0 82.152344 16.492188 112.09375 46.433594 29.945313 29.941406 46.433594 69.75 46.429688 112.09375 0 8.28125-6.714844 15-15 15zm0 0"/>
    </symbol>

    <symbol id="vk" height="512" viewBox="0 0 24 24" width="512" xmlns="http://www.w3.org/2000/svg">
        <path d="m19.915 13.028c-.388-.49-.277-.708 0-1.146.005-.005 3.208-4.431 3.538-5.932l.002-.001c.164-.547 0-.949-.793-.949h-2.624c-.668 0-.976.345-1.141.731 0 0-1.336 3.198-3.226 5.271-.61.599-.892.791-1.225.791-.164 0-.419-.192-.419-.739v-5.105c0-.656-.187-.949-.74-.949h-4.126c-.419 0-.668.306-.668.591 0 .622.945.765 1.043 2.515v3.797c0 .832-.151.985-.486.985-.892 0-3.057-3.211-4.34-6.886-.259-.713-.512-1.001-1.185-1.001h-2.625c-.749 0-.9.345-.9.731 0 .682.892 4.073 4.148 8.553 2.17 3.058 5.226 4.715 8.006 4.715 1.671 0 1.875-.368 1.875-1.001 0-2.922-.151-3.198.686-3.198.388 0 1.056.192 2.616 1.667 1.783 1.749 2.076 2.532 3.074 2.532h2.624c.748 0 1.127-.368.909-1.094-.499-1.527-3.871-4.668-4.023-4.878z"/>
    </symbol>

    <symbol id="fb" height="512" viewBox="0 0 24 24" width="512" xmlns="http://www.w3.org/2000/svg">
        <path d="m15.997 3.985h2.191v-3.816c-.378-.052-1.678-.169-3.192-.169-3.159 0-5.323 1.987-5.323 5.639v3.361h-3.486v4.266h3.486v10.734h4.274v-10.733h3.345l.531-4.266h-3.877v-2.939c.001-1.233.333-2.077 2.051-2.077z"/>
    </symbol>

    <symbol id="twitter" viewBox="0 0 512 512" xmlns="http://www.w3.org/2000/svg">
        <path d="M512,97.248c-19.04,8.352-39.328,13.888-60.48,16.576c21.76-12.992,38.368-33.408,46.176-58.016
			c-20.288,12.096-42.688,20.64-66.56,25.408C411.872,60.704,384.416,48,354.464,48c-58.112,0-104.896,47.168-104.896,104.992
			c0,8.32,0.704,16.32,2.432,23.936c-87.264-4.256-164.48-46.08-216.352-109.792c-9.056,15.712-14.368,33.696-14.368,53.056
			c0,36.352,18.72,68.576,46.624,87.232c-16.864-0.32-33.408-5.216-47.424-12.928c0,0.32,0,0.736,0,1.152
			c0,51.008,36.384,93.376,84.096,103.136c-8.544,2.336-17.856,3.456-27.52,3.456c-6.72,0-13.504-0.384-19.872-1.792
			c13.6,41.568,52.192,72.128,98.08,73.12c-35.712,27.936-81.056,44.768-130.144,44.768c-8.608,0-16.864-0.384-25.12-1.44
			C46.496,446.88,101.6,464,161.024,464c193.152,0,298.752-160,298.752-298.688c0-4.64-0.16-9.12-0.384-13.568
			C480.224,136.96,497.728,118.496,512,97.248z"/>
    </symbol>

    <symbol id="loupe" width="20" height="20" viewBox="0 0 513.28 513.28" xmlns="http://www.w3.org/2000/svg">
        <path d="M495.04,404.48L410.56,320c15.36-30.72,25.6-66.56,25.6-102.4C436.16,97.28,338.88,0,218.56,0S0.96,97.28,0.96,217.6
			s97.28,217.6,217.6,217.6c35.84,0,71.68-10.24,102.4-25.6l84.48,84.48c25.6,25.6,64,25.6,89.6,0
			C518.08,468.48,518.08,430.08,495.04,404.48z M218.56,384c-92.16,0-166.4-74.24-166.4-166.4S126.4,51.2,218.56,51.2
			s166.4,74.24,166.4,166.4S310.72,384,218.56,384z"/>
    </symbol>

    <symbol id="home" width="20" height="20" viewBox="0 0 512 512" xmlns="http://www.w3.org/2000/svg">
        <path d="m498.195312 222.695312c-.011718-.011718-.023437-.023437-.035156-.035156l-208.855468-208.847656c-8.902344-8.90625-20.738282-13.8125-33.328126-13.8125-12.589843 0-24.425781 4.902344-33.332031 13.808594l-208.746093 208.742187c-.070313.070313-.140626.144531-.210938.214844-18.28125 18.386719-18.25 48.21875.089844 66.558594 8.378906 8.382812 19.445312 13.238281 31.277344 13.746093.480468.046876.964843.070313 1.453124.070313h8.324219v153.699219c0 30.414062 24.746094 55.160156 55.167969 55.160156h81.710938c8.28125 0 15-6.714844 15-15v-120.5c0-13.878906 11.289062-25.167969 25.167968-25.167969h48.195313c13.878906 0 25.167969 11.289063 25.167969 25.167969v120.5c0 8.285156 6.714843 15 15 15h81.710937c30.421875 0 55.167969-24.746094 55.167969-55.160156v-153.699219h7.71875c12.585937 0 24.421875-4.902344 33.332031-13.808594 18.359375-18.371093 18.367187-48.253906.023437-66.636719zm0 0"/>
    </symbol>

    <symbol id="bars" width="20" height="20" viewBox="0 0 121.805 121.805" xmlns="http://www.w3.org/2000/svg">
        <path d="M121.805,109.623V21.926c0-2.692-2.181-4.873-4.871-4.873H92.572c-2.691,0-4.871,2.181-4.871,4.873v87.697
			c0,2.693,2.18,4.873,4.871,4.873h24.361C119.624,114.496,121.805,112.316,121.805,109.623z"/>
		<path d="M46.287,114.496h26.797c2.691,0,4.872-2.18,4.872-4.873V12.181c0-2.692-2.181-4.872-4.872-4.872H46.287
			c-2.692,0-4.873,2.18-4.873,4.872v97.442C41.414,112.316,43.594,114.496,46.287,114.496z"/>
		<path d="M4.872,46.286C2.18,46.286,0,48.466,0,51.158v58.465c0,2.693,2.18,4.873,4.872,4.873h24.361
			c2.692,0,4.872-2.18,4.872-4.873V51.158c0-2.692-2.18-4.872-4.872-4.872H4.872z"/>
    </symbol>

    <symbol id="file" height="512" viewBox="0 0 512 512" width="512" xmlns="http://www.w3.org/2000/svg">
        <path d="m365.743 432.03h44.369c5.94 0 10.755-4.815 10.755-10.755v-410.52c0-5.94-4.815-10.755-10.755-10.755h-218.268v78.478c0 9.724-7.883 17.606-17.606 17.606h-83.105v325.192c0 5.94 4.815 10.755 10.755 10.755h43.29l-1.008-1.325c-3.386-4.452-4.718-10.237-3.225-15.627 2.161-7.801 9.181-12.965 16.988-12.965h35.875v-150.861c0-9.724 7.883-17.606 17.606-17.606h91.364c9.724 0 17.606 7.883 17.606 17.606v149.432h33.265c5.588 0 10.996 2.436 14.384 6.881 4.905 6.435 4.776 15.145.061 21.364z"/>
        <path d="m229.021 277.285v142.434c0 9.724-7.883 17.606-17.606 17.606h-17.973l53.563 70.431c4.308 5.664 12.83 5.658 17.13-.012l54.484-71.846h-15.84c-9.724 0-17.606-7.883-17.606-17.606v-141.007c0-4.653-3.772-8.426-8.426-8.426h-39.3c-4.653 0-8.426 3.772-8.426 8.426z"/>
        <path d="m117.486 60.871h39.146v-37.346z"/>
    </symbol>

    <symbol id="file-2" height="512" viewBox="0 0 512 512" width="512" xmlns="http://www.w3.org/2000/svg">
        <path d="M356.324,0v76.108c0,19.075,15.519,34.594,34.594,34.594h76.108L356.324,0z"/>
        <path d="M390.918,145.298c-38.054,0-69.189-31.135-69.189-69.189V0H44.973v442.811c0,38.054,31.135,69.189,69.189,69.189h283.675
                c38.054,0,69.189-31.135,69.189-69.189V145.298H390.918z M266.378,370.162h-124.54v-34.594h124.54V370.162z M370.161,287.135
                H141.837v-34.594h228.324V287.135z"/>
    </symbol>

    <symbol id="phone" viewBox="0 0 513.64 513.64" xmlns="http://www.w3.org/2000/svg">
        <path d="M499.66,376.96l-71.68-71.68c-25.6-25.6-69.12-15.359-79.36,17.92c-7.68,23.041-33.28,35.841-56.32,30.72
                c-51.2-12.8-120.32-79.36-133.12-133.12c-7.68-23.041,7.68-48.641,30.72-56.32c33.28-10.24,43.52-53.76,17.92-79.36l-71.68-71.68
                c-20.48-17.92-51.2-17.92-69.12,0l-48.64,48.64c-48.64,51.2,5.12,186.88,125.44,307.2c120.32,120.32,256,176.641,307.2,125.44
                l48.64-48.64C517.581,425.6,517.581,394.88,499.66,376.96z"/>
    </symbol>

    <symbol id="cart" viewBox="0 0 426.667 426.667" xmlns="http://www.w3.org/2000/svg">
        <path d="M128,341.333c-23.573,0-42.453,19.093-42.453,42.667s18.88,42.667,42.453,42.667c23.573,0,42.667-19.093,42.667-42.667
				S151.573,341.333,128,341.333z"/>
			<path d="M151.467,234.667H310.4c16,0,29.973-8.853,37.333-21.973L424,74.24c1.707-2.987,2.667-6.507,2.667-10.24
				c0-11.84-9.6-21.333-21.333-21.333H89.92L69.653,0H0v42.667h42.667L119.36,204.48l-28.8,52.267
				c-3.307,6.187-5.227,13.12-5.227,20.587C85.333,300.907,104.427,320,128,320h256v-42.667H137.067
				c-2.987,0-5.333-2.347-5.333-5.333c0-0.96,0.213-1.813,0.64-2.56L151.467,234.667z"/>
			<path d="M341.333,341.333c-23.573,0-42.453,19.093-42.453,42.667s18.88,42.667,42.453,42.667
				C364.907,426.667,384,407.573,384,384S364.907,341.333,341.333,341.333z"/>
    </symbol>

    <symbol id="fire" viewBox="0 0 512 512" xmlns="http://www.w3.org/2000/svg">
        <path d="M369.214,159.814c-91.389-55.601-48.533-134.078-46.693-137.34c2.668-4.642,2.659-10.353-0.023-14.987
			C319.817,2.853,314.869,0,309.515,0c-47.043,0-83.881,13.366-109.49,39.729c-43.759,45.044-41.729,115.151-40.862,145.088
			c0.097,3.317,0.179,6.182,0.179,8.311c0,22.228,3.566,42.748,6.713,60.854c2.028,11.668,3.779,21.744,4.091,29.664
			c0.333,8.482-1.216,10.424-1.281,10.503c-0.221,0.263-2.062,1.241-7.036,1.241c-5.674,0-9.856-1.854-13.563-6.009
			c-14.476-16.233-15.477-60.554-12.709-84.667c0.495-4.252-0.85-8.512-3.697-11.708c-2.846-3.196-6.922-5.024-11.201-5.024
			c-38.945,0-68.047,63.688-68.047,120.632c0,26.769,5.385,52.991,16.004,77.94c10.266,24.119,24.904,45.885,43.512,64.696
			C150.877,490.425,201.97,512,255.993,512c54.242,0,105.321-21.27,143.831-59.889c38.41-38.521,59.564-89.482,59.564-143.499
			C459.388,239.691,405.461,181.866,369.214,159.814z"/>
    </symbol>

    <symbol id="phone" viewBox="0 0 513.64 513.64" xmlns="http://www.w3.org/2000/svg">
        <path d="M499.66,376.96l-71.68-71.68c-25.6-25.6-69.12-15.359-79.36,17.92c-7.68,23.041-33.28,35.841-56.32,30.72
			c-51.2-12.8-120.32-79.36-133.12-133.12c-7.68-23.041,7.68-48.641,30.72-56.32c33.28-10.24,43.52-53.76,17.92-79.36l-71.68-71.68
			c-20.48-17.92-51.2-17.92-69.12,0l-48.64,48.64c-48.64,51.2,5.12,186.88,125.44,307.2c120.32,120.32,256,176.641,307.2,125.44
			l48.64-48.64C517.581,425.6,517.581,394.88,499.66,376.96z"/>
    </symbol>

    <symbol id="user" viewBox="0 0 512 512" xmlns="http://www.w3.org/2000/svg">
        <path d="M255.999,0c-74.443,0-135,60.557-135,135s60.557,135,135,135s135-60.557,135-135S330.442,0,255.999,0z"/>
        <path d="M478.48,398.68C438.124,338.138,370.579,302,297.835,302h-83.672c-72.744,0-140.288,36.138-180.644,96.68l-2.52,3.779V512
			h450h0.001V402.459L478.48,398.68z"/>
    </symbol>

    <symbol id="check" height="512" viewBox="0 0 512 512" width="512" xmlns="http://www.w3.org/2000/svg">
        <path d="m450.585 68.552-252.065 252.065-137.105-137.104-61.415 61.415 198.52 198.52 313.48-313.48z"/>
    </symbol>

    <symbol id="bastion-logo" xmlns="http://www.w3.org/2000/svg" viewBox="0 0 522.594 236.343" xmlns:xlink="http://www.w3.org/1999/xlink">
        <path d="M387.265 68.275l14.07 0 -0.793 5.891c5.387,-4.865 11.008,-7.296 16.827,-7.296 4.972,0 9.043,1.567 12.214,4.701 3.189,3.153 4.774,7.098 4.774,11.872 0,2.252 -0.306,5.603 -0.901,10.053l-4.395 32.175 -14.07 0 4.287 -31.401c0.415,-3.224 0.631,-5.638 0.631,-7.242 0,-2.306 -0.667,-4.089 -1.982,-5.332 -1.333,-1.243 -3.207,-1.856 -5.657,-1.856 -2.36,0 -4.738,0.811 -7.098,2.45 -2.377,1.64 -4.197,3.892 -5.458,6.792 -1.279,2.901 -2.45,8.341 -3.513,16.304l-2.703 20.285 -14.069 0 7.836 -57.396zm-319.372 13.064c216.972,-103.448 486.96,-73.865 405.849,46.361 137.082,-143.916 -215.879,-175.632 -405.849,-46.361zm-53.414 47.863c-32.133,104.685 191.262,114.898 408.399,36.159 -191.402,110.623 -492.444,86.904 -408.399,-36.159zm499.419 8.26l2.892 0 5.804 15.081 -2.986 0 -1.176 -3.108 -6.183 0 -1.204 3.108 -2.986 0 5.839 -15.081zm1.449 4.008l-2.044 5.192 4.078 0 -2.034 -5.192zm-20.52 -4.008l10.86 0 0 15.081 -2.899 0 0 -12.393 -5.041 0 0 12.393 -2.92 0 0 -15.081zm-2.648 2.646l-2.013 1.912c-1.369,-1.443 -2.906,-2.164 -4.618,-2.164 -1.442,0 -2.66,0.494 -3.647,1.478 -0.991,0.983 -1.485,2.195 -1.485,3.637 0,1.005 0.221,1.897 0.658,2.675 0.438,0.78 1.058,1.393 1.856,1.838 0.802,0.444 1.691,0.665 2.671,0.665 0.833,0 1.596,-0.154 2.286,-0.466 0.693,-0.312 1.453,-0.879 2.279,-1.698l1.95 2.038c-1.113,1.088 -2.167,1.845 -3.158,2.265 -0.99,0.423 -2.125,0.633 -3.396,0.633 -2.345,0 -4.267,-0.742 -5.762,-2.23 -1.495,-1.484 -2.24,-3.392 -2.24,-5.713 0,-1.506 0.339,-2.839 1.022,-4.009 0.679,-1.169 1.652,-2.107 2.923,-2.818 1.267,-0.71 2.633,-1.067 4.1,-1.067 1.242,0 2.44,0.262 3.595,0.787 1.151,0.525 2.146,1.271 2.979,2.237zm-23.462 -2.646l0 15.081 -2.856 0 0 -9.441 -5.682 9.441 -2.468 0 0 -15.081 2.856 0 0 9.749 5.77 -9.749 2.38 0zm-23.608 0l2.857 0 0 15.081 -2.857 0 0 -15.081zm-11.511 15.081l0 -15.081 2.857 0 0 5.692 0.627 0c1.197,0 2.191,0.14 2.989,0.417 0.795,0.276 1.485,0.801 2.066,1.575 0.581,0.777 0.872,1.712 0.872,2.804 0,1.033 -0.249,1.908 -0.75,2.626 -0.497,0.717 -1.074,1.225 -1.732,1.523 -0.659,0.297 -1.562,0.444 -2.71,0.444l-4.219 0zm2.857 -6.826l0 4.096 0.718 0c1.194,0 1.988,-0.147 2.394,-0.442 0.403,-0.294 0.606,-0.798 0.606,-1.508 0,-1.432 -1.04,-2.146 -3.123,-2.146l-0.595 0zm-17.296 -8.255l2.92 0 0 5.692 5.041 0 0 -5.692 2.899 0 0 15.081 -2.899 0 0 -6.616 -5.041 0 0 6.616 -2.92 0 0 -15.081zm-3.576 0l0 15.081 -2.857 0 0 -9.441 -5.682 9.441 -2.467 0 0 -15.081 2.856 0 0 9.749 5.769 -9.749 2.381 0zm-9.62 -4.054l2.268 0c0.179,0.28 0.424,0.49 0.743,0.63 0.315,0.14 0.703,0.21 1.158,0.21 0.463,0 0.882,-0.081 1.257,-0.245 0.245,-0.109 0.459,-0.308 0.644,-0.595l2.269 0c-0.13,0.868 -0.546,1.565 -1.246,2.09 -0.701,0.525 -1.678,0.787 -2.934,0.787 -0.847,0 -1.555,-0.119 -2.125,-0.353 -0.571,-0.235 -1.029,-0.571 -1.38,-1.008 -0.346,-0.438 -0.567,-0.942 -0.654,-1.516zm-12.419 4.054l8.234 0 0 2.814 -5.378 0 0 2.71 5.378 0 0 2.773 -5.378 0 0 3.97 5.378 0 0 2.814 -8.234 0 0 -15.081zm-2.69 2.646l-2.014 1.912c-1.368,-1.443 -2.905,-2.164 -4.617,-2.164 -1.442,0 -2.661,0.494 -3.648,1.478 -0.991,0.983 -1.484,2.195 -1.484,3.637 0,1.005 0.22,1.897 0.658,2.675 0.437,0.78 1.057,1.393 1.855,1.838 0.802,0.444 1.691,0.665 2.671,0.665 0.834,0 1.597,-0.154 2.286,-0.466 0.694,-0.312 1.453,-0.879 2.279,-1.698l1.95 2.038c-1.113,1.088 -2.167,1.845 -3.157,2.265 -0.991,0.423 -2.125,0.633 -3.396,0.633 -2.346,0 -4.268,-0.742 -5.763,-2.23 -1.494,-1.484 -2.24,-3.392 -2.24,-5.713 0,-1.506 0.339,-2.839 1.022,-4.009 0.68,-1.169 1.653,-2.107 2.923,-2.818 1.268,-0.71 2.633,-1.067 4.1,-1.067 1.243,0 2.44,0.262 3.595,0.787 1.152,0.525 2.146,1.271 2.98,2.237zm-16.533 0l-2.013 1.912c-1.369,-1.443 -2.906,-2.164 -4.618,-2.164 -1.442,0 -2.66,0.494 -3.648,1.478 -0.99,0.983 -1.484,2.195 -1.484,3.637 0,1.005 0.221,1.897 0.658,2.675 0.438,0.78 1.057,1.393 1.856,1.838 0.801,0.444 1.691,0.665 2.671,0.665 0.833,0 1.596,-0.154 2.286,-0.466 0.693,-0.312 1.453,-0.879 2.279,-1.698l1.95 2.038c-1.113,1.088 -2.167,1.845 -3.158,2.265 -0.991,0.423 -2.125,0.633 -3.396,0.633 -2.345,0 -4.267,-0.742 -5.762,-2.23 -1.495,-1.484 -2.241,-3.392 -2.241,-5.713 0,-1.506 0.34,-2.839 1.023,-4.009 0.679,-1.169 1.652,-2.107 2.923,-2.818 1.267,-0.71 2.632,-1.067 4.099,-1.067 1.243,0 2.441,0.262 3.596,0.787 1.151,0.525 2.146,1.271 2.979,2.237zm-24.942 -2.646l2.892 0 5.804 15.081 -2.986 0 -1.176 -3.108 -6.183 0 -1.204 3.108 -2.986 0 5.839 -15.081zm1.45 4.008l-2.045 5.192 4.078 0 -2.033 -5.192zm-18.182 11.073l0 -15.081 7.898 0 0 2.772 -5.041 0 0 2.92 0.63 0c1.278,0 2.321,0.14 3.13,0.42 0.812,0.28 1.487,0.809 2.027,1.582 0.539,0.778 0.808,1.695 0.808,2.756 0,1.05 -0.203,1.89 -0.605,2.513 -0.406,0.627 -0.963,1.134 -1.67,1.53 -0.711,0.392 -1.691,0.588 -2.945,0.588l-4.232 0zm2.857 -6.826l0 4.096 0.724 0c1.32,0 2.157,-0.172 2.51,-0.515 0.351,-0.339 0.526,-0.802 0.526,-1.383 0,-1.467 -1.054,-2.198 -3.162,-2.198l-0.598 0zm-231.879 -5.112l-10.868 7.037c-3.156,-3.575 -6.183,-6.07 -9.113,-7.471 -2.915,-1.4 -6.231,-2.093 -9.951,-2.093 -8.018,0 -14.538,3.22 -19.578,9.661 -3.993,5.119 -5.99,10.803 -5.99,17.066 0,6.151 2.045,11.319 6.151,15.505 4.106,4.17 9.161,6.264 15.167,6.264 4.476,0 8.533,-1.095 12.205,-3.269 3.654,-2.173 6.649,-5.426 8.983,-9.773l-21.703 0 1.61 -12.269 35.164 0c-0.499,11.48 -4.106,20.609 -10.788,27.356 -6.681,6.746 -15.215,10.127 -25.568,10.127 -11.254,0 -20.126,-3.897 -26.566,-11.689 -5.201,-6.263 -7.793,-13.702 -7.793,-22.348 0,-10.53 3.8,-19.627 11.399,-27.307 7.6,-7.664 16.665,-11.496 27.162,-11.496 3.913,0 7.713,0.563 11.432,1.707 3.72,1.127 7.068,2.72 10.047,4.765 2.995,2.045 5.861,4.782 8.598,8.227zm16.21 -8.076l11.088 0 -0.891 6.872c3.325,-5.408 7.319,-8.113 11.98,-8.113 1.113,0 2.275,0.302 3.5,0.891l-4.518 11.359c-0.955,-0.334 -1.655,-0.509 -2.1,-0.509 -2.435,0 -4.614,1.4 -6.539,4.2 -1.925,2.8 -3.436,8.463 -4.534,16.99l-2.482 18.995 -12.424 0 6.92 -50.685zm57.62 -1.241c4.502,0 8.591,1.035 12.265,3.118 3.691,2.069 6.555,5.011 8.607,8.83 2.052,3.802 3.071,8.081 3.071,12.822 0,7.875 -2.816,14.573 -8.432,20.109 -5.632,5.52 -12.584,8.288 -20.872,8.288 -7.207,0 -12.95,-2.179 -17.245,-6.522 -4.28,-4.36 -6.428,-10.055 -6.428,-17.086 0,-8.496 2.912,-15.543 8.719,-21.143 5.806,-5.616 12.567,-8.416 20.315,-8.416zm-0.907 11.836c-5.107,0 -9.02,1.814 -11.741,5.457 -2.72,3.643 -4.072,7.588 -4.072,11.82 0,3.786 1.114,6.825 3.34,9.132 2.212,2.307 5.171,3.468 8.878,3.468 5.249,0 9.259,-1.766 12.011,-5.282 2.752,-3.516 4.12,-7.525 4.12,-12.043 0,-3.722 -1.161,-6.745 -3.5,-9.068 -2.323,-2.323 -5.345,-3.484 -9.036,-3.484zm39.815 -10.595l12.425 0 -3.532 25.883c-0.381,2.848 -0.556,4.996 -0.556,6.412 0,2.227 0.78,4.104 2.322,5.616 1.559,1.511 3.596,2.275 6.078,2.275 3.213,0 5.679,-0.971 7.413,-2.928 1.718,-1.941 2.991,-5.902 3.802,-11.884l3.468 -25.374 12.425 0 -3.722 27.251c-0.844,6.142 -2.259,10.882 -4.248,14.239 -1.989,3.373 -4.614,5.95 -7.907,7.747 -3.277,1.798 -7.143,2.689 -11.581,2.689 -6.268,0 -11.232,-1.797 -14.923,-5.377 -3.691,-3.58 -5.536,-8.209 -5.536,-13.888 0,-3.468 0.397,-7.939 1.225,-13.396l2.847 -19.265zm60.879 69.203l-12.425 0 9.45 -69.203 12.329 0 -0.747 5.6c2.656,-2.577 5.154,-4.359 7.477,-5.362 2.307,-0.986 4.916,-1.479 7.795,-1.479 6.666,0 11.948,2.466 15.845,7.382 3.898,4.931 5.839,10.643 5.839,17.15 0,4.995 -1.257,9.752 -3.754,14.269 -2.514,4.535 -5.871,8.05 -10.103,10.58 -4.216,2.529 -8.622,3.786 -13.204,3.786 -3.086,0 -5.95,-0.716 -8.591,-2.131 -2.625,-1.432 -4.772,-3.5 -6.442,-6.221l-3.469 25.629zm20.904 -59.372c-2.99,0 -5.6,0.685 -7.858,2.069 -2.26,1.368 -4.153,3.516 -5.664,6.427 -1.527,2.911 -2.291,5.886 -2.291,8.924 0,3.978 1.145,7.176 3.436,9.593 2.291,2.419 5.314,3.628 9.053,3.628 4.358,0 8.065,-1.623 11.104,-4.868 3.038,-3.246 4.566,-7.43 4.566,-12.568 0,-3.946 -1.146,-7.143 -3.453,-9.561 -2.307,-2.435 -5.266,-3.644 -8.893,-3.644zm-56.281 -66.015l-6.666 10.738c-1.729,-2.559 -3.53,-4.45 -5.422,-5.657 -1.892,-1.207 -3.657,-1.802 -5.297,-1.802 -1.261,0 -2.342,0.342 -3.206,1.045 -0.883,0.703 -1.315,1.495 -1.315,2.378 0,0.847 0.342,1.675 1.044,2.522 0.667,0.847 2.685,2.468 6.035,4.9 5.369,3.856 8.882,7.152 10.593,9.908 1.694,2.757 2.541,5.748 2.541,8.972 0,4.234 -1.748,8.251 -5.243,12.052 -3.513,3.784 -8.575,5.675 -15.222,5.675 -3.838,0 -7.333,-0.774 -10.485,-2.324 -3.153,-1.549 -6.648,-4.378 -10.521,-8.503l8.701 -10.124c3.945,5.17 8.251,7.764 12.917,7.764 1.874,0 3.351,-0.45 4.468,-1.333 1.099,-0.901 1.657,-1.964 1.657,-3.189 0,-0.973 -0.414,-1.981 -1.261,-3.008 -0.847,-1.045 -3.153,-2.883 -6.9,-5.549 -4.359,-3.08 -7.35,-5.729 -9.007,-7.927 -2.324,-3.098 -3.477,-6.341 -3.477,-9.782 0,-4.792 1.819,-8.701 5.458,-11.71 3.639,-3.009 7.927,-4.521 12.899,-4.521 3.477,0 6.774,0.828 9.909,2.467 3.134,1.658 5.728,3.982 7.8,7.008zm-210.79 -28.284l12.124 0c7.386,0 12.863,0.793 16.448,2.378 3.585,1.586 6.467,4.036 8.665,7.387 2.198,3.333 3.297,6.936 3.297,10.809 0,3.224 -0.775,6.287 -2.324,9.151 -1.567,2.865 -3.801,5.261 -6.738,7.207 6.9,4.81 10.359,11.223 10.359,19.204 0,4.143 -1.099,7.945 -3.315,11.385 -2.197,3.459 -4.918,6 -8.16,7.639 -3.243,1.639 -7.945,2.45 -14.071,2.45l-26.878 0 10.593 -77.61zm5.981 63.883l8.791 0.324c4.432,0 7.639,-0.865 9.656,-2.594 2.018,-1.73 3.027,-4.09 3.027,-7.099 0,-2.179 -0.63,-4.143 -1.873,-5.872 -1.244,-1.73 -2.901,-2.937 -4.973,-3.639 -2.071,-0.721 -6.035,-1.081 -11.908,-1.117l-2.72 19.997zm4.504 -33.076l2.63 0c3.927,0 6.594,-0.289 7.999,-0.865 1.405,-0.577 2.594,-1.658 3.567,-3.243 0.991,-1.567 1.477,-3.315 1.477,-5.242 0,-1.802 -0.432,-3.333 -1.297,-4.63 -0.883,-1.298 -2.018,-2.18 -3.423,-2.63 -1.405,-0.451 -4.27,-0.685 -8.593,-0.685l-2.36 17.295zm90.568 -10.593l14.178 0 -7.944 57.396 -14.07 0 0.846 -6.233c-3.062,2.846 -5.908,4.828 -8.575,5.945 -2.648,1.135 -5.621,1.693 -8.935,1.693 -7.603,0 -13.638,-2.792 -18.123,-8.359 -4.487,-5.585 -6.72,-12.07 -6.72,-19.474 0,-5.657 1.441,-11.026 4.305,-16.142 2.865,-5.098 6.72,-9.08 11.548,-11.944 4.846,-2.864 9.89,-4.287 15.169,-4.287 3.549,0 6.81,0.81 9.818,2.414 2.991,1.621 5.459,3.963 7.404,7.061l1.099 -8.07zm-21.186 46.263c3.477,0 6.504,-0.775 9.08,-2.306 2.577,-1.55 4.756,-3.964 6.504,-7.26 1.747,-3.297 2.63,-6.666 2.63,-10.089 0,-4.522 -1.315,-8.161 -3.963,-10.917 -2.631,-2.756 -6.108,-4.126 -10.431,-4.126 -5.009,0 -9.278,1.838 -12.773,5.513 -3.513,3.693 -5.261,8.431 -5.261,14.25 0,4.486 1.334,8.107 3.982,10.827 2.648,2.738 6.071,4.108 10.232,4.108zm82.489 -38.193l-6.666 10.738c-1.729,-2.559 -3.531,-4.45 -5.423,-5.657 -1.891,-1.207 -3.657,-1.802 -5.296,-1.802 -1.261,0 -2.342,0.342 -3.207,1.045 -0.883,0.703 -1.315,1.495 -1.315,2.378 0,0.847 0.342,1.675 1.045,2.522 0.667,0.847 2.684,2.468 6.035,4.9 5.369,3.856 8.882,7.152 10.593,9.908 1.694,2.757 2.54,5.748 2.54,8.972 0,4.234 -1.747,8.251 -5.242,12.052 -3.513,3.784 -8.576,5.675 -15.223,5.675 -3.837,0 -7.332,-0.774 -10.485,-2.324 -3.153,-1.549 -6.648,-4.378 -10.521,-8.503l8.702 -10.124c3.945,5.17 8.25,7.764 12.916,7.764 1.874,0 3.351,-0.45 4.468,-1.333 1.099,-0.901 1.658,-1.964 1.658,-3.189 0,-0.973 -0.415,-1.981 -1.262,-3.008 -0.846,-1.045 -3.152,-2.883 -6.899,-5.549 -4.36,-3.08 -7.35,-5.729 -9.008,-7.927 -2.324,-3.098 -3.477,-6.341 -3.477,-9.782 0,-4.792 1.82,-8.701 5.459,-11.71 3.639,-3.009 7.926,-4.521 12.899,-4.521 3.477,0 6.773,0.828 9.908,2.467 3.135,1.658 5.729,3.982 7.801,7.008zm67.782 -29.472l14.07 0 -2.918 21.402 8.917 0 -1.693 12.214 -8.9 0 -6.161 45.182 -14.07 0 6.162 -45.182 -6.918 0 1.639 -12.214 6.954 0 2.918 -21.402zm37.013 -2.054c2.396,0 4.431,0.847 6.143,2.558 1.711,1.711 2.558,3.747 2.558,6.143 0,2.396 -0.847,4.432 -2.558,6.143 -1.712,1.712 -3.747,2.559 -6.143,2.559 -2.397,0 -4.432,-0.847 -6.144,-2.559 -1.711,-1.711 -2.558,-3.747 -2.558,-6.143 0,-2.396 0.847,-4.432 2.558,-6.143 1.712,-1.711 3.747,-2.558 6.144,-2.558zm-9.621 23.456l14.07 0 -7.836 57.396 -14.07 0 7.836 -57.396zm55.07 -1.405c5.098,0 9.728,1.171 13.889,3.53 4.18,2.342 7.423,5.675 9.746,9.999 2.325,4.305 3.477,9.151 3.477,14.52 0,8.918 -3.188,16.502 -9.548,22.771 -6.377,6.252 -14.25,9.386 -23.636,9.386 -8.161,0 -14.664,-2.468 -19.528,-7.386 -4.846,-4.936 -7.278,-11.386 -7.278,-19.348 0,-9.621 3.297,-17.601 9.872,-23.943 6.576,-6.359 14.232,-9.529 23.006,-9.529zm-1.027 13.403c-5.783,0 -10.215,2.054 -13.296,6.179 -3.08,4.125 -4.612,8.593 -4.612,13.385 0,4.288 1.262,7.729 3.784,10.341 2.504,2.612 5.855,3.927 10.052,3.927 5.945,0 10.485,-1.999 13.602,-5.981 3.117,-3.981 4.666,-8.521 4.666,-13.637 0,-4.216 -1.315,-7.639 -3.964,-10.269 -2.63,-2.63 -6.053,-3.945 -10.232,-3.945z"/>
    </symbol>

    <symbol id="albixon-logo" fill-rule="nonzero" xmlns="http://www.w3.org/2000/svg"  viewBox="0 0 21000 29700" xmlns:xlink="http://www.w3.org/1999/xlink">
        <path d="M6953.02 15762.79l-488.01 0 -193.21 -557.51 -571.19 0 -225.87 -300.81 -140.47 421.21 0.01 0 -145.78 437.11 -479.15 0 868.72 -2448.94 478.63 0 896.32 2448.94zm3388.05 -3369.74c102.8,-8.21 213.54,-15.93 332.04,-23.14 1674.9,-102.1 3196.53,46.86 4313.74,376.52 1171.01,345.54 1915.77,900.87 1971,1592.47l1.14 19.6c24.38,400.18 -186.35,792.6 -583.17,1154.97l0 -503.89c162.81,-208.5 244.55,-420.65 231.77,-630.4 -0.26,-4.39 -0.12,0.06 -1.14,-12.72 -42.36,-530.39 -692.25,-979.49 -1718.82,-1282.41 -1080.36,-318.79 -2559.31,-462.37 -4193.84,-362.74 -99.25,6.04 -207.64,13.76 -325.16,23.14 -1538.65,122.88 -2931.44,438.78 -3991.71,862.43l-120.86 -330.22c1092.23,-434.88 2517.43,-758.42 4085.01,-883.61zm5422.97 3569.74c-196.32,119.08 -413.79,233.08 -650.26,340.95 -1130.77,515.83 -2708.31,905.02 -4464.53,1045.28 -102.69,8.2 -213.53,15.92 -332.03,23.14 -1674.89,102.09 -3196.53,-46.86 -4313.75,-376.53 -1171.01,-345.54 -1915.78,-900.87 -1971,-1592.46l-1.14 -19.6c-34.39,-564.4 398.85,-1113.35 1162.34,-1584.32l-199.2 561.55c-409.99,323.54 -632.22,665.9 -611.74,1002.09 0.26,4.38 0.11,-0.16 1.14,12.72 42.35,530.37 692.25,979.48 1718.82,1282.4 1080.37,318.8 2559.32,462.38 4193.85,362.75 99.26,-6.05 207.56,-13.75 325.15,-23.14 1716.6,-137.09 3251.75,-514.4 4346.01,-1013.58 185.39,-84.57 357.63,-172.18 515.46,-262.18l165.55 240.93 115.33 0zm-1245.62 -200l0 -1871.25 408.77 0 858.32 1254.03 0 -1254.03 390.31 0 0 1871.25 -421.87 0 -845.21 -1230.08 0 1230.08 -390.32 0zm-2126.15 -924.3c0,-190.78 29.99,-351.08 89.5,-480.88 44.06,-95.39 104.94,-181.2 181.72,-256.99 76.77,-75.79 160.82,-131.98 252.13,-169.01 121.75,-49.22 262.13,-74.05 421.13,-74.05 288.03,0 517.9,85.81 690.99,257 172.63,171.61 258.95,409.88 258.95,715.22 0,302.73 -85.87,539.68 -257.13,710.43 -171.27,171.18 -400.69,256.56 -687.35,256.56 -290.3,0 -521.54,-84.94 -692.8,-255.25 -171.28,-169.88 -257.14,-404.22 -257.14,-703.03zm406.14 -12.63c0,212.12 51.34,372.85 153.55,482.62 102.22,109.33 232.15,164.21 389.34,164.21 157.63,0 286.66,-54.44 387.96,-162.9 100.86,-108.9 151.29,-271.81 151.29,-489.16 0,-214.74 -49.06,-375.03 -147.65,-480.44 -98.13,-105.85 -228.51,-158.56 -391.6,-158.56 -162.64,0 -293.93,53.58 -393.43,160.3 -99.49,107.15 -149.46,268.32 -149.46,483.93zm-2178.84 936.93l682.47 -975.7 -618.97 -895.55 466.19 0 389.33 557.11 389.33 -557.11 467.1 0 -620.35 895.99 681.11 975.26 -479.53 0 -438.13 -633.77 -438.56 633.77 -479.99 0zm-513.46 0l0 -1871.25 346.22 0 0 1871.25 -346.22 0zm-1633.78 -1871.25l661.06 0c131.21,0 228.57,6.1 292.82,18.29 64.64,12.63 121.98,38.33 172.77,77.1 50.79,39.2 93.11,91.04 126.97,155.94 33.86,64.9 50.8,138.08 50.8,218.66 0,87.12 -20.78,167.7 -62.33,240.44 -41.57,73.18 -98.13,127.62 -169.31,164.21 100.43,33.54 177.38,90.17 231.64,170.31 53.87,80.15 80.8,174.24 80.8,282.7 0,85.37 -17.31,168.13 -52.33,248.71 -35.01,80.58 -82.73,145.05 -143.52,193.4 -60.41,47.91 -135.06,77.53 -223.95,88.86 -55.4,6.53 -189.7,10.89 -402.48,12.63l-562.94 0 0 -1871.25zm334.77 311l0 431.23 218.55 0c129.68,0 210.48,-2.18 242.03,-6.54 56.95,-7.4 101.97,-29.62 134.67,-66.64 32.72,-37.03 48.87,-85.37 48.87,-145.48 0,-57.94 -14.24,-104.54 -42.32,-140.7 -28.09,-36.15 -70.03,-57.93 -125.44,-65.33 -33.09,-4.36 -128.13,-6.54 -284.74,-6.54l-191.62 0zm0 742.23l0 501.79 309.36 0c120.06,0 196.63,-3.92 228.95,-11.33 49.63,-10.45 90.04,-35.28 121.2,-74.92 31.17,-40.07 46.94,-92.77 46.94,-159.42 0,-56.62 -11.92,-104.1 -36.16,-143.3 -23.86,-39.21 -58.87,-67.95 -104.28,-85.81 -45.4,-17.86 -144.3,-27.01 -296.28,-27.01l-269.73 0zm-1705.75 818.02l0 -1855.57 386.6 0 0 1539.34 713.89 0 0 316.23 -1100.49 0zm-976.42 -971.37l-310.93 -906.38 -302.07 906.38 613 0z"/>
    </symbol>
</svg> 