<svg>
    <symbol id="whatsapp" height="20" width="20" viewBox="0 0 308 308" xmlns="http://www.w3.org/2000/svg">
        <path d="M227.904,176.981c-0.6-0.288-23.054-11.345-27.044-12.781c-1.629-0.585-3.374-1.156-5.23-1.156 c-3.032,0-5.579,1.511-7.563,4.479c-2.243,3.334-9.033,11.271-11.131,13.642c-0.274,0.313-0.648,0.687-0.872,0.687 c-0.201,0-3.676-1.431-4.728-1.888c-24.087-10.463-42.37-35.624-44.877-39.867c-0.358-0.61-0.373-0.887-0.376-0.887 c0.088-0.323,0.898-1.135,1.316-1.554c1.223-1.21,2.548-2.805,3.83-4.348c0.607-0.731,1.215-1.463,1.812-2.153 c1.86-2.164,2.688-3.844,3.648-5.79l0.503-1.011c2.344-4.657,0.342-8.587-0.305-9.856c-0.531-1.062-10.012-23.944-11.02-26.348 c-2.424-5.801-5.627-8.502-10.078-8.502c-0.413,0,0,0-1.732,0.073c-2.109,0.089-13.594,1.601-18.672,4.802 c-5.385,3.395-14.495,14.217-14.495,33.249c0,17.129,10.87,33.302,15.537,39.453c0.116,0.155,0.329,0.47,0.638,0.922 c17.873,26.102,40.154,45.446,62.741,54.469c21.745,8.686,32.042,9.69,37.896,9.69c0.001,0,0.001,0,0.001,0 c2.46,0,4.429-0.193,6.166-0.364l1.102-0.105c7.512-0.666,24.02-9.22,27.775-19.655c2.958-8.219,3.738-17.199,1.77-20.458 C233.168,179.508,230.845,178.393,227.904,176.981z"/>
        <path d="M156.734,0C73.318,0,5.454,67.354,5.454,150.143c0,26.777,7.166,52.988,20.741,75.928L0.212,302.716 c-0.484,1.429-0.124,3.009,0.933,4.085C1.908,307.58,2.943,308,4,308c0.405,0,0.813-0.061,1.211-0.188l79.92-25.396 c21.87,11.685,46.588,17.853,71.604,17.853C240.143,300.27,308,232.923,308,150.143C308,67.354,240.143,0,156.734,0z M156.734,268.994c-23.539,0-46.338-6.797-65.936-19.657c-0.659-0.433-1.424-0.655-2.194-0.655c-0.407,0-0.815,0.062-1.212,0.188 l-40.035,12.726l12.924-38.129c0.418-1.234,0.209-2.595-0.561-3.647c-14.924-20.392-22.813-44.485-22.813-69.677 c0-65.543,53.754-118.867,119.826-118.867c66.064,0,119.812,53.324,119.812,118.867 C276.546,215.678,222.799,268.994,156.734,268.994z"/>
    </symbol>
    
    <symbol id="telegram" enable-background="new 0 0 24 24" height="20" viewBox="0 0 24 24" width="20" xmlns="http://www.w3.org/2000/svg">
        <path d="m9.417 15.181-.397 5.584c.568 0 .814-.244 1.109-.537l2.663-2.545 5.518 4.041c1.012.564 1.725.267 1.998-.931l3.622-16.972.001-.001c.321-1.496-.541-2.081-1.527-1.714l-21.29 8.151c-1.453.564-1.431 1.374-.247 1.741l5.443 1.693 12.643-7.911c.595-.394 1.136-.176.691.218z"/>
    </symbol>
    
    <symbol id="viber" height="20" viewBox="-21 0 511 512" width="20" xmlns="http://www.w3.org/2000/svg">
        <path d="m251.90625 289.269531c-5.855469 5.859375-15.351562 5.859375-21.210938 0l-68.164062-68.164062c-2.8125-2.8125-4.394531-6.628907-4.394531-10.605469 0-3.980469 1.582031-7.792969 4.394531-10.609375l12.117188-12.113281-35.589844-35.589844-29.15625 29.15625c-9.8125 9.8125-9.808594 25.777344 0 35.589844l124.964844 124.972656c4.722656 4.722656 11.042968 7.320312 17.796874 7.320312 6.753907 0 13.074219-2.601562 17.796876-7.324218l29.15625-29.152344-35.589844-35.59375zm0 0"/>
        <path d="m468.984375 180.710938c0-48.089844-18.84375-93.417969-53.070313-127.640626-34.222656-34.222656-79.550781-53.070312-127.636718-53.070312h-107.074219s0 0-.003906 0c-48.082031 0-93.410157 18.847656-127.628907 53.066406-34.222656 34.222656-53.070312 79.554688-53.070312 127.640625v84.164063c0 37.238281 11.359375 73.0625 32.851562 103.597656 18.960938 26.9375 44.460938 47.976562 74.191407 61.320312v48.34375c0 24.996094 13.996093 33.863282 25.980469 33.867188 8.5625 0 17.128906-4.226562 25.464843-12.558594l53.855469-53.863281h75.4375c48.085938 0 93.414062-18.847656 127.636719-53.070313 34.222656-34.222656 53.070312-79.550781 53.070312-127.636718zm-137.546875 142.644531-39.765625 39.761719c-10.390625 10.390624-24.242187 16.105468-39.007813 16.105468-14.765624 0-28.617187-5.71875-39.007812-16.105468l-124.96875-124.972657c-21.503906-21.511719-21.503906-56.507812 0-78.015625l39.765625-39.761718c2.8125-2.816407 6.625-4.394532 10.605469-4.394532 3.976562 0 7.792968 1.578125 10.605468 4.394532l56.804688 56.804687c2.8125 2.8125 4.390625 6.628906 4.390625 10.605469 0 3.976562-1.578125 7.792968-4.394531 10.605468l-12.113282 12.113282 46.953126 46.953125 12.117187-12.117188c5.859375-5.855469 15.355469-5.855469 21.210937.003907l56.804688 56.804687c2.816406 2.8125 4.394531 6.628906 4.394531 10.605469 0 3.980468-1.578125 7.796875-4.394531 10.609375zm-108.054688-177.734375c0-8.28125 6.714844-15 15-15 51.972657 0 94.257813 42.28125 94.257813 94.25 0 8.285156-6.714844 15-15 15-8.28125 0-15-6.714844-15-15 0-35.425782-28.824219-64.25-64.257813-64.25-8.285156 0-15-6.714844-15-15zm158.519532 94.257812c-8.285156 0-15-6.71875-15-15 .003906-34.332031-13.367188-66.605468-37.640625-90.882812-24.277344-24.273438-56.550781-37.644532-90.882813-37.644532-8.28125 0-15-6.714843-15-15 0-8.28125 6.71875-15 15-15 42.34375 0 82.152344 16.492188 112.09375 46.433594 29.945313 29.941406 46.433594 69.75 46.429688 112.09375 0 8.28125-6.714844 15-15 15zm0 0"/>
    </symbol>
</svg>