<svg>
    <symbol id="search-ico" width="16" height="16" viewBox="0 0 16 16" fill="none" xmlns="http://www.w3.org/2000/svg">
        <circle cx="6" cy="6" r="5" stroke-width="2"/>
        <line x1="9.70711" y1="10.2929" x2="14.4214" y2="15.0072" stroke-width="2"/>    
    </symbol>

    <symbol id="arrow" width="10" height="18" viewBox="0 0 10 18" fill="none" xmlns="http://www.w3.org/2000/svg">
        <path d="M1 17L9 9L1 1" stroke-width="2" stroke-linecap="round" stroke-linejoin="round"/>
    </symbol>

    <symbol version="1.1" id="more" xmlns="http://www.w3.org/2000/svg" xmlns:xlink="http://www.w3.org/1999/xlink" x="0px" y="0px" viewBox="0 0 384 384" style="enable-background:new 0 0 384 384;" xml:space="preserve">
        <circle cx="192" cy="42.667" r="42.667"/>
        <circle cx="192" cy="192" r="42.667"/>
        <circle cx="192" cy="341.333" r="42.667"/>
    </symbol>

    <symbol id="arrow-default" width="21" height="8" viewBox="0 0 21 8" xmlns="http://www.w3.org/2000/svg">
        <path d="M0.646446 3.64645C0.451185 3.84171 0.451185 4.15829 0.646446 4.35356L3.82843 7.53554C4.02369 7.7308 4.34027 7.7308 4.53553 7.53554C4.7308 7.34027 4.7308 7.02369 4.53553 6.82843L1.70711 4L4.53553 1.17157C4.7308 0.976312 4.7308 0.65973 4.53553 0.464468C4.34027 0.269205 4.02369 0.269205 3.82843 0.464468L0.646446 3.64645ZM21 3.5L1 3.5L1 4.5L21 4.5L21 3.5Z"/>
    </symbol>

    <symbol id="fb-ico" enable-background="new 0 0 24 24" height="24" viewBox="0 0 24 24" width="24" xmlns="http://www.w3.org/2000/svg">
        <path d="m15.997 3.985h2.191v-3.816c-.378-.052-1.678-.169-3.192-.169-3.159 0-5.323 1.987-5.323 5.639v3.361h-3.486v4.266h3.486v10.734h4.274v-10.733h3.345l.531-4.266h-3.877v-2.939c.001-1.233.333-2.077 2.051-2.077z" fill="#1565D8"/>
    </symbol>

    <symbol version="1.1" id="twitter-ico" xmlns="http://www.w3.org/2000/svg" xmlns:xlink="http://www.w3.org/1999/xlink" x="0px" y="0px" viewBox="0 0 512 512" style="enable-background:new 0 0 512 512;" xml:space="preserve">
        <path style="fill:#03A9F4;" d="M512,97.248c-19.04,8.352-39.328,13.888-60.48,16.576c21.76-12.992,38.368-33.408,46.176-58.016 c-20.288,12.096-42.688,20.64-66.56,25.408C411.872,60.704,384.416,48,354.464,48c-58.112,0-104.896,47.168-104.896,104.992 c0,8.32,0.704,16.32,2.432,23.936c-87.264-4.256-164.48-46.08-216.352-109.792c-9.056,15.712-14.368,33.696-14.368,53.056 c0,36.352,18.72,68.576,46.624,87.232c-16.864-0.32-33.408-5.216-47.424-12.928c0,0.32,0,0.736,0,1.152 c0,51.008,36.384,93.376,84.096,103.136c-8.544,2.336-17.856,3.456-27.52,3.456c-6.72,0-13.504-0.384-19.872-1.792 c13.6,41.568,52.192,72.128,98.08,73.12c-35.712,27.936-81.056,44.768-130.144,44.768c-8.608,0-16.864-0.384-25.12-1.44 C46.496,446.88,101.6,464,161.024,464c193.152,0,298.752-160,298.752-298.688c0-4.64-0.16-9.12-0.384-13.568 C480.224,136.96,497.728,118.496,512,97.248z"/>
    </symbol>
</svg>
