<?xml version="1.0" encoding="utf-8"?>
<!-- Generator: Adobe Illustrator 24.0.1, SVG Export Plug-In . SVG Version: 6.00 Build 0)  -->
<svg version="1.1" id="cart.svg" xmlns="http://www.w3.org/2000/svg" xmlns:xlink="http://www.w3.org/1999/xlink" x="0px" y="0px"
	 viewBox="0 0 52.9 54" style="enable-background:new 0 0 52.9 54;" xml:space="preserve">
<style type="text/css">
	.st0{fill-rule:evenodd;clip-rule:evenodd;fill:#CCCCCC;}
</style>
<path id="Фигура_582" class="st0" d="M51.4,21.1H48L33.8,3.7C33.9,3.4,34,3,34,2.6C34,1.2,32.9,0,31.4,0
	c-1.4,0-2.6,1.2-2.6,2.6c0,1.4,1.2,2.6,2.6,2.6c0.1,0,0.1,0,0.2,0l13,15.9h-6.9c-0.7,0-1.3,0.6-1.3,1.3c0,0.7,0.6,1.3,1.3,1.3l0,0
	h12.4l-1.4,5.6H37.7c-0.7,0-1.3,0.6-1.3,1.3c0,0.7,0.6,1.3,1.3,1.3H48l-5,19.5H10l-5-19.5h10.3c0.7,0,1.3-0.6,1.3-1.3
	c0-0.7-0.6-1.3-1.3-1.3H4.3l-1.4-5.6h12.4c0.7,0,1.3-0.6,1.3-1.3c0-0.7-0.6-1.3-1.3-1.3H8.8l13-15.9c0.1,0,0.1,0,0.2,0
	c1.5,0,2.7-1.2,2.7-2.6c0-1.5-1.2-2.7-2.6-2.7S19.5,1,19.4,2.5c0,0.4,0.1,0.8,0.3,1.2L5.5,21.1H1.4c-0.7,0-1.8,0.4-1.3,2.5
	c0,0,0,0,0,0l7.2,27.8c0.5,1.6,2.1,2.6,3.7,2.5h31.5c2.2,0,3.1-2.3,3.1-2.3l7.3-28.3C53.3,21.5,52.2,21.1,51.4,21.1z"/>
</svg>
