<?xml version="1.0" encoding="utf-8"?>
<!-- Generator: Adobe Illustrator 24.0.1, SVG Export Plug-In . SVG Version: 6.00 Build 0)  -->
<svg version="1.1" id="Слой_1" xmlns="http://www.w3.org/2000/svg" xmlns:xlink="http://www.w3.org/1999/xlink" x="0px" y="0px"
	 viewBox="0 0 13 13" style="enable-background:new 0 0 13 13;" xml:space="preserve">
<style type="text/css">
	.st0{fill-rule:evenodd;clip-rule:evenodd;}
</style>
<path id="clock.svg" class="st0" d="M6.5,13C2.9,13,0,10.1,0,6.5S2.9,0,6.5,0S13,2.9,13,6.5C13,10.1,10.1,13,6.5,13z M6.5,1.5
	c-2.7,0-5,2.2-5,5c0,2.7,2.2,5,5,5c2.7,0,5-2.2,5-5C11.5,3.8,9.2,1.5,6.5,1.5z M7.1,7.9c-0.4,0-0.8-0.3-0.8-0.8c0,0,0,0,0,0V2.9
	c0-0.4,0.3-0.8,0.8-0.8s0.8,0.3,0.8,0.8v4.2C7.9,7.5,7.5,7.9,7.1,7.9C7.1,7.9,7.1,7.9,7.1,7.9L7.1,7.9z M7,7.9H3.7
	C3.3,7.9,3,7.5,3,7.1s0.3-0.8,0.8-0.8c0,0,0,0,0,0H7C7.2,6,8.3,6.2,8.7,6.4s0.5,0.7,0.3,1S8.3,8,8,7.8C7.8,7.7,7.7,7.6,7,7.9L7,7.9z
	"/>
</svg>
