<?xml version="1.0" encoding="utf-8"?>
<!-- Generator: Adobe Illustrator 24.0.1, SVG Export Plug-In . SVG Version: 6.00 Build 0)  -->
<svg version="1.1" id="Capa_1" xmlns="http://www.w3.org/2000/svg" xmlns:xlink="http://www.w3.org/1999/xlink" x="0px" y="0px"
	 viewBox="0 0 512 512" style="enable-background:new 0 0 512 512;" xml:space="preserve">
<style type="text/css">
	.st0{fill:#FBB540;}
	.st1{fill:#DBDBDB;}
	.st2{fill:#62666A;}
	.st3{fill:#D9D9D9;}
	.st4{fill:#F0F0F0;}
	.st5{fill:#EA9D2D;}
	.st6{fill:#D68F29;}
	.st7{fill:#B9B9B9;}
	.st8{fill:#B47923;}
</style>
<path class="st0" d="M328.6,384.1l18.9-136.7h58l-8.6,68.3h85.4l-9.3,68.3H328.6z"/>
<path class="st1" d="M200.5,136.4h162.3l-34.2,247.7H89.4l27.1-196.5"/>
<g>
	<path class="st2" d="M166.3,469.5c-18.9,0-34.2-15.3-34.2-34.2c0-18.9,15.3-34.2,34.2-34.2s34.2,15.3,34.2,34.2
		C200.5,454.2,185.2,469.5,166.3,469.5z M166.3,418.3c-9.4,0-17.1,7.6-17.1,17.1s7.6,17.1,17.1,17.1s17.1-7.6,17.1-17.1
		S175.7,418.3,166.3,418.3z"/>
	<path class="st2" d="M396.9,469.5c-18.9,0-34.2-15.3-34.2-34.2c0-18.9,15.3-34.2,34.2-34.2c18.9,0,34.2,15.3,34.2,34.2
		C431.1,454.2,415.8,469.5,396.9,469.5z M396.9,418.3c-9.4,0-17.1,7.6-17.1,17.1s7.6,17.1,17.1,17.1s17.1-7.6,17.1-17.1
		S406.4,418.3,396.9,418.3z"/>
</g>
<path class="st3" d="M482.4,315.8h-85.4l8.5-68.3h26.3c28.8,0,52.2,23.4,52.2,52.2c0,2.2-0.1,4.3-0.4,6.5L482.4,315.8z"/>
<path class="st4" d="M431.8,247.4h-9.2l-8.5,68.3h68.3l1.2-9.6c3.6-28.6-16.7-54.7-45.4-58.3C436.1,247.6,433.9,247.4,431.8,247.4
	L431.8,247.4z"/>
<path class="st5" d="M405.5,247.4h-58l4.7-34.2h44.8L405.5,247.4z"/>
<g>
	<circle class="st0" cx="130" cy="119.3" r="68.3"/>
	<g>
		<path id="SVGCleanerId_0" class="st0" d="M38.2,221.8h51.3v17.1H38.2V221.8z"/>
	</g>
	<g>
		<path id="SVGCleanerId_1" class="st0" d="M4,324.3h51.3v17.1H4V324.3z"/>
	</g>
	<g>
		<path id="SVGCleanerId_2" class="st0" d="M21.1,273.1h51.3v17.1H21.1V273.1z"/>
	</g>
</g>
<g>
	<path class="st6" d="M153,143.5l-25.6-17.1c-2.4-1.6-3.8-4.3-3.8-7.1V76.6h17.1v38.1l21.8,14.5L153,143.5z"/>
	<path class="st6" d="M379.9,341.4h68.3v17.1h-68.3V341.4z"/>
</g>
<g>
	<path class="st7" d="M217.6,341.4h68.3v17.1h-68.3V341.4z"/>
	<path class="st7" d="M183.4,341.4h17.1v17.1h-17.1V341.4z"/>
	<path class="st7" d="M149.2,341.4h17.1v17.1h-17.1V341.4z"/>
	<path class="st7" d="M422.6,435.4h76.9v-51.3H63.8v51.3h76.9H422.6z"/>
</g>
<path class="st8" d="M352.2,213.3l-4.7,34.2h17.1l4.7-34.2H352.2z"/>
<path class="st6" d="M347.5,247.4l-18.9,136.7h17.1l18.9-136.7H347.5z"/>
<path d="M107.2,192.8L82,375.6H63.8c-4.7,0-8.5,3.8-8.5,8.5v42.7c0,4.7,3.8,8.5,8.5,8.5h68.3c0,18.9,15.3,34.2,34.2,34.2
	s34.2-15.3,34.2-34.2h162.3c0,18.9,15.3,34.2,34.2,34.2c18.9,0,34.2-15.3,34.2-34.2h68.3c4.7,0,8.5-3.8,8.5-8.5v-42.7
	c0-4.7-3.8-8.5-8.5-8.5h-16.6l7.9-58.7v-0.1l1.2-9.6c4.2-33.3-19.4-63.7-52.7-67.9c-2.5-0.3-5-0.5-7.6-0.5h-19.6l-6.9-27.7
	c-1-3.8-4.4-6.5-8.3-6.5h-35l9.3-67.2c0.6-4.7-2.6-9-7.3-9.6c-0.4-0.1-0.8-0.1-1.2-0.1H206.4c4.7-42.2-25.7-80.2-67.9-84.9
	s-80.2,25.7-84.9,67.9C49.5,147.5,72,181.9,107.2,192.8L107.2,192.8z M166.3,452.5c-9.4,0-17.1-7.6-17.1-17.1h34.2
	C183.4,444.8,175.7,452.5,166.3,452.5z M396.9,452.5c-9.4,0-17.1-7.6-17.1-17.1H414C414,444.8,406.4,452.5,396.9,452.5z
	 M490.9,418.3H72.3v-25.6h418.6V418.3z M338.4,375.6l7.1-51.3l9.4-68.3h40.9l-7.3,58.7c-0.6,4.7,2.7,9,7.4,9.5
	c0.4,0,0.7,0.1,1.1,0.1h75.6l-6.9,51.3H338.4z M464.5,270.8c8.3,9.4,12.2,21.9,10.6,34.3l-0.3,2.2h-68.2L413,256h18.7
	C444.3,256,456.2,261.4,464.5,270.8z M394.6,238.9h-37.3l2.4-17.1h30.7L394.6,238.9z M353,144.9l-24,173.9l-7.8,56.8H99.2L124,195.9
	c2,0.2,4,0.3,6,0.3c32.5-0.1,61.5-20.6,72.4-51.3H353z M130,59.5c33,0,59.8,26.8,59.8,59.8S163,179.1,130,179.1
	s-59.8-26.8-59.8-59.8C70.2,86.3,97,59.6,130,59.5z"/>
<path id="SVGCleanerId_0_1_" d="M38.2,221.8h51.3v17.1H38.2V221.8z"/>
<path id="SVGCleanerId_1_1_" d="M4,324.3h51.3v17.1H4V324.3z"/>
<path id="SVGCleanerId_2_1_" d="M21.1,273.1h51.3v17.1H21.1V273.1z"/>
<path d="M127.4,126.4l25.6,17.1l9.5-14.2l-21.8-14.5V76.6h-17.1v42.7C123.6,122.2,125,124.8,127.4,126.4z"/>
<path d="M379.9,341.4h68.3v17.1h-68.3V341.4z"/>
<path d="M217.6,341.4h68.3v17.1h-68.3V341.4z"/>
<path d="M183.4,341.4h17.1v17.1h-17.1V341.4z"/>
<path d="M149.2,341.4h17.1v17.1h-17.1V341.4z"/>
</svg>
