<?xml version="1.0" encoding="utf-8"?>
<!-- Generator: Adobe Illustrator 24.0.1, SVG Export Plug-In . SVG Version: 6.00 Build 0)  -->
<svg version="1.1" id="f.svg" xmlns="http://www.w3.org/2000/svg" xmlns:xlink="http://www.w3.org/1999/xlink" x="0px" y="0px"
	 viewBox="0 0 53.2 53" style="enable-background:new 0 0 53.2 53;" xml:space="preserve">
<style type="text/css">
	.st0{fill:#FFC530;}
	.st1{fill-rule:evenodd;clip-rule:evenodd;}
</style>
<circle id="Эллипс_17" class="st0" cx="26.6" cy="26.5" r="26.6"/>
<path id="Фигура_701" class="st1" d="M22.6,23.6h1.7v-1.7c-0.1-0.9,0.1-1.8,0.6-2.6c0.6-0.9,1.6-1.3,2.7-1.3
	c1,0,2.1,0.1,3.1,0.3l-0.4,2.6c-0.5-0.1-0.9-0.2-1.4-0.2c-0.6-0.1-1.1,0.2-1.2,0.8c0,0,0,0.1,0,0.1v2h2.8l-0.2,2.5h-2.6V35h-3.2
	v-8.8h-1.7L22.6,23.6L22.6,23.6z"/>
</svg>
