<?xml version="1.0" encoding="utf-8"?>
<!-- Generator: Adobe Illustrator 24.0.1, SVG Export Plug-In . SVG Version: 6.00 Build 0)  -->
<svg version="1.1" id="i.svg" xmlns="http://www.w3.org/2000/svg" xmlns:xlink="http://www.w3.org/1999/xlink" x="0px" y="0px"
	 viewBox="0 0 53.3 53" style="enable-background:new 0 0 53.3 53;" xml:space="preserve">
<style type="text/css">
	.st0{fill:#FFC530;}
	.st1{fill-rule:evenodd;clip-rule:evenodd;}
</style>
<circle id="Эллипс_17" class="st0" cx="26.6" cy="26.5" r="26.6"/>
<path id="Фигура_701" class="st1" d="M32.2,18H21.8c-1.8,0-3.3,1.5-3.3,3.3c0,0,0,0,0,0v10.4c0,1.8,1.5,3.3,3.3,3.3
	c0,0,0,0,0,0h10.4c1.8,0,3.3-1.5,3.3-3.3c0,0,0,0,0,0V21.3C35.5,19.5,34,18,32.2,18C32.2,18,32.2,18,32.2,18z M33.1,20h0.4v2.9
	l-2.9,0l0-2.9L33.1,20z M24.5,24.8c1-1.3,2.8-1.6,4.2-0.7c0.3,0.2,0.5,0.4,0.7,0.7c0.4,0.5,0.6,1.1,0.6,1.8c0,1.7-1.3,3-3,3
	c-1.6,0-3-1.3-3-3C24,25.9,24.2,25.3,24.5,24.8z M33.8,31.7c0,0.9-0.7,1.6-1.6,1.6H21.8c-0.9,0-1.6-0.7-1.6-1.6v-7h2.5
	c-1,2.4,0.2,5.1,2.6,6.1s5.1-0.2,6.1-2.6c0.2-0.6,0.3-1.2,0.3-1.8c0-0.6-0.1-1.2-0.3-1.8h2.5V31.7z"/>
</svg>
