<?xml version="1.0" encoding="utf-8"?>
<!-- Generator: Adobe Illustrator 24.0.1, SVG Export Plug-In . SVG Version: 6.00 Build 0)  -->
<svg version="1.1" id="Filled" xmlns="http://www.w3.org/2000/svg" xmlns:xlink="http://www.w3.org/1999/xlink" x="0px" y="0px"
	 viewBox="0 0 512 512" style="enable-background:new 0 0 512 512;" xml:space="preserve">
<style type="text/css">
	.st0{fill:#FDD14B;}
	.st1{fill:#AB6647;}
	.st2{fill:#E74444;}
	.st3{fill:#39A270;}
</style>
<path class="st0" d="M256,24L24,424c0,0,72,64,232,64s232-64,232-64L256,24z"/>
<path class="st1" d="M488,424c0,0-72,64-232,64S24,424,24,424l41.9-72.3c28,21.2,89.5,56.3,190.1,56.3s162.1-35.1,190.1-56.3
	L488,424z"/>
<g>
	<g>
		<circle class="st2" cx="304" cy="120" r="40"/>
		<circle class="st2" cx="312" cy="280" r="40"/>
		<circle class="st2" cx="168" cy="376" r="40"/>
		<circle class="st2" cx="168" cy="224" r="40"/>
	</g>
</g>
<path class="st3" d="M240,168v32c0,0-24,8-24,32s24,32,24,32v32c0,0-56-8-56-64S240,168,240,168z"/>
<path class="st3" d="M320,288h32c0,0,8,24,32,24s32-24,32-24h32c0,0-8,56-64,56S320,288,320,288z"/>
<path class="st3" d="M256,352c0,0-3.9,30.1,18.7,52.7S320,416,320,416s11.3-22.6-11.3-45.3S256,352,256,352z"/>
<circle cx="232" cy="136" r="8"/>
<circle cx="304" cy="208" r="8"/>
<circle cx="128" cy="312" r="8"/>
<circle cx="232" cy="328" r="8"/>
<path d="M440.1,325.5c1.3-1.7,2.5-3.5,3.6-5.1c6.1-9.5,10.2-20.1,12.2-31.2c0.6-4.4-2.4-8.4-6.8-9c-0.4-0.1-0.7-0.1-1.1-0.1h-32
	c-0.7,0-1.4,0.1-2.1,0.3l-74.3-128.1c17.8-19.6,16.3-50-3.4-67.8c-11.5-10.4-27.3-14.6-42.5-11.3L262.9,20
	c-2.2-3.8-7.1-5.1-10.9-2.9c-1.2,0.7-2.2,1.7-2.9,2.9L158,177.1c-25.9,5.5-42.5,31-36.9,56.9c0.3,1.6,0.7,3.1,1.2,4.6L17.1,420
	c-1.9,3.3-1.2,7.5,1.6,10c0.8,0.7,19.4,17.1,58.2,33.4C112.2,478.3,172,496,256,496s143.8-17.7,179.1-32.6
	c38.8-16.3,57.4-32.7,58.2-33.4c2.8-2.5,3.5-6.7,1.6-10L440.1,325.5z M437.8,296c-4.7,14.3-18.1,40-53.8,40s-49.1-25.8-53.8-40h16.6
	c4.4,8.5,15.4,24,37.2,24s32.8-15.5,37.2-24H437.8z M320,280c-4.4,0-8,3.6-8,8c0,0.4,0,0.8,0.1,1.1c1.3,7.6,3.7,15.1,7.1,22
	c-17.2,4-34.4-6.8-38.4-24s6.8-34.4,24-38.4s34.4,6.8,38.4,24c0.5,2.4,0.8,4.8,0.8,7.2L320,280L320,280z M336,120
	c0,17.7-14.3,32-32,32s-32-14.3-32-32s14.3-32,32-32S336,102.3,336,120z M168,192c5.8,0,11.6,1.6,16.5,4.6
	c-5.1,9.2-8.5,20.8-8.5,35.4c-0.1,7.5,1,14.9,3,22c-16.6,6.1-35-2.4-41.1-19s2.4-35,19-41.1C160.5,192.7,164.2,192,168,192z
	 M232,269.2v16.6c-14.3-4.7-40-18.1-40-53.8s25.8-49.1,40-53.8v16.6c-8.5,4.4-24,15.4-24,37.2S223.5,264.8,232,269.2L232,269.2z
	 M168,272c5.9,0,11.8-1.1,17.3-3.2c5.5,9.3,13.2,17.2,22.4,23c9.5,6.1,20.1,10.2,31.2,12.2c0.4,0.1,0.8,0.1,1.1,0.1c4.4,0,8-3.6,8-8
	v-32c0-3.4-2.2-6.5-5.5-7.6c-0.2-0.1-18.5-6.4-18.5-24.4c0-17.8,17.8-24.2,18.5-24.4c3.3-1.1,5.5-4.1,5.5-7.6v-32c0-4.4-3.6-8-8-8
	c-0.4,0-0.8,0-1.1,0.1c-11.1,2-21.7,6.1-31.2,12.2c-5,3.2-9.6,7-13.7,11.4c-5.3-3.4-11.2-5.7-17.3-6.9l79.3-137l22.8,39.2
	c-22.5,13.9-29.5,43.5-15.6,66c13.4,21.7,41.4,29.1,63.7,16.9l76.6,132c-3.8,4.8-10,9.8-19.4,9.8c-17.1,0-23.6-16.4-24.3-18.4
	c3.2-26.4-15.6-50.3-42-53.5s-50.3,15.6-53.5,42s15.6,50.3,42,53.5c7.3,0.9,14.7,0.1,21.6-2.3c10,13.1,27.4,26.7,56.2,26.7
	c19.8,0,34.2-6.4,44.5-14.6l7,12.1c-21.6,15.3-56.1,33.5-105.5,43.4c-1.7-8.5-6-18.2-15.7-27.8c-25.1-25.1-58-21.2-59.4-21
	c-3.6,0.5-6.4,3.3-6.9,6.9c-0.2,1.2-3.1,26,12.5,49c-1.5,0-3,0-4.5,0c-15.1,0-30.1-0.8-45.1-2.5c11.9-23.7,2.3-52.5-21.5-64.4
	c-23.7-11.9-52.5-2.3-64.4,21.5c-3,6-4.7,12.5-5,19.2c-15.3-6.6-29.9-14.7-43.6-24.2l54.9-94.6C140.4,265.7,153.8,272,168,272
	L168,272z M263.8,359.8c9.1,0.4,25.7,3.1,39.2,16.6c14.1,14.1,12.3,27.8,10.7,33.4c-5.6,1.6-19.2,3.4-33.4-10.8
	C267,385.6,264.2,368.9,263.8,359.8L263.8,359.8z M168,408c-17.7,0-32-14.3-32-32s14.3-32,32-32s32,14.3,32,32S185.7,408,168,408z
	 M428,449c-33.9,14.1-91.2,31-172,31s-138.2-16.9-172-31c-25.5-10.6-41.9-21.4-49.6-27l34-58.6c17,11.6,35.2,21.3,54.4,28.8
	c8.9,24.9,36.3,37.9,61.3,29c5.7-2,10.9-5.1,15.5-9.1c18.7,2.6,37.6,3.9,56.4,3.9c6.4,0,12.7-0.1,18.9-0.4
	c11.2,8.8,22.1,11.3,30.7,11.3c6.2,0.1,12.3-1.2,17.9-3.7c1.5-0.8,2.8-2,3.6-3.6c1.5-3.3,2.6-6.8,3.1-10.4
	c52.8-10.1,89.8-29.4,113.3-45.8l34,58.6C469.9,427.6,453.5,438.3,428,449L428,449z"/>
</svg>
