<svg width="100" height="96" viewBox="0 0 100 96" fill="none" xmlns="http://www.w3.org/2000/svg">
<g clip-path="url(#clip0)">
<path d="M14.5903 29.7933V35.7312L11.7224 38.545L14.0879 40.8829L21.624 33.4346C22.3566 32.7105 23.5499 32.7105 24.2825 33.4346C25.0152 34.1588 25.0152 35.3381 24.2825 36.0622L16.7464 43.5105C16.0975 44.1519 16.0975 45.2071 16.7464 45.8484C19.7818 48.8691 19.7818 53.7312 16.7464 56.7519L8.37297 65.0277L10.7385 67.3657L14.5693 63.5795V76.1381C14.5693 79.8002 17.5628 82.7588 21.2681 82.7588H59.786V79.4484H29.6415V76.1381H59.786V72.8278H21.2681C19.4259 72.8278 17.9187 71.3381 17.9187 69.5174V60.2691L19.1119 59.0898C23.0056 55.2415 23.4661 49.1588 20.2005 44.7726L26.648 38.4002C28.6786 36.3726 28.6577 33.1036 26.6062 31.0967C24.5756 29.1105 21.289 29.1105 19.2375 31.0967L17.9187 32.4002V13.2415C17.9187 11.4208 19.4259 9.93119 21.2681 9.93119H91.6051C93.4473 9.93119 94.9545 11.4208 94.9545 13.2415V59.5864H98.3039V13.2415C98.3039 9.57947 95.3104 6.62085 91.6051 6.62085H21.2681C17.5628 6.62085 14.5693 9.57947 14.5693 13.2415V26.4829H9.54525C5.84 26.4829 2.84649 29.4415 2.84649 33.1036V47.3174L-0.000488281 50.1312L2.36501 52.4691L5.7144 49.1588C6.0284 48.8484 6.19587 48.4346 6.19587 47.9795V33.0829C6.19587 31.2622 7.70309 29.7726 9.54525 29.7726H14.5903V29.7933ZM21.289 76.1381H26.3131V79.4484H21.289C19.4469 79.4484 17.9396 77.9588 17.9396 76.1381V75.2484C18.9445 75.8278 20.0958 76.1381 21.289 76.1381Z" fill="#72A1B3"/>
<path d="M94.9755 62.8966C94.4103 62.8966 93.8451 63.0001 93.3008 63.1863V62.8966C93.3008 60.1656 91.0609 57.9311 88.2767 57.9311C87.4184 57.9311 86.5601 58.1587 85.8065 58.5725C84.5505 56.6277 82.1013 55.7794 79.9033 56.5656V54.6208C79.9033 51.8691 77.6634 49.6553 74.8792 49.6553C72.095 49.6553 69.8551 51.8691 69.8551 54.6208V68.5035L68.0967 69.3725C63.6797 71.5449 61.8794 76.8622 64.0984 81.2277C64.7892 82.6139 65.8359 83.7725 67.1337 84.6208L71.6973 87.6208C72.6393 88.2415 73.2045 89.276 73.2045 90.3725V96.0001H76.5539V90.3932C76.5539 88.1794 75.4235 86.1104 73.5604 84.8691L70.7762 83.0277L68.9968 81.8484C66.4848 80.1932 65.7521 76.8622 67.3431 74.338C67.8873 73.4691 68.6619 72.7656 69.6039 72.3104L69.8551 72.1863V77.7932H73.2045V54.6208C73.2045 53.7104 73.9581 52.9656 74.8792 52.9656C75.8003 52.9656 76.5539 53.7104 76.5539 54.6208V67.8622H79.9033V61.2415C79.9033 60.3311 80.6569 59.5863 81.5779 59.5863C82.499 59.5863 83.2526 60.3311 83.2526 61.2415V69.5173H86.602V62.8966C86.602 61.9863 87.3556 61.2415 88.2767 61.2415C89.1978 61.2415 89.9514 61.9863 89.9514 62.8966V71.1725H93.3008V67.8622C93.3008 66.9518 94.0544 66.207 94.9755 66.207C95.8966 66.207 96.6502 66.9518 96.6502 67.8622V73.6966C96.6502 78.3104 95.5616 82.8622 93.4683 86.9794C93.3426 87.207 93.3008 87.4553 93.3008 87.7242V96.0001H96.6502V88.1173C98.8482 83.6277 99.9995 78.7035 99.9995 73.7173V67.8622C99.9786 65.1311 97.7387 62.8966 94.9755 62.8966Z" fill="#F84001"/>
<path d="M73.6861 24.145C70.253 24.145 67.4897 26.8967 67.4897 30.2692C67.4897 33.6623 70.2739 36.3933 73.6861 36.3933C77.1192 36.3933 79.8825 33.6416 79.8825 30.2692C79.8825 26.8967 77.1192 24.145 73.6861 24.145ZM73.6861 33.1036C72.1161 33.1036 70.8391 31.8416 70.8391 30.2898C70.8391 28.7381 72.1161 27.4761 73.6861 27.4761C75.2561 27.4761 76.5331 28.7381 76.5331 30.2898C76.5331 31.8416 75.2561 33.1036 73.6861 33.1036Z" fill="#F84001"/>
<path d="M89.3861 27.4967C89.9094 27.0208 90.0769 26.276 89.8047 25.6346L88.4022 22.3036C88.13 21.6622 87.4811 21.2484 86.7694 21.2898L83.6084 21.4553L82.6245 20.4829L82.792 17.3588C82.8338 16.6553 82.4152 16.0139 81.7662 15.745L78.3959 14.3588C77.747 14.0898 76.9933 14.2553 76.5119 14.7726L74.3976 17.0898H73.016L70.9017 14.7726C70.4202 14.2553 69.6666 14.0898 69.0176 14.3588L65.6055 15.7243C64.9565 15.9933 64.5378 16.6346 64.5797 17.3381L64.7472 20.4622L63.7633 21.4346L60.6023 21.2691C59.8906 21.2277 59.2416 21.6415 58.9695 22.2829L57.5669 25.6139C57.2948 26.2553 57.4623 27.0001 57.9856 27.476L60.3302 29.5657V30.9312L57.9856 33.0622C57.4623 33.5381 57.2948 34.2829 57.5669 34.9243L58.9695 38.2553C59.2416 38.8967 59.8906 39.3105 60.6023 39.2691L63.7633 39.1036L64.7472 40.076L64.5797 43.2001C64.5378 43.9036 64.9565 44.545 65.6055 44.8139L68.9758 46.2001C69.6247 46.4691 70.3783 46.3036 70.8598 45.7864L72.9741 43.4691H74.3557L76.47 45.7864C76.9515 46.3036 77.7051 46.4691 78.354 46.2001L81.7243 44.8139C82.3733 44.545 82.792 43.9036 82.7501 43.2001L82.5826 40.076L83.5665 39.1036L86.7275 39.2691C87.4392 39.3105 88.0882 38.8967 88.3603 38.2553L89.7629 34.9243C90.035 34.2829 89.8675 33.5381 89.3442 33.0622L86.9996 30.9726V29.5864L89.3861 27.4967ZM84.2364 32.9381L86.267 34.7381L85.7645 35.9174L83.0432 35.7726C82.5617 35.7519 82.1012 35.9174 81.7662 36.2484L79.7357 38.2553C79.4007 38.5864 79.2332 39.0415 79.2542 39.5174L79.4007 42.207L78.2075 42.7036L76.3863 40.6967C76.0723 40.345 75.6117 40.1588 75.1512 40.1588H72.2624C71.7809 40.1588 71.3413 40.3657 71.0273 40.6967L69.206 42.7036L68.0128 42.207L68.1594 39.5174C68.1803 39.0415 68.0128 38.5864 67.6779 38.2553L65.6473 36.2484C65.3124 35.9174 64.8518 35.7519 64.3704 35.7726L61.649 35.9174L61.1466 34.7381L63.1771 32.9381C63.533 32.6277 63.7214 32.1726 63.7214 31.7174V28.8622C63.7214 28.3864 63.5121 27.9519 63.1771 27.6415L61.1466 25.8415L61.649 24.6622L64.3704 24.807C64.8518 24.8277 65.3124 24.6622 65.6473 24.3312L67.6779 22.3243C68.0128 21.9933 68.1803 21.5381 68.1594 21.0622L68.0128 18.3726L69.206 17.876L71.0273 19.8829C71.3413 20.2346 71.8018 20.4208 72.2624 20.4208H75.1512C75.6327 20.4208 76.0723 20.2139 76.3863 19.8829L78.2075 17.876L79.4007 18.3726L79.2542 21.0622C79.2332 21.5381 79.4007 21.9933 79.7357 22.3243L81.7662 24.3312C82.1012 24.6622 82.5617 24.8277 83.0432 24.807L85.7645 24.6622L86.267 25.8415L84.2364 27.6415C83.8805 27.9519 83.6921 28.407 83.6921 28.8622V31.7174C83.6921 32.1726 83.9014 32.6277 84.2364 32.9381Z" fill="#F84001"/>
<path d="M26.3132 62.8966V66.207H63.1565V62.8966H59.8071V57.9311H56.4577V62.8966H53.1083V54.6208H49.7589V62.8966H46.4095V49.6553H43.0602V62.8966H39.7108V54.6208H36.3614V62.8966H33.012V57.9311H29.6626V62.8966H26.3132Z" fill="#F84001"/>
<path d="M27.9878 16.5519H31.3372V19.8622H27.9878V16.5519Z" fill="#F84001"/>
<path d="M34.6865 16.5519H51.4334V19.8622H34.6865V16.5519Z" fill="#F84001"/>
<path d="M24.6384 23.1725H51.4335V26.4828H24.6384V23.1725Z" fill="#F84001"/>
<path d="M31.3372 29.7932H51.4334V33.1036H31.3372V29.7932Z" fill="#F84001"/>
<path d="M31.3372 36.4139H48.0841V39.7243H31.3372V36.4139Z" fill="#F84001"/>
<path d="M29.6626 0.00012207H73.2046V3.31047H29.6626V0.00012207Z" fill="#72A1B3"/>
<path d="M76.554 0.00012207H79.9033V3.31047H76.554V0.00012207Z" fill="#72A1B3"/>
</g>
<defs>
<clipPath id="clip0">
<rect width="100" height="96" fill="white" transform="translate(-0.000488281 0.00012207)"/>
</clipPath>
</defs>
</svg>
