<svg width="110" height="110" viewBox="0 0 110 110" fill="none" xmlns="http://www.w3.org/2000/svg">
<path d="M17.3674 10.9519L25.7044 9.13326L28.7181 22.9529C27.7387 22.7616 26.651 22.7842 25.503 23.0343C23.8153 23.4028 22.4314 24.1547 21.4998 25.2105C20.3954 26.4626 19.9925 28.0958 20.3668 29.8095C20.9602 32.5303 23.2018 34.1735 26.0762 34.1735C26.6443 34.1735 27.2385 34.1089 27.8486 33.9763C29.5363 33.6078 30.9194 32.8206 31.8493 31.6977C32.9084 30.4196 33.2869 28.7772 32.9151 27.0727L27.5012 2.25071C27.1655 0.709872 25.6381 -0.270354 24.0972 0.0661792L6.30707 3.9468C5.56015 4.10877 4.92149 4.55272 4.50942 5.19642C4.09652 5.83927 3.95888 6.60465 4.12169 7.35073L8.48741 27.3656C7.50718 27.1751 6.41953 27.1969 5.27229 27.447C3.58374 27.8155 2.19984 28.5682 1.26912 29.6232C0.163847 30.8753 -0.238149 32.5084 0.136152 34.2222C0.729493 36.943 2.9711 38.587 5.84465 38.587C6.41365 38.587 7.007 38.5224 7.61712 38.389C9.30483 38.0214 10.6887 37.2333 11.6186 36.1113C12.6777 34.8323 13.0562 33.1899 12.6844 31.4854L8.62169 12.8595L10.4915 12.4516C11.361 12.2619 11.9123 11.4034 11.7227 10.5339C11.533 9.6645 10.6745 9.11312 9.80502 9.30279L7.93435 9.71066L7.34773 7.01839L24.4304 3.29219L25.017 5.98446L16.6801 7.80308C15.8106 7.99274 15.2592 8.85128 15.4497 9.72073C15.6386 10.5902 16.4979 11.1416 17.3674 10.9519ZM6.93062 35.2402C6.19713 35.4004 3.76754 35.7504 3.28413 33.5357C2.8578 31.5786 4.7763 30.8543 5.95879 30.5958C6.35659 30.5094 6.78208 30.449 7.19834 30.449C8.25494 30.449 9.24524 30.8384 9.53562 32.1719C10.0182 34.3867 7.66412 35.0807 6.93062 35.2402ZM27.1621 30.8275C26.4286 30.9878 23.9991 31.3369 23.5156 29.123C23.3579 28.397 23.4846 27.8314 23.9168 27.3421C24.3843 26.8126 25.1916 26.4013 26.1903 26.1831C26.5881 26.0967 27.0136 26.0363 27.4299 26.0363C28.4856 26.0363 29.4759 26.4257 29.7671 27.7592C30.2497 29.9731 27.8948 30.6672 27.1621 30.8275Z" fill="#72A1B3"/>
<path d="M109.755 80.6184C109.447 79.9184 108.886 79.3813 108.173 79.1044L91.2005 72.5097C89.7293 71.939 88.0701 72.6708 87.4986 74.1403L80.0797 93.2354C79.3689 92.5346 78.4499 91.9531 77.3547 91.5276C73.7527 90.1277 70.5275 91.2565 69.3308 94.3365C68.1231 97.4458 69.7403 100.574 73.2651 101.943C74.2311 102.318 75.1895 102.508 76.1026 102.508C76.711 102.508 77.3002 102.424 77.8583 102.255C79.4478 101.775 80.6705 100.615 81.3025 98.9892V98.9884L88.2061 81.2184L96.3165 84.3697C97.1465 84.692 98.0797 84.2808 98.402 83.4508C98.7242 82.6216 98.313 81.6875 97.4838 81.3653L89.3734 78.2148L90.3713 75.6459L106.669 81.9779L105.671 84.5468L103.892 83.8553C103.063 83.533 102.129 83.9442 101.807 84.7742C101.484 85.6034 101.896 86.5375 102.725 86.8597L104.504 87.5504L99.3814 100.735C98.6705 100.034 97.7516 99.4525 96.6564 99.027C95.0459 98.4009 93.4765 98.2633 92.1178 98.6283C90.5056 99.0622 89.2677 100.201 88.6324 101.836C88.0005 103.462 88.1196 105.144 88.9673 106.571C89.7117 107.825 90.9571 108.817 92.5668 109.443C93.5361 109.82 94.4886 110.001 95.3849 110.001C97.7499 110.001 99.728 108.742 100.604 106.488L109.804 82.8071C110.081 82.0946 110.063 81.3174 109.755 80.6184ZM76.9259 99.1696C76.2369 99.3786 75.3515 99.2964 74.4316 98.9388C73.7326 98.6678 71.5136 97.6162 72.3344 95.5039C72.7406 94.459 73.5454 94.1418 74.3737 94.1418C75.025 94.1418 75.6913 94.3382 76.1873 94.5312C77.1281 94.8963 77.8448 95.4183 78.2065 95.999C78.5422 96.5395 78.5716 97.1177 78.298 97.821C78.0219 98.5327 77.5729 98.9741 76.9259 99.1696ZM93.7341 106.438C92.8152 106.081 92.106 105.544 91.7384 104.924C91.3935 104.344 91.3599 103.715 91.636 103.002C91.9054 102.311 92.3234 101.91 92.9545 101.74C93.1752 101.681 93.4186 101.651 93.6796 101.651C94.2251 101.651 94.8453 101.78 95.4898 102.03C96.4306 102.396 97.1473 102.917 97.5082 103.498C97.8447 104.038 97.8733 104.617 97.6005 105.32C96.7797 107.433 94.4332 106.71 93.7341 106.438Z" fill="#72A1B3"/>
<path d="M42.1655 71.1768C42.6473 71.6585 43.28 71.8994 43.912 71.8994C44.5448 71.8994 45.1776 71.6585 45.6593 71.1768L49.6096 67.2274L53.559 63.2771C54.5225 62.3137 54.5225 60.746 53.559 59.7825L50.2172 56.4407C50.0963 56.3198 49.9671 56.2149 49.8295 56.1243C48.8711 55.4924 47.566 55.5973 46.7226 56.4407L38.8229 64.3404C37.8602 65.3039 37.8594 66.8707 38.8229 67.835L42.1655 71.1768ZM48.4699 59.2513L50.7493 61.5298L48.4699 63.8083L46.1914 61.5298L48.4699 59.2513ZM43.912 63.8083L46.1914 66.0877L43.912 68.3662L41.6335 66.0877L43.912 63.8083Z" fill="#F84001"/>
<path d="M68.4112 61.4628C69.1313 61.5886 69.8312 61.6516 70.5118 61.6516C76.4537 61.6516 80.9939 57.1113 85.7675 52.3386C93.0169 45.0885 99.7417 35.1696 87.2857 22.7136C74.8306 10.2577 64.9116 16.9825 57.6614 24.2327C52.344 29.55 47.3195 34.5804 48.5364 41.5805L46.7841 47.2663L26.383 67.6681C25.7544 68.2966 25.7544 69.3171 26.383 69.9466C26.6977 70.2613 27.1106 70.4182 27.5227 70.4182C27.9348 70.4182 28.3477 70.2613 28.6624 69.9466L48.2922 50.316L59.6848 61.7095L32.7453 88.6472C31.2238 90.1696 29.2012 91.008 27.0494 91.008C24.8984 91.008 22.875 90.1696 21.3535 88.6472C19.8311 87.1257 18.9927 85.1031 18.9927 82.9513C18.9927 80.7995 19.8311 78.777 21.3535 77.2546L23.8024 74.8066C24.4318 74.1772 24.4318 73.1566 23.8024 72.5272C23.1729 71.8978 22.1533 71.8978 21.5238 72.5272L19.0749 74.9761C16.9441 77.1061 15.77 79.9385 15.77 82.9513C15.77 85.9642 16.9441 88.7966 19.0749 90.9258C21.2049 93.0566 24.0374 94.2307 27.0502 94.2307C30.0622 94.2307 32.8947 93.0566 35.0247 90.9258L62.816 63.1362L68.4112 61.4628ZM59.94 26.5112C64.3804 22.0708 68.1032 19.7293 71.6557 19.1435C75.9904 18.4277 80.3561 20.3411 85.0072 24.9922C89.6574 29.6424 91.5708 34.0097 90.8558 38.3435C90.2692 41.8969 87.9286 45.6189 83.4881 50.0592C78.6264 54.9218 74.4093 59.1381 69.1036 58.3123L51.6877 40.8956C50.8619 35.5917 55.0783 31.3737 59.94 26.5112ZM50.9442 44.71L65.2716 59.0382L62.4233 59.89L50.0722 47.5382L50.9442 44.71Z" fill="#F84001"/>
<path d="M67.8414 30.7627C67.2128 30.1333 66.1923 30.1333 65.5629 30.7627C64.9335 31.3913 64.9335 32.4118 65.5629 33.0412C66.1923 33.6707 67.2128 33.6707 67.8414 33.0412C68.4709 32.4118 68.4709 31.3913 67.8414 30.7627Z" fill="#F84001"/>
<path d="M73.538 36.4586C72.9085 35.8292 71.8889 35.8292 71.2594 36.4586C70.63 37.0872 70.63 38.1077 71.2594 38.7372C71.8889 39.3666 72.9085 39.3666 73.538 38.7372C74.1674 38.1077 74.1674 37.0872 73.538 36.4586Z" fill="#F84001"/>
<path d="M79.2347 42.1553C78.6053 41.5259 77.5848 41.5259 76.9562 42.1553C76.3268 42.7847 76.3268 43.8052 76.9562 44.4338C77.5848 45.0632 78.6053 45.0632 79.2347 44.4338C79.8642 43.8052 79.8642 42.7847 79.2347 42.1553Z" fill="#F84001"/>
<path d="M85.8524 29.7649C85.223 29.1354 84.2024 29.1354 83.573 29.7649C82.9444 30.3943 82.9444 31.4148 83.573 32.0442C84.2024 32.6728 85.223 32.6728 85.8524 32.0442C86.481 31.4148 86.481 30.3943 85.8524 29.7649Z" fill="#F84001"/>
<path d="M80.2389 24.1521C79.6094 23.5227 78.5889 23.5227 77.9595 24.1521C77.3309 24.7815 77.3309 25.8012 77.9595 26.4306C78.5889 27.0601 79.6094 27.0601 80.2389 26.4306C80.8674 25.8012 80.8674 24.7815 80.2389 24.1521Z" fill="#F84001"/>
<path d="M66.8453 48.7736C66.2159 48.1442 65.1954 48.1442 64.5659 48.7736C63.9373 49.4022 63.9373 50.4227 64.5659 51.0522C65.1954 51.6816 66.2159 51.6816 66.8453 51.0522C67.4739 50.4227 67.4739 49.4022 66.8453 48.7736Z" fill="#F84001"/>
<path d="M61.2317 43.1591C60.6022 42.5297 59.5817 42.5297 58.9523 43.1591C58.3229 43.7885 58.3229 44.8082 58.9523 45.4376C59.5817 46.067 60.6022 46.067 61.2317 45.4376C61.8603 44.8082 61.8603 43.7885 61.2317 43.1591Z" fill="#F84001"/>
<path d="M74.7658 23.8391C74.1364 23.2096 73.1159 23.2096 72.4865 23.8391C71.857 24.4677 71.857 25.4882 72.4865 26.1176C73.1159 26.747 74.1364 26.747 74.7658 26.1176C75.3944 25.4882 75.3944 24.4677 74.7658 23.8391Z" fill="#F84001"/>
<path d="M80.4618 29.5357C79.8324 28.9063 78.8127 28.9063 78.1833 29.5357C77.5538 30.1652 77.5538 31.1848 78.1833 31.8142C78.8127 32.4437 79.8324 32.4437 80.4618 31.8142C81.0912 31.1848 81.0912 30.1652 80.4618 29.5357Z" fill="#F84001"/>
<path d="M86.1588 35.2316C85.5293 34.6022 84.5088 34.6022 83.8794 35.2316C83.2508 35.861 83.2508 36.8815 83.8794 37.5101C84.5088 38.1395 85.5293 38.1395 86.1588 37.5101C86.7874 36.8815 86.7874 35.861 86.1588 35.2316Z" fill="#F84001"/>
<path d="M60.9183 37.6881C60.2897 37.0586 59.2692 37.0586 58.6398 37.6881C58.0104 38.3175 58.0104 39.338 58.6398 39.9666C59.2692 40.596 60.2897 40.596 60.9183 39.9666C61.5478 39.338 61.5478 38.3175 60.9183 37.6881Z" fill="#F84001"/>
<path d="M66.6144 43.3831C65.9858 42.7537 64.9653 42.7537 64.3358 43.3831C63.7064 44.0126 63.7064 45.0322 64.3358 45.6617C64.9653 46.2911 65.9858 46.2911 66.6144 45.6617C67.2438 45.0322 67.2438 44.0126 66.6144 43.3831Z" fill="#F84001"/>
<path d="M72.3112 49.0789C71.6817 48.4495 70.662 48.4495 70.0326 49.0789C69.4032 49.7084 69.4032 50.728 70.0326 51.3575C70.662 51.9869 71.6817 51.9869 72.3112 51.3575C72.9406 50.728 72.9406 49.7084 72.3112 49.0789Z" fill="#F84001"/>
<path d="M79.7501 35.867C79.1207 35.2375 78.101 35.2375 77.4716 35.867C76.8422 36.4964 76.8422 37.5161 77.4716 38.1455C78.101 38.7749 79.1207 38.7749 79.7501 38.1455C80.3795 37.5161 80.3795 36.4964 79.7501 35.867Z" fill="#F84001"/>
<path d="M85.5233 41.6409C84.8939 41.0115 83.8742 41.0115 83.2448 41.6409C82.6153 42.2695 82.6153 43.29 83.2448 43.9194C83.8742 44.5488 84.8939 44.5488 85.5233 43.9194C86.1527 43.29 86.1527 42.2695 85.5233 41.6409Z" fill="#F84001"/>
<path d="M68.3566 24.4727C67.7271 23.8441 66.7075 23.8441 66.078 24.4727C65.4486 25.1021 65.4486 26.1227 66.078 26.7521C66.7075 27.3815 67.7271 27.3815 68.3566 26.7521C68.986 26.1227 68.986 25.1021 68.3566 24.4727Z" fill="#F84001"/>
<path d="M74.1366 30.2533C73.5072 29.6239 72.4875 29.6239 71.8581 30.2533C71.2286 30.8827 71.2286 31.9033 71.8581 32.5318C72.4875 33.1613 73.5072 33.1613 74.1366 32.5318C74.766 31.9033 74.766 30.8827 74.1366 30.2533Z" fill="#F84001"/>
<path d="M72.9464 42.6706C72.3169 42.0412 71.2964 42.0412 70.667 42.6706C70.0384 43.3 70.0384 44.3206 70.667 44.9491C71.2964 45.5786 72.3169 45.5786 72.9464 44.9491C73.575 44.3206 73.575 43.3 72.9464 42.6706Z" fill="#F84001"/>
<path d="M78.7196 48.4446C78.0902 47.8152 77.0705 47.8152 76.4411 48.4446C75.8116 49.074 75.8116 50.0937 76.4411 50.7231C77.0705 51.3526 78.0902 51.3526 78.7196 50.7231C79.349 50.0937 79.349 49.074 78.7196 48.4446Z" fill="#F84001"/>
<path d="M61.5531 31.2771C60.9237 30.6477 59.9032 30.6477 59.2746 31.2771C58.6451 31.9065 58.6451 32.9271 59.2746 33.5556C59.9032 34.1851 60.9237 34.1851 61.5531 33.5556C62.1825 32.9271 62.1825 31.9065 61.5531 31.2771Z" fill="#F84001"/>
<path d="M67.3326 37.0578C66.7032 36.4284 65.6827 36.4284 65.0541 37.0578C64.4247 37.6872 64.4247 38.7069 65.0541 39.3363C65.6827 39.9658 66.7032 39.9658 67.3326 39.3363C67.9621 38.7069 67.9621 37.6872 67.3326 37.0578Z" fill="#F84001"/>
</svg>
