<svg width="101" height="101" viewBox="0 0 101 101" fill="none" xmlns="http://www.w3.org/2000/svg">
<path d="M95.101 44.4143C96.1976 44.363 97.1797 43.7647 97.7287 42.8141L100.638 37.7756C101.376 36.5112 100.919 34.825 99.6534 34.1022L65.1786 14.1982C64.4707 13.7895 63.566 14.0321 63.1577 14.7397C62.7491 15.4473 62.9916 16.3521 63.6992 16.7606L97.9402 36.5299L95.1661 41.3346C95.1235 41.4084 95.0473 41.4547 94.9625 41.4587L87.1752 41.8232C87.127 41.8254 87.0815 41.8144 87.0408 41.7913L62.6087 27.961C61.2709 27.2037 59.6292 27.1159 58.218 27.7261L52.7939 30.0719C52.2226 30.3191 51.5598 30.2806 51.0209 29.9695L31.3674 18.6226C30.9102 18.3587 30.5829 17.9322 30.4462 17.4223C30.3097 16.9123 30.3798 16.3797 30.6439 15.9223L37.5562 3.94963C38.1014 3.00592 39.3118 2.68083 40.2563 3.22607L57.7525 13.3275C58.4603 13.736 59.3651 13.4934 59.7734 12.786C60.182 12.0784 59.9395 11.1736 59.232 10.765L41.7362 0.663431C40.5946 0.00437665 39.2645 -0.17099 37.9909 0.170274C36.7176 0.511539 35.6532 1.32821 34.9941 2.46996L28.0818 14.4424C27.4226 15.5842 27.2476 16.9143 27.5887 18.1876C27.9517 19.5424 28.862 20.6582 30.1034 21.3087L27.3871 26.0142C26.7274 27.156 26.5525 28.4859 26.8933 29.7591C27.2344 31.032 28.0511 32.0962 29.1928 32.7557L47.0123 43.0437L45.425 45.7931C44.8811 46.7349 44.7367 47.8322 45.018 48.8829C45.2735 49.8362 45.8546 50.6448 46.6636 51.1932L36.3505 71.8105C35.6615 71.6793 34.9513 71.6079 34.2248 71.6079C29.5593 71.6079 25.5441 74.44 23.8044 78.4746H13.2163V70.6569C13.2163 67.4831 10.6342 64.901 7.46042 64.901H2.86006C1.28295 64.901 -0.000244141 66.1842 -0.000244141 67.7613V98.1397C-0.000244141 99.7168 1.28295 101 2.86006 101H7.46042C10.6342 101 13.2163 98.4178 13.2163 95.2441V87.4264H23.8044C25.5441 91.461 29.5593 94.2931 34.2248 94.2931C40.4792 94.2931 45.5674 89.2049 45.5674 82.9505C45.5674 80.74 44.9294 78.6768 43.8315 76.9308L48.1363 68.3252C48.5019 67.5944 48.2058 66.7057 47.4749 66.3402C46.7441 65.9743 45.8554 66.2706 45.4899 67.0014L41.7513 74.4749C40.9824 73.7914 40.1212 73.2099 39.1875 72.7536L49.2244 52.6886L51.8824 54.2232L48.5814 60.822C48.2158 61.5528 48.5119 62.4415 49.2428 62.807C49.9616 63.1666 50.8582 62.8853 51.2278 62.1458L54.5213 55.5624C55.1898 55.7289 55.882 55.7222 56.5525 55.5424C57.603 55.261 58.481 54.5873 59.0248 53.6454L60.6122 50.8957L78.4313 61.1834C79.2067 61.6311 80.054 61.8438 80.891 61.8438C82.7103 61.8438 84.4924 60.8036 85.3517 59.0681L88.1009 60.6553C88.7404 61.0246 89.4395 61.2001 90.13 61.1999C91.5382 61.1999 92.9096 60.4697 93.6629 59.165L97.4431 52.6174C97.9869 51.6755 98.1313 50.5783 97.85 49.5277C97.5685 48.4773 96.8947 47.5993 95.953 47.0554L93.2033 45.4681L93.776 44.476L95.101 44.4143ZM10.2574 95.2441C10.2574 96.7863 9.00282 98.0411 7.46042 98.0411H2.95869V67.8599H7.46042C9.00262 67.8599 10.2574 69.1147 10.2574 70.6569V95.2441ZM22.9868 84.4674H13.2163V81.4335H22.9866C22.9199 81.9302 22.8822 82.4358 22.8822 82.9505C22.8822 83.4651 22.9201 83.9709 22.9868 84.4674ZM42.6085 82.9505C42.6085 87.5733 38.8476 91.3341 34.2248 91.3341C29.6019 91.3341 25.8411 87.5733 25.8411 82.9505C25.8411 78.3276 29.6019 74.5668 34.2248 74.5668C38.8476 74.5668 42.6085 78.3278 42.6085 82.9505ZM56.4622 52.1659C56.1626 52.691 55.4638 52.8778 54.9423 52.5732L48.3948 48.7929C47.869 48.4927 47.6824 47.7957 47.9876 47.273L49.575 44.5236L58.0498 49.4165L56.4622 52.1659ZM83.5286 56.3074L83.5262 56.3122L82.6107 57.898C82.0653 58.8417 80.8547 59.166 79.9108 58.6211L30.6725 30.1936C29.7288 29.6486 29.4043 28.4378 29.9493 27.4939L32.6656 22.7882L49.5416 32.5316C50.8878 33.3086 52.543 33.4041 53.9688 32.7872L59.3927 30.4414C59.9583 30.1972 60.6154 30.2323 61.1513 30.5355L85.5837 44.3659C86.1102 44.664 86.7108 44.8074 87.3137 44.7784L90.2643 44.6403L89.3754 46.1798L83.5286 56.3074ZM94.4731 49.6183C94.9972 49.9175 95.1858 50.6154 94.8802 51.1382L91.1001 57.6857C90.7932 58.2173 90.1108 58.4 89.58 58.093L86.831 56.5059L91.7236 48.0311L94.4731 49.6183ZM28.8001 82.9505C28.8001 85.9418 31.2337 88.3752 34.2248 88.3752C37.2159 88.3752 39.6495 85.9418 39.6495 82.9505C39.6495 79.9592 37.2159 77.5258 34.2248 77.5258C31.2337 77.5258 28.8001 79.9594 28.8001 82.9505ZM36.6906 82.9505C36.6906 84.3102 35.5845 85.4163 34.2248 85.4163C32.8651 85.4163 31.759 84.3102 31.759 82.9505C31.759 81.5908 32.8651 80.4847 34.2248 80.4847C35.5845 80.4847 36.6906 81.591 36.6906 82.9505Z" fill="#F84001"/>
<mask id="mask0" mask-type="alpha" maskUnits="userSpaceOnUse" x="-1" y="0" width="102" height="101">
<path d="M95.101 44.4143C96.1976 44.363 97.1797 43.7647 97.7287 42.8141L100.638 37.7756C101.376 36.5112 100.919 34.825 99.6534 34.1022L65.1786 14.1982C64.4707 13.7895 63.566 14.0321 63.1577 14.7397C62.7491 15.4473 62.9916 16.3521 63.6992 16.7606L97.9402 36.5299L95.1661 41.3346C95.1235 41.4084 95.0473 41.4547 94.9625 41.4587L87.1752 41.8232C87.127 41.8254 87.0815 41.8144 87.0408 41.7913L62.6087 27.961C61.2709 27.2037 59.6292 27.1159 58.218 27.7261L52.7939 30.0719C52.2226 30.3191 51.5598 30.2806 51.0209 29.9695L31.3674 18.6226C30.9102 18.3587 30.5829 17.9322 30.4462 17.4223C30.3097 16.9123 30.3798 16.3797 30.6439 15.9223L37.5562 3.94963C38.1014 3.00592 39.3118 2.68083 40.2563 3.22607L57.7525 13.3275C58.4603 13.736 59.3651 13.4934 59.7734 12.786C60.182 12.0784 59.9395 11.1736 59.232 10.765L41.7362 0.663431C40.5946 0.00437665 39.2645 -0.17099 37.9909 0.170274C36.7176 0.511539 35.6532 1.32821 34.9941 2.46996L28.0818 14.4424C27.4226 15.5842 27.2476 16.9143 27.5887 18.1876C27.9517 19.5424 28.862 20.6582 30.1034 21.3087L27.3871 26.0142C26.7274 27.156 26.5525 28.4859 26.8933 29.7591C27.2344 31.032 28.0511 32.0962 29.1928 32.7557L47.0123 43.0437L45.425 45.7931C44.8811 46.7349 44.7367 47.8322 45.018 48.8829C45.2735 49.8362 45.8546 50.6448 46.6636 51.1932L36.3505 71.8105C35.6615 71.6793 34.9513 71.6079 34.2248 71.6079C29.5593 71.6079 25.5441 74.44 23.8044 78.4746H13.2163V70.6569C13.2163 67.4831 10.6342 64.901 7.46042 64.901H2.86006C1.28295 64.901 -0.000244141 66.1842 -0.000244141 67.7613V98.1397C-0.000244141 99.7168 1.28295 101 2.86006 101H7.46042C10.6342 101 13.2163 98.4178 13.2163 95.2441V87.4264H23.8044C25.5441 91.461 29.5593 94.2931 34.2248 94.2931C40.4792 94.2931 45.5674 89.2049 45.5674 82.9505C45.5674 80.74 44.9294 78.6768 43.8315 76.9308L48.1363 68.3252C48.5019 67.5944 48.2058 66.7057 47.4749 66.3402C46.7441 65.9743 45.8554 66.2706 45.4899 67.0014L41.7513 74.4749C40.9824 73.7914 40.1212 73.2099 39.1875 72.7536L49.2244 52.6886L51.8824 54.2232L48.5814 60.822C48.2158 61.5528 48.5119 62.4415 49.2428 62.807C49.9616 63.1666 50.8582 62.8853 51.2278 62.1458L54.5213 55.5624C55.1898 55.7289 55.882 55.7222 56.5525 55.5424C57.603 55.261 58.481 54.5873 59.0248 53.6454L60.6122 50.8957L78.4313 61.1834C79.2067 61.6311 80.054 61.8438 80.891 61.8438C82.7103 61.8438 84.4924 60.8036 85.3517 59.0681L88.1009 60.6553C88.7404 61.0246 89.4395 61.2001 90.13 61.1999C91.5382 61.1999 92.9096 60.4697 93.6629 59.165L97.4431 52.6174C97.9869 51.6755 98.1313 50.5783 97.85 49.5277C97.5685 48.4773 96.8947 47.5993 95.953 47.0554L93.2033 45.4681L93.776 44.476L95.101 44.4143ZM10.2574 95.2441C10.2574 96.7863 9.00282 98.0411 7.46042 98.0411H2.95869V67.8599H7.46042C9.00262 67.8599 10.2574 69.1147 10.2574 70.6569V95.2441ZM22.9868 84.4674H13.2163V81.4335H22.9866C22.9199 81.9302 22.8822 82.4358 22.8822 82.9505C22.8822 83.4651 22.9201 83.9709 22.9868 84.4674ZM42.6085 82.9505C42.6085 87.5733 38.8476 91.3341 34.2248 91.3341C29.6019 91.3341 25.8411 87.5733 25.8411 82.9505C25.8411 78.3276 29.6019 74.5668 34.2248 74.5668C38.8476 74.5668 42.6085 78.3278 42.6085 82.9505ZM56.4622 52.1659C56.1626 52.691 55.4638 52.8778 54.9423 52.5732L48.3948 48.7929C47.869 48.4927 47.6824 47.7957 47.9876 47.273L49.575 44.5236L58.0498 49.4165L56.4622 52.1659ZM83.5286 56.3074L83.5262 56.3122L82.6107 57.898C82.0653 58.8417 80.8547 59.166 79.9108 58.6211L30.6725 30.1936C29.7288 29.6486 29.4043 28.4378 29.9493 27.4939L32.6656 22.7882L49.5416 32.5316C50.8878 33.3086 52.543 33.4041 53.9688 32.7872L59.3927 30.4414C59.9583 30.1972 60.6154 30.2323 61.1513 30.5355L85.5837 44.3659C86.1102 44.664 86.7108 44.8074 87.3137 44.7784L90.2643 44.6403L89.3754 46.1798L83.5286 56.3074ZM94.4731 49.6183C94.9972 49.9175 95.1858 50.6154 94.8802 51.1382L91.1001 57.6857C90.7932 58.2173 90.1108 58.4 89.58 58.093L86.831 56.5059L91.7236 48.0311L94.4731 49.6183ZM28.8001 82.9505C28.8001 85.9418 31.2337 88.3752 34.2248 88.3752C37.2159 88.3752 39.6495 85.9418 39.6495 82.9505C39.6495 79.9592 37.2159 77.5258 34.2248 77.5258C31.2337 77.5258 28.8001 79.9594 28.8001 82.9505ZM36.6906 82.9505C36.6906 84.3102 35.5845 85.4163 34.2248 85.4163C32.8651 85.4163 31.759 84.3102 31.759 82.9505C31.759 81.5908 32.8651 80.4847 34.2248 80.4847C35.5845 80.4847 36.6906 81.591 36.6906 82.9505Z" fill="#72A1B3"/>
</mask>
<g mask="url(#mask0)">
<path d="M13.9998 117V57.5H4.49976L-4.00024 64V117H13.9998Z" fill="#72A1B3"/>
<path d="M32.9998 40.5L15.9998 21.5L37.9998 -7.5C43.1664 -6 54.0998 -2.7 56.4998 -1.5C59.4998 0 93.9998 19 109 24C124 29 119 36 119 40.5C119 45 112 69.5 111.5 77.5C111.1 83.9 91.9998 71.1667 82.4998 64L45.4998 43.5L32.9998 40.5Z" fill="#72A1B3"/>
</g>
<path d="M15.8608 91.0135L15.9796 78.3007L13.2034 78.343L13.2034 91.0135H15.8608Z" fill="white"/>
<path d="M62.0722 51.7295L46.2314 42.5933L44.5688 44.9049L60.8452 53.7045L62.0722 51.7295Z" fill="white"/>
</svg>
