<svg width="95" height="67" viewBox="0 0 95 67" fill="none" xmlns="http://www.w3.org/2000/svg">
<path d="M93.3896 0.00012207H1.60993C0.720709 0.00012207 -0.000244141 0.721075 -0.000244141 1.61029V64.4069C-0.000244141 65.2961 0.720709 66.0171 1.60993 66.0171H93.3896C94.2788 66.0171 94.9998 65.2961 94.9998 64.4069V1.61029C94.9998 0.721075 94.2788 0.00012207 93.3896 0.00012207ZM91.7794 62.7967H3.22009V3.22046H91.7794V62.7967Z" fill="#72A1B3"/>
<path d="M86.9489 6.4408H8.0506C7.16138 6.4408 6.44043 7.16175 6.44043 8.05097V57.9662C6.44043 58.8554 7.16138 59.5764 8.0506 59.5764H86.9489C87.8381 59.5764 88.5591 58.8554 88.5591 57.9662V8.05097C88.5591 7.16175 87.8381 6.4408 86.9489 6.4408ZM85.3387 56.356H9.66077V9.66113H85.3387V56.356Z" fill="#72A1B3"/>
<path d="M18.5167 12.8815C15.4042 12.8815 12.8811 15.4046 12.8811 18.5171C12.8811 21.6295 15.4042 24.1527 18.5167 24.1527C21.6292 24.1527 24.1523 21.6295 24.1523 18.5171C24.1523 15.4046 21.6292 12.8815 18.5167 12.8815ZM18.5167 20.9323C17.1829 20.9323 16.1014 19.8509 16.1014 18.5171C16.1014 17.1832 17.1829 16.1018 18.5167 16.1018C19.8505 16.1018 20.932 17.1832 20.932 18.5171C20.932 19.8509 19.8505 20.9323 18.5167 20.9323Z" fill="#F84001"/>
<path d="M33.0082 12.8815C29.8957 12.8815 27.3726 15.4046 27.3726 18.5171C27.3726 21.6295 29.8957 24.1527 33.0082 24.1527C36.1206 24.1527 38.6437 21.6295 38.6437 18.5171C38.6437 15.4046 36.1206 12.8815 33.0082 12.8815ZM33.0082 20.9323C31.6743 20.9323 30.5929 19.8509 30.5929 18.5171C30.5929 17.1832 31.6743 16.1018 33.0082 16.1018C34.342 16.1018 35.4234 17.1832 35.4234 18.5171C35.4234 19.8509 34.342 20.9323 33.0082 20.9323Z" fill="#F84001"/>
<path d="M47.4996 12.8815C44.3871 12.8815 41.864 15.4046 41.864 18.5171C41.864 21.6295 44.3871 24.1527 47.4996 24.1527C50.6121 24.1527 53.1352 21.6295 53.1352 18.5171C53.1352 15.4046 50.6121 12.8815 47.4996 12.8815ZM47.4996 20.9323C46.1658 20.9323 45.0844 19.8509 45.0844 18.5171C45.0844 17.1832 46.1658 16.1018 47.4996 16.1018C48.8334 16.1018 49.9149 17.1832 49.9149 18.5171C49.9149 19.8509 48.8334 20.9323 47.4996 20.9323Z" fill="#F84001"/>
<path d="M61.9913 12.8815C58.8788 12.8815 56.3557 15.4046 56.3557 18.5171C56.3557 21.6295 58.8788 24.1527 61.9913 24.1527C65.1038 24.1527 67.6269 21.6295 67.6269 18.5171C67.6269 15.4046 65.1038 12.8815 61.9913 12.8815ZM61.9913 20.9323C60.6575 20.9323 59.5761 19.8509 59.5761 18.5171C59.5761 17.1832 60.6575 16.1018 61.9913 16.1018C63.3251 16.1018 64.4066 17.1832 64.4066 18.5171C64.4066 19.8509 63.3251 20.9323 61.9913 20.9323Z" fill="#F84001"/>
<path d="M76.4828 12.8815C73.3703 12.8815 70.8472 15.4046 70.8472 18.5171C70.8472 21.6295 73.3703 24.1527 76.4828 24.1527C79.5952 24.1527 82.1183 21.6295 82.1183 18.5171C82.1183 15.4046 79.5952 12.8815 76.4828 12.8815ZM76.4828 20.9323C75.1489 20.9323 74.0675 19.8509 74.0675 18.5171C74.0675 17.1832 75.1489 16.1018 76.4828 16.1018C77.8166 16.1018 78.898 17.1832 78.898 18.5171C78.898 19.8509 77.8166 20.9323 76.4828 20.9323Z" fill="#F84001"/>
<path d="M18.5167 27.3729C15.4042 27.3729 12.8811 29.8961 12.8811 33.0085C12.8811 36.121 15.4042 38.6441 18.5167 38.6441C21.6292 38.6441 24.1523 36.121 24.1523 33.0085C24.1523 29.8961 21.6292 27.3729 18.5167 27.3729ZM18.5167 35.4238C17.1829 35.4238 16.1014 34.3423 16.1014 33.0085C16.1014 31.6747 17.1829 30.5933 18.5167 30.5933C19.8505 30.5933 20.932 31.6747 20.932 33.0085C20.932 34.3423 19.8505 35.4238 18.5167 35.4238Z" fill="#F84001"/>
<path d="M33.0082 27.3729C29.8957 27.3729 27.3726 29.8961 27.3726 33.0085C27.3726 36.121 29.8957 38.6441 33.0082 38.6441C36.1206 38.6441 38.6437 36.121 38.6437 33.0085C38.6437 29.8961 36.1206 27.3729 33.0082 27.3729ZM33.0082 35.4238C31.6743 35.4238 30.5929 34.3423 30.5929 33.0085C30.5929 31.6747 31.6743 30.5933 33.0082 30.5933C34.342 30.5933 35.4234 31.6747 35.4234 33.0085C35.4234 34.3423 34.342 35.4238 33.0082 35.4238Z" fill="#F84001"/>
<path d="M47.4996 27.3729C44.3871 27.3729 41.864 29.8961 41.864 33.0085C41.864 36.121 44.3871 38.6441 47.4996 38.6441C50.6121 38.6441 53.1352 36.121 53.1352 33.0085C53.1352 29.8961 50.6121 27.3729 47.4996 27.3729ZM47.4996 35.4238C46.1658 35.4238 45.0844 34.3423 45.0844 33.0085C45.0844 31.6747 46.1658 30.5933 47.4996 30.5933C48.8334 30.5933 49.9149 31.6747 49.9149 33.0085C49.9149 34.3423 48.8334 35.4238 47.4996 35.4238Z" fill="#F84001"/>
<path d="M61.9913 27.3729C58.8788 27.3729 56.3557 29.8961 56.3557 33.0085C56.3557 36.121 58.8788 38.6441 61.9913 38.6441C65.1038 38.6441 67.6269 36.121 67.6269 33.0085C67.6269 29.8961 65.1038 27.3729 61.9913 27.3729ZM61.9913 35.4238C60.6575 35.4238 59.5761 34.3423 59.5761 33.0085C59.5761 31.6747 60.6575 30.5933 61.9913 30.5933C63.3251 30.5933 64.4066 31.6747 64.4066 33.0085C64.4066 34.3423 63.3251 35.4238 61.9913 35.4238Z" fill="#F84001"/>
<path d="M76.4828 27.3729C73.3703 27.3729 70.8472 29.8961 70.8472 33.0085C70.8472 36.121 73.3703 38.6441 76.4828 38.6441C79.5952 38.6441 82.1183 36.121 82.1183 33.0085C82.1183 29.8961 79.5952 27.3729 76.4828 27.3729ZM76.4828 35.4238C75.1489 35.4238 74.0675 34.3423 74.0675 33.0085C74.0675 31.6747 75.1489 30.5933 76.4828 30.5933C77.8166 30.5933 78.898 31.6747 78.898 33.0085C78.898 34.3423 77.8166 35.4238 76.4828 35.4238Z" fill="#F84001"/>
<path d="M18.5167 41.8645C15.4042 41.8645 12.8811 44.3876 12.8811 47.5001C12.8811 50.6126 15.4042 53.1357 18.5167 53.1357C21.6292 53.1357 24.1523 50.6126 24.1523 47.5001C24.1523 44.3876 21.6292 41.8645 18.5167 41.8645ZM18.5167 49.9153C17.1829 49.9153 16.1014 48.8339 16.1014 47.5001C16.1014 46.1663 17.1829 45.0848 18.5167 45.0848C19.8505 45.0848 20.932 46.1663 20.932 47.5001C20.932 48.8339 19.8505 49.9153 18.5167 49.9153Z" fill="#F84001"/>
<path d="M33.0082 41.8645C29.8957 41.8645 27.3726 44.3876 27.3726 47.5001C27.3726 50.6126 29.8957 53.1357 33.0082 53.1357C36.1206 53.1357 38.6437 50.6126 38.6437 47.5001C38.6437 44.3876 36.1206 41.8645 33.0082 41.8645ZM33.0082 49.9153C31.6743 49.9153 30.5929 48.8339 30.5929 47.5001C30.5929 46.1663 31.6743 45.0848 33.0082 45.0848C34.342 45.0848 35.4234 46.1663 35.4234 47.5001C35.4234 48.8339 34.342 49.9153 33.0082 49.9153Z" fill="#F84001"/>
<path d="M47.4996 41.8645C44.3871 41.8645 41.864 44.3876 41.864 47.5001C41.864 50.6126 44.3871 53.1357 47.4996 53.1357C50.6121 53.1357 53.1352 50.6126 53.1352 47.5001C53.1352 44.3876 50.6121 41.8645 47.4996 41.8645ZM47.4996 49.9153C46.1658 49.9153 45.0844 48.8339 45.0844 47.5001C45.0844 46.1663 46.1658 45.0848 47.4996 45.0848C48.8334 45.0848 49.9149 46.1663 49.9149 47.5001C49.9149 48.8339 48.8334 49.9153 47.4996 49.9153Z" fill="#F84001"/>
<path d="M61.9913 41.8645C58.8788 41.8645 56.3557 44.3876 56.3557 47.5001C56.3557 50.6126 58.8788 53.1357 61.9913 53.1357C65.1038 53.1357 67.6269 50.6126 67.6269 47.5001C67.6269 44.3876 65.1038 41.8645 61.9913 41.8645ZM61.9913 49.9153C60.6575 49.9153 59.5761 48.8339 59.5761 47.5001C59.5761 46.1663 60.6575 45.0848 61.9913 45.0848C63.3251 45.0848 64.4066 46.1663 64.4066 47.5001C64.4066 48.8339 63.3251 49.9153 61.9913 49.9153Z" fill="#F84001"/>
<path d="M76.4828 41.8645C73.3703 41.8645 70.8472 44.3876 70.8472 47.5001C70.8472 50.6126 73.3703 53.1357 76.4828 53.1357C79.5952 53.1357 82.1183 50.6126 82.1183 47.5001C82.1183 44.3876 79.5952 41.8645 76.4828 41.8645ZM76.4828 49.9153C75.1489 49.9153 74.0675 48.8339 74.0675 47.5001C74.0675 46.1663 75.1489 45.0848 76.4828 45.0848C77.8166 45.0848 78.898 46.1663 78.898 47.5001C78.898 48.8339 77.8166 49.9153 76.4828 49.9153Z" fill="#F84001"/>
</svg>
