<svg width="102" height="102" viewBox="0 0 102 102" fill="none" xmlns="http://www.w3.org/2000/svg">
<path d="M84.9791 9.74903C84.1507 9.74903 83.4794 10.4202 83.4794 11.2487C83.4794 12.077 84.1507 12.7484 84.9791 12.7484C87.2963 12.7484 89.1816 14.6335 89.1816 16.9507C89.1816 17.7791 89.8528 18.4504 90.6813 18.4504C91.5096 18.4504 92.181 17.7793 92.181 16.9507C92.1808 12.9798 88.9502 9.74903 84.9791 9.74903Z" fill="#F84001"/>
<path d="M96.8748 5.05481C93.6625 1.84251 89.3267 0 84.9791 0C84.1507 0 83.4794 0.671146 83.4794 1.49967C83.4794 2.32799 84.1507 2.99934 84.9791 2.99934C92.4113 2.99934 98.9305 9.51856 98.9305 16.9504C98.9305 17.7787 99.6016 18.45 100.43 18.45C101.258 18.45 101.93 17.7789 101.93 16.9504C101.93 12.6032 100.087 8.26711 96.8748 5.05481Z" fill="#F84001"/>
<path d="M84.9791 4.91683C84.1507 4.91683 83.4794 5.58798 83.4794 6.4165C83.4794 7.24482 84.1507 7.91617 84.9791 7.91617C89.9608 7.91617 94.0137 11.9691 94.0137 16.9506C94.0137 17.779 94.6849 18.4503 95.5134 18.4503C96.3417 18.4503 97.0131 17.7792 97.0131 16.9506C97.0131 10.3151 91.6146 4.91683 84.9791 4.91683Z" fill="#F84001"/>
<path d="M33.0849 21.1028C32.813 20.8309 32.4391 20.6629 32.0251 20.6629H9.9008C7.8513 20.6629 6.18569 22.3305 6.18569 24.378V44.723C6.18569 45.5507 6.85743 46.2226 7.68536 46.2226C8.51269 46.2226 9.18503 45.5509 9.18503 44.723V24.378C9.18503 23.9842 9.50695 23.6623 9.9008 23.6623H31.9693C32.7672 23.6623 33.467 23.0644 33.521 22.2686C33.5529 21.8126 33.379 21.3966 33.0849 21.1028Z" fill="#F84001"/>
<path d="M95.768 38.1287H87.5561V22.8044C87.5561 18.0696 83.7051 14.2186 78.9703 14.2186H8.5856C3.85272 14.2186 -0.000244141 18.0696 -0.000244141 22.8044V64.4002C-0.000244141 69.1331 3.85272 72.986 8.5856 72.986H39.1621V76.4491H33.1656C31.2241 76.4491 29.6445 78.0287 29.6445 79.9702V81.5978C29.6445 83.5393 31.2241 85.1189 33.1656 85.1189H54.3903C56.3318 85.1189 57.9113 83.5393 57.9113 81.5978V79.9702C57.9113 78.0287 56.3318 76.4491 54.3903 76.4491H48.3938V72.986H71.1982V95.8723C71.1982 99.2496 73.9455 101.997 77.3226 101.997H95.768C99.1473 101.997 101.895 99.2496 101.895 95.8723V44.253C101.894 40.8758 99.1471 38.1287 95.768 38.1287ZM54.3903 79.4483C54.6742 79.4483 54.9122 79.6861 54.9122 79.9702V81.5978C54.9122 81.8797 54.6744 82.1197 54.3903 82.1197H33.1656C32.8817 82.1197 32.6437 81.8799 32.6437 81.5978V79.9702C32.6437 79.6863 32.8815 79.4483 33.1656 79.4483H54.3903ZM42.1612 76.4491V72.986H45.3944V76.4491H42.1612ZM71.198 44.253V63.9262H9.9014C9.50756 63.9262 9.18563 63.6043 9.18563 63.2105V51.7213C9.18563 50.8936 8.51389 50.2216 7.68596 50.2216C6.85843 50.2216 6.18629 50.8934 6.18629 51.7213V63.2105C6.18629 65.258 7.8519 66.9256 9.9014 66.9256H71.1982V69.9869H8.5858C5.5006 69.9869 2.99909 67.4856 2.99909 64.4002V22.8044C2.99909 19.7192 5.5004 17.2177 8.5858 17.2177H78.9701C82.0553 17.2177 84.5568 19.719 84.5568 22.8044V38.1287H81.3716V24.378C81.3716 22.3345 79.7 20.6629 77.6565 20.6629H39.08C37.7047 20.6629 37.0106 22.262 37.9642 23.2222C38.2361 23.4941 38.6101 23.6621 39.024 23.6621H77.6565C78.0503 23.6621 78.3722 23.984 78.3722 24.3778V38.1285H77.3226C73.9394 38.1287 71.198 40.8698 71.198 44.253ZM95.768 98.9974H77.3226C75.599 98.9974 74.1973 97.5957 74.1973 95.8721V90.7454H98.8953V95.8721C98.8953 97.5959 97.4916 98.9974 95.768 98.9974ZM98.8953 52.419H84.5799C83.7518 52.419 83.0802 53.0903 83.0802 53.9186C83.0802 54.7469 83.7516 55.4183 84.5799 55.4183H98.8953V87.7463H74.1973V55.4183H77.8485C78.6766 55.4183 79.3482 54.7469 79.3482 53.9186C79.3482 53.0903 78.6768 52.419 77.8485 52.419H74.1973V44.253C74.1973 42.5271 75.5966 41.1278 77.3226 41.1278H95.768C97.4952 41.1278 98.8953 42.5279 98.8953 44.255V52.419Z" fill="#F84001"/>
<path d="M94.6122 45.2228H89.6474C88.8197 45.2228 88.1478 45.8946 88.1478 46.7225C88.1478 47.5522 88.8195 48.2222 89.6474 48.2222H94.6122C95.4399 48.2222 96.1119 47.5524 96.1119 46.7225C96.1119 45.8946 95.4401 45.2228 94.6122 45.2228Z" fill="#F84001"/>
<path d="M80.2171 58.6259H78.48C77.6517 58.6259 76.9803 59.2971 76.9803 60.1256C76.9803 60.9539 77.6515 61.6253 78.48 61.6253H80.2171C81.0454 61.6253 81.7168 60.9541 81.7168 60.1256C81.7166 59.2973 81.0454 58.6259 80.2171 58.6259Z" fill="#F84001"/>
<path d="M87.4146 58.6259H85.6773C84.849 58.6259 84.1776 59.2971 84.1776 60.1256C84.1776 60.9539 84.8488 61.6253 85.6773 61.6253H87.4146C88.243 61.6253 88.9143 60.9541 88.9143 60.1256C88.9143 59.2973 88.243 58.6259 87.4146 58.6259Z" fill="#F84001"/>
<path d="M94.612 58.6259H92.8749C92.0466 58.6259 91.3752 59.2971 91.3752 60.1256C91.3752 60.9539 92.0466 61.6253 92.8749 61.6253H94.612C95.4403 61.6253 96.1117 60.9541 96.1117 60.1256C96.1117 59.2973 95.4405 58.6259 94.612 58.6259Z" fill="#F84001"/>
<path d="M80.2171 66.0714H78.48C77.6517 66.0714 76.9803 66.7426 76.9803 67.5711C76.9803 68.3994 77.6515 69.0708 78.48 69.0708H80.2171C81.0454 69.0708 81.7168 68.3996 81.7168 67.5711C81.7166 66.7428 81.0454 66.0714 80.2171 66.0714Z" fill="#F84001"/>
<path d="M87.4146 66.0714H85.6773C84.849 66.0714 84.1776 66.7426 84.1776 67.5711C84.1776 68.3994 84.8488 69.0708 85.6773 69.0708H87.4146C88.243 69.0708 88.9143 68.3996 88.9143 67.5711C88.9143 66.7428 88.243 66.0714 87.4146 66.0714Z" fill="#F84001"/>
<path d="M94.612 66.0714H92.8749C92.0466 66.0714 91.3752 66.7426 91.3752 67.5711C91.3752 68.3994 92.0466 69.0708 92.8749 69.0708H94.612C95.4403 69.0708 96.1117 68.3996 96.1117 67.5711C96.1117 66.7428 95.4405 66.0714 94.612 66.0714Z" fill="#F84001"/>
<path d="M80.2171 73.517H78.48C77.6517 73.517 76.9803 74.1881 76.9803 75.0166C76.9803 75.845 77.6515 76.5163 78.48 76.5163H80.2171C81.0454 76.5163 81.7168 75.8452 81.7168 75.0166C81.7166 74.1883 81.0454 73.517 80.2171 73.517Z" fill="#F84001"/>
<path d="M87.4146 73.517H85.6773C84.849 73.517 84.1776 74.1881 84.1776 75.0166C84.1776 75.845 84.8488 76.5163 85.6773 76.5163H87.4146C88.243 76.5163 88.9143 75.8452 88.9143 75.0166C88.9143 74.1883 88.243 73.517 87.4146 73.517Z" fill="#F84001"/>
<path d="M94.612 73.517H92.8749C92.0466 73.517 91.3752 74.1881 91.3752 75.0166C91.3752 75.845 92.0466 76.5163 92.8749 76.5163H94.612C95.4403 76.5163 96.1117 75.8452 96.1117 75.0166C96.1117 74.1883 95.4405 73.517 94.612 73.517Z" fill="#F84001"/>
<path d="M80.2171 80.9625H78.48C77.6517 80.9625 76.9803 81.6337 76.9803 82.4622C76.9803 83.2905 77.6515 83.9619 78.48 83.9619H80.2171C81.0454 83.9619 81.7168 83.2907 81.7168 82.4622C81.7166 81.6339 81.0454 80.9625 80.2171 80.9625Z" fill="#F84001"/>
<path d="M87.4146 80.9625H85.6773C84.849 80.9625 84.1776 81.6337 84.1776 82.4622C84.1776 83.2905 84.8488 83.9619 85.6773 83.9619H87.4146C88.243 83.9619 88.9143 83.2907 88.9143 82.4622C88.9143 81.6339 88.243 80.9625 87.4146 80.9625Z" fill="#F84001"/>
<path d="M94.612 80.9625H92.8749C92.0466 80.9625 91.3752 81.6337 91.3752 82.4622C91.3752 83.2905 92.0466 83.9619 92.8749 83.9619H94.612C95.4403 83.9619 96.1117 83.2907 96.1117 82.4622C96.1117 81.6339 95.4405 80.9625 94.612 80.9625Z" fill="#F84001"/>
<mask id="mask0" mask-type="alpha" maskUnits="userSpaceOnUse" x="-1" y="0" width="103" height="102">
<path d="M84.9791 9.74903C84.1507 9.74903 83.4794 10.4202 83.4794 11.2487C83.4794 12.077 84.1507 12.7484 84.9791 12.7484C87.2963 12.7484 89.1816 14.6335 89.1816 16.9507C89.1816 17.7791 89.8528 18.4504 90.6813 18.4504C91.5096 18.4504 92.181 17.7793 92.181 16.9507C92.1808 12.9798 88.9502 9.74903 84.9791 9.74903Z" fill="#F84001"/>
<path d="M96.8748 5.05481C93.6625 1.84251 89.3267 0 84.9791 0C84.1507 0 83.4794 0.671146 83.4794 1.49967C83.4794 2.32799 84.1507 2.99934 84.9791 2.99934C92.4113 2.99934 98.9305 9.51856 98.9305 16.9504C98.9305 17.7787 99.6016 18.45 100.43 18.45C101.258 18.45 101.93 17.7789 101.93 16.9504C101.93 12.6032 100.087 8.26711 96.8748 5.05481Z" fill="#F84001"/>
<path d="M84.9791 4.91683C84.1507 4.91683 83.4794 5.58798 83.4794 6.4165C83.4794 7.24482 84.1507 7.91617 84.9791 7.91617C89.9608 7.91617 94.0137 11.9691 94.0137 16.9506C94.0137 17.779 94.6849 18.4503 95.5134 18.4503C96.3417 18.4503 97.0131 17.7792 97.0131 16.9506C97.0131 10.3151 91.6146 4.91683 84.9791 4.91683Z" fill="#F84001"/>
<path d="M33.0849 21.1028C32.813 20.8309 32.4391 20.6629 32.0251 20.6629H9.9008C7.8513 20.6629 6.18569 22.3305 6.18569 24.378V44.723C6.18569 45.5507 6.85743 46.2226 7.68536 46.2226C8.51269 46.2226 9.18503 45.5509 9.18503 44.723V24.378C9.18503 23.9842 9.50695 23.6623 9.9008 23.6623H31.9693C32.7672 23.6623 33.467 23.0644 33.521 22.2686C33.5529 21.8126 33.379 21.3966 33.0849 21.1028Z" fill="#F84001"/>
<path d="M95.768 38.1287H87.5561V22.8044C87.5561 18.0696 83.7051 14.2186 78.9703 14.2186H8.5856C3.85272 14.2186 -0.000244141 18.0696 -0.000244141 22.8044V64.4002C-0.000244141 69.1331 3.85272 72.986 8.5856 72.986H39.1621V76.4491H33.1656C31.2241 76.4491 29.6445 78.0287 29.6445 79.9702V81.5978C29.6445 83.5393 31.2241 85.1189 33.1656 85.1189H54.3903C56.3318 85.1189 57.9113 83.5393 57.9113 81.5978V79.9702C57.9113 78.0287 56.3318 76.4491 54.3903 76.4491H48.3938V72.986H71.1982V95.8723C71.1982 99.2496 73.9455 101.997 77.3226 101.997H95.768C99.1473 101.997 101.895 99.2496 101.895 95.8723V44.253C101.894 40.8758 99.1471 38.1287 95.768 38.1287ZM54.3903 79.4483C54.6742 79.4483 54.9122 79.6861 54.9122 79.9702V81.5978C54.9122 81.8797 54.6744 82.1197 54.3903 82.1197H33.1656C32.8817 82.1197 32.6437 81.8799 32.6437 81.5978V79.9702C32.6437 79.6863 32.8815 79.4483 33.1656 79.4483H54.3903ZM42.1612 76.4491V72.986H45.3944V76.4491H42.1612ZM71.198 44.253V63.9262H9.9014C9.50756 63.9262 9.18563 63.6043 9.18563 63.2105V51.7213C9.18563 50.8936 8.51389 50.2216 7.68596 50.2216C6.85843 50.2216 6.18629 50.8934 6.18629 51.7213V63.2105C6.18629 65.258 7.8519 66.9256 9.9014 66.9256H71.1982V69.9869H8.5858C5.5006 69.9869 2.99909 67.4856 2.99909 64.4002V22.8044C2.99909 19.7192 5.5004 17.2177 8.5858 17.2177H78.9701C82.0553 17.2177 84.5568 19.719 84.5568 22.8044V38.1287H81.3716V24.378C81.3716 22.3345 79.7 20.6629 77.6565 20.6629H39.08C37.7047 20.6629 37.0106 22.262 37.9642 23.2222C38.2361 23.4941 38.6101 23.6621 39.024 23.6621H77.6565C78.0503 23.6621 78.3722 23.984 78.3722 24.3778V38.1285H77.3226C73.9394 38.1287 71.198 40.8698 71.198 44.253ZM95.768 98.9974H77.3226C75.599 98.9974 74.1973 97.5957 74.1973 95.8721V90.7454H98.8953V95.8721C98.8953 97.5959 97.4916 98.9974 95.768 98.9974ZM98.8953 52.419H84.5799C83.7518 52.419 83.0802 53.0903 83.0802 53.9186C83.0802 54.7469 83.7516 55.4183 84.5799 55.4183H98.8953V87.7463H74.1973V55.4183H77.8485C78.6766 55.4183 79.3482 54.7469 79.3482 53.9186C79.3482 53.0903 78.6768 52.419 77.8485 52.419H74.1973V44.253C74.1973 42.5271 75.5966 41.1278 77.3226 41.1278H95.768C97.4952 41.1278 98.8953 42.5279 98.8953 44.255V52.419Z" fill="#F84001"/>
<path d="M94.6122 45.2228H89.6474C88.8197 45.2228 88.1478 45.8946 88.1478 46.7225C88.1478 47.5522 88.8195 48.2222 89.6474 48.2222H94.6122C95.4399 48.2222 96.1119 47.5524 96.1119 46.7225C96.1119 45.8946 95.4401 45.2228 94.6122 45.2228Z" fill="#F84001"/>
<path d="M80.2171 58.6259H78.48C77.6517 58.6259 76.9803 59.2971 76.9803 60.1256C76.9803 60.9539 77.6515 61.6253 78.48 61.6253H80.2171C81.0454 61.6253 81.7168 60.9541 81.7168 60.1256C81.7166 59.2973 81.0454 58.6259 80.2171 58.6259Z" fill="#F84001"/>
<path d="M87.4146 58.6259H85.6773C84.849 58.6259 84.1776 59.2971 84.1776 60.1256C84.1776 60.9539 84.8488 61.6253 85.6773 61.6253H87.4146C88.243 61.6253 88.9143 60.9541 88.9143 60.1256C88.9143 59.2973 88.243 58.6259 87.4146 58.6259Z" fill="#F84001"/>
<path d="M94.612 58.6259H92.8749C92.0466 58.6259 91.3752 59.2971 91.3752 60.1256C91.3752 60.9539 92.0466 61.6253 92.8749 61.6253H94.612C95.4403 61.6253 96.1117 60.9541 96.1117 60.1256C96.1117 59.2973 95.4405 58.6259 94.612 58.6259Z" fill="#F84001"/>
<path d="M80.2171 66.0714H78.48C77.6517 66.0714 76.9803 66.7426 76.9803 67.5711C76.9803 68.3994 77.6515 69.0708 78.48 69.0708H80.2171C81.0454 69.0708 81.7168 68.3996 81.7168 67.5711C81.7166 66.7428 81.0454 66.0714 80.2171 66.0714Z" fill="#F84001"/>
<path d="M87.4146 66.0714H85.6773C84.849 66.0714 84.1776 66.7426 84.1776 67.5711C84.1776 68.3994 84.8488 69.0708 85.6773 69.0708H87.4146C88.243 69.0708 88.9143 68.3996 88.9143 67.5711C88.9143 66.7428 88.243 66.0714 87.4146 66.0714Z" fill="#F84001"/>
<path d="M94.612 66.0714H92.8749C92.0466 66.0714 91.3752 66.7426 91.3752 67.5711C91.3752 68.3994 92.0466 69.0708 92.8749 69.0708H94.612C95.4403 69.0708 96.1117 68.3996 96.1117 67.5711C96.1117 66.7428 95.4405 66.0714 94.612 66.0714Z" fill="#F84001"/>
<path d="M80.2171 73.517H78.48C77.6517 73.517 76.9803 74.1881 76.9803 75.0166C76.9803 75.845 77.6515 76.5163 78.48 76.5163H80.2171C81.0454 76.5163 81.7168 75.8452 81.7168 75.0166C81.7166 74.1883 81.0454 73.517 80.2171 73.517Z" fill="#F84001"/>
<path d="M87.4146 73.517H85.6773C84.849 73.517 84.1776 74.1881 84.1776 75.0166C84.1776 75.845 84.8488 76.5163 85.6773 76.5163H87.4146C88.243 76.5163 88.9143 75.8452 88.9143 75.0166C88.9143 74.1883 88.243 73.517 87.4146 73.517Z" fill="#F84001"/>
<path d="M94.612 73.517H92.8749C92.0466 73.517 91.3752 74.1881 91.3752 75.0166C91.3752 75.845 92.0466 76.5163 92.8749 76.5163H94.612C95.4403 76.5163 96.1117 75.8452 96.1117 75.0166C96.1117 74.1883 95.4405 73.517 94.612 73.517Z" fill="#F84001"/>
<path d="M80.2171 80.9625H78.48C77.6517 80.9625 76.9803 81.6337 76.9803 82.4622C76.9803 83.2905 77.6515 83.9619 78.48 83.9619H80.2171C81.0454 83.9619 81.7168 83.2907 81.7168 82.4622C81.7166 81.6339 81.0454 80.9625 80.2171 80.9625Z" fill="#F84001"/>
<path d="M87.4146 80.9625H85.6773C84.849 80.9625 84.1776 81.6337 84.1776 82.4622C84.1776 83.2905 84.8488 83.9619 85.6773 83.9619H87.4146C88.243 83.9619 88.9143 83.2907 88.9143 82.4622C88.9143 81.6339 88.243 80.9625 87.4146 80.9625Z" fill="#F84001"/>
<path d="M94.612 80.9625H92.8749C92.0466 80.9625 91.3752 81.6337 91.3752 82.4622C91.3752 83.2905 92.0466 83.9619 92.8749 83.9619H94.612C95.4403 83.9619 96.1117 83.2907 96.1117 82.4622C96.1117 81.6339 95.4405 80.9625 94.612 80.9625Z" fill="#F84001"/>
</mask>
<g mask="url(#mask0)">
<path d="M90.013 20.9028L80.8382 11.7278L79.9206 5.67231V-2.95215L101.39 0.167356L110.748 33.9312C108.852 57.6026 105.023 105.166 104.876 106.046C104.693 107.147 90.9306 109.716 90.9306 109.9C90.9306 110.047 76.1284 111.796 68.7273 112.652V81.641L70.3788 37.9682L75.8837 36.8672L90.9306 35.2157L90.013 20.9028Z" fill="#72A1B3"/>
</g>
</svg>
