<svg width="238" height="401" viewBox="0 0 238 401" fill="none" xmlns="http://www.w3.org/2000/svg">
<mask id="path-1-inside-1" fill="white">
<path d="M31.1655 16.2362C31.1655 24.7331 24.2775 31.6212 15.7809 31.6212C7.28417 31.6212 0.39624 24.7331 0.39624 16.2362C0.39624 7.73931 7.28417 0.851196 15.7809 0.851196C24.2775 0.851196 31.1655 7.73931 31.1655 16.2362Z"/>
<path d="M31.1655 77.7763C31.1655 86.2732 24.2775 93.1613 15.7809 93.1613C7.28417 93.1613 0.39624 86.2732 0.39624 77.7763C0.39624 69.2794 7.28417 62.3913 15.7809 62.3913C24.2775 62.3913 31.1655 69.2794 31.1655 77.7763Z"/>
<path d="M31.1655 139.316C31.1655 147.813 24.2775 154.701 15.7809 154.701C7.28417 154.701 0.39624 147.813 0.39624 139.316C0.39624 130.819 7.28417 123.931 15.7809 123.931C24.2775 123.931 31.1655 130.819 31.1655 139.316Z"/>
<path d="M31.1655 200.856C31.1655 209.353 24.2775 216.242 15.7809 216.242C7.28417 216.242 0.39624 209.353 0.39624 200.856C0.39624 192.36 7.28417 185.471 15.7809 185.471C24.2775 185.471 31.1655 192.36 31.1655 200.856Z"/>
<path d="M31.1655 262.397C31.1655 270.893 24.2775 277.782 15.7809 277.782C7.28417 277.782 0.39624 270.893 0.39624 262.397C0.39624 253.9 7.28417 247.012 15.7809 247.012C24.2775 247.012 31.1655 253.9 31.1655 262.397Z"/>
<path d="M31.1655 323.937C31.1655 332.434 24.2775 339.322 15.7809 339.322C7.28417 339.322 0.39624 332.434 0.39624 323.937C0.39624 315.44 7.28417 308.552 15.7809 308.552C24.2775 308.552 31.1655 315.44 31.1655 323.937Z"/>
<path d="M31.1655 385.477C31.1655 393.974 24.2775 400.862 15.7809 400.862C7.28417 400.862 0.39624 393.974 0.39624 385.477C0.39624 376.98 7.28417 370.092 15.7809 370.092C24.2775 370.092 31.1655 376.98 31.1655 385.477Z"/>
<path d="M92.7039 16.2362C92.7039 24.7331 85.816 31.6212 77.3193 31.6212C68.8226 31.6212 61.9347 24.7331 61.9347 16.2362C61.9347 7.73931 68.8226 0.851196 77.3193 0.851196C85.816 0.851196 92.7039 7.73931 92.7039 16.2362Z"/>
<path d="M92.7039 77.7763C92.7039 86.2732 85.816 93.1613 77.3193 93.1613C68.8226 93.1613 61.9347 86.2732 61.9347 77.7763C61.9347 69.2794 68.8226 62.3913 77.3193 62.3913C85.816 62.3913 92.7039 69.2794 92.7039 77.7763Z"/>
<path d="M92.7039 139.316C92.7039 147.813 85.816 154.701 77.3193 154.701C68.8226 154.701 61.9347 147.813 61.9347 139.316C61.9347 130.819 68.8226 123.931 77.3193 123.931C85.816 123.931 92.7039 130.819 92.7039 139.316Z"/>
<path d="M92.7039 200.856C92.7039 209.353 85.816 216.242 77.3193 216.242C68.8226 216.242 61.9347 209.353 61.9347 200.856C61.9347 192.36 68.8226 185.471 77.3193 185.471C85.816 185.471 92.7039 192.36 92.7039 200.856Z"/>
<path d="M92.7039 262.397C92.7039 270.893 85.816 277.782 77.3193 277.782C68.8226 277.782 61.9347 270.893 61.9347 262.397C61.9347 253.9 68.8226 247.012 77.3193 247.012C85.816 247.012 92.7039 253.9 92.7039 262.397Z"/>
<path d="M92.7039 323.937C92.7039 332.434 85.816 339.322 77.3193 339.322C68.8226 339.322 61.9347 332.434 61.9347 323.937C61.9347 315.44 68.8226 308.552 77.3193 308.552C85.816 308.552 92.7039 315.44 92.7039 323.937Z"/>
<path d="M92.7039 385.477C92.7039 393.974 85.816 400.862 77.3193 400.862C68.8226 400.862 61.9347 393.974 61.9347 385.477C61.9347 376.98 68.8226 370.092 77.3193 370.092C85.816 370.092 92.7039 376.98 92.7039 385.477Z"/>
<path d="M154.242 16.2362C154.242 24.7331 147.354 31.6212 138.858 31.6212C130.361 31.6212 123.473 24.7331 123.473 16.2362C123.473 7.73931 130.361 0.851196 138.858 0.851196C147.354 0.851196 154.242 7.73931 154.242 16.2362Z"/>
<path d="M154.242 77.7763C154.242 86.2732 147.354 93.1613 138.858 93.1613C130.361 93.1613 123.473 86.2732 123.473 77.7763C123.473 69.2794 130.361 62.3913 138.858 62.3913C147.354 62.3913 154.242 69.2794 154.242 77.7763Z"/>
<path d="M154.242 139.316C154.242 147.813 147.354 154.701 138.858 154.701C130.361 154.701 123.473 147.813 123.473 139.316C123.473 130.819 130.361 123.931 138.858 123.931C147.354 123.931 154.242 130.819 154.242 139.316Z"/>
<path d="M154.242 200.856C154.242 209.353 147.354 216.242 138.858 216.242C130.361 216.242 123.473 209.353 123.473 200.856C123.473 192.36 130.361 185.471 138.858 185.471C147.354 185.471 154.242 192.36 154.242 200.856Z"/>
<path d="M154.242 262.397C154.242 270.893 147.354 277.782 138.858 277.782C130.361 277.782 123.473 270.893 123.473 262.397C123.473 253.9 130.361 247.012 138.858 247.012C147.354 247.012 154.242 253.9 154.242 262.397Z"/>
<path d="M154.242 323.937C154.242 332.434 147.354 339.322 138.858 339.322C130.361 339.322 123.473 332.434 123.473 323.937C123.473 315.44 130.361 308.552 138.858 308.552C147.354 308.552 154.242 315.44 154.242 323.937Z"/>
<path d="M154.242 385.477C154.242 393.974 147.354 400.862 138.858 400.862C130.361 400.862 123.473 393.974 123.473 385.477C123.473 376.98 130.361 370.092 138.858 370.092C147.354 370.092 154.242 376.98 154.242 385.477Z"/>
<path d="M215.781 16.2362C215.781 24.7331 208.893 31.6212 200.396 31.6212C191.9 31.6212 185.012 24.7331 185.012 16.2362C185.012 7.73931 191.9 0.851196 200.396 0.851196C208.893 0.851196 215.781 7.73931 215.781 16.2362Z"/>
<path d="M215.781 77.7763C215.781 86.2732 208.893 93.1613 200.396 93.1613C191.9 93.1613 185.012 86.2732 185.012 77.7763C185.012 69.2794 191.9 62.3913 200.396 62.3913C208.893 62.3913 215.781 69.2794 215.781 77.7763Z"/>
<path d="M215.781 139.316C215.781 147.813 208.893 154.701 200.396 154.701C191.9 154.701 185.012 147.813 185.012 139.316C185.012 130.819 191.9 123.931 200.396 123.931C208.893 123.931 215.781 130.819 215.781 139.316Z"/>
<path d="M215.781 200.856C215.781 209.353 208.893 216.242 200.396 216.242C191.9 216.242 185.012 209.353 185.012 200.856C185.012 192.36 191.9 185.471 200.396 185.471C208.893 185.471 215.781 192.36 215.781 200.856Z"/>
<path d="M215.781 262.397C215.781 270.893 208.893 277.782 200.396 277.782C191.9 277.782 185.012 270.893 185.012 262.397C185.012 253.9 191.9 247.012 200.396 247.012C208.893 247.012 215.781 253.9 215.781 262.397Z"/>
<path d="M215.781 323.937C215.781 332.434 208.893 339.322 200.396 339.322C191.9 339.322 185.012 332.434 185.012 323.937C185.012 315.44 191.9 308.552 200.396 308.552C208.893 308.552 215.781 315.44 215.781 323.937Z"/>
<path d="M215.781 385.477C215.781 393.974 208.893 400.862 200.396 400.862C191.9 400.862 185.012 393.974 185.012 385.477C185.012 376.98 191.9 370.092 200.396 370.092C208.893 370.092 215.781 376.98 215.781 385.477Z"/>
<path d="M277.319 16.2362C277.319 24.7331 270.431 31.6212 261.935 31.6212C253.438 31.6212 246.55 24.7331 246.55 16.2362C246.55 7.73931 253.438 0.851196 261.935 0.851196C270.431 0.851196 277.319 7.73931 277.319 16.2362Z"/>
<path d="M277.319 77.7763C277.319 86.2732 270.431 93.1613 261.935 93.1613C253.438 93.1613 246.55 86.2732 246.55 77.7763C246.55 69.2794 253.438 62.3913 261.935 62.3913C270.431 62.3913 277.319 69.2794 277.319 77.7763Z"/>
<path d="M277.319 139.316C277.319 147.813 270.431 154.701 261.935 154.701C253.438 154.701 246.55 147.813 246.55 139.316C246.55 130.819 253.438 123.931 261.935 123.931C270.431 123.931 277.319 130.819 277.319 139.316Z"/>
<path d="M277.319 200.856C277.319 209.353 270.431 216.242 261.935 216.242C253.438 216.242 246.55 209.353 246.55 200.856C246.55 192.36 253.438 185.471 261.935 185.471C270.431 185.471 277.319 192.36 277.319 200.856Z"/>
<path d="M277.319 262.397C277.319 270.893 270.431 277.782 261.935 277.782C253.438 277.782 246.55 270.893 246.55 262.397C246.55 253.9 253.438 247.012 261.935 247.012C270.431 247.012 277.319 253.9 277.319 262.397Z"/>
<path d="M277.319 323.937C277.319 332.434 270.431 339.322 261.935 339.322C253.438 339.322 246.55 332.434 246.55 323.937C246.55 315.44 253.438 308.552 261.935 308.552C270.431 308.552 277.319 315.44 277.319 323.937Z"/>
<path d="M277.319 385.477C277.319 393.974 270.431 400.862 261.935 400.862C253.438 400.862 246.55 393.974 246.55 385.477C246.55 376.98 253.438 370.092 261.935 370.092C270.431 370.092 277.319 376.98 277.319 385.477Z"/>
<path d="M338.858 16.2362C338.858 24.7331 331.97 31.6212 323.473 31.6212C314.977 31.6212 308.089 24.7331 308.089 16.2362C308.089 7.73931 314.977 0.851196 323.473 0.851196C331.97 0.851196 338.858 7.73931 338.858 16.2362Z"/>
<path d="M338.858 77.7763C338.858 86.2732 331.97 93.1613 323.473 93.1613C314.977 93.1613 308.089 86.2732 308.089 77.7763C308.089 69.2794 314.977 62.3913 323.473 62.3913C331.97 62.3913 338.858 69.2794 338.858 77.7763Z"/>
<path d="M338.858 139.316C338.858 147.813 331.97 154.701 323.473 154.701C314.977 154.701 308.089 147.813 308.089 139.316C308.089 130.819 314.977 123.931 323.473 123.931C331.97 123.931 338.858 130.819 338.858 139.316Z"/>
<path d="M338.858 200.856C338.858 209.353 331.97 216.242 323.473 216.242C314.977 216.242 308.089 209.353 308.089 200.856C308.089 192.36 314.977 185.471 323.473 185.471C331.97 185.471 338.858 192.36 338.858 200.856Z"/>
<path d="M338.858 262.397C338.858 270.893 331.97 277.782 323.473 277.782C314.977 277.782 308.089 270.893 308.089 262.397C308.089 253.9 314.977 247.012 323.473 247.012C331.97 247.012 338.858 253.9 338.858 262.397Z"/>
<path d="M338.858 323.937C338.858 332.434 331.97 339.322 323.473 339.322C314.977 339.322 308.089 332.434 308.089 323.937C308.089 315.44 314.977 308.552 323.473 308.552C331.97 308.552 338.858 315.44 338.858 323.937Z"/>
<path d="M338.858 385.477C338.858 393.974 331.97 400.862 323.473 400.862C314.977 400.862 308.089 393.974 308.089 385.477C308.089 376.98 314.977 370.092 323.473 370.092C331.97 370.092 338.858 376.98 338.858 385.477Z"/>
<path d="M400.396 16.2362C400.396 24.7331 393.508 31.6212 385.012 31.6212C376.515 31.6212 369.627 24.7331 369.627 16.2362C369.627 7.73931 376.515 0.851196 385.012 0.851196C393.508 0.851196 400.396 7.73931 400.396 16.2362Z"/>
<path d="M400.396 77.7763C400.396 86.2732 393.508 93.1613 385.012 93.1613C376.515 93.1613 369.627 86.2732 369.627 77.7763C369.627 69.2794 376.515 62.3913 385.012 62.3913C393.508 62.3913 400.396 69.2794 400.396 77.7763Z"/>
<path d="M400.396 139.316C400.396 147.813 393.508 154.701 385.012 154.701C376.515 154.701 369.627 147.813 369.627 139.316C369.627 130.819 376.515 123.931 385.012 123.931C393.508 123.931 400.396 130.819 400.396 139.316Z"/>
<path d="M400.396 200.856C400.396 209.353 393.508 216.242 385.012 216.242C376.515 216.242 369.627 209.353 369.627 200.856C369.627 192.36 376.515 185.471 385.012 185.471C393.508 185.471 400.396 192.36 400.396 200.856Z"/>
<path d="M400.396 262.397C400.396 270.893 393.508 277.782 385.012 277.782C376.515 277.782 369.627 270.893 369.627 262.397C369.627 253.9 376.515 247.012 385.012 247.012C393.508 247.012 400.396 253.9 400.396 262.397Z"/>
<path d="M400.396 323.937C400.396 332.434 393.508 339.322 385.012 339.322C376.515 339.322 369.627 332.434 369.627 323.937C369.627 315.44 376.515 308.552 385.012 308.552C393.508 308.552 400.396 315.44 400.396 323.937Z"/>
<path d="M400.396 385.477C400.396 393.974 393.508 400.862 385.012 400.862C376.515 400.862 369.627 393.974 369.627 385.477C369.627 376.98 376.515 370.092 385.012 370.092C393.508 370.092 400.396 376.98 400.396 385.477Z"/>
</mask>
<path d="M31.1655 16.2362C31.1655 24.7331 24.2775 31.6212 15.7809 31.6212C7.28417 31.6212 0.39624 24.7331 0.39624 16.2362C0.39624 7.73931 7.28417 0.851196 15.7809 0.851196C24.2775 0.851196 31.1655 7.73931 31.1655 16.2362Z" stroke="#343434" stroke-opacity="0.1" stroke-width="4" mask="url(#path-1-inside-1)"/>
<path d="M31.1655 77.7763C31.1655 86.2732 24.2775 93.1613 15.7809 93.1613C7.28417 93.1613 0.39624 86.2732 0.39624 77.7763C0.39624 69.2794 7.28417 62.3913 15.7809 62.3913C24.2775 62.3913 31.1655 69.2794 31.1655 77.7763Z" stroke="#343434" stroke-opacity="0.1" stroke-width="4" mask="url(#path-1-inside-1)"/>
<path d="M31.1655 139.316C31.1655 147.813 24.2775 154.701 15.7809 154.701C7.28417 154.701 0.39624 147.813 0.39624 139.316C0.39624 130.819 7.28417 123.931 15.7809 123.931C24.2775 123.931 31.1655 130.819 31.1655 139.316Z" stroke="#343434" stroke-opacity="0.1" stroke-width="4" mask="url(#path-1-inside-1)"/>
<path d="M31.1655 200.856C31.1655 209.353 24.2775 216.242 15.7809 216.242C7.28417 216.242 0.39624 209.353 0.39624 200.856C0.39624 192.36 7.28417 185.471 15.7809 185.471C24.2775 185.471 31.1655 192.36 31.1655 200.856Z" stroke="#343434" stroke-opacity="0.1" stroke-width="4" mask="url(#path-1-inside-1)"/>
<path d="M31.1655 262.397C31.1655 270.893 24.2775 277.782 15.7809 277.782C7.28417 277.782 0.39624 270.893 0.39624 262.397C0.39624 253.9 7.28417 247.012 15.7809 247.012C24.2775 247.012 31.1655 253.9 31.1655 262.397Z" stroke="#343434" stroke-opacity="0.1" stroke-width="4" mask="url(#path-1-inside-1)"/>
<path d="M31.1655 323.937C31.1655 332.434 24.2775 339.322 15.7809 339.322C7.28417 339.322 0.39624 332.434 0.39624 323.937C0.39624 315.44 7.28417 308.552 15.7809 308.552C24.2775 308.552 31.1655 315.44 31.1655 323.937Z" stroke="#343434" stroke-opacity="0.1" stroke-width="4" mask="url(#path-1-inside-1)"/>
<path d="M31.1655 385.477C31.1655 393.974 24.2775 400.862 15.7809 400.862C7.28417 400.862 0.39624 393.974 0.39624 385.477C0.39624 376.98 7.28417 370.092 15.7809 370.092C24.2775 370.092 31.1655 376.98 31.1655 385.477Z" stroke="#343434" stroke-opacity="0.1" stroke-width="4" mask="url(#path-1-inside-1)"/>
<path d="M92.7039 16.2362C92.7039 24.7331 85.816 31.6212 77.3193 31.6212C68.8226 31.6212 61.9347 24.7331 61.9347 16.2362C61.9347 7.73931 68.8226 0.851196 77.3193 0.851196C85.816 0.851196 92.7039 7.73931 92.7039 16.2362Z" stroke="#343434" stroke-opacity="0.1" stroke-width="4" mask="url(#path-1-inside-1)"/>
<path d="M92.7039 77.7763C92.7039 86.2732 85.816 93.1613 77.3193 93.1613C68.8226 93.1613 61.9347 86.2732 61.9347 77.7763C61.9347 69.2794 68.8226 62.3913 77.3193 62.3913C85.816 62.3913 92.7039 69.2794 92.7039 77.7763Z" stroke="#343434" stroke-opacity="0.1" stroke-width="4" mask="url(#path-1-inside-1)"/>
<path d="M92.7039 139.316C92.7039 147.813 85.816 154.701 77.3193 154.701C68.8226 154.701 61.9347 147.813 61.9347 139.316C61.9347 130.819 68.8226 123.931 77.3193 123.931C85.816 123.931 92.7039 130.819 92.7039 139.316Z" stroke="#343434" stroke-opacity="0.1" stroke-width="4" mask="url(#path-1-inside-1)"/>
<path d="M92.7039 200.856C92.7039 209.353 85.816 216.242 77.3193 216.242C68.8226 216.242 61.9347 209.353 61.9347 200.856C61.9347 192.36 68.8226 185.471 77.3193 185.471C85.816 185.471 92.7039 192.36 92.7039 200.856Z" stroke="#343434" stroke-opacity="0.1" stroke-width="4" mask="url(#path-1-inside-1)"/>
<path d="M92.7039 262.397C92.7039 270.893 85.816 277.782 77.3193 277.782C68.8226 277.782 61.9347 270.893 61.9347 262.397C61.9347 253.9 68.8226 247.012 77.3193 247.012C85.816 247.012 92.7039 253.9 92.7039 262.397Z" stroke="#343434" stroke-opacity="0.1" stroke-width="4" mask="url(#path-1-inside-1)"/>
<path d="M92.7039 323.937C92.7039 332.434 85.816 339.322 77.3193 339.322C68.8226 339.322 61.9347 332.434 61.9347 323.937C61.9347 315.44 68.8226 308.552 77.3193 308.552C85.816 308.552 92.7039 315.44 92.7039 323.937Z" stroke="#343434" stroke-opacity="0.1" stroke-width="4" mask="url(#path-1-inside-1)"/>
<path d="M92.7039 385.477C92.7039 393.974 85.816 400.862 77.3193 400.862C68.8226 400.862 61.9347 393.974 61.9347 385.477C61.9347 376.98 68.8226 370.092 77.3193 370.092C85.816 370.092 92.7039 376.98 92.7039 385.477Z" stroke="#343434" stroke-opacity="0.1" stroke-width="4" mask="url(#path-1-inside-1)"/>
<path d="M154.242 16.2362C154.242 24.7331 147.354 31.6212 138.858 31.6212C130.361 31.6212 123.473 24.7331 123.473 16.2362C123.473 7.73931 130.361 0.851196 138.858 0.851196C147.354 0.851196 154.242 7.73931 154.242 16.2362Z" stroke="#343434" stroke-opacity="0.1" stroke-width="4" mask="url(#path-1-inside-1)"/>
<path d="M154.242 77.7763C154.242 86.2732 147.354 93.1613 138.858 93.1613C130.361 93.1613 123.473 86.2732 123.473 77.7763C123.473 69.2794 130.361 62.3913 138.858 62.3913C147.354 62.3913 154.242 69.2794 154.242 77.7763Z" stroke="#343434" stroke-opacity="0.1" stroke-width="4" mask="url(#path-1-inside-1)"/>
<path d="M154.242 139.316C154.242 147.813 147.354 154.701 138.858 154.701C130.361 154.701 123.473 147.813 123.473 139.316C123.473 130.819 130.361 123.931 138.858 123.931C147.354 123.931 154.242 130.819 154.242 139.316Z" stroke="#343434" stroke-opacity="0.1" stroke-width="4" mask="url(#path-1-inside-1)"/>
<path d="M154.242 200.856C154.242 209.353 147.354 216.242 138.858 216.242C130.361 216.242 123.473 209.353 123.473 200.856C123.473 192.36 130.361 185.471 138.858 185.471C147.354 185.471 154.242 192.36 154.242 200.856Z" stroke="#343434" stroke-opacity="0.1" stroke-width="4" mask="url(#path-1-inside-1)"/>
<path d="M154.242 262.397C154.242 270.893 147.354 277.782 138.858 277.782C130.361 277.782 123.473 270.893 123.473 262.397C123.473 253.9 130.361 247.012 138.858 247.012C147.354 247.012 154.242 253.9 154.242 262.397Z" stroke="#343434" stroke-opacity="0.1" stroke-width="4" mask="url(#path-1-inside-1)"/>
<path d="M154.242 323.937C154.242 332.434 147.354 339.322 138.858 339.322C130.361 339.322 123.473 332.434 123.473 323.937C123.473 315.44 130.361 308.552 138.858 308.552C147.354 308.552 154.242 315.44 154.242 323.937Z" stroke="#343434" stroke-opacity="0.1" stroke-width="4" mask="url(#path-1-inside-1)"/>
<path d="M154.242 385.477C154.242 393.974 147.354 400.862 138.858 400.862C130.361 400.862 123.473 393.974 123.473 385.477C123.473 376.98 130.361 370.092 138.858 370.092C147.354 370.092 154.242 376.98 154.242 385.477Z" stroke="#343434" stroke-opacity="0.1" stroke-width="4" mask="url(#path-1-inside-1)"/>
<path d="M215.781 16.2362C215.781 24.7331 208.893 31.6212 200.396 31.6212C191.9 31.6212 185.012 24.7331 185.012 16.2362C185.012 7.73931 191.9 0.851196 200.396 0.851196C208.893 0.851196 215.781 7.73931 215.781 16.2362Z" stroke="#343434" stroke-opacity="0.1" stroke-width="4" mask="url(#path-1-inside-1)"/>
<path d="M215.781 77.7763C215.781 86.2732 208.893 93.1613 200.396 93.1613C191.9 93.1613 185.012 86.2732 185.012 77.7763C185.012 69.2794 191.9 62.3913 200.396 62.3913C208.893 62.3913 215.781 69.2794 215.781 77.7763Z" stroke="#343434" stroke-opacity="0.1" stroke-width="4" mask="url(#path-1-inside-1)"/>
<path d="M215.781 139.316C215.781 147.813 208.893 154.701 200.396 154.701C191.9 154.701 185.012 147.813 185.012 139.316C185.012 130.819 191.9 123.931 200.396 123.931C208.893 123.931 215.781 130.819 215.781 139.316Z" stroke="#343434" stroke-opacity="0.1" stroke-width="4" mask="url(#path-1-inside-1)"/>
<path d="M215.781 200.856C215.781 209.353 208.893 216.242 200.396 216.242C191.9 216.242 185.012 209.353 185.012 200.856C185.012 192.36 191.9 185.471 200.396 185.471C208.893 185.471 215.781 192.36 215.781 200.856Z" stroke="#343434" stroke-opacity="0.1" stroke-width="4" mask="url(#path-1-inside-1)"/>
<path d="M215.781 262.397C215.781 270.893 208.893 277.782 200.396 277.782C191.9 277.782 185.012 270.893 185.012 262.397C185.012 253.9 191.9 247.012 200.396 247.012C208.893 247.012 215.781 253.9 215.781 262.397Z" stroke="#343434" stroke-opacity="0.1" stroke-width="4" mask="url(#path-1-inside-1)"/>
<path d="M215.781 323.937C215.781 332.434 208.893 339.322 200.396 339.322C191.9 339.322 185.012 332.434 185.012 323.937C185.012 315.44 191.9 308.552 200.396 308.552C208.893 308.552 215.781 315.44 215.781 323.937Z" stroke="#343434" stroke-opacity="0.1" stroke-width="4" mask="url(#path-1-inside-1)"/>
<path d="M215.781 385.477C215.781 393.974 208.893 400.862 200.396 400.862C191.9 400.862 185.012 393.974 185.012 385.477C185.012 376.98 191.9 370.092 200.396 370.092C208.893 370.092 215.781 376.98 215.781 385.477Z" stroke="#343434" stroke-opacity="0.1" stroke-width="4" mask="url(#path-1-inside-1)"/>
<path d="M277.319 16.2362C277.319 24.7331 270.431 31.6212 261.935 31.6212C253.438 31.6212 246.55 24.7331 246.55 16.2362C246.55 7.73931 253.438 0.851196 261.935 0.851196C270.431 0.851196 277.319 7.73931 277.319 16.2362Z" stroke="#343434" stroke-opacity="0.1" stroke-width="4" mask="url(#path-1-inside-1)"/>
<path d="M277.319 77.7763C277.319 86.2732 270.431 93.1613 261.935 93.1613C253.438 93.1613 246.55 86.2732 246.55 77.7763C246.55 69.2794 253.438 62.3913 261.935 62.3913C270.431 62.3913 277.319 69.2794 277.319 77.7763Z" stroke="#343434" stroke-opacity="0.1" stroke-width="4" mask="url(#path-1-inside-1)"/>
<path d="M277.319 139.316C277.319 147.813 270.431 154.701 261.935 154.701C253.438 154.701 246.55 147.813 246.55 139.316C246.55 130.819 253.438 123.931 261.935 123.931C270.431 123.931 277.319 130.819 277.319 139.316Z" stroke="#343434" stroke-opacity="0.1" stroke-width="4" mask="url(#path-1-inside-1)"/>
<path d="M277.319 200.856C277.319 209.353 270.431 216.242 261.935 216.242C253.438 216.242 246.55 209.353 246.55 200.856C246.55 192.36 253.438 185.471 261.935 185.471C270.431 185.471 277.319 192.36 277.319 200.856Z" stroke="#343434" stroke-opacity="0.1" stroke-width="4" mask="url(#path-1-inside-1)"/>
<path d="M277.319 262.397C277.319 270.893 270.431 277.782 261.935 277.782C253.438 277.782 246.55 270.893 246.55 262.397C246.55 253.9 253.438 247.012 261.935 247.012C270.431 247.012 277.319 253.9 277.319 262.397Z" stroke="#343434" stroke-opacity="0.1" stroke-width="4" mask="url(#path-1-inside-1)"/>
<path d="M277.319 323.937C277.319 332.434 270.431 339.322 261.935 339.322C253.438 339.322 246.55 332.434 246.55 323.937C246.55 315.44 253.438 308.552 261.935 308.552C270.431 308.552 277.319 315.44 277.319 323.937Z" stroke="#343434" stroke-opacity="0.1" stroke-width="4" mask="url(#path-1-inside-1)"/>
<path d="M277.319 385.477C277.319 393.974 270.431 400.862 261.935 400.862C253.438 400.862 246.55 393.974 246.55 385.477C246.55 376.98 253.438 370.092 261.935 370.092C270.431 370.092 277.319 376.98 277.319 385.477Z" stroke="#343434" stroke-opacity="0.1" stroke-width="4" mask="url(#path-1-inside-1)"/>
<path d="M338.858 16.2362C338.858 24.7331 331.97 31.6212 323.473 31.6212C314.977 31.6212 308.089 24.7331 308.089 16.2362C308.089 7.73931 314.977 0.851196 323.473 0.851196C331.97 0.851196 338.858 7.73931 338.858 16.2362Z" stroke="#343434" stroke-opacity="0.1" stroke-width="4" mask="url(#path-1-inside-1)"/>
<path d="M338.858 77.7763C338.858 86.2732 331.97 93.1613 323.473 93.1613C314.977 93.1613 308.089 86.2732 308.089 77.7763C308.089 69.2794 314.977 62.3913 323.473 62.3913C331.97 62.3913 338.858 69.2794 338.858 77.7763Z" stroke="#343434" stroke-opacity="0.1" stroke-width="4" mask="url(#path-1-inside-1)"/>
<path d="M338.858 139.316C338.858 147.813 331.97 154.701 323.473 154.701C314.977 154.701 308.089 147.813 308.089 139.316C308.089 130.819 314.977 123.931 323.473 123.931C331.97 123.931 338.858 130.819 338.858 139.316Z" stroke="#343434" stroke-opacity="0.1" stroke-width="4" mask="url(#path-1-inside-1)"/>
<path d="M338.858 200.856C338.858 209.353 331.97 216.242 323.473 216.242C314.977 216.242 308.089 209.353 308.089 200.856C308.089 192.36 314.977 185.471 323.473 185.471C331.97 185.471 338.858 192.36 338.858 200.856Z" stroke="#343434" stroke-opacity="0.1" stroke-width="4" mask="url(#path-1-inside-1)"/>
<path d="M338.858 262.397C338.858 270.893 331.97 277.782 323.473 277.782C314.977 277.782 308.089 270.893 308.089 262.397C308.089 253.9 314.977 247.012 323.473 247.012C331.97 247.012 338.858 253.9 338.858 262.397Z" stroke="#343434" stroke-opacity="0.1" stroke-width="4" mask="url(#path-1-inside-1)"/>
<path d="M338.858 323.937C338.858 332.434 331.97 339.322 323.473 339.322C314.977 339.322 308.089 332.434 308.089 323.937C308.089 315.44 314.977 308.552 323.473 308.552C331.97 308.552 338.858 315.44 338.858 323.937Z" stroke="#343434" stroke-opacity="0.1" stroke-width="4" mask="url(#path-1-inside-1)"/>
<path d="M338.858 385.477C338.858 393.974 331.97 400.862 323.473 400.862C314.977 400.862 308.089 393.974 308.089 385.477C308.089 376.98 314.977 370.092 323.473 370.092C331.97 370.092 338.858 376.98 338.858 385.477Z" stroke="#343434" stroke-opacity="0.1" stroke-width="4" mask="url(#path-1-inside-1)"/>
<path d="M400.396 16.2362C400.396 24.7331 393.508 31.6212 385.012 31.6212C376.515 31.6212 369.627 24.7331 369.627 16.2362C369.627 7.73931 376.515 0.851196 385.012 0.851196C393.508 0.851196 400.396 7.73931 400.396 16.2362Z" stroke="#343434" stroke-opacity="0.1" stroke-width="4" mask="url(#path-1-inside-1)"/>
<path d="M400.396 77.7763C400.396 86.2732 393.508 93.1613 385.012 93.1613C376.515 93.1613 369.627 86.2732 369.627 77.7763C369.627 69.2794 376.515 62.3913 385.012 62.3913C393.508 62.3913 400.396 69.2794 400.396 77.7763Z" stroke="#343434" stroke-opacity="0.1" stroke-width="4" mask="url(#path-1-inside-1)"/>
<path d="M400.396 139.316C400.396 147.813 393.508 154.701 385.012 154.701C376.515 154.701 369.627 147.813 369.627 139.316C369.627 130.819 376.515 123.931 385.012 123.931C393.508 123.931 400.396 130.819 400.396 139.316Z" stroke="#343434" stroke-opacity="0.1" stroke-width="4" mask="url(#path-1-inside-1)"/>
<path d="M400.396 200.856C400.396 209.353 393.508 216.242 385.012 216.242C376.515 216.242 369.627 209.353 369.627 200.856C369.627 192.36 376.515 185.471 385.012 185.471C393.508 185.471 400.396 192.36 400.396 200.856Z" stroke="#343434" stroke-opacity="0.1" stroke-width="4" mask="url(#path-1-inside-1)"/>
<path d="M400.396 262.397C400.396 270.893 393.508 277.782 385.012 277.782C376.515 277.782 369.627 270.893 369.627 262.397C369.627 253.9 376.515 247.012 385.012 247.012C393.508 247.012 400.396 253.9 400.396 262.397Z" stroke="#343434" stroke-opacity="0.1" stroke-width="4" mask="url(#path-1-inside-1)"/>
<path d="M400.396 323.937C400.396 332.434 393.508 339.322 385.012 339.322C376.515 339.322 369.627 332.434 369.627 323.937C369.627 315.44 376.515 308.552 385.012 308.552C393.508 308.552 400.396 315.44 400.396 323.937Z" stroke="#343434" stroke-opacity="0.1" stroke-width="4" mask="url(#path-1-inside-1)"/>
<path d="M400.396 385.477C400.396 393.974 393.508 400.862 385.012 400.862C376.515 400.862 369.627 393.974 369.627 385.477C369.627 376.98 376.515 370.092 385.012 370.092C393.508 370.092 400.396 376.98 400.396 385.477Z" stroke="#343434" stroke-opacity="0.1" stroke-width="4" mask="url(#path-1-inside-1)"/>
</svg>
