<svg width="222" height="33" viewBox="0 0 222 33" fill="none" xmlns="http://www.w3.org/2000/svg">
<g clip-path="url(#clip0)">
<path d="M15.8905 14.4002C17.7599 12.6002 19.941 11.7002 22.5894 11.7002V9.30019H19.3178C16.8252 10.0502 14.7999 11.5502 13.242 13.6502V12.1502L12.4631 9.30019H9.97046V32.4002H13.0862V20.8502C13.0862 18.3002 14.021 16.2002 15.8905 14.4002ZM62.3157 13.8002L64.1852 11.4002C61.6926 9.60019 58.8884 8.7002 55.9284 8.7002C53.7473 8.7002 51.722 9.30019 50.1641 10.5002C48.6062 11.7002 47.8273 13.2002 47.8273 15.0002C47.8273 16.8002 48.6062 18.1502 50.0083 19.3502C51.2547 20.2502 53.4357 21.0002 56.3957 21.6002C59.0441 22.0502 60.9136 22.8002 61.8483 23.5502C62.6273 24.1502 62.9389 24.9002 62.9389 25.9502C62.9389 27.1502 62.4715 28.0502 61.381 28.8002C60.1347 29.7002 58.5768 30.1502 56.7073 30.1502C53.5915 30.1502 50.9431 29.1002 48.762 27.1502L46.581 29.4002C47.9831 30.6002 49.541 31.5002 51.2547 32.2502C52.9684 32.8502 54.682 33.3002 56.7073 33.3002C59.3557 33.3002 61.5368 32.7002 63.4062 31.3502C65.1199 30.0002 66.0547 28.2002 66.0547 26.1002C66.0547 24.1502 65.2757 22.5002 63.8736 21.3002C62.4715 20.2502 60.1347 19.5002 57.0189 18.9002C54.5262 18.4502 52.8126 17.8502 51.8778 17.2502C51.2547 16.8002 50.9431 16.2002 50.9431 15.3002C50.9431 14.4002 51.4105 13.6502 52.3452 13.0502C52.9683 12.0002 54.2147 11.5502 55.7726 11.5502C58.1094 11.5502 60.2905 12.3002 62.3157 13.8002Z" fill="#F84001"/>
<path d="M111.701 0H108.585V32.25H111.701V0ZM103.756 12.3C101.575 9.9 98.9263 8.7 95.9663 8.7C93.0063 8.7 90.3579 9.9 88.0211 12.3C85.84 14.7 84.7495 17.55 84.7495 20.85C84.7495 24.15 85.9958 27 88.3327 29.4C90.8253 31.8 93.7853 33 97.2127 33C100.484 33 103.288 31.95 105.781 29.7L103.6 27.6C101.731 29.1 99.7053 29.85 97.2127 29.85C94.72 29.85 92.539 28.95 90.6695 27.3C88.8 25.65 87.8653 23.55 87.7095 21.15H106.872V20.7C107.183 17.4 105.937 14.55 103.756 12.3ZM91.1369 13.5C92.539 12.3 94.2527 11.55 96.1221 11.55C97.9916 11.55 99.5495 12.15 100.952 13.5C102.354 14.7 103.288 16.35 103.756 18.3H88.3327C88.8 16.35 89.7348 14.7 91.1369 13.5ZM131.798 12.3C129.617 9.9 126.968 8.7 123.853 8.7C120.737 8.7 118.244 9.9 116.063 12.3C113.882 14.7 112.792 17.55 112.792 20.85C112.792 24.15 114.038 27 116.531 29.4C119.023 31.8 121.983 33 125.411 33C128.682 33 131.486 31.95 133.979 29.7L131.798 27.6C129.928 29.1 127.903 29.85 125.411 29.85C122.918 29.85 120.737 28.95 118.867 27.3C116.998 25.65 116.063 23.55 115.907 21.15H135.069V20.7C135.069 17.4 133.979 14.55 131.798 12.3ZM123.853 11.55C125.722 11.55 127.28 12.15 128.838 13.5C130.24 14.7 131.175 16.35 131.642 18.3H116.219C116.686 16.35 117.621 14.7 119.023 13.5C120.425 12.3 122.139 11.55 123.853 11.55ZM170.278 8.55C166.851 8.55 163.891 9.75 161.398 12.15C158.905 14.55 157.815 17.4 157.815 20.7C157.815 24 159.061 26.85 161.398 29.25C163.891 31.65 166.851 32.85 170.278 32.85C173.705 32.85 176.665 31.65 179.158 29.25C181.651 26.85 182.897 24 182.897 20.7C182.897 17.4 181.651 14.55 179.158 12.15C176.821 9.9 173.861 8.55 170.278 8.55ZM170.278 11.55C172.926 11.55 175.107 12.45 176.977 14.25C178.846 16.05 179.781 18.15 179.781 20.7C179.781 23.25 178.846 25.35 176.977 27.15C175.107 28.95 172.926 29.85 170.278 29.85C167.629 29.85 165.448 28.95 163.579 27.15C161.709 25.35 160.775 23.25 160.775 20.7C160.775 18.15 161.709 16.05 163.579 14.25C165.448 12.45 167.785 11.55 170.278 11.55ZM155.478 14.4L157.659 12.3C155.166 9.9 152.206 8.7 148.779 8.7C145.352 8.7 142.392 9.9 139.899 12.3C137.406 14.7 136.316 17.55 136.316 20.85C136.316 24.15 137.562 27 139.899 29.4C142.392 31.8 145.352 33 148.779 33C152.518 33 155.634 31.8 158.282 29.4L156.101 27.45C154.076 29.1 151.583 30 148.779 30C146.131 30 143.949 29.1 142.08 27.3C140.211 25.5 139.276 23.4 139.276 20.85C139.276 18.3 140.211 16.2 142.08 14.4C143.949 12.6 146.131 11.7 148.779 11.7C151.427 11.55 153.608 12.45 155.478 14.4ZM187.259 9.3H184.766V32.4H187.882V18.45C187.882 16.65 188.505 15 189.907 13.8C191.309 12.45 193.023 11.7 194.893 11.7C196.762 11.7 198.476 12.45 199.878 13.8C201.28 15.15 201.903 16.65 201.903 18.45V32.4H205.019V18.45C205.019 16.65 205.642 15 207.044 13.8C208.446 12.45 210.004 11.7 212.029 11.7C213.899 11.7 215.613 12.45 217.015 13.8C218.417 15.15 219.04 16.65 219.04 18.45V32.4H222V18.15C222 15.6 221.065 13.35 219.196 11.4C217.326 9.6 214.989 8.55 212.341 8.55C210.472 8.55 208.914 9 207.356 10.05C205.798 10.95 204.707 12.15 203.773 13.65C202.838 12.15 201.747 10.95 200.189 10.05C198.632 9.15 197.074 8.55 195.204 8.55C192.244 8.55 189.752 9.6 187.726 11.85L187.259 9.3Z" fill="#72A1B3"/>
<path d="M3.11579 12.15H8.41263V9.3H3.11579V3H0V24C0 25.95 0.467368 27.6 1.55789 29.1C2.64842 30.6 4.05053 31.65 5.92 32.25H9.03579V30C7.32211 30 5.92 29.4 4.82947 28.2C3.73895 27 3.11579 25.65 3.11579 24V12.15Z" fill="#F84001"/>
<path d="M70.1053 12.15H75.5579V9.3H70.1053V3H66.9895V24C66.9895 25.95 67.4569 27.6 68.5474 29.1C69.6379 30.6 71.04 31.65 72.9095 32.25H76.1811V30C74.4674 30 73.0653 29.4 71.819 28.2C70.5727 27 70.1053 25.65 70.1053 24V12.15Z" fill="#F84001"/>
<path d="M79.1412 12.15H84.5938V9.3H79.1412V3H76.0254V24C76.0254 25.95 76.6486 27.6 77.7391 29.1C78.8296 30.6 80.2317 31.65 82.1012 32.25H85.217V30C83.5033 30 82.1012 29.4 80.8549 28.2C79.6086 27 78.9854 25.65 78.9854 24V12.15H79.1412Z" fill="#72A1B3"/>
<path d="M46.2696 9.30005H43.1538V22.05C43.1538 24.15 42.3749 26.1 40.817 27.6C39.2591 29.1 37.2338 29.85 35.0528 29.85C32.8717 29.85 30.8465 29.1 29.2886 27.6C27.7307 26.1 26.9517 24.15 26.9517 22.05V9.30005H23.8359V22.5C23.8359 25.35 24.9265 27.9 27.1075 30C29.1328 31.95 31.6254 33 34.7412 33.15H35.3644C38.6359 33 41.1286 31.95 42.998 30C45.1791 27.9 46.2696 25.5 46.2696 22.5V9.30005Z" fill="#F84001"/>
</g>
<defs>
<clipPath id="clip0">
<rect width="222" height="33" fill="white"/>
</clipPath>
</defs>
</svg>
