<svg width="74" height="46" fill="none" xmlns="http://www.w3.org/2000/svg"><path d="M69.664 15.813H68.22v-6.47c0-3.17-2.594-5.75-5.781-5.75a5.764 5.764 0 0 0-3.04.862A5.782 5.782 0 0 0 53.766 0h-.002c-3.187 0-5.781 2.58-5.781 5.75v10.063H26.017V5.75c0-3.17-2.595-5.75-5.783-5.75a5.782 5.782 0 0 0-5.632 4.455 5.764 5.764 0 0 0-3.04-.861c-3.187 0-5.78 2.579-5.78 5.75v6.469H4.335C1.946 15.813 0 17.747 0 20.125v5.75c0 2.378 1.946 4.313 4.336 4.313H5.78v6.468c0 3.171 2.594 5.75 5.782 5.75a5.764 5.764 0 0 0 3.04-.86A5.782 5.782 0 0 0 20.233 46h.002c3.186 0 5.781-2.58 5.781-5.75V30.187h21.966V40.25c0 3.17 2.595 5.75 5.783 5.75a5.782 5.782 0 0 0 5.632-4.455 5.763 5.763 0 0 0 3.04.861c3.186 0 5.78-2.579 5.78-5.75v-6.468h1.446c2.39 0 4.336-1.935 4.336-4.313v-5.75c0-2.378-1.945-4.313-4.336-4.313zm-63.883 11.5H4.336a1.443 1.443 0 0 1-1.445-1.438v-5.75c0-.792.648-1.438 1.445-1.438H5.78v8.625zm8.672 9.343c0 .794-.323 1.512-.847 2.033a2.89 2.89 0 0 1-2.043.842 2.885 2.885 0 0 1-2.891-2.875V9.344a2.886 2.886 0 0 1 2.89-2.875 2.885 2.885 0 0 1 2.891 2.875v27.312zm8.674 3.594a2.887 2.887 0 0 1-2.89 2.875h-.003a2.887 2.887 0 0 1-2.89-2.875V5.75a2.887 2.887 0 0 1 2.892-2.875c1.593 0 2.89 1.29 2.89 2.875v34.5zm24.847-18.688H37.867c-.798 0-1.445.645-1.445 1.438 0 .793.647 1.438 1.445 1.438h10.107v2.875H26.01v-8.625h21.964v2.875zm8.682 18.688a2.887 2.887 0 0 1-2.892 2.875 2.887 2.887 0 0 1-2.89-2.875V23.074a.815.815 0 0 1-.01.093v-.334c.005.03.008.062.01.093V5.75a2.887 2.887 0 0 1 2.89-2.875h.002c1.592 0 2.89 1.29 2.89 2.875v34.5zm8.672-3.594a2.885 2.885 0 0 1-2.89 2.875 2.885 2.885 0 0 1-2.891-2.875V9.344a2.885 2.885 0 0 1 2.89-2.875 2.885 2.885 0 0 1 2.891 2.875v27.312zm5.781-10.781c0 .792-.648 1.438-1.445 1.438H68.22v-8.625h1.445c.797 0 1.445.645 1.445 1.437v5.75z" fill="#E20000"/><path d="M32.647 24.302A1.304 1.304 0 0 1 31.341 23c0-.72.584-1.302 1.305-1.302h.001c.721 0 1.306.583 1.306 1.302 0 .72-.585 1.302-1.306 1.302z" fill="#E20000"/></svg>