<svg width="56" height="74" fill="none" xmlns="http://www.w3.org/2000/svg"><path d="M1.952 71.11h-.034a1.445 1.445 0 0 0 0 2.89h.034a1.445 1.445 0 1 0 0-2.89zm51.998 0h-.035a1.445 1.445 0 0 0 0 2.89h.034a1.445 1.445 0 0 0 0-2.89zm-4.187 0H35.16V60.702h10.117a4.34 4.34 0 0 0 4.336-4.336V4.336A4.34 4.34 0 0 0 45.278 0H10.59a4.34 4.34 0 0 0-4.336 4.336v52.031a4.34 4.34 0 0 0 4.336 4.336h10.118V71.11H6.105a1.445 1.445 0 1 0 0 2.891h43.658a1.445 1.445 0 0 0 0-2.89zM10.59 57.812a1.447 1.447 0 0 1-1.445-1.446V4.336c0-.797.648-1.445 1.445-1.445h34.688c.797 0 1.445.648 1.445 1.445v52.031c0 .797-.648 1.446-1.445 1.446H10.59zm21.68 13.296h-8.672V60.703h8.672V71.11z" fill="#E20000"/><path d="M27.808 14.803l-.025.025a1.446 1.446 0 0 0 2.02 2.067l.026-.024a1.446 1.446 0 0 0-2.02-2.067z" fill="#E20000"/><path d="M42.387 5.78H13.48c-.798 0-1.445.648-1.445 1.446v46.25c0 .799.647 1.446 1.445 1.446h28.907c.798 0 1.445-.647 1.445-1.446V7.226c0-.798-.647-1.445-1.445-1.445zM14.926 8.672h10.38l-10.38 10.381V8.672zm26.016 43.36h-10.38l10.38-10.38v10.38zm0-14.468L26.473 52.03H14.926V23.14L29.394 8.67h4.546l-3.208 3.208a1.445 1.445 0 1 0 2.044 2.044l5.216-5.216c.012-.011.021-.024.033-.036h2.917v28.892z" fill="#E20000"/></svg>