<svg version="1.1" id="Capa_1" xmlns="http://www.w3.org/2000/svg" x="0" y="0" viewBox="0 0 512 512" xml:space="preserve">
  <style>
    .st0{fill:#db3740}
  </style>
  <path class="st0" d="M321 465c28-29 35-50 18-68s-26-41-23-54c5-22 24-42 14-64l-94-53 20 244"/>
  <path d="M489 256c0 16 18 34 15 49-2 9-10 16-18 23l-230-72 72 230c-7 8-14 16-23 18-15 3-33-16-49-16s-34 19-49 16c-16-3-26-27-40-33-15-6-38 4-52-5-13-9-12-34-23-46-12-11-38-10-46-24-9-13 1-36-5-51s-30-24-33-40c-3-15 15-33 15-49S5 222 8 207c3-16 27-26 33-40 6-15-4-38 5-52 8-13 34-12 45-23s11-37 24-46c14-9 37 1 52-5s24-30 40-33c15-3 33 16 49 16s34-19 49-16c16 3 26 27 40 33 15 6 38-4 52 5 13 9 12 34 24 46 11 11 37 10 45 24 9 13-1 36 5 51s30 24 33 40c3 15-15 33-15 49z" fill="#db943e"/>
  <path d="M98 109c-9 13 2 38-5 54-6 15-31 25-35 41-3 16 17 35 17 52s-20 36-17 52c4 16 29 26 35 41 6 16-4 41 5 55 9 13 36 13 48 25 10 9 11 29 19 41-15-4-37 5-49-4-14-8-13-34-24-45-11-12-37-11-46-24s1-37-5-52c-6-14-30-24-33-40-3-15 16-33 16-49S5 222 8 207c3-16 27-26 33-40 6-15-4-38 5-52 8-13 34-12 45-23s11-37 24-46 35 0 50-4c-8 12-9 32-19 42-12 11-39 11-48 25z" fill="#e07e27"/>
  <path d="M438 313l-182-57 57 182a191 191 0 11125-125z" fill="#ffbd44"/>
  <ellipse transform="rotate(-75 282 158)" class="st0" cx="282.3" cy="157.8" rx="31.2" ry="16.1"/>
  <ellipse transform="rotate(-75 230 354)" class="st0" cx="230.2" cy="354.3" rx="31.2" ry="16.1"/>
  <ellipse transform="rotate(-45 184 184)" class="st0" cx="184" cy="184.2" rx="16.1" ry="31.2"/>
  <ellipse transform="rotate(-15 158 283)" class="st0" cx="157.9" cy="282.5" rx="31.2" ry="16.1"/>
  <ellipse transform="rotate(-15 354 230)" class="st0" cx="353.9" cy="229.5" rx="31.2" ry="16.1"/>
  <path d="M503 276c-3-7-7-14-7-20s4-13 7-20c5-10 11-20 9-31-3-11-12-19-20-26-6-5-12-10-14-15s-2-13-1-21c1-11 2-23-4-32-7-9-18-13-28-16-8-2-15-5-19-9s-7-11-9-19c-3-10-7-21-16-28-10-6-21-5-32-4-8 1-16 1-21-1s-10-8-15-14c-7-8-15-17-26-20-11-2-21 3-31 9-7 3-14 7-20 7s-13-4-20-7c-10-6-20-11-31-9-11 3-19 12-26 20-5 6-10 12-15 14s-13 2-21 1l-13-1a7 7 0 100 15l12 1c10 1 19 1 28-2 8-4 15-11 21-18 5-7 11-14 17-15s14 3 21 7c9 4 18 9 27 9s18-5 27-9c7-4 15-8 21-7s12 8 18 15 12 15 20 18c9 3 19 3 28 2s18-1 23 2 7 12 10 20c3 9 6 18 12 25 7 6 16 9 25 12 8 3 17 5 20 10 4 5 3 14 2 23s-1 19 2 28c4 8 11 14 18 20s14 12 15 18-3 13-7 21c-4 9-9 18-9 27s5 18 9 27c4 7 8 15 7 21-1 5-7 10-12 15l-38-11c3-12 6-24 6-37 1-4-2-7-6-8-5 0-8 3-9 7 0 11-2 22-5 33l-175-54c-2-1-5 0-7 2s-3 5-2 7l54 175a183 183 0 11135-191 8 8 0 1015-2A197 197 0 00256 58a198 198 0 1052 389l11 38c-5 5-10 11-15 12-6 1-14-3-21-7-9-4-18-9-27-9s-18 5-27 9c-7 4-15 8-21 7s-12-8-18-15-12-14-20-18c-9-3-19-3-28-2s-18 1-23-2-7-12-10-20c-3-9-6-18-12-25-7-6-16-9-25-12-8-3-17-5-20-10-4-5-3-14-2-23s1-19-2-28c-4-8-11-14-18-20s-14-12-15-18 3-13 7-21c4-9 9-18 9-27s-5-18-9-27c-4-7-8-15-7-21s8-12 15-17c7-6 14-13 18-21 3-8 3-18 2-28-1-8-2-17 2-22 3-5 12-8 20-11 9-3 18-6 25-12 6-6 9-16 12-25l4-11c2-4 0-8-4-10s-8 0-10 4l-4 13c-3 7-5 15-9 18-4 4-11 7-19 9-11 4-22 7-28 16-6 10-5 21-4 32 0 8 1 16-1 21s-8 10-14 15c-8 7-18 15-20 26s3 21 8 31c4 7 8 14 8 20s-4 13-8 20c-5 10-10 20-8 31s12 19 20 26c6 5 12 10 14 15s1 13 1 21c-1 11-2 23 4 32s17 13 28 16c7 2 15 5 19 9s6 11 9 19c3 10 7 22 16 28s21 5 32 4c8-1 16-1 21 1s10 8 15 14c7 8 15 17 26 20h5c9 0 17-4 26-8 7-4 14-8 20-8 5 0 12 4 19 8 10 5 21 10 31 8 11-2 19-12 26-20l1-1c2-2 2-4 1-7l-5-17c14-14 22-27 25-38 4-14 0-26-10-37-16-16-23-37-21-47 2-7 4-13 8-20 4-11 10-22 9-35l144 45c3 1 5 0 7-2h1c8-7 17-15 20-26 2-11-4-21-9-31zm-186 43l-8 22c-4 18 6 43 24 62 9 8 14 21-9 47l-57-183 58 18c3 11-2 22-8 34z"/>
  <path d="M287 121c-14 6-24 17-28 31s0 28 9 41l6 3 3-1c14-6 24-17 28-31 3-14 0-28-9-41-2-3-6-4-9-2zm3 39c-2 7-6 14-13 18-4-7-5-15-3-22s6-14 13-19c4 8 5 16 3 23zM222 392l3-1c14-6 24-17 28-31 3-13 0-28-9-41-2-2-6-3-9-2-14 6-24 17-28 31s0 28 9 41c1 2 4 3 6 3zm0-40c1-7 6-14 13-18 4 7 5 15 3 22s-6 14-13 18c-4-7-5-15-3-22zM207 214c4-1 6-3 7-7 1-15-3-29-13-39a47 47 0 00-40-13c-3 0-6 3-7 7-1 15 3 29 13 39a46 46 0 0040 13zm-29-23c-5-6-8-13-9-21 8 0 16 3 21 8 5 6 8 13 9 21-8 0-16-3-21-8zM152 260c-14 3-25 13-31 28-1 3 0 7 2 9 10 6 20 10 30 10l11-2c14-3 25-13 31-28 1-3 0-7-2-9-13-9-28-12-41-8zm8 31c-7 2-15 1-22-3 4-7 10-12 18-14s15-1 22 3c-4 7-10 12-18 14zM348 207c-14 3-25 13-31 28-1 3 0 7 2 9 10 6 20 10 30 10l11-2c14-3 25-13 31-28 1-3 0-7-2-9-13-9-27-12-41-8zm8 31c-7 2-15 1-22-3 4-7 11-12 18-14s15-1 22 3c-4 7-10 12-18 14z"/>
</svg>
