<?xml version="1.0" encoding="utf-8"?>
<!-- Generator: Adobe Illustrator 24.0.1, SVG Export Plug-In . SVG Version: 6.00 Build 0)  -->
<svg version="1.1" id="Capa_1" xmlns="http://www.w3.org/2000/svg" xmlns:xlink="http://www.w3.org/1999/xlink" x="0px" y="0px"
	 viewBox="0 0 512 512" style="enable-background:new 0 0 512 512;" xml:space="preserve">
<style type="text/css">
	.st0{fill:#DB3740;}
	.st1{fill:#DB943E;}
	.st2{fill:#E07E27;}
	.st3{fill:#FFBD44;}
</style>
<path class="st0" d="M320.9,464.6c28.3-28.3,35.5-49.6,17.8-67.4s-25.7-41-22.6-54.2c5.2-22,23.8-41.8,14.3-63.8l-94.3-53.5
	L256,470.1"/>
<path class="st1" d="M488.5,256c0,16.2,18.7,34,15.6,49.4c-1.7,8.8-9.9,15.5-17.9,22.3L256,256l71.7,230.2
	c-6.8,8-13.5,16.2-22.3,17.9c-15.3,3-33.1-15.6-49.4-15.6s-34,18.7-49.4,15.6c-15.8-3.1-25.1-27.3-39.6-33.3
	c-14.8-6.1-38.4,4.3-51.6-4.5c-13.2-8.9-12.6-34.7-23.8-45.9c-11.2-11.2-37.1-10.6-45.9-23.9c-8.8-13.1,1.6-36.8-4.5-51.6
	c-6-14.5-30.1-23.9-33.3-39.6c-3-15.3,15.6-33.1,15.6-49.4S4.8,222,7.8,206.6c3.1-15.8,27.3-25.1,33.3-39.6
	c6.1-14.8-4.3-38.4,4.5-51.6c8.9-13.2,34.7-12.6,45.9-23.8s10.6-37.1,23.9-45.9c13.1-8.8,36.8,1.6,51.6-4.5
	c14.5-6,23.9-30.1,39.7-33.3c15.3-3,33.1,15.6,49.4,15.6s34-18.7,49.4-15.6c15.8,3.1,25.1,27.3,39.6,33.3
	c14.8,6.1,38.4-4.3,51.6,4.5c13.2,8.9,12.6,34.7,23.9,45.9c11.2,11.2,37.1,10.6,45.9,23.9c8.8,13.1-1.6,36.8,4.5,51.6
	c6,14.5,30.1,23.9,33.3,39.6C507.2,222,488.5,239.8,488.5,256z"/>
<path class="st2" d="M97.9,108.6c-9.2,13.8,1.7,38.6-4.7,54.1c-6.3,15.2-31.6,25-34.9,41.6c-3.2,16,16.3,34.7,16.3,51.7
	S55,291.7,58.2,307.8c3.3,16.5,28.6,26.3,34.9,41.6c6.4,15.5-4.5,40.3,4.8,54.1c9.3,13.9,36.4,13.3,48.2,25
	c9.7,9.7,11,29.7,18.8,41.7c-14.8-4.5-36.9,4.6-49.4-3.8c-13.2-8.9-12.6-34.7-23.8-45.9c-11.2-11.2-37.1-10.6-45.9-23.9
	c-8.8-13.1,1.6-36.8-4.5-51.6c-6-14.5-30.1-23.9-33.3-39.6c-3-15.3,15.6-33.1,15.6-49.4S4.8,222,7.8,206.6
	c3.1-15.8,27.3-25.1,33.3-39.6c6.1-14.8-4.3-38.4,4.5-51.6c8.9-13.2,34.7-12.6,45.9-23.8s10.6-37.1,23.9-45.9
	c12.5-8.4,34.6,0.7,49.5-3.8c-7.8,12-9.1,32-18.8,41.7C134.3,95.3,107.2,94.7,97.9,108.6z"/>
<path class="st3" d="M437.9,312.6L256,256l56.6,181.9c-17.9,5.5-36.9,8.5-56.6,8.5c-105.2,0-190.5-85.3-190.5-190.5
	S150.8,65.5,256,65.5S446.5,150.8,446.5,256C446.5,275.7,443.5,294.7,437.9,312.6L437.9,312.6z"/>
<g>
	<g>
		
			<ellipse transform="matrix(0.2569 -0.9664 0.9664 0.2569 57.2835 390.0244)" class="st0" cx="282.3" cy="157.8" rx="31.2" ry="16.1"/>
		
			<ellipse transform="matrix(0.2569 -0.9664 0.9664 0.2569 -171.3142 485.7708)" class="st0" cx="230.2" cy="354.3" rx="31.2" ry="16.1"/>
	</g>
</g>
<g>
	<g>
		
			<ellipse transform="matrix(0.7051 -0.7091 0.7091 0.7051 -76.3354 184.7825)" class="st0" cx="184" cy="184.2" rx="16.1" ry="31.2"/>
	</g>
</g>
<g>
	<g>
		
			<ellipse transform="matrix(0.9653 -0.2611 0.2611 0.9653 -68.284 51.0284)" class="st0" cx="157.9" cy="282.5" rx="31.2" ry="16.1"/>
		
			<ellipse transform="matrix(0.9653 -0.2611 0.2611 0.9653 -47.647 100.365)" class="st0" cx="353.9" cy="229.5" rx="31.2" ry="16.1"/>
	</g>
</g>
<path d="M503.3,275.9c-3.6-7-7.3-14.1-7.3-19.9s3.7-12.9,7.3-19.9c5.1-9.9,10.4-20.2,8.2-30.9c-2.2-11.1-11.6-19.1-19.8-26.1
	c-5.8-4.9-11.8-10-13.9-15c-2.1-5.2-1.5-13.1-0.9-20.8c0.9-11.2,1.8-22.8-4.3-32c-6.2-9.3-17.3-12.9-28.1-16.3
	c-7.3-2.3-14.9-4.8-18.8-8.7c-3.9-3.9-6.3-11.4-8.7-18.8c-3.5-10.8-7-21.9-16.3-28.1c-9.2-6.2-20.8-5.2-32-4.3
	c-7.7,0.6-15.7,1.3-20.8-0.9c-5-2.1-10.1-8.1-15-13.9c-7-8.3-15-17.6-26.1-19.9c-10.7-2.1-21,3.1-30.9,8.2c-7,3.6-14.1,7.3-19.9,7.3
	s-12.9-3.7-19.9-7.3c-9.9-5.1-20.2-10.4-30.9-8.2c-11.1,2.2-19.1,11.6-26.1,19.8c-4.9,5.8-10,11.8-15,13.9
	c-5.2,2.1-13.1,1.5-20.8,0.9c-4.4-0.4-9-0.7-13.5-0.6c-4.1,0.1-7.4,3.5-7.3,7.7c0.1,4.1,3.5,7.4,7.7,7.3c3.7-0.1,7.7,0.2,12,0.6
	c9.5,0.8,19.2,1.5,27.8-2c8.3-3.5,14.6-10.9,20.7-18c5.7-6.7,11.6-13.6,17.5-14.8c5.6-1.1,13.5,2.9,21.2,6.9
	c8.5,4.4,17.4,8.9,26.7,8.9c9.4,0,18.2-4.5,26.7-8.9c7.6-3.9,15.5-8,21.2-6.9c6,1.2,11.9,8.1,17.6,14.8c6.1,7.2,12.3,14.6,20.7,18
	c8.5,3.5,18.3,2.7,27.8,2c8.7-0.7,17.6-1.4,22.5,1.8c5,3.3,7.7,11.9,10.4,20.2c2.9,9,5.9,18.3,12.3,24.8c6.5,6.5,15.8,9.5,24.8,12.3
	c8.3,2.7,16.9,5.4,20.2,10.4c3.3,4.9,2.6,13.8,1.9,22.5c-0.8,9.5-1.6,19.3,2,27.8c3.5,8.3,10.9,14.6,18,20.7
	c6.7,5.7,13.6,11.6,14.8,17.5c1.1,5.6-2.9,13.5-6.9,21.2c-4.4,8.5-8.9,17.4-8.9,26.7c0,9.4,4.5,18.2,8.9,26.7
	c3.9,7.6,8,15.5,6.9,21.2c-1,5.2-6.5,10.4-12.3,15.4l-37.4-11.6c3.2-11.8,5.3-23.9,6.2-36.1c0.3-4.1-2.8-7.7-6.9-8.1
	c-4.1-0.3-7.7,2.8-8.1,6.9c-0.9,11.1-2.7,22-5.6,32.8l-174.6-54.3c-2.7-0.8-5.6-0.1-7.5,1.9c-2,2-2.7,4.9-1.9,7.5l54.3,174.6
	c-15.3,4.1-31.2,6.1-47.2,6.1c-100.9,0-183-82.1-183-183S155.1,73,256,73c46.4,0,90.6,17.4,124.5,48.9
	c33.8,31.4,54.3,73.9,57.9,119.7c0.3,4.1,3.9,7.2,8.1,6.9c4.1-0.3,7.2-3.9,6.9-8.1c-3.8-49.5-26.1-95.5-62.6-129.5
	C354,76.8,306.2,58,256,58C146.8,58,58,146.8,58,256s88.8,198,198,198c17.5,0,34.9-2.3,51.6-6.8l11.6,37.4
	c-5,5.8-10.1,11.2-15.4,12.3c-5.6,1.1-13.5-2.9-21.2-6.9c-8.5-4.4-17.4-8.9-26.7-8.9c-9.4,0-18.2,4.5-26.7,8.9
	c-7.6,3.9-15.5,8-21.2,6.9c-6-1.2-11.9-8.1-17.6-14.8c-6.1-7.2-12.3-14.5-20.7-18c-8.5-3.5-18.3-2.7-27.8-2
	c-8.7,0.7-17.6,1.4-22.5-1.8c-5-3.3-7.7-11.9-10.4-20.2c-2.9-9-5.9-18.3-12.3-24.8c-6.5-6.5-15.8-9.5-24.8-12.3
	c-8.3-2.7-16.9-5.4-20.2-10.4c-3.3-4.9-2.6-13.8-1.9-22.5c0.8-9.5,1.6-19.3-2-27.8c-3.5-8.3-10.9-14.6-18-20.7
	c-6.7-5.7-13.6-11.6-14.8-17.5c-1.1-5.6,2.9-13.5,6.9-21.2c4.4-8.5,8.9-17.4,8.9-26.7s-4.5-18.2-8.9-26.7c-3.9-7.6-8-15.5-6.9-21.2
	c1.2-6,8.1-11.9,14.8-17.6c7.2-6.1,14.6-12.3,18-20.7c3.5-8.5,2.7-18.3,2-27.8c-0.7-8.7-1.4-17.6,1.8-22.5c3.3-5,11.9-7.7,20.2-10.4
	c9-2.9,18.3-5.9,24.8-12.3c6.5-6.5,9.5-15.8,12.3-24.8c1.3-4.1,2.6-8,4.1-11.4c1.7-3.8-0.1-8.2-3.8-9.9c-3.8-1.7-8.2,0.1-9.9,3.8
	c-1.8,4.1-3.3,8.6-4.6,12.9c-2.3,7.3-4.8,14.9-8.7,18.8c-3.9,3.9-11.4,6.3-18.8,8.7c-10.8,3.5-21.9,7-28.1,16.3
	c-6.2,9.2-5.2,20.8-4.3,32c0.6,7.7,1.3,15.7-0.9,20.8c-2.1,5-8.1,10.1-13.9,15c-8.3,7-17.6,15-19.9,26.1c-2.1,10.7,3.1,21,8.2,30.9
	c3.6,7,7.3,14.1,7.3,19.9S11.9,269,8.3,276c-5.1,9.9-10.4,20.2-8.2,30.9C2.3,318,11.7,326,19.9,333c5.8,4.9,11.8,10,13.9,15
	c2.1,5.2,1.5,13.1,0.9,20.8c-0.9,11.2-1.8,22.8,4.3,32c6.2,9.3,17.3,12.9,28.1,16.3c7.3,2.3,14.9,4.8,18.8,8.7
	c3.9,3.9,6.3,11.4,8.7,18.8c3.5,10.8,7,21.9,16.3,28.1c9.2,6.2,20.8,5.2,32,4.3c7.7-0.6,15.7-1.3,20.8,0.9c5,2.1,10.1,8.1,15,13.9
	c7,8.3,15,17.6,26.1,19.9c1.7,0.3,3.3,0.5,5,0.5c8.9,0,17.6-4.4,25.9-8.7c7-3.6,14.1-7.3,19.9-7.3c5.8,0,12.9,3.7,19.9,7.3
	c9.9,5.1,20.2,10.4,30.9,8.2c11.1-2.2,19.1-11.6,26.1-19.8l0.5-0.6c1.7-2,2.2-4.6,1.4-7.1l-5.4-17.3c13.6-14.1,21.7-26.5,24.9-37.7
	c3.9-13.9,0.4-26.3-10.3-37.1c-15.8-15.8-23-36.8-20.6-47.2c1.6-6.6,4.5-13,7.6-19.9c4.8-10.6,10.1-22.2,9.5-34.7L484,334.8
	c2.5,0.8,5.1,0.2,7.1-1.4l0.6-0.5c8.3-7,17.6-15,19.8-26.1C513.6,296.1,508.4,285.8,503.3,275.9L503.3,275.9z M317.4,318.7
	c-3.3,7.2-6.6,14.6-8.5,22.6c-4.1,17.2,6.3,43,24.6,61.2c8.7,8.7,13.9,21.2-9.1,47.6l-56.9-182.7l57.3,17.8
	C327.7,295.9,322.9,306.5,317.4,318.7z"/>
<path d="M287,120.8c-14.3,6.3-24.2,17.3-27.8,31s-0.5,28.1,8.8,40.7c1.5,2,3.7,3,6,3c1,0,2-0.2,3-0.6c14.3-6.3,24.2-17.3,27.8-31
	c3.6-13.6,0.5-28.1-8.8-40.7C294,120.4,290.2,119.4,287,120.8L287,120.8z M290.4,160c-1.9,7.3-6.7,13.6-13.7,18.1
	c-3.8-7.4-4.9-15.2-3-22.5s6.7-13.6,13.7-18.1C291.3,144.9,292.3,152.7,290.4,160L290.4,160z"/>
<path d="M221.9,391.8c1,0,2-0.2,3-0.6c14.3-6.3,24.2-17.3,27.8-31c3.6-13.6,0.5-28.1-8.8-40.7c-2.1-2.8-5.9-3.8-9.1-2.4
	c-14.3,6.3-24.2,17.3-27.8,31c-3.6,13.6-0.5,28.1,8.8,40.7C217.4,390.8,219.6,391.8,221.9,391.8L221.9,391.8z M221.6,352
	c1.9-7.3,6.7-13.6,13.7-18.1c3.8,7.4,4.9,15.2,3,22.5s-6.7,13.6-13.7,18.1C220.7,367.1,219.7,359.3,221.6,352z"/>
<path d="M207,213.8c3.5-0.4,6.2-3.2,6.6-6.6c1.7-15.6-2.9-29.6-12.9-39.6c-10-10-24.1-14.5-39.6-12.7c-3.5,0.4-6.2,3.2-6.6,6.6
	c-1.7,15.6,2.9,29.6,12.9,39.6l0,0c8.6,8.6,20.2,13.1,33.1,13.1C202.6,214.2,204.8,214.1,207,213.8z M177.9,190.5
	c-5.4-5.3-8.4-12.6-8.8-20.9c8.3,0.4,15.6,3.3,21,8.7c5.4,5.3,8.4,12.6,8.8,20.9C190.6,198.8,183.3,195.8,177.9,190.5z"/>
<path d="M151.8,259.7c-13.6,3.7-24.6,13.6-30.8,28c-1.4,3.2-0.4,7,2.4,9c9.1,6.7,19.2,10.1,29.3,10.1c3.8,0,7.7-0.5,11.4-1.5
	c13.6-3.7,24.6-13.6,30.8-28c1.4-3.2,0.4-7-2.4-9.1C179.9,259.1,165.4,256,151.8,259.7z M160.2,290.9L160.2,290.9
	c-7.3,2-15.1,1-22.5-2.9c4.5-7,10.7-11.8,18-13.8s15.1-1,22.5,2.9C173.8,284.1,167.5,288.9,160.2,290.9L160.2,290.9z"/>
<path d="M347.9,206.7c-13.6,3.7-24.6,13.6-30.8,28c-1.4,3.2-0.4,7,2.4,9.1c9.1,6.7,19.2,10.1,29.3,10.1c3.8,0,7.7-0.5,11.4-1.5
	c13.6-3.7,24.6-13.6,30.8-28c1.4-3.2,0.4-7-2.4-9.1C376,206,361.5,203,347.9,206.7L347.9,206.7z M356.3,237.8
	c-7.3,2-15.1,1-22.5-2.9c4.5-7,10.7-11.8,18-13.8s15.1-1,22.5,2.9C369.8,231,363.6,235.8,356.3,237.8L356.3,237.8z"/>
</svg>
