<?xml version="1.0" encoding="utf-8"?>
<!-- Generator: Adobe Illustrator 24.0.1, SVG Export Plug-In . SVG Version: 6.00 Build 0)  -->
<svg version="1.1" id="Слой_1" xmlns="http://www.w3.org/2000/svg" xmlns:xlink="http://www.w3.org/1999/xlink" x="0px" y="0px"
	 viewBox="0 0 15 15" style="enable-background:new 0 0 15 15;" xml:space="preserve">
<style type="text/css">
	.st0{fill-rule:evenodd;clip-rule:evenodd;}
</style>
<path id="cart_tovar.svg" class="st0" d="M6.4,8.3L6.3,8.1C6.1,8,5.8,7.9,5.6,7.9c-0.5,0-0.3,0.3-0.2,0.3l1.9,1.8
	c0.2,0.2,0.6,0.2,0.9,0c0,0,0,0,0-0.1l1.8-1.7C10.1,8,10,7.9,9.6,7.9C9.3,7.9,9.1,8,8.9,8.2l0,0l0,0L8,9.1V5.9
	c0-0.2-0.2-0.4-0.4-0.3c-0.2,0-0.3,0.2-0.3,0.3v3.2L6.4,8.3L6.4,8.3L6.4,8.3z M14.6,5.9h-1L9.6,1c0-0.1,0.1-0.2,0.1-0.3
	C9.6,0.3,9.3,0,8.9,0C8.5,0,8.2,0.3,8.2,0.7c0,0.4,0.3,0.7,0.7,0.8c0,0,0,0,0,0c0,0,0,0,0.1,0l3.7,4.4h-2c-0.2,0-0.4,0.2-0.4,0.4
	c0,0.2,0.2,0.4,0.4,0.4c0,0,0,0,0,0h3.5l-0.4,1.6h-3.1c-0.2,0-0.4,0.2-0.4,0.4c0,0,0,0,0,0c0,0.2,0.2,0.4,0.4,0.4h2.9l-1.4,5.4H2.8
	L1.4,8.9h2.9c0.2,0,0.4-0.2,0.4-0.4c0-0.2-0.2-0.4-0.4-0.4c0,0,0,0,0,0H1.2L0.8,6.6h3.5c0.2,0,0.4-0.2,0.4-0.4
	c0-0.2-0.2-0.4-0.4-0.4c0,0,0,0,0,0H2.5l3.7-4.4c0,0,0,0,0.1,0C6.7,1.4,7,1.1,7,0.7C7,0.3,6.6,0,6.2,0C5.8,0,5.5,0.3,5.5,0.7
	c0,0.1,0,0.2,0.1,0.3l-4,4.8H0.4C0.2,5.9-0.1,6,0,6.6c0,0,0,0,0,0l2,7.7C2.2,14.8,2.6,15,3.1,15H12c0.4,0,0.7-0.3,0.9-0.7L15,6.5
	c0.1-0.2,0-0.5-0.2-0.6C14.7,5.9,14.6,5.9,14.6,5.9L14.6,5.9z"/>
</svg>
