<?xml version="1.0" encoding="utf-8"?>
<!-- Generator: Adobe Illustrator 24.0.1, SVG Export Plug-In . SVG Version: 6.00 Build 0)  -->
<svg version="1.1" id="Layer_1" xmlns="http://www.w3.org/2000/svg" xmlns:xlink="http://www.w3.org/1999/xlink" x="0px" y="0px"
	 viewBox="0 0 512 512" style="enable-background:new 0 0 512 512;" xml:space="preserve">
<style type="text/css">
	.st0{fill:#FBB540;}
	.st1{fill:#FFFFFF;}
	.st2{fill:#FFF4D6;}
	.st3{fill:#D68F29;}
	.st4{fill:#060606;}
	.st5{opacity:0.1;enable-background:new    ;}
</style>
<path class="st0" d="M7.5,418.2V52.4c0-5.5,4.5-10,10-10h477c5.5,0,10,4.5,10,10v365.7c0,5.5-4.5,10-10,10h-477
	C12,428.2,7.5,423.7,7.5,418.2z"/>
<path class="st1" d="M38.2,397.6h435.6V73H38.2L38.2,397.6z"/>
<path class="st2" d="M433.8,73h40v324.5h-40V73z"/>
<path class="st0" d="M390.9,469.6l-21.5-10l-21.5,10v-129h43V469.6z"/>
<g>
	<path class="st0" d="M369.4,365.6c-7.6,0-12.6-12.9-19.2-15.7c-6.8-2.8-19.4,2.7-24.6-2.5c-5.2-5.2,0.3-17.8-2.5-24.6
		c-2.7-6.6-15.6-11.6-15.6-19.2c0-7.6,12.9-12.6,15.6-19.2c2.8-6.9-2.7-19.5,2.5-24.6s17.8,0.3,24.6-2.5
		c6.6-2.7,11.6-15.7,19.2-15.7s12.6,12.9,19.2,15.7c6.8,2.8,19.4-2.7,24.6,2.5c5.2,5.2-0.3,17.8,2.5,24.6
		c2.7,6.6,15.6,11.6,15.6,19.2c0,7.6-12.9,12.6-15.6,19.2c-2.8,6.9,2.7,19.5-2.5,24.6s-17.8-0.3-24.6,2.5
		C381.9,352.6,377,365.6,369.4,365.6L369.4,365.6z"/>
</g>
<path class="st3" d="M415.6,284.4c-2.8-6.9,2.7-19.5-2.5-24.6s-17.8,0.3-24.6-2.5c-6.6-2.7-11.6-15.7-19.2-15.7
	s-12.6,12.9-19.2,15.7c-0.3,0.1-0.6,0.2-0.8,0.3c7,2.1,18.8-2.8,23.7,2.2c5.2,5.2-0.3,17.8,2.5,24.6c2.7,6.6,15.6,11.6,15.6,19.2
	s-12.9,12.6-15.6,19.2c-2.8,6.9,2.7,19.5-2.5,24.6c-4.9,5-16.8,0.1-23.7,2.2c0.3,0.1,0.6,0.2,0.8,0.3c6.6,2.7,11.6,15.7,19.2,15.7
	s12.6-12.9,19.2-15.7c6.8-2.8,19.4,2.7,24.6-2.5c5.2-5.2-0.3-17.8,2.5-24.6c2.7-6.6,15.6-11.6,15.6-19.2
	C431.3,296,418.4,291,415.6,284.4z"/>
<circle class="st1" cx="369.4" cy="303.6" r="21.8"/>
<path class="st4" d="M494.5,34.9h-477C7.9,34.9,0,42.8,0,52.4V114c0,9.7,15,9.7,15,0V52.4c0-1.4,1.1-2.5,2.5-2.5h477
	c1.4,0,2.5,1.1,2.5,2.5v365.7c0,1.4-1.1,2.5-2.5,2.5h-96.1v-15.6h75.4c4.1,0,7.5-3.4,7.5-7.5V319c0-9.7-15-9.7-15,0v71h-67.9v-33.3
	c0.2,0,0.5,0,0.7,0.1c6.2,0.5,14,1.2,19.3-4.1c5.4-5.4,4.7-13.1,4.1-19.4c-0.6-6.7,0-8.5,5.2-12.8c13.2-11,13.5-22.8,0-34
	c-5.1-4.3-5.8-6.1-5.2-12.8c1.5-16.8-6.4-25-23.5-23.5c-6.7,0.6-8.5,0-12.7-5.2c-11-13.3-22.8-13.5-34,0c-4.3,5.1-6.1,5.8-12.7,5.2
	c-16.8-1.5-25,6.4-23.5,23.5c0.6,6.7,0,8.5-5.2,12.8c-13.2,11-13.5,22.8,0,34c5.1,4.3,5.8,6.1,5.2,12.8c-1.6,18,7,24.9,24.2,23.4
	v33.3H45.7V80.5h420.6V279c0,9.7,15,9.7,15,0V73c0-4.1-3.4-7.5-7.5-7.5H38.2c-4.1,0-7.5,3.4-7.5,7.5v324.5c0,4.1,3.4,7.5,7.5,7.5
	h302.2v15.6H17.5c-1.4,0-2.5-1.1-2.5-2.5V152c0-9.7-15-9.7-15,0v266.1c0,9.6,7.9,17.5,17.5,17.5h322.9v34c1.1,6.2,4.6,8.4,10.7,6.8
	l18.3-8.5l18.3,8.5c4.5,2.1,10.7-1.2,10.7-6.8v-34h96.1c9.6,0,17.5-7.9,17.5-17.5V52.4C512,42.8,504.1,34.9,494.5,34.9L494.5,34.9z
	 M338.4,341.9c-7.5,0.7-7.9,0.3-7.2-7.2c1-11.5-1.6-18.2-10.5-25.6c-6.1-5.1-6.1-5.9,0-10.9c8.9-7.4,11.5-14.1,10.5-25.6
	c-0.7-7.5-0.3-7.9,7.2-7.2c11.5,1,18.2-1.7,25.6-10.6c5-6.1,5.8-6.1,10.9,0c7.4,8.9,14.1,11.6,25.6,10.6c7.5-0.7,7.9-0.3,7.2,7.2
	c-1,11.5,1.6,18.2,10.5,25.6c6.1,5.1,6.1,5.9,0,10.9c-8.9,7.4-11.5,14.1-10.5,25.6c0.7,7.5,0.3,7.9-7.2,7.2
	c-4.7-0.4-10.1-0.9-14.8,1.1c-4.6,1.9-7.8,5.8-10.8,9.5c-1.5,1.8-4.1,5-5.4,5.5c-1.3-0.6-4-3.8-5.4-5.5c-3.1-3.7-6.3-7.6-10.8-9.5
	C348.3,341.5,343.3,341.1,338.4,341.9L338.4,341.9z M372.6,452.8c-2-0.9-4.3-0.9-6.3,0l-10.8,5v-92.3c3.6,3.9,8,7.5,14,7.5
	s10.4-3.6,14-7.5v92.3L372.6,452.8z"/>
<path class="st4" d="M97.3,143.3h258.5c9.7,0,9.7-15,0-15H97.3C87.6,128.3,87.6,143.3,97.3,143.3z"/>
<path class="st4" d="M422.2,181.4c0-4.1-3.4-7.5-7.5-7.5H97.3c-9.7,0-9.7,15,0,15h317.5C418.9,188.9,422.2,185.6,422.2,181.4z"/>
<path class="st4" d="M285.1,227.1c0-4.1-3.4-7.5-7.5-7.5H97.3c-9.7,0-9.7,15,0,15h180.4C281.8,234.6,285.1,231.2,285.1,227.1z"/>
<path class="st4" d="M186.7,331.6c-4.1,0-8.2,0-12.3,0c-7.9,0-12.2-2.1-13.8-10.4c-1.5-7.6-12.5-6.6-14.5,0
	c-0.9,2.9-5.4,11.4-9.3,10.7c-2.1-0.4-3-3.6-3.8-5.2c-1.5-3.2-2.6-6.7-3.5-10.1c-3.9-14.5-4.7-29.7-7.2-44.5
	c-1.4-8.6-14.5-6.2-14.7,2c-0.7,26-4.9,51.6-14.2,75.9c-3.4,9,11.1,12.9,14.5,4c3.6-9.4,6.4-19,8.6-28.8c1.2,3.6,2.6,7,4.3,10.4
	c4.4,8.7,13.3,13.8,22.9,9.9c3.4-1.4,6.5-3.8,9.2-6.7c7.1,8.2,17.7,7.8,27.5,7.8c14.8,0,29.7-0.1,44.5-0.1c9.7,0,9.7-15,0-15
	C212.1,331.5,199.4,331.6,186.7,331.6L186.7,331.6z"/>
<path class="st4" d="M369.4,332.9c16.2,0,29.3-13.1,29.3-29.3s-13.1-29.3-29.3-29.3c-16.2,0-29.3,13.1-29.3,29.3
	S353.2,332.9,369.4,332.9z M369.4,289.3c7.9,0,14.3,6.4,14.3,14.3s-6.4,14.3-14.3,14.3s-14.3-6.4-14.3-14.3S361.5,289.3,369.4,289.3
	z"/>
<path class="st5" d="M-455.9,314.2l-45-66.5c-1.9-1.8-3.7-3.9-5.2-6.1c-6.1,8.8-15.7,14.9-26.7,15.9l38.4,56.6
	c1.6,2.4,5.3,4.3,8.2,4.3h38.6C-450.6,318.5-454.3,316.6-455.9,314.2z"/>
</svg>
