<?xml version="1.0" encoding="utf-8"?>
<!-- Generator: Adobe Illustrator 24.0.1, SVG Export Plug-In . SVG Version: 6.00 Build 0)  -->
<svg version="1.1" id="Capa_1" xmlns="http://www.w3.org/2000/svg" xmlns:xlink="http://www.w3.org/1999/xlink" x="0px" y="0px"
	 viewBox="0 0 512 512" style="enable-background:new 0 0 512 512;" xml:space="preserve">
<style type="text/css">
	.st0{fill:#DDDDDD;}
	.st1{fill:#FAB455;}
	.st2{fill:#F7A02A;}
	.st3{fill:#DCEA5C;}
	.st4{fill:#9D6D50;}
</style>
<path id="XMLID_895_" class="st0" d="M435.6,190h-20.1l-4.5,44h24.5c12.4,0,22.4,10.1,22.4,22.4v79.2c0,12.4-10.1,22.4-22.4,22.4
	h-38.7l-4.9,44h43.6c36.6,0,66.4-29.8,66.4-66.4v-79.2C502,219.8,472.2,190,435.6,190L435.6,190z"/>
<circle id="XMLID_494_" class="st1" cx="128" cy="128" r="118"/>
<circle id="XMLID_873_" class="st2" cx="128" cy="128" r="78"/>
<path id="XMLID_1271_" class="st0" d="M97.3,128l38.4,338.5c2.3,20.2,19.4,35.5,39.7,35.5h169.3c20.3,0,37.5-15.3,39.7-35.5
	L422.9,128H97.3z"/>
<path id="XMLID_318_" class="st3" d="M148.1,185.4L179,458h162.2l30.9-272.6H148.1z"/>
<path id="XMLID_75_" class="st4" d="M363.2,185.4l44.1-164.6L366.7,10l-47,175.4H363.2z"/>
<path id="XMLID_917_" class="st4" d="M319.7,185.4l44.1-164.6L323.2,10l-47,175.4H319.7z"/>
<g id="XMLID_524_">
	<path id="XMLID_525_" d="M226.3,244c0-2.6-1.1-5.2-2.9-7.1c-1.9-1.9-4.4-2.9-7.1-2.9c-2.6,0-5.2,1.1-7.1,2.9s-2.9,4.4-2.9,7.1
		s1.1,5.2,2.9,7.1s4.4,2.9,7.1,2.9s5.2-1.1,7.1-2.9C225.3,249.2,226.3,246.6,226.3,244z"/>
	<path id="XMLID_528_" d="M260.1,317c-2.6,0-5.2,1.1-7.1,2.9s-2.9,4.4-2.9,7.1s1.1,5.2,2.9,7.1s4.4,2.9,7.1,2.9s5.2-1.1,7.1-2.9
		c1.9-1.9,2.9-4.4,2.9-7.1s-1.1-5.2-2.9-7.1S262.7,317,260.1,317z"/>
	<path id="XMLID_529_" d="M227.7,380.3c-2.6,0-5.2,1.1-7.1,2.9c-1.9,1.9-2.9,4.4-2.9,7.1c0,2.6,1.1,5.2,2.9,7.1
		c1.9,1.9,4.4,2.9,7.1,2.9c2.6,0,5.2-1.1,7.1-2.9c1.9-1.9,2.9-4.4,2.9-7.1c0-2.6-1.1-5.2-2.9-7.1
		C232.9,381.4,230.3,380.3,227.7,380.3z"/>
	<path id="XMLID_530_" d="M302,401c-2.6,0-5.2,1.1-7.1,2.9s-2.9,4.4-2.9,7.1s1.1,5.2,2.9,7.1s4.4,2.9,7.1,2.9s5.2-1.1,7.1-2.9
		s2.9-4.4,2.9-7.1s-1.1-5.2-2.9-7.1S304.6,401,302,401z"/>
	<path id="XMLID_533_" d="M435.6,180h-8.5l5.8-50.9c0.3-2.8-0.6-5.7-2.5-7.8c-1.9-2.1-4.6-3.3-7.5-3.3h-31.3l25.3-94.5
		c1.4-5.3-1.7-10.8-7.1-12.2l-40.5-11c-2.6-0.7-5.3-0.3-7.6,1c-2.3,1.3-4,3.5-4.7,6.1l-0.3,1.2l-30.9-8.3c-2.6-0.7-5.3-0.3-7.6,1
		c-2.3,1.3-4,3.5-4.7,6.1L283.9,118h-28.4C250.5,52.1,195.2,0,128,0C57.4,0,0,57.4,0,128c0,30.9,11.1,60.7,31.4,84
		c18.3,21.1,43,35.5,70,41.2l8.1,71.9c0.6,5.5,5.6,9.4,11.1,8.8s9.4-5.6,8.8-11.1l-21-184.8h24.2L169,459.1c0.6,5.1,4.9,8.9,9.9,8.9
		h162.2c5.1,0,9.4-3.8,9.9-8.9L387.5,138h24.2l-37.1,327.4c-1.7,15.2-14.5,26.6-29.8,26.6H175.4c-15.3,0-28.1-11.4-29.8-26.6
		l-6-53.2c-0.6-5.5-5.6-9.4-11.1-8.8s-9.4,5.6-8.8,11.1l6,53.2c2.9,25.3,24.2,44.4,49.7,44.4h169.3c25.5,0,46.8-19.1,49.7-44.4
		l6.3-55.6h34.8c42.1,0,76.4-34.3,76.4-76.4v-79.2C512,214.3,477.7,180,435.6,180L435.6,180z M299.3,138H322l-10,37.4h-22.8
		L299.3,138z M342.8,138h22.8l-10,37.4h-22.8L342.8,138z M395,27.9L370.9,118h-22.8l25.7-95.8L395,27.9z M330.3,22.2l21.3,5.7
		L327.4,118h-22.8L330.3,22.2z M20,128C20,68.4,68.4,20,128,20c56.2,0,102.5,43.1,107.5,98h-20.1c-5-43.8-42.3-78-87.4-78
		c-48.5,0-88,39.5-88,88c0,19.4,6.2,37.7,17.8,53.1c9.9,13.1,23.5,23.2,38.7,29.1L99,232C53.2,219.2,20,176.6,20,128z M145.3,118
		l24.9-43.2c13.2,10.5,22.4,25.8,25,43.2H145.3z M128,108l-25-43.2c7.7-3.1,16.1-4.8,24.9-4.8s17.2,1.7,24.9,4.8L128,108z M88.4,138
		l5.5,48.8c-17.7-10.3-30-28.4-33.1-48.8H88.4z M60.7,118c2.6-17.4,11.8-32.7,25-43.2l24.9,43.2H60.7z M278.6,138l-10,37.4H157
		l-4.2-37.4H278.6z M332.3,448H187.9l-28.6-252.6h201.6L332.3,448z M419.8,244h15.8c6.8,0,12.4,5.6,12.4,12.4v79.2
		c0,6.8-5.6,12.4-12.4,12.4H408L419.8,244z M492,335.6c0,31.1-25.3,56.4-56.4,56.4H403l2.7-24h29.8c17.9,0,32.4-14.5,32.4-32.4
		v-79.2c0-17.9-14.5-32.4-32.4-32.4H422l2.7-24h10.8c31.1,0,56.4,25.3,56.4,56.4v79.2L492,335.6L492,335.6z"/>
	<path id="XMLID_1142_" d="M130.7,375.8c1.9-1.9,2.9-4.4,2.9-7.1c0-2.6-1.1-5.2-2.9-7.1c-1.9-1.9-4.4-2.9-7.1-2.9s-5.2,1.1-7.1,2.9
		c-1.9,1.9-2.9,4.4-2.9,7.1c0,2.6,1.1,5.2,2.9,7.1c1.9,1.9,4.4,2.9,7.1,2.9S128.9,377.7,130.7,375.8z"/>
</g>
</svg>
