<?xml version="1.0" encoding="utf-8"?>
<!-- Generator: Adobe Illustrator 24.0.1, SVG Export Plug-In . SVG Version: 6.00 Build 0)  -->
<svg version="1.1" id="Capa_1" xmlns="http://www.w3.org/2000/svg" xmlns:xlink="http://www.w3.org/1999/xlink" x="0px" y="0px"
	 viewBox="0 0 512 512" style="enable-background:new 0 0 512 512;" xml:space="preserve">
<style type="text/css">
	.st0{fill:#F9A12B;}
	.st1{fill:#FEDA38;}
	.st2{fill:#FFDD95;}
	.st3{fill:#BF3833;}
	.st4{fill:#FFFFFF;}
</style>
<circle class="st0" cx="256.2" cy="56.4" r="39.2"/>
<path d="M256.2,103.4c-26,0-47.2-21.2-47.2-47.2s21.2-47.2,47.2-47.2s47.2,21.2,47.2,47.2S282.1,103.4,256.2,103.4z M256.2,24.9
	c-17.4,0-31.4,14.2-31.4,31.4s14,31.4,31.4,31.4s31.4-14.2,31.4-31.4S273.5,24.9,256.2,24.9z"/>
<path class="st1" d="M484,315.6c0-125.8-102-227.9-227.9-227.9S28.2,189.7,28.2,315.6H484z"/>
<path d="M484,323.5H28.3c-4.4,0-7.8-3.6-7.8-7.8c0-129.9,105.8-235.7,235.7-235.7s235.7,105.8,235.7,235.7
	C491.9,319.9,488.3,323.5,484,323.5z M36.3,307.7H476C471.9,190,374.9,95.6,256.2,95.6S40.4,190.1,36.3,307.7z"/>
<path class="st0" d="M480,354.9H32.3c-10.8,0-19.7-8.7-19.7-19.7l0,0c0-10.8,8.7-19.7,19.7-19.7H480c10.8,0,19.7,8.7,19.7,19.7l0,0
	C499.7,346,490.9,354.9,480,354.9z"/>
<path d="M480,362.7H32.3c-15.2,0-27.5-12.3-27.5-27.5s12.3-27.5,27.5-27.5H480c15.2,0,27.5,12.3,27.5,27.5S495.2,362.7,480,362.7z
	 M32.3,323.5c-6.4,0-11.7,5.3-11.7,11.7s5.3,11.7,11.7,11.7H480c6.4,0,11.7-5.3,11.7-11.7s-5.3-11.7-11.7-11.7H32.3z"/>
<path class="st2" d="M114.7,377.9c-9.9,6-13.1,18.8-7.1,28.8l36.3,60.3c3.8,6.3,12.1,8.4,18.4,4.6l24.4-14.6l-43.2-71.8
	C137.4,375.1,124.6,371.9,114.7,377.9z"/>
<path d="M155.3,481.2c-1.7,0-3.5-0.2-5.2-0.7c-5.5-1.4-10.1-4.8-13.1-9.7l-36.3-60.3c-4-6.7-5.2-14.4-3.2-21.9
	c1.8-7.5,6.6-13.7,13.1-17.7c13.6-8.2,31.3-3.8,39.5,9.9l47.2,78.5L166.2,478C162.8,480.2,159.1,481.2,155.3,481.2z M125.4,382.7
	c-2.3,0-4.6,0.6-6.7,1.8l0,0c-3,1.8-5.2,4.6-6,8.1c-0.8,3.3-0.3,6.9,1.5,9.9l36.3,60.3c0.8,1.3,2,2.2,3.5,2.5s3,0.1,4.3-0.6
	l17.6-10.6l-39.1-65C134.2,385,129.8,382.7,125.4,382.7z"/>
<path class="st2" d="M386.1,403.6l-87.7-0.2c0,0-112.2-62-128.9-41.2c-16.7,20.7,44.7,50.3,44.7,50.3l-24.5,15.4l-80.4,1.5
	l-35.3-18.6c-10.2-5.4-23-1.4-28.4,8.6l0.9-1.6C41,427.8,44.8,440.6,55,446l49.8,26.8l90.6,12c0,0,34.8,22.6,187.1-7.1"/>
<path d="M251.3,500.9c-37.1,0-52.9-5.9-58.2-8.5l-90.6-12l-51.1-27.5c-13.5-7.3-18.9-23.7-12.7-37.3l0,0l0.8-1.6l0,0l0,0
	c7.9-12.8,24.5-17.4,38-10.2l33.7,17.6l76.3-1.4l11.2-7c-14.5-8.3-35.8-22.9-39.2-38.4c-1.4-6.3,0-12.3,4.1-17.4
	c18.5-22.9,100.6,18.3,137.1,38.3l85.6,0.2v15.8l-89.7-0.2l-1.7-0.9c-75.8-41.9-115.3-47.8-119-43.2c-1,1.4-1.4,2.4-1,4
	c2.4,10.5,26.6,26.4,42.9,34.3l12.8,6.2l-38.3,24.2l-84.7,1.5l-37.1-19.6c-6.1-3.2-13.7-1.2-17.3,4.6c-2.8,6.2-0.2,13.6,5.9,16.9
	l48.6,26.1l90.9,12l1.5,0.9c0.2,0.1,36.6,19.9,181.4-8.3l3,15.4C323.2,497.2,280.6,500.9,251.3,500.9z"/>
<rect x="382.3" y="378.5" class="st3" width="70.7" height="110"/>
<path d="M453,496.3h-70.7c-4.4,0-7.8-3.6-7.8-7.8v-110c0-4.4,3.6-7.8,7.8-7.8H453c4.4,0,7.8,3.6,7.8,7.8v110
	C460.8,492.8,457.4,496.3,453,496.3z M390.2,480.6h55v-94.3h-55V480.6z"/>
<path class="st4" d="M93.8,227.5c-1.4,0-2.8-0.3-4-1.2c-3.7-2.2-4.9-7-2.8-10.8c29.6-49.9,79.3-84.1,136.4-93.8
	c4.4-0.7,8.3,2.2,9.1,6.4c0.7,4.3-2.2,8.3-6.4,9.1c-52.5,8.7-98.2,40.3-125.4,86.2C99.1,226.1,96.5,227.5,93.8,227.5z"/>
</svg>
