<?xml version="1.0" encoding="utf-8"?>
<!-- Generator: Adobe Illustrator 24.0.1, SVG Export Plug-In . SVG Version: 6.00 Build 0)  -->
<svg version="1.1" id="Capa_1" xmlns="http://www.w3.org/2000/svg" xmlns:xlink="http://www.w3.org/1999/xlink" x="0px" y="0px"
	 viewBox="0 0 512 512" style="enable-background:new 0 0 512 512;" xml:space="preserve">
<style type="text/css">
	.st0{fill:#B9B9B9;}
	.st1{fill:#FBB540;}
	.st2{fill-rule:evenodd;clip-rule:evenodd;fill:#F0F0F0;}
	.st3{fill:#F5F5F5;}
	.st4{fill:#E0A446;}
</style>
<path class="st0" d="M246.1,104.5l-73,35.6c-6.6,3.3-11.8,8.8-14.7,15.5L67.2,384c-9.4,21.3,0.2,46.3,21.5,55.7l90.6,40.2h67.3
	L246.1,104.5z"/>
<path class="st1" d="M449.1,415.5v44c0,24.5-20.5,45-45,45h-185c-24.5,0-44-20.5-44-45v-259c0-7.7,2.2-15.1,7.1-21l55.6-67.4
	c6.3-7.7,15.3-12.6,25.3-12.6h97c9.9,0,18.9,4.9,25.3,12.6l55.6,67.4c4.9,6,8.1,13.3,8.1,21v180L449.1,415.5L449.1,415.5z"/>
<g>
	<path class="st2" d="M296.5,275L296.5,275l-0.3-0.3c-0.1-0.1-0.3-0.3-0.4-0.4L285.5,264l-1.5,2.9c-3.4-1.2-7.1-1.9-10.9-1.9h-1
		c-17.9,0-32.5,14.6-32.5,32.5c0,3.7,0.6,7.3,1.8,10.6l-3,1.6l10.7,10.7c0,0,0.1,0.1,0.1,0.1l0.1,0.1l0,0c5.9,5.8,13.9,9.3,22.8,9.3
		h1c17.9,0,32.5-14.6,32.5-32.5C305.6,288.8,302.1,280.9,296.5,275L296.5,275z M273.1,315h-1c-9.6,0-17.5-7.9-17.5-17.5
		s7.9-17.5,17.5-17.5h1c9.6,0,17.5,7.9,17.5,17.5S282.7,315,273.1,315z"/>
	<path class="st2" d="M390.4,268.2l-10-10L241.8,396.8l10,10c1.5,1.5,3.4,2.2,5.3,2.2c1.9,0,3.8-0.7,5.3-2.2l128-128
		C393.3,275.9,393.3,271.1,390.4,268.2L390.4,268.2z"/>
	<path class="st2" d="M392.3,352L392.3,352l-8.3-8.4l0.5,3.4c-4.1-1.9-8.7-3-13.5-3h-1c-17.9,0-32.5,14.6-32.5,32.5
		c0,4.6,1,9,2.7,13l-3.7-0.5l10,9.9c0.4,0.4,0.7,0.7,1.1,1.1l0.2,0.2l0,0c5.8,5.4,13.6,8.8,22.2,8.8h1c17.9,0,32.5-14.6,32.5-32.5
		C403.6,366.7,399.2,357.9,392.3,352L392.3,352z M371.1,394h-1c-9.6,0-17.5-7.9-17.5-17.5s7.9-17.5,17.5-17.5h1
		c9.6,0,17.5,7.9,17.5,17.5S380.7,394,371.1,394z"/>
</g>
<g>
	<path class="st3" d="M247.1,399c-1.9,0-3.8-0.7-5.3-2.2c-2.9-2.9-2.9-7.7,0-10.6l128-128c2.9-2.9,7.7-2.9,10.6,0
		c2.9,2.9,2.9,7.7,0,10.6l-128,128C250.9,398.3,249,399,247.1,399L247.1,399z"/>
	<path class="st3" d="M263.1,320h-1c-17.9,0-32.5-14.6-32.5-32.5s14.6-32.5,32.5-32.5h1c17.9,0,32.5,14.6,32.5,32.5
		S281,320,263.1,320z M262.1,270c-9.6,0-17.5,7.9-17.5,17.5s7.9,17.5,17.5,17.5h1c9.6,0,17.5-7.9,17.5-17.5s-7.9-17.5-17.5-17.5
		H262.1z"/>
	<path class="st3" d="M361.1,399h-1c-17.9,0-32.5-14.6-32.5-32.5s14.6-32.5,32.5-32.5h1c17.9,0,32.5,14.6,32.5,32.5
		S379,399,361.1,399z M360.1,349c-9.6,0-17.5,7.9-17.5,17.5s7.9,17.5,17.5,17.5h1c9.6,0,17.5-7.9,17.5-17.5s-7.9-17.5-17.5-17.5
		H360.1z"/>
</g>
<path class="st4" d="M327.9,160.5c-3.3,0-6.3-2.1-7.2-5.4c-1.2-4,1.1-8.1,5.1-9.3c0.9-0.2,1.7-0.5,2.5-0.8
	c22.9-7.8,38.2-29.3,38.2-53.5v-84c0-4.1,3.4-7.5,7.5-7.5s7.5,3.4,7.5,7.5v84c0,30.6-19.4,57.8-48.4,67.7c-1.1,0.4-2.1,0.7-3.2,1
	C329.3,160.4,328.6,160.5,327.9,160.5L327.9,160.5z"/>
<path class="st3" d="M312.1,179c-13,0-23.5-10.5-23.5-23.5s10.5-23.5,23.5-23.5s23.5,10.5,23.5,23.5S325,179,312.1,179z"/>
<g>
	<path d="M449.1,388c4.1,0,7.5-3.4,7.5-7.5v-180c0-9-3.5-18.1-9.8-25.8l-55.6-67.4c-2.9-3.5-6.3-6.5-9.9-8.9
		c0.2-2.3,0.4-4.6,0.4-6.9v-84c0-4.1-3.4-7.5-7.5-7.5s-7.5,3.4-7.5,7.5c0,0,0,84.7,0,85.1c-2.1-0.4-4.3-0.6-6.5-0.6h-97
		c-6.8,0-13.5,1.9-19.5,5.4c-0.3,0.1-0.5,0.2-0.8,0.3l-73.1,35.6c-8.1,4.1-14.6,10.9-18.2,19.2c0,0.1-0.1,0.2-0.1,0.3l-30.2,76.7
		c-1.5,3.9,0.4,8.2,4.2,9.7c0.9,0.4,1.8,0.5,2.7,0.5c3,0,5.8-1.8,7-4.8l30.2-76.5c2.3-5.1,6.2-9.2,11.1-11.7l38.6-18.8l-38.6,46.7
		c-5.8,7-8.8,15.9-8.8,25.8v259c0,3,0.3,6,0.7,8.8L91,434.1c-17.5-7.7-25.4-28.3-17.6-45.8c0-0.1,0.1-0.2,0.1-0.2l48.9-121.5
		c1.5-3.8-0.3-8.2-4.2-9.8c-3.8-1.5-8.2,0.3-9.8,4.2L59.6,382.4c-11,25,0.4,54.4,25.3,65.5l90.6,40.2c0.1,0,0.2,0.1,0.3,0.1
		c9.2,14.4,25.1,23.9,43.2,23.9h185c28.5,0,52.5-24,52.5-52.5v-44c0-4.1-3.4-7.5-7.5-7.5s-7.5,3.4-7.5,7.5v44
		c0,20.3-17.2,37.5-37.5,37.5h-185c-20.1,0-36.5-16.8-36.5-37.5v-259c0-6.4,1.8-11.9,5.4-16.2l55.6-67.4c5.2-6.3,12.3-9.9,19.5-9.9
		h97c1.4,0,2.8,0.1,4.2,0.4c-4.7,16-16.3,29.4-32,36.1c-4.1-6.9-11.6-11.5-20.2-11.5c-13,0-23.5,10.5-23.5,23.5s10.5,23.5,23.5,23.5
		c12,0,21.9-9,23.3-20.6c20.2-7.6,35.5-23.8,42.3-43.6c0.7,0.7,1.3,1.3,1.9,2.1l55.6,67.4c4.1,5,6.4,10.8,6.4,16.2v180
		C441.6,384.6,444.9,388,449.1,388L449.1,388z M312.1,164c-4.7,0-8.5-3.8-8.5-8.5s3.8-8.5,8.5-8.5s8.5,3.8,8.5,8.5
		S316.8,164,312.1,164z"/>
	<path d="M247.1,399c1.9,0,3.8-0.7,5.3-2.2l128-128c2.9-2.9,2.9-7.7,0-10.6c-2.9-2.9-7.7-2.9-10.6,0l-128,128
		C237,390.7,240.7,399.2,247.1,399L247.1,399z"/>
	<path d="M263.1,320c17.9,0,32.5-14.6,32.5-32.5S281,255,263.1,255h-1c-17.9,0-32.5,14.6-32.5,32.5s14.6,32.5,32.5,32.5H263.1z
		 M244.6,287.5c0-9.6,7.9-17.5,17.5-17.5h1c9.6,0,17.5,7.9,17.5,17.5s-7.9,17.5-17.5,17.5h-1C252.4,305,244.6,297.1,244.6,287.5z"/>
	<path d="M360.1,399h1c17.9,0,32.5-14.6,32.5-32.5S379,334,361.1,334h-1c-17.9,0-32.5,14.6-32.5,32.5S342.1,399,360.1,399z
		 M360.1,349h1c9.6,0,17.5,7.9,17.5,17.5s-7.9,17.5-17.5,17.5h-1c-9.6,0-17.5-7.9-17.5-17.5S350.4,349,360.1,349z"/>
</g>
</svg>
