<?xml version="1.0" encoding="utf-8"?>
<!-- Generator: Adobe Illustrator 24.0.1, SVG Export Plug-In . SVG Version: 6.00 Build 0)  -->
<svg version="1.1" id="Слой_1" xmlns="http://www.w3.org/2000/svg" xmlns:xlink="http://www.w3.org/1999/xlink" x="0px" y="0px"
	 viewBox="0 0 512 512" style="enable-background:new 0 0 512 512;" xml:space="preserve">
<style type="text/css">
	.st0{fill:#FFFFFF;}
	.st1{fill:#B9B9B9;}
	.st2{fill:#DBDBDB;}
	.st3{fill:#FBB540;}
</style>
<path class="st0" d="M64.4,64.4L64.4,64.4c12.5-12.5,32.8-12.5,45.2,0l113.9,113.9c12.5,12.5,12.5,32.8,0,45.2l0,0
	c-12.5,12.5-32.8,12.5-45.2,0L64.4,109.7C51.9,97.2,51.9,76.9,64.4,64.4z"/>
<path class="st1" d="M144,16h240c8.8,0,16,7.2,16,16v448c0,8.8-7.2,16-16,16H144c-8.8,0-16-7.2-16-16V32C128,23.2,135.2,16,144,16z"
	/>
<path class="st2" d="M384,16H144c-8.8,0-16,7.2-16,16v40h272V32C400,23.2,392.8,16,384,16z"/>
<path class="st2" d="M128,480c0,8.8,7.2,16,16,16h240c8.8,0,16-7.2,16-16v-64H128V480z"/>
<circle class="st3" cx="262" cy="214" r="96"/>
<path class="st0" d="M89.7,177.7L89.7,177.7c12.5-12.5,32.8-12.5,45.2,0l45.2,45.2c12.5,12.5,12.5,32.8,0,45.2l0,0
	c-12.5,12.5-32.8,12.5-45.2,0L89.7,223C77.2,210.5,77.2,190.2,89.7,177.7z"/>
<path class="st0" d="M89.7,273.7L89.7,273.7c12.5-12.5,32.8-12.5,45.2,0l45.2,45.2c12.5,12.5,12.5,32.8,0,45.2l0,0
	c-12.5,12.5-32.8,12.5-45.2,0L89.7,319C77.2,306.5,77.2,286.2,89.7,273.7z"/>
<path class="st0" d="M81.7,361.7L81.7,361.7c12.5-12.5,32.8-12.5,45.2,0l45.2,45.2c12.5,12.5,12.5,32.8,0,45.2l0,0
	c-12.5,12.5-32.8,12.5-45.2,0L81.7,407C69.2,394.5,69.2,374.2,81.7,361.7z"/>
<path class="st0" d="M464,176c-32,0-64,16-64,64v80l-38.4,28.8C345.5,360.9,336,379.9,336,400v96h128V176z"/>
<path d="M290,446h-51c-5.5,0-10,4.5-10,10s4.5,10,10,10h51c5.5,0,10-4.5,10-10S295.6,446,290,446z"/>
<path d="M464,166c-20.2,0-37.6,5.6-50.4,16.3c-1.2,1-2.4,2.1-3.6,3.3V32c0-14.3-11.7-26-26-26H144c-14.3,0-26,11.7-26,26v26.6
	l-1.2-1.2c-16.4-16.4-43-16.4-59.4,0s-16.4,43,0,59.4l43.3,43.3c-22.3,6.5-35.1,29.8-28.6,52.1c2,6.8,5.6,12.9,10.6,17.9l24.6,24.6
	c-23,2.8-39.4,23.7-36.6,46.8c1.1,9.3,5.4,18,12,24.6l16.6,16.6c-23,2.8-39.4,23.7-36.6,46.8c1.1,9.3,5.4,18,12,24.6l43.3,43.3V480
	c0,14.4,11.6,26,26,26h192c5.5,0,10-4.5,10-10v-96c0-17,8-33,21.6-43.2L406,328c2.5-1.9,4-4.9,4-8v-80c0-39.8,24.3-50.9,44-53.4V496
	c0,5.5,4.5,10,10,10s10-4.5,10-10V176C474,170.5,469.5,166,464,166L464,166z M144,26h240c3.3,0,6,2.7,6,6v30H138V32
	C138,28.7,140.7,26,144,26z M65.1,87.1c-0.2-19.4,24-29.4,37.6-15.6L118,86.9v62.2l-46.5-46.5C67.4,98.5,65,92.9,65.1,87.1z
	 M96.8,184.8c8.2-8.5,22.9-8.5,31.1,0l45.3,45.3c19.9,21.3-9.9,51-31.1,31.1l-45.3-45.3C88.2,207.3,88.2,193.4,96.8,184.8
	L96.8,184.8z M187.3,215.9l-10.9-10.9c4.9-47.3,47.2-81.6,94.5-76.7c47.3,4.9,81.6,47.2,76.7,94.5s-47.2,81.6-94.5,76.7
	c-23.4-2.4-44.7-14.3-59.1-32.9C203.5,250.2,200.7,229.4,187.3,215.9z M96.8,280.8c8.2-8.5,22.9-8.5,31.1,0l45.3,45.3
	c19.9,21.3-9.9,51-31.1,31.1l-45.3-45.3C88.2,303.3,88.2,289.4,96.8,280.8z M88.8,368.8c8.2-8.5,22.9-8.5,31.1,0l45.3,45.3
	c19.9,21.3-9.9,51-31.1,31.1l-45.3-45.3C80.2,391.3,80.2,377.4,88.8,368.8z M138,480v-10c3.8,1.1,7.7,1.6,11.6,1.6
	c23.2,0,42-18.8,42-41.9c0-1.2-0.1-2.4-0.2-3.6H326v60H144C140.7,486,138,483.3,138,480z M355.6,340.8c-18.6,14-29.5,35.9-29.6,59.2
	v6H184.4c-1.5-2.2-3.2-4.2-5-6.1l-16.6-16.6c23-2.8,39.4-23.7,36.6-46.8c-1.1-9.3-5.4-18-12-24.6l-24.6-24.6
	c6.2-0.7,12.1-2.8,17.3-6.1c37.1,45.2,103.9,51.8,149.1,14.7S381,192,343.9,146.8S240,94.9,194.7,132
	c-17.5,14.3-29.9,33.9-35.5,55.8c0,0-19.8-19.6-21.2-20.7V82h252v233L355.6,340.8z"/>
<g>
	<path d="M240.1,174c5.8-1,13.9-1.7,25.4-1.7c11.6,0,19.8,2.2,25.4,6.7c5.4,4.2,8.9,11.1,8.9,19.2c0,8.1-2.6,15.2-7.6,19.7
		c-6.4,5.9-15.9,8.8-27,8.8c-2.5,0-4.7-0.1-6.4-0.5V256h-18.6V174z M258.7,211.8c1.6,0.4,3.5,0.5,6.3,0.5c10,0,16.1-5.1,16.1-13.4
		c0-7.6-5.3-12.2-14.8-12.2c-3.7,0-6.3,0.2-7.6,0.6V211.8z"/>
</g>
<path d="M232.9,230H270v16h-37.1V230z"/>
</svg>
