<?xml version="1.0" encoding="utf-8"?>
<!-- Generator: Adobe Illustrator 24.0.1, SVG Export Plug-In . SVG Version: 6.00 Build 0)  -->
<svg version="1.1" id="Capa_1" xmlns="http://www.w3.org/2000/svg" xmlns:xlink="http://www.w3.org/1999/xlink" x="0px" y="0px"
	 viewBox="0 0 512 512" style="enable-background:new 0 0 512 512;" xml:space="preserve">
<style type="text/css">
	.st0{fill:#F95341;}
	.st1{fill:#FF7E40;}
</style>
<path class="st0" d="M128,7.5L203.5,128L128,248.5c66.6,0,120.5-53.9,120.5-120.5S194.6,7.5,128,7.5z"/>
<path class="st1" d="M218.5,128C218.5,61.4,178,7.5,128,7.5C61.4,7.5,7.5,61.5,7.5,128s54,120.5,120.5,120.5
	C178,248.5,218.5,194.6,218.5,128z M128,188.5c-33.4,0-60.5-27.1-60.5-60.5S94.6,67.5,128,67.5s60.5,27.1,60.5,60.5
	S161.4,188.5,128,188.5z"/>
<path class="st0" d="M384,263.5L459.5,384L384,504.5c66.5,0,120.5-54,120.5-120.5S450.5,263.5,384,263.5z"/>
<path class="st1" d="M474.5,384c0-66.5-40.5-120.5-90.5-120.5c-66.5,0-120.5,54-120.5,120.5s54,120.5,120.5,120.5
	C434,504.5,474.5,450.5,474.5,384z M384,444.5c-33.4,0-60.5-27.1-60.5-60.5s27.1-60.5,60.5-60.5s60.5,27.1,60.5,60.5
	S417.4,444.5,384,444.5z"/>
<path class="st0" d="M495.7,16.3l-31.8,10.6l-437,437l-10.6,31.8c11.7,11.7,30.7,11.7,42.4,0l437-437C507.4,47,507.4,28,495.7,16.3
	L495.7,16.3z"/>
<path class="st1" d="M453.3,16.3l-437,437C4.6,465,4.6,484,16.3,495.7L495.7,16.3C484,4.6,465,4.6,453.3,16.3L453.3,16.3z"/>
<path d="M271.9,282.5c-2.9-2.9-7.7-2.9-10.6,0L53.4,490.4c-8.8,8.8-23,8.8-31.8,0c-4.3-4.3-6.6-9.9-6.6-15.9s2.3-11.7,6.6-15.9
	l437-437c8.8-8.8,23-8.8,31.8,0c4.3,4.3,6.6,9.9,6.6,15.9s-2.3,11.7-6.6,15.9L282.5,261.3c-2.9,2.9-2.9,7.7,0,10.6s7.7,2.9,10.6,0
	L501,64c7.1-7.1,11-16.5,11-26.5s-3.9-19.4-11-26.5c-14.6-14.6-38.4-14.6-53,0L11,448c-7.1,7.1-11,16.5-11,26.5s3.9,19.4,11,26.5
	c7.3,7.3,16.9,11,26.5,11s19.2-3.7,26.5-11l207.9-207.9C274.8,290.2,274.8,285.4,271.9,282.5z"/>
<path d="M128,256c70.6,0,128-57.4,128-128S198.6,0,128,0S0,57.4,0,128S57.4,256,128,256z M128,15c62.3,0,113,50.7,113,113
	s-50.7,113-113,113S15,190.3,15,128S65.7,15,128,15z"/>
<path d="M128,196c37.5,0,68-30.5,68-68s-30.5-68-68-68s-68,30.5-68,68S90.5,196,128,196z M128,75c29.2,0,53,23.8,53,53
	s-23.8,53-53,53s-53-23.8-53-53S98.8,75,128,75z"/>
<path d="M384,256c-70.6,0-128,57.4-128,128s57.4,128,128,128s128-57.4,128-128S454.6,256,384,256z M384,497
	c-62.3,0-113-50.7-113-113s50.7-113,113-113s113,50.7,113,113S446.3,497,384,497z"/>
<path d="M384,316c-37.5,0-68,30.5-68,68s30.5,68,68,68s68-30.5,68-68S421.5,316,384,316z M384,437c-29.2,0-53-23.8-53-53
	s23.8-53,53-53s53,23.8,53,53S413.2,437,384,437z"/>
</svg>
