<?xml version="1.0" encoding="utf-8"?>
<!-- Generator: Adobe Illustrator 24.0.1, SVG Export Plug-In . SVG Version: 6.00 Build 0)  -->
<svg version="1.1" id="Layer_1" xmlns="http://www.w3.org/2000/svg" xmlns:xlink="http://www.w3.org/1999/xlink" x="0px" y="0px"
	 viewBox="0 0 512 512" style="enable-background:new 0 0 512 512;" xml:space="preserve">
<style type="text/css">
	.st0{fill-rule:evenodd;clip-rule:evenodd;fill:#FBB540;}
	.st1{fill-rule:evenodd;clip-rule:evenodd;fill:#F0F0F0;}
	.st2{fill-rule:evenodd;clip-rule:evenodd;fill:#FFFFFF;}
	.st3{fill-rule:evenodd;clip-rule:evenodd;fill:#B9B9B9;}
</style>
<path class="st0" d="M66,256c0-104.9,85.1-190,190-190s190,85.1,190,190s-85.1,190-190,190S66,360.9,66,256L66,256z M302.6,28.5
	l-27.2-13.6c-11.7-6.3-26.2-6.8-38.8-0.1l-24.4,13.1l-30.1-2.2c-13.4-1.5-27.3,3.6-36.5,14.9L128,62.3l-26.2,8.7
	c-13.9,3.2-25.7,13.6-30.1,28.2l-8.1,26.7l-23.5,20.3c-9.9,8.4-15.7,21.4-14.3,35.4l2.8,27.8l-13.6,27.2
	c-6.3,11.7-6.8,26.2-0.1,38.8l13.1,24.4l-2.2,30.1c-1.5,13.4,3.6,27.3,14.9,36.5l21.7,17.7l8.7,26.2c3.2,13.9,13.6,25.7,28.2,30.1
	l26.7,8.1l20.3,23.5c8.4,9.9,21.4,15.7,35.4,14.3l27.8-2.8l27.2,13.6c11.7,6.3,26.2,6.8,38.8,0.1l24.4-13.1l30.1,2.2
	c13.4,1.5,27.3-3.6,36.5-14.9l17.7-21.7l26.2-8.7c13.9-3.2,25.7-13.6,30.1-28.2l8.1-26.7l23.5-20.3c9.9-8.4,15.7-21.4,14.3-35.4
	l-2.8-27.8l13.6-27.2c6.3-11.7,6.8-26.2,0.1-38.8l-13.1-24.4l2.2-30.1c1.5-13.4-3.6-27.3-14.9-36.5L449.8,128l-8.7-26.2
	c-3.2-13.9-13.6-25.7-28.2-30.1l-26.7-8.1l-20.3-23.5c-8.4-9.9-21.4-15.7-35.4-14.3L302.6,28.5z"/>
<circle class="st1" cx="256" cy="258.6" r="190"/>
<path class="st2" d="M292,206c-11.1-10.7-14.9-27.3-9.4-40.6c6.1-14.6,5.8-26.1-1.1-39.2c-7-13.3-30.6-24-33.8-8.1
	c-1.5,7.2,0.9,22.8-9.5,42.9c-11.9,22.8-0.1,51.6-34.6,51.6v137.7c23.7,0,47.4,13.1,71.1,13.1h57.7c29.5,0,37.4-31.7,27.5-41.1
	c14.8-6.3,19.4-27.5,11.4-37.8c15.6-7.7,17.4-31.9,7-37.7c11.3-0.2,20.5-9.3,20.5-20.1c0-12.1-9.6-20.6-21-20.6L292,206z"/>
<path class="st3" d="M203.6,350.4V212.6v-6.8h-52.8v151.4h52.8V350.4z"/>
<path d="M303,61.6c-5.4-1.3-10.8,2-12.1,7.4c-1.3,5.4,2,10.8,7.4,12.1C379.4,100.6,436,172.5,436,256c0,99.3-80.7,180-180,180
	S76,355.3,76,256c0-83.5,56.6-155.4,137.7-175c5.4-1.3,8.7-6.7,7.4-12.1c-1.3-5.4-6.7-8.7-12.1-7.4c-42.9,10.3-81.7,35.1-109.4,69.8
	C71.1,167.1,56,210.2,56,256c0,110.3,89.7,200,200,200s200-89.7,200-200c0-45.8-15.1-88.9-43.6-124.6
	C384.8,96.7,345.9,71.9,303,61.6z"/>
<path d="M506,231.9l-11.7-21.8l2-27c1.9-17.3-5-34.2-18.5-45.2l-19.4-15.9l-7.6-23c-4.3-17.6-17.6-31.7-35-37l-24-7.2l-18.4-21.2
	c-10.9-12.8-27.3-19.4-44-17.8l-24.9,2.5L280.1,6c-15.1-8-33-8-48.1,0l-21.8,11.7l-27-2c-17.3-1.9-34.2,5-45.2,18.5l-15.9,19.4
	l-23,7.6c-17.6,4.3-31.7,17.6-37,35l-7.2,24l-21.2,18.4c-12.8,10.9-19.4,27.3-17.8,44l2.5,24.9L6,231.9c-8,15.1-8,33,0,48.1
	l11.7,21.8l-2,27c-1.9,17.3,5,34.2,18.5,45.2L53.7,390l7.6,23c4.3,17.6,17.6,31.7,35,37l24,7.2l18.4,21.2
	c10.9,12.8,27.3,19.4,44,17.8l24.9-2.5l24.5,12.3c7.5,4,15.8,6,24.1,6c8.3,0,16.5-2,24.1-6l21.8-11.7l27,2
	c17.3,1.9,34.2-5,45.2-18.5l15.9-19.4l23-7.6c17.6-4.3,31.7-17.6,37-35l7.2-24l21.2-18.4c12.8-10.9,19.4-27.3,17.8-44l-2.5-24.9
	l12.3-24.5C514,265,514,247,506,231.9L506,231.9z M488.3,270.7c0,0.1-0.1,0.2-0.1,0.2l-13.6,27.2c-0.8,1.7-1.2,3.6-1,5.5l2.8,27.8
	c1,10.1-3.1,20.2-10.9,26.8l-23.5,20.3c-1.4,1.2-2.5,2.9-3,4.7l-8.1,26.7c-3.2,10.7-12,18.9-22.8,21.4c-0.3,0.1-0.6,0.2-0.9,0.2
	l-26.2,8.7c-1.8,0.6-3.4,1.7-4.6,3.2l-17.7,21.7c-6.7,8.2-17.1,12.4-27.7,11.3c-0.1,0-0.3,0-0.4,0l-30.1-2.2
	c-1.9-0.1-3.8,0.3-5.4,1.2l-24.4,13.1c-9.2,4.9-20.2,4.9-29.4-0.1c-0.1,0-0.2-0.1-0.2-0.1l-27.2-13.6c-1.4-0.7-2.9-1.1-4.5-1.1
	c-0.3,0-0.7,0-1,0l-27.8,2.8c-10.1,1-20.2-3.1-26.8-10.9l-20.3-23.5c-1.2-1.4-2.9-2.5-4.7-3l-26.7-8.1c-10.7-3.2-18.9-12-21.4-22.8
	c-0.1-0.3-0.2-0.6-0.2-0.9l-8.7-26.2c-0.6-1.8-1.7-3.4-3.2-4.6l-21.7-17.7c-8.2-6.7-12.4-17.1-11.3-27.7c0-0.1,0-0.3,0-0.4l2.2-30.1
	c0.1-1.9-0.3-3.8-1.2-5.4l-13.1-24.4c-4.9-9.2-4.9-20.2,0.1-29.4c0-0.1,0.1-0.2,0.1-0.2l13.6-27.2c0.8-1.7,1.2-3.6,1-5.5l-2.8-27.8
	c-1-10.1,3.1-20.2,10.9-26.8l23.5-20.3c1.4-1.2,2.5-2.9,3-4.7l8.1-26.7c3.2-10.7,12-18.9,22.8-21.4c0.3-0.1,0.6-0.2,0.9-0.2
	l26.2-8.7c1.8-0.6,3.4-1.7,4.6-3.2l17.7-21.7c6.7-8.2,17.1-12.4,27.7-11.2c0.1,0,0.3,0,0.4,0l30.1,2.2c1.9,0.1,3.8-0.3,5.4-1.2
	l24.4-13.1c9.2-4.9,20.2-4.9,29.4,0.1c0.1,0,0.2,0.1,0.2,0.1l27.2,13.6c1.7,0.8,3.6,1.2,5.5,1l27.8-2.8c10.1-1,20.2,3.1,26.8,10.9
	l20.3,23.5c1.2,1.4,2.9,2.5,4.7,3l26.7,8.1c10.7,3.2,18.9,12,21.4,22.8c0.1,0.3,0.2,0.6,0.2,0.9l8.7,26.2c0.6,1.8,1.7,3.4,3.2,4.6
	l21.7,17.7c8.2,6.7,12.4,17.1,11.2,27.7c0,0.1,0,0.3,0,0.4l-2.2,30.1c-0.1,1.9,0.3,3.8,1.2,5.4l13.1,24.4
	C493.2,250.6,493.2,261.5,488.3,270.7L488.3,270.7z"/>
<path d="M212.6,201.5c-1.6-3.4-5-5.7-9-5.7h-52.8c-5.5,0-10,4.5-10,10v151.4c0,5.5,4.5,10,10,10h52.8c4.1,0,7.7-2.5,9.2-6.1
	c7.6,1.1,15.5,3.2,23.7,5.5c12.3,3.4,25,6.9,38.2,6.9h57.7c17.8,0,32.3-9.5,38.7-25.3c3.1-7.7,3.6-15.7,1.8-22.4
	c3.3-3,6.1-6.7,8.2-11c4.3-8.8,5.2-18.7,2.7-27c4.5-4.4,7.9-10.2,9.7-17c1.7-6.4,1.6-12.7,0.2-18.2c9-5.3,15.1-14.9,15.1-25.8
	c0-8.5-3.3-16.4-9.3-22.1c-5.8-5.5-13.5-8.5-21.7-8.5l-81.4,0c-6.2-7.8-8.1-18.3-4.6-26.8c7.2-17.4,6.8-32.1-1.4-47.7
	c-6.1-11.6-22.5-23.1-36.3-21.2c-8.3,1.2-14.4,7.1-16.1,15.8c-0.5,2.6-0.7,5.3-0.8,8.5c-0.4,7.9-1,18.7-7.8,31.7
	c-4.6,8.8-6.2,17.9-7.5,26C219.9,193.9,218.9,199.4,212.6,201.5L212.6,201.5z M160.7,215.8h32.8v131.4h-32.8V215.8z M241.5,185.7
	c1.2-6.9,2.4-14,5.5-20c8.8-16.9,9.6-31.3,10-39.9c0.1-2.3,0.2-4.5,0.5-5.6c0,0,0,0,0,0c3.5,0,12,4.7,15.2,10.7
	c5.5,10.4,5.7,18.7,0.7,30.7c-4.5,10.8-4.2,23.4,0.3,34.5c-4.9,0.7-8.6,4.8-8.6,9.9c0,5.5,4.5,10,10,10l102.7,0c3,0,5.9,1.1,7.9,3
	c1.4,1.4,3.1,3.8,3.1,7.6c0,5.4-4.9,10-10.7,10.1l-25.7,0.6c-5.5,0.1-9.9,4.7-9.8,10.2c0.1,5.4,4.6,9.8,10,9.8c0.1,0,0.1,0,0.2,0
	l21.4-0.5c0.7,2,1.1,5.8-0.4,10.1c-1.3,3.7-4.6,9.9-13.1,9.9c-5.5,0-10,4.5-10,10s4.5,10,10,10c1.5,0,3-0.1,4.5-0.3
	c0.1,2.8-0.5,6.1-2,9.3c-1.8,3.8-5.5,8.2-12.3,8.2c-5.5,0-10,4.5-10,10s4.5,10,10,10c1,0,2.1,0,3.1-0.1c0,1.9-0.4,4.3-1.5,6.9
	c-1.6,3.8-6.7,12.6-20,12.6h-57.7c-10.5,0-21.4-3-32.9-6.2c-9.2-2.5-18.6-5.1-28.2-6.3V221.8C236.1,217.7,239.2,199.4,241.5,185.7z"
	/>
<path d="M256,76c5.5,0,10-4.5,10-10s-4.5-10-10-10h0c-5.5,0-10,4.5-10,10S250.5,76,256,76z"/>
</svg>
