<?xml version="1.0" encoding="iso-8859-1"?>
<!-- Generator: Adobe Illustrator 19.0.0, SVG Export Plug-In . SVG Version: 6.00 Build 0)  -->
<svg version="1.1" id="Capa_1" xmlns="http://www.w3.org/2000/svg" xmlns:xlink="http://www.w3.org/1999/xlink" x="0px" y="0px"
	 viewBox="0 0 512 512" style="enable-background:new 0 0 512 512;" xml:space="preserve">
<path style="fill:#FF4A44;" d="M22.588,263.529c0-58.217,47.194-105.412,105.412-105.412s105.412,47.194,105.412,105.412"/>
<path style="fill:#BF3833;" d="M43.294,265.412c0-46.782,37.924-84.706,84.706-84.706s84.706,37.924,84.706,84.706"/>
<circle style="fill:#FF4A44;" cx="353.882" cy="171.289" r="54.583"/>
<circle style="fill:#BF3833;" cx="353.882" cy="171.289" r="35.765"/>
<path style="fill:#69E041;" d="M301.176,178.824v-20.676c0-15.611-12.654-28.265-28.265-28.265h-25.382
	c-7.796,0-14.117,6.321-14.117,14.117l0,0c0,7.796-6.321,14.117-14.117,14.117h-1.882c-7.796,0-14.117,6.321-14.117,14.117v17.883
	l26.353,47.059L301.176,178.824z"/>
<path style="fill:#FF4A44;" d="M62.118,263.529c0-36.386,29.496-65.882,65.882-65.882s65.882,29.496,65.882,65.882"/>
<path style="fill:#BF3833;" d="M101.647,261.647c0-14.554,11.799-26.353,26.353-26.353c14.554,0,26.353,11.799,26.353,26.353"/>
<path style="fill:#69E041;" d="M233.412,263.529v-20.706c0-5.198,4.213-9.412,9.412-9.412l0,0c5.198,0,9.412-4.213,9.412-9.412l0,0
	c0-11.436,9.27-20.706,20.706-20.706h58.353c5.198,0,9.412-4.213,9.412-9.412l0,0c0-10.396,8.428-18.824,18.824-18.824h26.353
	c10.396,0,18.824,8.428,18.824,18.824v24.471c0,8.316,6.742,15.059,15.059,15.059l0,0c5.198,0,9.412,4.213,9.412,9.412v16.941"/>
<path d="M240.941,263.529h-15.059v-20.706c0-9.341,7.6-16.941,16.941-16.941c1.038,0,1.882-0.844,1.882-1.882
	c0-15.569,12.666-28.235,28.235-28.235h58.353c1.038,0,1.882-0.844,1.882-1.882c0-14.531,11.821-26.353,26.353-26.353h26.353
	c14.532,0,26.353,11.822,26.353,26.353v24.471c0,4.152,3.377,7.529,7.529,7.529c9.341,0,16.941,7.6,16.941,16.941v16.941h-15.059
	v-16.941c0-1.038-0.844-1.882-1.882-1.882c-12.455,0-22.588-10.133-22.588-22.588v-24.471c0-6.227-5.067-11.294-11.294-11.294
	h-26.353c-6.227,0-11.294,5.067-11.294,11.294c0,9.341-7.6,16.941-16.941,16.941h-58.353c-7.265,0-13.176,5.911-13.176,13.176
	c0,9.341-7.6,16.941-16.941,16.941c-1.038,0-1.882,0.844-1.882,1.882V263.529z"/>
<rect x="120.471" y="248.471" style="fill:#FFFFFF;" width="15.059" height="13.171"/>
<path style="fill:#4FA831;" d="M419.765,233.412c-8.316,0-15.059-6.742-15.059-15.059v-24.471c0-10.396-8.428-18.824-18.824-18.824
	h-26.353c-10.396,0-18.824,8.428-18.824,18.824l0,0c0,5.198-4.213,9.412-9.412,9.412h-58.353c-11.436,0-20.706,9.27-20.706,20.706
	l0,0c0,5.198-4.213,9.412-9.412,9.412s-9.412,4.213-9.412,9.412v20.706l13.507-0.26c2.097-1.726,3.434-4.341,3.434-7.269l0,0
	c0-11.436,9.27-20.706,20.706-20.706h58.353c5.198,0,9.412-4.213,9.412-9.412l0,0c0-10.396,8.428-18.824,18.824-18.824H384
	c10.396,0,18.824,8.428,18.824,18.824v24.471c0,3.77,1.394,7.206,3.683,9.847l22.67-0.436v-16.941
	C429.176,237.625,424.963,233.412,419.765,233.412z"/>
<path style="fill:#FAB455;" d="M105.412,163.765V37.647c0-12.475,10.114-22.588,22.588-22.588l0,0
	c12.475,0,22.588,10.114,22.588,22.588V160"/>
<path style="fill:#F9A12B;" d="M128,37.647c0-8.36,4.545-15.653,11.294-19.558c-3.323-1.924-7.178-3.03-11.294-3.03
	c-12.475,0-22.588,10.113-22.588,22.588v126.118L128,161.882V37.647z"/>
<path style="fill:#FAB455;" d="M429.176,216.471V37.647c0-12.475,10.114-22.588,22.588-22.588l0,0
	c12.475,0,22.588,10.114,22.588,22.588v178.824"/>
<path style="fill:#BF3833;" d="M451.765,263.529c15.594,0,28.235-12.641,28.235-28.235s-12.641-28.235-28.235-28.235
	s-28.235,12.641-28.235,28.235v30.118L451.765,263.529z"/>
<path style="fill:#F9A12B;" d="M451.765,37.647c0-8.36,4.545-15.653,11.294-19.558c-3.323-1.924-7.178-3.03-11.294-3.03
	c-12.475,0-22.588,10.113-22.588,22.588v169.412l22.588-1.882V37.647z"/>
<path style="fill:#DCEA5C;" d="M263.529,504.471h-15.059c-133.068,0-240.941-107.873-240.941-240.941l0,0h496.941l0,0
	C504.471,396.597,396.597,504.471,263.529,504.471z"/>
<path style="fill:#A5B045;" d="M80.941,263.529L80.941,263.529H7.529l0,0c0,133.068,107.873,240.941,240.941,240.941h15.059
	c9.877,0,19.611-0.608,29.176-1.763C173.399,488.304,80.941,386.721,80.941,263.529z"/>
<path style="fill:#BF3833;" d="M267.294,203.294c0-14.554,11.799-26.353,26.353-26.353S320,188.74,320,203.294"/>
<rect x="9.412" y="286.118" style="fill:#FFFFFF;" width="493.177" height="22.588"/>
<polygon style="fill:#E6E6E6;" points="84.706,308.706 9.412,308.706 9.412,286.118 82.824,286.118 "/>
<g>
	<rect x="120.471" y="203.294" style="fill:#FFFFFF;" width="15.059" height="22.588"/>
	
		<rect x="82.102" y="221.396" transform="matrix(-0.7071 -0.7071 0.7071 -0.7071 -2.4378 456.8411)" style="fill:#FFFFFF;" width="22.587" height="15.059"/>
	
		<rect x="155.075" y="217.626" transform="matrix(-0.7071 -0.7071 0.7071 -0.7071 115.7125 505.7694)" style="fill:#FFFFFF;" width="15.059" height="22.587"/>
</g>
<rect x="52.706" y="301.176" width="406.588" height="15.059"/>
<rect x="22.588" y="278.588" width="466.824" height="15.059"/>
<rect x="120.471" y="37.647" width="15.059" height="45.176"/>
<rect x="444.235" y="37.647" width="15.059" height="45.176"/>
<path d="M480.899,256c4.169-5.848,6.631-12.993,6.631-20.706c0-5.765-1.379-11.21-3.812-16.037l-1.835-181.61
	c0-16.607-13.511-30.118-30.118-30.118c-16.607,0-30.118,13.511-30.118,30.198l1.869,175.671c-2.764,3.558-4.869,7.648-6.138,12.089
	c-2.985-1.001-5.143-3.818-5.143-7.135v-24.471c0-0.403-0.012-0.803-0.03-1.202c2.511-6.839,3.795-14.019,3.795-21.387
	c0-34.252-27.866-62.118-62.118-62.118c-21.222,0-40.646,10.961-51.934,28.079c-6.506-9.017-17.095-14.902-29.038-14.902h-25.381
	c-11.937,0-21.648,9.711-21.648,21.648c0,3.633-2.956,6.589-6.589,6.589h-1.882c-11.937,0-21.648,9.711-21.648,21.648v0.998
	c-11.137-8.379-23.867-14.745-37.647-18.562V37.647c0-16.607-13.511-30.118-30.118-30.118S97.88,21.04,97.88,37.647v117.025
	C52.511,167.24,18.543,207.482,15.332,256H0v7.529c0,66.369,25.845,128.765,72.775,175.695C119.705,486.154,182.102,512,248.471,512
	h15.059c66.368,0,128.766-25.846,175.695-72.775C486.155,392.294,512,329.899,512,263.529V256H480.899z M451.765,22.588
	c8.303,0,15.059,6.755,15.059,15.135L468.5,203.7c-4.998-2.657-10.692-4.17-16.735-4.17c-4.702,0-9.192,0.922-13.308,2.578
	l-1.751-164.46C436.706,29.344,443.461,22.588,451.765,22.588z M451.765,214.588c6.998,0,13.184,3.499,16.934,8.829l0.007,0.659
	l0.435-0.004c2.098,3.238,3.33,7.086,3.33,11.223c0,11.418-9.288,20.706-20.706,20.706h-15.059v-13.176
	c0-4.744-1.966-9.032-5.119-12.111C433.68,221.495,441.923,214.588,451.765,214.588z M419.765,240.941
	c1.038,0,1.882,0.844,1.882,1.882V256h-72.758l0.833-9.99l8.983-3.993l13.062,10.45l9.408-11.759l-6.973-5.579l9.798-4.355v-35.01
	h-15.059v25.225l-33.486,14.883L333.778,256h-27.775l-5.782-5.337l13.81-13.81l-10.649-10.648l-14.235,14.235l-3.03-2.796v-11.762
	h-15.059v18.356L283.802,256h-42.86v-13.176c0-1.038,0.844-1.882,1.882-1.882c9.341,0,16.941-7.6,16.941-16.941
	c0-7.265,5.911-13.176,13.176-13.176h58.353c9.341,0,16.941-7.6,16.941-16.941c0-6.227,5.067-11.294,11.294-11.294h26.353
	c6.227,0,11.294,5.067,11.294,11.294v24.471C397.176,230.809,407.31,240.941,419.765,240.941z M337.257,148.983
	c4.539-3.7,10.325-5.924,16.625-5.924c4.372,0,8.496,1.076,12.129,2.969l-5.206,5.206l10.649,10.648l5.386-5.386
	c1.866,3.304,3.038,7.047,3.32,11.033h-20.632c-12.094,0-22.305,8.193-25.391,19.317c-4.186-4.756-6.609-10.943-6.609-17.435
	c0-2.68,0.405-5.269,1.153-7.708l5.502,5.502l10.649-10.648L337.257,148.983z M353.882,124.235c25.948,0,47.059,21.11,47.059,47.059
	c0,0.322-0.017,0.643-0.023,0.964c-1.736-1.211-3.623-2.217-5.628-2.987C395.215,146.502,376.669,128,353.882,128
	c-22.834,0-41.412,18.578-41.412,41.412c0,2.041,0.167,4.059,0.463,6.048c-1.342-0.933-2.755-1.771-4.228-2.505v-14.807
	c0-0.021-0.001-0.041-0.001-0.061C314.524,138.145,333.065,124.235,353.882,124.235z M310.888,195.765h-34.482
	c2.911-6.64,9.539-11.294,17.241-11.294C301.35,184.471,307.977,189.125,310.888,195.765z M210.824,172.236
	c0-3.633,2.956-6.589,6.589-6.589h1.882c11.937,0,21.648-9.711,21.648-21.648c0-3.633,2.956-6.589,6.589-6.589h25.381
	c11.435,0,20.736,9.302,20.736,20.736v11.264c-7.001,0-13.514,2.135-18.92,5.788l-11.199-12.441v-12.17h-15.059v17.948
	l15.924,17.693c-2.232,3.811-3.738,8.092-4.334,12.657c-9.108,4.69-15.355,14.182-15.355,25.113c0,1.038-0.844,1.882-1.882,1.882
	c-2.772,0-5.382,0.683-7.694,1.867c-1.367-4.083-2.965-8.061-4.772-11.922l10.583-9.07v-26.052h-15.059v19.125l-2.971,2.547
	c-3.577-5.533-7.627-10.732-12.088-15.546V172.236z M112.941,37.647c0-8.303,6.755-15.059,15.059-15.059
	c8.303,0,15.059,6.755,15.059,15.059v113.948c-4.928-0.66-9.953-1.007-15.059-1.007c-5.106,0-10.131,0.347-15.059,1.007V37.647z
	 M128,165.647c51.44,0,93.738,39.885,97.595,90.353h-7.559c-3.839-46.311-42.752-82.824-90.037-82.824S41.802,209.689,37.963,256
	h-7.559C34.262,205.532,76.56,165.647,128,165.647z M202.917,256H53.083c3.79-37.994,35.94-67.765,74.917-67.765
	S199.127,218.006,202.917,256z M428.576,428.576c-44.085,44.086-102.699,68.365-165.047,68.365h-15.059
	c-62.348,0-120.962-24.279-165.047-68.365c-31.383-31.382-52.717-70.129-62.412-112.341h16.635v-15.059H18.076
	c-1.595-9.897-2.579-19.949-2.898-30.118h481.645c-0.32,10.169-1.303,20.221-2.898,30.118h-19.571v15.059h16.635
	C481.293,358.447,459.959,397.195,428.576,428.576z"/>
<rect x="188.235" y="120.471" width="15.059" height="15.059"/>
<rect x="203.294" y="82.824" width="15.059" height="15.059"/>
<rect x="240.941" y="37.647" width="15.059" height="15.059"/>
<rect x="263.529" y="90.353" width="15.059" height="15.059"/>
<rect x="278.588" y="75.294" width="15.059" height="15.059"/>
<rect x="316.235" width="15.059" height="15.059"/>
<rect x="346.353" y="45.176" width="15.059" height="15.059"/>
<rect x="323.765" y="67.765" width="15.059" height="15.059"/>
<rect x="391.529" y="97.882" width="15.059" height="15.059"/>
<g>
</g>
<g>
</g>
<g>
</g>
<g>
</g>
<g>
</g>
<g>
</g>
<g>
</g>
<g>
</g>
<g>
</g>
<g>
</g>
<g>
</g>
<g>
</g>
<g>
</g>
<g>
</g>
<g>
</g>
</svg>
