<?xml version="1.0" encoding="utf-8"?>
<!-- Generator: Adobe Illustrator 24.0.1, SVG Export Plug-In . SVG Version: 6.00 Build 0)  -->
<svg version="1.1" id="Capa_1" xmlns="http://www.w3.org/2000/svg" xmlns:xlink="http://www.w3.org/1999/xlink" x="0px" y="0px"
	 viewBox="0 0 512 512" style="enable-background:new 0 0 512 512;" xml:space="preserve">
<style type="text/css">
	.st0{fill:#B9B9B9;}
	.st1{fill:#DBDBDB;}
	.st2{opacity:0.1;enable-background:new    ;}
	.st3{fill:#F8C36E;}
	.st4{fill:#FBB540;}
	.st5{fill:#F39600;}
	.st6{fill:#995C57;}
</style>
<path class="st0" d="M437.1,409.6c-6.7,9.8-17.8,16.1-30.2,16.1s-23.4-6.4-30.2-16.1c-6.7,9.8-17.7,16.1-30.2,16.1
	c-12.4,0-23.4-6.4-30.2-16.1c-6.7,9.8-17.8,16.1-30.2,16.1s-23.4-6.4-30.2-16.1c-6.7,9.8-17.8,16.1-30.2,16.1
	c-12.4,0-23.4-6.4-30.2-16.1c-6.7,9.8-17.7,16.1-30.2,16.1s-23.4-6.4-30.2-16.1c-6.7,9.8-17.7,16.1-30.2,16.1s-23.4-6.4-30.2-16.1
	c-6.1,8.8-15.7,14.9-26.7,15.9l38.4,56.6c1.6,2.4,5.3,4.3,8.2,4.3h322.7c2.9,0,6.6-2,8.2-4.3l38.4-56.6
	C452.9,424.5,443.3,418.5,437.1,409.6z"/>
<path class="st1" d="M68.8,456.1l17.6,26c1.6,2.4,5.3,4.3,8.2,4.3h322.7c2.9,0,6.6-2,8.2-4.3l17.6-26H68.8z"/>
<path class="st2" d="M125.1,482.2l-45-66.5c-1.9-1.8-3.7-3.9-5.2-6.1c-6.1,8.8-15.7,14.9-26.7,15.9l38.4,56.6
	c1.6,2.4,5.3,4.3,8.2,4.3h38.6C130.4,486.5,126.7,484.6,125.1,482.2z"/>
<path class="st3" d="M471.9,357.4C429.1,289.5,348.4,243.8,256,243.8S82.9,289.5,40.1,357.4H471.9z"/>
<path class="st2" d="M89.5,357.4c39-61.7,109.3-105.2,191.2-112.5c-8.1-0.7-16.4-1.1-24.7-1.1c-92.4,0-173.1,45.7-215.9,113.6
	L89.5,357.4C89.5,357.4,89.5,357.4,89.5,357.4z"/>
<path class="st4" d="M504.5,380.7c0-12.8-10.2-23.3-22.6-23.3H30.1c-12.4,0-22.6,10.5-22.6,23.3v6.4c0,21.3,16.6,38.6,37.2,38.6
	c12.4,0,23.4-6.4,30.2-16.1c6.7,9.8,17.7,16.1,30.2,16.1s23.4-6.4,30.2-16.1c6.7,9.8,17.7,16.1,30.2,16.1s23.4-6.4,30.2-16.1
	c6.7,9.8,17.7,16.1,30.2,16.1c12.4,0,23.4-6.4,30.2-16.1c6.7,9.8,17.7,16.1,30.2,16.1c12.4,0,23.4-6.4,30.2-16.1
	c6.7,9.8,17.7,16.1,30.2,16.1c12.4,0,23.4-6.4,30.2-16.1c6.7,9.8,17.8,16.1,30.2,16.1c12.4,0,23.4-6.4,30.2-16.1
	c6.7,9.8,17.8,16.1,30.2,16.1c20.5,0,37.2-17.3,37.2-38.6L504.5,380.7L504.5,380.7z"/>
<ellipse class="st5" cx="256" cy="299.9" rx="13.3" ry="24.7"/>
<g>
	<path class="st6" d="M207.1,277.3c5.2,5.3,0.9,18.1-9.6,28.8c-10.5,10.6-23.3,15-28.5,9.7s-0.9-18.1,9.6-28.8
		C189.2,276.4,201.9,272,207.1,277.3z"/>
	<path class="st6" d="M305.7,277.3c-5.2,5.3-0.9,18.1,9.6,28.8c10.5,10.6,23.3,15,28.5,9.7s0.9-18.1-9.6-28.8
		C323.7,276.4,310.9,272,305.7,277.3z"/>
</g>
<g>
	<path class="st5" d="M353.9,256.3c-3.6,6.5,3.9,17.7,16.8,25.2c12.9,7.4,26.4,8.2,30,1.8c3.6-6.5-3.9-17.7-16.8-25.2
		C370.9,250.6,357.5,249.8,353.9,256.3z"/>
	<path class="st5" d="M162.9,256.3c3.6,6.5-3.9,17.7-16.8,25.2c-12.9,7.4-26.4,8.2-30,1.8c-3.6-6.5,3.9-17.7,16.8-25.2
		C145.8,250.6,159.2,249.8,162.9,256.3z"/>
</g>
<path d="M235.2,299.9c0,18.4,9,32.2,20.8,32.2c11.9,0,20.8-13.9,20.8-32.2c0-18.4-9-32.2-20.8-32.2
	C244.1,267.6,235.2,281.5,235.2,299.9z M261.8,299.9c0,11-4.4,16.9-5.8,17.2c-1.4-0.3-5.8-6.2-5.8-17.2c0-11.1,4.5-17,5.8-17.2
	C257.3,282.9,261.8,288.8,261.8,299.9z"/>
<path d="M173.3,281.7c-14.1,14.2-18.1,30.7-9.6,39.3c2.9,2.9,6.9,4.5,11.5,4.5c8.5,0,18.9-5.3,27.7-14.2
	c14.1-14.2,18.1-30.7,9.6-39.3c-2.9-2.9-6.9-4.5-11.5-4.5C192.4,267.6,182.1,272.9,173.3,281.7z M192.2,300.8
	c-6.6,6.7-13.4,9.7-17,9.7c-0.4,0-0.6,0-0.8-0.1c-0.6-2,1.3-9.8,9.6-18.1c6.6-6.7,13.4-9.7,17-9.7c0.4,0,0.6,0,0.8,0.1
	C202.4,284.6,200.5,292.4,192.2,300.8z"/>
<path d="M311.9,267.6c-4.6,0-8.6,1.5-11.5,4.5c-8.5,8.6-4.4,25.1,9.6,39.3c8.8,8.9,19.1,14.2,27.7,14.2h0c4.6,0,8.6-1.5,11.5-4.5
	c8.5-8.6,4.4-25.1-9.6-39.3C330.7,272.9,320.4,267.6,311.9,267.6z M338.4,310.4c-0.1,0-0.4,0.1-0.8,0.1l0,0c-3.5,0-10.4-3-17-9.7
	c-8.3-8.4-10.2-16.2-9.6-18.1c0.1,0,0.4-0.1,0.8-0.1c3.5,0,10.4,3,17,9.7C337.1,300.7,339,308.5,338.4,310.4z"/>
<path d="M481.9,349.9H476c-9.3-14.2-20.3-27.5-32.8-39.6c-3-2.9-7.7-2.8-10.6,0.1c-2.9,3-2.8,7.7,0.1,10.6c9.3,9,17.6,18.7,25,28.9
	H328c-4.1,0-7.5,3.4-7.5,7.5s3.4,7.5,7.5,7.5h153.9c8.3,0,15.1,7.1,15.1,15.8v6.4c0,17.2-13.3,31.1-29.7,31.1
	c-9.5,0-18.4-4.8-24-12.9c0-0.1-0.1-0.1-0.1-0.2c-2.5-3.7-4.3-8-5.1-12.7c-0.7-4.1-4.5-6.8-8.6-6.2c-4.1,0.7-6.9,4.5-6.2,8.6
	c0.8,5,2.4,9.8,4.7,14.1c-5.5,5.8-13.1,9.2-21,9.2c-9.5,0-18.4-4.8-24-12.9c-0.1-0.1-0.2-0.3-0.3-0.4c-2.1-3.2-3.7-6.8-4.6-10.8
	c-0.9-4-4.9-6.6-8.9-5.7c-4,0.9-6.6,4.9-5.7,8.9c0.9,4.1,2.3,8,4.2,11.6c-5.5,5.8-13.1,9.2-21,9.2c-9.5,0-18.4-4.8-24-12.9
	c-0.1-0.1-0.2-0.3-0.3-0.4c-2.1-3.2-3.7-6.8-4.6-10.8c-0.9-4-4.9-6.6-8.9-5.7c-4,0.9-6.6,4.9-5.7,8.9c0.9,4.1,2.3,8,4.2,11.6
	c-5.5,5.8-13.1,9.2-21,9.2c-9.5,0-18.4-4.8-24-12.9c-0.1-0.1-0.2-0.3-0.3-0.4c-2.1-3.2-3.7-6.8-4.6-10.8c-0.9-4-4.9-6.6-8.9-5.7
	c-4,0.9-6.6,4.9-5.7,8.9c0.9,4.1,2.3,8,4.2,11.6c-5.5,5.8-13.1,9.2-21,9.2c-9.5,0-18.4-4.8-24-12.9c-0.1-0.1-0.2-0.3-0.3-0.4
	c-2.1-3.2-3.7-6.8-4.6-10.8c-0.9-4-4.9-6.6-8.9-5.7c-4,0.9-6.6,4.9-5.7,8.9c0.9,4.1,2.3,8,4.2,11.6c-5.5,5.8-13.1,9.2-21,9.2
	c-7.5,0-14.6-3-20.1-8.2c-0.2-0.2-0.5-0.5-0.7-0.7c-0.2-0.2-0.5-0.5-0.7-0.7c-0.2-0.2-0.4-0.5-0.6-0.7c-0.2-0.3-0.5-0.5-0.7-0.8
	c-0.2-0.2-0.3-0.4-0.5-0.7c-0.2-0.3-0.5-0.6-0.7-0.9c0,0,0,0,0,0c-2.1-3-3.7-6.5-4.6-10.3c-1-4-5.1-6.5-9.1-5.5
	c-4,1-6.5,5.1-5.5,9.1c0.9,3.6,2.3,7.1,3.9,10.3c-5.5,5.9-13.1,9.3-21.1,9.3c-7.2,0-14.2-2.8-19.5-7.8h0c-1-0.9-2-1.9-2.9-3
	c0,0-0.1-0.1-0.1-0.1c-0.4-0.5-0.8-1-1.1-1.5c-0.1-0.1-0.1-0.2-0.2-0.3c-2.1-2.9-3.6-6.2-4.6-9.7c-1.1-4-5.3-6.3-9.2-5.2
	c-4,1.1-6.3,5.3-5.2,9.2c0.9,3.2,2.1,6.2,3.6,9c-5.5,5.9-13.1,9.3-21.1,9.3c-16.4,0-29.7-14-29.7-31.1v-6.4
	c0-8.7,6.8-15.8,15.1-15.8H292c4.1,0,7.5-3.4,7.5-7.5s-3.4-7.5-7.5-7.5H54.2c16.2-22.3,36.7-41.8,60.8-57.5c3,1.7,6.7,2.7,11.1,2.7
	c7.3,0,15.7-2.5,23.7-7.1c11-6.3,18.3-14.6,20.7-22.5c27.1-9.3,56-14.1,85.5-14.1c31.4,0,62.3,5.6,90.9,16.1
	c2.9,7.3,9.9,14.7,20,20.5c8,4.6,16.4,7.1,23.7,7.1c0,0,0,0,0,0c3.1,0,5.9-0.5,8.3-1.4c3.6,2.4,7.1,4.9,10.6,7.5
	c3.3,2.5,8,1.8,10.5-1.5c2.5-3.3,1.8-8-1.5-10.5c-3.2-2.4-6.4-4.6-9.7-6.8c1.8-10-6.3-22.2-21.2-30.8c-8-4.6-16.4-7.1-23.7-7.1
	c-7.3,0-13,2.6-16.1,7.4c-29.1-10.2-60.3-15.5-91.8-15.5c-30.3,0-60.1,4.8-88.1,14.2c-3.3-3.9-8.5-6.1-15.1-6.1
	c-7.3,0-15.7,2.5-23.7,7.1c-13.5,7.7-21.4,18.5-21.5,27.8c-29.1,18.8-53.4,42.8-71.6,70.5h-5.9C13.5,349.9,0,363.7,0,380.7v6.4
	c0,25.3,19.8,45.9,44.3,46.1l36,53.1c3,4.4,9,7.6,14.4,7.6H344c4.1,0,7.5-3.4,7.5-7.5s-3.4-7.5-7.5-7.5l-249.3,0c-0.5,0-1.7-0.7-2-1
	L83,463.6h74c4.1,0,7.5-3.4,7.5-7.5s-3.4-7.5-7.5-7.5H72.8l-12.4-18.4c5.3-2.1,10.3-5.2,14.5-9.2c8.2,7.7,18.9,12.2,30.2,12.2
	s22-4.4,30.2-12.2c8.2,7.7,18.9,12.2,30.2,12.2c11.3,0,22-4.4,30.2-12.2c8.2,7.7,18.9,12.2,30.2,12.2c11.3,0,22-4.4,30.2-12.2
	c8.2,7.7,18.9,12.2,30.2,12.2c11.3,0,22-4.4,30.2-12.2c8.2,7.7,18.9,12.2,30.2,12.2c11.3,0,22-4.4,30.2-12.2
	c8.2,7.7,18.9,12.2,30.2,12.2c11.3,0,22-4.4,30.2-12.2c4.2,4,9.1,7.1,14.5,9.2l-12.4,18.4H198c-4.1,0-7.5,3.4-7.5,7.5
	s3.4,7.5,7.5,7.5h231l-9.7,14.3c-0.3,0.4-1.5,1-2,1.1H383c-4.1,0-7.5,3.4-7.5,7.5s3.4,7.5,7.5,7.5h34.4c5.3,0,11.4-3.2,14.4-7.6
	l36-53.1c24.4-0.2,44.3-20.8,44.3-46.1v-6.4C512,363.7,498.5,349.9,481.9,349.9z M363.9,259.4c4.6,0,10.6,1.9,16.2,5.1
	c10.2,5.9,14.1,12.9,14,14.9c-0.4,0.2-1.5,0.6-3.5,0.6h0c-4.6,0-10.6-1.9-16.2-5.1c-10.2-5.9-14.1-12.9-14-14.9
	C360.8,259.8,361.9,259.4,363.9,259.4z M136.6,264.5c5.6-3.2,11.6-5.1,16.2-5.1c2,0,3.1,0.4,3.5,0.6c0.1,2-3.7,9.1-14,14.9
	c-5.6,3.2-11.6,5.1-16.2,5.1c-2,0-3.1-0.4-3.5-0.6C122.5,277.5,126.4,270.4,136.6,264.5z"/>
<path d="M297.4,83.3h25.9c16.5,0,30,13.6,30,30.2c0,16.7-13.5,30.3-30,30.3H307c-4.1,0-7.5,3.4-7.5,7.5s3.4,7.5,7.5,7.5h16.3
	c24.8,0,45-20.3,45-45.3c0-25-20.2-45.2-45-45.2h-25.9c-4.1,0-7.5,3.4-7.5,7.5S293.2,83.3,297.4,83.3z"/>
<path d="M209.9,182.9v20.5c0,4.1,3.4,7.5,7.5,7.5s7.5-3.4,7.5-7.5v-20.5c0-13.3,10.7-24.1,23.9-24.1H271c4.1,0,7.5-3.4,7.5-7.5
	s-3.4-7.5-7.5-7.5h-22.2C227.3,143.8,209.9,161.3,209.9,182.9z"/>
<path d="M190.5,112H249c4.1,0,7.5-3.4,7.5-7.5S253.1,97,249,97h-58.5c-17.5,0-31.8-14.4-31.8-32s14.3-32,31.8-32h21
	c4.1,0,7.5-3.4,7.5-7.5s-3.4-7.5-7.5-7.5h-21c-25.8,0-46.8,21.1-46.8,47C143.7,90.9,164.7,112,190.5,112z"/>
</svg>
