<?xml version="1.0" encoding="utf-8"?>
<!-- Generator: Adobe Illustrator 24.0.1, SVG Export Plug-In . SVG Version: 6.00 Build 0)  -->
<svg version="1.1" id="t.svg" xmlns="http://www.w3.org/2000/svg" xmlns:xlink="http://www.w3.org/1999/xlink" x="0px" y="0px"
	 viewBox="0 0 53.2 53" style="enable-background:new 0 0 53.2 53;" xml:space="preserve">
<style type="text/css">
	.st0{fill:#FFC530;}
	.st1{fill-rule:evenodd;clip-rule:evenodd;}
</style>
<ellipse id="Эллипс_17" class="st0" cx="26.6" cy="26.5" rx="26.6" ry="26.5"/>
<path id="Фигура_701" class="st1" d="M33.6,37.1c-0.8-0.1-1.5-0.4-2.2-0.9l-1.3-0.8c-0.2-0.1-0.3-0.2-0.5-0.3
	c-0.1,0-0.1-0.1-0.2-0.1l-3.5-2.2c-0.5,0.3-2.6,2.1-3.1,2.5c-0.5,0.5-1.1,0.7-1.8,0.6c-0.4,0-0.7-1.4-0.8-1.6
	C20.1,34.1,20,34,20,33.8l-1.1-3.1c0-0.1-0.1-0.3-0.1-0.4c-0.2-0.5-0.3-0.9-0.5-1.3c-0.2-0.5-0.1-0.4-0.8-0.5
	c-0.2,0-0.2-0.1-0.5-0.1L16,28.1c-1.7-0.4-3.4-0.9-5.1-1.5c-0.2-0.1-0.3-0.4-0.2-0.6c0-0.1,0.1-0.1,0.1-0.2c0.6-0.4,1.2-0.7,1.9-0.9
	l14.7-4.8c1.3-0.4,2.6-0.9,3.8-1.3l0.8-0.3c0.1,0,0.1,0,0.2-0.1c0.1,0,0.2-0.1,0.3-0.1c0,0,0,0,0.1,0l0.8-0.3
	c0.2-0.1,0.3-0.1,0.4-0.1c0.4-0.1,3.7-1.3,4-1.3c0.4-0.1,0.8,0.1,1.1,0.4c0.4,0.7,0.4,1.4,0,2.1l-0.7,3c-0.1,0.6-0.4,1.3-0.5,1.8
	c0,0.2-0.1,0.4-0.2,0.6c-0.1,0.2-0.1,0.4-0.2,0.7c-0.1,0.2-0.1,0.4-0.1,0.6l-1.9,7.4c-0.3,0.9-0.5,2.9-1.2,3.5
	C34,37,33.8,37.1,33.6,37.1z"/>
</svg>
