<?xml version="1.0" encoding="utf-8"?>
<!-- Generator: Adobe Illustrator 24.0.1, SVG Export Plug-In . SVG Version: 6.00 Build 0)  -->
<svg version="1.1" id="y.svg" xmlns="http://www.w3.org/2000/svg" xmlns:xlink="http://www.w3.org/1999/xlink" x="0px" y="0px"
	 viewBox="0 0 53.2 53" style="enable-background:new 0 0 53.2 53;" xml:space="preserve">
<style type="text/css">
	.st0{fill:#FFC530;}
	.st1{fill-rule:evenodd;clip-rule:evenodd;}
	.st2{fill-rule:evenodd;clip-rule:evenodd;fill:#E8AA31;}
</style>
<circle id="Эллипс_17" class="st0" cx="26.6" cy="26.5" r="26.6"/>
<path id="Фигура_101" class="st1" d="M35.9,34c-0.6,0.5-2.4,1.1-9.7,1.1c-7.8,0-9-0.7-9.4-0.9c-1.9-1.2-2.2-6-2.2-7.5
	c0-1.1,0.2-6.5,2.2-7.7c0.4-0.2,1.5-0.9,9.4-0.9c7.3,0,9.1,0.6,9.7,1.1c1.7,1.3,1.9,6.1,1.9,7.6C37.8,28.4,37.6,32.7,35.9,34
	L35.9,34z"/>
<path id="Фигура_101_копия_2" class="st2" d="M24.4,23.2L24.4,23.2v6.7l5.4-3.3L24.4,23.2"/>
</svg>
