<?xml version="1.0" encoding="utf-8"?>
<!-- Generator: Adobe Illustrator 24.0.1, SVG Export Plug-In . SVG Version: 6.00 Build 0)  -->
<svg version="1.1" id="Слой_1" xmlns="http://www.w3.org/2000/svg" xmlns:xlink="http://www.w3.org/1999/xlink" x="0px" y="0px"
	 viewBox="0 0 3508 2480" style="enable-background:new 0 0 3508 2480;" xml:space="preserve">
<style type="text/css">
	.st0{fill:#2B2A29;}
	.st1{fill-rule:evenodd;clip-rule:evenodd;fill:#FCC01B;}
	.st2{fill-rule:evenodd;clip-rule:evenodd;fill:#2B2A29;}
	.st3{fill:#FEFEFE;}
	.st4{fill:#FCC01B;}
	.st5{fill:#FDD780;}
	.st6{fill:#F3C758;}
	.st7{fill:#D7922C;}
	.st8{fill:#BD651D;}
	.st9{fill:#F6C28C;}
</style>
<g id="Слой_x0020_1">
	<path class="st0" d="M2755.8,1240.4c30-28.1,44.5-67.4,39.7-108.6c-4.8-41.1-27.9-76.1-63.6-96.7c25.3-33.2,33-76.4,20.4-116.4
		c-12.6-40-43.7-71.2-83.4-84.1c16.2-37.8,13.6-79.7-7.4-115.6c-21-35.8-56.5-58.6-97.5-63c8.7-37.9,0-77-24.1-107.8
		c-24.8-31.7-61.9-49.8-101.7-49.8c-4.6,0-9.2,0.4-13.9,0.9c-0.3-33.6-13.4-65.1-37.1-89.1c-24.4-24.6-58.1-38.7-92.3-38.7
		c-13.4,0-26.6,2.3-39.6,6.4c-12.3-59.9-65.2-103.3-127.1-103.3c-22.4,0-44.4,6.1-64,17.3c-20.8-46.3-66.9-76.1-118.4-76.1
		c-31.9,0-62.3,11.8-86.1,33.1c-24.5-33.8-62.5-53.3-104.8-53.3c-41.9,0-79.6,19.1-104.2,52.4c-23.7-21.4-54.2-33.2-86.2-33.2
		c-51.9,0-98.2,30.2-118.9,77.1c-19.6-11.3-41.7-17.4-64.1-17.4c-60.7,0-113.4,42.3-126.6,100.7c-13.2-4.3-26.7-6.7-40.4-6.7
		c-34.7,0-68.7,14.5-93.2,39.7c-23.9,24.5-36.6,56.7-36.1,90.9c-43.7-4.5-86.3,13.2-114,47.3c-24.1,29.7-33.6,68-26.4,105.2
		c-41.6,4.3-78.5,28.2-99.3,64.7c-20.7,36.4-22.3,80.3-4.6,118.1c-39.2,12.6-69.2,42-82.6,81.2c-13.4,39.2-7.5,80.7,15.9,114.5
		c-36.2,20.9-60.1,57.9-64,99.7c-3.9,42.4,12.4,82.1,44.6,109.6c-30.8,27.3-46.4,66.2-42.8,107.4c3.6,41.3,25.8,76.9,60.8,98.4
		c-24.3,33.8-30.8,77.3-17.1,117c13.9,40.2,45.1,69.7,85.7,81.6c-17.3,37.4-15.9,79.4,4.1,115.8c20.1,36.4,54.9,60.2,95.7,65.7
		c-7.5,37.4,1.9,75.8,26,105.7c24.8,30.8,61.5,48.4,100.6,48.4c5.8,0,11.7-0.6,17.5-1.4c-0.6,34.3,12,66.8,35.9,91.5
		c24.6,25.5,58.7,40,93.6,40c0,0,0,0,0,0c12.1,0,24.2-1.9,36-5.3c13.5,57.9,66.2,99.7,126.4,99.7c23.6,0,46.8-6.7,67.2-19.2
		c20.2,48.3,66.9,79.5,119.9,79.5c30.6,0,60-11,83.2-30.7c24.6,32,61.8,50.5,102.7,50.5c42.7,0,82.1-20.7,106.3-55.4
		c24.2,23,55.6,35.7,88.9,35.7c50.4,0,96.1-28.9,117.4-73.8c18.8,10.1,39.7,15.6,60.9,15.6c62.4,0,115.5-43.8,127.4-104.4
		c14.2,5.1,28.9,7.9,43.8,7.9c34.1,0,67.6-14,92-38.4c23.7-23.8,36.9-55.1,37.4-88.5c3.3,0.3,6.7,0.5,10,0.5l0,0
		c39.6,0,76.6-18.1,101.5-49.6c24.1-30.6,32.9-69.6,24.5-107.4c42.3-3.2,79-25.5,101-61.8c21.8-35.9,24.6-79.8,8-118
		c38.8-13.6,68-43.9,80.2-83.5c12.2-39.5,5.2-80.9-19.2-114c37.3-20.1,61.6-55.6,66.8-97.8
		C2802.3,1309.6,2786.8,1268.4,2755.8,1240.4z"/>
	<path class="st1" d="M1750.7,2218c-37.1,0-71.6-14.5-97-40.3c-22,14.4-47.8,22.1-74.1,22.1c-49.1,0-93.6-25.7-118-66.9
		c-17.2,7.5-35.6,11.5-54.2,11.5c-57.1,0-108.5-36.4-128.2-88.6c-44.8,7.4-89.1-8.5-119.9-40.4c-20.7-21.4-33.4-48.5-36.9-77.6
		c-41.1-0.1-79.6-18.7-105.7-51c-21.7-26.9-32.1-60.5-29.8-94.3c-35.7-9.5-65.7-32.9-83.9-65.9c-17.9-32.6-21.7-69.9-11-104.6
		c-34.3-15.2-60.4-43.5-72.8-79.6c-12.4-36-9-75.5,8.8-108.6c-28.7-23-46.6-56.4-49.9-93.8c-3.2-37,8.3-72.6,32.1-100.1
		c-25.1-27.9-37.3-64.4-33.8-102.7c3.5-37.9,22.9-72.5,52.8-95.4c-16.9-32.5-19.8-70.2-7.7-105.7c12-35.2,37.1-63.2,70.1-78.9
		c-11.1-35.6-7.2-74.6,11.5-107.4c18.8-33,50.6-56.6,87.2-65.3c-2.1-33.6,8.5-66.9,30-93.4c25.2-31.1,62.2-49.4,102-50.5
		c3.5-29.2,16.4-56.4,37.2-77.8c31.7-32.6,77.9-48.2,123.6-39.3c19.6-52.5,71-89,128.3-89c17.5,0,35,3.5,51.4,10.3
		c24.5-40.2,68.7-65.3,116.9-65.3c27.6,0,54.3,8.4,76.8,23.9c25.5-26.6,60.5-41.6,98.3-41.6c38.2,0,73.4,15.2,99,42.3
		c22.5-15.4,49.1-23.7,76.6-23.7c47.8,0,91.7,24.8,116.4,64.4c16.4-6.8,34-10.3,51.5-10.3c58.6,0,110.3,37.5,129.2,91.4
		c44.9-8.4,90.1,6.8,121.4,38.5c20.7,20.8,33.8,47.4,37.9,76c40.7,1,78.5,20,104,52.5c21.5,27.4,31.5,61.5,28.3,95.7
		c35.6,8.6,66,31.1,84.9,63.3c19,32.4,23.8,69.9,13.8,105.2c33.9,16.1,60,45.8,71.4,82c11.3,36,7,75-11.4,107.4
		c28.9,22.2,47.5,54.8,51.8,91.8c4.3,37.3-6.5,73.5-29.8,101.7c24.4,28.6,36,66.5,31.4,104.3c-4.6,38.1-24.2,71.2-54.7,93.3
		c17.4,31.9,21.2,69.1,10.3,104.6c-11.1,35.9-35.7,64.7-68.5,81.2c10.4,36.1,5.4,75.4-14.3,108c-19.9,32.7-51.3,54.9-88.1,62.6
		c2.8,33.9-7.2,67.7-28.6,94.9c-24.7,31.4-60.9,50.1-100.2,52.1c-4.1,28.7-17.3,55.3-38.1,76.1c-32.4,32.4-79.5,47.3-125.1,37.3
		c-18.8,54.2-70.5,91.8-129.4,91.8c-16.5,0-33.1-3.1-48.7-9.2c-24.8,38.6-68.4,62.8-115.4,62.8c-28.7,0-56.2-9-79.3-25.6
		C1825.3,2201.9,1789,2218,1750.7,2218z"/>
	<circle class="st2" cx="1754" cy="1240" r="879.1"/>
	<path class="st3" d="M1074.9,1156.2l36.7-166.7l209.7,46.2l-9.4,42.5l-174.3-38.4l-18,81.7l174.3,38.4l-9.4,42.5L1074.9,1156.2z
		 M1347.7,997.8L1185,857.6l103.8-120.4l27.5,23.7l-75.4,87.5l36.1,31.1l70.1-81.4l27.5,23.7l-70.1,81.3l44.1,38l78.1-90.7
		l27.5,23.7L1347.7,997.8z M1390.3,658.6l39.1-19.1l40.2,82.2c8.2-5.1,13-10.2,14.3-15.4c1.3-5.1,1.1-17.4-0.5-37
		c-2.2-24.8-0.4-41.8,5.2-50.9c5.6-9,17.3-17.9,35.3-26.7c0.9-0.4,2.8-1.4,5.6-2.9l14.1,28.8l-5.6,2.6c-8,3.9-13.3,7.7-16.1,11.5
		c-2.7,3.8-4.2,8.2-4.5,13.4c-0.3,5.2,0.4,15.1,2.1,29.9c0.9,7.8,1.1,14.7,0.5,20.5c-0.5,5.8-3.4,12.4-8.4,19.8
		c9.9-1.8,19.4-0.3,28.7,4.4c9.3,4.7,20.6,12.2,34,22.5l52.1,39.9l-45.8,22.4l-47.4-38.3c-0.7-0.5-2.1-1.5-4.2-3
		c-0.8-0.4-3.9-2.7-9.3-6.7c-9.6-7.1-16.5-11-20.8-11.9c-4.4-0.8-9.8,0.3-16.3,3.4l41.3,84.3l-39.1,19.1L1390.3,658.6z
		 M1847.9,771.7l-46.8,1.3l-19.9-48.4l-86.1,2.3l-16.5,49.4l-46,1.2l77.6-216.9l45.9-1.2L1847.9,771.7z M1766.1,688.6l-32-78.7
		l-26.9,80.2L1766.1,688.6z M1872.5,782.8l82-198.5l64.3,26.5c24.4,10.1,39.8,17.6,46.4,22.6c10.1,7.7,17,18.1,20.5,31.2
		c3.5,13.1,2.1,27.6-4.5,43.4c-5,12.2-11.5,21.5-19.3,28c-7.9,6.5-16.1,10.7-24.9,12.6c-8.7,1.9-17,2.2-24.6,0.8
		c-10.3-2-24.6-6.8-42.7-14.3l-26.1-10.8l-30.9,74.9L1872.5,782.8z M1980.8,634.4l-23.4,56.6l21.9,9c15.8,6.5,26.7,9.8,32.9,9.9
		c6.2,0.1,11.7-1.4,16.5-4.6c4.8-3.2,8.5-7.7,10.9-13.6c3-7.2,3.3-14.1,1.1-20.5c-2.3-6.5-6.4-11.6-12.4-15.5
		c-4.4-2.8-13.8-7.2-28.2-13.2L1980.8,634.4z M2056.8,869.7l169.3-132.1l26.8,34.3l-66.7,52l52,66.7l66.7-52l26.8,34.3L2162.3,1005
		l-26.8-34.3l74-57.8l-52-66.7l-74,57.8L2056.8,869.7z M2217.6,1168.6l86.7-23.1l-2.3-8.5c-3.5-13.3-8-22.1-13.4-26.5
		c-5.4-4.4-19.7-10.5-42.9-18.5l-53.3-18l-13.3-50.1l47.2,14.5c18.7,5.7,32.1,10.6,40.1,14.8c8,4.2,15.8,10.1,23.3,17.6
		c-2.1-20.1,0.9-35.8,9.1-47.1s19.5-18.9,34-22.8c12.7-3.4,24.7-3.2,36.2,0.6c11.5,3.8,20.3,10.4,26.4,20c6.1,9.5,12,24.7,17.5,45.5
		l23.5,88.3l-207.5,55.3L2217.6,1168.6z M2390.1,1122.7l-8.7-32.7c-4.4-16.6-7.7-27.4-9.8-32.5c-2.2-5-5.9-8.9-11.3-11.5
		c-5.3-2.6-11.5-3-18.5-1.1c-7.3,1.9-12.6,5.3-15.9,10.1c-3.3,4.8-4.8,10.1-4.3,16c0.5,5.9,3,17.5,7.6,34.7l8.3,31L2390.1,1122.7z"
		/>
	<path class="st3" d="M1372.6,1679.9c11.5-18.7,23.9-32.6,37.3-41.9c9.9-6.8,20.7-11.7,32.5-14.7c11.8-3,23-3.6,33.8-2
		c14.4,2.2,29,7.8,43.9,17c27,16.6,43.4,38.2,49.4,64.9c5.9,26.7-0.3,55-18.7,84.9c-18.2,29.6-40.5,47.8-66.8,54.7
		c-26.3,6.9-53,2-79.9-14.5c-27.2-16.7-43.8-38.4-49.6-64.9C1348.7,1737,1354.7,1709.1,1372.6,1679.9z M1411.5,1702.1
		c-12.7,20.7-17.6,39.4-14.6,56c3,16.6,11.9,29.4,26.6,38.5c14.8,9.1,30.2,11.2,46.2,6.4c16-4.8,30.5-17.9,43.6-39.1
		c12.9-21,17.9-39.5,15-55.5c-2.8-16-11.9-28.7-27.2-38.1c-15.2-9.4-30.8-11.7-46.5-7C1438.8,1668.1,1424.4,1681,1411.5,1702.1z
		 M1601.7,1692.7l43.3,4.4l-5.2,51c-1.7,16.5-2.2,27.5-1.5,33c0.6,5.5,3.8,10.6,9.4,15.2c5.6,4.6,14.2,7.5,25.9,8.7
		c9.2,0.9,17.5,0.8,24.9-0.5c7.4-1.3,13.9-3.6,19.5-6.9l9.4-92.1l43.3,4.4l-21.7,213.7l-43.3-4.4l8.8-86.1c-9.1,3-18.1,5-26.7,6.2
		c-8.7,1.1-17.1,1.3-25.2,0.4c-21.3-2.2-38.6-9-51.9-20.5c-13.3-11.5-18.7-29.6-16.2-54.4L1601.7,1692.7z M2039.6,1869.4l-45.4,11.5
		l-30-42.8l-83.5,21.2l-5.2,51.8l-44.6,11.3l27.8-228.7l44.5-11.3L2039.6,1869.4z M1941.6,1806.5l-48.5-69.7l-8.5,84.2
		L1941.6,1806.5z M1984.6,1649.1l116.6-87l21.7,29.1l-81.7,61l106.8,143l-34.9,26L1984.6,1649.1z"/>
	<path class="st1" d="M2318.1,1240c0.1,151.3-59.7,289.2-157.3,390.8c-2.6,2.7-5.3,5.4-8,8.1l-7-7c2.6-2.6,5.2-5.3,7.8-8
		c95.8-99.8,154.5-235.3,154.5-383.9H2318.1z M1355.1,1638.9c-99.4-99.4-162.1-235.9-165.1-387.5c-0.1-3.8-0.1-7.6-0.1-11.4h10
		c0,3.7,0,7.4,0.1,11.2c3,149,64.5,283,162.2,380.7L1355.1,1638.9z"/>
	<path class="st1" d="M2368.1,1240c0.1,164.7-65,314.8-171.2,425.4c-2.9,3-5.7,5.9-8.7,8.8l-7-7c2.9-2.9,5.7-5.8,8.5-8.7
		c104.5-108.8,168.5-256.5,168.4-418.5H2368.1z M1319.7,1674.3c-108.2-108.2-176.4-256.8-179.8-421.9l0-0.1l0,0
		c-0.1-4.1-0.1-8.2-0.1-12.3h10c0,4,0,8.1,0.1,12.2l0,0.1l0,0c3.3,162.4,70.4,308.5,176.9,414.9L1319.7,1674.3z"/>
	<path class="st1" d="M1090.9,1243.6l0,4.9l0.1,5.1l10-0.2l-0.1-5l0-4.9L1090.9,1243.6z M1092.3,1283.8c0.2,3.3,0.5,6.7,0.7,10
		l10-0.8c-0.3-3.3-0.5-6.6-0.7-9.9L1092.3,1283.8z M1096.1,1323.9l0.6,4.4l0.8,5.6l9.9-1.4l-0.7-5.5l-0.6-4.3L1096.1,1323.9z
		 M1102.4,1363.8l1.1,5.5l0.9,4.4l9.8-2.1l-0.8-4.3l-1-5.4L1102.4,1363.8z M1111.1,1403.1l1.6,6.2l0.9,3.5l9.7-2.6
		c-0.9-3.2-1.7-6.4-2.5-9.6L1111.1,1403.1z M1122.2,1441.9c1,3.2,2.1,6.4,3.1,9.6l9.5-3.2c-1.1-3.1-2.1-6.3-3.1-9.4L1122.2,1441.9z
		 M1135.6,1479.9c1.2,3.1,2.4,6.2,3.7,9.3l9.3-3.8c-1.2-3.1-2.5-6.1-3.7-9.2L1135.6,1479.9z M1151.3,1516.9c1.4,3,2.8,6.1,4.3,9.1
		l9-4.3c-1.4-3-2.8-6-4.2-9L1151.3,1516.9z M1169.3,1553c1.6,2.9,3.2,5.9,4.8,8.8l8.7-4.9c-1.6-2.9-3.2-5.8-4.8-8.7L1169.3,1553z
		 M1189.4,1587.9c1.8,2.9,3.5,5.7,5.3,8.5l8.4-5.4c-1.8-2.8-3.5-5.6-5.3-8.4L1189.4,1587.9z M1211.6,1621.5c1.9,2.7,3.9,5.5,5.8,8.2
		l8.1-5.9c-1.9-2.7-3.9-5.4-5.8-8.1L1211.6,1621.5z M1235.8,1653.8l3.6,4.5l2.7,3.4l7.7-6.4c-2.1-2.5-4.2-5.1-6.2-7.7L1235.8,1653.8
		z M1261.9,1684.5c2.2,2.5,4.5,5,6.8,7.4l7.3-6.8c-2.2-2.4-4.5-4.8-6.7-7.3L1261.9,1684.5z"/>
	<path class="st1" d="M2418.4,1243.6l0,4.9l-0.1,5.1l-10-0.2l0.1-5l0-4.9L2418.4,1243.6z M2417,1283.8c-0.2,3.3-0.5,6.7-0.7,10
		l-10-0.8c0.3-3.3,0.5-6.6,0.7-9.9L2417,1283.8z M2413.1,1323.9l-0.6,4.4l-0.8,5.6l-9.9-1.4l0.8-5.5l0.6-4.3L2413.1,1323.9z
		 M2406.9,1363.8l-1.1,5.5l-0.9,4.4l-9.8-2.1l0.9-4.3l1-5.4L2406.9,1363.8z M2398.2,1403.1l-1.6,6.2l-0.9,3.5l-9.7-2.6
		c0.9-3.2,1.7-6.4,2.5-9.6L2398.2,1403.1z M2387.1,1441.9c-1,3.2-2.1,6.4-3.1,9.6l-9.5-3.2c1-3.1,2.1-6.3,3.1-9.4L2387.1,1441.9z
		 M2373.7,1479.9c-1.2,3.1-2.4,6.2-3.7,9.3l-9.3-3.8c1.2-3.1,2.5-6.1,3.7-9.2L2373.7,1479.9z M2357.9,1516.9c-1.4,3-2.8,6.1-4.3,9.1
		l-9-4.3c1.4-3,2.8-6,4.2-9L2357.9,1516.9z M2340,1553c-1.6,2.9-3.2,5.9-4.8,8.8l-8.7-4.9c1.6-2.9,3.2-5.8,4.8-8.7L2340,1553z
		 M2319.9,1587.9c-1.8,2.9-3.5,5.7-5.3,8.5l-8.4-5.4c1.8-2.8,3.5-5.6,5.3-8.4L2319.9,1587.9z M2297.7,1621.5
		c-1.9,2.7-3.9,5.5-5.9,8.2l-8.1-5.9c1.9-2.7,3.9-5.4,5.8-8.1L2297.7,1621.5z M2273.5,1653.8l-3.6,4.5l-2.8,3.4l-7.7-6.4
		c2.1-2.5,4.2-5.1,6.2-7.7L2273.5,1653.8z M2247.4,1684.5c-2.2,2.5-4.5,5-6.8,7.4l-7.3-6.8c2.2-2.4,4.5-4.8,6.7-7.3L2247.4,1684.5z"
		/>
	<circle class="st1" cx="1754" cy="1240" r="416.9"/>
	<path class="st4" d="M1472.9,1958.5c14.5,0,29.2,0.1,43.8,1.1c14.6,1,29,3,42.6,6.6c28,7.5,55.3,23.4,81.7,38.8l0.1,0.1
		c3.6,2.1,7.1,4.2,10.7,6.2c3.6-1,7.3-2,10.9-3c0.1,0,0.3-0.1,0.4-0.1c30-8.2,61.1-16.6,90.8-16.6c29.8,0,60.8,8.4,90.8,16.6l0.2,0
		v0l0.1,0v0c3.7,1,7.4,2,11,3c3.6-2.1,7.1-4.1,10.7-6.2l0.1,0c26.4-15.4,53.7-31.3,81.7-38.8c14.7-3.9,30.3-5.9,46.1-6.9
		c15.6-1,31.6-0.9,47.3-0.9v0h0.8v0c3,0,5.9,0,8.8,0c2.2-2.2,4.5-4.5,6.8-6.8l0,0c22.2-22.3,45.2-45.3,71.5-60.5
		c12.6-7.3,26.6-13,41.2-17.8c14.3-4.7,29.4-8.7,44.2-12.6c4-1,8-2.1,12-3.2c1.9-3.3,3.8-6.7,5.7-10c7.6-13.4,15.4-27,24.1-40.1
		c8.6-13.1,18-25.5,28.5-36c10.5-10.5,22.9-19.8,36-28.5c13.2-8.7,26.8-16.4,40.1-24.1c3.3-1.9,6.7-3.8,10-5.7c1.1-4,2.1-8,3.2-12
		c3.9-14.8,7.8-29.8,12.6-44.2c4.8-14.6,10.5-28.5,17.8-41.2c7.6-13.2,17.2-25.6,27.8-37.5c10.4-11.8,21.7-23,32.8-34.1l0.1-0.1
		c2.2-2.2,4.5-4.5,6.7-6.7c0-3.2,0-6.4,0-9.6h0v-0.1h0c0-31.5-0.1-64,7.8-93.3c7.5-28,23.4-55.2,38.8-81.6l0.1-0.2
		c2.1-3.5,4.2-7.1,6.2-10.7c-1-3.7-2-7.4-3-11.1l0-0.1c-8.2-30-16.6-61.1-16.6-90.9c0-29.8,8.5-60.9,16.6-90.9l0-0.1
		c1-3.7,2-7.4,3-11.1c-2.1-3.6-4.2-7.1-6.2-10.7l0,0c-15.4-26.4-31.3-53.8-38.8-81.8c-7.8-29.3-7.8-61.9-7.8-93.3h0v-0.1h0
		c0-3.2,0-6.4,0-9.6c-2.2-2.2-4.5-4.5-6.7-6.7l0,0c-11.1-11-22.3-22.3-32.8-34.1c-10.5-11.9-20.1-24.3-27.8-37.4
		c-7.3-12.6-13-26.6-17.8-41.2c-4.7-14.2-8.6-29.1-12.5-43.8l-0.1-0.4c-1-4-2.1-8-3.2-12c-3.3-1.9-6.7-3.8-10-5.7l0,0
		c-27-15.5-55-31.5-76.1-52.6v0c-21.1-21.1-37.1-49-52.5-76c0,0,0-0.1,0-0.1c-1.9-3.3-3.8-6.6-5.7-10c-4-1.1-8-2.1-11.9-3.2h-0.1
		c-29.6-7.8-60.2-15.8-85.3-30.4c-26.3-15.2-49.3-38.2-71.5-60.5l-0.1-0.1c-2.3-2.3-4.5-4.5-6.8-6.8c-3,0-6.1,0-9.2,0v0h-0.4v0
		c-15.8,0-31.7,0-47.3-0.9c-15.8-1-31.4-2.9-46.1-6.9c-28-7.5-55.3-23.4-81.8-38.8l-0.1-0.1c-3.5-2-7.1-4.1-10.6-6.2
		c-3.7,1-7.4,2-11.1,3c-14.9,4-30,8.2-45.4,11.3c-15.4,3.2-30.7,5.3-45.6,5.3s-30.2-2.1-45.6-5.3c-15.4-3.2-30.5-7.3-45.4-11.3
		c-3.7-1-7.4-2-11.1-3c-3.6,2.1-7.1,4.1-10.7,6.2l-0.1,0c-26.4,15.4-53.7,31.3-81.7,38.8c-29.2,7.8-61.4,7.8-92.8,7.8v0h-0.6v0
		c-3.2,0-6.4,0-9.5,0c-2.2,2.2-4.5,4.5-6.8,6.8c-11,11.1-22.3,22.4-34.1,32.8c-11.9,10.5-24.3,20.1-37.4,27.8
		c-25.1,14.5-55.7,22.6-85.3,30.4l-0.1,0c-4,1-7.9,2.1-11.9,3.2c-1.9,3.3-3.8,6.7-5.7,10c-7.7,13.4-15.4,27-24.1,40.1
		c-8.6,13.1-18,25.5-28.5,36c-21.1,21.1-49,37.1-76,52.5l-0.1,0.1c-3.3,1.9-6.7,3.8-10,5.7c-1.1,4-2.1,7.9-3.1,11.9l-0.1,0.2
		c-7.8,29.6-15.8,60.1-30.3,85.2c-7.6,13.2-17.2,25.6-27.8,37.5c-10.5,11.8-21.7,23-32.8,34.1l0,0c-2.3,2.2-4.5,4.5-6.7,6.7
		c0,3.2,0,6.4,0,9.6h0v0.1h0c0,31.5,0.1,64-7.8,93.3c-3.7,14-9.6,27.9-16.5,41.7c-7,13.8-14.7,27.1-22.3,40.1
		c-2.1,3.6-4.1,7.1-6.2,10.7c1,3.7,2,7.4,3,11.1l0,0.1c8.2,30,16.6,61.1,16.6,90.9c0,29.8-8.4,60.9-16.6,90.9l0,0.1
		c-1,3.7-2,7.4-3,11.1c2.1,3.6,4.1,7.1,6.2,10.7c7.6,13,15.4,26.3,22.3,40.1c6.9,13.7,12.8,27.6,16.6,41.7
		c7.8,29.3,7.8,61.8,7.8,93.3h0v0.1h0c0,3.2,0,6.4,0,9.6c2.2,2.2,4.5,4.5,6.7,6.7l0.1,0.1c22.3,22.2,45.3,45.2,60.5,71.5
		c14.5,25.1,22.5,55.6,30.3,85.2l0.1,0.2c1,4,2.1,7.9,3.1,11.9c3.3,1.9,6.7,3.8,10,5.7l0,0c27.1,15.5,55,31.5,76.1,52.6
		c10.5,10.5,19.8,22.9,28.5,36c8.7,13.2,16.4,26.8,24.1,40.1l0,0.1c1.9,3.3,3.8,6.6,5.7,9.9c4,1.1,8,2.1,12,3.2
		c14.8,3.9,29.8,7.8,44.2,12.6c14.5,4.8,28.5,10.5,41.2,17.8c26.3,15.2,49.3,38.2,71.4,60.5l0.1,0.1c2.3,2.3,4.5,4.5,6.8,6.8
		c3.1,0,6.2,0,9.3,0v0h0.3v0L1472.9,1958.5L1472.9,1958.5z M1672.4,2022.8c8.1,4.3,16.2,8.3,24.4,11.9c18.6,8,37.7,13.4,57.2,13.4
		c19.5,0,38.5-5.4,57.2-13.4c8.2-3.5,16.3-7.6,24.4-11.9c-27.4-7.4-55.5-14.7-81.6-14.7c-13.8,0-28.2,2-42.6,5
		C1698.6,2015.8,1685.4,2019.3,1672.4,2022.8z M2075.1,1958.2c30.7-0.9,59.2-4.4,83-18.2c16.4-9.5,29.8-23.4,41.8-39.5
		c5.3-7.2,10.4-14.8,15.3-22.7c-28.3,7.5-54.9,14.8-77,27.6c-12.2,7.1-23.8,16.1-35.1,26.1C2093.6,1939.9,2084.3,1949,2075.1,1958.2
		z M2391.8,1701.2c7.9-4.9,15.5-9.9,22.7-15.3c16-11.9,30-25.4,39.5-41.8c9.3-16,13.9-34.1,16.2-53.6c1.1-9.5,1.7-19.4,2-29.4
		c-19.9,19.9-39.8,40.5-52.8,63C2406.6,1646.2,2399.3,1672.9,2391.8,1701.2z M2536.8,1321.6c4.3-8.1,8.3-16.2,11.9-24.4
		c8-18.6,13.4-37.7,13.4-57.2c0-19.5-5.4-38.5-13.4-57.2c-3.5-8.2-7.6-16.3-11.9-24.4c-3.5,13-7,26.2-9.6,38.9
		c-3,14.5-5,28.8-5,42.7c0,13.8,2,28.2,5,42.7C2529.8,1295.4,2533.3,1308.6,2536.8,1321.6z M2472.2,918.9c-0.3-10.1-0.9-19.9-2-29.4
		c-2.3-19.4-6.9-37.5-16.2-53.6c-9.5-16.4-23.4-29.8-39.5-41.8c-7.2-5.3-14.8-10.4-22.7-15.3c7.5,28.3,14.8,54.9,27.6,77
		C2432.4,878.4,2452.3,899,2472.2,918.9z M2215.2,602.2c-15.7-25.3-33.4-48.5-57.1-62.1c-23.8-13.8-52.3-17.3-83-18.2
		c9.1,9.1,18.4,18.3,27.9,26.7c11.2,9.9,22.9,19,35.1,26.1C2160.2,587.4,2186.9,594.7,2215.2,602.2z M1835.6,457.2
		c-26.5-14.1-53.6-25.3-81.6-25.3s-55.1,11.2-81.6,25.3c27.4,7.4,55.6,14.7,81.6,14.7C1780,471.9,1808.2,464.6,1835.6,457.2z
		 M1432.9,521.8c-30.7,0.9-59.2,4.5-83,18.2c-23.6,13.7-41.3,36.8-57,62.1c28.3-7.4,54.9-14.8,77-27.6c12.2-7.1,23.8-16.1,35.1-26.1
		C1414.4,540.1,1423.7,530.9,1432.9,521.8z M1116.2,778.8c-7.9,4.9-15.5,9.9-22.7,15.3c-16,11.9-30,25.4-39.5,41.8
		c-9.3,16-13.9,34.1-16.2,53.6c-1.1,9.5-1.7,19.4-2,29.4c9.1-9.1,18.3-18.4,26.7-28c10-11.2,19-22.8,26.1-35.1
		C1101.4,833.8,1108.7,807.1,1116.2,778.8z M971.2,1158.4c-4.3,8.1-8.3,16.2-11.9,24.4c-8,18.6-13.4,37.7-13.4,57.2
		c0,19.5,5.4,38.5,13.4,57.2c3.5,8.2,7.6,16.3,11.9,24.4c3.5-13,7-26.2,9.7-38.9c3-14.5,5-28.8,5-42.7c0-13.8-2-28.2-5-42.7
		C978.2,1184.6,974.7,1171.4,971.2,1158.4z M1035.8,1561.1c0.3,10.1,0.9,19.9,2,29.4c2.3,19.4,7,37.5,16.2,53.6
		c13.7,23.6,36.8,41.3,62.1,57c-7.4-28.3-14.8-54.9-27.6-77c-7.1-12.2-16.1-23.8-26.1-35.1
		C1054.1,1579.6,1044.9,1570.3,1035.8,1561.1z M1292.8,1877.8c15.7,25.3,33.4,48.5,57,62.1c23.8,13.8,52.3,17.3,83,18.2
		c-9.1-9.1-18.4-18.3-27.9-26.7c-11.2-10-22.8-19-35.1-26.1C1347.8,1892.6,1321.1,1885.3,1292.8,1877.8z M1878.9,2017.1
		c29,6.8,57.9,10.6,84.3,3.6c26.6-7.1,49.3-24.7,71.6-45.8c-12.9,0-25.9,0.1-38.7,0.9c-15,0.9-29.6,2.7-43.2,6.4
		C1928.2,1988.7,1904.2,2002.4,1878.9,2017.1z M2249.8,1851.2c8.8-2.7,17.4-5.6,25.7-8.9c18.8-7.5,36.1-17.1,49.9-30.9
		c19.8-19.8,31.1-46.9,39.8-75.6c-24.6,14.1-49.7,28.9-68.1,47.3h0C2278.8,1801.5,2264,1826.6,2249.8,1851.2z M2488.9,1520.8
		c21.1-22.3,38.7-45,45.8-71.6c7-26.4,3.2-55.2-3.6-84.3c-7,12.1-13.8,23.9-19.7,35.5c-6.4,12.8-11.8,25.5-15.3,38.4
		c-3.6,13.6-5.5,28.2-6.4,43.2C2489,1494.9,2488.9,1507.9,2488.9,1520.8z M2531.1,1115.1c6.8-29,10.6-57.9,3.6-84.3
		c-7.1-26.6-24.7-49.3-45.8-71.6c0,12.9,0.1,25.9,0.9,38.7c0.9,15,2.7,29.6,6.4,43.2c3.5,12.9,8.8,25.6,15.3,38.4
		C2517.2,1091.1,2524,1102.9,2531.1,1115.1z M2365.2,744.2c-8.7-28.7-20-55.8-39.8-75.6c-19.8-19.8-46.9-31.1-75.6-39.8
		c14.1,24.6,28.9,49.7,47.3,68.1C2315.6,715.2,2340.6,730,2365.2,744.2z M2034.8,505.1c-7.3-6.9-14.7-13.5-22.2-19.4
		c-15.4-12.1-31.5-21.6-49.4-26.4c-18.2-4.9-37.6-4.5-57.4-1.6c-8.9,1.3-17.8,3.1-26.8,5.2c25.3,14.7,49.3,28.4,74,35
		c13.6,3.6,28.2,5.4,43.2,6.3C2008.9,505,2021.9,505.1,2034.8,505.1z M1629.1,462.9c-9-2.1-18-3.9-26.8-5.2
		c-19.8-2.9-39.2-3.2-57.4,1.6c-17.9,4.8-34,14.3-49.4,26.4c-7.5,5.9-14.9,12.5-22.2,19.4c12.8,0,25.8-0.1,38.6-0.9
		c15-0.9,29.6-2.7,43.3-6.4c12.9-3.5,25.6-8.8,38.4-15.3C1605.2,476.7,1617,469.9,1629.1,462.9z M1258.2,628.8
		c-8.8,2.7-17.4,5.6-25.7,8.9c-18.8,7.5-36.1,17.1-49.9,30.9c-19.8,19.8-31.1,46.9-39.8,75.6c24.6-14.1,49.7-28.9,68.1-47.3
		C1229.3,678.4,1244,653.4,1258.2,628.8z M1019.1,959.2c-21.1,22.3-38.7,45-45.8,71.6c-4.9,18.2-4.5,37.6-1.6,57.4
		c1.3,8.9,3.1,17.8,5.2,26.8c7.1-12.1,13.9-24,19.7-35.5c6.4-12.8,11.8-25.5,15.2-38.4C1018.6,1015.9,1019.1,987.3,1019.1,959.2z
		 M976.9,1364.9c-2.1,9-3.9,18-5.2,26.8c-2.9,19.8-3.2,39.2,1.6,57.4c4.8,17.9,14.3,34,26.4,49.4c5.9,7.5,12.5,14.9,19.4,22.2
		c0-28.1-0.5-56.7-7.2-81.9C1005.3,1414.2,991.6,1390.2,976.9,1364.9z M1142.8,1735.8c8.7,28.7,20,55.8,39.8,75.6
		c13.8,13.8,31.1,23.4,49.9,30.9c8.3,3.3,16.9,6.2,25.7,8.9c-6.7-11.7-13.6-23.5-20.7-34.4c-8.1-12.4-16.8-23.9-26.6-33.7h0
		c-9.8-9.8-21.4-18.5-33.7-26.6C1166.3,1749.4,1154.5,1742.6,1142.8,1735.8z M1473.2,1974.9c7.3,6.9,14.7,13.5,22.2,19.4
		c15.4,12.1,31.5,21.6,49.3,26.4h0c26.4,7.1,55.2,3.2,84.3-3.6c-25.3-14.7-49.3-28.4-74-35c-13.6-3.6-28.2-5.5-43.2-6.4
		C1499.1,1975,1486.1,1974.9,1473.2,1974.9z M1575.4,2040.9c-5.9,0-11.7-0.3-17.5-1c-5.8-0.7-11.6-1.8-17.3-3.3
		c-35.2-9.4-63.9-34.9-91-61.7c-38.2-0.3-76.4-2.4-107.9-20.7c-18.4-10.6-33.3-25.9-46.2-43.2c-9.3-12.4-17.5-25.7-25.4-39.2
		c-15.1-4.1-30-8.6-44.3-14.4c-20.4-8.2-39.3-18.8-54.7-34.3c-15.4-15.4-26.1-34.3-34.3-54.7c-5.7-14.3-10.3-29.3-14.4-44.3
		c-13.5-7.9-26.9-16.2-39.2-25.4c-17.3-13-32.6-27.8-43.2-46.2c-10.5-18.1-15.7-38.5-18.3-59.8c-1.9-15.7-2.3-31.9-2.4-48.2
		c-11.4-11.5-22.6-23.3-32.3-35.8c-13.3-16.9-24-35-29.4-55.2v0c-9.4-35.2-1.9-72.4,7.6-109c-7.7-13.5-15.1-27.3-21.2-41.5
		c-8.6-20.2-14.4-41.1-14.4-62.9c0-21.8,5.8-42.7,14.4-62.9c6-14.2,13.4-28,21.2-41.5c-9.6-36.6-17-73.7-7.6-109v0
		c5.4-20.2,16.1-38.3,29.4-55.2c9.8-12.5,21-24.3,32.3-35.8c0.1-16.2,0.6-32.5,2.4-48.2c2.6-21.3,7.8-41.7,18.3-59.8
		c10.6-18.4,25.9-33.3,43.2-46.2c12.4-9.3,25.7-17.5,39.2-25.4c10-36.6,22.4-72.7,48.7-99c15.4-15.4,34.3-26.1,54.7-34.3
		c14.3-5.7,29.3-10.3,44.3-14.4c7.9-13.5,16.2-26.9,25.4-39.2c13-17.3,27.8-32.6,46.2-43.2c18.1-10.5,38.5-15.7,59.8-18.3
		c15.7-1.9,31.9-2.3,48.2-2.4c27.2-26.8,55.8-52.3,91-61.7h0c20.6-5.5,41.8-5.2,63.3-2.1c15.3,2.2,30.6,5.8,45.7,9.8
		c13.6-7.7,27.4-15.1,41.5-21.2c20.2-8.6,41.1-14.4,62.9-14.4c21.8,0,42.7,5.8,62.9,14.4c14.2,6,28,13.4,41.5,21.2
		c36.6-9.6,73.8-17,109-7.6c35.2,9.4,63.8,34.9,91,61.7c16.3,0.1,32.5,0.5,48.2,2.4c21.3,2.6,41.6,7.8,59.7,18.3
		c18.4,10.6,33.3,25.9,46.3,43.2c9.3,12.4,17.5,25.7,25.4,39.2c15.1,4.1,30,8.7,44.3,14.4c20.4,8.2,39.3,18.8,54.7,34.3
		c15.4,15.4,26.1,34.3,34.3,54.7c5.7,14.3,10.3,29.3,14.4,44.3c13.5,7.9,26.9,16.2,39.2,25.4c17.4,13,32.6,27.8,43.2,46.2
		c10.5,18.1,15.7,38.5,18.2,59.8c1.9,15.7,2.3,31.9,2.4,48.2c11.4,11.5,22.5,23.3,32.3,35.8c13.3,16.9,24,35,29.4,55.2v0
		c9.4,35.2,1.9,72.4-7.6,109c18.8,33,35.6,67.2,35.6,104.5c0,37.2-16.8,71.5-35.6,104.4c9.6,36.6,17,73.8,7.6,109
		c-5.4,20.2-16.1,38.3-29.4,55.2c-9.8,12.5-21,24.3-32.3,35.8c-0.1,16.2-0.5,32.5-2.4,48.2c-2.6,21.3-7.8,41.7-18.3,59.8
		c-18.3,31.6-49.8,52.6-82.4,71.7c-4.1,15.1-8.7,30-14.4,44.3c-8.2,20.4-18.8,39.3-34.3,54.7c-15.4,15.4-34.3,26.1-54.7,34.3
		c-14.3,5.7-29.3,10.3-44.3,14.4c-7.9,13.5-16.2,26.9-25.4,39.2c-13,17.4-27.9,32.6-46.2,43.2c-31.5,18.2-69.7,20.4-107.9,20.7
		c-11.5,11.4-23.4,22.6-35.8,32.3c-16.9,13.3-35,24-55.2,29.4c-20.5,5.5-41.8,5.2-63.2,2.1c-15.3-2.2-30.6-5.8-45.7-9.8
		c-33,18.8-67.2,35.6-104.4,35.6c-21.8,0-42.7-5.8-62.9-14.4c-14.2-6.1-28-13.4-41.5-21.2
		C1624.9,2035.4,1599.9,2040.9,1575.4,2040.9z"/>
	<g id="_2962107790704">
		<path class="st5" d="M2079.7,1099.3c-16.7-1.7-34.7-2.1-46.2,0.9c-7,1.9-11.8,5.3-15.9,9.3c-5.2,5-9.6,11-16.7,15.6
			c-9.7,6.2-30.5,5.1-35.3,17.1c-1.8,4.4-0.6,9.6-2,14.1c-4.2,13.4-23.4,10.8-37.4,12c-30.3,2.4-50.5,41.6-35.1,67.7
			c2.3,3.9,5.4,7.8,5.6,12.4c0.1,2.9-0.9,5.8-2.1,8.4c-7.5,16-22.3,27.3-33,41.5c-10.7,14.1-16.7,35.4-5.2,48.9
			c3.5,4.1,8.3,7,12.8,10c14.8,9.9,28.1,22.1,39.2,36.1c9.6,12.1,17.5,29.2,9.2,42.2c14.3,2.6,31.7,8,34.2,22.4
			c0.9,4.9-0.3,9.9-0.1,14.8c0.6,10,4.6,12.9,10.8,14.6c5.3,1.5,12.3,2.1,20.2,5.4c0.6,0.3,1.4,0.7,2.2,1.4
			c14.3,11.1,14.7,32.5,1.9,45.1c-11.9,11.8-24.7,22.7-37.4,33.6c-7.5,6.5-15.2,13-24.1,17.3c-8.9,4.2-18.8,6.1-28.5,7.8
			c-28.5,5.2-60.3,14.6-88.9,9.7c-27.2-4.8-50.9,25.2-78.3,22c-12.5-1.5-23.1-9.7-35.2-13.7c-16.1-5.3-33.6-2.4-50.5-4
			c-32.8-3.1-61.5-22.6-88.5-41.5c-23.9-16.7-47.9-33.4-71.8-50.1c-12.2-8.5-24.9-17.6-31.5-30.9c-4.4-8.7-6-18.9-12-26.5
			c-4.9-6.2-12.3-9.9-18.1-15.4c-6.7-6.2-11-14.5-15.2-22.7c-20.1-38.7-40.5-78.2-48.3-121.1c-4.8-26.4-4.8-53.7,0.1-80.1
			c5.3-28.5,4.9-60.8,24.8-81.8c5.9-6.2,12.8-11.8,15.9-19.8c3.1-8,1.9-16.9,2.5-25.5c1.7-25.3,18.9-46.5,35.3-65.9
			c13-15.4,26-30.8,39.5-45.8c25.1-28,51.8-54.6,79.8-79.6c7.7-6.9,16.3-14,26.6-15.1c12.1-1.3,23.9,6.1,36,4.8
			c7.9-0.9,14.9-5.5,22-9.3c61.1-33.4,136.4-16.3,203.7,1.7c21.2,5.6,42.9,11.5,60.5,24.4c11.3,8.3,20.7,19.3,33,26.1
			c11.1,6.2,24.3,8.7,34.4,16.5c13,10.1,18.4,27.2,30.3,38.6c6.6,6.4,14.9,10.7,22.6,15.8C2056,1029,2076.3,1063.2,2079.7,1099.3z"
			/>
		<path class="st5" d="M1427.1,1381.7c16.7,1.7,34.6,2.1,46.2-0.9c7-1.9,11.8-5.3,16-9.3c5.2-5,9.6-11,16.7-15.6
			c9.6-6.2,30.5-5.1,35.3-17.1c1.8-4.4,0.6-9.6,2-14.1c4.2-13.4,23.4-10.8,37.4-12c30.3-2.4,50.5-41.6,35.1-67.7
			c-2.3-3.9-5.4-7.8-5.6-12.4c-0.1-2.9,0.9-5.8,2.1-8.4c7.5-16,22.3-27.3,33-41.5c10.7-14.1,16.7-35.3,5.2-48.9
			c-3.5-4.1-8.3-7-12.8-10c-14.8-9.9-28.1-22.1-39.2-36.1c-9.6-12.1-17.5-29.2-9.2-42.2c-14.3-2.6-31.7-8-34.2-22.4
			c-0.9-4.9,0.3-9.9,0-14.8c-0.6-10-4.6-12.9-10.8-14.6c-5.3-1.5-12.3-2.1-20.2-5.4c-0.6-0.3-1.4-0.7-2.2-1.4
			c-14.3-11-14.7-32.5-1.9-45.1c11.9-11.7,24.7-22.7,37.4-33.6c7.5-6.5,15.2-13,24.1-17.3c8.9-4.2,18.8-6.1,28.5-7.8
			c28.5-5.2,60.3-14.6,88.9-9.6c27.2,4.7,50.9-25.2,78.3-22c12.5,1.5,23.1,9.7,35.2,13.7c16.1,5.3,33.6,2.4,50.5,4
			c32.8,3.1,61.5,22.6,88.5,41.5c23.9,16.7,47.9,33.4,71.8,50.1c12.2,8.5,24.9,17.6,31.5,30.9c4.4,8.7,6,18.9,12,26.5
			c4.9,6.2,12.3,9.9,18,15.4c6.7,6.2,11,14.5,15.3,22.7c20.1,38.7,40.5,78.2,48.3,121.1c4.8,26.4,4.8,53.7-0.1,80.1
			c-5.3,28.4-4.9,60.8-24.8,81.8c-5.9,6.2-12.8,11.8-15.9,19.8c-3.1,8-1.9,16.9-2.5,25.5c-1.7,25.3-18.9,46.5-35.3,65.9
			c-13,15.4-26,30.8-39.5,45.8c-25.1,28-51.8,54.6-79.8,79.6c-7.7,6.9-16.3,14-26.6,15.1c-12.1,1.3-23.9-6.1-36-4.8
			c-7.9,0.9-14.9,5.5-22,9.3c-61.2,33.4-136.4,16.3-203.8-1.7c-21.2-5.6-42.9-11.5-60.5-24.4c-11.3-8.3-20.7-19.3-33-26.1
			c-11.1-6.2-24.3-8.7-34.4-16.5c-13-10.1-18.4-27.2-30.3-38.6c-6.6-6.4-14.9-10.7-22.6-15.8
			C1450.8,1452,1430.5,1417.8,1427.1,1381.7z"/>
		<path class="st6" d="M2079.7,1099.3c-16.7-1.7-34.7-2.1-46.2,0.9c-7,1.9-11.8,5.3-15.9,9.3c-6.8-11.6-12.6-23.9-20.8-34.5
			c-10.8-13.9-25.6-24.5-42.3-30.2c-5.9-2-12.4-3.7-16.6-8.3c-5.5-6.1-5.3-15.2-7.7-23.1c-6.5-21.4-30.8-31.1-52.1-37.9
			c-19.2-6.1-38.4-12.2-57.6-18.3c-20.8-6.6-43.7-13.1-63.6-4.2c-6,2.7-11.6,6.8-18.2,7.3c-7.3,0.6-14.1-3.4-21.1-5.8
			c-48.1-16.6-92.7,41.9-143.6,40.2c-9.8-0.3-20.8-2.6-28.4,3.7c-7.6,6.2-7.5,17.8-11.7,26.7c-6.2,13.3-21.1,19.6-32.7,28.6
			c-17.5,13.6-27.9,34.1-37.8,53.9c-4.5,9.1-9.1,18.2-13.6,27.4c-10.3,20.8-20.9,42.4-21.5,65.7c-1.2,43.1,32,81.5,31.4,124.7
			c-0.3,18.8-0.1,40.2,3.9,58.6c7,32.5,36,46.7,54.7,74.2c5.3,7.8,9.2,16.5,15.1,23.9c13.3,16.6,34.8,24.1,55.2,30.3
			c15.6,4.7,31.9,1.1,47.6,5.4c15.7,4.2,13.2,16.4,29.1,20.3c15.7,3.9,36.9-0.9,56.7,2.7c23.4,4.3,45.7,17,64.4,21.3
			c9.2,2.1,18.8,4.2,28.1,2.2c28.3-6.2,36.9-41.4,63.4-51.2c17-6.3,35.5-3.6,53.3-10.7c10.9-4.3,21.1-10,31.5-15.3
			c5.3,1.5,12.3,2.1,20.2,5.4c0.5,0.2,1.1,0.5,1.7,1l0.6,0.4c14.3,11.1,14.7,32.5,1.9,45.1c-11.9,11.8-24.7,22.7-37.4,33.6
			c-7.5,6.5-15.2,13-24.1,17.3c-8.9,4.2-18.8,6.1-28.5,7.8c-28.5,5.2-60.3,14.6-88.9,9.7c-27.2-4.8-50.9,25.2-78.3,22
			c-12.5-1.5-23.1-9.7-35.2-13.7c-16.1-5.3-33.6-2.4-50.5-4c-32.8-3.1-61.5-22.6-88.5-41.5c-23.9-16.7-47.9-33.4-71.8-50.1
			c-12.2-8.5-24.9-17.6-31.5-30.9c-4.4-8.7-6-18.9-12-26.5c-4.9-6.2-12.3-9.9-18.1-15.4c-6.7-6.2-11-14.5-15.2-22.7
			c-20.1-38.7-40.5-78.2-48.3-121.1c-4.8-26.4-4.8-53.7,0.1-80.1c5.3-28.5,4.9-60.8,24.8-81.8l0.3-0.3c5.8-6.1,12.5-11.7,15.6-19.4
			c3.1-8,1.9-16.9,2.5-25.5c1.7-25.3,18.9-46.5,35.3-65.9c13-15.4,26-30.8,39.5-45.8c25.1-28,51.8-54.6,79.8-79.6
			c7.7-6.9,16.3-14,26.6-15.1c12.1-1.3,23.9,6.1,36,4.8c7.9-0.9,14.9-5.5,22-9.3c61.1-33.4,136.4-16.3,203.7,1.7
			c21.2,5.6,42.9,11.5,60.5,24.4c11.3,8.3,20.7,19.3,33,26.1c11.1,6.2,24.3,8.7,34.4,16.5c13,10.1,18.4,27.2,30.3,38.6
			c6.6,6.4,14.9,10.7,22.6,15.8C2056,1029,2076.3,1063.2,2079.7,1099.3z"/>
		<path class="st6" d="M1427.1,1381.7c16.7,1.7,34.6,2.1,46.2-0.9c7-1.9,11.8-5.3,16-9.3c6.8,11.6,12.6,23.9,20.8,34.5
			c10.8,13.8,25.6,24.5,42.3,30.2c5.9,2,12.4,3.7,16.6,8.3c5.5,6.1,5.3,15.2,7.7,23.1c6.5,21.4,30.8,31.1,52.1,37.9
			c19.2,6.1,38.4,12.2,57.6,18.3c20.7,6.6,43.7,13.1,63.6,4.2c6-2.7,11.6-6.8,18.2-7.3c7.3-0.6,14.1,3.4,21.1,5.8
			c48.1,16.6,92.7-41.9,143.6-40.2c9.8,0.3,20.9,2.6,28.4-3.7c7.6-6.2,7.5-17.8,11.7-26.7c6.2-13.3,21.1-19.6,32.7-28.6
			c17.5-13.6,27.9-34.1,37.8-53.9c4.5-9.1,9.1-18.2,13.6-27.4c10.3-20.8,20.9-42.4,21.5-65.7c1.2-43.1-32-81.5-31.4-124.7
			c0.3-18.8,0.1-40.2-3.9-58.6c-7-32.5-36-46.7-54.7-74.2c-5.3-7.8-9.2-16.5-15.1-23.9c-13.3-16.6-34.8-24.1-55.2-30.3
			c-15.6-4.7-31.9-1.1-47.6-5.4c-15.7-4.2-13.2-16.4-29.1-20.3c-15.8-3.9-36.9,0.9-56.7-2.7c-23.4-4.3-45.7-17-64.4-21.3
			c-9.2-2.1-18.8-4.2-28.1-2.2c-28.3,6.1-36.9,41.4-63.4,51.2c-17,6.3-35.5,3.6-53.3,10.7c-10.9,4.3-21.1,10-31.5,15.3
			c-5.3-1.5-12.3-2.1-20.2-5.4c-0.5-0.2-1.1-0.6-1.7-1l-0.6-0.4c-14.3-11-14.7-32.5-1.9-45.1c11.9-11.7,24.7-22.7,37.4-33.6
			c7.5-6.5,15.2-13,24.1-17.3c8.9-4.2,18.8-6.1,28.5-7.8c28.5-5.2,60.3-14.6,88.9-9.6c27.2,4.7,50.9-25.2,78.3-22
			c12.5,1.5,23.1,9.7,35.2,13.7c16.1,5.3,33.6,2.4,50.5,4c32.8,3.1,61.5,22.6,88.5,41.5c23.9,16.7,47.9,33.4,71.8,50.1
			c12.2,8.5,24.9,17.6,31.5,30.9c4.4,8.7,6,18.9,12,26.5c4.9,6.2,12.3,9.9,18,15.4c6.7,6.2,11,14.5,15.3,22.7
			c20.1,38.7,40.5,78.2,48.3,121.1c4.8,26.4,4.8,53.7-0.1,80.1c-5.3,28.4-4.9,60.8-24.8,81.8l-0.3,0.3c-5.8,6.1-12.5,11.7-15.6,19.4
			c-3.1,8-1.9,16.9-2.5,25.5c-1.7,25.3-18.9,46.5-35.3,65.9c-13,15.4-26,30.8-39.5,45.8c-25.1,28-51.8,54.6-79.8,79.6
			c-7.7,6.9-16.3,14-26.6,15.1c-12.1,1.3-23.9-6.1-36-4.8c-7.9,0.9-14.9,5.5-22,9.3c-61.2,33.4-136.4,16.3-203.8-1.7
			c-21.2-5.6-42.9-11.5-60.5-24.4c-11.3-8.3-20.7-19.3-33-26.1c-11.1-6.2-24.3-8.7-34.4-16.5c-13-10.1-18.4-27.2-30.3-38.6
			c-6.6-6.4-14.9-10.7-22.6-15.8C1450.8,1452,1430.5,1417.8,1427.1,1381.7z"/>
		<path class="st7" d="M1494.8,1301.3c-1.3,12.8,5.5,20.5,15.2,28.2c10.4,8.3,17.5,14.6,22.1,27.5c2.8,7.8,4,14.8,8.4,22
			c13.4,21.9,44.9,34.9,67.5,18.9c2.9-2,1.3-7.4-2.6-6.1c-36,11.9-57.2-5.9-68.2-39.4c-2.2-6.7-5-12.2-10.2-17
			c-10.8-10.3-29.3-14.1-27.8-34C1499.5,1298.4,1495.1,1298.5,1494.8,1301.3z"/>
		<path class="st7" d="M2012,1179.7c1.3-12.8-5.5-20.5-15.2-28.2c-10.4-8.3-17.5-14.6-22.1-27.5c-2.8-7.8-4-14.8-8.4-22
			c-13.4-21.9-44.9-34.9-67.6-18.9c-2.9,2-1.3,7.4,2.6,6.1c36-11.9,57.2,5.9,68.2,39.4c2.2,6.7,5,12.1,10.2,17
			c10.8,10.3,29.3,14.1,27.8,34C2007.3,1182.6,2011.7,1182.6,2012,1179.7z"/>
		<path class="st7" d="M1601.8,1191.1c-30.7,16.3,2.4,47,16.7,60.8c9.3,9,20.1,16.6,33.6,16c10.5-0.5,20.7-6,22.9-16.9
			c0.8-4.1-4.8-8.7-8-4.6c-12.9,16.5-29.5,7.3-41.9-4.4c-12.3-11.8-35.8-28.5-19.8-46.2C1607.7,1193.3,1604.8,1189.5,1601.8,1191.1z
			"/>
		<path class="st7" d="M1905,1289.9c30.7-16.3-2.4-47-16.7-60.8c-9.3-9-20.1-16.6-33.6-16c-10.5,0.5-20.7,6-22.9,16.9
			c-0.8,4.1,4.8,8.7,8,4.6c12.9-16.5,29.5-7.3,41.9,4.4c12.3,11.8,35.8,28.5,19.8,46.2C1899.1,1287.7,1902,1291.6,1905,1289.9z"/>
		<path class="st7" d="M1728.4,1136.3c2-2.7,4.1-6.3,6.7-8.4c13.1-10.4,20.4-1.1,23,9.8c1.7,7.4,0.5,15.4,1.2,22.9
			c1.1,11.4,3.4,23.3,10.6,32.4c3,3.8,7.8-0.5,7.2-4.2c-1-6.8-3.7-13-5.3-19.6c-1.9-8.3-2-16.8-2.9-25.3c-1-8.9-3.2-18-10.5-24.1
			c-14.2-11.9-28,0.6-34.6,13.8C1722.4,1136.7,1726.5,1138.9,1728.4,1136.3z"/>
		<path class="st7" d="M1778.3,1344.8c-2,2.7-4.1,6.3-6.7,8.4c-13.1,10.4-20.4,1.1-23-9.8c-1.7-7.4-0.5-15.4-1.2-22.9
			c-1.1-11.4-3.4-23.3-10.6-32.4c-3-3.8-7.8,0.5-7.2,4.2c1,6.8,3.8,12.9,5.3,19.6c1.9,8.3,2,16.8,2.9,25.3c1,8.9,3.2,18,10.4,24.1
			c14.2,11.9,28-0.6,34.6-13.8C1784.4,1344.4,1780.3,1342.1,1778.3,1344.8z"/>
		<path class="st7" d="M1683.9,1415.1c5.9-1.8,22.1,1.5,25.4,6.7c1.9,3,0.6,11.6,1.2,15.8c0.5,4,1,7.7,2.8,11.4
			c4.4,8.7,13.1,12.1,22.3,13.3c5.3,0.7,11.9,1.3,17.1-0.1c3.8-1,6.2-4.9,9.1-5.9c4.5-1.4,10.1,0.6,14.8-0.4
			c10.8-2.5,16.5-15,29.7-11.5c3,0.8,5.9-3.3,3.2-5.6c-10.5-9-17.2-1.1-27.7,3.4c-7.5,3.2-15.6,1.6-22.9,3.9
			c-7,2.2-10.1,6.8-18.7,6.8c-26.6,0.2-16.8-24.7-27.4-38.4c-7.7-10-19.8-7.2-30-3.2C1680.7,1412.4,1681.5,1415.8,1683.9,1415.1z"/>
		<path class="st7" d="M1822.9,1066c-5.9,1.8-22.1-1.5-25.4-6.7c-1.9-3-0.6-11.6-1.2-15.8c-0.5-4-1-7.7-2.8-11.4
			c-4.4-8.7-13.1-12.1-22.3-13.3c-5.3-0.7-11.9-1.3-17.1,0.1c-3.8,1-6.2,4.9-9.1,5.9c-4.5,1.4-10.1-0.6-14.8,0.5
			c-10.8,2.5-16.5,15-29.7,11.5c-3-0.8-5.9,3.3-3.2,5.6c10.5,9,17.2,1.1,27.7-3.4c7.5-3.2,15.6-1.6,22.9-3.9
			c7-2.2,10.1-6.8,18.7-6.8c26.6-0.2,16.8,24.7,27.4,38.4c7.7,10,19.8,7.2,30,3.2C1826.1,1068.7,1825.3,1065.2,1822.9,1066z"/>
		<path class="st7" d="M1747.6,1339.3c4.9,7.9,13.9,12.7,23.3,11.1c8.6-1.4,18.4-9.3,18-18.7c-0.1-2.8-4-4.1-5.5-1.5
			c-3.3,5.7-5.3,11.4-12.3,13.7c-7.3,2.4-14.9-1-19.2-7.1C1750.1,1334.2,1745.9,1336.5,1747.6,1339.3z"/>
		<path class="st7" d="M1759.2,1141.7c-4.9-7.9-13.9-12.7-23.3-11.1c-8.6,1.4-18.4,9.3-18,18.7c0.1,2.9,4,4.1,5.5,1.5
			c3.3-5.7,5.2-11.3,12.3-13.6c7.3-2.4,14.9,1,19.2,7.1C1756.7,1146.9,1760.9,1144.5,1759.2,1141.7z"/>
		<path class="st7" d="M1930.5,1066.2c-18.5-1-31-11.3-38-28.2c-3-7.4-4.9-15.3-9.2-22.1c-6.1-9.6-16.3-16.7-27.3-19.6
			c-12.9-3.3-22.2,0.5-34,4.9c-15.5,5.8-21.8,0.7-34.3-5c-5.5-2.5-10.1-3.8-16.2-3.3c-4.9,0.4-6.8,8.2-1.2,9.2
			c14.3,2.5,25.8,16,40.9,15c6.2-0.4,11-3.6,16.4-6.3c11.5-5.8,23.7-7.2,35.7-1.1c18.6,9.4,17.6,32.4,30,46.9
			c9.5,11.1,22.9,16,37.3,16.1C1934.6,1072.5,1934.5,1066.4,1930.5,1066.2z"/>
		<path class="st7" d="M1576.3,1414.9c18.5,1,31,11.3,38,28.2c3,7.4,4.9,15.3,9.2,22.1c6.1,9.6,16.3,16.7,27.3,19.6
			c12.9,3.3,22.2-0.5,34-4.9c15.5-5.8,21.8-0.7,34.3,5c5.5,2.5,10.1,3.8,16.2,3.3c4.9-0.4,6.8-8.2,1.2-9.2
			c-14.3-2.5-25.8-16-40.9-15c-6.2,0.4-11,3.6-16.4,6.3c-11.5,5.8-23.7,7.2-35.7,1.1c-18.6-9.4-17.6-32.4-30-46.9
			c-9.5-11.1-22.9-16-37.3-16.1C1572.2,1408.6,1572.2,1414.7,1576.3,1414.9z"/>
		<path class="st7" d="M1581.2,1066.4c-9.3,7.8-11.1,22.6-3.7,32.3c6.8,8.8,23.3,13.7,31.8,4.8c3.4-3.6-0.2-8.3-4.5-7.7
			c-7,1-13.7,2.7-19.2-3.5c-5.2-5.9-3.8-14.8,1.1-20.3C1590.3,1068.2,1585.1,1063.2,1581.2,1066.4z"/>
		<path class="st7" d="M1925.6,1414.6c9.3-7.8,11.1-22.6,3.7-32.2c-6.8-8.8-23.3-13.7-31.8-4.8c-3.4,3.6,0.2,8.3,4.5,7.7
			c7-1,13.7-2.7,19.2,3.4c5.2,5.9,3.8,14.8-1.1,20.3C1916.5,1412.8,1921.7,1417.9,1925.6,1414.6z"/>
		<path class="st7" d="M1652.6,1052.4c5.1,6.4,12.9,13.9,21.4,14.6c2.9,0.2,4.5-3.9,2.4-5.8c-2.9-2.6-6.4-4.2-9.5-6.4
			c-3.2-2.3-6.1-5.1-8.6-8.1C1654.9,1042.7,1649.4,1048.4,1652.6,1052.4z"/>
		<path class="st7" d="M1854.2,1428.7c-5.1-6.4-12.9-13.9-21.4-14.6c-2.9-0.3-4.5,3.9-2.4,5.8c2.9,2.6,6.4,4.2,9.5,6.4
			c3.3,2.3,6.1,5.1,8.6,8.1C1851.9,1438.4,1857.4,1432.7,1854.2,1428.7z"/>
		<path class="st7" d="M1515.5,1150.5c-4,7.8-8.3,17-4.5,25.7c3,6.9,10.8,11.9,17.9,7.8c2.9-1.6,1.4-5.8-1.6-6
			c-13.6-0.7-9.3-16-5.8-24C1523.3,1150,1517.6,1146.4,1515.5,1150.5z"/>
		<path class="st7" d="M1991.3,1330.6c4-7.8,8.3-17,4.5-25.7c-3-6.9-10.8-11.9-17.9-7.9c-2.9,1.6-1.4,5.8,1.6,6
			c13.6,0.7,9.3,16,5.8,24C1983.5,1331.1,1989.2,1334.7,1991.3,1330.6z"/>
		<path class="st7" d="M1767.6,1288.2c3.1,4.5,6.4,7,11.5,9c4.9,1.9,9.9,2.3,14.8,0.4c3.5-1.4,3.5-5.8,0-7.2
			c-6.9-2.7-14.1-4.7-21-7.7C1769.8,1281.4,1765.1,1284.6,1767.6,1288.2z"/>
		<path class="st7" d="M1739.2,1192.8c-3.1-4.5-6.4-7-11.5-9c-4.9-1.9-9.9-2.4-14.8-0.4c-3.5,1.4-3.5,5.8,0,7.2
			c6.9,2.7,14.1,4.7,21,7.7C1737,1199.6,1741.7,1196.4,1739.2,1192.8z"/>
		<path class="st7" d="M1911.5,1453.5c17.9-12.8,12.2-39.4,2.8-55.9c-5.9-10.4-14.5-19.1-24.4-25.7c-6.7-4.4-14.7-7.2-21-12.3
			c-9.8-7.9-8.7-16.8-12.6-27.4c-1.7-4.7-8.2-3.9-8.6,1.2c-1.6,19.9,6.4,31.4,23.7,40.3c12.4,6.4,24.2,11.6,32.7,23.5
			c10.1,14.2,17.7,37.9,4.4,52.4C1906.5,1451.5,1909,1455.3,1911.5,1453.5z"/>
		<path class="st7" d="M1595.3,1027.5c-17.9,12.8-12.2,39.4-2.8,55.9c5.9,10.4,14.5,19.1,24.4,25.7c6.7,4.4,14.7,7.2,21,12.3
			c9.8,7.9,8.7,16.8,12.6,27.4c1.7,4.7,8.2,3.8,8.6-1.2c1.6-19.9-6.4-31.4-23.7-40.3c-12.4-6.4-24.2-11.6-32.7-23.5
			c-10.1-14.2-17.7-37.9-4.4-52.4C1600.3,1029.5,1597.8,1025.8,1595.3,1027.5z"/>
		<path class="st7" d="M1865.1,1291.5c12.4-10.8,21.2-24,25.5-40c5.3-19.7,1.5-39.4,5.6-59.1c0.6-3.1-3.4-6.3-5.8-3.4
			c-9.2,11.2-5.5,23.9-4.1,37.4c2.6,24.1-6.8,45.6-23.6,62.8C1861.4,1290.7,1863.5,1292.8,1865.1,1291.5z"/>
		<path class="st7" d="M1641.7,1189.6c-12.4,10.8-21.2,24-25.5,40c-5.3,19.7-1.5,39.4-5.6,59.1c-0.6,3.1,3.4,6.3,5.8,3.4
			c9.2-11.2,5.5-23.9,4-37.4c-2.6-24.1,6.8-45.6,23.6-62.8C1645.4,1190.4,1643.2,1188.2,1641.7,1189.6z"/>
		<path class="st7" d="M1937.4,1171.9c12.4,9.4,22.2-4.1,25.9-15c3-9,3.7-14,15.5-16.6c4.2-0.9,8.3-0.1,12.6-1.4
			c7.5-2.3,14.1-6.9,18-13.7c2.4-4.2-2.9-7.8-6.4-4.9c-7.9,6.5-14.1,10.1-24.2,11.4c-4.7,0.6-8.8,0.9-12.7,3.9
			c-8,6-12.5,38.1-26,31.8C1937,1165.8,1934.8,1169.8,1937.4,1171.9z"/>
		<path class="st7" d="M1569.4,1309.2c-12.4-9.4-22.2,4.1-25.9,15c-3,9-3.7,14-15.5,16.6c-4.2,0.9-8.3,0.1-12.6,1.4
			c-7.5,2.3-14.1,6.9-18,13.7c-2.4,4.2,2.9,7.8,6.4,4.9c7.9-6.5,14.1-10.1,24.2-11.4c4.7-0.6,8.8-0.9,12.7-3.8
			c8-6,12.5-38.1,26-31.8C1569.8,1315.2,1572,1311.2,1569.4,1309.2z"/>
		<path class="st5" d="M1962.1,1496c-8.6-16.1-5.8-49.9-31.7-49.9c-6.4,0-6.3,10.3,0,9.9c12.2-0.9,15.7,13.3,17.8,22.7
			c1.8,7.8,3.5,15.1,9.3,20.9C1959.9,1502,1963.6,1498.9,1962.1,1496z"/>
		<path class="st7" d="M1544.7,985.1c8.6,16.1,5.8,49.9,31.7,49.9c6.4,0,6.3-10.3,0-9.9c-12.2,0.9-15.7-13.3-17.8-22.7
			c-1.8-7.8-3.5-15.1-9.3-20.9C1546.9,979.1,1543.2,982.1,1544.7,985.1z"/>
		<path class="st7" d="M1896.9,1445.7c-5.7,3-10.5,5.2-17,4.1c-4.6-0.8-8.4-4.1-13.3-3.9c-8.4,0.4-20.3,9.1-25.6,15
			c-2.7,3-0.1,7.8,4,6.8c6-1.5,10.1-5.2,15.5-7.8c7.4-3.5,10.7-1,18,0.2c8.5,1.4,17.9-1,23.5-7.7
			C1905.1,1448.8,1901.3,1443.4,1896.9,1445.7z"/>
		<path class="st7" d="M1609.9,1035.3c5.7-3,10.5-5.2,17-4.1c4.6,0.8,8.4,4.1,13.3,3.9c8.4-0.4,20.3-9.1,25.6-15
			c2.7-3,0.1-7.8-4-6.8c-6,1.5-10.1,5.2-15.5,7.8c-7.3,3.5-10.7,1-18-0.2c-8.5-1.4-17.9,1.1-23.5,7.7
			C1601.7,1032.3,1605.5,1037.6,1609.9,1035.3z"/>
		<path class="st7" d="M1859,1287.4c0.2-0.1-7.1-16-8.7-17.9c-4.1-4.9-8.7-6.8-14.7-8.4c-22.2-5.8-53.7,1.1-67.4-22.2
			c-1.9-3.3-7.2-1.1-6.2,2.6c3.7,13.9,15.3,19.5,28.6,22.8c8.5,2.1,17.4,2.8,26,3.9c7.2,0.9,18.4,0.6,24.3,4.6
			c5.9,4,8.5,14.2,9.8,20.8c0.4,2,2.8,3.3,4.7,2.7c4.1-1.3,4-1.2,7-4.4C1864.5,1289.6,1861.7,1285.4,1859,1287.4z"/>
		<path class="st7" d="M1647.8,1193.6c-0.2,0.1,7.1,16,8.7,17.9c4.1,4.9,8.7,6.8,14.7,8.4c22.2,5.8,53.7-1.1,67.4,22.2
			c1.9,3.3,7.2,1.1,6.2-2.6c-3.7-13.9-15.3-19.5-28.6-22.8c-8.5-2.1-17.4-2.8-26-3.9c-7.2-0.9-18.4-0.6-24.3-4.6
			c-5.9-4-8.5-14.2-9.8-20.8c-0.4-2-2.9-3.3-4.7-2.7c-4.1,1.3-4,1.2-7,4.4C1642.3,1191.4,1645.1,1195.6,1647.8,1193.6z"/>
		<path class="st8" d="M1988,1541.5c-11.9,11.8-24.7,22.7-37.4,33.6c-7.5,6.5-15.2,13-24.1,17.3c-8.9,4.2-18.8,6.1-28.5,7.8
			c-28.5,5.2-60.3,14.6-88.9,9.7c-27.2-4.8-50.9,25.2-78.3,22c-12.5-1.5-23.1-9.7-35.2-13.7c-16.1-5.3-33.6-2.4-50.5-4
			c-32.8-3.1-61.5-22.6-88.5-41.5c-23.9-16.7-47.9-33.4-71.8-50.1c-12.2-8.5-24.9-17.6-31.5-30.9c-4.4-8.7-6-18.9-12-26.5
			c-4.9-6.2-12.3-9.9-18-15.4c-6.7-6.2-11-14.5-15.3-22.7c-20.1-38.7-40.5-78.2-48.3-121.1c-4.8-26.4-4.8-53.7,0.1-80.1
			c5.3-28.5,4.9-60.8,24.8-81.8l0.3-0.3c2.2,20.2-12.4,63.1-9,79.1c4.7,22.5,21.3,42.3,20.8,65.2c-0.3,14.3-7.2,29-2.1,42.4
			c5.8,15.2,24.4,21.4,33.2,35.2c7.5,11.7,6.6,26.6,8.8,40.3c3.4,21.8,14.8,41.6,28.3,59c17.5,22.7,38.6,42.3,59.6,61.7
			c11.7,10.8,24.2,22,39.8,25.2c7.6,1.5,15.6,1.1,23.3,2.4c22.1,3.7,39,21.4,59.9,29.5c10.8,4.1,22.5,5.6,34,6.8
			c71.5,7.2,144.2,3,214.4-12.5c5.5-1.2,11.1-2.6,15.8-5.8c5.6-3.9,9-10.2,13.8-15.1c8.8-8.9,21.4-12.6,31.9-19.3
			c14.6-9.3,24.7-25.1,28-42.1l0.6,0.4C2000.5,1507.4,2000.9,1528.8,1988,1541.5z"/>
		<path class="st8" d="M1518.7,939.6c11.9-11.7,24.7-22.7,37.4-33.6c7.5-6.5,15.2-13,24.1-17.3c8.9-4.2,18.8-6.1,28.5-7.8
			c28.5-5.2,60.3-14.6,88.9-9.7c27.2,4.7,50.9-25.2,78.3-22c12.5,1.5,23.1,9.7,35.2,13.7c16.1,5.3,33.6,2.4,50.5,4
			c32.8,3.1,61.5,22.6,88.5,41.5c23.9,16.7,47.8,33.4,71.8,50.1c12.2,8.5,24.9,17.6,31.5,30.9c4.4,8.7,6,18.9,12,26.5
			c4.9,6.2,12.3,9.9,18,15.4c6.7,6.2,11,14.5,15.2,22.7c20.1,38.7,40.5,78.2,48.3,121.1c4.9,26.4,4.8,53.7-0.1,80.1
			c-5.3,28.4-4.9,60.8-24.8,81.8l-0.3,0.3c-2.2-20.2,12.4-63.1,9-79.1c-4.7-22.5-21.3-42.3-20.8-65.2c0.3-14.3,7.2-29,2.1-42.4
			c-5.8-15.2-24.4-21.5-33.2-35.2c-7.5-11.7-6.6-26.6-8.8-40.3c-3.4-21.8-14.8-41.6-28.3-59c-17.5-22.7-38.6-42.3-59.6-61.7
			c-11.7-10.8-24.2-22-39.8-25.2c-7.6-1.5-15.6-1.1-23.3-2.4c-22.1-3.7-39-21.4-59.9-29.5c-10.8-4.1-22.5-5.6-34-6.8
			c-71.5-7.2-144.2-3-214.4,12.4c-5.5,1.2-11.2,2.6-15.8,5.8c-5.6,3.9-9,10.2-13.8,15.1c-8.8,8.9-21.4,12.6-31.9,19.3
			c-14.6,9.3-24.7,25.1-28,42.1l-0.6-0.4C1506.3,973.7,1505.9,952.2,1518.7,939.6z"/>
		<path class="st8" d="M1703.4,951.9c13.9,20.8,36.6,8.1,55.4,3.3c21.8-5.5,43.2,4.3,63.7,10.4c16.4,4.9,32.8,9.8,49.3,14.6
			c13.1,3.8,27.1,7.7,38.9,14.9c16.7,10.2,16,27.4,26.5,41.6c16.8,22.9,58.9,19,64.3,51.2c0.7,4.1,7.8,3.2,7.3-1
			c-2.9-25.8-28.3-32.1-48.2-42.2c-12.2-6.2-18.2-14.5-23-27.6c-2-5.5-3.7-10.5-7.1-15.4c-6.3-8.9-16-15.9-25.7-20.6
			c-28.3-13.8-62.5-20.6-92.8-28.3c-13.6-3.5-27.5-6.5-41.6-4.8c-19.7,2.3-47.3,21.7-63.5,1.4C1705.2,947.3,1702,949.8,1703.4,951.9
			z"/>
		<path class="st8" d="M1803.4,1529.2c-13.9-20.8-36.6-8.1-55.4-3.3c-21.8,5.5-43.2-4.3-63.7-10.4c-16.4-4.9-32.8-9.8-49.3-14.6
			c-13.1-3.8-27.1-7.7-38.9-14.9c-16.7-10.2-16-27.4-26.5-41.6c-16.8-22.9-58.9-19-64.3-51.2c-0.7-4.1-7.8-3.2-7.3,1
			c2.9,25.8,28.3,32.1,48.2,42.2c12.2,6.2,18.2,14.5,23,27.6c2,5.5,3.7,10.5,7.1,15.4c6.3,9,16,15.9,25.7,20.6
			c28.3,13.8,62.5,20.6,92.8,28.4c13.6,3.5,27.5,6.5,41.6,4.8c19.7-2.3,47.3-21.7,63.5-1.4
			C1801.6,1533.7,1804.8,1531.2,1803.4,1529.2z"/>
		<path class="st8" d="M1437.1,1261.9c-1.6,14.2,10.8,23.8,14.5,36.9c5,17.6,0.5,38.1,2.8,56.3c3.6,28.3,14.2,61.3,34.4,82.3
			c2.5,2.6,6.5-0.7,4.9-3.8c-16.5-30.9-31.2-57.7-33.2-93.6c-0.6-11.6,0.3-23.3-1.4-34.9c-0.8-5.7-2.1-11.2-4.6-16.3
			c-4.1-8.5-14.3-16.8-13.9-26.9C1440.7,1259.6,1437.4,1259.7,1437.1,1261.9z"/>
		<path class="st8" d="M2069.7,1219.1c1.6-14.2-10.8-23.8-14.5-36.9c-5-17.6-0.5-38.1-2.8-56.2c-3.6-28.3-14.2-61.3-34.4-82.3
			c-2.5-2.6-6.5,0.7-4.9,3.8c16.5,30.9,31.2,57.7,33.2,93.6c0.6,11.6-0.3,23.3,1.4,34.9c0.8,5.6,2.1,11.2,4.6,16.3
			c4.1,8.5,14.3,16.8,13.9,26.9C2066,1221.5,2069.4,1221.3,2069.7,1219.1z"/>
		<path class="st8" d="M1438.5,1178c5.9-24.1,12.5-47.2,25.7-68.5c14.1-22.6,32.2-39.8,52.4-56.6c16-13.2,17.2-37.6,34.8-48.2
			c17.1-10.2,38.8-8.6,56.3-18.3c4.7-2.6,0.6-8.9-4.1-7c-19.4,8.2-44.2,7.8-61.2,21.1c-7.6,6-11.2,13.5-15,22.2
			c-6.2,14.4-15,22.1-26.7,32c-35.2,29.9-62.2,76.1-66.3,122.6C1434.3,1179.7,1437.9,1180.2,1438.5,1178z"/>
		<path class="st8" d="M2068.3,1303.1c-5.9,24.1-12.5,47.2-25.7,68.5c-14.1,22.6-32.2,39.8-52.4,56.6c-16,13.2-17.2,37.6-34.8,48.2
			c-17.1,10.2-38.8,8.6-56.3,18.3c-4.7,2.6-0.6,8.9,4.1,7c19.4-8.2,44.2-7.8,61.2-21.1c7.6-5.9,11.2-13.5,15-22.2
			c6.2-14.4,15-22.1,26.7-32.1c35.2-29.9,62.2-76.1,66.3-122.6C2072.5,1301.3,2068.9,1300.9,2068.3,1303.1z"/>
		<path class="st8" d="M1660.1,944.3c9.3,0.5,18.6-4.2,23-12.6c3.2-6.2,4.8-22.2-4.1-24.3c-1.3-0.3-2.9,0.4-3.2,1.8
			c-0.7,3,0.3,4,1.4,6.8c1.4,3.6,1.4,7.5,0.4,11.2c-2.2,7.8-9.6,12.2-17.4,12.3C1657,939.6,1657,944.2,1660.1,944.3z"/>
		<path class="st8" d="M1846.7,1536.7c-9.3-0.5-18.6,4.2-23,12.6c-3.2,6.1-4.8,22.2,4.1,24.3c1.3,0.3,2.9-0.4,3.2-1.8
			c0.7-3-0.3-4-1.4-6.8c-1.4-3.6-1.4-7.6-0.4-11.2c2.2-7.8,9.6-12.2,17.4-12.3C1849.8,1541.5,1849.7,1536.9,1846.7,1536.7z"/>
		<path class="st8" d="M1788.3,928.6c11.6,0.4,25.2-12,20.8-24.3c-0.9-2.6-4.8-2.2-4.8,0.7c-0.1,4.7-0.7,9.1-3.8,12.9
			c-3,3.7-7.4,5.9-12.1,5.9C1785.2,923.8,1785.2,928.5,1788.3,928.6z"/>
		<path class="st8" d="M1718.5,1552.4c-11.6-0.4-25.2,12-20.8,24.2c0.9,2.6,4.8,2.2,4.8-0.6c0.1-4.8,0.7-9.1,3.8-12.9
			c3-3.7,7.4-5.9,12.1-5.9C1721.6,1557.3,1721.6,1552.5,1718.5,1552.4z"/>
		<path class="st8" d="M1940.6,989.3c9.7,5.1,22.6-7.1,15.1-16.4c-2.2-2.7-5.9,0.3-5.3,3.1c0.7,3.7-3.1,8.3-7,6.7
			C1939.6,981.2,1937,987.5,1940.6,989.3z"/>
		<path class="st8" d="M1566.2,1491.7c-9.7-5.1-22.6,7.1-15.1,16.4c2.2,2.7,5.9-0.3,5.4-3.1c-0.7-3.7,3.1-8.4,7-6.7
			C1567.2,1499.9,1569.8,1493.6,1566.2,1491.7z"/>
		<path class="st8" d="M1389.4,1210.6c7.1,5.6,14.1,12.1,22.1,16.3c3.2,1.7,6.3-2.3,3.8-5c-6.1-6.7-14.2-11.8-21.4-17.2
			C1390.6,1202.2,1386.1,1207.9,1389.4,1210.6z"/>
		<path class="st8" d="M2117.4,1270.5c-7.1-5.6-14.1-12.2-22.1-16.3c-3.2-1.7-6.3,2.3-3.8,5c6.1,6.7,14.2,11.8,21.4,17.2
			C2116.2,1278.9,2120.7,1273.1,2117.4,1270.5z"/>
		<path class="st8" d="M1513.7,1492.6c-0.1-1.6,1.8-1.9,2.9-2.5c1.7-0.9,1.4-3.2,0-4.1c-4.2-2.9-9,2.5-8.6,6.6
			C1508.3,1496.2,1513.9,1496.3,1513.7,1492.6z"/>
		<path class="st8" d="M1993,988.5c0,1.6-1.8,1.9-2.9,2.5c-1.7,0.9-1.4,3.2,0,4.1c4.2,2.8,9-2.5,8.6-6.6
			C1998.5,984.8,1992.9,984.7,1993,988.5z"/>
		<path class="st8" d="M1619.9,1538.5c-1,4-2,8-3.1,12c-0.9,3.5-2.1,6.7-1,10.3c0.5,1.5,2.6,2.3,3.8,1c2.5-2.8,2.8-6,3.5-9.6
			c0.8-4.1,1.5-8.1,2.3-12.2C1625.9,1536.4,1620.8,1534.9,1619.9,1538.5z"/>
		<path class="st8" d="M1886.9,942.6c1-4,2-8,3.1-12c0.9-3.5,2.1-6.7,1-10.3c-0.5-1.5-2.6-2.3-3.8-1c-2.5,2.8-2.8,6-3.5,9.6
			c-0.8,4.1-1.5,8.1-2.3,12.2C1880.8,944.6,1886,946.2,1886.9,942.6z"/>
		<path class="st8" d="M1689.1,1563.9c-1.3,6.5-0.5,18.1,7.6,19.9c1.6,0.4,3.6-0.8,3.4-2.6c-0.2-2.8-1.5-5.2-2.5-7.7
			c-1.1-2.8-1.4-5.5-1-8.5C1697.1,1560.7,1689.9,1559.7,1689.1,1563.9z"/>
		<path class="st8" d="M1817.7,917.2c1.3-6.5,0.5-18.1-7.6-19.9c-1.6-0.4-3.6,0.8-3.4,2.6c0.2,2.8,1.5,5.2,2.5,7.7
			c1.1,2.8,1.4,5.5,1,8.5C1809.7,920.4,1816.9,921.4,1817.7,917.2z"/>
		<path class="st8" d="M1839.6,1572c10.1,0.9,17,6.3,23.4,13.7c2.4,2.7,5.8-0.7,4.6-3.6c-4.5-10.5-17-16.2-28-15.7
			C1836,1566.7,1836.1,1571.7,1839.6,1572z"/>
		<path class="st8" d="M1667.2,909c-10.1-0.9-17-6.3-23.4-13.7c-2.4-2.7-5.8,0.8-4.6,3.6c4.5,10.5,17,16.2,28,15.7
			C1670.8,914.4,1670.7,909.3,1667.2,909z"/>
		<path class="st8" d="M1908.7,1542.3c3.8,1.6,7.7,3.6,11.8,4.3c2.9,0.5,4.5-3,2-4.7c-3.6-2.5-8.1-3.8-12.1-5.4
			c-1.5-0.6-3.3,0.7-3.7,2.1C1906.1,1540.3,1907.2,1541.7,1908.7,1542.3z"/>
		<path class="st8" d="M1598.1,938.7c-3.8-1.6-7.7-3.6-11.8-4.3c-2.9-0.5-4.5,3-2,4.8c3.6,2.5,8.1,3.8,12.1,5.4
			c1.5,0.6,3.3-0.7,3.7-2.1C1600.7,940.7,1599.6,939.3,1598.1,938.7z"/>
		<path class="st8" d="M1707.8,1185.1c-4,7.3-3,16,1.9,22.7c4.3,5.8,13.3,11.9,20,6.3c1.6-1.3,0.8-3.7-0.6-4.6
			c-4.1-2.8-8.9-3.1-12.2-7.3c-3.3-4.2-4.3-9.2-2.2-14.1C1716.3,1184,1709.8,1181.4,1707.8,1185.1z"/>
		<path class="st8" d="M1799,1296c4-7.3,3-16-1.9-22.7c-4.3-5.8-13.3-11.9-20-6.3c-1.6,1.3-0.8,3.7,0.6,4.6
			c4.1,2.8,8.9,3.1,12.2,7.3c3.2,4.2,4.3,9.2,2.2,14.1C1790.4,1297,1797,1299.7,1799,1296z"/>
		<path class="st8" d="M1670.3,1193.7c-1.3,10.2-2.4,22.4,5,30.7c5.3,5.9,15.2,10.3,21.4,3.3c1.5-1.7,0.4-4.2-1.8-4.3
			c-6.3-0.3-12.2-1.8-15.8-7.5c-4-6.5-3.4-15-3-22.3C1676.3,1189.9,1670.7,1190.1,1670.3,1193.7z"/>
		<path class="st8" d="M1836.5,1287.4c1.3-10.2,2.4-22.4-5-30.8c-5.3-5.9-15.2-10.3-21.4-3.3c-1.5,1.7-0.4,4.2,1.8,4.3
			c6.3,0.4,12.2,1.8,15.8,7.5c4,6.5,3.4,15,3,22.3C1830.5,1291.2,1836.1,1291,1836.5,1287.4z"/>
		<path class="st8" d="M1803.8,1211.2c6.4,1.7,16.7,2,21.5-3.5c1.7-1.9,0.4-4.5-2-4.7c-3-0.3-5.9,0.6-8.9,1.2
			c-3.2,0.6-6.5,0.6-9.8,0.7C1801,1204.9,1800.2,1210.2,1803.8,1211.2z"/>
		<path class="st8" d="M1703,1269.8c-6.4-1.7-16.7-2-21.5,3.5c-1.7,1.9-0.4,4.5,2,4.7c3,0.3,5.9-0.6,8.9-1.2
			c3.2-0.6,6.5-0.6,9.8-0.7C1705.8,1276.2,1706.6,1270.8,1703,1269.8z"/>
		<path class="st8" d="M1807.6,1147.6c7.2-1.2,11.7,5,14.7,10.6c0.9,1.7,4,1.5,4.4-0.6c2-11.1-11.1-18.1-20.7-15.9
			C1802.2,1142.6,1803.9,1148.2,1807.6,1147.6z"/>
		<path class="st8" d="M1699.1,1333.5c-7.2,1.1-11.7-5-14.7-10.6c-0.9-1.7-4-1.5-4.4,0.6c-2,11.1,11.1,18.1,20.7,15.9
			C1704.6,1338.5,1702.9,1332.9,1699.1,1333.5z"/>
		<path class="st8" d="M1689.1,1287.7c-4.5,6.3-2.3,15.3,4.1,19.4c5.7,3.6,19,3.3,19.5-5.6c0.1-1.9-1.7-3.6-3.6-3.6
			c-3.8,0.1-7,3.8-11,1.7c-3.4-1.7-4.3-6.2-3.5-9.6C1695.5,1286.6,1691.1,1285,1689.1,1287.7z"/>
		<path class="st8" d="M1817.6,1193.3c4.5-6.3,2.2-15.3-4.1-19.4c-5.7-3.6-19-3.3-19.5,5.6c-0.1,1.9,1.7,3.6,3.6,3.6
			c3.8-0.1,7-3.8,11-1.7c3.4,1.7,4.3,6.2,3.5,9.6C1811.3,1194.5,1815.7,1196.1,1817.6,1193.3z"/>
		<path class="st8" d="M1652.4,1320.7c2.6,2.6,5.1,4.9,8.2,7.1c2.9,2,6.9-2,4.9-4.9c-2.1-3-4.5-5.6-7.1-8.2
			C1654.6,1310.8,1648.5,1316.9,1652.4,1320.7z"/>
		<path class="st8" d="M1854.4,1160.3c-2.6-2.6-5.2-4.9-8.2-7.1c-2.9-2-6.9,2-4.9,4.9c2.1,3,4.5,5.6,7.1,8.2
			C1852.2,1170.2,1858.3,1164.2,1854.4,1160.3z"/>
		<path class="st7" d="M1831.2,1071.5c-4.2,9.7-2.7,21.2,4.9,28.9c7.4,7.5,19.5,9.8,28.6,4.3c3.6-2.2,1.2-7.5-2.8-6.6
			c-6.7,1.4-14.2,0.8-19.3-4.1c-5.2-5-5.9-12.6-3.7-19.2C1840.4,1070.3,1833.2,1067.1,1831.2,1071.5z"/>
		<path class="st7" d="M1675.6,1409.5c4.2-9.7,2.7-21.1-4.9-28.9c-7.4-7.5-19.5-9.8-28.6-4.3c-3.6,2.2-1.2,7.5,2.8,6.6
			c6.7-1.4,14.2-0.8,19.3,4.1c5.2,5,5.9,12.6,3.7,19.2C1666.4,1410.7,1673.6,1413.9,1675.6,1409.5z"/>
		<path class="st7" d="M1511.4,1267.4c10.4-7.8,25.1-10.3,34.9,0c9.9,10.4,3.1,20.3-4.7,28.7c-1.8,1.9-0.7,6,2.4,5.7
			c17.3-2.1,19.2-25.7,10-37.1c-11.9-14.8-32.3-12.7-45.8-1.5C1505.9,1265.1,1509,1269.2,1511.4,1267.4z"/>
		<path class="st7" d="M1995.3,1213.7c-10.4,7.8-25.1,10.3-34.9,0c-9.9-10.4-3.1-20.3,4.7-28.7c1.8-1.9,0.7-6.1-2.4-5.7
			c-17.3,2.1-19.2,25.7-10,37.1c11.9,14.8,32.3,12.7,45.8,1.5C2000.9,1216,1997.8,1211.8,1995.3,1213.7z"/>
		<path class="st7" d="M1633,1443.7c-9.3,7.9-10.1,23.2-1.6,32.1c8.8,9.2,24.3,8.4,32.3-1.3c3.7-4.6-2-10.6-6.6-6.6
			c-4.7,4.2-13.4,4.7-18.2,0.3c-5.1-4.7-4.4-13.6,0.1-18.4C1642.9,1445.8,1637.2,1440.2,1633,1443.7z"/>
		<path class="st7" d="M1873.8,1037.3c9.3-7.9,10.1-23.2,1.6-32.1c-8.8-9.2-24.3-8.4-32.3,1.3c-3.7,4.6,2,10.6,6.6,6.5
			c4.7-4.2,13.4-4.7,18.2-0.3c5.1,4.7,4.4,13.6-0.1,18.4C1863.8,1035.3,1869.6,1040.9,1873.8,1037.3z"/>
		<path class="st7" d="M1805.6,1408.4c0.1-0.3,0.6-1,0.1-0.3c-0.2,0.3-0.3,0.5-0.1,0.1c-0.5,0.7-0.3-0.2,0.2,0
			c-0.4-0.2-0.6-0.1,0,0.1c0.6,0.1-1.1,0,0,0c-0.4,0-0.6-0.3,0,0l0.7,0.3c0.6,0.2-0.1-0.1-0.3-0.4c2.2,3.3,6.9,1.9,7.2-1.9
			c0.7-8.9-13.8-9.5-15.4-1.3c-0.4,2,0.4,4.1,2.4,4.9C1802.1,1410.8,1804.8,1410.3,1805.6,1408.4z"/>
		<path class="st7" d="M1701.2,1072.7c-0.1,0.3-0.6,1-0.1,0.3c0.2-0.3,0.3-0.5,0.1-0.1c0.5-0.7,0.3,0.2-0.2,0c0.4,0.1,0.6,0.1,0-0.1
			c-0.6-0.1,1.1,0,0,0c0.4,0,0.6,0.3,0,0l-0.7-0.3c-0.6-0.2,0.2,0.1,0.3,0.4c-2.2-3.3-6.9-1.9-7.2,1.9c-0.7,8.9,13.8,9.5,15.4,1.3
			c0.4-2-0.4-4.1-2.4-4.9C1704.7,1070.3,1702,1070.8,1701.2,1072.7z"/>
		<path class="st7" d="M1735.3,1077.7c1.4-7.2,4.6-15.6,12.1-18.5c6.1-2.4,12.1,0.6,15.6,5.7c2.3,3.3,7.1,1.2,6.4-2.7
			c-1.7-9.9-13.8-13.4-22.5-10.8c-11.1,3.3-16.1,15.1-17.5,25.6C1728.9,1080.2,1734.7,1081,1735.3,1077.7z"/>
		<path class="st7" d="M1771.5,1403.4c-1.4,7.2-4.6,15.6-12.1,18.5c-6.1,2.4-12.1-0.6-15.6-5.7c-2.3-3.3-7.1-1.2-6.4,2.7
			c1.7,9.9,13.8,13.4,22.5,10.8c11.1-3.3,16.1-15.1,17.5-25.6C1777.9,1400.8,1772.1,1400,1771.5,1403.4z"/>
		<path class="st7" d="M1634.9,1009.2c0.9-5,4.2-8.9,9-10.7c4.7-1.8,8.4,0,13,0.8c3.6,0.6,6.1-3.2,3.6-6.1
			c-4.8-5.6-14.1-3.9-19.9-0.9c-6.3,3.3-10.5,9.1-11.1,16.2C1629.1,1011.5,1634.3,1012.3,1634.9,1009.2z"/>
		<path class="st7" d="M1871.9,1471.9c-0.9,5-4.2,8.9-9,10.7c-4.7,1.8-8.4,0-13-0.8c-3.6-0.6-6.1,3.2-3.6,6.1
			c4.8,5.6,14.1,3.9,19.9,0.9c6.3-3.3,10.5-9.1,11.1-16.2C1877.7,1469.5,1872.5,1468.8,1871.9,1471.9z"/>
		<path class="st8" d="M1551.5,1428.7c10.4-1.8,18,3.8,24.2,11.4c2.3,2.9,7.3-0.2,6.2-3.6c-4.3-12.7-19.9-18.5-32.2-14.7
			C1545.2,1423.2,1547,1429.5,1551.5,1428.7z"/>
		<path class="st8" d="M1955.3,1052.4c-10.4,1.8-18-3.8-24.2-11.4c-2.3-2.9-7.3,0.2-6.2,3.6c4.3,12.7,19.9,18.5,32.2,14.7
			C1961.6,1057.8,1959.7,1051.6,1955.3,1052.4z"/>
		<path class="st8" d="M1605.8,1200.6c-18.7,15.4-2.6,41.6,17,46.8c3,0.8,5.1-2.9,3-5.1c-4.6-4.9-10.9-7.5-15.5-12.5
			c-6.8-7.4-7.9-18-1.3-26C1611,1201.6,1608.1,1198.7,1605.8,1200.6z"/>
		<path class="st8" d="M1901,1280.5c18.7-15.4,2.6-41.6-17-46.8c-3-0.8-5.1,2.9-3,5.1c4.6,4.9,10.9,7.5,15.5,12.5
			c6.8,7.4,7.9,17.9,1.3,26C1895.8,1279.5,1898.7,1282.3,1901,1280.5z"/>
		<path class="st8" d="M1628.3,1141.5c1-5,3.6-11.4,9.1-12.7c5.3-1.3,8.4,3.7,8,8.3c-0.2,2.5,3.6,4.2,5.2,2.2
			c6.1-7.4-2.1-16.9-10.2-17.7c-10.2-1-16.6,9.5-18,18.3C1622,1143.6,1627.6,1145.3,1628.3,1141.5z"/>
		<path class="st8" d="M1878.4,1339.6c-1,5-3.6,11.4-9.1,12.7c-5.3,1.3-8.4-3.7-8-8.3c0.2-2.5-3.6-4.2-5.2-2.2
			c-6.1,7.4,2.1,16.9,10.2,17.6c10.3,1,16.7-9.5,18-18.3C1884.8,1337.5,1879.2,1335.7,1878.4,1339.6z"/>
		<path class="st8" d="M1905.1,1111.7l-0.3,0.6c-0.8,0.3-1.6,0.7-2.4,1c3.3-0.4,3.6,14.1,3.7,16.3c0,3.9,5.6,4.6,6.7,0.9
			c2.1-6.6,1.1-16-3.5-21.5c-3.2-3.8-11.5-4-10.2,2.7C1899.7,1114.9,1904.2,1114.5,1905.1,1111.7z"/>
		<path class="st8" d="M1601.7,1369.3l0.3-0.6c0.8-0.3,1.6-0.7,2.4-1c-3.3,0.4-3.6-14.1-3.7-16.3c0-3.9-5.6-4.6-6.7-0.9
			c-2.1,6.6-1.1,16,3.5,21.5c3.2,3.8,11.5,4,10.2-2.7C1607.1,1366.1,1602.6,1366.6,1601.7,1369.3z"/>
		<path class="st8" d="M1755.8,1499.3c-4,9.5,3.5,19.2,12.2,22.7c11.8,4.7,23.7-1.4,33.3-8c4.7-3.2,0.7-9.9-4.4-7.6
			c-9.5,4.3-34.2,14.2-32.8-6C1764.5,1495.3,1757.5,1495.3,1755.8,1499.3z"/>
		<path class="st8" d="M1751,981.7c4-9.5-3.5-19.2-12.2-22.7c-11.7-4.7-23.7,1.4-33.3,8c-4.7,3.2-0.7,9.9,4.4,7.6
			c9.5-4.3,34.2-14.2,32.8,6C1742.3,985.8,1749.3,985.7,1751,981.7z"/>
		<path class="st8" d="M1484.2,1203.9c-4.4-13.2,0.3-27.8,12-35.6c2.6-1.7,1-6.7-2.3-5.4c-17,6.8-24.6,27.3-15.8,43.5
			C1479.8,1209.7,1485.4,1207.5,1484.2,1203.9z"/>
		<path class="st8" d="M2022.6,1277.2c4.4,13.1-0.3,27.8-12,35.6c-2.6,1.7-1,6.7,2.3,5.4c17-6.8,24.6-27.3,15.8-43.5
			C2026.9,1271.3,2021.4,1273.5,2022.6,1277.2z"/>
		<path class="st8" d="M1532.2,1112.5c-0.9-10.8,3.1-19,8.4-28c1.9-3.1-2.2-5.8-4.8-3.7c-9.1,7.5-12,20.4-10.7,31.7
			C1525.7,1116.9,1532.6,1117.1,1532.2,1112.5z"/>
		<path class="st8" d="M1974.6,1368.5c0.9,10.7-3.1,19-8.4,28c-1.9,3.1,2.2,5.8,4.8,3.7c9.1-7.5,12-20.4,10.7-31.7
			C1981.1,1364.1,1974.2,1364,1974.6,1368.5z"/>
		<path class="st8" d="M1706.7,1032.7c1.3-5.4,5.2-9.4,10.5-11.3c5.2-1.8,9.4-0.3,14.5,0.9c3.6,0.9,6.1-3.5,3.6-6.2
			c-11.3-11.9-32.6,1.1-35,14.8C1699.5,1035.1,1705.7,1036.9,1706.7,1032.7z"/>
		<path class="st8" d="M1800.1,1448.4c-1.3,5.5-5.2,9.4-10.5,11.3c-5.2,1.8-9.4,0.3-14.5-0.9c-3.6-0.9-6.1,3.5-3.6,6.1
			c11.3,11.9,32.6-1.1,35-14.8C1807.2,1446,1801.1,1444.1,1800.1,1448.4z"/>
		<path class="st8" d="M1604.5,1332.6c-6.2,6.7-6.4,16.3-1.7,23.9c5.3,8.5,14.9,12.9,24.3,14.8c4.8,1,8.4-5.8,3.5-8.4
			c-8.4-4.4-29-12.2-19.7-25.3C1613.8,1333.8,1607.7,1329.2,1604.5,1332.6z"/>
		<path class="st8" d="M1902.3,1148.4c6.2-6.6,6.4-16.3,1.7-23.9c-5.3-8.5-14.9-12.9-24.3-14.8c-4.8-1-8.4,5.8-3.5,8.4
			c8.4,4.5,29,12.2,19.7,25.3C1893,1147.2,1899.1,1151.8,1902.3,1148.4z"/>
		<path class="st8" d="M1948.4,1103.7c7.2-0.9,13.2,2.9,18,7.9c2.1,2.2,5.9-0.1,5.1-2.9c-3.1-10.3-14.2-14.3-24.1-12.4
			C1943.3,1097.1,1944.1,1104.2,1948.4,1103.7z"/>
		<path class="st8" d="M1558.4,1377.4c-7.2,0.9-13.2-2.9-18-7.9c-2.1-2.2-5.9,0-5.1,2.9c3.1,10.3,14.2,14.3,24.1,12.4
			C1563.5,1384,1562.6,1376.9,1558.4,1377.4z"/>
		<path class="st6" d="M1824.2,1053.6c5.5-4.7,13.3-2.9,18.6,1.3c3.5,2.8,9.3-0.7,6.6-5.1c-6.7-11.1-22.7-10.9-31.7-2.7
			C1813.3,1051.2,1819.8,1057.4,1824.2,1053.6z"/>
		<path class="st6" d="M1682.6,1427.4c-5.5,4.7-13.3,2.9-18.6-1.3c-3.5-2.8-9.3,0.7-6.6,5.1c6.7,11.1,22.7,10.9,31.7,2.7
			C1693.4,1429.9,1687,1423.6,1682.6,1427.4z"/>
		<path class="st5" d="M1982.8,1022.7c1.9-2.7,4.7-4.6,7.9-5.5c3-0.8,6.1,0,9-1.4c1.9-0.9,1.9-3.5,0.6-4.9
			c-3.1-3.5-9.4-2.4-13.3-0.9c-4.6,1.7-8.3,4.7-11,8.7C1973.2,1023,1979.9,1026.8,1982.8,1022.7z"/>
		<path class="st5" d="M1524,1458.3c-1.9,2.7-4.7,4.6-7.9,5.5c-3,0.8-6.1,0-9,1.4c-1.9,0.9-1.9,3.5-0.6,4.9
			c3.1,3.5,9.4,2.4,13.3,0.9c4.6-1.7,8.3-4.7,11-8.7C1533.6,1458.1,1526.9,1454.3,1524,1458.3z"/>
		<path class="st5" d="M2013.2,1043.3c1.6-0.5,2.2,0.6,3.8,1c2.7,0.7,5.3-1.5,4.8-4.2c-0.8-5.2-7.9-5.3-11.6-3.6
			C2006.5,1038.2,2009.2,1044.7,2013.2,1043.3z"/>
		<path class="st5" d="M1493.5,1437.7c-1.6,0.5-2.2-0.6-3.8-1c-2.7-0.7-5.3,1.5-4.8,4.3c0.8,5.2,7.9,5.3,11.6,3.6
			C1500.3,1442.9,1497.6,1436.4,1493.5,1437.7z"/>
		<path class="st5" d="M2040.1,1070.6c6,0,6-9.4,0-9.4C2034.1,1061.2,2034.1,1070.6,2040.1,1070.6z"/>
		<path class="st5" d="M1466.7,1410.5c-6,0-6,9.4,0,9.4C1472.7,1419.8,1472.7,1410.5,1466.7,1410.5z"/>
		<path class="st6" d="M1453.8,1222.7c-7,5-7.8,18.3-3.2,25.1c4.5,6.7,14.4,9.1,20.2,2.6c3.2-3.6-0.8-8.1-4.9-6.3
			c-2.8,1.2-6.5-2.6-7.1-4.9c-1.4-4.8,1.7-9.4,0.7-14.2C1459,1222.7,1455.8,1221.3,1453.8,1222.7z"/>
		<path class="st6" d="M2052.9,1258.4c7-5,7.8-18.3,3.2-25.1c-4.5-6.7-14.4-9.1-20.2-2.6c-3.2,3.6,0.8,8.1,4.9,6.3
			c2.8-1.2,6.5,2.6,7.1,4.9c1.4,4.8-1.7,9.4-0.7,14.2C2047.8,1258.4,2051,1259.8,2052.9,1258.4z"/>
		<path class="st6" d="M1538.5,1221.2c1.1,0.6,2.3,1.2,3.4,1.7c1.4,0.7,2.7,0.9,4.3,1.1c2,0.3,4-0.2,5.1-2.1c1-1.7,0.7-4-0.7-5.5
			c-1-1-2-2.1-3.3-2.8c-1.1-0.6-2.3-1.1-3.4-1.7c-2.6-1.3-5.8-0.7-7.3,1.9C1535.2,1216.3,1535.9,1219.9,1538.5,1221.2z"/>
		<path class="st6" d="M1968.3,1259.9c-1.1-0.6-2.2-1.2-3.4-1.7c-1.4-0.7-2.7-0.9-4.3-1.1c-2-0.3-4,0.2-5.1,2.1
			c-1,1.7-0.7,4,0.7,5.5c1,1,2,2.1,3.3,2.8c1.1,0.6,2.3,1.1,3.4,1.7c2.6,1.3,5.8,0.7,7.3-1.9
			C1971.6,1264.8,1970.9,1261.2,1968.3,1259.9z"/>
		<path class="st6" d="M1723.7,1377.6c-5.8,10.7,4.3,27.5,17,21.6c3.4-1.6,2.4-7-1-7.9c-3.2-0.8-9.1-4.3-7.1-8.5
			C1735.3,1376.9,1726.9,1371.7,1723.7,1377.6z"/>
		<path class="st6" d="M1783,1103.5c5.8-10.7-4.3-27.5-17-21.6c-3.4,1.6-2.4,7,1,7.9c3.2,0.8,9.1,4.3,7.1,8.5
			C1771.4,1104.2,1779.9,1109.3,1783,1103.5z"/>
		<path class="st6" d="M1761.9,1417.5c1.1,0.1,2.2,0.1,3.3,0c1.6-0.1,3.6-0.8,4.3-2.5c0.8-1.9,0.8-3.2,0-5c-0.7-1.6-2.7-2.4-4.3-2.5
			c-1.1-0.1-2.2,0-3.3,0c-2.7,0.1-5,2.2-5,5C1756.9,1415.3,1759.2,1417.4,1761.9,1417.5z"/>
		<path class="st6" d="M1744.9,1063.5c-1.1,0-2.2-0.1-3.3,0c-1.6,0.1-3.6,0.8-4.3,2.5c-0.8,1.8-0.8,3.2,0,5c0.7,1.6,2.7,2.4,4.3,2.5
			c1.1,0.1,2.2,0,3.3,0c2.7-0.1,5-2.2,5-5C1749.9,1065.7,1747.6,1063.6,1744.9,1063.5z"/>
		<path class="st6" d="M1689.5,1499.2c0.5,3.1,2.1,6.1,4.3,8.3c2.3,2.4,5.8,3.2,9,3.1c2.9-0.1,4.5-4.4,1.6-5.8
			c-1.8-0.8-2.9-2.2-4.3-3.5c-1.3-1.3-2-2.6-2.3-4.4c-0.4-2.2-3.1-3.5-5.2-3C1690.1,1494.6,1689.2,1496.9,1689.5,1499.2z"/>
		<path class="st6" d="M1817.3,981.9c-0.5-3.1-2.1-6.1-4.3-8.3c-2.3-2.4-5.8-3.2-9-3.1c-2.9,0.1-4.5,4.4-1.6,5.8
			c1.8,0.9,2.9,2.2,4.3,3.5c1.3,1.2,1.9,2.6,2.3,4.4c0.4,2.3,3.1,3.5,5.2,3C1816.7,986.5,1817.6,984.2,1817.3,981.9z"/>
		<path class="st6" d="M1570.7,1054.3c0.6-4,2.4-7.4,5.6-10c3.4-2.7,6.9-2.5,10.8-3.8c3-1,2.7-4.7,0-5.8c-5-2-11.3,1.4-15.1,4.6
			c-4.3,3.6-6.7,8.7-7.3,14.2C1564.3,1056.9,1570.2,1057.7,1570.7,1054.3z"/>
		<path class="st6" d="M1936.1,1426.8c-0.6,4-2.4,7.4-5.6,10c-3.4,2.7-6.9,2.5-10.8,3.8c-3,1-2.7,4.7,0,5.8c5,2,11.3-1.4,15.1-4.6
			c4.3-3.6,6.7-8.7,7.3-14.2C1942.5,1424.2,1936.6,1423.3,1936.1,1426.8z"/>
		<path class="st6" d="M1618.4,1059.2c0.6-0.8,1.2-1.5,1.8-2.3c3.1-4.7-3.1-10.9-7.8-7.8c-0.8,0.5-1.6,1.1-2.3,1.8
			c-2.4,2-2.2,6.3,0,8.3C1612.2,1061.2,1616.3,1061.7,1618.4,1059.2z"/>
		<path class="st6" d="M1888.4,1421.9c-0.6,0.7-1.2,1.5-1.8,2.3c-3.1,4.7,3.1,10.9,7.8,7.8c0.8-0.5,1.6-1.1,2.3-1.8
			c2.4-2,2.2-6.3,0-8.3C1894.6,1419.9,1890.5,1419.3,1888.4,1421.9z"/>
		<path class="st5" d="M1578.9,965.9c6,1.8,13.1,2.5,18.5-0.9c3.1-2,1.8-6.7-1.9-6.9c-4.9-0.2-9.5,0.7-14.4-0.6
			C1575.8,956.1,1573.5,964.3,1578.9,965.9z"/>
		<path class="st5" d="M1927.9,1515.2c-6-1.7-13.1-2.5-18.5,0.9c-3.1,2-1.8,6.7,1.9,6.9c4.9,0.2,9.5-0.7,14.4,0.6
			C1931,1524.9,1933.3,1516.8,1927.9,1515.2z"/>
		<path class="st5" d="M1626.9,955.7c1.7-1.7,2.7-3.2,3.7-5.4c1.1-2.7-2.3-6.1-5-5c-2.2,0.9-3.7,1.9-5.4,3.7
			C1616,953.5,1622.5,960,1626.9,955.7z"/>
		<path class="st5" d="M1879.9,1525.3c-1.7,1.7-2.7,3.2-3.6,5.4c-1.1,2.7,2.3,6.1,5,4.9c2.2-0.9,3.7-1.9,5.4-3.6
			C1890.8,1527.6,1884.3,1521.1,1879.9,1525.3z"/>
		<path class="st5" d="M1867,1555c-0.2-0.8,0.2-2,0.3-2.3c0.5-1,1.2-2,1.8-2.5c1.9-1.4,1.8-4.4-0.7-5.1c-3.7-1.2-7,1.2-8.3,4.6
			c-1.3,3.3-0.2,6.7,2.6,8.7C1864.9,1559.9,1867.5,1557.3,1867,1555z"/>
		<path class="st5" d="M1639.8,926c0.2,0.8-0.2,2-0.3,2.3c-0.5,1-1.2,2-1.8,2.5c-1.9,1.4-1.8,4.4,0.7,5.1c3.7,1.2,7-1.2,8.3-4.6
			c1.3-3.3,0.2-6.6-2.6-8.7C1641.9,921.2,1639.3,923.7,1639.8,926z"/>
		<path class="st5" d="M1436.4,1078.2c4.1-6.6,9.3-12.4,13.5-18.9c1.2-1.9-1.3-4.6-3.2-3.2c-6.8,4.9-11.3,12-15.3,19.2
			C1429.5,1078.6,1434.4,1081.4,1436.4,1078.2z"/>
		<path class="st5" d="M2070.4,1402.8c-4.1,6.6-9.3,12.4-13.5,18.9c-1.2,1.9,1.3,4.6,3.2,3.2c6.8-4.9,11.3-12,15.3-19.2
			C2077.2,1402.5,2072.4,1399.6,2070.4,1402.8z"/>
		<path class="st8" d="M1490.9,1005.9c3.5-0.8,6-2.9,9.8-2.3c3.6,0.5,6.1,3.6,9.7,3.6c2.1,0,3.8-1.8,3.8-3.8
			c0.3-11.8-23.7-12.3-27.7-3C1485.4,1003.3,1487.5,1006.6,1490.9,1005.9z"/>
		<path class="st8" d="M2015.9,1475.2c-3.5,0.8-6,2.9-9.8,2.3c-3.6-0.5-6.1-3.6-9.7-3.6c-2.1,0-3.8,1.8-3.8,3.8
			c-0.3,11.8,23.7,12.3,27.7,3C2021.4,1477.8,2019.3,1474.4,2015.9,1475.2z"/>
		<path class="st8" d="M1523.4,977.6c2.9-0.8,5.7-1.6,8.6-2.4c3-0.8,5.6-1.2,7.5-3.9c1.4-2-0.1-4.6-2.1-5.3c-2.8-0.9-5.4,0.6-8,1.6
			c-2.6,1-5.3,2-7.9,3C1517.2,972.2,1518.8,978.9,1523.4,977.6z"/>
		<path class="st8" d="M1983.4,1503.5c-2.9,0.8-5.7,1.6-8.6,2.4c-3,0.8-5.6,1.2-7.5,3.9c-1.4,2,0.1,4.6,2.1,5.3
			c2.8,0.9,5.4-0.6,8-1.6c2.6-1,5.3-2,7.9-3C1989.6,1508.9,1988,1502.2,1983.4,1503.5z"/>
		<path class="st8" d="M1556.3,938.1c1.5-0.3,3.1-0.5,4.6-0.8c1.9-0.4,3.1-1.1,4.6-2.3c2.2-1.9,0.8-5.3-1.6-6.1
			c-3.2-1-6.7,0.1-9.9,0.9c-2.3,0.5-3.6,3.1-3,5.3C1551.7,937.5,1554,938.5,1556.3,938.1z"/>
		<path class="st8" d="M1950.5,1543c-1.5,0.3-3.1,0.5-4.6,0.8c-1.9,0.5-3.1,1.1-4.6,2.3c-2.2,1.9-0.8,5.3,1.6,6.1
			c3.2,1,6.7-0.1,9.9-0.9c2.3-0.5,3.6-3.1,3-5.3C1955.1,1543.6,1952.8,1542.6,1950.5,1543z"/>
		<path class="st8" d="M1852.1,920.8c1.6,1.2,3,2.8,4.1,4.5c1.2,2,1.8,4.3,3.4,6.1c2.4,2.6,7.2,0.6,7-2.9c-0.2-5.7-6.5-11-11.2-13.5
			C1851.6,912.9,1848.8,918.2,1852.1,920.8z"/>
		<path class="st8" d="M1654.7,1560.3c-1.6-1.2-3-2.8-4.1-4.5c-1.2-2-1.8-4.3-3.4-6.1c-2.4-2.6-7.2-0.6-7,2.9
			c0.2,5.7,6.5,11,11.2,13.5C1655.2,1568.1,1658,1562.8,1654.7,1560.3z"/>
		<path class="st8" d="M1883.1,933.8c1.1,1,2,2.1,2.8,3.3c0.4,0.6,0.7,1.4,1.1,2c0.5,1,1.3,1.6,2.3,2.3c1.5,1.1,3.9,0.3,4.8-1.3
			c2.8-4.9-1.9-10.5-5.6-13.3c-1.7-1.3-4.6-0.4-5.7,1.1C1881.5,929.7,1881.3,932.4,1883.1,933.8z"/>
		<path class="st8" d="M1623.7,1547.2c-1.1-1-2-2-2.8-3.3c-0.4-0.6-0.7-1.3-1.1-2c-0.5-1-1.3-1.6-2.3-2.3c-1.5-1.1-3.9-0.3-4.8,1.3
			c-2.8,4.9,1.9,10.5,5.6,13.3c1.7,1.3,4.5,0.4,5.7-1.1C1625.3,1551.4,1625.4,1548.7,1623.7,1547.2z"/>
		<path class="st8" d="M1909.5,947.5c0.8,2.5,1.5,4.5,3.4,6.3c2,2,6.6,1.4,7-1.8c0.2-1.3,0.4-2.5,0.2-3.8c-0.2-1.1-0.6-2.2-1-3.3
			c-0.9-2.5-3.4-4.2-6.1-3.5C1910.5,942,1908.7,944.9,1909.5,947.5z"/>
		<path class="st8" d="M1597.3,1533.6c-0.8-2.5-1.5-4.5-3.4-6.3c-2-2-6.6-1.4-7,1.9c-0.2,1.3-0.4,2.5-0.2,3.8c0.2,1.1,0.6,2.2,1,3.3
			c0.9,2.5,3.4,4.2,6.1,3.5C1596.3,1539,1598.1,1536.1,1597.3,1533.6z"/>
		<path class="st8" d="M1725.9,930.3c4.7,1.7,10.2,0.6,13.7-2.9c2.7-2.7,6.5-10.9,1.5-13.2c-1.3-0.6-2.5-0.4-3.6,0.5
			c-2.2,1.7-1.1,5.1-2.8,7.3c-1.7,2.2-4.5,2.5-6.9,1.7C1723.5,922.2,1721.8,928.8,1725.9,930.3z"/>
		<path class="st8" d="M1780.9,1550.8c-4.7-1.7-10.2-0.6-13.7,2.9c-2.7,2.7-6.5,10.9-1.5,13.2c1.3,0.6,2.5,0.4,3.6-0.5
			c2.2-1.7,1.1-5.1,2.8-7.3c1.7-2.2,4.5-2.5,7-1.7C1783.3,1558.9,1785,1552.3,1780.9,1550.8z"/>
		<path class="st5" d="M1408.2,1169.2c-0.5-4.2,0.2-8.1,2.3-11.8c2.1-3.7,5.4-5.4,8.2-8.3c2.8-3.1,0-7.9-4-6.9
			c-11.1,2.6-14.9,18.4-12.2,27.9C1403.4,1173,1408.6,1172.6,1408.2,1169.2z"/>
		<path class="st5" d="M2098.6,1311.8c0.5,4.2-0.2,8.1-2.3,11.8c-2.1,3.7-5.4,5.3-8.2,8.3c-2.8,3.1,0,7.9,4,6.9
			c11.1-2.6,14.9-18.4,12.2-27.9C2103.4,1308,2098.2,1308.5,2098.6,1311.8z"/>
		<path class="st5" d="M1425.8,1124c-0.6-3.3,0.7-6,1.1-9.2c0.2-1.8-1.5-3.6-3.1-4.1c-1.9-0.5-3.7,0.4-4.8,1.9
			c-2.4,3.6-1.8,9.4-0.4,13.3C1420.2,1130.5,1426.7,1128.7,1425.8,1124z"/>
		<path class="st5" d="M2081,1357.1c0.6,3.3-0.7,6-1.1,9.2c-0.2,1.8,1.5,3.6,3.1,4.1c1.9,0.5,3.7-0.4,4.8-1.9
			c2.4-3.6,1.8-9.4,0.4-13.3C2086.6,1350.5,2080.1,1352.4,2081,1357.1z"/>
		<path class="st5" d="M1436.2,1104.3c5.5,0,5.5-8.5,0-8.5S1430.7,1104.3,1436.2,1104.3z"/>
		<path class="st5" d="M2070.6,1376.7c-5.5,0-5.5,8.5,0,8.5C2076,1385.2,2076.1,1376.7,2070.6,1376.7z"/>
		<path class="st5" d="M1542.9,1517c-2.2,6.1-0.6,15.4,6.6,17.3c3,0.8,5.1-1.9,4.6-4.6c-0.6-4-2.8-7.2-2.4-11.4
			c0.2-2.2-1.9-4.2-3.9-4.4C1545.5,1513.5,1543.7,1514.9,1542.9,1517z"/>
		<path class="st5" d="M1963.9,964c2.2-6.1,0.6-15.4-6.6-17.3c-3-0.8-5.1,1.8-4.6,4.6c0.6,4,2.8,7.2,2.4,11.4
			c-0.2,2.2,1.9,4.2,3.9,4.4C1961.3,967.5,1963.1,966.2,1963.9,964z"/>
		<path class="st5" d="M1565.1,1531.8c0.6,3.6,3,6,6.7,6.4c3.1,0.3,4.4-3.4,3.3-5.7c-0.4-0.7-1.4-2.2-1.7-3c-0.6-2.2-3-3.6-5.3-3
			C1565.6,1527.2,1564.7,1529.5,1565.1,1531.8z"/>
		<path class="st5" d="M1941.7,949.2c-0.6-3.6-3-6-6.7-6.4c-3.1-0.3-4.4,3.4-3.3,5.7c0.3,0.7,1.4,2.1,1.7,3c0.6,2.2,3,3.6,5.3,3
			C1941.2,953.8,1942.1,951.5,1941.7,949.2z"/>
		<path class="st5" d="M1584.7,1539.8l0.8,0c1.5,0.1,3-1.4,2.9-2.9l0-0.8c-0.2-3.1-3.9-4.9-6.3-2.6
			C1579.7,1535.9,1581.5,1539.7,1584.7,1539.8z"/>
		<path class="st5" d="M1922.1,941.2l-0.8,0c-1.5-0.1-3,1.4-2.9,2.9l0,0.8c0.2,3.1,3.9,4.9,6.3,2.6
			C1927.1,945.2,1925.3,941.4,1922.1,941.2z"/>
		<path class="st5" d="M1934.4,1524.1c3.6,0.5,7.6,1.5,10.8-0.8c1.6-1.1,2.1-3.3,0.6-4.8c-3-3.1-7.5-2.7-11.5-2.9
			c-2.3-0.1-4.2,2-4.2,4.2C1930.2,1522.4,1932.1,1523.8,1934.4,1524.1z"/>
		<path class="st5" d="M1572.4,957c-3.6-0.4-7.6-1.5-10.8,0.8c-1.6,1.1-2.1,3.3-0.6,4.8c3,3.1,7.5,2.7,11.5,2.9
			c2.3,0.1,4.2-2,4.2-4.2C1576.6,958.7,1574.6,957.3,1572.4,957z"/>
		<path class="st5" d="M1961.1,1509.5c2.4-1.2,4.3-3.8,3.1-6.6c-1.3-3-4.2-3.1-7-2.7c-3,0.5-4.3,4.3-3.3,6.8
			C1955.2,1510,1958.4,1510.9,1961.1,1509.5z"/>
		<path class="st5" d="M1545.7,971.5c-2.4,1.2-4.2,3.8-3.1,6.6c1.3,3,4.2,3.1,7,2.7c3-0.5,4.3-4.3,3.3-6.8
			C1551.6,971,1548.4,970.2,1545.7,971.5z"/>
		<path class="st9" d="M1415.6,1300.1c2.2,0.6,4.2,2,6.4,2.3c1.8,0.3,3.6,0,4.8-1.6c1-1.4,1.4-3.6,0.4-5.1
			c-2.3-3.3-6.4-4.5-10.3-4.3C1411.9,1291.7,1410.6,1298.8,1415.6,1300.1z"/>
		<path class="st5" d="M2091.2,1180.9c-2.1-0.6-4.2-2-6.4-2.3c-1.8-0.3-3.6,0-4.8,1.6c-1,1.3-1.4,3.6-0.4,5.1
			c2.3,3.3,6.4,4.5,10.3,4.3C2094.9,1189.4,2096.2,1182.3,2091.2,1180.9z"/>
		<path class="st9" d="M1417.8,1323.1c1.1,0.4,2.2,0.9,3.3,1.4c1.5,0.6,2.9,0.4,4.5,0.2c2.5-0.3,3.8-4,2.4-6c-0.9-1.3-1.7-2.3-3.2-3
			c-1.1-0.5-2.2-1-3.3-1.5c-2.7-1.2-5.7-0.6-6.9,2.3C1413.4,1319.5,1415.1,1322,1417.8,1323.1z"/>
		<path class="st5" d="M2088.9,1157.9c-1.1-0.4-2.2-0.9-3.3-1.4c-1.5-0.6-2.9-0.4-4.5-0.2c-2.5,0.3-3.8,4-2.4,6
			c0.9,1.3,1.8,2.3,3.2,3c1.1,0.5,2.2,1,3.3,1.5c2.7,1.2,5.7,0.6,6.9-2.3C2093.4,1161.6,2091.7,1159,2088.9,1157.9z"/>
	</g>
</g>
</svg>
