<svg xmlns="http://www.w3.org/2000/svg" width="20.683" height="20.684" viewBox="0 0 20.683 20.684"><path d="M20.4,17.2,17.48,20.092a2.11,2.11,0,0,1-1.556.592,13.487,13.487,0,0,1-6.687-2.52A25.794,25.794,0,0,1,1.431,9.65,11.017,11.017,0,0,1,.005,4.8,2.123,2.123,0,0,1,.6,3.218L3.513.3A.965.965,0,0,1,5.092.566L7.438,5.015a1.292,1.292,0,0,1-.263,1.469L6.1,7.557a.53.53,0,0,0-.11.307A9.159,9.159,0,0,0,8.753,11.94c1.1,1.012,2.288,2.382,3.826,2.707a.606.606,0,0,0,.559-.055l1.25-1.271A1.427,1.427,0,0,1,15.9,13.1h.022l4.232,2.5a1.018,1.018,0,0,1,.241,1.6Z" transform="translate(0 0)" fill="#d80019"/></svg>