<svg width="22" height="22" viewBox="0 0 22 22" fill="none" xmlns="http://www.w3.org/2000/svg">
<path d="M4.25841 3.08333V3.425H3.08333C1.8936 3.425 0.925 4.39273 0.925 5.58333V16.4167C0.925 17.6073 1.8936 18.575 3.08333 18.575H8.91667C9.18809 18.575 9.40833 18.3548 9.40833 18.0833C9.40833 17.8119 9.18809 17.5917 8.91667 17.5917H3.08333C2.43559 17.5917 1.90833 17.0644 1.90833 16.4167V5.58333C1.90833 4.93559 2.43559 4.40833 3.08333 4.40833H4.25841V4.75C4.25841 5.48059 4.85282 6.075 5.58341 6.075H10.5834C11.314 6.075 11.9084 5.48059 11.9084 4.75V4.40833H13.0833C13.7311 4.40833 14.2583 4.93559 14.2583 5.58333V8.08333C14.2583 8.35475 14.4786 8.575 14.75 8.575C15.0214 8.575 15.2417 8.35475 15.2417 8.08333V5.58333C15.2417 4.39273 14.2731 3.425 13.0833 3.425H11.9084V3.08333C11.9084 2.81191 11.6882 2.59167 11.4167 2.59167H10.1854C9.96177 1.63752 9.10521 0.925 8.08341 0.925C7.0616 0.925 6.20504 1.63752 5.98141 2.59167H4.75007C4.47865 2.59167 4.25841 2.81191 4.25841 3.08333ZM10.9251 3.575V3.9086C10.925 3.91129 10.925 3.91397 10.925 3.91667C10.925 3.91936 10.925 3.92205 10.9251 3.92473V4.75C10.9251 4.93784 10.7719 5.09167 10.5834 5.09167H5.58341C5.39493 5.09167 5.24174 4.93784 5.24174 4.75V3.575H6.41674C6.68816 3.575 6.90841 3.35475 6.90841 3.08333C6.90841 2.43559 7.43566 1.90833 8.08341 1.90833C8.73115 1.90833 9.25841 2.43559 9.25841 3.08333C9.25841 3.35475 9.47865 3.575 9.75007 3.575H10.9251ZM10.0917 15.5835C10.0917 18.6116 12.5553 21.0752 15.5834 21.0752C18.6115 21.0752 21.075 18.6116 21.075 15.5835C21.075 12.5554 18.6115 10.0918 15.5834 10.0918C12.5553 10.0918 10.0917 12.5554 10.0917 15.5835ZM11.075 15.5835C11.075 13.0982 13.0973 11.0752 15.5834 11.0752C18.0695 11.0752 20.0917 13.0982 20.0917 15.5835C20.0917 18.0687 18.0695 20.0918 15.5834 20.0918C13.0973 20.0918 11.075 18.0687 11.075 15.5835ZM15.0917 18.0832C15.0917 18.3546 15.3119 18.5749 15.5834 18.5749C15.8548 18.5749 16.075 18.3546 16.075 18.0832V14.7499C16.075 14.4785 15.8548 14.2582 15.5834 14.2582C15.3119 14.2582 15.0917 14.4785 15.0917 14.7499V18.0832ZM15.5834 13.5751C15.8549 13.5751 16.075 13.355 16.075 13.0835C16.075 12.8119 15.8549 12.5918 15.5834 12.5918C15.3118 12.5918 15.0917 12.8119 15.0917 13.0835C15.0917 13.355 15.3118 13.5751 15.5834 13.5751ZM3.91667 8.57514H12.25C12.5214 8.57514 12.7417 8.3549 12.7417 8.08347C12.7417 7.81205 12.5214 7.59181 12.25 7.59181H3.91667C3.64524 7.59181 3.425 7.81205 3.425 8.08347C3.425 8.3549 3.64524 8.57514 3.91667 8.57514ZM3.91667 11.0752H9.75C10.0214 11.0752 10.2417 10.8549 10.2417 10.5835C10.2417 10.3121 10.0214 10.0918 9.75 10.0918H3.91667C3.64525 10.0918 3.425 10.3121 3.425 10.5835C3.425 10.8549 3.64525 11.0752 3.91667 11.0752ZM3.91667 13.5751H8.08333C8.35475 13.5751 8.575 13.3549 8.575 13.0835C8.575 12.812 8.35475 12.5918 8.08333 12.5918H3.91667C3.64525 12.5918 3.425 12.812 3.425 13.0835C3.425 13.3549 3.64525 13.5751 3.91667 13.5751Z" fill="url(#paint0_linear)" stroke="url(#paint1_linear)" stroke-width="0.15"/>
<defs>
<linearGradient id="paint0_linear" x1="1" y1="1" x2="21.0196" y2="1.01955" gradientUnits="userSpaceOnUse">
<stop stop-color="#0DC180"/>
<stop offset="1" stop-color="#04B474"/>
</linearGradient>
<linearGradient id="paint1_linear" x1="1" y1="1" x2="21.0196" y2="1.01955" gradientUnits="userSpaceOnUse">
<stop stop-color="#0DC180"/>
<stop offset="1" stop-color="#04B474"/>
</linearGradient>
</defs>
</svg>
