<svg width="26" height="26" viewBox="0 0 26 26" fill="none" xmlns="http://www.w3.org/2000/svg">
<path d="M5.04637 3.64401V4.06143H3.64401C2.24548 4.06143 1.10688 5.19901 1.10688 6.59855V19.4016C1.10688 20.8011 2.24548 21.9387 3.64401 21.9387H10.5379C10.8512 21.9387 11.1054 21.6845 11.1054 21.3713C11.1054 21.058 10.8512 20.8039 10.5379 20.8039H3.64401C2.87096 20.8039 2.24173 20.1746 2.24173 19.4016V6.59855C2.24173 5.8255 2.87096 5.19628 3.64401 5.19628H5.04637V5.6137C5.04637 6.46959 5.74275 7.16598 6.59864 7.16598H12.5077C13.3636 7.16598 14.06 6.46959 14.06 5.6137V5.19628H15.4622C16.2352 5.19628 16.8645 5.8255 16.8645 6.59855V9.5531C16.8645 9.86634 17.1186 10.1205 17.4319 10.1205C17.7451 10.1205 17.9993 9.86634 17.9993 9.5531V6.59855C17.9993 5.19901 16.8607 4.06143 15.4622 4.06143H14.06V3.64401C14.06 3.33077 13.8058 3.07658 13.4926 3.07658H12.0265C11.7675 1.94969 10.758 1.10688 9.55318 1.10688C8.34833 1.10688 7.33887 1.94969 7.07984 3.07658H5.61379C5.30055 3.07658 5.04637 3.33077 5.04637 3.64401ZM12.9252 4.21143V4.61946C12.9251 4.62259 12.9251 4.62572 12.9251 4.62885C12.9251 4.63199 12.9251 4.63512 12.9252 4.63825V5.6137C12.9252 5.84321 12.738 6.03113 12.5077 6.03113H6.59864C6.36834 6.03113 6.18121 5.84321 6.18121 5.6137V4.21143H7.58349C7.89673 4.21143 8.15091 3.95725 8.15091 3.64401C8.15091 2.87096 8.78014 2.24173 9.55318 2.24173C10.3262 2.24173 10.9555 2.87096 10.9555 3.64401C10.9555 3.95725 11.2096 4.21143 11.5229 4.21143H12.9252ZM11.9403 18.4169C11.9403 21.988 14.8457 24.8934 18.4168 24.8934C21.9879 24.8934 24.8933 21.988 24.8933 18.4169C24.8933 14.8458 21.9879 11.9404 18.4168 11.9404C14.8457 11.9404 11.9403 14.8458 11.9403 18.4169ZM13.0751 18.4169C13.0751 15.4723 15.4712 13.0752 18.4168 13.0752C21.3624 13.0752 23.7585 15.4723 23.7585 18.4169C23.7585 21.3616 21.3624 23.7586 18.4168 23.7586C15.4712 23.7586 13.0751 21.3616 13.0751 18.4169ZM17.8493 21.3711C17.8493 21.6844 18.1035 21.9385 18.4168 21.9385C18.73 21.9385 18.9842 21.6844 18.9842 21.3711V17.4317C18.9842 17.1185 18.73 16.8643 18.4168 16.8643C18.1035 16.8643 17.8493 17.1185 17.8493 17.4317V21.3711ZM18.4168 16.0298C18.7301 16.0298 18.9842 15.7757 18.9842 15.4623C18.9842 15.149 18.7301 14.8949 18.4168 14.8949C18.1034 14.8949 17.8493 15.149 17.8493 15.4623C17.8493 15.7757 18.1034 16.0298 18.4168 16.0298ZM4.62885 10.1207H14.4773C14.7906 10.1207 15.0447 9.8665 15.0447 9.55326C15.0447 9.24002 14.7906 8.98584 14.4773 8.98584H4.62885C4.31561 8.98584 4.06143 9.24002 4.06143 9.55326C4.06143 9.8665 4.31561 10.1207 4.62885 10.1207ZM4.62885 13.0753H11.5228C11.836 13.0753 12.0902 12.8211 12.0902 12.5078C12.0902 12.1946 11.836 11.9404 11.5228 11.9404H4.62885C4.31561 11.9404 4.06143 12.1946 4.06143 12.5078C4.06143 12.8211 4.31561 13.0753 4.62885 13.0753ZM4.62885 16.0298H9.5531C9.86634 16.0298 10.1205 15.7756 10.1205 15.4623C10.1205 15.1491 9.86634 14.8949 9.5531 14.8949H4.62885C4.31562 14.8949 4.06143 15.1491 4.06143 15.4623C4.06143 15.7756 4.31562 16.0298 4.62885 16.0298Z" fill="white" stroke="white" stroke-width="0.15"/>
</svg>
