<svg width="15" height="12" viewBox="0 0 15 12" fill="none" xmlns="http://www.w3.org/2000/svg">
<path d="M14.2 5.9249C14.2 6.3249 14 6.6249 13.8 6.8249C13.8 6.8249 13.7 6.9249 13.6 6.9249L9.00001 11.6249C8.50001 12.1249 7.80001 12.1249 7.30001 11.6249C6.90001 11.1249 6.90001 10.3249 7.40001 9.9249L10.2 7.1249H1.20001C0.500013 7.1249 1.33514e-05 6.6249 1.33514e-05 5.9249C1.33514e-05 5.2249 0.500013 4.7249 1.20001 4.7249H10.1L7.40001 2.0249C6.90001 1.5249 6.90001 0.824902 7.40001 0.324902C7.80001 -0.0750975 8.60001 -0.0750976 9.00001 0.324902L13.5 4.8249C13.9 5.0249 14.2 5.4249 14.2 5.9249Z" fill="white"/>
</svg>
