<svg width="168" height="32" viewBox="0 0 168 32" fill="none" xmlns="http://www.w3.org/2000/svg">
<g id="Vector">
<path fill-rule="evenodd" clip-rule="evenodd" d="M22.8573 21.3302H22.609C14.6731 21.3302 0.000149294 21.3345 0.000149294 21.3345V20.5858C0.000149294 20.5858 15.126 20.5856 23.1682 20.5886C23.2306 20.5979 23.2942 20.5861 23.3494 20.5548C23.4047 20.5235 23.4487 20.4745 23.4747 20.4151C23.7509 19.9041 23.9771 19.3657 24.1498 18.808H0.000149294V18.0637H24.016C24.3411 18.0637 24.3579 18.0672 24.4183 17.727C24.4999 17.3144 24.5478 16.8955 24.5617 16.4746C24.5632 16.3557 24.5268 16.3123 24.4148 16.3262C24.3616 16.3299 24.3084 16.3302 24.2552 16.3273C15.7733 16.3273 0.000151413 16.3322 0.000151413 16.3322V15.5832H24.3183C24.5717 15.5832 24.5847 15.5815 24.5563 15.3295C24.5175 14.8715 24.4526 14.4163 24.3621 13.9662C24.334 13.8447 24.2867 13.7867 24.1635 13.8043C24.1171 13.8079 24.0705 13.8083 24.0241 13.8052C15.6156 13.8052 0.000151413 13.8104 0.000151413 13.8104V13.0611H24.0985C24.0393 12.804 23.9514 12.5549 23.8368 12.3188C23.723 12.0468 23.5783 11.789 23.4563 11.5206C23.4331 11.4555 23.3894 11.4003 23.3322 11.364C23.2751 11.3276 23.2078 11.3122 23.1412 11.3201C15.0324 11.3253 0.00015777 11.2948 0.00015777 11.2948V10.6106C0.00015777 10.6106 14.7201 10.5805 22.5759 10.5805H22.8284C22.7334 10.3743 22.6023 10.1881 22.4418 10.0314C22.0989 9.6048 21.7211 9.20965 21.3125 8.85033C21.2959 8.83401 21.2763 8.82132 21.2548 8.81303C21.2334 8.80473 21.2106 8.80099 21.1877 8.80203C21.1347 8.80493 21.0812 8.80267 21.028 8.80267C13.6182 8.80267 0.000159889 8.8076 0.000159889 8.8076V8.05847C0.000159889 8.05847 13.0451 8.05836 20.0556 8.05836H20.304C20.0833 7.85703 19.8429 7.68014 19.5867 7.53058C18.9033 7.09575 18.1959 6.70264 17.4682 6.35326C17.3879 6.32238 17.3015 6.31209 17.2166 6.32328C11.7242 6.32201 12.9025 6.3219 0.000159889 6.3219V5.54781C0.000159889 5.54781 9.83306 5.57768 15.2389 5.57768H15.4645C15.467 5.55991 15.4698 5.54223 15.4726 5.52445C15.1625 5.41778 14.8542 5.30492 14.5421 5.20562C13.3862 4.8371 12.2124 4.53146 11.0256 4.28995C10.2509 4.13284 10.3205 4.12589 9.53939 4.00828C9.36039 3.9813 8.3384 3.84251 8.16105 3.8424C5.03871 3.8408 3.3663 3.80897 0.243943 3.81744C0.0333682 3.81788 -0.00274115 3.75425 0.000162008 3.55538C0.0112449 2.77004 0.00957079 1.98427 0.000670591 1.19893C-0.00108826 1.03283 0.0464218 0.993524 0.201412 0.99416C1.59953 1.00017 37.0321 1.0264 42.9506 1.02737C43.2039 1.02737 43.2041 1.02748 43.2041 1.29458C43.2041 3.6856 43.2037 6.44323 43.2037 6.44323H31.9637V12.7674H43.2037V17.8487H31.9637V25.4521H43.2037C43.2037 25.4521 43.2022 28.237 43.2079 30.5522C43.2084 30.7375 43.1665 30.8255 42.9782 30.7911C42.9649 30.7899 42.9515 30.7898 42.9382 30.7908C28.2319 30.7932 14.9756 30.766 0.269181 30.7684C0.00482404 30.7684 0.00482402 30.7684 0.00471806 30.497C0.00471806 29.7599 0.0114356 29.0222 0.000162008 28.2854C-0.00284711 28.0927 0.0346185 28.0342 0.234216 28.0342C3.52958 28.0417 5.3751 28.0699 8.67065 28.0687C9.11567 28.0468 9.55822 27.9873 9.99386 27.8907C10.5843 27.7898 11.1721 27.672 11.7575 27.5375C12.4116 27.3863 13.0621 27.2243 13.7071 27.0371C14.3393 26.854 14.9643 26.6476 15.582 26.4181C15.6257 26.402 15.6688 26.3967 15.6965 26.3328H15.4592C9.90672 26.3328 0.00015777 26.3373 0.00015777 26.3373V25.5885C0.00015777 25.5885 10.9847 25.5845 16.9565 25.5969C17.376 25.6042 17.79 25.4973 18.157 25.287C18.8138 24.9123 19.4687 24.5349 20.0897 24.0986C20.1964 24.0234 20.2973 23.9395 20.4097 23.8531C20.3388 23.7805 20.2561 23.8127 20.1849 23.8127C17.3553 23.8105 14.5258 23.8099 11.6964 23.8107C7.39578 23.8107 0.00015777 23.8167 0.00015777 23.8167V23.0666C0.00015777 23.0666 13.7551 23.0658 21.1183 23.07C21.203 23.0739 21.2874 23.0586 21.3658 23.0252C21.4442 22.9918 21.5146 22.9411 21.5721 22.8766C22.0057 22.4453 22.4105 21.984 22.7837 21.496C22.8245 21.45 22.8502 21.392 22.8573 21.3302Z" fill="url(#paint0_linear)"/>
<path fill-rule="evenodd" clip-rule="evenodd" d="M54.0862 25.5157V8.73707C54.0862 6.1158 54.7768 4.06576 56.158 2.58697C56.7241 1.98397 57.427 1.5372 58.2026 1.28735C58.9335 1.06117 60.0194 0.948618 61.4603 0.949686H70.2336V25.5157H72.3663V30.9135H52.1309V25.5157H54.0862ZM58.4706 25.5157H65.8789V6.42979H61.8473C60.6211 6.42979 59.7521 6.66727 59.2401 7.14221C58.7267 7.61632 58.4706 8.45799 58.4706 9.65619V25.5157Z" fill="url(#paint1_linear)"/>
<path fill-rule="evenodd" clip-rule="evenodd" d="M74.2544 0.950183H89.5102V6.34666H78.6085V12.7521H88.5907V17.8182H78.6085V25.516H89.9552V30.914H74.2544V0.950183Z" fill="url(#paint2_linear)"/>
<path fill-rule="evenodd" clip-rule="evenodd" d="M92.0728 0.950183H96.564V12.586H105.244V0.950183H109.735V30.914H105.244V17.9841H96.564V30.914H92.0728V0.950183Z" fill="url(#paint3_linear)"/>
<path fill-rule="evenodd" clip-rule="evenodd" d="M112.208 0.950183H124.524V6.34666H120.889V30.914H116.533V6.34666H112.204L112.208 0.950183Z" fill="url(#paint4_linear)"/>
<path fill-rule="evenodd" clip-rule="evenodd" d="M127.367 0.950183H131.72V13.8371L140.341 0.950183H145.852L137.143 13.3394L146.385 30.914H140.845L133.854 17.8123L131.72 20.8301V30.914H127.367V0.950183Z" fill="url(#paint5_linear)"/>
<path fill-rule="evenodd" clip-rule="evenodd" d="M144.986 16.0545V16.0598C144.986 19.0583 145.468 21.7111 146.431 23.9931C147.394 26.2777 148.756 28.0598 150.517 29.3396C152.308 30.6281 154.446 31.3003 156.626 31.2609C158.767 31.286 160.856 30.5734 162.562 29.2352C164.298 27.8884 165.64 26.0227 166.588 23.6382C167.527 21.2602 167.998 18.5489 167.998 15.5209C168.022 13.437 167.744 11.3612 167.174 9.36235C166.693 7.6584 165.91 6.06178 164.866 4.65374C163.903 3.37645 162.672 2.34323 161.265 1.63267C159.552 0.802235 157.66 0.444533 155.773 0.594296C153.887 0.74406 152.07 1.3962 150.499 2.48739C148.729 3.76474 147.366 5.56836 146.411 7.89823C145.463 10.2224 144.988 12.9412 144.986 16.0545ZM150.097 15.603C150.122 13.8351 150.423 12.0831 150.989 10.4148C151.514 8.97518 152.263 7.86287 153.225 7.09082C154.176 6.32134 155.352 5.91184 156.559 5.93044C158.534 5.93044 160.088 6.79792 161.222 8.51842C162.352 10.2394 162.918 12.6282 162.919 15.685C162.919 18.7709 162.341 21.2517 161.184 23.1275C160.031 24.9949 158.465 25.9295 156.487 25.9315C154.27 25.9315 152.65 24.9269 151.628 22.9176C150.607 20.9081 150.097 18.4699 150.097 15.603Z" fill="url(#paint6_linear)"/>
</g>
<defs>
<linearGradient id="paint0_linear" x1="0" y1="0.561035" x2="78.4633" y2="-69.2993" gradientUnits="userSpaceOnUse">
<stop stop-color="#0DC180"/>
<stop offset="1" stop-color="#04B474"/>
</linearGradient>
<linearGradient id="paint1_linear" x1="0" y1="0.561035" x2="78.4633" y2="-69.2993" gradientUnits="userSpaceOnUse">
<stop stop-color="#0DC180"/>
<stop offset="1" stop-color="#04B474"/>
</linearGradient>
<linearGradient id="paint2_linear" x1="0" y1="0.561035" x2="78.4633" y2="-69.2993" gradientUnits="userSpaceOnUse">
<stop stop-color="#0DC180"/>
<stop offset="1" stop-color="#04B474"/>
</linearGradient>
<linearGradient id="paint3_linear" x1="0" y1="0.561035" x2="78.4633" y2="-69.2993" gradientUnits="userSpaceOnUse">
<stop stop-color="#0DC180"/>
<stop offset="1" stop-color="#04B474"/>
</linearGradient>
<linearGradient id="paint4_linear" x1="0" y1="0.561035" x2="78.4633" y2="-69.2993" gradientUnits="userSpaceOnUse">
<stop stop-color="#0DC180"/>
<stop offset="1" stop-color="#04B474"/>
</linearGradient>
<linearGradient id="paint5_linear" x1="0" y1="0.561035" x2="78.4633" y2="-69.2993" gradientUnits="userSpaceOnUse">
<stop stop-color="#0DC180"/>
<stop offset="1" stop-color="#04B474"/>
</linearGradient>
<linearGradient id="paint6_linear" x1="0" y1="0.561035" x2="78.4633" y2="-69.2993" gradientUnits="userSpaceOnUse">
<stop stop-color="#0DC180"/>
<stop offset="1" stop-color="#04B474"/>
</linearGradient>
</defs>
</svg>
