<svg width="23" height="35" viewBox="0 0 23 35" fill="none" xmlns="http://www.w3.org/2000/svg">
<path d="M13.6918 6.02746H0.541064C0.257305 6.02746 0.0273438 6.25742 0.0273438 6.54118V8.73299L0.0274121 8.73422C0.0274121 8.73962 0.0280274 8.74509 0.0282325 8.75049C0.0286426 8.76307 0.0290531 8.77578 0.0304203 8.78808L0.0304886 8.78959L2.2223 28.5156C2.23515 28.6315 2.2871 28.7397 2.36954 28.8222L4.44028 30.8929L4.96398 34.559C5.00015 34.812 5.21685 35 5.47258 35H8.76025C9.01585 35 9.23262 34.8121 9.26885 34.559L9.79255 30.8929L11.8633 28.8222C11.9457 28.7397 11.9977 28.6316 12.0105 28.5156L14.2023 8.78959V8.78856C14.2037 8.77571 14.2041 8.763 14.2045 8.75042C14.2047 8.74495 14.2054 8.73955 14.2054 8.73415L14.2054 8.73292V6.54111C14.2054 6.25742 13.9755 6.02746 13.6918 6.02746ZM8.31469 33.9727H5.91814L5.51701 31.1645H8.71596L8.31469 33.9727ZM11.0093 28.2231L9.09542 30.1371H5.13741L3.22355 28.2231L1.11501 9.24664H13.1178L11.0093 28.2231ZM13.178 8.21927H1.05479V7.0549H13.178V8.21927Z" fill="#CFD5DC"/>
<path d="M22.4589 26.849C22.7426 26.849 22.9726 26.6191 22.9726 26.3353V1.60959C22.9726 0.72208 22.2505 0 21.363 0H15.8835C15.5997 0 15.3698 0.229961 15.3698 0.513721C15.3698 0.79748 15.5997 1.02744 15.8835 1.02744H16.4657V2.19181H15.8835C15.5997 2.19181 15.3698 2.42177 15.3698 2.70553C15.3698 2.98929 15.5997 3.21925 15.8835 3.21925H16.4657V4.38361H15.8835C15.5997 4.38361 15.3698 4.61357 15.3698 4.89733C15.3698 5.18109 15.5997 5.41105 15.8835 5.41105H16.4657V6.57542H15.8835C15.5997 6.57542 15.3698 6.80538 15.3698 7.08914C15.3698 7.3729 15.5997 7.60286 15.8835 7.60286H16.4657V8.76723H15.8835C15.5997 8.76723 15.3698 8.99719 15.3698 9.28095C15.3698 9.56471 15.5997 9.79467 15.8835 9.79467H19.7534V17.3289L18.2123 19.3838C18.1456 19.4727 18.1096 19.5809 18.1096 19.692V33.3905C18.1096 34.2781 18.8316 35.0001 19.7192 35.0001H21.363C22.2505 35.0001 22.9726 34.2781 22.9726 33.3905V28.7333C22.9726 28.4495 22.7426 28.2196 22.4589 28.2196C22.1751 28.2196 21.9451 28.4495 21.9451 28.7333V33.3905C21.9451 33.7116 21.684 33.9728 21.3629 33.9728H19.7191C19.3981 33.9728 19.1369 33.7116 19.1369 33.3905V19.8631L20.678 17.8082C20.7447 17.7193 20.7807 17.6112 20.7807 17.5V1.02737H21.3629C21.6839 1.02737 21.9451 1.28851 21.9451 1.60959V26.3353C21.9451 26.6191 22.1751 26.849 22.4589 26.849ZM19.7534 8.76709H17.4931V7.60272H19.7534V8.76709ZM19.7534 6.57535H17.4931V5.41099H19.7534V6.57535ZM19.7534 4.38354H17.4931V3.21918H19.7534V4.38354ZM19.7534 2.19181H17.4931V1.02737H19.7534V2.19181Z" fill="#CFD5DC"/>
<path d="M9.9962 17.8692C10.3156 17.5067 10.7984 16.9588 10.7984 15.6736C10.7984 14.4415 9.76029 13.5123 8.38367 13.5123C7.93407 13.5123 7.49329 13.6687 7.11998 13.9524C6.74558 13.6687 6.30234 13.5123 5.84904 13.5123C4.47242 13.5123 3.43432 14.4414 3.43432 15.6736C3.43432 16.9588 3.91707 17.5066 4.23651 17.8692C4.43694 18.0966 4.43694 18.0966 4.36749 18.2492C3.78951 19.5206 4.116 21.1828 4.57387 21.8938C4.84184 22.31 5.13954 22.3973 5.34216 22.3973C5.93155 22.3973 6.08994 21.779 6.25756 21.1243C6.46195 20.3258 6.68146 19.6092 7.11643 19.6092C7.5514 19.6092 7.7709 20.3258 7.97529 21.1243C8.14291 21.779 8.3013 22.3973 8.89069 22.3973C9.09331 22.3973 9.39102 22.31 9.65899 21.8938C10.1169 21.1828 10.4432 19.5206 9.86536 18.2492C9.79577 18.0965 9.79577 18.0965 9.9962 17.8692ZM9.22531 17.1899C8.95522 17.4965 8.58533 17.9162 8.92993 18.6743C9.26578 19.413 9.15989 20.3442 8.9823 20.9152C8.97826 20.8996 8.97437 20.8843 8.97054 20.8694C8.75151 20.0138 8.38477 18.5818 7.11643 18.5818C5.84809 18.5818 5.48134 20.0138 5.26232 20.8694C5.25849 20.8843 5.25459 20.8996 5.25056 20.9152C5.07296 20.3442 4.96707 19.413 5.30292 18.6743C5.64745 17.9162 5.27756 17.4964 5.00754 17.1899C4.75181 16.8997 4.46183 16.5706 4.46183 15.6736C4.46169 15.0166 5.04521 14.5398 5.84904 14.5398C6.16432 14.5398 6.49183 14.7074 6.72534 14.9882C6.92762 15.2315 7.3131 15.2315 7.5153 14.9882C7.75231 14.7033 8.06881 14.5398 8.38374 14.5398C9.18758 14.5398 9.7711 15.0166 9.7711 15.6736C9.77103 16.5706 9.48111 16.8997 9.22531 17.1899Z" fill="#CFD5DC"/>
</svg>
