<svg width="35" height="35" viewBox="0 0 35 35" fill="none" xmlns="http://www.w3.org/2000/svg">
<g clip-path="url(#clip0)">
<path d="M7.37245 6.00045C7.15869 4.40966 7.05478 2.61489 7.05478 0.513803C7.05478 0.230044 6.82482 8.31634e-05 6.54106 8.31634e-05C6.2573 8.31634e-05 6.02734 0.230044 6.02734 0.513803C6.02734 2.6611 6.13426 4.50058 6.3541 6.13738C6.38883 6.39529 6.60929 6.58274 6.86262 6.58274C6.88539 6.58267 6.90843 6.58116 6.93167 6.57809C7.21283 6.54028 7.41011 6.28168 7.37245 6.00045Z" fill="#CFD5DC"/>
<path d="M23.07 16.1256C23.2679 16.3234 23.5986 16.3234 23.7965 16.1256C25.0023 14.9197 26.3692 13.5528 27.397 11.0689C28.472 8.47135 28.9726 5.11744 28.9726 0.513788C28.9726 0.230029 28.7426 6.83592e-05 28.4588 6.83592e-05C28.1751 6.83592e-05 27.9451 0.230029 27.9451 0.513788C27.9451 4.97812 27.4693 8.20714 26.4478 10.6759C25.5977 12.7303 24.4749 13.9793 23.4325 15.035L21.0593 12.6617C21.9594 11.7481 22.7966 10.7956 23.4352 9.17641C24.2223 7.18066 24.5889 4.42804 24.5889 0.51372C24.5889 0.22996 24.359 0 24.0752 0C23.7915 0 23.5615 0.22996 23.5615 0.51372C23.5615 8.70808 21.8973 10.3723 19.9703 12.2992C19.7697 12.4998 19.7696 12.8251 19.9703 13.0257L20.5802 13.6356C19.3017 14.9729 18.2672 16.3842 17.4999 17.8389C16.7327 16.3844 15.6975 14.9728 14.4192 13.6357L15.0292 13.0256C15.2299 12.8249 15.2299 12.4998 15.0292 12.2991C13.1023 10.3724 11.4381 8.70815 11.4381 0.51372C11.4381 0.22996 11.2082 0 10.9244 0C10.6407 0 10.4107 0.22996 10.4107 0.51372C10.4107 4.42804 10.7773 7.18073 11.5645 9.17641C12.203 10.7956 13.0403 11.7479 13.9404 12.6617L11.5671 15.0349C10.5246 13.9793 9.40198 12.7303 8.552 10.6759C8.26141 9.97361 8.01169 9.19698 7.80976 8.36758C7.74263 8.09196 7.46509 7.92277 7.18906 7.98996C6.91343 8.05702 6.74438 8.3349 6.81144 8.61067C7.02575 9.491 7.29194 10.318 7.60263 11.0687C8.63041 13.5528 9.99719 14.9195 11.203 16.1254C11.401 16.3233 11.7316 16.3233 11.9296 16.1254L12.53 15.5249C13.677 16.7328 14.5875 18.0007 15.2413 19.3004C15.0866 19.5345 14.9675 19.7939 14.8913 20.071C13.8553 20.3309 13.0061 20.7172 12.3662 21.2207C11.4323 21.9556 10.9587 22.9159 10.9587 24.0754C10.9587 27.4794 12.0925 29.2195 12.1409 29.2918C12.2362 29.4347 12.3965 29.5206 12.5682 29.5206H13.1162C13.3779 29.5206 13.5979 29.3238 13.6268 29.0636L14.1417 24.4297L16.6486 23.3552C16.9165 23.4443 17.2025 23.4932 17.4998 23.4932C17.7972 23.4932 18.0832 23.4443 18.351 23.3553L20.858 24.4297L21.3729 29.0636C21.4018 29.3238 21.6217 29.5206 21.8835 29.5206H22.4315C22.6032 29.5206 22.7636 29.4348 22.8588 29.2918C22.9071 29.2194 24.041 27.4794 24.041 24.0754C24.041 22.9194 23.5702 21.9612 22.6415 21.227C22.0007 20.7206 21.1487 20.3323 20.1084 20.0712C20.0322 19.7941 19.9131 19.5347 19.7585 19.3006C20.4132 18 21.3241 16.7313 22.4694 15.525L23.07 16.1256ZM13.2568 14.7984L13.6927 14.3625C14.8782 15.6054 15.8396 16.9115 16.5557 18.2526C16.3595 18.3259 16.1742 18.4213 16.0025 18.5358C15.3144 17.2457 14.3932 15.992 13.2568 14.7984ZM13.462 23.6032C13.2919 23.6761 13.1742 23.8348 13.1537 24.0186L12.6984 28.1168C12.4002 27.3988 11.9862 26.0469 11.9862 24.0754C11.9862 22.6798 12.9394 21.6988 14.8199 21.1543C14.9011 21.7512 15.1772 22.2869 15.5825 22.6944L13.462 23.6032ZM17.5 22.4659C16.5746 22.4659 15.8219 21.7132 15.8219 20.7878C15.8219 19.8624 16.5746 19.1097 17.5 19.1097C18.4253 19.1097 19.178 19.8625 19.178 20.7878C19.178 21.7131 18.4253 22.4659 17.5 22.4659ZM20.18 21.1542C22.0604 21.699 23.0136 22.6801 23.0136 24.0754C23.0136 26.0475 22.5993 27.3998 22.3015 28.1171L21.8462 24.0186C21.8257 23.8347 21.708 23.6761 21.5379 23.6032L19.4174 22.6944C19.8227 22.2869 20.0988 21.7512 20.18 21.1542ZM18.9978 18.5362C18.826 18.4216 18.6405 18.326 18.4442 18.2527C19.1603 16.9114 20.121 15.6055 21.3069 14.3624L21.7429 14.7985C20.6081 15.9906 19.6868 17.2453 18.9978 18.5362Z" fill="#CFD5DC"/>
<path d="M17.4999 21.3015C17.7836 21.3015 18.0136 21.0715 18.0136 20.7877C18.0136 20.504 17.7836 20.274 17.4999 20.274C17.2162 20.274 16.9862 20.504 16.9862 20.7877C16.9862 21.0715 17.2162 21.3015 17.4999 21.3015Z" fill="#CFD5DC"/>
<path d="M20.3798 30.4721C20.6992 30.1096 21.182 29.5617 21.182 28.2765C21.182 27.0445 20.1439 26.1152 18.7673 26.1152C18.3177 26.1152 17.8769 26.2716 17.5036 26.5553C17.1292 26.2717 16.6859 26.1152 16.2327 26.1152C14.856 26.1152 13.8179 27.0444 13.8179 28.2765C13.8179 29.5617 14.3007 30.1095 14.6201 30.4721C14.8206 30.6995 14.8206 30.6995 14.7511 30.8521C14.1731 32.1235 14.4996 33.7857 14.9575 34.4967C15.2255 34.9129 15.5232 35.0002 15.7258 35.0002C16.3152 35.0002 16.4736 34.3819 16.6412 33.7272C16.8456 32.9288 17.0651 32.2121 17.5 32.2121C17.935 32.2121 18.1545 32.9288 18.3589 33.7272C18.5265 34.3819 18.6849 35.0002 19.2743 35.0002C19.4769 35.0002 19.7746 34.9129 20.0426 34.4967C20.5005 33.7857 20.8268 32.1235 20.249 30.8521C20.1794 30.6994 20.1794 30.6994 20.3798 30.4721ZM19.6089 29.7928C19.3388 30.0994 18.9689 30.5192 19.3135 31.2772C19.6494 32.0159 19.5435 32.9471 19.366 33.5181C19.3619 33.5025 19.358 33.4872 19.3542 33.4723C19.1352 32.6167 18.7684 31.1847 17.5001 31.1847C16.2318 31.1847 15.865 32.6167 15.646 33.4723C15.6422 33.4872 15.6383 33.5025 15.6342 33.5181C15.4566 32.9471 15.3508 32.0159 15.6866 31.2772C16.0311 30.5192 15.6612 30.0994 15.3912 29.7928C15.1355 29.5027 14.8455 29.1736 14.8455 28.2765C14.8455 27.6195 15.429 27.1427 16.2329 27.1427C16.5481 27.1427 16.8756 27.3103 17.1092 27.5911C17.3114 27.8344 17.6969 27.8344 17.8991 27.5911C18.1361 27.3062 18.4526 27.1427 18.7676 27.1427C19.5714 27.1427 20.1549 27.6196 20.1549 28.2765C20.1546 29.1736 19.8647 29.5026 19.6089 29.7928Z" fill="#CFD5DC"/>
</g>
<defs>
<clipPath id="clip0">
<rect width="35" height="35" fill="white"/>
</clipPath>
</defs>
</svg>
