<svg width="28" height="34" viewBox="0 0 28 34" fill="none" xmlns="http://www.w3.org/2000/svg">
<mask id="path-1-outside-1" maskUnits="userSpaceOnUse" x="0" y="0" width="28" height="34" fill="black">
<rect fill="white" width="28" height="34"/>
<path d="M24.5147 8.01361C22.8401 8.01361 21.4776 6.20161 21.4776 3.97448C21.4776 3.71511 21.2673 3.5048 21.0079 3.5048C20.7484 3.5048 20.5382 3.71511 20.5382 3.97448C20.5382 6.20167 19.1757 8.01361 17.501 8.01361C17.2416 8.01361 17.0313 8.22392 17.0313 8.4833C17.0313 8.74267 17.2416 8.95298 17.501 8.95298C19.1757 8.95298 20.5382 10.765 20.5382 12.9921C20.5382 13.2515 20.7484 13.4618 21.0079 13.4618C21.2673 13.4618 21.4776 13.2515 21.4776 12.9921C21.4776 10.7649 22.8401 8.95298 24.5147 8.95298C24.7742 8.95298 24.9844 8.74267 24.9844 8.4833C24.9844 8.22392 24.7742 8.01361 24.5147 8.01361ZM21.0079 10.6464C20.6036 9.70292 19.9631 8.94023 19.1866 8.48323C19.9631 8.0263 20.6036 7.26355 21.0079 6.32005C21.4122 7.26355 22.0526 8.02623 22.8292 8.48323C22.0526 8.94023 21.4122 9.70298 21.0079 10.6464Z"/>
<path d="M18.0021 13.5243C16.8989 13.5243 15.9668 12.1335 15.9668 10.4871C15.9668 10.2277 15.7566 10.0174 15.4971 10.0174C15.2377 10.0174 15.0274 10.2277 15.0274 10.4871C15.0274 12.1334 14.0954 13.5243 12.9922 13.5243C12.7328 13.5243 12.5225 13.7346 12.5225 13.994C12.5225 14.2533 12.7328 14.4637 12.9922 14.4637C14.0954 14.4637 15.0274 15.8545 15.0274 17.5008C15.0274 17.7602 15.2377 17.9705 15.4971 17.9705C15.7566 17.9705 15.9668 17.7602 15.9668 17.5008C15.9668 15.8545 16.8988 14.4637 18.0021 14.4637C18.2615 14.4637 18.4717 14.2533 18.4717 13.994C18.4717 13.7346 18.2615 13.5243 18.0021 13.5243ZM15.8486 14.7482C15.7164 14.9333 15.5989 15.1333 15.4972 15.3452C15.3954 15.1333 15.278 14.9333 15.1457 14.7482C14.9269 14.4417 14.6777 14.1888 14.4065 13.994C14.6777 13.7992 14.9269 13.5462 15.1457 13.2398C15.278 13.0546 15.3954 12.8547 15.4972 12.6427C15.5989 12.8547 15.7164 13.0546 15.8486 13.2398C16.0675 13.5462 16.3167 13.7992 16.5879 13.994C16.3167 14.1888 16.0675 14.4417 15.8486 14.7482Z"/>
<path d="M25.5167 17.0312C24.4135 17.0312 23.4814 15.6404 23.4814 13.9941C23.4814 13.7347 23.2712 13.5244 23.0117 13.5244C22.7523 13.5244 22.5421 13.7347 22.5421 13.9941C22.5421 15.6404 21.6101 17.0312 20.5068 17.0312C20.2474 17.0312 20.0371 17.2416 20.0371 17.5009C20.0371 17.7603 20.2474 17.9706 20.5068 17.9706C21.61 17.9706 22.5421 19.3614 22.5421 21.0078C22.5421 21.2672 22.7523 21.4775 23.0117 21.4775C23.2712 21.4775 23.4814 21.2672 23.4814 21.0078C23.4814 19.3615 24.4134 17.9706 25.5167 17.9706C25.7761 17.9706 25.9864 17.7603 25.9864 17.5009C25.9864 17.2416 25.7761 17.0312 25.5167 17.0312ZM23.3633 18.2551C23.231 18.4402 23.1136 18.6402 23.0118 18.8521C22.9101 18.6402 22.7926 18.4402 22.6604 18.2551C22.4415 17.9486 22.1923 17.6957 21.9211 17.5009C22.1923 17.3061 22.4415 17.0531 22.6604 16.7467C22.7926 16.5615 22.9101 16.3616 23.0118 16.1496C23.1136 16.3616 23.231 16.5615 23.3633 16.7467C23.5821 17.0531 23.8313 17.306 24.1025 17.5009C23.8312 17.6957 23.5821 17.9487 23.3633 18.2551Z"/>
<path d="M24.3954 22.2644C24.3616 22.0073 24.1253 21.8262 23.8686 21.8601C23.6115 21.8939 23.4303 22.1298 23.4642 22.3871C23.9989 26.4502 22.7375 30.3772 21.6213 31.6498C21.3923 31.9109 21.1686 32.0607 21.0078 32.0607C21.006 32.0607 20.8136 32.0524 20.5216 31.3311C20.2771 30.7271 20.0508 29.8436 19.8113 28.9083C18.961 25.5873 17.7965 21.0391 13.9941 21.0391C10.1918 21.0391 9.02728 25.5873 8.1769 28.9083C7.9374 29.8436 7.71115 30.7271 7.46671 31.331C7.17465 32.0524 6.98234 32.0607 6.98046 32.0607C6.83284 32.0607 6.6279 31.9315 6.41803 31.7063C5.8519 31.0987 5.28959 29.864 4.91384 28.4036C4.48853 26.7507 4.31984 24.9149 4.43884 23.234C4.45715 22.9753 4.26221 22.7506 4.00346 22.7323C3.74453 22.7138 3.52009 22.9089 3.50178 23.1677C3.22228 27.1159 4.41565 30.9352 5.73071 32.3467C6.13471 32.7803 6.55515 33 6.9804 33C8.09878 33 8.51328 31.3814 9.08684 29.1413C9.49915 27.5311 9.9664 25.7061 10.7457 24.2821C11.594 22.732 12.6566 21.9784 13.9941 21.9784C15.3315 21.9784 16.3941 22.732 17.2425 24.2821C18.0216 25.7059 18.489 27.5311 18.9013 29.1413C19.4749 31.3814 19.8894 33 21.0078 33C21.4581 33 21.9021 32.7541 22.3274 32.2691C23.7429 30.6554 24.9359 26.3714 24.3954 22.2644Z"/>
<path d="M24.7567 3.02712C23.2951 1.71987 21.252 1 19.004 1C17.1781 1 15.3843 1.82056 14.0092 3.26869C12.6421 1.83962 10.7992 1 8.98437 1C6.73637 1 4.69331 1.71987 3.23156 3.02712C1.7925 4.314 1 6.07381 1 7.98237C1 12.4729 2.6075 14.2972 3.78131 15.6294C4.75337 16.7326 5.24131 17.2864 4.54894 18.8095C4.24606 19.4759 4.00244 20.2039 3.82481 20.9732C3.768 21.2194 3.92325 21.4726 4.16812 21.5343C4.41975 21.5977 4.68181 21.4371 4.74012 21.1844C4.90362 20.476 5.12706 19.8077 5.40412 19.1982C6.34806 17.1215 5.48525 16.1422 4.48612 15.0084C3.3515 13.7207 1.93931 12.1181 1.93931 7.98237C1.93931 4.48081 4.90219 1.93931 8.98431 1.93931C10.5778 1.93931 12.2053 2.70244 13.4042 3.99662C13.3809 4.03006 13.3573 4.06381 13.3343 4.09687C12.5334 5.24875 12.0043 6.00975 9.98625 6.00975C9.72687 6.00975 9.51656 6.22006 9.51656 6.47944C9.51656 6.73881 9.72687 6.94912 9.98625 6.94912C12.4952 6.94912 13.2415 5.87581 14.1055 4.63312C14.1756 4.53244 14.2476 4.42931 14.3216 4.325C14.339 4.3095 14.3557 4.29312 14.3709 4.27487C15.6052 2.79062 17.2937 1.93931 19.0039 1.93931C23.0861 1.93931 26.0489 4.48075 26.0489 7.98237C26.0489 11.3221 25.1086 12.9883 24.2893 14.0669C24.1324 14.2734 24.1727 14.5681 24.3793 14.725C24.5857 14.8819 24.8805 14.8416 25.0374 14.6351C25.9457 13.4393 26.9882 11.6024 26.9882 7.98237C26.9883 6.07387 26.1958 4.31406 24.7567 3.02712Z"/>
</mask>
<path d="M24.5147 8.01361C22.8401 8.01361 21.4776 6.20161 21.4776 3.97448C21.4776 3.71511 21.2673 3.5048 21.0079 3.5048C20.7484 3.5048 20.5382 3.71511 20.5382 3.97448C20.5382 6.20167 19.1757 8.01361 17.501 8.01361C17.2416 8.01361 17.0313 8.22392 17.0313 8.4833C17.0313 8.74267 17.2416 8.95298 17.501 8.95298C19.1757 8.95298 20.5382 10.765 20.5382 12.9921C20.5382 13.2515 20.7484 13.4618 21.0079 13.4618C21.2673 13.4618 21.4776 13.2515 21.4776 12.9921C21.4776 10.7649 22.8401 8.95298 24.5147 8.95298C24.7742 8.95298 24.9844 8.74267 24.9844 8.4833C24.9844 8.22392 24.7742 8.01361 24.5147 8.01361ZM21.0079 10.6464C20.6036 9.70292 19.9631 8.94023 19.1866 8.48323C19.9631 8.0263 20.6036 7.26355 21.0079 6.32005C21.4122 7.26355 22.0526 8.02623 22.8292 8.48323C22.0526 8.94023 21.4122 9.70298 21.0079 10.6464Z" fill="#CFD5DC"/>
<path d="M18.0021 13.5243C16.8989 13.5243 15.9668 12.1335 15.9668 10.4871C15.9668 10.2277 15.7566 10.0174 15.4971 10.0174C15.2377 10.0174 15.0274 10.2277 15.0274 10.4871C15.0274 12.1334 14.0954 13.5243 12.9922 13.5243C12.7328 13.5243 12.5225 13.7346 12.5225 13.994C12.5225 14.2533 12.7328 14.4637 12.9922 14.4637C14.0954 14.4637 15.0274 15.8545 15.0274 17.5008C15.0274 17.7602 15.2377 17.9705 15.4971 17.9705C15.7566 17.9705 15.9668 17.7602 15.9668 17.5008C15.9668 15.8545 16.8988 14.4637 18.0021 14.4637C18.2615 14.4637 18.4717 14.2533 18.4717 13.994C18.4717 13.7346 18.2615 13.5243 18.0021 13.5243ZM15.8486 14.7482C15.7164 14.9333 15.5989 15.1333 15.4972 15.3452C15.3954 15.1333 15.278 14.9333 15.1457 14.7482C14.9269 14.4417 14.6777 14.1888 14.4065 13.994C14.6777 13.7992 14.9269 13.5462 15.1457 13.2398C15.278 13.0546 15.3954 12.8547 15.4972 12.6427C15.5989 12.8547 15.7164 13.0546 15.8486 13.2398C16.0675 13.5462 16.3167 13.7992 16.5879 13.994C16.3167 14.1888 16.0675 14.4417 15.8486 14.7482Z" fill="#CFD5DC"/>
<path d="M25.5167 17.0312C24.4135 17.0312 23.4814 15.6404 23.4814 13.9941C23.4814 13.7347 23.2712 13.5244 23.0117 13.5244C22.7523 13.5244 22.5421 13.7347 22.5421 13.9941C22.5421 15.6404 21.6101 17.0312 20.5068 17.0312C20.2474 17.0312 20.0371 17.2416 20.0371 17.5009C20.0371 17.7603 20.2474 17.9706 20.5068 17.9706C21.61 17.9706 22.5421 19.3614 22.5421 21.0078C22.5421 21.2672 22.7523 21.4775 23.0117 21.4775C23.2712 21.4775 23.4814 21.2672 23.4814 21.0078C23.4814 19.3615 24.4134 17.9706 25.5167 17.9706C25.7761 17.9706 25.9864 17.7603 25.9864 17.5009C25.9864 17.2416 25.7761 17.0312 25.5167 17.0312ZM23.3633 18.2551C23.231 18.4402 23.1136 18.6402 23.0118 18.8521C22.9101 18.6402 22.7926 18.4402 22.6604 18.2551C22.4415 17.9486 22.1923 17.6957 21.9211 17.5009C22.1923 17.3061 22.4415 17.0531 22.6604 16.7467C22.7926 16.5615 22.9101 16.3616 23.0118 16.1496C23.1136 16.3616 23.231 16.5615 23.3633 16.7467C23.5821 17.0531 23.8313 17.306 24.1025 17.5009C23.8312 17.6957 23.5821 17.9487 23.3633 18.2551Z" fill="#CFD5DC"/>
<path d="M24.3954 22.2644C24.3616 22.0073 24.1253 21.8262 23.8686 21.8601C23.6115 21.8939 23.4303 22.1298 23.4642 22.3871C23.9989 26.4502 22.7375 30.3772 21.6213 31.6498C21.3923 31.9109 21.1686 32.0607 21.0078 32.0607C21.006 32.0607 20.8136 32.0524 20.5216 31.3311C20.2771 30.7271 20.0508 29.8436 19.8113 28.9083C18.961 25.5873 17.7965 21.0391 13.9941 21.0391C10.1918 21.0391 9.02728 25.5873 8.1769 28.9083C7.9374 29.8436 7.71115 30.7271 7.46671 31.331C7.17465 32.0524 6.98234 32.0607 6.98046 32.0607C6.83284 32.0607 6.6279 31.9315 6.41803 31.7063C5.8519 31.0987 5.28959 29.864 4.91384 28.4036C4.48853 26.7507 4.31984 24.9149 4.43884 23.234C4.45715 22.9753 4.26221 22.7506 4.00346 22.7323C3.74453 22.7138 3.52009 22.9089 3.50178 23.1677C3.22228 27.1159 4.41565 30.9352 5.73071 32.3467C6.13471 32.7803 6.55515 33 6.9804 33C8.09878 33 8.51328 31.3814 9.08684 29.1413C9.49915 27.5311 9.9664 25.7061 10.7457 24.2821C11.594 22.732 12.6566 21.9784 13.9941 21.9784C15.3315 21.9784 16.3941 22.732 17.2425 24.2821C18.0216 25.7059 18.489 27.5311 18.9013 29.1413C19.4749 31.3814 19.8894 33 21.0078 33C21.4581 33 21.9021 32.7541 22.3274 32.2691C23.7429 30.6554 24.9359 26.3714 24.3954 22.2644Z" fill="#CFD5DC"/>
<path d="M24.7567 3.02712C23.2951 1.71987 21.252 1 19.004 1C17.1781 1 15.3843 1.82056 14.0092 3.26869C12.6421 1.83962 10.7992 1 8.98437 1C6.73637 1 4.69331 1.71987 3.23156 3.02712C1.7925 4.314 1 6.07381 1 7.98237C1 12.4729 2.6075 14.2972 3.78131 15.6294C4.75337 16.7326 5.24131 17.2864 4.54894 18.8095C4.24606 19.4759 4.00244 20.2039 3.82481 20.9732C3.768 21.2194 3.92325 21.4726 4.16812 21.5343C4.41975 21.5977 4.68181 21.4371 4.74012 21.1844C4.90362 20.476 5.12706 19.8077 5.40412 19.1982C6.34806 17.1215 5.48525 16.1422 4.48612 15.0084C3.3515 13.7207 1.93931 12.1181 1.93931 7.98237C1.93931 4.48081 4.90219 1.93931 8.98431 1.93931C10.5778 1.93931 12.2053 2.70244 13.4042 3.99662C13.3809 4.03006 13.3573 4.06381 13.3343 4.09687C12.5334 5.24875 12.0043 6.00975 9.98625 6.00975C9.72687 6.00975 9.51656 6.22006 9.51656 6.47944C9.51656 6.73881 9.72687 6.94912 9.98625 6.94912C12.4952 6.94912 13.2415 5.87581 14.1055 4.63312C14.1756 4.53244 14.2476 4.42931 14.3216 4.325C14.339 4.3095 14.3557 4.29312 14.3709 4.27487C15.6052 2.79062 17.2937 1.93931 19.0039 1.93931C23.0861 1.93931 26.0489 4.48075 26.0489 7.98237C26.0489 11.3221 25.1086 12.9883 24.2893 14.0669C24.1324 14.2734 24.1727 14.5681 24.3793 14.725C24.5857 14.8819 24.8805 14.8416 25.0374 14.6351C25.9457 13.4393 26.9882 11.6024 26.9882 7.98237C26.9883 6.07387 26.1958 4.31406 24.7567 3.02712Z" fill="#CFD5DC"/>
<path d="M24.5147 8.01361C22.8401 8.01361 21.4776 6.20161 21.4776 3.97448C21.4776 3.71511 21.2673 3.5048 21.0079 3.5048C20.7484 3.5048 20.5382 3.71511 20.5382 3.97448C20.5382 6.20167 19.1757 8.01361 17.501 8.01361C17.2416 8.01361 17.0313 8.22392 17.0313 8.4833C17.0313 8.74267 17.2416 8.95298 17.501 8.95298C19.1757 8.95298 20.5382 10.765 20.5382 12.9921C20.5382 13.2515 20.7484 13.4618 21.0079 13.4618C21.2673 13.4618 21.4776 13.2515 21.4776 12.9921C21.4776 10.7649 22.8401 8.95298 24.5147 8.95298C24.7742 8.95298 24.9844 8.74267 24.9844 8.4833C24.9844 8.22392 24.7742 8.01361 24.5147 8.01361ZM21.0079 10.6464C20.6036 9.70292 19.9631 8.94023 19.1866 8.48323C19.9631 8.0263 20.6036 7.26355 21.0079 6.32005C21.4122 7.26355 22.0526 8.02623 22.8292 8.48323C22.0526 8.94023 21.4122 9.70298 21.0079 10.6464Z" stroke="#CFD5DC" stroke-width="0.2" mask="url(#path-1-outside-1)"/>
<path d="M18.0021 13.5243C16.8989 13.5243 15.9668 12.1335 15.9668 10.4871C15.9668 10.2277 15.7566 10.0174 15.4971 10.0174C15.2377 10.0174 15.0274 10.2277 15.0274 10.4871C15.0274 12.1334 14.0954 13.5243 12.9922 13.5243C12.7328 13.5243 12.5225 13.7346 12.5225 13.994C12.5225 14.2533 12.7328 14.4637 12.9922 14.4637C14.0954 14.4637 15.0274 15.8545 15.0274 17.5008C15.0274 17.7602 15.2377 17.9705 15.4971 17.9705C15.7566 17.9705 15.9668 17.7602 15.9668 17.5008C15.9668 15.8545 16.8988 14.4637 18.0021 14.4637C18.2615 14.4637 18.4717 14.2533 18.4717 13.994C18.4717 13.7346 18.2615 13.5243 18.0021 13.5243ZM15.8486 14.7482C15.7164 14.9333 15.5989 15.1333 15.4972 15.3452C15.3954 15.1333 15.278 14.9333 15.1457 14.7482C14.9269 14.4417 14.6777 14.1888 14.4065 13.994C14.6777 13.7992 14.9269 13.5462 15.1457 13.2398C15.278 13.0546 15.3954 12.8547 15.4972 12.6427C15.5989 12.8547 15.7164 13.0546 15.8486 13.2398C16.0675 13.5462 16.3167 13.7992 16.5879 13.994C16.3167 14.1888 16.0675 14.4417 15.8486 14.7482Z" stroke="#CFD5DC" stroke-width="0.2" mask="url(#path-1-outside-1)"/>
<path d="M25.5167 17.0312C24.4135 17.0312 23.4814 15.6404 23.4814 13.9941C23.4814 13.7347 23.2712 13.5244 23.0117 13.5244C22.7523 13.5244 22.5421 13.7347 22.5421 13.9941C22.5421 15.6404 21.6101 17.0312 20.5068 17.0312C20.2474 17.0312 20.0371 17.2416 20.0371 17.5009C20.0371 17.7603 20.2474 17.9706 20.5068 17.9706C21.61 17.9706 22.5421 19.3614 22.5421 21.0078C22.5421 21.2672 22.7523 21.4775 23.0117 21.4775C23.2712 21.4775 23.4814 21.2672 23.4814 21.0078C23.4814 19.3615 24.4134 17.9706 25.5167 17.9706C25.7761 17.9706 25.9864 17.7603 25.9864 17.5009C25.9864 17.2416 25.7761 17.0312 25.5167 17.0312ZM23.3633 18.2551C23.231 18.4402 23.1136 18.6402 23.0118 18.8521C22.9101 18.6402 22.7926 18.4402 22.6604 18.2551C22.4415 17.9486 22.1923 17.6957 21.9211 17.5009C22.1923 17.3061 22.4415 17.0531 22.6604 16.7467C22.7926 16.5615 22.9101 16.3616 23.0118 16.1496C23.1136 16.3616 23.231 16.5615 23.3633 16.7467C23.5821 17.0531 23.8313 17.306 24.1025 17.5009C23.8312 17.6957 23.5821 17.9487 23.3633 18.2551Z" stroke="#CFD5DC" stroke-width="0.2" mask="url(#path-1-outside-1)"/>
<path d="M24.3954 22.2644C24.3616 22.0073 24.1253 21.8262 23.8686 21.8601C23.6115 21.8939 23.4303 22.1298 23.4642 22.3871C23.9989 26.4502 22.7375 30.3772 21.6213 31.6498C21.3923 31.9109 21.1686 32.0607 21.0078 32.0607C21.006 32.0607 20.8136 32.0524 20.5216 31.3311C20.2771 30.7271 20.0508 29.8436 19.8113 28.9083C18.961 25.5873 17.7965 21.0391 13.9941 21.0391C10.1918 21.0391 9.02728 25.5873 8.1769 28.9083C7.9374 29.8436 7.71115 30.7271 7.46671 31.331C7.17465 32.0524 6.98234 32.0607 6.98046 32.0607C6.83284 32.0607 6.6279 31.9315 6.41803 31.7063C5.8519 31.0987 5.28959 29.864 4.91384 28.4036C4.48853 26.7507 4.31984 24.9149 4.43884 23.234C4.45715 22.9753 4.26221 22.7506 4.00346 22.7323C3.74453 22.7138 3.52009 22.9089 3.50178 23.1677C3.22228 27.1159 4.41565 30.9352 5.73071 32.3467C6.13471 32.7803 6.55515 33 6.9804 33C8.09878 33 8.51328 31.3814 9.08684 29.1413C9.49915 27.5311 9.9664 25.7061 10.7457 24.2821C11.594 22.732 12.6566 21.9784 13.9941 21.9784C15.3315 21.9784 16.3941 22.732 17.2425 24.2821C18.0216 25.7059 18.489 27.5311 18.9013 29.1413C19.4749 31.3814 19.8894 33 21.0078 33C21.4581 33 21.9021 32.7541 22.3274 32.2691C23.7429 30.6554 24.9359 26.3714 24.3954 22.2644Z" stroke="#CFD5DC" stroke-width="0.2" mask="url(#path-1-outside-1)"/>
<path d="M24.7567 3.02712C23.2951 1.71987 21.252 1 19.004 1C17.1781 1 15.3843 1.82056 14.0092 3.26869C12.6421 1.83962 10.7992 1 8.98437 1C6.73637 1 4.69331 1.71987 3.23156 3.02712C1.7925 4.314 1 6.07381 1 7.98237C1 12.4729 2.6075 14.2972 3.78131 15.6294C4.75337 16.7326 5.24131 17.2864 4.54894 18.8095C4.24606 19.4759 4.00244 20.2039 3.82481 20.9732C3.768 21.2194 3.92325 21.4726 4.16812 21.5343C4.41975 21.5977 4.68181 21.4371 4.74012 21.1844C4.90362 20.476 5.12706 19.8077 5.40412 19.1982C6.34806 17.1215 5.48525 16.1422 4.48612 15.0084C3.3515 13.7207 1.93931 12.1181 1.93931 7.98237C1.93931 4.48081 4.90219 1.93931 8.98431 1.93931C10.5778 1.93931 12.2053 2.70244 13.4042 3.99662C13.3809 4.03006 13.3573 4.06381 13.3343 4.09687C12.5334 5.24875 12.0043 6.00975 9.98625 6.00975C9.72687 6.00975 9.51656 6.22006 9.51656 6.47944C9.51656 6.73881 9.72687 6.94912 9.98625 6.94912C12.4952 6.94912 13.2415 5.87581 14.1055 4.63312C14.1756 4.53244 14.2476 4.42931 14.3216 4.325C14.339 4.3095 14.3557 4.29312 14.3709 4.27487C15.6052 2.79062 17.2937 1.93931 19.0039 1.93931C23.0861 1.93931 26.0489 4.48075 26.0489 7.98237C26.0489 11.3221 25.1086 12.9883 24.2893 14.0669C24.1324 14.2734 24.1727 14.5681 24.3793 14.725C24.5857 14.8819 24.8805 14.8416 25.0374 14.6351C25.9457 13.4393 26.9882 11.6024 26.9882 7.98237C26.9883 6.07387 26.1958 4.31406 24.7567 3.02712Z" stroke="#CFD5DC" stroke-width="0.2" mask="url(#path-1-outside-1)"/>
</svg>
