<svg width="23" height="35" viewBox="0 0 23 35" fill="none" xmlns="http://www.w3.org/2000/svg">
<path d="M1.37245 6.00045C1.15869 4.40966 1.05478 2.61489 1.05478 0.513803C1.05478 0.230044 0.824822 8.31634e-05 0.541063 8.31634e-05C0.257304 8.31634e-05 0.0273438 0.230044 0.0273438 0.513803C0.0273438 2.6611 0.134258 4.50058 0.354101 6.13738C0.388827 6.39529 0.609285 6.58274 0.862624 6.58274C0.885388 6.58267 0.908425 6.58116 0.931667 6.57809C1.21283 6.54028 1.41011 6.28168 1.37245 6.00045Z" fill="#CFD5DC"/>
<path d="M17.07 16.1256C17.2679 16.3234 17.5986 16.3234 17.7965 16.1256C19.0023 14.9197 20.3692 13.5528 21.397 11.0689C22.472 8.47135 22.9726 5.11744 22.9726 0.513788C22.9726 0.230029 22.7426 6.83592e-05 22.4588 6.83592e-05C22.1751 6.83592e-05 21.9451 0.230029 21.9451 0.513788C21.9451 4.97812 21.4693 8.20714 20.4478 10.6759C19.5977 12.7303 18.4749 13.9793 17.4325 15.035L15.0593 12.6617C15.9594 11.7481 16.7966 10.7956 17.4352 9.17641C18.2223 7.18066 18.5889 4.42804 18.5889 0.51372C18.5889 0.22996 18.359 0 18.0752 0C17.7915 0 17.5615 0.22996 17.5615 0.51372C17.5615 8.70808 15.8973 10.3723 13.9703 12.2992C13.7697 12.4998 13.7696 12.8251 13.9703 13.0257L14.5802 13.6356C13.3017 14.9729 12.2672 16.3842 11.4999 17.8389C10.7327 16.3844 9.69746 14.9728 8.41921 13.6357L9.02925 13.0256C9.22988 12.8249 9.22988 12.4998 9.02925 12.2991C7.10234 10.3724 5.43813 8.70815 5.43813 0.51372C5.43813 0.22996 5.20817 0 4.92441 0C4.64065 0 4.41069 0.22996 4.41069 0.51372C4.41069 4.42804 4.7773 7.18073 5.56446 9.17641C6.203 10.7956 7.04027 11.7479 7.94035 12.6617L5.56712 15.0349C4.52465 13.9793 3.40198 12.7303 2.552 10.6759C2.26141 9.97361 2.01169 9.19698 1.80976 8.36758C1.74263 8.09196 1.46509 7.92277 1.18906 7.98996C0.913431 8.05702 0.744379 8.3349 0.811439 8.61067C1.02575 9.491 1.29194 10.318 1.60263 11.0687C2.63041 13.5528 3.99719 14.9195 5.20304 16.1254C5.40101 16.3233 5.7316 16.3233 5.92956 16.1254L6.53003 15.5249C7.67703 16.7328 8.58751 18.0007 9.2413 19.3004C9.0866 19.5345 8.96752 19.7939 8.8913 20.071C7.85531 20.3309 7.00609 20.7172 6.36624 21.2207C5.43225 21.9556 4.95866 22.9159 4.95866 24.0754C4.95866 27.4794 6.09253 29.2195 6.14086 29.2918C6.23616 29.4347 6.39646 29.5206 6.56824 29.5206H7.11621C7.37789 29.5206 7.59787 29.3238 7.62679 29.0636L8.14174 24.4297L10.6486 23.3552C10.9165 23.4443 11.2025 23.4932 11.4998 23.4932C11.7972 23.4932 12.0832 23.4443 12.351 23.3553L14.858 24.4297L15.3729 29.0636C15.4018 29.3238 15.6217 29.5206 15.8835 29.5206H16.4315C16.6032 29.5206 16.7636 29.4348 16.8588 29.2918C16.9071 29.2194 18.041 27.4794 18.041 24.0754C18.041 22.9194 17.5702 21.9612 16.6415 21.227C16.0007 20.7206 15.1487 20.3323 14.1084 20.0712C14.0322 19.7941 13.9131 19.5347 13.7585 19.3006C14.4132 18 15.3241 16.7313 16.4694 15.525L17.07 16.1256ZM7.25683 14.7984L7.69269 14.3625C8.87824 15.6054 9.83965 16.9115 10.5557 18.2526C10.3595 18.3259 10.1742 18.4213 10.0025 18.5358C9.31437 17.2457 8.39316 15.992 7.25683 14.7984ZM7.46197 23.6032C7.2919 23.6761 7.17418 23.8348 7.15374 24.0186L6.6984 28.1168C6.40022 27.3988 5.98623 26.0469 5.98623 24.0754C5.98623 22.6798 6.93944 21.6988 8.81993 21.1543C8.90114 21.7512 9.17718 22.2869 9.58255 22.6944L7.46197 23.6032ZM11.5 22.4659C10.5746 22.4659 9.82187 21.7132 9.82187 20.7878C9.82187 19.8624 10.5746 19.1097 11.5 19.1097C12.4253 19.1097 13.178 19.8625 13.178 20.7878C13.178 21.7131 12.4253 22.4659 11.5 22.4659ZM14.18 21.1542C16.0604 21.699 17.0136 22.6801 17.0136 24.0754C17.0136 26.0475 16.5993 27.3998 16.3015 28.1171L15.8462 24.0186C15.8257 23.8347 15.708 23.6761 15.5379 23.6032L13.4174 22.6944C13.8227 22.2869 14.0988 21.7512 14.18 21.1542ZM12.9978 18.5362C12.826 18.4216 12.6405 18.326 12.4442 18.2527C13.1603 16.9114 14.121 15.6055 15.3069 14.3624L15.7429 14.7985C14.6081 15.9906 13.6868 17.2453 12.9978 18.5362Z" fill="#CFD5DC"/>
<path d="M11.4999 21.3015C11.7836 21.3015 12.0136 21.0715 12.0136 20.7877C12.0136 20.504 11.7836 20.274 11.4999 20.274C11.2162 20.274 10.9862 20.504 10.9862 20.7877C10.9862 21.0715 11.2162 21.3015 11.4999 21.3015Z" fill="#CFD5DC"/>
<path d="M14.3798 30.4721C14.6992 30.1096 15.182 29.5617 15.182 28.2765C15.182 27.0445 14.1439 26.1152 12.7673 26.1152C12.3177 26.1152 11.8769 26.2716 11.5036 26.5553C11.1292 26.2717 10.6859 26.1152 10.2327 26.1152C8.85604 26.1152 7.81793 27.0444 7.81793 28.2765C7.81793 29.5617 8.30069 30.1095 8.62013 30.4721C8.82056 30.6995 8.82056 30.6995 8.75111 30.8521C8.17313 32.1235 8.49961 33.7857 8.95748 34.4967C9.22545 34.9129 9.52316 35.0002 9.72577 35.0002C10.3152 35.0002 10.4736 34.3819 10.6412 33.7272C10.8456 32.9288 11.0651 32.2121 11.5 32.2121C11.935 32.2121 12.1545 32.9288 12.3589 33.7272C12.5265 34.3819 12.6849 35.0002 13.2743 35.0002C13.4769 35.0002 13.7746 34.9129 14.0426 34.4967C14.5005 33.7857 14.8268 32.1235 14.249 30.8521C14.1794 30.6994 14.1794 30.6994 14.3798 30.4721ZM13.6089 29.7928C13.3388 30.0994 12.9689 30.5192 13.3135 31.2772C13.6494 32.0159 13.5435 32.9471 13.366 33.5181C13.3619 33.5025 13.358 33.4872 13.3542 33.4723C13.1352 32.6167 12.7684 31.1847 11.5001 31.1847C10.2318 31.1847 9.86502 32.6167 9.646 33.4723C9.64217 33.4872 9.63827 33.5025 9.63424 33.5181C9.45664 32.9471 9.35075 32.0159 9.6866 31.2772C10.0311 30.5192 9.66124 30.0994 9.39122 29.7928C9.13549 29.5027 8.84551 29.1736 8.84551 28.2765C8.84551 27.6195 9.42902 27.1427 10.2329 27.1427C10.5481 27.1427 10.8756 27.3103 11.1092 27.5911C11.3114 27.8344 11.6969 27.8344 11.8991 27.5911C12.1361 27.3062 12.4526 27.1427 12.7676 27.1427C13.5714 27.1427 14.1549 27.6196 14.1549 28.2765C14.1546 29.1736 13.8647 29.5026 13.6089 29.7928Z" fill="#CFD5DC"/>
</svg>
