<svg width="28" height="34" viewBox="0 0 28 34" fill="none" xmlns="http://www.w3.org/2000/svg">
<path d="M24.0599 24.7262C23.7735 24.7097 23.528 24.9299 23.5122 25.2163C23.4144 26.9804 23.0241 28.7764 22.4424 30.143C22.1663 30.792 21.8795 31.2619 21.6232 31.5686C21.495 31.7221 21.3754 31.8336 21.2696 31.9063C21.1649 31.9783 21.0778 32.0095 21.0116 32.0107C21.006 32.0091 20.9706 31.9981 20.9104 31.9325C20.8312 31.8464 20.7129 31.6701 20.568 31.3122C20.325 30.7122 20.0997 29.8325 19.8599 28.8959L19.859 28.8923C19.4343 27.234 18.9293 25.2617 18.0534 23.7038C17.1759 22.1432 15.9205 20.9891 13.9942 20.9891C12.0679 20.9891 10.8125 22.1432 9.935 23.7038C9.05908 25.2617 8.55403 27.234 8.12941 28.8923L8.1285 28.8958L8.17694 28.9083L8.1285 28.8959C7.88871 29.8325 7.66328 30.7122 7.4204 31.3122C7.2755 31.6701 7.15714 31.8464 7.078 31.9325C7.01778 31.998 6.98244 32.0091 6.97682 32.0107C6.89928 32.0092 6.77833 31.9619 6.62428 31.8337C6.46928 31.7047 6.28611 31.4981 6.08779 31.1901L6.04575 31.2171L6.08779 31.1901C5.3308 30.0145 4.73215 27.9927 4.52951 25.9131C4.28761 23.4315 4.61547 21.0543 5.44971 19.2189C5.92564 18.1719 5.94882 17.3945 5.72111 16.7335C5.49526 16.0779 5.0241 15.5432 4.52735 14.9795L4.5237 14.9754C3.95645 14.3316 3.32426 13.6138 2.83274 12.5426C2.34136 11.4716 1.98938 10.0443 1.98938 7.98238C1.98938 4.51535 4.92239 1.98931 8.98437 1.98931C10.5501 1.98931 12.1522 2.73375 13.3401 4.0011L13.2933 4.06826L13.2933 4.06827C12.8917 4.6459 12.5642 5.11595 12.0884 5.4441C11.6147 5.77079 10.9889 5.95975 9.98631 5.95975C9.69932 5.95975 9.46662 6.19245 9.46662 6.47944C9.46662 6.76643 9.69932 6.99913 9.98631 6.99913C11.2484 6.99913 12.0729 6.72901 12.6914 6.29816C13.3069 5.86938 13.7139 5.28411 14.1442 4.6653L14.1467 4.66167L14.1056 4.63313L14.1467 4.66167C14.2156 4.56253 14.2865 4.46109 14.3591 4.35852C14.3764 4.34297 14.3935 4.32598 14.4094 4.30692L14.4094 4.30684C15.6356 2.83236 17.3107 1.98931 19.004 1.98931C23.066 1.98931 25.999 4.51529 25.999 7.98238C25.999 10.0443 25.647 11.4716 25.1557 12.5425C24.6642 13.6138 24.032 14.3316 23.4647 14.9754L23.4611 14.9795C22.9643 15.5432 22.4932 16.0779 22.2673 16.7335C22.0396 17.3945 22.0628 18.1719 22.5387 19.2189C23.0497 20.3431 23.369 21.639 23.4869 23.0708C23.5105 23.3568 23.7605 23.5692 24.0474 23.546L24.0475 23.546C24.3335 23.5224 24.5463 23.2715 24.5227 22.9855C24.3951 21.4358 24.0462 20.0237 23.4849 18.7888C23.1415 18.0332 23.0951 17.5278 23.2464 17.0778C23.3995 16.6227 23.7562 16.2166 24.2445 15.6624L24.2452 15.6615C24.8322 14.9955 25.5315 14.2019 26.0832 13.0113C26.6353 11.8199 27.0383 10.2339 27.0383 7.98238C27.0383 6.0594 26.2396 4.28609 24.7901 2.98985C23.3179 1.67321 21.2624 0.95 19.004 0.95C17.1788 0.95 15.3877 1.76305 14.009 3.19646C12.6374 1.78157 10.7984 0.95 8.98437 0.95C6.726 0.95 4.67049 1.67321 3.19823 2.98985C1.7487 4.28609 0.95 6.0594 0.95 7.98238C0.95 10.2339 1.35305 11.8199 1.90511 13.0113C2.45676 14.2018 3.15605 14.9954 3.74293 15.6615L3.7438 15.6625C4.23213 16.2167 4.58886 16.6228 4.7419 17.0779C4.89322 17.528 4.84686 18.0333 4.50342 18.7889L4.54894 18.8096L4.50342 18.7889C3.48491 21.0296 3.26758 23.6563 3.50133 26.0275C3.73502 28.398 4.42025 30.5202 5.21384 31.7527C5.76128 32.6028 6.35456 33.05 6.9805 33.05C7.57076 33.05 7.96646 32.6203 8.28344 31.9316C8.60051 31.2427 8.84844 30.2743 9.13432 29.1578L9.13537 29.1537C9.54808 27.5419 10.014 25.7235 10.7897 24.3061C11.6325 22.7661 12.6809 22.0284 13.9942 22.0284C15.3075 22.0284 16.3559 22.7661 17.1987 24.3061C17.9743 25.7234 18.4403 27.5419 18.853 29.1537L18.8541 29.1578C19.1399 30.2744 19.3879 31.2427 19.7049 31.9316C20.0219 32.6203 20.4176 33.05 21.0079 33.05C21.4437 33.05 21.8727 32.8209 22.2753 32.3969C22.6781 31.9727 23.0586 31.3495 23.3988 30.55C24.0266 29.0747 24.4458 27.1519 24.5499 25.2739C24.5658 24.9873 24.3465 24.7421 24.0599 24.7262ZM24.0599 24.7262L24.057 24.7761L24.0598 24.7262C24.0598 24.7262 24.0598 24.7262 24.0599 24.7262ZM23.0117 6.96182H21.0265V4.97657C21.0265 4.68958 20.7938 4.45688 20.5068 4.45688H17.501C17.214 4.45688 16.9813 4.68958 16.9813 4.97657V6.96182H14.9961C14.7091 6.96182 14.4764 7.19452 14.4764 7.4815V10.4874C14.4764 10.7744 14.7091 11.0071 14.9961 11.0071H16.9813V12.9923C16.9813 13.2793 17.214 13.512 17.501 13.512H20.5069C20.7939 13.512 21.0266 13.2793 21.0266 12.9923V11.0071H23.0118C23.2988 11.0071 23.5315 10.7744 23.5315 10.4874V7.4815C23.5314 7.19446 23.2987 6.96182 23.0117 6.96182ZM18.0206 5.49625H19.9872V6.96182H18.0206V5.49625ZM19.9872 12.4726H18.0206V11.007H19.9872V12.4726ZM22.4921 9.96769H15.5157V8.00113H22.4921V9.96769Z" fill="#CFD5DC" stroke="#CFD5DC" stroke-width="0.1"/>
</svg>
