<svg width="186" height="53" viewBox="0 0 186 53" fill="none" xmlns="http://www.w3.org/2000/svg">
<path d="M17.6104 22.3872C17.6104 23.7549 17.3547 24.8888 16.8422 25.7908C16.3289 26.6932 15.6356 27.4088 14.7634 27.9368C13.8923 28.4662 12.8667 28.8352 11.6863 29.0424C10.5073 29.2494 9.25178 29.3532 7.91499 29.3532C7.40256 29.3532 6.88006 29.3408 6.34501 29.3212C5.81186 29.301 5.29388 29.2762 4.79288 29.2429C4.28783 29.2138 3.82208 29.1782 3.3918 29.1337C2.9616 29.0946 2.59189 29.0424 2.28289 28.9788C1.66609 28.8762 1.23176 28.6893 0.976183 28.4193C0.717588 28.1517 0.591309 27.6627 0.591309 26.956V8.04835C0.591309 7.34138 0.712905 6.85538 0.958642 6.58654C1.20668 6.31723 1.62672 6.12968 2.22146 6.02411C2.48751 5.98371 2.8323 5.94156 3.25369 5.89981C3.67373 5.85902 4.13528 5.82354 4.63699 5.79084C5.14117 5.76155 5.65939 5.73631 6.19388 5.71202C6.7256 5.69416 7.23993 5.68408 7.7314 5.68408C9.18836 5.68408 10.5114 5.79084 11.7009 6.01038C12.8919 6.22699 13.9131 6.58654 14.7634 7.08024C15.6161 7.5787 16.2771 8.24265 16.7502 9.0728C17.2218 9.90256 17.4578 10.9407 17.4578 12.1844V12.7458C17.4578 13.761 17.2316 14.6732 16.7809 15.4805C16.3289 16.29 15.6924 16.9004 14.872 17.317C15.6924 17.7294 16.3534 18.3321 16.8556 19.119C17.3611 19.907 17.6104 20.8428 17.6104 21.9197V22.3872ZM12.3795 12.5272C12.3795 11.6756 12.0651 11.0499 11.4396 10.6452C10.8154 10.2402 9.7115 10.0369 8.13088 10.0369C8.00794 10.0369 7.84014 10.0369 7.6229 10.0369C7.40828 10.0369 7.18088 10.0369 6.94593 10.0369C6.71115 10.0369 6.48645 10.0411 6.2692 10.0513C6.05426 10.0637 5.89417 10.0691 5.79305 10.0691V15.4488H9.23987C9.85668 15.4488 10.3633 15.3826 10.7627 15.2467C11.1638 15.1124 11.4822 14.9372 11.7172 14.7189C11.9519 14.5008 12.1228 14.243 12.2252 13.941C12.3282 13.6416 12.3795 13.3255 12.3795 12.9932V12.5272ZM12.5016 21.9197C12.5016 21.1726 12.2667 20.524 11.7938 19.9759C11.3222 19.4249 10.4718 19.1522 9.23987 19.1522H5.79305V24.9672C5.91505 24.9672 6.09395 24.9672 6.33064 24.9672C6.56685 24.9672 6.81227 24.9738 7.0692 24.9827C7.32652 24.9939 7.57139 24.9992 7.80943 24.9992C8.04302 24.9992 8.21327 24.9992 8.31749 24.9992C9.89604 24.9992 10.9888 24.7601 11.594 24.2831C12.1989 23.8084 12.5016 23.1319 12.5016 22.2627V21.9197Z" fill="white"/>
<path d="M115.675 6.5184C115.675 6.54118 115.672 6.56285 115.66 6.58333C115.647 6.60349 115.644 6.63524 115.644 6.67477L111.058 25.9601C110.872 26.7077 110.608 27.3107 110.257 27.7646C109.91 28.2214 109.506 28.568 109.041 28.8083C108.579 29.0468 108.089 29.2052 107.564 29.29C107.042 29.3726 106.514 29.4134 105.982 29.4134C105.447 29.4134 104.917 29.3726 104.379 29.29C103.844 29.2052 103.347 29.0468 102.887 28.8083C102.425 28.568 102.021 28.2214 101.674 27.7646C101.322 27.3107 101.056 26.7077 100.87 25.9601L96.2836 6.67477C96.2836 6.63524 96.2814 6.60857 96.2714 6.59817C96.261 6.58801 96.2534 6.56285 96.2534 6.5184C96.2534 6.37744 96.3064 6.25576 96.4092 6.16321C96.5075 6.07058 96.6404 6.02344 96.8089 6.02344H101.084C101.25 6.02344 101.385 6.07654 101.483 6.17686C101.588 6.28124 101.659 6.41697 101.702 6.58333L105.55 24.5313C105.61 24.8406 105.756 24.9972 105.982 24.9972C106.205 24.9972 106.349 24.8406 106.411 24.5313L110.257 6.58333C110.302 6.41697 110.367 6.28124 110.46 6.17686C110.55 6.07654 110.679 6.02344 110.845 6.02344H115.152C115.499 6.02344 115.675 6.18996 115.675 6.5184Z" fill="white"/>
<path d="M151.087 52.3849C142.754 52.3849 138.513 49.9499 134.412 47.5942C130.294 45.2248 126.038 42.7766 117.655 42.7766C109.27 42.7766 105.014 45.2248 100.898 47.593C96.7988 49.9499 92.5589 52.3849 84.2213 52.3849C75.8861 52.3849 71.6473 49.9499 67.5481 47.5942C63.4299 45.2248 59.174 42.7766 50.7921 42.7766C42.4103 42.7766 38.1539 45.2248 34.0379 47.593C29.9368 49.9499 25.6981 52.3849 17.3633 52.3849C9.02741 52.3849 4.78885 49.9499 0.69038 47.593L0 47.2019L2.54452 42.6841L3.23029 43.0733C7.07207 45.2818 10.3882 47.1865 17.3633 47.1865C24.3378 47.1865 27.6535 45.2818 31.4928 43.0745C35.7503 40.6269 41.0488 37.5781 50.7921 37.5781C60.5353 37.5781 65.8337 40.6269 70.0905 43.0745C73.9306 45.2818 77.246 47.1865 84.2213 47.1865C91.1989 47.1865 94.5143 45.2807 98.355 43.0745C102.61 40.6269 107.907 37.5781 117.655 37.5781C127.401 37.5781 132.698 40.6269 136.954 43.0745C140.795 45.2807 144.113 47.1865 151.087 47.1865C158.065 47.1865 161.38 45.2818 165.22 43.0745L165.913 42.6829L168.447 47.2056L167.762 47.5942C163.664 49.9499 159.425 52.3849 151.087 52.3849Z" fill="white"/>
<path d="M19.1909 40.5035C19.1909 40.8245 19.4457 41.0807 19.7616 41.0807C20.075 41.0807 20.3301 40.8245 20.3301 40.5035C20.3301 40.1879 20.075 39.9297 19.7616 39.9297C19.4457 39.9297 19.1909 40.1879 19.1909 40.5035Z" fill="#ADED1A"/>
<path d="M18.465 43.2191C16.7802 43.2191 14.6462 42.1558 12.9711 41.1227C12.0032 41.7315 11.1434 42.3575 10.5508 42.8335C10.4391 42.9224 10.2753 42.9047 10.1873 42.7913C10.098 42.6775 10.1163 42.5137 10.2274 42.4235C10.314 42.3539 11.2234 41.6301 12.4849 40.8154C11.2234 40.0007 10.314 39.2774 10.2274 39.2092C10.1163 39.119 10.098 38.9534 10.1873 38.8407C10.2753 38.7268 10.4391 38.709 10.5508 38.7975C11.1434 39.275 12.0032 39.8993 12.9711 40.5098C14.6462 39.4767 16.7802 38.4116 18.465 38.4116C21.8652 38.4116 22.8555 40.6166 22.8968 40.7117C22.9265 40.7774 22.9265 40.854 22.8968 40.9211C22.8555 41.0136 21.8652 43.2191 18.465 43.2191ZM13.4689 40.8154C15.1394 41.8159 17.0437 42.6964 18.465 42.6964C21.1355 42.6964 22.1377 41.2308 22.3694 40.8166C22.1377 40.4007 21.1355 38.935 18.465 38.935C17.0418 38.935 15.1394 39.8168 13.4689 40.8154Z" fill="#ADED1A"/>
<path d="M33.3922 28.9161C33.3922 29.0834 33.3308 29.2259 33.2076 29.353C33.0841 29.4775 32.9414 29.5392 32.7774 29.5392H29.3307C29.1662 29.5392 29.0207 29.4775 28.8988 29.353C28.7756 29.2259 28.7134 29.0834 28.7134 28.9161V28.4201C28.1187 28.8556 27.4875 29.1968 26.8221 29.4442C26.1541 29.6951 25.3596 29.8186 24.436 29.8186C23.7603 29.8186 23.1065 29.7296 22.481 29.5546C21.8555 29.3796 21.2962 29.0834 20.8038 28.6687C20.3123 28.2528 19.9171 27.7057 19.6178 27.018C19.3207 26.3349 19.1736 25.4848 19.1736 24.4684V24.1878C19.1736 22.3624 19.7727 21.0328 20.9729 20.1908C22.1727 19.3536 24.098 18.9334 26.7429 18.9334H28.4051V17.8138C28.4051 16.9205 28.201 16.3405 27.7916 16.0687C27.3804 15.8 26.8165 15.6664 26.0968 15.6664C25.6045 15.6664 25.1073 15.6706 24.6046 15.6818C24.1025 15.6907 23.6189 15.7085 23.158 15.7288C22.6972 15.7477 22.2815 15.7732 21.9115 15.8062C21.5429 15.8367 21.234 15.8634 20.988 15.8836H20.8347C20.6689 15.8836 20.5371 15.8429 20.4342 15.7577C20.331 15.6768 20.2796 15.532 20.2796 15.3241V12.8034C20.2796 12.4506 20.4748 12.2248 20.8652 12.1205C21.4401 11.976 22.2153 11.83 23.1907 11.6855C24.1628 11.5395 25.1644 11.4673 26.1911 11.4673C27.2994 11.4673 28.2996 11.5864 29.1906 11.8262C30.0836 12.0635 30.837 12.439 31.4538 12.9444C32.0693 13.4559 32.5466 14.1071 32.8863 14.904C33.224 15.702 33.3922 16.6727 33.3922 17.8138V28.9161ZM28.4981 21.9169H26.7429C26.2111 21.9169 25.7709 21.9655 25.4225 22.0582C25.0733 22.1518 24.7938 22.2913 24.5897 22.4764C24.3845 22.6657 24.2406 22.903 24.1584 23.1926C24.0762 23.4834 24.0364 23.8168 24.0364 24.1878V24.4684C24.0364 25.1317 24.1948 25.556 24.5118 25.7435C24.8297 25.9291 25.3168 26.0252 25.9752 26.0252C26.4477 26.0252 26.8923 25.9553 27.3126 25.8223C27.7343 25.6866 28.1296 25.5252 28.4981 25.34V21.9169Z" fill="white"/>
<path d="M42.3185 9.07355C42.3185 9.23729 42.257 9.38326 42.1352 9.50605C42.0115 9.63074 41.8664 9.69535 41.7021 9.69535H37.7027C37.5355 9.69535 37.3942 9.63074 37.2699 9.50605C37.1475 9.38326 37.0859 9.23729 37.0859 9.07355V6.17741C37.0859 6.0147 37.1475 5.86762 37.2699 5.74467C37.3942 5.61903 37.5355 5.55664 37.7027 5.55664H41.7021C41.8664 5.55664 42.0115 5.61903 42.1352 5.74467C42.257 5.86762 42.3185 6.0147 42.3185 6.17741V9.07355ZM42.1967 28.9161C42.1967 29.0834 42.1352 29.2259 42.0115 29.3529C41.8885 29.4775 41.7445 29.5391 41.58 29.5391H37.8251C37.6604 29.5391 37.5192 29.4775 37.3942 29.3529C37.2698 29.2259 37.2097 29.0834 37.2097 28.9161V12.3388C37.2097 12.1727 37.2698 12.0266 37.3942 11.9024C37.5192 11.7792 37.6604 11.7157 37.8251 11.7157H41.58C41.7445 11.7157 41.8885 11.7792 42.0115 11.9024C42.1352 12.0266 42.1967 12.1727 42.1967 12.3388V28.9161Z" fill="white"/>
<path d="M61.3411 12.057C61.3411 12.1615 61.2982 12.2654 61.2173 12.3695L55.4917 20.2384L61.1866 28.8849C61.2265 28.9274 61.2486 29.0076 61.2486 29.1358C61.2486 29.4028 61.1149 29.5393 60.8487 29.5393H56.1994C56.0348 29.5393 55.8967 29.5126 55.7856 29.4622C55.6705 29.4075 55.5532 29.2895 55.4314 29.1032L50.9993 21.7943V28.8849C50.9993 29.051 50.9377 29.2034 50.8141 29.3364C50.6892 29.4711 50.5472 29.5393 50.3808 29.5393H46.6596C46.4938 29.5393 46.3455 29.4711 46.2119 29.3364C46.078 29.2034 46.0122 29.051 46.0122 28.8849V6.30561C46.0122 6.13829 46.078 5.99352 46.2119 5.86779C46.3455 5.74484 46.4938 5.68262 46.6596 5.68262H50.3808C50.5472 5.68262 50.6892 5.74484 50.8141 5.86779C50.9377 5.99352 50.9993 6.13829 50.9993 6.30561V19.3054L55.6768 12.1816C55.7985 11.9967 55.9336 11.8708 56.0774 11.8096C56.2212 11.7462 56.3552 11.7159 56.4768 11.7159H60.8781C61.1866 11.7159 61.3411 11.8302 61.3411 12.057Z" fill="white"/>
<path d="M77.1017 28.9161C77.1017 29.0834 77.0382 29.2259 76.9151 29.353C76.7915 29.4775 76.6489 29.5392 76.4841 29.5392H73.0363C72.8736 29.5392 72.728 29.4775 72.6073 29.353C72.4843 29.2259 72.4228 29.0834 72.4228 28.9161V28.4201C71.8275 28.8556 71.1944 29.1968 70.5284 29.4442C69.8613 29.6951 69.0671 29.8186 68.1434 29.8186C67.4645 29.8186 66.814 29.7296 66.1884 29.5546C65.5631 29.3796 65.0048 29.0834 64.5112 28.6687C64.0178 28.2528 63.6227 27.7057 63.3262 27.018C63.028 26.3349 62.8799 25.4848 62.8799 24.4684V24.1878C62.8799 22.3624 63.4801 21.0328 64.6803 20.1908C65.8816 19.3536 67.8056 18.9334 70.4515 18.9334H72.1145V17.8138C72.1145 16.9205 71.9098 16.3405 71.4991 16.0687C71.086 15.8 70.5222 15.6664 69.8054 15.6664C69.3139 15.6664 68.8138 15.6706 68.3124 15.6818C67.8081 15.6907 67.3282 15.7085 66.8655 15.7288C66.4047 15.7477 65.989 15.7732 65.6189 15.8062C65.2504 15.8367 64.9416 15.8634 64.6965 15.8836H64.542C64.3776 15.8836 64.2444 15.8429 64.1395 15.7577C64.0383 15.6768 63.9871 15.532 63.9871 15.3241V12.8034C63.9871 12.4506 64.1822 12.2248 64.5728 12.1205C65.1475 11.976 65.9229 11.83 66.8962 11.6855C67.8715 11.5395 68.8717 11.4673 69.8978 11.4673C71.0056 11.4673 72.0052 11.5864 72.8979 11.8262C73.791 12.0635 74.5445 12.439 75.1599 12.9444C75.7753 13.4559 76.2527 14.1071 76.5917 14.904C76.9308 15.702 77.1017 16.6727 77.1017 17.8138V28.9161ZM72.2068 21.9169H70.4515C69.9171 21.9169 69.4764 21.9655 69.1286 22.0582C68.7776 22.1518 68.5013 22.2913 68.2972 22.4764C68.0918 22.6657 67.9479 22.903 67.8657 23.1926C67.7836 23.4834 67.7439 23.8168 67.7439 24.1878V24.4684C67.7439 25.1317 67.9009 25.556 68.2192 25.7435C68.5383 25.9291 69.0255 26.0252 69.6823 26.0252C70.1533 26.0252 70.6018 25.9553 71.0217 25.8223C71.44 25.6866 71.8351 25.5252 72.2068 25.34V21.9169Z" fill="white"/>
<path d="M85.6112 29.3364C85.4996 29.4711 85.3603 29.5393 85.1976 29.5393H81.4411C81.2749 29.5393 81.128 29.4711 80.9949 29.3364C80.8611 29.2034 80.7932 29.051 80.7932 28.8849V6.30561C80.7932 6.13829 80.8611 5.99352 80.9949 5.86779C81.128 5.74484 81.2749 5.68262 81.4411 5.68262H85.1976C85.3603 5.68262 85.4996 5.74484 85.6112 5.86779C85.7232 5.99352 85.7784 6.13829 85.7784 6.30561V28.8849C85.7784 29.051 85.7232 29.2034 85.6112 29.3364Z" fill="white"/>
<path d="M123.824 9.07355C123.824 9.23729 123.762 9.38326 123.641 9.50605C123.518 9.63074 123.372 9.69535 123.209 9.69535H119.208C119.039 9.69535 118.898 9.63074 118.776 9.50605C118.652 9.38326 118.592 9.23729 118.592 9.07355V6.17741C118.592 6.0147 118.652 5.86762 118.776 5.74467C118.898 5.61903 119.039 5.55664 119.208 5.55664H123.209C123.372 5.55664 123.518 5.61903 123.641 5.74467C123.762 5.86762 123.824 6.0147 123.824 6.17741V9.07355ZM123.701 28.9161C123.701 29.0834 123.641 29.2259 123.518 29.3529C123.392 29.4775 123.249 29.5391 123.086 29.5391H119.331C119.165 29.5391 119.022 29.4775 118.899 29.3529C118.776 29.2259 118.715 29.0834 118.715 28.9161V12.3388C118.715 12.1727 118.776 12.0266 118.899 11.9024C119.022 11.7792 119.165 11.7157 119.331 11.7157H123.086C123.249 11.7157 123.392 11.7792 123.518 11.9024C123.641 12.0266 123.701 12.1727 123.701 12.3388V28.9161Z" fill="white"/>
<path d="M142.446 21.4517C142.446 21.95 142.228 22.1987 141.798 22.1987H131.977V22.2587C131.977 22.6901 132.03 23.1137 132.136 23.5249C132.236 23.936 132.412 24.2927 132.658 24.6025C132.902 24.911 133.226 25.1585 133.628 25.3412C134.027 25.5263 134.534 25.6206 135.15 25.6206C135.639 25.6206 136.167 25.6076 136.722 25.5875C137.275 25.5697 137.822 25.5464 138.367 25.5252C138.907 25.5073 139.417 25.4794 139.892 25.448C140.362 25.419 140.751 25.381 141.057 25.34H141.153C141.542 25.34 141.738 25.5073 141.738 25.8389V28.2195C141.738 28.4706 141.698 28.6598 141.615 28.7844C141.53 28.9103 141.359 29.0039 141.093 29.0675C140.103 29.3172 139.139 29.5053 138.196 29.6293C137.254 29.7563 136.112 29.8186 134.783 29.8186C133.859 29.8186 132.934 29.6828 132.01 29.4138C131.088 29.1433 130.257 28.6977 129.518 28.0759C128.777 27.4559 128.185 26.6305 127.732 25.604C127.283 24.5782 127.057 23.3184 127.057 21.8267V19.648C127.057 18.403 127.228 17.2732 127.579 16.2568C127.928 15.2403 128.436 14.3812 129.104 13.6753C129.77 12.9707 130.583 12.4266 131.548 12.0446C132.512 11.6589 133.613 11.4673 134.843 11.4673C136.096 11.4673 137.197 11.6739 138.151 12.0902C139.105 12.5037 139.899 13.074 140.537 13.8009C141.176 14.5242 141.648 15.3863 141.969 16.3827C142.286 17.3762 142.446 18.4638 142.446 19.648V21.4517ZM137.581 18.9637C137.581 17.8025 137.337 16.9383 136.843 16.3673C136.353 15.7973 135.675 15.5103 134.811 15.5103C133.952 15.5103 133.263 15.8 132.751 16.3827C132.236 16.9634 131.977 17.8227 131.977 18.9637V19.0883H137.581V18.9637Z" fill="white"/>
<path d="M168.946 12.3695L166.211 27.3628C166.04 28.2529 165.711 28.8391 165.208 29.118C164.704 29.3998 164.133 29.5393 163.498 29.5393H161.621C160.883 29.5393 160.31 29.3553 159.898 28.9963C159.487 28.6321 159.2 28.1495 159.037 27.5474L156.975 19.4295C156.952 19.3282 156.902 19.2747 156.822 19.2747C156.736 19.2747 156.686 19.3282 156.666 19.4295L154.601 27.5474C154.443 28.1495 154.151 28.6321 153.742 28.9963C153.333 29.3553 152.757 29.5393 152.019 29.5393H150.14C149.814 29.5393 149.505 29.5078 149.218 29.4443C148.929 29.382 148.671 29.2716 148.432 29.118C148.199 28.9632 147.993 28.7424 147.817 28.4504C147.646 28.1615 147.515 27.7971 147.432 27.3628L144.692 12.3695V12.244C144.692 12.1005 144.732 11.9761 144.813 11.8708C144.898 11.7681 145.011 11.7158 145.157 11.7158H148.877C149.063 11.7158 149.206 11.7461 149.309 11.8096C149.412 11.8708 149.485 12.0155 149.523 12.244L151.341 24.0632C151.383 24.3337 151.441 24.4685 151.524 24.4685C151.627 24.4685 151.707 24.3337 151.773 24.0632L153.835 15.8519C153.978 15.3141 154.177 14.9474 154.435 14.7479C154.691 14.5509 155.068 14.4522 155.556 14.4522H158.085C158.572 14.4522 158.946 14.5509 159.203 14.7479C159.461 14.9474 159.662 15.3141 159.806 15.8519L161.867 24.0632C161.93 24.3337 162.011 24.4685 162.116 24.4685C162.197 24.4685 162.254 24.3337 162.3 24.0632L164.116 12.244C164.158 12.0155 164.226 11.8708 164.329 11.8096C164.435 11.7461 164.575 11.7158 164.759 11.7158H168.486C168.627 11.7158 168.745 11.7681 168.825 11.8708C168.908 11.9761 168.946 12.1005 168.946 12.244V12.3695Z" fill="white"/>
<path d="M138.597 1.08296C138.597 1.20559 138.529 1.26686 138.393 1.26686H136.602V7.4683C136.602 7.5245 136.583 7.57212 136.542 7.613C136.503 7.65221 136.453 7.67261 136.397 7.67261H135.389C135.333 7.67261 135.285 7.65221 135.244 7.613C135.205 7.57212 135.185 7.5245 135.185 7.4683V1.26686H133.395C133.257 1.26686 133.189 1.20559 133.189 1.08296V0.274152C133.189 0.22137 133.21 0.175412 133.251 0.137948C133.29 0.0988176 133.337 0.0800854 133.395 0.0800854H138.393C138.449 0.0800854 138.498 0.0988176 138.538 0.137948C138.578 0.175412 138.597 0.22137 138.597 0.274152V1.08296ZM143.511 4.48509L145.114 7.4683C145.131 7.4887 145.137 7.51426 145.137 7.54831C145.137 7.63173 145.097 7.67261 145.013 7.67261H143.767C143.719 7.67261 143.685 7.65729 143.661 7.62832C143.639 7.59768 143.55 7.44441 143.397 7.16859L142.09 4.73876H141.95C141.764 4.73876 141.459 4.72686 141.037 4.69964V7.4683C141.037 7.5245 141.02 7.57212 140.983 7.613C140.947 7.65221 140.899 7.67261 140.843 7.67261H139.825C139.769 7.67261 139.721 7.65221 139.68 7.613C139.641 7.57212 139.621 7.5245 139.621 7.4683V0.439327C139.621 0.328682 139.66 0.248595 139.738 0.197559C139.816 0.146443 140.089 0.100487 140.557 0.0596106C141.024 0.0204801 141.488 0 141.95 0C142.895 0 143.62 0.19581 144.128 0.585766C144.635 0.977389 144.889 1.55125 144.889 2.31069V2.39919C144.889 3.42428 144.429 4.11895 143.511 4.48509ZM143.482 2.39919V2.31069C143.482 1.93097 143.356 1.65341 143.103 1.47974C142.851 1.30433 142.466 1.21749 141.95 1.21749C141.625 1.21749 141.32 1.23114 141.037 1.25662V3.55707C141.42 3.57747 141.725 3.58771 141.95 3.58771C142.512 3.58771 142.908 3.4958 143.138 3.31189C143.367 3.12965 143.482 2.82486 143.482 2.39919ZM147.647 5.55781L147.342 6.80419C147.23 7.27757 147.169 7.52616 147.16 7.54997C147.153 7.57553 147.131 7.60276 147.096 7.63006C147.062 7.65895 147.024 7.67261 146.983 7.67261H145.902C145.778 7.67261 145.716 7.61474 145.716 7.49719C145.716 7.49211 145.72 7.47505 145.727 7.44782L147.402 1.04208C147.583 0.347413 148.056 0 148.826 0C149.59 0 150.062 0.347413 150.242 1.04208L151.928 7.49719C151.928 7.61474 151.867 7.67261 151.742 7.67261H150.661C150.557 7.67261 150.493 7.61641 150.465 7.50235L149.997 5.55781H147.647ZM149.723 4.39485L149.198 2.23576C149.042 1.59721 148.955 1.26345 148.935 1.23789C148.914 1.21067 148.878 1.19709 148.826 1.19709C148.746 1.19709 148.696 1.22599 148.679 1.28218L147.921 4.39485H149.723ZM157.365 0.0800854C157.488 0.0800854 157.549 0.137951 157.549 0.255422C157.549 0.263914 157.545 0.280977 157.539 0.304789L155.863 6.71054C155.686 7.40528 155.214 7.75261 154.446 7.75261C153.682 7.75261 153.207 7.40528 153.025 6.71054L151.339 0.255422C151.339 0.137951 151.4 0.0800854 151.523 0.0800854H152.606C152.708 0.0800854 152.773 0.137951 152.8 0.255422L154.281 6.39558C154.309 6.50448 154.363 6.56068 154.446 6.56068C154.53 6.56068 154.584 6.50448 154.61 6.39558L156.088 0.255422C156.113 0.137951 156.178 0.0800854 156.282 0.0800854H157.365ZM162.669 7.39845C162.669 7.48187 162.647 7.5364 162.606 7.5653C162.565 7.59427 162.351 7.63173 161.966 7.67943C161.579 7.7288 161.099 7.75261 160.524 7.75261C159.659 7.75261 159.049 7.58069 158.695 7.23669C158.341 6.89103 158.163 6.36661 158.163 5.66163V2.09614C158.163 1.38774 158.341 0.85992 158.695 0.51592C159.049 0.172 159.659 0 160.524 0C161.002 0 161.462 0.0238895 161.903 0.0698461C162.344 0.115803 162.58 0.158347 162.616 0.194144C162.65 0.231608 162.669 0.286058 162.669 0.359319V1.01319C162.669 1.06938 162.648 1.11701 162.609 1.15788C162.568 1.19709 162.521 1.21749 162.465 1.21749H160.379C160.069 1.21749 159.858 1.28218 159.742 1.41164C159.628 1.54101 159.57 1.76921 159.57 2.09614V3.19775H162.339C162.396 3.19775 162.444 3.21823 162.483 3.25736C162.524 3.29824 162.543 3.34594 162.543 3.40214V4.13601C162.543 4.19221 162.524 4.23983 162.483 4.28071C162.444 4.31992 162.396 4.34032 162.339 4.34032H159.57V5.66163C159.57 5.98856 159.628 6.21676 159.742 6.34614C159.858 6.47559 160.069 6.54028 160.379 6.54028H162.465C162.521 6.54028 162.568 6.56068 162.609 6.59989C162.648 6.64077 162.669 6.68839 162.669 6.74459V7.39845ZM168.351 7.39845C168.351 7.49211 168.314 7.55339 168.24 7.58577C168.167 7.61641 167.932 7.65221 167.537 7.693C167.142 7.73221 166.766 7.75261 166.41 7.75261C165.545 7.75261 164.935 7.58069 164.581 7.23669C164.227 6.89103 164.05 6.36661 164.05 5.66163V0.284392C164.05 0.228196 164.07 0.180491 164.109 0.139615C164.15 0.100484 164.198 0.0800854 164.254 0.0800854H165.262C165.318 0.0800854 165.368 0.100484 165.407 0.139615C165.448 0.180491 165.467 0.228196 165.467 0.284392V5.66163C165.467 5.98856 165.523 6.21676 165.637 6.34614C165.749 6.47559 165.959 6.54028 166.265 6.54028H168.145C168.203 6.54028 168.251 6.56068 168.29 6.59989C168.331 6.64077 168.351 6.68839 168.351 6.74459V7.39845ZM173.624 7.39845C173.624 7.49211 173.587 7.55339 173.514 7.58577C173.441 7.61641 173.206 7.65221 172.811 7.693C172.415 7.73221 172.039 7.75261 171.683 7.75261C170.818 7.75261 170.209 7.58069 169.855 7.23669C169.5 6.89103 169.323 6.36661 169.323 5.66163V0.284392C169.323 0.228196 169.344 0.180491 169.383 0.139615C169.424 0.100484 169.471 0.0800854 169.528 0.0800854H170.536C170.592 0.0800854 170.641 0.100484 170.68 0.139615C170.721 0.180491 170.74 0.228196 170.74 0.284392V5.66163C170.74 5.98856 170.796 6.21676 170.91 6.34614C171.023 6.47559 171.232 6.54028 171.539 6.54028H173.418C173.476 6.54028 173.524 6.56068 173.563 6.59989C173.604 6.64077 173.624 6.68839 173.624 6.74459V7.39845ZM179.102 7.39845C179.102 7.48187 179.08 7.5364 179.039 7.5653C178.998 7.59427 178.784 7.63173 178.399 7.67943C178.012 7.7288 177.532 7.75261 176.957 7.75261C176.092 7.75261 175.482 7.58069 175.128 7.23669C174.774 6.89103 174.597 6.36661 174.597 5.66163V2.09614C174.597 1.38774 174.774 0.85992 175.128 0.51592C175.482 0.172 176.092 0 176.957 0C177.435 0 177.895 0.0238895 178.336 0.0698461C178.777 0.115803 179.014 0.158347 179.049 0.194144C179.083 0.231608 179.102 0.286058 179.102 0.359319V1.01319C179.102 1.06938 179.082 1.11701 179.043 1.15788C179.002 1.19709 178.954 1.21749 178.898 1.21749H176.812C176.502 1.21749 176.291 1.28218 176.175 1.41164C176.061 1.54101 176.003 1.76921 176.003 2.09614V3.19775H178.772C178.83 3.19775 178.877 3.21823 178.917 3.25736C178.957 3.29824 178.976 3.34594 178.976 3.40214V4.13601C178.976 4.19221 178.957 4.23983 178.917 4.28071C178.877 4.31992 178.83 4.34032 178.772 4.34032H176.003V5.66163C176.003 5.98856 176.061 6.21676 176.175 6.34614C176.291 6.47559 176.502 6.54028 176.812 6.54028H178.898C178.954 6.54028 179.002 6.56068 179.043 6.59989C179.082 6.64077 179.102 6.68839 179.102 6.74459V7.39845ZM184.374 4.48509L185.976 7.4683C185.993 7.4887 186 7.51426 186 7.54831C186 7.63173 185.959 7.67261 185.876 7.67261H184.629C184.582 7.67261 184.548 7.65729 184.524 7.62832C184.502 7.59768 184.413 7.44441 184.26 7.16859L182.952 4.73876H182.812C182.627 4.73876 182.322 4.72686 181.9 4.69964V7.4683C181.9 7.5245 181.883 7.57212 181.845 7.613C181.81 7.65221 181.762 7.67261 181.706 7.67261H180.687C180.631 7.67261 180.584 7.65221 180.543 7.613C180.504 7.57212 180.483 7.5245 180.483 7.4683V0.439327C180.483 0.328682 180.522 0.248595 180.601 0.197559C180.679 0.146443 180.951 0.100487 181.42 0.0596106C181.886 0.0204801 182.351 0 182.812 0C183.758 0 184.483 0.19581 184.99 0.585766C185.498 0.977389 185.751 1.55125 185.751 2.31069V2.39919C185.751 3.42428 185.292 4.11895 184.374 4.48509ZM184.345 2.39919V2.31069C184.345 1.93097 184.219 1.65341 183.965 1.47974C183.713 1.30433 183.328 1.21749 182.812 1.21749C182.487 1.21749 182.182 1.23114 181.9 1.25662V3.55707C182.283 3.57747 182.588 3.58771 182.812 3.58771C183.374 3.58771 183.771 3.4958 184.001 3.31189C184.229 3.12965 184.345 2.82486 184.345 2.39919Z" fill="#ADED1A"/>
</svg>
