<svg width="292" height="83" viewBox="0 0 292 83" fill="none" xmlns="http://www.w3.org/2000/svg">
<path d="M27.5863 35.0686C27.5863 37.2111 27.1858 38.9874 26.383 40.4003C25.5788 41.814 24.4928 42.9349 23.1265 43.7621C21.7619 44.5914 20.1554 45.1695 18.3062 45.494C16.4593 45.8182 14.4926 45.9809 12.3985 45.9809C11.5958 45.9809 10.7773 45.9615 9.93915 45.9308C9.10399 45.8991 8.29257 45.8601 7.50776 45.808C6.7166 45.7624 5.987 45.7067 5.31297 45.637C4.63907 45.5757 4.05991 45.494 3.57587 45.3944C2.60966 45.2336 1.92929 44.9408 1.52893 44.5179C1.12384 44.0987 0.926025 43.3326 0.926025 42.2257V12.6069C0.926025 11.4995 1.11651 10.7381 1.50145 10.317C1.89 9.89515 2.54799 9.60134 3.47964 9.43597C3.89642 9.37269 4.43653 9.30666 5.09663 9.24126C5.75462 9.17735 6.47763 9.12178 7.26356 9.07055C8.05335 9.02467 8.86514 8.98513 9.70242 8.94709C10.5353 8.91911 11.341 8.90332 12.1109 8.90332C14.3932 8.90332 16.4658 9.07055 18.3291 9.41446C20.1948 9.75378 21.7945 10.317 23.1265 11.0904C24.4622 11.8712 25.4977 12.9113 26.2388 14.2117C26.9776 15.5115 27.3473 17.1377 27.3473 19.086V19.9654C27.3473 21.5558 26.993 22.9846 26.2869 24.2494C25.5788 25.5175 24.5819 26.4736 23.2966 27.1263C24.5819 27.7722 25.6172 28.7164 26.404 29.9491C27.1958 31.1835 27.5863 32.6493 27.5863 34.3363V35.0686ZM19.3922 19.6231C19.3922 18.289 18.8996 17.3088 17.9198 16.6748C16.942 16.0405 15.2127 15.722 12.7367 15.722C12.5441 15.722 12.2813 15.722 11.941 15.722C11.6048 15.722 11.2485 15.722 10.8805 15.722C10.5127 15.722 10.1607 15.7286 9.82041 15.7445C9.48371 15.7639 9.23292 15.7724 9.07452 15.7724V24.1997H14.4739C15.4402 24.1997 16.2338 24.096 16.8595 23.8831C17.4877 23.6727 17.9866 23.3983 18.3546 23.0563C18.7224 22.7146 18.9901 22.3107 19.1505 21.8378C19.3117 21.3688 19.3922 20.8735 19.3922 20.3529V19.6231ZM19.5834 34.3363C19.5834 33.166 19.2154 32.15 18.4746 31.2913C17.7359 30.4282 16.4038 30.0011 14.4739 30.0011H9.07452V39.1102C9.26562 39.1102 9.54588 39.1102 9.91665 39.1102C10.2867 39.1102 10.6711 39.1205 11.0736 39.1344C11.4767 39.152 11.8603 39.1603 12.2332 39.1603C12.5991 39.1603 12.8658 39.1603 13.029 39.1603C15.5018 39.1603 17.2137 38.7858 18.1616 38.0385C19.1092 37.2949 19.5834 36.2353 19.5834 34.8735V34.3363Z" fill="#365BA2"/>
<path d="M181.204 10.2109C181.204 10.2466 181.2 10.2805 181.18 10.3126C181.16 10.3442 181.156 10.3939 181.156 10.4559L173.972 40.6662C173.681 41.8373 173.267 42.7819 172.716 43.493C172.173 44.2085 171.54 44.7514 170.812 45.1279C170.088 45.5015 169.321 45.7497 168.499 45.8825C167.68 46.0118 166.854 46.0758 166.02 46.0758C165.182 46.0758 164.351 46.0118 163.509 45.8825C162.671 45.7497 161.893 45.5015 161.172 45.1279C160.449 44.7514 159.815 44.2085 159.272 43.493C158.72 42.7819 158.304 41.8373 158.012 40.6662L150.828 10.4559C150.828 10.3939 150.824 10.3521 150.808 10.3359C150.792 10.3199 150.78 10.2805 150.78 10.2109C150.78 9.99008 150.863 9.79948 151.024 9.6545C151.178 9.5094 151.387 9.43555 151.651 9.43555H158.347C158.607 9.43555 158.819 9.51873 158.973 9.67589C159.138 9.83939 159.248 10.052 159.315 10.3126L165.343 38.428C165.437 38.9124 165.666 39.1579 166.02 39.1579C166.37 39.1579 166.594 38.9124 166.693 38.428L172.716 10.3126C172.788 10.052 172.889 9.83939 173.035 9.67589C173.176 9.51873 173.378 9.43555 173.637 9.43555H180.385C180.928 9.43555 181.204 9.6964 181.204 10.2109Z" fill="#365BA2"/>
<path d="M236.677 82.061C223.623 82.061 216.98 78.2465 210.555 74.5563C204.105 70.8446 197.438 67.0096 184.306 67.0096C171.171 67.0096 164.503 70.8446 158.056 74.5544C151.635 78.2465 144.993 82.061 131.932 82.061C118.875 82.061 112.235 78.2465 105.814 74.5563C99.3625 70.8446 92.6956 67.0096 79.5655 67.0096C66.4354 67.0096 59.7678 70.8446 53.3202 74.5544C46.8957 78.2465 40.256 82.061 27.1994 82.061C14.1414 82.061 7.5017 78.2465 1.08148 74.5544L0 73.9418L3.98597 66.8648L5.06023 67.4744C11.0784 70.9339 16.273 73.9177 27.1994 73.9177C38.125 73.9177 43.319 70.9339 49.3332 67.4762C56.0026 63.6421 64.3027 58.8662 79.5655 58.8662C94.8281 58.8662 103.128 63.6421 109.796 67.4762C115.812 70.9339 121.005 73.9177 131.932 73.9177C142.862 73.9177 148.056 70.9322 154.072 67.4762C160.737 63.6421 169.036 58.8662 184.306 58.8662C199.573 58.8662 207.871 63.6421 214.538 67.4762C220.554 70.9322 225.752 73.9177 236.677 73.9177C247.608 73.9177 252.801 70.9339 258.815 67.4762L259.901 66.8628L263.871 73.9476L262.798 74.5563C256.378 78.2465 249.738 82.061 236.677 82.061Z" fill="#365BA2"/>
<path d="M30.0623 63.4486C30.0623 63.9514 30.4614 64.3529 30.9562 64.3529C31.4472 64.3529 31.8467 63.9514 31.8467 63.4486C31.8467 62.9543 31.4472 62.5498 30.9562 62.5498C30.4614 62.5498 30.0623 62.9543 30.0623 63.4486Z" fill="#ADED1A"/>
<path d="M28.9251 67.7028C26.2859 67.7028 22.943 66.0371 20.3189 64.4188C18.8028 65.3725 17.456 66.3531 16.5277 67.0987C16.3526 67.238 16.096 67.2102 15.9582 67.0326C15.8183 66.8543 15.8469 66.5977 16.021 66.4564C16.1566 66.3474 17.5813 65.2136 19.5574 63.9374C17.5813 62.6611 16.1566 61.5281 16.021 61.4213C15.8469 61.28 15.8183 61.0206 15.9582 60.844C16.096 60.6656 16.3526 60.6376 16.5277 60.7763C17.456 61.5243 18.8028 62.5023 20.3189 63.4587C22.943 61.8403 26.2859 60.1719 28.9251 60.1719C34.2515 60.1719 35.8028 63.6259 35.8675 63.7749C35.914 63.8778 35.914 63.9978 35.8675 64.103C35.8028 64.2479 34.2515 67.7028 28.9251 67.7028ZM21.0988 63.9374C23.7155 65.5047 26.6987 66.8839 28.9251 66.8839C33.1085 66.8839 34.6784 64.588 35.0413 63.9393C34.6784 63.2877 33.1085 60.9918 28.9251 60.9918C26.6958 60.9918 23.7155 62.373 21.0988 63.9374Z" fill="#ADED1A"/>
<path d="M52.3085 45.2983C52.3085 45.5604 52.2123 45.7836 52.0194 45.9826C51.8258 46.1777 51.6024 46.2743 51.3454 46.2743H45.9462C45.6885 46.2743 45.4606 46.1777 45.2696 45.9826C45.0766 45.7836 44.9792 45.5604 44.9792 45.2983V44.5213C44.0476 45.2035 43.0589 45.7381 42.0164 46.1256C40.9702 46.5186 39.7255 46.712 38.2786 46.712C37.2202 46.712 36.196 46.5726 35.2162 46.2984C34.2364 46.0243 33.3603 45.5604 32.5889 44.9107C31.8189 44.2592 31.1999 43.4023 30.7311 42.3249C30.2657 41.2549 30.0352 39.9232 30.0352 38.331V37.8915C30.0352 35.032 30.9736 32.9491 32.8537 31.6301C34.7333 30.3186 37.7492 29.6605 41.8925 29.6605H44.4962V27.9066C44.4962 26.5072 44.1765 25.5987 43.5352 25.1729C42.891 24.752 42.0077 24.5427 40.8804 24.5427C40.1091 24.5427 39.3303 24.5493 38.5429 24.5669C37.7563 24.5808 36.9987 24.6088 36.2767 24.6405C35.5549 24.67 34.9037 24.7101 34.324 24.7617C33.7467 24.8094 33.2628 24.8513 32.8774 24.8829H32.6373C32.3775 24.8829 32.1711 24.8192 32.0099 24.6857C31.8482 24.559 31.7677 24.3322 31.7677 24.0065V20.0578C31.7677 19.5052 32.0735 19.1515 32.6851 18.9881C33.5857 18.7617 34.8 18.5331 36.3279 18.3066C37.8507 18.078 39.4197 17.9648 41.028 17.9648C42.7642 17.9648 44.331 18.1515 45.7268 18.5271C47.1255 18.8987 48.3059 19.4871 49.2721 20.2787C50.2362 21.08 50.9838 22.1 51.516 23.3484C52.045 24.5986 52.3085 26.1191 52.3085 27.9066V45.2983ZM44.6419 34.3341H41.8925C41.0593 34.3341 40.3697 34.4103 39.824 34.5554C39.2771 34.702 38.8392 34.9206 38.5195 35.2105C38.198 35.5071 37.9725 35.8788 37.8438 36.3325C37.715 36.788 37.6527 37.3103 37.6527 37.8915V38.331C37.6527 39.3701 37.9009 40.0348 38.3974 40.3284C38.8954 40.6191 39.6585 40.7697 40.6898 40.7697C41.4301 40.7697 42.1265 40.6602 42.7848 40.4519C43.4454 40.2393 44.0646 39.9865 44.6419 39.6963V34.3341Z" fill="#365BA2"/>
<path d="M66.2915 14.2143C66.2915 14.4708 66.1952 14.6995 66.0044 14.8918C65.8105 15.0871 65.5832 15.1883 65.3259 15.1883H59.0608C58.799 15.1883 58.5777 15.0871 58.3828 14.8918C58.1912 14.6995 58.0947 14.4708 58.0947 14.2143V9.67751C58.0947 9.42262 58.1912 9.19223 58.3828 8.99963C58.5777 8.80281 58.799 8.70508 59.0608 8.70508H65.3259C65.5832 8.70508 65.8105 8.80281 66.0044 8.99963C66.1952 9.19223 66.2915 9.42262 66.2915 9.67751V14.2143ZM66.1007 45.2975C66.1007 45.5596 66.0044 45.7827 65.8105 45.9818C65.6179 46.1769 65.3924 46.2735 65.1346 46.2735H59.2527C58.9947 46.2735 58.7735 46.1769 58.5777 45.9818C58.3828 45.7827 58.2886 45.5596 58.2886 45.2975V19.3292C58.2886 19.0691 58.3828 18.8402 58.5777 18.6456C58.7735 18.4527 58.9947 18.3532 59.2527 18.3532H65.1346C65.3924 18.3532 65.6179 18.4527 65.8105 18.6456C66.0044 18.8402 66.1007 19.0691 66.1007 19.3292V45.2975Z" fill="#365BA2"/>
<path d="M96.0904 18.8878C96.0904 19.0515 96.0233 19.2142 95.8966 19.3773L86.9275 31.7039L95.8485 45.2485C95.911 45.3152 95.9456 45.4408 95.9456 45.6416C95.9456 46.0598 95.7361 46.2737 95.3192 46.2737H88.0361C87.7782 46.2737 87.5618 46.2318 87.3879 46.1528C87.2076 46.0672 87.0237 45.8823 86.833 45.5905L79.8902 34.1412V45.2485C79.8902 45.5088 79.7937 45.7475 79.6 45.9558C79.4044 46.1669 79.1819 46.2737 78.9212 46.2737H73.0921C72.8322 46.2737 72.6 46.1669 72.3907 45.9558C72.181 45.7475 72.0779 45.5088 72.0779 45.2485V9.87826C72.0779 9.61615 72.181 9.38936 72.3907 9.19241C72.6 8.99982 72.8322 8.90234 73.0921 8.90234H78.9212C79.1819 8.90234 79.4044 8.99982 79.6 9.19241C79.7937 9.38936 79.8902 9.61615 79.8902 9.87826V30.2423L87.2174 19.083C87.408 18.7933 87.6196 18.5961 87.8449 18.5002C88.0702 18.4009 88.2801 18.3534 88.4706 18.3534H95.3652C95.8485 18.3534 96.0904 18.5324 96.0904 18.8878Z" fill="#365BA2"/>
<path d="M120.779 45.2983C120.779 45.5604 120.68 45.7836 120.487 45.9826C120.293 46.1777 120.07 46.2743 119.812 46.2743H114.411C114.156 46.2743 113.928 46.1777 113.739 45.9826C113.546 45.7836 113.45 45.5604 113.45 45.2983V44.5213C112.517 45.2035 111.526 45.7381 110.482 46.1256C109.437 46.5186 108.193 46.712 106.746 46.712C105.683 46.712 104.664 46.5726 103.684 46.2984C102.704 46.0243 101.83 45.5604 101.056 44.9107C100.283 44.2592 99.6646 43.4023 99.2001 42.3249C98.733 41.2549 98.501 39.9232 98.501 38.331V37.8915C98.501 35.032 99.4412 32.9491 101.321 31.6301C103.203 30.3186 106.217 29.6605 110.362 29.6605H112.967V27.9066C112.967 26.5072 112.646 25.5987 112.003 25.1729C111.356 24.752 110.473 24.5427 109.35 24.5427C108.58 24.5427 107.796 24.5493 107.011 24.5669C106.221 24.5808 105.469 24.6088 104.744 24.6405C104.023 24.67 103.371 24.7101 102.792 24.7617C102.214 24.8094 101.731 24.8513 101.347 24.8829H101.105C100.847 24.8829 100.638 24.8192 100.474 24.6857C100.316 24.559 100.235 24.3322 100.235 24.0065V20.0578C100.235 19.5052 100.541 19.1515 101.153 18.9881C102.053 18.7617 103.268 18.5331 104.793 18.3066C106.32 18.078 107.887 17.9648 109.495 17.9648C111.23 17.9648 112.796 18.1515 114.194 18.5271C115.593 18.8987 116.774 19.4871 117.738 20.2787C118.702 21.08 119.449 22.1 119.98 23.3484C120.512 24.5986 120.779 26.1191 120.779 27.9066V45.2983ZM113.111 34.3341H110.362C109.525 34.3341 108.834 34.4103 108.29 34.5554C107.74 34.702 107.307 34.9206 106.987 35.2105C106.665 35.5071 106.44 35.8788 106.311 36.3325C106.183 36.788 106.12 37.3103 106.12 37.8915V38.331C106.12 39.3701 106.366 40.0348 106.865 40.3284C107.365 40.6191 108.128 40.7697 109.157 40.7697C109.895 40.7697 110.597 40.6602 111.255 40.4519C111.91 40.2393 112.529 39.9865 113.111 39.6963V34.3341Z" fill="#365BA2"/>
<path d="M134.109 45.9558C133.935 46.1669 133.716 46.2737 133.461 46.2737H127.577C127.317 46.2737 127.086 46.1669 126.878 45.9558C126.668 45.7475 126.562 45.5088 126.562 45.2485V9.87826C126.562 9.61615 126.668 9.38936 126.878 9.19241C127.086 8.99982 127.317 8.90234 127.577 8.90234H133.461C133.716 8.90234 133.935 8.99982 134.109 9.19241C134.285 9.38936 134.371 9.61615 134.371 9.87826V45.2485C134.371 45.5088 134.285 45.7475 134.109 45.9558Z" fill="#365BA2"/>
<path d="M193.97 14.2143C193.97 14.4708 193.872 14.6995 193.683 14.8918C193.49 15.0871 193.262 15.1883 193.006 15.1883H186.738C186.474 15.1883 186.254 15.0871 186.062 14.8918C185.868 14.6995 185.774 14.4708 185.774 14.2143V9.67751C185.774 9.42262 185.868 9.19223 186.062 8.99963C186.254 8.80281 186.474 8.70508 186.738 8.70508H193.006C193.262 8.70508 193.49 8.80281 193.683 8.99963C193.872 9.19223 193.97 9.42262 193.97 9.67751V14.2143ZM193.777 45.2975C193.777 45.5596 193.683 45.7827 193.49 45.9818C193.293 46.1769 193.069 46.2735 192.813 46.2735H186.931C186.671 46.2735 186.447 46.1769 186.254 45.9818C186.062 45.7827 185.967 45.5596 185.967 45.2975V19.3292C185.967 19.0691 186.062 18.8402 186.254 18.6456C186.447 18.4527 186.671 18.3532 186.931 18.3532H192.813C193.069 18.3532 193.293 18.4527 193.49 18.6456C193.683 18.8402 193.777 19.0691 193.777 19.3292V45.2975Z" fill="#365BA2"/>
<path d="M223.141 33.6053C223.141 34.3859 222.799 34.7756 222.126 34.7756H206.741V34.8696C206.741 35.5452 206.824 36.2088 206.989 36.853C207.147 37.4971 207.422 38.0558 207.808 38.5411C208.19 39.0244 208.697 39.412 209.327 39.6982C209.953 39.9883 210.747 40.1359 211.711 40.1359C212.478 40.1359 213.304 40.1156 214.174 40.084C215.04 40.0562 215.898 40.0197 216.751 39.9865C217.597 39.9584 218.396 39.9148 219.14 39.8655C219.876 39.82 220.486 39.7606 220.965 39.6963H221.115C221.724 39.6963 222.032 39.9584 222.032 40.4779V44.2071C222.032 44.6004 221.969 44.8968 221.839 45.092C221.705 45.2892 221.437 45.4358 221.02 45.5354C219.47 45.9266 217.96 46.2212 216.483 46.4156C215.008 46.6145 213.218 46.712 211.137 46.712C209.689 46.712 208.241 46.4992 206.793 46.078C205.349 45.6543 204.046 44.9562 202.889 43.9821C201.729 43.0109 200.8 41.7179 200.092 40.1099C199.388 38.5029 199.034 36.5295 199.034 34.1928V30.7798C199.034 28.8296 199.301 27.0598 199.851 25.4675C200.399 23.8753 201.194 22.5295 202.24 21.4238C203.283 20.3199 204.558 19.4676 206.069 18.8691C207.58 18.265 209.303 17.9648 211.231 17.9648C213.194 17.9648 214.918 18.2885 216.413 18.9406C217.908 19.5884 219.152 20.4818 220.151 21.6204C221.151 22.7535 221.89 24.1039 222.394 25.6647C222.89 27.2211 223.141 28.9248 223.141 30.7798V33.6053ZM215.52 29.7079C215.52 27.8889 215.138 26.5352 214.363 25.6406C213.596 24.7478 212.534 24.2982 211.18 24.2982C209.834 24.2982 208.756 24.752 207.953 25.6647C207.147 26.5745 206.741 27.9206 206.741 29.7079V29.9031H215.52V29.7079Z" fill="#365BA2"/>
<path d="M264.652 19.3765L260.368 42.8634C260.1 44.2577 259.585 45.1761 258.797 45.6129C258.007 46.0544 257.114 46.2728 256.118 46.2728H253.179C252.022 46.2728 251.125 45.9846 250.48 45.4223C249.834 44.8517 249.386 44.0959 249.13 43.1526L245.9 30.436C245.864 30.2772 245.786 30.1934 245.66 30.1934C245.526 30.1934 245.447 30.2772 245.415 30.436L242.181 43.1526C241.934 44.0959 241.477 44.8517 240.836 45.4223C240.194 45.9846 239.293 46.2728 238.137 46.2728H235.193C234.682 46.2728 234.198 46.2236 233.749 46.1241C233.297 46.0264 232.892 45.8536 232.518 45.6129C232.152 45.3704 231.829 45.0245 231.554 44.5672C231.287 44.1145 231.082 43.5437 230.952 42.8634L226.659 19.3765V19.1799C226.659 18.9551 226.722 18.7602 226.848 18.5952C226.982 18.4345 227.159 18.3525 227.387 18.3525H233.214C233.506 18.3525 233.73 18.4 233.891 18.4994C234.052 18.5952 234.167 18.822 234.226 19.1799L237.074 37.6946C237.141 38.1184 237.232 38.3295 237.361 38.3295C237.523 38.3295 237.649 38.1184 237.751 37.6946L240.982 24.8317C241.206 23.9892 241.517 23.4148 241.922 23.1023C242.323 22.7937 242.913 22.639 243.677 22.639H247.639C248.402 22.639 248.988 22.7937 249.39 23.1023C249.795 23.4148 250.11 23.9892 250.335 24.8317L253.564 37.6946C253.663 38.1184 253.789 38.3295 253.954 38.3295C254.08 38.3295 254.17 38.1184 254.241 37.6946L257.086 19.1799C257.153 18.822 257.259 18.5952 257.421 18.4994C257.586 18.4 257.806 18.3525 258.093 18.3525H263.933C264.153 18.3525 264.338 18.4345 264.463 18.5952C264.594 18.7602 264.652 18.9551 264.652 19.1799V19.3765Z" fill="#365BA2"/>
<path d="M217.111 1.69644C217.111 1.88854 217.005 1.98453 216.791 1.98453H213.985V11.699C213.985 11.7871 213.956 11.8617 213.892 11.9257C213.831 11.9871 213.753 12.0191 213.665 12.0191H212.086C211.998 12.0191 211.923 11.9871 211.859 11.9257C211.798 11.8617 211.766 11.7871 211.766 11.699V1.98453H208.963C208.747 1.98453 208.64 1.88854 208.64 1.69644V0.429458C208.64 0.346774 208.672 0.274781 208.736 0.216095C208.797 0.154797 208.872 0.125453 208.963 0.125453H216.791C216.879 0.125453 216.957 0.154797 217.018 0.216095C217.082 0.274781 217.111 0.346774 217.111 0.429458V1.69644ZM224.809 7.02586L227.319 11.699C227.346 11.731 227.357 11.771 227.357 11.8244C227.357 11.955 227.293 12.0191 227.162 12.0191H225.209C225.135 12.0191 225.081 11.9951 225.044 11.9497C225.009 11.9017 224.871 11.6616 224.631 11.2295L222.582 7.42324H222.363C222.073 7.42324 221.595 7.40459 220.934 7.36195V11.699C220.934 11.7871 220.907 11.8617 220.848 11.9257C220.792 11.9871 220.718 12.0191 220.63 12.0191H219.035C218.947 12.0191 218.872 11.9871 218.808 11.9257C218.747 11.8617 218.714 11.7871 218.714 11.699V0.688202C218.714 0.514877 218.776 0.389423 218.898 0.309474C219.021 0.229402 219.448 0.157413 220.182 0.0933796C220.912 0.0320819 221.641 0 222.363 0C223.844 0 224.98 0.306735 225.775 0.917599C226.57 1.53107 226.967 2.43003 226.967 3.61968V3.75831C226.967 5.36411 226.247 6.4523 224.809 7.02586ZM224.764 3.75831V3.61968C224.764 3.02485 224.567 2.59005 224.169 2.318C223.774 2.04322 223.172 1.90719 222.363 1.90719C221.854 1.90719 221.377 1.92858 220.934 1.96849V5.57212C221.534 5.60408 222.011 5.62012 222.363 5.62012C223.244 5.62012 223.865 5.47614 224.225 5.18805C224.583 4.90258 224.764 4.42513 224.764 3.75831ZM231.288 8.70627L230.811 10.6587C230.635 11.4003 230.539 11.7897 230.525 11.827C230.515 11.867 230.48 11.9097 230.424 11.9524C230.371 11.9977 230.312 12.0191 230.248 12.0191H228.554C228.36 12.0191 228.264 11.9284 228.264 11.7443C228.264 11.7363 228.269 11.7096 228.28 11.667L230.904 1.63241C231.187 0.54422 231.929 0 233.134 0C234.332 0 235.071 0.54422 235.353 1.63241L237.994 11.7443C237.994 11.9284 237.898 12.0191 237.703 12.0191H236.01C235.847 12.0191 235.745 11.9311 235.703 11.7524L234.969 8.70627H231.288ZM234.54 6.8845L233.718 3.5023C233.473 2.50202 233.337 1.97918 233.305 1.93915C233.273 1.8965 233.217 1.87524 233.134 1.87524C233.009 1.87524 232.931 1.9205 232.905 2.00853L231.718 6.8845H234.54ZM246.511 0.125453C246.703 0.125453 246.799 0.216098 246.799 0.400116C246.799 0.41342 246.794 0.440149 246.783 0.47745L244.158 10.512C243.881 11.6003 243.142 12.1444 241.939 12.1444C240.741 12.1444 239.997 11.6003 239.712 10.512L237.071 0.400116C237.071 0.216098 237.167 0.125453 237.359 0.125453H239.056C239.216 0.125453 239.317 0.216098 239.36 0.400116L241.68 10.0186C241.723 10.1892 241.808 10.2773 241.939 10.2773C242.07 10.2773 242.155 10.1892 242.195 10.0186L244.51 0.400116C244.55 0.216098 244.652 0.125453 244.815 0.125453H246.511ZM254.82 11.5896C254.82 11.7203 254.785 11.8057 254.721 11.851C254.657 11.8964 254.321 11.955 253.718 12.0298C253.113 12.1071 252.36 12.1444 251.459 12.1444C250.104 12.1444 249.149 11.8751 248.594 11.3362C248.039 10.7947 247.762 9.97325 247.762 8.8689V3.28359C247.762 2.17389 248.039 1.34706 248.594 0.808185C249.149 0.269436 250.104 0 251.459 0C252.208 0 252.929 0.0374228 253.619 0.109413C254.31 0.181404 254.681 0.24805 254.737 0.304126C254.79 0.362812 254.82 0.448108 254.82 0.56287V1.58715C254.82 1.67518 254.788 1.74978 254.726 1.81381C254.662 1.87524 254.588 1.90719 254.5 1.90719H251.232C250.747 1.90719 250.416 2.00853 250.235 2.21132C250.056 2.41399 249.965 2.77145 249.965 3.28359V5.00925H254.302C254.393 5.00925 254.468 5.04134 254.529 5.10263C254.593 5.16667 254.622 5.24139 254.622 5.32942V6.47903C254.622 6.56706 254.593 6.64166 254.529 6.7057C254.468 6.76712 254.393 6.79908 254.302 6.79908H249.965V8.8689C249.965 9.38104 250.056 9.73851 250.235 9.94118C250.416 10.144 250.747 10.2453 251.232 10.2453H254.5C254.588 10.2453 254.662 10.2773 254.726 10.3387C254.788 10.4027 254.82 10.4773 254.82 10.5653V11.5896ZM263.721 11.5896C263.721 11.7363 263.662 11.8323 263.547 11.8831C263.433 11.9311 263.064 11.9871 262.446 12.051C261.827 12.1125 261.237 12.1444 260.68 12.1444C259.325 12.1444 258.37 11.8751 257.815 11.3362C257.26 10.7947 256.983 9.97325 256.983 8.8689V0.445498C256.983 0.357468 257.015 0.282739 257.076 0.218705C257.14 0.157408 257.215 0.125453 257.303 0.125453H258.882C258.97 0.125453 259.048 0.157408 259.109 0.218705C259.173 0.282739 259.202 0.357468 259.202 0.445498V8.8689C259.202 9.38104 259.29 9.73851 259.469 9.94118C259.645 10.144 259.973 10.2453 260.453 10.2453H263.398C263.489 10.2453 263.563 10.2773 263.625 10.3387C263.689 10.4027 263.721 10.4773 263.721 10.5653V11.5896ZM271.981 11.5896C271.981 11.7363 271.923 11.8323 271.808 11.8831C271.693 11.9311 271.325 11.9871 270.706 12.051C270.088 12.1125 269.498 12.1444 268.941 12.1444C267.586 12.1444 266.631 11.8751 266.076 11.3362C265.521 10.7947 265.244 9.97325 265.244 8.8689V0.445498C265.244 0.357468 265.276 0.282739 265.337 0.218705C265.401 0.157408 265.476 0.125453 265.564 0.125453H267.143C267.231 0.125453 267.308 0.157408 267.37 0.218705C267.434 0.282739 267.463 0.357468 267.463 0.445498V8.8689C267.463 9.38104 267.551 9.73851 267.73 9.94118C267.906 10.144 268.234 10.2453 268.714 10.2453H271.659C271.749 10.2453 271.824 10.2773 271.885 10.3387C271.949 10.4027 271.981 10.4773 271.981 10.5653V11.5896ZM280.562 11.5896C280.562 11.7203 280.528 11.8057 280.464 11.851C280.4 11.8964 280.063 11.955 279.461 12.0298C278.855 12.1071 278.103 12.1444 277.201 12.1444C275.846 12.1444 274.892 11.8751 274.337 11.3362C273.782 10.7947 273.504 9.97325 273.504 8.8689V3.28359C273.504 2.17389 273.782 1.34706 274.337 0.808185C274.892 0.269436 275.846 0 277.201 0C277.951 0 278.671 0.0374228 279.362 0.109413C280.053 0.181404 280.424 0.24805 280.48 0.304126C280.533 0.362812 280.562 0.448108 280.562 0.56287V1.58715C280.562 1.67518 280.53 1.74978 280.469 1.81381C280.405 1.87524 280.33 1.90719 280.242 1.90719H276.975C276.489 1.90719 276.159 2.00853 275.977 2.21132C275.798 2.41399 275.708 2.77145 275.708 3.28359V5.00925H280.045C280.135 5.00925 280.21 5.04134 280.272 5.10263C280.335 5.16667 280.365 5.24139 280.365 5.32942V6.47903C280.365 6.56706 280.335 6.64166 280.272 6.7057C280.21 6.76712 280.135 6.79908 280.045 6.79908H275.708V8.8689C275.708 9.38104 275.798 9.73851 275.977 9.94118C276.159 10.144 276.489 10.2453 276.975 10.2453H280.242C280.33 10.2453 280.405 10.2773 280.469 10.3387C280.53 10.4027 280.562 10.4773 280.562 10.5653V11.5896ZM288.82 7.02586L291.33 11.699C291.357 11.731 291.368 11.771 291.368 11.8244C291.368 11.955 291.304 12.0191 291.173 12.0191H289.22C289.146 12.0191 289.092 11.9951 289.055 11.9497C289.02 11.9017 288.882 11.6616 288.642 11.2295L286.593 7.42324H286.374C286.084 7.42324 285.606 7.40459 284.945 7.36195V11.699C284.945 11.7871 284.918 11.8617 284.859 11.9257C284.803 11.9871 284.729 12.0191 284.641 12.0191H283.046C282.958 12.0191 282.883 11.9871 282.819 11.9257C282.758 11.8617 282.725 11.7871 282.725 11.699V0.688202C282.725 0.514877 282.787 0.389423 282.909 0.309474C283.032 0.229402 283.459 0.157413 284.193 0.0933796C284.923 0.0320819 285.652 0 286.374 0C287.855 0 288.991 0.306735 289.786 0.917599C290.581 1.53107 290.978 2.43003 290.978 3.61968V3.75831C290.978 5.36411 290.258 6.4523 288.82 7.02586ZM288.775 3.75831V3.61968C288.775 3.02485 288.578 2.59005 288.18 2.318C287.785 2.04322 287.183 1.90719 286.374 1.90719C285.865 1.90719 285.388 1.92858 284.945 1.96849V5.57212C285.545 5.60408 286.022 5.62012 286.374 5.62012C287.255 5.62012 287.876 5.47614 288.236 5.18805C288.594 4.90258 288.775 4.42513 288.775 3.75831Z" fill="#ADED1A"/>
</svg>
