<svg width="7" height="11" viewBox="0 0 7 11" fill="none" xmlns="http://www.w3.org/2000/svg">
<path d="M6.89553 1.77159V0.790244C6.89553 0.705186 6.79777 0.658213 6.73176 0.710264L1.00871 5.18028C0.960084 5.2181 0.920739 5.26652 0.893673 5.32185C0.866608 5.37719 0.852539 5.43797 0.852539 5.49957C0.852539 5.56117 0.866608 5.62195 0.893673 5.67729C0.920739 5.73262 0.960084 5.78104 1.00871 5.81886L6.73176 10.2889C6.79904 10.3409 6.89553 10.294 6.89553 10.2089V9.22755C6.89553 9.16534 6.86633 9.10567 6.81809 9.06759L2.24777 5.50021L6.81809 1.93155C6.86633 1.89347 6.89553 1.8338 6.89553 1.77159Z" fill="#8C8C8C"/>
</svg>
