<svg width="9" height="9" viewBox="0 0 9 9" fill="none" xmlns="http://www.w3.org/2000/svg">
<path d="M1.82361 4.5L5.021 0.164915C5.07039 0.0984374 5.02582 0 4.9451 0H4.01383C3.9548 0 3.89818 0.0294035 3.86204 0.077983L0.786321 4.24815C0.733053 4.32018 0.704102 4.40908 0.704102 4.50064C0.704102 4.59219 0.733053 4.6811 0.786321 4.75312L3.86204 8.92202C3.89818 8.97188 3.9548 9 4.01383 9H4.9451C5.02582 9 5.07039 8.90156 5.021 8.83508L1.82361 4.5ZM5.48603 4.5L8.68343 0.164915C8.73282 0.0984374 8.68824 0 8.60753 0H7.67626C7.61723 0 7.5606 0.0294035 7.52446 0.077983L4.44875 4.24815C4.39548 4.32018 4.36653 4.40908 4.36653 4.50064C4.36653 4.59219 4.39548 4.6811 4.44875 4.75312L7.52446 8.92202C7.5606 8.97188 7.61723 9 7.67626 9H8.60753C8.68824 9 8.73282 8.90156 8.68343 8.83508L5.48603 4.5Z" fill="#8C8C8C"/>
</svg>
