<svg width="14" height="13" viewBox="0 0 14 13" fill="none" xmlns="http://www.w3.org/2000/svg">
<path d="M12.0292 8.53301C11.2332 8.53301 10.4517 8.40853 9.71119 8.1638C9.34831 8.04003 8.90221 8.15357 8.68074 8.38104L7.21902 9.48448C5.52384 8.57959 4.47964 7.53573 3.58711 5.85328L4.65808 4.42965C4.93633 4.15177 5.03613 3.74586 4.91656 3.365C4.67078 2.62055 4.54592 1.83943 4.54592 1.04318C4.54596 0.467966 4.07799 0 3.50281 0H1.11541C0.540232 0 0.0722656 0.467966 0.0722656 1.04315C0.0722656 7.63625 5.43605 13 12.0292 13C12.6043 13 13.0723 12.532 13.0723 11.9569V9.57613C13.0723 9.00098 12.6043 8.53301 12.0292 8.53301Z" fill="black"/>
</svg>
